<svg width="374" height="56" fill="none" xmlns="http://www.w3.org/2000/svg"><path d="M12.23 9.773C8.418 6.874 10.468.793 15.256.793h320.087a5 5 0 013.027 1.022l29.575 22.5c2.63 2 2.63 5.957 0 7.958l-29.575 22.5a5 5 0 01-3.027 1.02H15.257c-4.788 0-6.838-6.08-3.028-8.978l19.114-14.542c2.63-2 2.63-5.957 0-7.958L12.23 9.773z" fill="#E2EAE8"/><path d="M117.18 29.004c0 .922-.073 1.747-.219 2.476-.141.724-.365 1.339-.672 1.844a3.12 3.12 0 01-1.203 1.157c-.495.265-1.094.398-1.797.398-.88 0-1.607-.232-2.18-.695-.573-.47-.997-1.141-1.273-2.016-.276-.88-.414-1.935-.414-3.164 0-1.23.125-2.281.375-3.156.255-.88.666-1.555 1.234-2.024.568-.469 1.321-.703 2.258-.703.885 0 1.615.235 2.188.703.578.464 1.005 1.136 1.281 2.016.281.875.422 1.93.422 3.164zm-5.907 0c0 .963.063 1.768.188 2.414.13.646.344 1.13.641 1.453.296.318.692.477 1.187.477.495 0 .891-.16 1.188-.477.296-.318.51-.8.64-1.445.136-.646.203-1.453.203-2.422 0-.958-.065-1.76-.195-2.406-.13-.646-.344-1.13-.641-1.453-.297-.329-.695-.493-1.195-.493-.5 0-.898.164-1.195.492-.292.323-.503.808-.633 1.454-.125.646-.188 1.448-.188 2.406zm15.063 5.719h-7.734V33.34l2.96-3a37.606 37.606 0 001.415-1.508c.369-.427.643-.83.82-1.21a2.84 2.84 0 00.273-1.243c0-.552-.159-.969-.476-1.25-.318-.287-.737-.43-1.258-.43-.495 0-.953.1-1.375.297a6.378 6.378 0 00-1.297.828l-1.008-1.21a8.323 8.323 0 011.016-.743 4.954 4.954 0 011.219-.531 5.287 5.287 0 011.531-.203c.724 0 1.349.13 1.875.39.526.256.93.612 1.211 1.07.286.459.429.993.429 1.602a3.95 3.95 0 01-.367 1.703 6.52 6.52 0 01-1.047 1.547 29.166 29.166 0 01-1.617 1.649l-1.976 1.93v.085h5.406v1.61zm1.75-.97c0-.426.109-.726.328-.898a1.27 1.27 0 01.813-.265c.317 0 .588.088.812.265.229.172.344.472.344.899 0 .417-.115.719-.344.906a1.246 1.246 0 01-.812.274c-.318 0-.589-.092-.813-.274-.219-.187-.328-.49-.328-.906z" fill="#E64B13"/><path d="M139.602 24.73a5.39 5.39 0 00-1.493.204c-.474.13-.919.286-1.336.468l-.656-1.53a7.483 7.483 0 011.641-.54 8.737 8.737 0 011.875-.195c.875 0 1.646.135 2.312.406.667.27 1.224.661 1.672 1.172a5.035 5.035 0 011.016 1.828c.229.708.344 1.503.344 2.383 0 1.203-.201 2.25-.602 3.14a4.552 4.552 0 01-1.828 2.078c-.813.49-1.844.735-3.094.735-.656 0-1.232-.042-1.726-.125a8.29 8.29 0 01-1.477-.398v-1.594a17.62 17.62 0 001.523.383c.49.093.993.14 1.508.14.594 0 1.117-.078 1.571-.234a3.013 3.013 0 001.148-.696c.312-.312.552-.692.719-1.14.172-.453.265-.977.281-1.57h-5.297v-1.579h5.281a4.28 4.28 0 00-.304-1.406 3 3 0 00-.696-1.047 2.8 2.8 0 00-1.039-.656 3.788 3.788 0 00-1.343-.227zm13.015 1.344h2.024l-3.579 4.156 3.883 4.493h-2.117l-3.726-4.391v4.39h-1.844v-8.648h1.844v4.195l3.515-4.195zm7.219 8.805c-.818 0-1.526-.159-2.125-.477-.599-.317-1.06-.804-1.383-1.46-.323-.657-.484-1.49-.484-2.5 0-1.053.177-1.912.531-2.579.354-.666.844-1.159 1.469-1.476.63-.318 1.351-.477 2.164-.477.515 0 .982.052 1.398.156.422.1.779.222 1.071.368l-.547 1.468a8.017 8.017 0 00-.977-.328 3.743 3.743 0 00-.961-.133c-.505 0-.927.112-1.265.336-.334.224-.584.558-.75 1-.162.443-.243.992-.243 1.649 0 .635.084 1.172.25 1.61.167.431.414.76.743.983.328.22.731.329 1.21.329.474 0 .899-.058 1.274-.172a5.633 5.633 0 001.062-.446v1.594a3.934 3.934 0 01-1.054.414c-.375.094-.836.14-1.383.14zm12.023-8.805v8.649h-1.851v-7.196h-3.86v7.196h-1.843v-8.649h7.554zm7.071-.164c1.026 0 1.849.375 2.468 1.125.625.75.938 1.865.938 3.344 0 .98-.146 1.805-.438 2.476-.286.667-.69 1.172-1.211 1.516-.515.339-1.117.508-1.804.508-.438 0-.818-.057-1.141-.172a2.844 2.844 0 01-.828-.445 3.168 3.168 0 01-.578-.61h-.109c.026.209.049.44.07.696.026.25.039.479.039.687v3.524h-1.844V26.074h1.5l.258 1.195h.086a3.58 3.58 0 01.586-.68c.234-.207.515-.372.844-.491a3.305 3.305 0 011.164-.188zm-.493 1.5c-.505 0-.911.102-1.218.305-.302.198-.524.497-.664.898-.136.401-.209.904-.219 1.508v.258c0 .64.065 1.185.195 1.633.136.442.357.781.664 1.015.313.23.735.344 1.266.344.448 0 .818-.122 1.109-.367.297-.245.518-.594.664-1.047.146-.453.219-.987.219-1.602 0-.932-.167-1.656-.5-2.171-.328-.516-.833-.774-1.516-.774zm9.469-1.5c.771 0 1.432.159 1.985.477a3.19 3.19 0 011.273 1.351c.297.584.445 1.282.445 2.094v.984h-5.773c.021.839.245 1.485.672 1.938.432.453 1.036.68 1.812.68a6.39 6.39 0 001.485-.157 8.263 8.263 0 001.367-.476v1.492a5.99 5.99 0 01-1.32.445c-.448.094-.985.14-1.61.14-.849 0-1.596-.163-2.242-.491a3.6 3.6 0 01-1.508-1.485c-.359-.656-.539-1.471-.539-2.445 0-.969.164-1.792.492-2.469.328-.677.789-1.192 1.383-1.547.594-.354 1.287-.53 2.078-.53zm0 1.383c-.578 0-1.047.188-1.406.563-.354.374-.563.924-.625 1.648h3.937a3.036 3.036 0 00-.218-1.149 1.67 1.67 0 00-.625-.78c-.276-.188-.631-.282-1.063-.282zm9.258 7.586c-.818 0-1.526-.159-2.125-.477-.599-.317-1.06-.804-1.383-1.46-.323-.657-.484-1.49-.484-2.5 0-1.053.177-1.912.531-2.579.354-.666.844-1.159 1.469-1.476.63-.318 1.351-.477 2.164-.477.516 0 .982.052 1.398.156.422.1.779.222 1.071.368l-.547 1.468a7.96 7.96 0 00-.977-.328 3.737 3.737 0 00-.961-.133c-.505 0-.927.112-1.265.336-.334.224-.584.558-.75 1-.162.443-.243.992-.243 1.649 0 .635.084 1.172.25 1.61.167.431.415.76.743.983.328.22.731.329 1.211.329a4.35 4.35 0 001.273-.172 5.67 5.67 0 001.063-.446v1.594c-.329.188-.68.326-1.055.414-.375.094-.836.14-1.383.14zm7.953 0c-.818 0-1.526-.159-2.125-.477-.599-.317-1.06-.804-1.383-1.46-.323-.657-.484-1.49-.484-2.5 0-1.053.177-1.912.531-2.579.354-.666.844-1.159 1.469-1.476.63-.318 1.352-.477 2.164-.477.516 0 .982.052 1.398.156.422.1.779.222 1.071.368l-.547 1.468a7.96 7.96 0 00-.977-.328 3.737 3.737 0 00-.961-.133c-.505 0-.927.112-1.265.336-.334.224-.584.558-.75 1-.162.443-.242.992-.242 1.649 0 .635.083 1.172.25 1.61.166.431.414.76.742.983.328.22.732.329 1.211.329a4.35 4.35 0 001.273-.172 5.67 5.67 0 001.063-.446v1.594a3.94 3.94 0 01-1.055.414c-.375.094-.836.14-1.383.14zm3.719-3.672v-1.555h4.031v1.555h-4.031zm9.297-5.297c1.094 0 1.919.242 2.476.727.563.484.844 1.24.844 2.265v5.82h-1.305l-.351-1.226h-.063c-.244.313-.497.57-.757.773a2.653 2.653 0 01-.907.454c-.338.104-.752.156-1.242.156-.516 0-.976-.094-1.383-.281a2.203 2.203 0 01-.961-.875c-.234-.391-.351-.886-.351-1.485 0-.89.33-1.56.992-2.008.667-.447 1.672-.695 3.016-.742l1.5-.054v-.454c0-.599-.141-1.026-.422-1.28-.276-.256-.667-.384-1.172-.384-.432 0-.852.063-1.258.188a8.883 8.883 0 00-1.187.46l-.594-1.296a6.663 6.663 0 011.437-.547 6.692 6.692 0 011.688-.21zm1.5 4.68l-1.117.039c-.917.031-1.56.187-1.93.469-.37.28-.555.666-.555 1.156 0 .427.128.74.383.937.255.193.591.29 1.008.29.635 0 1.161-.18 1.578-.54.422-.364.633-.898.633-1.601v-.75zm6.234-4.516v3.477h4.047v-3.477h1.844v8.649h-1.844v-3.735h-4.047v3.735h-1.844v-8.649h1.844zm11.906-.164c1.094 0 1.92.242 2.477.727.562.484.844 1.24.844 2.265v5.82h-1.305l-.352-1.226h-.062c-.245.313-.497.57-.758.773a2.64 2.64 0 01-.906.454c-.339.104-.753.156-1.242.156a3.27 3.27 0 01-1.383-.281 2.198 2.198 0 01-.961-.875c-.234-.391-.352-.886-.352-1.485 0-.89.331-1.56.993-2.008.666-.447 1.671-.695 3.015-.742l1.5-.054v-.454c0-.599-.14-1.026-.422-1.28-.276-.256-.666-.384-1.172-.384-.432 0-.851.063-1.257.188a8.896 8.896 0 00-1.188.46l-.594-1.296a6.652 6.652 0 011.438-.547 6.69 6.69 0 011.687-.21zm1.5 4.68l-1.117.039c-.916.031-1.56.187-1.929.469-.37.28-.555.666-.555 1.156 0 .427.127.74.383.937.255.193.591.29 1.007.29.636 0 1.162-.18 1.579-.54.421-.364.632-.898.632-1.601v-.75zm11.508 4.133h-1.851v-7.211h-2.399a39.895 39.895 0 01-.39 3.367c-.157.932-.352 1.693-.586 2.281-.235.584-.524 1.01-.868 1.281-.343.271-.757.407-1.242.407-.213 0-.406-.016-.578-.047a1.928 1.928 0 01-.461-.125V33.23c.089.032.185.058.289.079.104.02.211.03.321.03a.752.752 0 00.531-.233c.166-.162.32-.415.461-.758.14-.344.268-.797.383-1.36.114-.567.218-1.255.312-2.062a60.35 60.35 0 00.25-2.852h5.828v8.649zm4.399-8.649v4.414c0 .14-.006.32-.016.54-.005.213-.016.437-.031.671a49.553 49.553 0 01-.086 1.063l4.351-6.688h2.235v8.649h-1.758v-4.367c0-.23.005-.495.016-.797l.046-.875c.021-.282.034-.495.04-.641l-4.336 6.68h-2.227v-8.649h1.766zm11.781-.164c.635 0 1.206.086 1.711.258.51.167.914.42 1.211.758.297.338.445.76.445 1.265 0 .521-.151.938-.453 1.25-.297.308-.701.53-1.211.665v.07c.359.088.685.216.977.383.291.161.523.38.695.656.177.27.266.62.266 1.047 0 .484-.144.924-.43 1.32-.281.396-.714.711-1.297.945-.583.235-1.326.352-2.227.352-.432 0-.843-.023-1.234-.07a8.094 8.094 0 01-1.055-.18 4.51 4.51 0 01-.828-.297v-1.578c.36.172.794.328 1.305.469.51.135 1.057.203 1.641.203.432 0 .822-.04 1.171-.117.355-.084.633-.22.836-.407.209-.187.313-.437.313-.75a.976.976 0 00-.274-.71c-.182-.188-.455-.326-.82-.415-.365-.093-.825-.14-1.383-.14h-1.031v-1.352h.906c.766 0 1.365-.083 1.797-.25.438-.172.656-.469.656-.89a.862.862 0 00-.461-.797c-.307-.177-.778-.266-1.414-.266-.437 0-.869.05-1.296.148-.428.094-.855.23-1.282.407l-.578-1.352a8.815 8.815 0 013.344-.625z" fill="#000"/></svg>