<svg width="374" height="56" fill="none" xmlns="http://www.w3.org/2000/svg"><path d="M12.23 9.053c-3.811-2.9-1.761-8.98 3.027-8.98h320.087a5 5 0 013.027 1.02l29.575 22.5c2.63 2.002 2.63 5.959 0 7.96l-29.575 22.5a5 5 0 01-3.027 1.02H15.257c-4.788 0-6.838-6.08-3.028-8.98l19.114-14.54c2.63-2.001 2.63-5.958 0-7.96L12.23 9.054z" fill="#E2EAE8"/><path d="M160.961 28.283c0 .922-.073 1.748-.219 2.477-.14.724-.364 1.338-.672 1.843a3.12 3.12 0 01-1.203 1.157c-.495.265-1.094.398-1.797.398-.88 0-1.607-.232-2.179-.695-.573-.469-.998-1.14-1.274-2.016-.276-.88-.414-1.935-.414-3.164s.125-2.281.375-3.156c.255-.88.667-1.555 1.234-2.023.568-.47 1.321-.704 2.258-.704.886 0 1.615.235 2.188.704.578.463 1.005 1.135 1.281 2.015.281.875.422 1.93.422 3.164zm-5.906 0c0 .964.062 1.768.187 2.414.13.646.344 1.13.641 1.453.297.318.692.477 1.187.477.495 0 .891-.159 1.188-.477.297-.317.51-.8.64-1.445.136-.646.204-1.453.204-2.422 0-.958-.066-1.76-.196-2.406-.13-.646-.344-1.13-.64-1.453-.297-.328-.696-.492-1.196-.492s-.898.164-1.195.492c-.292.323-.503.807-.633 1.453-.125.646-.187 1.448-.187 2.406zm14.625-3.094c0 .516-.105.964-.313 1.344-.208.38-.495.693-.859.938a3.64 3.64 0 01-1.25.515v.055c.911.115 1.599.401 2.062.86.469.458.703 1.064.703 1.82 0 .661-.158 1.252-.476 1.773-.318.516-.805.922-1.461 1.219-.656.297-1.5.445-2.531.445-.62 0-1.196-.05-1.727-.148a6.38 6.38 0 01-1.5-.477V31.9c.484.24 1 .425 1.547.555a6.73 6.73 0 001.555.195c.953 0 1.632-.177 2.039-.53.406-.36.609-.855.609-1.485 0-.407-.107-.74-.32-1-.209-.26-.534-.456-.977-.586-.437-.13-1.002-.195-1.695-.195h-1.008v-1.477h1.016c.661 0 1.192-.078 1.593-.234.401-.162.691-.383.868-.665.182-.28.273-.609.273-.984 0-.49-.159-.87-.476-1.14-.318-.276-.79-.415-1.415-.415-.385 0-.737.045-1.054.133a4.72 4.72 0 00-.867.336 8.107 8.107 0 00-.758.438l-.883-1.274a6.184 6.184 0 011.547-.82c.599-.224 1.297-.336 2.094-.336 1.171 0 2.075.253 2.711.758.635.5.953 1.172.953 2.015zm2.187 7.844c0-.427.11-.726.328-.898a1.27 1.27 0 01.813-.266c.317 0 .588.089.812.266.229.172.344.471.344.898 0 .417-.115.719-.344.907a1.246 1.246 0 01-.812.273c-.318 0-.589-.091-.813-.273-.218-.188-.328-.49-.328-.907z" fill="#E64B13"/><path d="M187.945 34.002l-1.117-3.172h-4.367l-1.117 3.172h-1.977l4.25-11.469h2.078l4.242 11.469h-1.992zm-1.601-4.781l-1.086-3.125a136.66 136.66 0 01-.414-1.328l-.196-.657c-.052.214-.117.453-.195.72-.073.26-.146.504-.219.733l-.156.532-1.094 3.125h3.36zm3.609-3.867h2l1.774 4.937c.078.224.148.445.21.664.068.214.125.425.172.633.052.208.094.417.125.625h.047c.052-.27.125-.573.219-.906.099-.339.208-.677.328-1.016l1.703-4.938h1.977l-3.711 9.837a5.417 5.417 0 01-.789 1.437 3.029 3.029 0 01-1.094.906c-.422.209-.904.313-1.445.313-.261 0-.487-.016-.68-.047a5.47 5.47 0 01-.492-.086v-1.469c.109.026.247.05.414.07.167.021.338.032.516.032.328 0 .611-.065.851-.196.24-.13.443-.315.609-.554.167-.235.305-.503.415-.805l.304-.813-3.453-8.625zm16.93 0v7.226h1.25v4.469h-1.696v-3.047h-5.968v3.047h-1.696V32.58h.704a9.719 9.719 0 001.093-2.125c.297-.781.526-1.604.688-2.469.166-.87.271-1.747.312-2.633h5.313zm-1.821 1.406h-1.914a16.985 16.985 0 01-.32 2.101 14.172 14.172 0 01-.586 1.992 9.253 9.253 0 01-.844 1.727h3.664v-5.82zm6.446-1.407v4.415c0 .14-.005.32-.016.539a15.03 15.03 0 01-.031.672 49.553 49.553 0 01-.086 1.062l4.352-6.687h2.234v8.648h-1.758v-4.367c0-.23.005-.495.016-.797.015-.302.031-.594.047-.875.02-.281.033-.495.039-.64l-4.336 6.679h-2.227v-8.649h1.766zm15.625 1.446h-2.844v7.203h-1.828v-7.203h-2.828v-1.445h7.5v1.445z" fill="#000"/></svg>