<svg width="373" height="56" fill="none" xmlns="http://www.w3.org/2000/svg"><path d="M11.803 9.835c-3.81-2.899-1.76-8.98 3.027-8.98h320.087c1.094 0 2.157.359 3.028 1.021l29.575 22.5c2.63 2.001 2.63 5.958 0 7.959l-29.575 22.5a5.003 5.003 0 01-3.028 1.02H14.83c-4.787 0-6.837-6.08-3.027-8.979l19.114-14.541c2.63-2.001 2.63-5.958 0-7.959L11.803 9.835z" fill="#E2EAE8"/><path d="M127.863 29.065c0 .922-.073 1.748-.219 2.477-.141.724-.365 1.338-.672 1.844-.307.505-.708.89-1.203 1.156-.495.266-1.094.398-1.797.398-.88 0-1.607-.231-2.18-.695-.572-.469-.997-1.14-1.273-2.015-.276-.88-.414-1.935-.414-3.165 0-1.229.125-2.28.375-3.156.255-.88.667-1.554 1.234-2.023.568-.469 1.321-.703 2.258-.703.886 0 1.615.234 2.188.703.578.463 1.005 1.135 1.281 2.015.281.875.422 1.93.422 3.164zm-5.907 0c0 .964.063 1.769.188 2.415.13.645.344 1.13.641 1.453.296.317.692.476 1.187.476.495 0 .891-.159 1.188-.476.296-.318.51-.8.64-1.446.136-.645.203-1.453.203-2.422 0-.958-.065-1.76-.195-2.406-.13-.646-.344-1.13-.641-1.453-.296-.328-.695-.492-1.195-.492-.5 0-.898.164-1.195.492-.292.323-.503.807-.633 1.453-.125.646-.188 1.448-.188 2.406zm11.211-1.421c.735 0 1.381.132 1.938.398.562.26 1 .646 1.312 1.156.313.505.469 1.125.469 1.86 0 .802-.169 1.494-.508 2.078-.338.578-.836 1.023-1.492 1.336-.656.312-1.456.468-2.398.468a8.572 8.572 0 01-1.68-.156 4.623 4.623 0 01-1.336-.469V32.66c.391.219.859.399 1.406.54a6.535 6.535 0 001.571.202c.531 0 .987-.078 1.367-.234.38-.156.672-.396.875-.719.208-.323.312-.732.312-1.226 0-.657-.211-1.162-.632-1.516-.417-.36-1.071-.539-1.961-.539a6.27 6.27 0 00-1 .086 8.22 8.22 0 00-.875.172l-.805-.477.43-5.586h5.937v1.618h-4.32l-.25 2.843a8.65 8.65 0 01.672-.117c.26-.042.583-.062.968-.062zm5.602 6.171c0-.427.109-.726.328-.898a1.27 1.27 0 01.813-.266c.317 0 .588.089.812.266.229.172.344.471.344.898 0 .417-.115.72-.344.907a1.246 1.246 0 01-.812.273c-.318 0-.589-.091-.813-.273-.219-.188-.328-.49-.328-.907z" fill="#E64B13"/><path d="M157.91 29.058c0 .88-.112 1.682-.336 2.406a5.144 5.144 0 01-.993 1.86 4.41 4.41 0 01-1.664 1.195c-.666.28-1.447.421-2.343.421-.912 0-1.703-.14-2.375-.421a4.372 4.372 0 01-1.664-1.204 5.2 5.2 0 01-.985-1.867c-.219-.724-.328-1.526-.328-2.406 0-1.177.193-2.203.578-3.078.391-.88.982-1.563 1.774-2.047.797-.49 1.802-.734 3.015-.734 1.188 0 2.175.242 2.961.726.787.485 1.375 1.167 1.766 2.047.396.875.594 1.909.594 3.102zm-8.719 0c0 .88.12 1.643.359 2.289.24.64.607 1.135 1.102 1.484.5.344 1.14.516 1.922.516.786 0 1.427-.172 1.922-.516.494-.349.859-.844 1.093-1.484.235-.646.352-1.41.352-2.29 0-1.338-.268-2.385-.805-3.14-.531-.76-1.38-1.14-2.547-1.14-.781 0-1.424.171-1.929.515-.5.344-.87.836-1.11 1.477-.239.635-.359 1.398-.359 2.289zm18.539-2.922v8.648h-1.852V27.59h-3.859v7.195h-1.844v-8.648h7.555zm9.164 1.445h-2.844v7.203h-1.828v-7.203h-2.828v-1.445h7.5v1.445zm3.437-1.445v4.414c0 .14-.005.32-.015.539-.005.213-.016.437-.031.672-.016.229-.032.44-.047.633-.016.192-.029.336-.039.43l4.351-6.688h2.235v8.648h-1.758v-4.367c0-.23.005-.495.015-.797l.047-.875c.021-.281.034-.495.039-.64l-4.336 6.68h-2.226v-8.65h1.765zm19.118 0v8.648h-1.703v-4.937c0-.323.007-.646.023-.97.016-.322.036-.63.062-.92h-.046l-2.633 6.827h-1.446l-2.609-6.836h-.055c.026.297.045.604.055.922.016.318.024.662.024 1.031v4.883h-1.704v-8.648h2.563l2.469 6.46 2.507-6.46h2.493zm4.367 0v4.414c0 .14-.005.32-.016.539-.005.213-.015.437-.031.672a49.713 49.713 0 01-.086 1.062l4.352-6.687h2.234v8.648h-1.758v-4.367c0-.23.005-.495.016-.797.015-.302.031-.594.047-.875.021-.281.034-.495.039-.64l-4.336 6.68h-2.227v-8.65h1.766zm11.781-.164c.636 0 1.206.086 1.711.258.51.166.914.419 1.211.757.297.339.445.76.445 1.266 0 .52-.151.937-.453 1.25-.297.307-.7.529-1.211.664v.07c.36.089.685.216.977.383.291.162.523.38.695.656.177.271.266.62.266 1.047 0 .485-.143.925-.43 1.32-.281.396-.713.712-1.297.946-.583.234-1.325.351-2.226.351-.433 0-.844-.023-1.235-.07a8.015 8.015 0 01-1.054-.18 4.502 4.502 0 01-.829-.296v-1.579c.36.172.795.329 1.305.47a6.38 6.38 0 001.641.202 5.39 5.39 0 001.172-.117c.354-.083.632-.219.836-.406.208-.188.312-.438.312-.75a.98.98 0 00-.273-.711c-.183-.188-.456-.326-.821-.414-.364-.094-.825-.14-1.383-.14h-1.031v-1.352h.906c.766 0 1.365-.084 1.797-.25.438-.172.657-.47.657-.89a.864.864 0 00-.461-.798c-.308-.177-.779-.265-1.414-.265-.438 0-.87.049-1.297.148-.427.094-.854.23-1.282.406l-.578-1.351a8.815 8.815 0 013.344-.625zm9.016 0c1.093 0 1.919.242 2.476.726.563.485.844 1.24.844 2.266v5.82h-1.305l-.351-1.226h-.063c-.244.312-.497.57-.758.773a2.64 2.64 0 01-.906.453c-.338.104-.752.156-1.242.156a3.27 3.27 0 01-1.383-.28 2.203 2.203 0 01-.961-.876c-.234-.39-.351-.885-.351-1.484 0-.89.33-1.56.992-2.008.667-.448 1.672-.695 3.016-.742l1.5-.055v-.453c0-.599-.141-1.026-.422-1.281-.276-.255-.667-.383-1.172-.383-.432 0-.852.062-1.258.187a8.936 8.936 0 00-1.188.461l-.593-1.296a6.663 6.663 0 011.437-.547 6.692 6.692 0 011.688-.211zm1.5 4.68l-1.117.038c-.917.032-1.56.188-1.93.47-.37.28-.555.666-.555 1.155 0 .428.128.74.383.938.255.193.591.289 1.008.289.635 0 1.161-.18 1.578-.54.422-.364.633-.898.633-1.6v-.75zm13.32 7.18h-1.703v-3.048h-7.227v-8.648h1.844v7.203h4.008v-7.203h1.844v7.234h1.234v4.461zm3.352-11.696v4.414c0 .14-.006.32-.016.539-.005.213-.016.437-.031.672-.016.229-.032.44-.047.633-.016.192-.029.336-.039.43l4.351-6.688h2.235v8.648h-1.758v-4.367c0-.23.005-.495.016-.797l.046-.875c.021-.281.034-.495.039-.64l-4.335 6.68h-2.227v-8.65h1.766zm9.961 8.648h-2.047l2.414-3.531a3.32 3.32 0 01-.922-.461 2.388 2.388 0 01-.688-.813c-.177-.338-.265-.75-.265-1.234 0-.844.302-1.49.906-1.937.604-.448 1.393-.672 2.367-.672h3.922v8.648h-1.836V31.44h-1.742l-2.109 3.344zm.289-6.023c0 .437.164.77.492 1 .328.224.776.336 1.344.336h1.726v-2.578h-1.992c-.547 0-.945.12-1.195.359a1.16 1.16 0 00-.375.883z" fill="#000"/></svg>