<svg width="374" height="56" fill="none" xmlns="http://www.w3.org/2000/svg"><path d="M12.229 9.73c-3.81-2.9-1.76-8.98 3.027-8.98h320.087c1.094 0 2.157.359 3.028 1.02l29.575 22.5c2.63 2.002 2.63 5.958 0 7.96l-29.575 22.5a5.002 5.002 0 01-3.028 1.02H15.256c-4.787 0-6.837-6.08-3.027-8.98l19.114-14.54c2.63-2.002 2.63-5.958 0-7.96L12.229 9.73z" fill="#E2EAE8"/><path d="M118.594 28.96c0 .922-.073 1.747-.219 2.476-.141.724-.365 1.34-.672 1.844-.307.505-.708.89-1.203 1.157-.495.265-1.094.398-1.797.398-.88 0-1.607-.232-2.18-.695-.573-.47-.997-1.141-1.273-2.016-.276-.88-.414-1.935-.414-3.164 0-1.23.125-2.281.375-3.156.255-.88.667-1.555 1.234-2.024.568-.469 1.321-.703 2.258-.703.885 0 1.615.234 2.188.703.578.464 1.005 1.136 1.281 2.016.281.875.422 1.93.422 3.164zm-5.907 0c0 .963.063 1.768.188 2.414.13.646.344 1.13.641 1.453.296.318.692.477 1.187.477.495 0 .891-.16 1.188-.477.296-.318.51-.8.64-1.445.136-.646.203-1.453.203-2.422 0-.958-.065-1.76-.195-2.406-.13-.646-.344-1.13-.641-1.453-.296-.328-.695-.493-1.195-.493-.5 0-.898.165-1.195.493-.292.323-.503.807-.633 1.453-.125.646-.188 1.448-.188 2.406zm15.477 3.21h-1.547v2.509h-1.812V32.17h-5.196v-1.39l5.219-7.555h1.789v7.422h1.547v1.523zm-3.359-1.523v-2.835c0-.235.002-.472.007-.711l.032-.703c.01-.224.021-.43.031-.618.01-.192.018-.351.023-.476h-.062a9.803 9.803 0 01-.711 1.266l-2.813 4.078h3.493zm4.695 3.063c0-.427.109-.727.328-.898a1.27 1.27 0 01.813-.266c.317 0 .588.088.812.266.229.171.344.47.344.898 0 .417-.115.719-.344.906a1.246 1.246 0 01-.812.274c-.318 0-.589-.092-.813-.274-.219-.187-.328-.49-.328-.906z" fill="#E64B13"/><path d="M138.5 23.257h3.398c1.474 0 2.586.213 3.336.64.75.428 1.125 1.165 1.125 2.211 0 .438-.078.834-.234 1.188a2.187 2.187 0 01-.664.867 2.472 2.472 0 01-1.078.453v.078c.442.079.836.216 1.179.414.349.198.623.482.821.852.203.37.304.849.304 1.438 0 .697-.166 1.291-.5 1.78-.328.49-.799.863-1.414 1.118-.609.255-1.333.383-2.171.383H138.5V23.257zm1.875 4.71h1.797c.849 0 1.437-.137 1.765-.413.329-.276.493-.68.493-1.211 0-.542-.196-.933-.586-1.172-.386-.24-1-.36-1.844-.36h-1.625v3.157zm0 1.516v3.625h1.977c.875 0 1.489-.169 1.843-.507.354-.339.532-.797.532-1.375a1.71 1.71 0 00-.243-.922c-.156-.26-.414-.461-.773-.602-.359-.146-.844-.219-1.453-.219h-1.883zm16.141.852c0 .719-.094 1.357-.282 1.914a3.83 3.83 0 01-.82 1.414c-.359.38-.792.672-1.297.875-.505.198-1.075.297-1.711.297a4.36 4.36 0 01-1.633-.297 3.736 3.736 0 01-1.289-.875 4.018 4.018 0 01-.836-1.414c-.198-.557-.296-1.195-.296-1.914 0-.953.164-1.76.492-2.422a3.502 3.502 0 011.422-1.523c.614-.35 1.346-.524 2.195-.524.797 0 1.5.175 2.109.524.61.349 1.086.856 1.43 1.523.344.667.516 1.474.516 2.422zm-6.274 0c0 .63.076 1.17.227 1.617.156.448.396.792.718 1.031.323.235.74.352 1.25.352.511 0 .928-.117 1.25-.352.323-.24.56-.583.711-1.03.151-.449.227-.988.227-1.618 0-.63-.076-1.164-.227-1.602-.151-.442-.388-.778-.711-1.007-.322-.235-.742-.352-1.257-.352-.761 0-1.315.255-1.664.766-.349.51-.524 1.242-.524 2.195zm11.867 4.5c-.817 0-1.526-.159-2.125-.477-.599-.317-1.06-.804-1.382-1.46-.323-.657-.485-1.49-.485-2.5 0-1.053.177-1.912.531-2.579.355-.666.844-1.159 1.469-1.476.63-.318 1.352-.477 2.164-.477.516 0 .982.052 1.399.157a4.92 4.92 0 011.07.367l-.547 1.468a7.985 7.985 0 00-.976-.328 3.744 3.744 0 00-.961-.133c-.506 0-.928.112-1.266.336-.333.224-.583.558-.75 1-.162.443-.242.993-.242 1.649 0 .635.083 1.172.25 1.61.166.431.414.76.742.984.328.218.732.328 1.211.328a4.35 4.35 0 001.273-.172 5.663 5.663 0 001.063-.445v1.593c-.328.188-.68.326-1.055.414-.375.094-.836.141-1.383.141zm7.953 0c-.817 0-1.526-.159-2.125-.477-.599-.317-1.059-.804-1.382-1.46-.323-.657-.485-1.49-.485-2.5 0-1.053.177-1.912.532-2.579.354-.666.843-1.159 1.468-1.476.63-.318 1.352-.477 2.164-.477.516 0 .982.052 1.399.157a4.92 4.92 0 011.07.367l-.547 1.468a7.985 7.985 0 00-.976-.328 3.744 3.744 0 00-.961-.133c-.506 0-.927.112-1.266.336-.333.224-.583.558-.75 1-.161.443-.242.993-.242 1.649 0 .635.083 1.172.25 1.61.167.431.414.76.742.984.328.218.732.328 1.211.328a4.35 4.35 0 001.273-.172c.375-.115.73-.263 1.063-.445v1.593c-.328.188-.68.326-1.055.414-.375.094-.836.141-1.383.141zm11-7.36h-2.843v7.204h-1.828v-7.203h-2.829V26.03h7.5v1.446zm5.063-1.609c1.094 0 1.919.242 2.477.727.562.484.843 1.24.843 2.265v5.82h-1.304l-.352-1.226h-.062c-.245.313-.498.57-.758.774a2.653 2.653 0 01-.907.453c-.338.104-.752.156-1.242.156-.515 0-.976-.094-1.383-.281a2.195 2.195 0 01-.96-.875c-.235-.39-.352-.886-.352-1.485 0-.89.331-1.56.992-2.008.667-.447 1.672-.695 3.016-.742l1.5-.054v-.454c0-.598-.141-1.026-.422-1.28-.276-.256-.667-.383-1.172-.383-.432 0-.852.062-1.258.187a8.87 8.87 0 00-1.187.46L183 26.625a6.674 6.674 0 011.437-.547 6.697 6.697 0 011.688-.21zm1.5 4.68l-1.117.039c-.917.031-1.56.188-1.93.469-.37.281-.555.666-.555 1.156 0 .427.128.74.383.938.255.192.591.288 1.008.288.635 0 1.161-.18 1.578-.538.422-.365.633-.899.633-1.602v-.75zm6.234-4.516v3.477h4.047V26.03h1.844v8.649h-1.844v-3.735h-4.047v3.735h-1.843V26.03h1.843zm16.172 4.305c0 .719-.094 1.357-.281 1.914a3.845 3.845 0 01-.82 1.414c-.36.38-.792.672-1.297.875-.505.198-1.076.297-1.711.297a4.36 4.36 0 01-1.633-.297 3.726 3.726 0 01-1.289-.875 4.018 4.018 0 01-.836-1.414c-.198-.557-.297-1.195-.297-1.914 0-.953.164-1.76.492-2.422a3.513 3.513 0 011.422-1.523c.615-.35 1.347-.524 2.196-.524.796 0 1.5.175 2.109.524.609.349 1.086.856 1.43 1.523.343.667.515 1.474.515 2.422zm-6.273 0c0 .63.075 1.17.226 1.617.157.448.396.792.719 1.031.323.235.74.352 1.25.352s.927-.117 1.25-.352c.323-.24.56-.583.711-1.03.151-.449.227-.988.227-1.618 0-.63-.076-1.164-.227-1.602-.151-.442-.388-.778-.711-1.007-.323-.235-.742-.352-1.258-.352-.76 0-1.315.255-1.664.766-.349.51-.523 1.242-.523 2.195zm15.656-2.086c0 .5-.154.909-.461 1.227-.302.312-.719.518-1.25.617v.062c.568.073 1.042.274 1.422.602.38.328.57.784.57 1.367 0 .495-.125.935-.375 1.32-.245.38-.635.683-1.172.907-.531.218-1.226.328-2.086.328h-3.921V26.03h3.906c.646 0 1.221.07 1.726.211.511.14.912.373 1.204.695.291.323.437.76.437 1.313zm-1.633 3.813c0-.428-.164-.735-.492-.922-.323-.188-.797-.282-1.422-.282h-1.883v2.47h1.922c.584 0 1.042-.097 1.375-.29.334-.198.5-.523.5-.976zm-.234-3.649c0-.338-.128-.588-.383-.75-.255-.167-.656-.25-1.203-.25h-1.977v2.094h1.727c.604 0 1.06-.086 1.367-.258.313-.177.469-.456.469-.836zm11.336 6.266h-1.852v-7.211h-2.398a39.852 39.852 0 01-.391 3.367c-.156.932-.351 1.693-.586 2.281-.234.584-.523 1.01-.867 1.282-.344.27-.758.406-1.242.406-.214 0-.406-.016-.578-.047a1.91 1.91 0 01-.461-.125v-1.445c.088.03.185.057.289.078.104.02.211.03.32.03.193 0 .37-.077.531-.233.167-.162.321-.414.461-.758.141-.344.269-.797.383-1.36a25.41 25.41 0 00.313-2.062 61.75 61.75 0 00.25-2.852h5.828v8.649zm6.078-8.813c.771 0 1.432.16 1.984.477.552.317.977.768 1.274 1.351.297.584.445 1.282.445 2.094v.985h-5.773c.02.838.244 1.484.671 1.937.433.453 1.037.68 1.813.68.552 0 1.047-.052 1.484-.157a8.24 8.24 0 001.368-.476v1.492a5.992 5.992 0 01-1.321.445 7.96 7.96 0 01-1.609.141c-.849 0-1.597-.164-2.242-.492a3.596 3.596 0 01-1.508-1.485c-.36-.656-.539-1.471-.539-2.445 0-.969.164-1.792.492-2.469.328-.677.789-1.192 1.383-1.546.594-.355 1.286-.532 2.078-.532zm0 1.383c-.578 0-1.047.188-1.406.563-.355.374-.563.924-.625 1.648h3.937a3.018 3.018 0 00-.219-1.149 1.659 1.659 0 00-.625-.78c-.276-.188-.63-.282-1.062-.282zm7.617-1.219v3.477h4.047V26.03h1.844v8.649h-1.844v-3.735h-4.047v3.735h-1.844V26.03h1.844zm10.281 0v4.414c0 .141-.005.32-.015.54a16.76 16.76 0 01-.032.671c-.015.23-.031.44-.046.633-.016.193-.029.336-.039.43l4.351-6.688h2.234v8.649h-1.757V30.31c0-.229.005-.494.015-.796l.047-.875c.021-.282.034-.495.039-.641l-4.336 6.68h-2.226V26.03h1.765zm12.539-.164c.771 0 1.433.16 1.985.477a3.19 3.19 0 011.273 1.351c.297.584.446 1.282.446 2.094v.985h-5.774c.021.838.245 1.484.672 1.937.432.453 1.036.68 1.812.68a6.43 6.43 0 001.485-.157 8.23 8.23 0 001.367-.476v1.492a5.967 5.967 0 01-1.32.445 7.97 7.97 0 01-1.61.141c-.849 0-1.596-.164-2.242-.492a3.608 3.608 0 01-1.508-1.485c-.359-.656-.539-1.471-.539-2.445 0-.969.164-1.792.492-2.469.329-.677.79-1.192 1.383-1.546.594-.355 1.287-.532 2.078-.532zm0 1.383c-.578 0-1.046.188-1.406.563-.354.374-.562.924-.625 1.648h3.938a3.037 3.037 0 00-.219-1.149 1.67 1.67 0 00-.625-.78c-.276-.188-.63-.282-1.063-.282z" fill="#000"/></svg>