<svg width="1920" height="1992" viewBox="0 0 1920 1992" fill="none" xmlns="http://www.w3.org/2000/svg">
<path d="M-139.428 116.544V116.544C12.0781 41.9332 186.047 26.8161 348.152 74.1757L416.603 94.1739C548.989 132.851 688.746 139.062 824.041 112.28L1002.2 77.0146C1155.35 46.6976 1313.13 48.4839 1465.56 82.2605L1500.17 89.9295C1686.23 131.158 1880.17 118.713 2059.43 54.0444V54.0444V398.544H-139.428V116.544Z" fill="#FBF4EC"/>
<path d="M-140 171H2060V1675.48H-140V171Z" fill="#FBF4EC"/>
<path d="M-140 171H2060V1675.48H-140V171Z" fill="#FBF4EC"/>
<path d="M-140 1875.7V1875.7C11.5905 1950.31 185.633 1965.43 347.818 1918.07L416.321 1898.07C548.778 1859.39 688.601 1853.18 823.965 1879.96L1002.22 1915.23C1155.46 1945.55 1313.31 1943.76 1465.82 1909.98L1500.46 1902.31C1686.61 1861.09 1880.64 1873.53 2060 1938.2V1938.2V1593.7H-140V1875.7Z" fill="#FBF4EC"/>
</svg>
