<svg width="390" height="1506" viewBox="0 0 390 1506" fill="none" xmlns="http://www.w3.org/2000/svg">
<g clip-path="url(#clip0_1_2988)">
<path fill-rule="evenodd" clip-rule="evenodd" d="M-321.311 225.712L-205.266 844.925H-57.046L-236.405 1322.37V1370.25C-236.405 1468.62 -126.259 1526.82 -44.993 1471.39C0.793945 1440.16 58.4559 1431.88 111.183 1448.96L189.624 1474.36C289.38 1506.67 398.513 1469.68 458.066 1383.37L708.472 1020.48L448.65 844.925H608.689L608.718 282.277V218.775C608.718 82.778 472.447 -11.0309 345.409 37.5131C302.532 53.8971 255.236 54.5516 211.923 39.3602L156.46 19.9078C21.1152 -27.5618 -129.498 11.2061 -225.104 118.123L-321.311 225.712Z" fill="#FBF4EC"/>
</g>
<defs>
<clipPath id="clip0_1_2988">
<rect width="450" height="1506" fill="white" transform="translate(-30)"/>
</clipPath>
</defs>
</svg>
