<svg width="1920" height="1992" fill="none" xmlns="http://www.w3.org/2000/svg"><path d="M-139.428 116.544a675.109 675.109 0 01487.58-42.368l68.451 19.998a858.46 858.46 0 00407.438 18.106L1002.2 77.015a1128.7 1128.7 0 01463.36 5.245l34.61 7.67a1006.433 1006.433 0 00559.26-35.886v344.5H-139.428v-282z" fill="#FBF4EC"/><path d="M-140 171h2200v1504.48H-140V171z" fill="#FBF4EC"/><path d="M-140 171h2200v1504.48H-140V171z" fill="#FBF4EC"/><path d="M-140 1875.7a675.745 675.745 0 00487.818 42.37l68.503-20a859.305 859.305 0 01407.644-18.11l178.255 35.27a1129.745 1129.745 0 00463.6-5.25l34.64-7.67A1007.488 1007.488 0 012060 1938.2v-344.5H-140v282z" fill="#FBF4EC"/></svg>