<svg width="390" height="1506" fill="none" xmlns="http://www.w3.org/2000/svg"><g clip-path="url(#clip0_1_2988)"><path fill-rule="evenodd" clip-rule="evenodd" d="M-321.311 225.712l116.045 619.213h148.22l-179.359 477.445v47.88c0 98.37 110.146 156.57 191.412 101.14a179.172 179.172 0 01156.176-22.43l78.441 25.4c99.756 32.31 208.889-4.68 268.442-90.99l250.406-362.89L448.65 844.925h160.039l.029-562.648v-63.502c0-135.997-136.271-229.806-263.309-181.262a194.044 194.044 0 01-133.486 1.847L156.46 19.908c-135.345-47.47-285.958-8.702-381.564 98.215l-96.207 107.589z" fill="#FBF4EC"/></g><defs><clipPath id="clip0_1_2988"><path fill="#fff" transform="translate(-30)" d="M0 0h450v1506H0z"/></clipPath></defs></svg>