<svg width="1170" height="278" fill="none" xmlns="http://www.w3.org/2000/svg"><path d="M447.456 144.752a1 1 0 00.773-1.184l-1.85-8.808a1.001 1.001 0 00-1.957.411l1.644 7.83-7.829 1.644a.999.999 0 10.411 1.957l8.808-1.85zm-195.857-4.978c48.993-36.673 120.841-43.647 195.104 4.837l1.094-1.675c-74.9-48.9-147.669-41.986-197.396-4.763l1.198 1.601z" fill="#000"/><path d="M1169.25 152.218c0 69.174-56.08 125.25-125.25 125.25-69.174 0-125.25-56.076-125.25-125.25 0-69.173 56.076-125.25 125.25-125.25 69.17 0 125.25 56.077 125.25 125.25z" fill="#fff" stroke="url(#paint0_linear_1_1324)" stroke-width=".5"/><path d="M974.36 24.78c1.118-.61 2.189-.957 3.214-1.039 1.037-.088 1.964.091 2.782.537.819.446 1.487 1.142 2.004 2.088.51.933.736 1.871.676 2.813-.066.93-.415 1.807-1.049 2.633-.622.818-1.491 1.533-2.609 2.144l-2.911 1.592 2.035 3.722-2.395 1.31-7.053-12.898 5.306-2.901zm3.799 7.21c1.044-.571 1.715-1.225 2.014-1.963.299-.738.223-1.518-.227-2.341-.45-.823-1.066-1.308-1.848-1.455-.783-.146-1.696.066-2.74.637l-2.801 1.531 2.801 5.122 2.801-1.531zm19.811-7.925a9.9 9.9 0 01.25.737l-8.166 3.275c.45.71 1.065 1.172 1.845 1.387.788.197 1.631.115 2.527-.244 1.144-.459 1.935-1.214 2.373-2.264l1.908.977a4.745 4.745 0 01-1.266 1.978c-.6.572-1.348 1.039-2.245 1.398-1.143.459-2.241.635-3.294.53-1.053-.106-1.982-.465-2.786-1.078-.796-.63-1.4-1.46-1.811-2.486-.407-1.014-.544-2.014-.413-3.002a5.348 5.348 0 011.164-2.684c.636-.784 1.467-1.38 2.494-1.793 1.013-.406 2.008-.541 2.983-.404a4.959 4.959 0 012.629 1.14c.778.623 1.381 1.468 1.808 2.533zm-6.638-1.32c-.78.313-1.349.813-1.707 1.5-.35.668-.43 1.409-.24 2.223l5.906-2.37c-.406-.711-.97-1.194-1.69-1.448s-1.477-.223-2.269.095zm13.698-6.945c1.59-.444 2.91-.399 3.96.137 1.06.518 1.81 1.545 2.24 3.083l1.77 6.33-2.39.667-.37-1.315c-.18.559-.52 1.047-1.03 1.465-.5.4-1.15.714-1.96.94-.81.226-1.55.288-2.24.188-.68-.114-1.26-.366-1.73-.757a3.073 3.073 0 01-.96-1.544c-.27-.97-.13-1.846.42-2.625.57-.797 1.62-1.411 3.17-1.844l2.8-.78-.05-.161c-.21-.755-.6-1.271-1.17-1.548-.56-.28-1.29-.296-2.18-.048-.6.17-1.18.432-1.72.786-.52.35-.94.751-1.25 1.201l-1.51-1.564c.45-.59 1.04-1.11 1.77-1.561a9.397 9.397 0 012.43-1.05zm2.23 9.32c.64-.177 1.16-.475 1.56-.894.42-.436.65-.952.7-1.548l-.35-1.254-2.61.729c-1.45.406-2.05 1.088-1.78 2.046.13.458.41.771.85.94.44.168.98.161 1.63-.02zm17.68-13.417l1.85 11.061-2.59.433-1.48-8.866-4.14.692.26 2.213c.18 1.476.25 2.728.2 3.756-.03 1.013-.23 1.85-.62 2.51-.37.645-.98 1.037-1.81 1.175-.38.065-.87.068-1.46.01l-.24-2.195c.2.01.37.002.51-.02.52-.088.88-.361 1.07-.82.19-.471.28-1.003.25-1.594-.02-.608-.09-1.462-.22-2.562l-.52-4.298 8.94-1.495zm5.72-.711l2.62-.132.37 7.383 5.82-7.693 2.39-.12.56 11.2-2.62.131-.37-7.382-5.8 7.692-2.41.121-.56-11.2zm24.2 5.295c.69.238 1.2.593 1.55 1.064.37.457.53.993.49 1.608a2.71 2.71 0 01-.8 1.78c-.49.489-1.16.855-1.98 1.098-.83.244-1.76.333-2.8.27a11.13 11.13 0 01-2.52-.45 9 9 0 01-2.18-1.02l.87-1.902c.53.34 1.13.616 1.8.826.68.21 1.36.337 2.04.379.88.054 1.57-.036 2.08-.271.52-.249.79-.61.82-1.086.03-.433-.15-.78-.52-1.042-.36-.26-.89-.413-1.59-.456l-2.18-.135.11-1.76 1.97.121c.65.04 1.17-.04 1.55-.24.39-.2.6-.503.62-.909.03-.405-.18-.74-.61-1.005-.43-.265-1.04-.422-1.82-.47-1.12-.07-2.32.13-3.6.598l-.55-1.97c1.51-.594 3.01-.845 4.51-.752.95.058 1.79.244 2.53.556.74.298 1.31.698 1.7 1.199.4.488.58 1.032.55 1.633a2.338 2.338 0 01-.6 1.436c-.36.398-.84.698-1.44.9zm11.53-4.151c1.63.266 2.81.862 3.53 1.79.75.915.99 2.16.74 3.736l-1.06 6.487-2.45-.399.22-1.347c-.39.432-.91.73-1.55.896-.62.154-1.34.164-2.17.029-.83-.136-1.54-.392-2.11-.77-.58-.392-1-.864-1.26-1.418a3.15 3.15 0 01-.22-1.801c.17-.995.66-1.73 1.49-2.205.85-.486 2.06-.6 3.65-.34l2.86.466.03-.166c.12-.773-.01-1.406-.42-1.897-.38-.489-1.03-.808-1.95-.956a6.12 6.12 0 00-1.89-.011c-.62.096-1.17.284-1.64.561l-.71-2.051c.65-.348 1.41-.573 2.26-.675a9.463 9.463 0 012.65.07zm-1.9 9.393c.65.106 1.25.055 1.79-.154.57-.22.99-.59 1.29-1.11l.21-1.285-2.67-.436c-1.49-.243-2.32.126-2.48 1.107-.08.47.05.873.38 1.21.32.337.82.56 1.48.668zm21.36 4.537l-1.3 4.632-2.36-.66.69-2.489-9.48-2.648 3.01-10.8 2.53.705-2.42 8.657 5.16 1.44 2.42-8.657 2.53.706-2.42 8.656 1.64.458zm6.83-7.112l2.42 1.005-2.83 6.83 8.55-4.46 2.22.917-4.29 10.36-2.43-1.004 2.83-6.83-8.53 4.467-2.24-.924 4.3-10.36zm23.56 11.256l-5.46 9.8-2.05-1.144 1.64-2.955-2.59-1.44-3.64 1.842-2.46-1.368 4.13-1.98c-.57-.64-.91-1.316-1.01-2.028-.08-.718.09-1.45.5-2.197.63-1.125 1.51-1.772 2.64-1.941 1.14-.17 2.41.134 3.8.91l4.5 2.502zm-5.5-.534c-1.48-.823-2.53-.678-3.15.435-.61 1.1-.2 2.05 1.23 2.846l2.44 1.358 1.85-3.321-2.37-1.318z" fill="#616161"/><path d="M904.071 134.287a1 1 0 01.773 1.185l-1.85 8.807a1 1 0 11-1.957-.411l1.644-7.829-7.829-1.644a1 1 0 01.411-1.957l8.808 1.849zm-195.856 4.979c48.993 36.673 120.841 43.646 195.104-4.837l1.093 1.674c-74.9 48.9-147.669 41.986-197.396 4.764l1.199-1.601z" fill="#000"/><path d="M710.25 152.219c0 69.173-56.076 125.25-125.25 125.25s-125.25-56.077-125.25-125.25c0-69.174 56.076-125.25 125.25-125.25s125.25 56.076 125.25 125.25z" fill="#fff" stroke="url(#paint1_linear_1_1324)" stroke-width=".5"/><path d="M511.046 27.11l7.982 12.343-2.257 1.46-6.728-10.404-6.401 4.139 6.727 10.404-2.257 1.46-7.982-12.344 10.916-7.059zm17.281-4.9l4.825 10.123-2.369 1.129-3.868-8.113-3.791 1.807.863 2.055c.575 1.37.985 2.554 1.229 3.555.251.981.282 1.843.092 2.584-.182.723-.653 1.266-1.411 1.627-.354.169-.823.307-1.407.415l-.835-2.045c.195-.046.355-.1.482-.16.48-.228.75-.59.809-1.083.053-.507-.015-1.04-.205-1.601-.183-.58-.487-1.38-.913-2.403l-1.691-3.986 8.19-3.904zm9.103-3.656c1.56-.545 2.881-.584 3.964-.118 1.091.45 1.9 1.427 2.427 2.934l2.17 6.204-2.339.818-.451-1.288c-.142.568-.453 1.078-.934 1.528-.472.432-1.104.786-1.897 1.063-.793.278-1.533.388-2.22.332-.692-.07-1.286-.285-1.783-.645a3.138 3.138 0 01-1.051-1.479c-.333-.951-.248-1.833.253-2.647.511-.83 1.526-1.512 3.045-2.043l2.736-.957-.055-.159c-.259-.74-.683-1.23-1.271-1.469-.574-.244-1.298-.213-2.17.092a6.128 6.128 0 00-1.667.894c-.504.384-.896.81-1.177 1.28l-1.602-1.465c.407-.617.961-1.174 1.662-1.671a9.439 9.439 0 012.36-1.204zm2.824 9.157c.622-.217 1.121-.547 1.5-.991.387-.462.588-.992.601-1.59l-.43-1.229-2.557.895c-1.427.499-1.977 1.217-1.648 2.156.157.449.46.743.909.883s.991.098 1.625-.124zm7.639-12.419l2.56-.58 1.007 4.444 5.51-1.248-1.007-4.445 2.56-.58 2.478 10.937-2.56.58-.979-4.321-5.51 1.248.979 4.321-2.56.58-2.478-10.936zm16.307-3.397l2.611-.272.768 7.352 5.394-7.996 2.381-.249 1.165 11.154-2.611.272-.768-7.352-5.372 7.994-2.402.25-1.166-11.153zm24.038-1.481c1.092.02 2.06.278 2.905.77a5.131 5.131 0 011.997 2.055c.473.877.699 1.883.677 3.017-.022 1.133-.286 2.136-.793 3.009a5.134 5.134 0 01-2.076 1.976c-.863.46-1.84.679-2.932.658-1.512-.03-2.699-.557-3.561-1.581l-.105 5.438-2.624-.051.295-15.285 2.498.048-.028 1.47a4.077 4.077 0 011.619-1.166 5.499 5.499 0 012.128-.358zm-.472 9.232c.965.019 1.763-.288 2.391-.92.642-.631.973-1.472.994-2.522.02-1.05-.279-1.903-.896-2.559-.604-.655-1.388-.993-2.354-1.011a3.31 3.31 0 00-1.709.408 3.03 3.03 0 00-1.22 1.194c-.305.527-.464 1.14-.477 1.84-.014.7.122 1.318.405 1.856a3.19 3.19 0 001.173 1.262 3.44 3.44 0 001.693.452zm13.793 3.259c-1.124-.148-2.106-.524-2.944-1.129a5.454 5.454 0 01-1.857-2.3c-.385-.94-.505-1.958-.36-3.054.144-1.097.523-2.043 1.136-2.837a5.451 5.451 0 012.39-1.74c.966-.367 2.011-.477 3.135-.328 1.139.15 2.127.527 2.965 1.132a5.315 5.315 0 011.837 2.296c.4.928.528 1.94.383 3.037-.144 1.097-.531 2.049-1.16 2.855a5.305 5.305 0 01-2.369 1.743c-.966.367-2.018.475-3.156.325zm.293-2.228c.958.127 1.791-.088 2.5-.645.709-.556 1.132-1.354 1.269-2.395s-.065-1.922-.605-2.643c-.541-.72-1.29-1.144-2.247-1.27-.958-.127-1.791.088-2.5.645-.695.558-1.111 1.357-1.248 2.398-.137 1.041.058 1.921.584 2.64.541.72 1.29 1.144 2.247 1.27zm19.141-.023c1.242.744 1.696 1.782 1.362 3.113-.245.977-.8 1.64-1.666 1.985-.866.346-2.019.338-3.459-.023l-5.54-1.389 2.727-10.877 5.316 1.333c1.331.333 2.309.838 2.933 1.514.624.676.824 1.463.599 2.359-.139.557-.409 1.001-.81 1.334-.388.336-.875.553-1.462.65zm-5.291-2.041l2.668.669c1.318.33 2.09.04 2.318-.87.222-.882-.326-1.489-1.643-1.819l-2.669-.669-.674 2.689zm1.789 5.211c1.399.351 2.212.071 2.441-.838.119-.476.044-.87-.224-1.182-.264-.326-.743-.576-1.436-.75l-2.994-.75-.7 2.79 2.913.73zm15.47-5.131c1.551.568 2.597 1.377 3.137 2.425.558 1.04.563 2.309.013 3.807l-2.263 6.171-2.326-.853.47-1.281c-.471.349-1.035.545-1.692.587-.639.034-1.353-.093-2.141-.382-.789-.29-1.431-.674-1.926-1.154-.49-.493-.813-1.036-.968-1.63a3.132 3.132 0 01.127-1.81c.347-.946.972-1.574 1.876-1.884.922-.318 2.139-.2 3.65.354l2.721.998.058-.158c.27-.736.254-1.383-.048-1.941-.29-.553-.868-.99-1.735-1.307a6.137 6.137 0 00-1.856-.368c-.633-.023-1.207.057-1.722.241l-.308-2.148c.706-.218 1.488-.297 2.346-.236.857.061 1.72.25 2.587.569zm-3.632 8.867c.618.227 1.214.289 1.789.186a2.494 2.494 0 001.473-.846l.448-1.223-2.543-.932c-1.42-.52-2.301-.314-2.643.619a1.34 1.34 0 00.142 1.26c.259.393.703.705 1.334.936zm13.469-4.914l2.348 1.174-2.037 4.076 5.053 2.525 2.037-4.076 2.348 1.173-5.012 10.032-2.348-1.174 1.98-3.963-5.053-2.526-1.981 3.964-2.348-1.173 5.013-10.032zm15.457 8.096l2.189 1.45-4.082 6.162 9.246-2.742 1.996 1.322-6.192 9.35-2.188-1.45 4.081-6.163-9.229 2.754-2.013-1.334 6.192-9.35zm17.927 20.39c-.117.14-.294.329-.532.568l-6.74-5.656c-.413.732-.53 1.492-.352 2.282.198.787.667 1.491 1.407 2.112.944.792 1.982 1.134 3.116 1.025l.038 2.143a4.738 4.738 0 01-2.341-.183c-.788-.259-1.552-.699-2.292-1.32-.944-.792-1.618-1.677-2.021-2.655-.404-.979-.525-1.967-.364-2.965.181-1 .627-1.923 1.338-2.77.702-.836 1.52-1.43 2.453-1.78a5.34 5.34 0 012.915-.24c.991.192 1.91.643 2.757 1.354.837.702 1.425 1.515 1.764 2.44a4.96 4.96 0 01.235 2.856c-.183.98-.643 1.91-1.381 2.789zm-1.968-6.476c-.643-.54-1.352-.806-2.127-.798-.754.007-1.445.286-2.073.837l4.874 4.09c.437-.694.597-1.418.481-2.173-.116-.755-.501-1.407-1.155-1.956z" fill="#616161"/><path d="M520.078 168.219l2.414-11.422h3.188c.927 0 1.669.14 2.226.422.563.276.969.664 1.219 1.164.255.5.383 1.08.383 1.742 0 .677-.125 1.268-.375 1.773-.25.505-.602.927-1.055 1.266a4.728 4.728 0 01-1.578.75 7.625 7.625 0 01-1.969.242h-1.218l-.852 4.063h-2.383zm3.664-6.047h.977c.474 0 .888-.078 1.242-.235.359-.156.638-.383.836-.679.203-.297.305-.654.305-1.071 0-.479-.128-.833-.383-1.062-.25-.229-.628-.344-1.133-.344h-1.125l-.719 3.391zm9.844 6.203c-.682 0-1.284-.123-1.805-.367a2.782 2.782 0 01-1.211-1.125c-.291-.5-.437-1.128-.437-1.883 0-.729.104-1.433.312-2.11a5.75 5.75 0 01.93-1.828 4.584 4.584 0 011.531-1.273c.61-.313 1.313-.469 2.11-.469.979 0 1.711.224 2.195.672.49.443.734 1.013.734 1.711 0 .458-.104.875-.312 1.25-.203.375-.513.698-.93.969-.417.265-.94.471-1.57.617-.63.14-1.37.211-2.219.211h-.398l-.016.164v.156c0 .469.135.841.406 1.117s.654.414 1.149.414c.458 0 .875-.052 1.25-.156a8.67 8.67 0 001.328-.516v1.774a6.862 6.862 0 01-1.399.508 7.402 7.402 0 01-1.648.164zm-.813-5.211h.352c.604 0 1.094-.065 1.469-.195.38-.131.656-.303.828-.516.177-.214.266-.445.266-.695 0-.25-.073-.435-.219-.555-.141-.125-.341-.188-.602-.188-.291 0-.581.092-.867.274a2.629 2.629 0 00-.758.758 3.212 3.212 0 00-.469 1.117zm5.868 5.055l1.867-8.735h2.359l-.867 4.063 3.438-4.063h2.687l-3.742 4.383 2.164 4.352h-2.641l-2-4.258-.914 4.258h-2.351zm13.007.156c-.656 0-1.237-.136-1.742-.406a2.962 2.962 0 01-1.179-1.157c-.282-.505-.422-1.104-.422-1.797 0-.619.06-1.211.179-1.773.125-.568.31-1.089.555-1.563.25-.479.56-.893.93-1.242a4 4 0 011.304-.82c.495-.198 1.053-.297 1.672-.297.677 0 1.263.138 1.758.414a2.79 2.79 0 011.149 1.18c.27.515.406 1.138.406 1.867a8.07 8.07 0 01-.18 1.719 6.189 6.189 0 01-.531 1.531 4.68 4.68 0 01-.906 1.234 3.968 3.968 0 01-1.297.821c-.495.192-1.06.289-1.696.289zm.196-1.914c.26 0 .497-.065.711-.196a2.06 2.06 0 00.57-.554c.167-.24.305-.513.414-.821.115-.312.201-.648.258-1.007.062-.36.094-.727.094-1.102 0-.297-.037-.56-.11-.789a1.034 1.034 0 00-.351-.547c-.162-.135-.38-.203-.657-.203-.286 0-.544.081-.773.242a2.147 2.147 0 00-.586.633 4.078 4.078 0 00-.414.891 6.572 6.572 0 00-.25 1.015 6.643 6.643 0 00-.078.992c0 .474.096.834.289 1.079.193.244.487.367.883.367zm5.469 1.758l1.843-8.735h3.242l.336 6.094h.047l3.141-6.094h3.344l-1.875 8.735h-2.172l.961-4.321c.088-.406.179-.797.273-1.172.099-.375.182-.682.25-.922h-.047l-3.312 6.415h-2.258l-.352-6.415h-.031c-.052.428-.112.816-.18 1.165-.062.343-.13.684-.203 1.023l-.843 4.227h-2.164zm16.164.156c-.683 0-1.284-.123-1.805-.367a2.776 2.776 0 01-1.211-1.125c-.292-.5-.438-1.128-.438-1.883 0-.729.105-1.433.313-2.11a5.71 5.71 0 01.93-1.828 4.574 4.574 0 011.531-1.273c.609-.313 1.312-.469 2.109-.469.979 0 1.711.224 2.196.672.489.443.734 1.013.734 1.711 0 .458-.104.875-.313 1.25-.203.375-.513.698-.929.969-.417.265-.94.471-1.571.617-.63.14-1.369.211-2.218.211h-.399l-.015.164v.156c0 .469.135.841.406 1.117s.654.414 1.148.414a4.67 4.67 0 001.25-.156 8.63 8.63 0 001.328-.516v1.774a6.854 6.854 0 01-1.398.508 7.402 7.402 0 01-1.648.164zm-.813-5.211h.352c.604 0 1.093-.065 1.468-.195.381-.131.657-.303.829-.516.177-.214.265-.445.265-.695 0-.25-.073-.435-.219-.555-.14-.125-.341-.188-.601-.188-.292 0-.581.092-.867.274a2.616 2.616 0 00-.758.758 3.212 3.212 0 00-.469 1.117zm5.867 5.055l1.867-8.735h2.375l-.726 3.36h2.726l.704-3.36h2.351l-1.859 8.735h-2.352l.75-3.602h-2.703l-.766 3.602h-2.367zm13.649.156c-.782 0-1.422-.151-1.922-.453a2.78 2.78 0 01-1.102-1.235c-.234-.521-.351-1.109-.351-1.765 0-.599.06-1.151.179-1.657.12-.51.289-.966.508-1.367a4.05 4.05 0 01.797-1.023 3.318 3.318 0 011.047-.641 3.37 3.37 0 011.242-.226c.365 0 .685.065.961.195.276.125.513.297.711.516.203.213.372.453.508.718h.062c.011-.088.016-.182.016-.281v-.234c0-1.047-.161-1.813-.484-2.297-.323-.485-.849-.727-1.579-.727-.244 0-.513.029-.804.086a4.001 4.001 0 00-.781.235l-.493-1.86a5.69 5.69 0 011.133-.281 8.147 8.147 0 011.313-.102c.958 0 1.734.206 2.328.618.599.406 1.036.981 1.312 1.726.282.745.422 1.628.422 2.649 0 .604-.042 1.205-.125 1.804-.078.594-.2 1.167-.367 1.719a7.729 7.729 0 01-.648 1.539c-.266.469-.586.88-.961 1.234-.37.349-.797.623-1.282.821a4.418 4.418 0 01-1.64.289zm.133-1.914c.265 0 .505-.063.718-.188a1.89 1.89 0 00.563-.515c.166-.219.31-.474.429-.766.125-.292.23-.604.313-.938.089-.338.159-.684.211-1.039a1.963 1.963 0 00-.297-.609 1.367 1.367 0 00-.469-.43 1.27 1.27 0 00-.64-.156c-.245 0-.469.05-.672.149a1.696 1.696 0 00-.547.429 2.5 2.5 0 00-.414.664 4.06 4.06 0 00-.25.883 6.082 6.082 0 00-.086 1.055c0 .458.099.817.297 1.078.198.255.479.383.844.383zm8.585 1.914c-.421 0-.82-.104-1.195-.313-.375-.208-.682-.544-.922-1.008-.234-.463-.351-1.078-.351-1.843 0-.573.06-1.141.179-1.703a7.895 7.895 0 01.532-1.594c.234-.505.515-.951.843-1.336a3.925 3.925 0 011.125-.922 2.873 2.873 0 011.368-.336c.369 0 .692.055.968.164.276.104.513.253.711.445.198.193.36.417.485.672h.062l.445-1.117h1.813l-1.859 8.735h-1.758l.109-1.133h-.062a4.402 4.402 0 01-.68.672 2.996 2.996 0 01-.813.453c-.296.109-.63.164-1 .164zm.922-1.899c.323 0 .623-.125.899-.375.276-.255.513-.586.711-.992a5.01 5.01 0 00.422-1.289 7.37 7.37 0 00.117-1.312c0-.37-.099-.675-.297-.914-.193-.245-.458-.368-.797-.368a1.1 1.1 0 00-.656.227 2.3 2.3 0 00-.563.609c-.172.255-.323.55-.453.883a6.125 6.125 0 00-.39 2.156c0 .453.088.797.265 1.032.177.229.425.343.742.343zm11.438 4.875l.75-3.132a1.511 1.511 0 01-.477-.352 1.678 1.678 0 01-.297-.477 4.656 4.656 0 01-.187-.578h-.063a5.003 5.003 0 01-.726.821c-.266.234-.56.416-.883.546a2.723 2.723 0 01-1.047.196c-.5 0-.917-.102-1.25-.305a1.93 1.93 0 01-.758-.867c-.166-.38-.25-.826-.25-1.336 0-.193.021-.44.063-.742.047-.302.101-.61.164-.922l.992-4.719h2.352l-1.071 5.102c-.036.177-.067.343-.093.5a3.242 3.242 0 00-.032.429c0 .329.071.571.211.727.141.156.352.234.633.234.359 0 .68-.151.961-.453.286-.307.536-.716.75-1.226a9.691 9.691 0 00.516-1.696l.765-3.617h2.352l-1.266 5.969a7.54 7.54 0 00-.039.219 2.628 2.628 0 00-.008.195c0 .177.045.307.133.391a.514.514 0 00.352.117c.125 0 .245-.011.359-.031.115-.021.229-.047.344-.079l-1.07 5.086h-2.18zm6.992-2.976c-.5 0-.914-.102-1.242-.305a1.855 1.855 0 01-.735-.867c-.161-.38-.242-.826-.242-1.336a9.632 9.632 0 01.188-1.664l.992-4.719h2.352l-1.071 5.102c-.036.177-.067.343-.094.5-.02.156-.031.299-.031.429 0 .329.071.571.211.727.141.156.352.234.633.234.359 0 .68-.151.961-.453.286-.307.536-.716.75-1.226a9.777 9.777 0 00.516-1.696l.765-3.617h2.352l-1.852 8.735h-1.797l.164-1.618h-.086a5.68 5.68 0 01-.742.922 3.05 3.05 0 01-.89.625 2.61 2.61 0 01-1.102.227zm9.672 0c-.5 0-.914-.102-1.242-.305a1.855 1.855 0 01-.735-.867c-.161-.38-.242-.826-.242-1.336a9.632 9.632 0 01.188-1.664l.992-4.719h2.351l-1.07 5.102c-.036.177-.068.343-.094.5-.02.156-.031.299-.031.429 0 .329.07.571.211.727.141.156.352.234.633.234.359 0 .68-.151.961-.453.286-.307.536-.716.75-1.226a9.692 9.692 0 00.515-1.696l.766-3.617h2.352l-1.852 8.735h-1.797l.164-1.618h-.086a5.68 5.68 0 01-.742.922 3.054 3.054 0 01-.891.625 2.603 2.603 0 01-1.101.227zm13.828 0c-.5 0-.914-.102-1.242-.305a1.855 1.855 0 01-.735-.867c-.161-.38-.242-.826-.242-1.336a9.632 9.632 0 01.188-1.664l.992-4.719h2.352l-1.071 5.102c-.036.177-.067.343-.094.5-.02.156-.031.299-.031.429 0 .329.071.571.211.727.141.156.352.234.633.234.359 0 .68-.151.961-.453.286-.307.536-.716.75-1.226a9.777 9.777 0 00.516-1.696l.765-3.617h2.352l-1.852 8.735h-1.797l.164-1.618h-.086a5.68 5.68 0 01-.742.922 3.05 3.05 0 01-.89.625 2.61 2.61 0 01-1.102.227zm-94.633 26.687l2.672-12.578h1.797l-.133 1.328h.07c.183-.25.394-.489.633-.718.24-.23.513-.415.821-.555a2.352 2.352 0 011.023-.219c.422 0 .82.104 1.195.313.375.208.68.546.914 1.015.235.464.352 1.084.352 1.86 0 .567-.063 1.132-.188 1.695a7.481 7.481 0 01-.531 1.594c-.229.5-.51.945-.844 1.336-.328.385-.7.69-1.117.914a2.902 2.902 0 01-1.367.328c-.354 0-.654-.055-.898-.164a1.929 1.929 0 01-.625-.461 4.298 4.298 0 01-.461-.649h-.063a15.506 15.506 0 01-.336 2.305l-.562 2.656h-2.352zm4.899-5.586c.229 0 .448-.073.656-.218a2.4 2.4 0 00.57-.61c.172-.26.321-.554.446-.883a6.185 6.185 0 00.39-2.164c0-.458-.086-.802-.258-1.031-.166-.229-.422-.344-.765-.344-.25 0-.479.065-.688.196-.203.13-.383.304-.539.523a3.724 3.724 0 00-.406.742 5.683 5.683 0 00-.281.844 7.627 7.627 0 00-.164.844 6.24 6.24 0 00-.047.726c0 .412.096.745.289 1 .198.25.463.375.797.375zm9.32 1.899c-.682 0-1.284-.123-1.805-.367a2.782 2.782 0 01-1.211-1.125c-.291-.5-.437-1.128-.437-1.883 0-.729.104-1.433.312-2.11a5.75 5.75 0 01.93-1.828 4.584 4.584 0 011.531-1.273c.61-.313 1.313-.469 2.11-.469.979 0 1.711.224 2.195.672.49.443.734 1.013.734 1.711 0 .458-.104.875-.312 1.25-.203.375-.513.698-.93.969-.417.265-.94.471-1.57.617-.63.14-1.37.211-2.219.211h-.398l-.016.164v.156c0 .469.135.841.406 1.117s.654.414 1.149.414c.458 0 .875-.052 1.25-.156a8.67 8.67 0 001.328-.516v1.774a6.862 6.862 0 01-1.399.508 7.402 7.402 0 01-1.648.164zm-.813-5.211h.352c.604 0 1.094-.065 1.469-.195.38-.131.656-.303.828-.516.177-.214.266-.445.266-.695 0-.25-.073-.435-.219-.555-.141-.125-.341-.188-.602-.188-.291 0-.581.092-.867.274a2.629 2.629 0 00-.758.758 3.212 3.212 0 00-.469 1.117zm8.586 5.211c-.724 0-1.268-.224-1.632-.672-.365-.453-.547-1.065-.547-1.836 0-.193.015-.409.047-.648.036-.245.08-.498.132-.758l1.039-4.977h2.352l-1.07 5.102c-.037.177-.068.343-.094.5a3.23 3.23 0 00-.031.429c0 .329.062.571.187.727.13.156.323.234.578.234.36 0 .68-.148.961-.445.287-.302.534-.708.742-1.219.214-.51.388-1.075.524-1.695l.75-3.633h2.351l-1.07 5.102a7.392 7.392 0 00-.101.5 3.242 3.242 0 00-.032.429c0 .329.065.571.196.727.13.156.323.234.578.234.265 0 .513-.088.742-.265.229-.177.435-.42.617-.727.188-.312.352-.672.492-1.078.146-.406.269-.841.368-1.305l.773-3.617h2.352l-1.86 8.735h-1.773l.156-1.618h-.063a5.369 5.369 0 01-.75.922c-.27.266-.572.474-.906.625a2.656 2.656 0 01-1.109.227c-.302 0-.568-.042-.797-.125a1.684 1.684 0 01-.594-.344 1.867 1.867 0 01-.406-.562 3.04 3.04 0 01-.234-.743h-.071a4.937 4.937 0 01-.75.922 3.171 3.171 0 01-.929.625 2.715 2.715 0 01-1.118.227zm15.633 0c-.682 0-1.284-.123-1.804-.367a2.771 2.771 0 01-1.211-1.125c-.292-.5-.438-1.128-.438-1.883 0-.729.104-1.433.313-2.11a5.727 5.727 0 01.929-1.828 4.577 4.577 0 011.532-1.273c.609-.313 1.312-.469 2.109-.469.979 0 1.711.224 2.195.672.49.443.735 1.013.735 1.711 0 .458-.105.875-.313 1.25-.203.375-.513.698-.93.969-.416.265-.94.471-1.57.617-.63.14-1.37.211-2.219.211h-.398c-.005.062-.011.117-.016.164v.156c0 .469.136.841.407 1.117.27.276.653.414 1.148.414.458 0 .875-.052 1.25-.156a8.63 8.63 0 001.328-.516v1.774a6.854 6.854 0 01-1.398.508 7.411 7.411 0 01-1.649.164zm-.812-5.211h.351c.604 0 1.094-.065 1.469-.195.38-.131.656-.303.828-.516.177-.214.266-.445.266-.695 0-.25-.073-.435-.219-.555-.141-.125-.341-.188-.602-.188-.291 0-.58.092-.867.274a2.629 2.629 0 00-.758.758 3.21 3.21 0 00-.468 1.117zm5.867 5.055l1.867-8.735h2.375l-.726 3.36h2.726l.703-3.36h2.352l-1.86 8.735h-2.351l.75-3.602h-2.703l-.766 3.602h-2.367zm12.656.156c-.5 0-.914-.102-1.242-.305a1.847 1.847 0 01-.734-.867c-.162-.38-.243-.826-.243-1.336 0-.193.016-.44.047-.742.032-.302.078-.61.141-.922l.992-4.719h2.352l-1.071 5.102c-.036.177-.067.343-.093.5a3.242 3.242 0 00-.032.429c0 .329.071.571.211.727.141.156.352.234.633.234.359 0 .68-.151.961-.453.286-.307.536-.716.75-1.226a9.691 9.691 0 00.516-1.696l.765-3.617h2.352l-1.852 8.735h-1.797l.164-1.618h-.085a5.686 5.686 0 01-.743.922 3.05 3.05 0 01-.89.625 2.607 2.607 0 01-1.102.227zm7.61 0c-.224 0-.438-.016-.641-.047a2.416 2.416 0 01-.539-.141v-1.937c.078.031.169.06.273.086.104.026.214.039.328.039a.882.882 0 00.383-.078 1.01 1.01 0 00.289-.227c.084-.094.159-.198.227-.312.182-.303.346-.55.492-.743.146-.192.297-.346.453-.461.156-.119.336-.21.539-.273a2.527 2.527 0 01-.633-.383 1.689 1.689 0 01-.437-.594 2.147 2.147 0 01-.156-.859c0-.521.099-.969.297-1.344.197-.375.468-.679.812-.914.349-.239.75-.416 1.203-.531a5.982 5.982 0 011.461-.172h3.649l-1.836 8.735h-2.36l.711-3.25h-.484c-.339 0-.604.109-.797.328a3.276 3.276 0 00-.524.828 9.053 9.053 0 01-.562 1.039 3.34 3.34 0 01-.508.609 2.243 2.243 0 01-.687.438 2.51 2.51 0 01-.953.164zm4.125-5.008h.726l.461-2.203h-.992c-.255 0-.485.049-.688.148a1.126 1.126 0 00-.484.422c-.115.182-.172.409-.172.68 0 .286.091.518.274.695.187.172.479.258.875.258z" fill="#000"/><circle cx="585" cy="124.541" r="16" fill="url(#paint2_linear_1_1324)"/><path d="M589.047 130.541h-7.985v-1.68l2.868-2.898a42.733 42.733 0 001.39-1.485c.354-.401.61-.765.766-1.093.161-.329.242-.68.242-1.055 0-.453-.127-.792-.383-1.016-.25-.229-.586-.344-1.007-.344-.443 0-.873.102-1.29.305a6.658 6.658 0 00-1.304.867l-1.313-1.554c.328-.282.675-.547 1.039-.797.37-.25.797-.451 1.282-.602.489-.156 1.075-.234 1.757-.234.75 0 1.394.135 1.93.406.542.271.958.641 1.25 1.109.292.464.438.99.438 1.579 0 .63-.125 1.205-.375 1.726-.25.521-.615 1.037-1.094 1.547a31.504 31.504 0 01-1.719 1.695l-1.469 1.383v.11h4.977v2.031z" fill="#fff"/><path d="M250.75 152.218c0 69.174-56.076 125.25-125.25 125.25S.25 221.392.25 152.218c0-69.173 56.076-125.25 125.25-125.25s125.25 56.077 125.25 125.25z" fill="#fff" stroke="url(#paint3_linear_1_1324)" stroke-width=".5"/><path d="M94.237 21.953l-7.108 1.869-.537 3.658-2.721.716 2.66-15.9 2.6-.682 10.155 12.53-2.762.726-2.287-2.917zm-1.418-1.842l-4.314-5.51-1.027 6.914 5.341-1.404zm8.744-7.714l2.604-.332.578 4.52 5.603-.717-.578-4.52 2.604-.333 1.422 11.124-2.604.332-.562-4.395-5.603.717.562 4.395-2.604.333-1.422-11.124zm20.123-1.973c1.652-.032 2.919.343 3.802 1.124.897.767 1.361 1.948 1.392 3.544l.127 6.571-2.478.048-.026-1.364c-.313.496-.767.883-1.364 1.16-.583.263-1.294.403-2.134.42-.84.016-1.578-.11-2.213-.378-.635-.282-1.133-.671-1.493-1.168a3.13 3.13 0 01-.537-1.733c-.02-1.008.336-1.82 1.066-2.436.744-.63 1.921-.962 3.53-.993l2.898-.056-.003-.168c-.015-.783-.265-1.38-.749-1.791-.47-.411-1.167-.608-2.091-.59a6.132 6.132 0 00-1.863.33 4.569 4.569 0 00-1.517.848l-1.065-1.89c.579-.46 1.279-.816 2.1-1.07a9.446 9.446 0 012.618-.408zm-.172 9.581c.658-.012 1.236-.17 1.734-.474a2.498 2.498 0 001.067-1.323l-.025-1.302-2.709.052c-1.512.03-2.258.541-2.239 1.535.009.476.206.85.589 1.123.383.272.911.402 1.583.39zm21.904-8.455l-1.037 11.165-2.613-.242.83-8.95-4.182-.388-.31 2.207c-.207 1.471-.461 2.699-.764 3.683-.287.972-.701 1.728-1.243 2.268-.527.527-1.209.752-2.046.675-.39-.037-.864-.158-1.421-.364l.329-2.184c.191.06.357.096.496.11.53.048.947-.124 1.25-.518.305-.407.52-.9.644-1.48.139-.591.288-1.435.446-2.531l.588-4.29 9.033.838zm5.498.75l2.568.541-1.523 7.234 7.585-5.957 2.343.493-2.311 10.974-2.569-.541 1.524-7.233-7.565 5.96-2.363-.497 2.311-10.973zm21.429 11.109c.604.404 1.015.879 1.235 1.422.236.535.259 1.095.066 1.68a2.706 2.706 0 01-1.229 1.52c-.6.347-1.332.534-2.195.56-.864.025-1.787-.123-2.771-.447a10.982 10.982 0 01-2.323-1.073 9.184 9.184 0 01-1.859-1.54l1.328-1.619c.423.463.934.882 1.533 1.256a8.631 8.631 0 001.876.882c.838.275 1.531.363 2.08.263.566-.108.924-.389 1.072-.84.136-.413.055-.793-.244-1.142-.284-.344-.759-.625-1.424-.844l-2.075-.682.551-1.676 1.875.617c.625.205 1.146.258 1.561.16.429-.096.707-.336.834-.722.127-.385.015-.761-.337-1.127-.351-.366-.899-.672-1.644-.916-1.064-.35-2.273-.46-3.627-.33l-.035-2.046c1.611-.192 3.128-.055 4.551.413.904.297 1.674.69 2.309 1.179.639.475 1.084 1.005 1.335 1.588.268.575.308 1.148.12 1.72a2.34 2.34 0 01-.938 1.239c-.45.294-.992.462-1.625.505z" fill="#616161"/><path d="M63.14 168.375a8.85 8.85 0 01-1.695-.149 4.587 4.587 0 01-1.406-.5v-2.117c.36.198.703.352 1.031.461.328.109.64.185.938.227a6.4 6.4 0 00.86.062c.603 0 1.13-.109 1.577-.328a3.046 3.046 0 001.14-.977c.313-.432.571-.966.774-1.601h-4.21l.413-1.984h4.118c.01-.068.015-.133.015-.196v-.203c0-.536-.075-.984-.226-1.344a1.63 1.63 0 00-.672-.812c-.297-.188-.67-.281-1.117-.281-.464 0-.88.054-1.25.164-.365.104-.787.252-1.266.445l-.625-1.922a9.103 9.103 0 011.633-.508 8.272 8.272 0 011.805-.195c.911 0 1.674.174 2.289.523a3.29 3.29 0 011.39 1.508c.313.656.469 1.451.469 2.383 0 .688-.073 1.38-.219 2.078a8.482 8.482 0 01-.664 1.985 6.46 6.46 0 01-1.164 1.687 5.155 5.155 0 01-1.687 1.164c-.651.287-1.401.43-2.25.43zm6.79-.156l1.867-8.735h2.36l-.868 4.063 3.438-4.063h2.687l-3.742 4.383 2.164 4.352h-2.64l-2-4.258-.915 4.258H69.93zm12.914.156a4.11 4.11 0 01-1.649-.321 2.604 2.604 0 01-1.172-1.031c-.286-.474-.43-1.094-.43-1.859 0-.63.066-1.235.196-1.813a6.56 6.56 0 01.578-1.601c.255-.49.57-.914.945-1.274a4.123 4.123 0 011.29-.851 4.145 4.145 0 011.617-.305c.52 0 .987.05 1.398.149.417.098.805.236 1.164.414l-.719 1.789a10.12 10.12 0 00-.828-.313 2.978 2.978 0 00-.921-.133c-.37 0-.701.107-.993.321-.286.213-.53.5-.734.859a4.703 4.703 0 00-.453 1.211 5.88 5.88 0 00-.156 1.352c0 .328.052.604.156.828.11.224.263.393.46.507.204.115.446.172.727.172a3.3 3.3 0 001.102-.179 9.972 9.972 0 001.047-.461v1.922a5.502 5.502 0 01-1.18.453 5.796 5.796 0 01-1.445.164zm4.07-.156l1.852-8.735h1.796l-.164 1.617h.07c.225-.349.472-.656.743-.922.27-.265.57-.474.898-.625a2.585 2.585 0 011.11-.234c.5 0 .916.104 1.25.313.338.203.59.492.758.867.166.375.25.82.25 1.336 0 .192-.016.409-.047.648-.032.24-.076.492-.133.758l-1.04 4.977h-2.35l1.07-5.102a5.2 5.2 0 00.093-.5c.021-.156.032-.3.032-.43 0-.328-.07-.57-.211-.726-.141-.157-.352-.235-.633-.235-.354 0-.675.154-.961.461-.287.302-.537.709-.75 1.219-.209.51-.38 1.076-.516 1.695l-.765 3.618h-2.352zm8.852 3.843l2.671-12.578h1.797l-.132 1.328h.07a5.33 5.33 0 01.633-.718c.239-.23.513-.415.82-.555a2.352 2.352 0 011.023-.219c.422 0 .821.104 1.196.313.375.208.679.546.914 1.015.234.464.351 1.084.351 1.86 0 .567-.062 1.132-.187 1.695a7.594 7.594 0 01-.531 1.594c-.23.5-.511.945-.844 1.336-.328.385-.701.69-1.117.914a2.909 2.909 0 01-1.368.328c-.354 0-.653-.055-.898-.164a1.93 1.93 0 01-.625-.461 4.37 4.37 0 01-.46-.649h-.063c-.032.422-.073.81-.125 1.164-.053.36-.123.74-.211 1.141l-.563 2.656h-2.351zm4.898-5.586c.229 0 .448-.073.656-.218.209-.151.399-.355.571-.61.171-.26.32-.554.445-.883.125-.333.221-.685.289-1.054.068-.37.102-.74.102-1.11 0-.458-.086-.802-.258-1.031-.167-.229-.422-.344-.766-.344-.25 0-.479.065-.687.196a1.95 1.95 0 00-.539.523 3.726 3.726 0 00-.407.742 5.753 5.753 0 00-.28.844 7.745 7.745 0 00-.165.844 6.42 6.42 0 00-.047.726c0 .412.096.745.29 1 .197.25.463.375.796.375zm9.32 1.899c-.682 0-1.283-.123-1.804-.367a2.771 2.771 0 01-1.211-1.125c-.292-.5-.438-1.128-.438-1.883 0-.729.104-1.433.313-2.11a5.727 5.727 0 01.929-1.828 4.587 4.587 0 011.532-1.273c.609-.313 1.312-.469 2.109-.469.979 0 1.711.224 2.195.672.49.443.735 1.013.735 1.711 0 .458-.104.875-.313 1.25-.203.375-.513.698-.929.969-.417.265-.941.471-1.571.617-.63.14-1.37.211-2.219.211h-.398c-.005.062-.01.117-.016.164v.156c0 .469.136.841.407 1.117.271.276.653.414 1.148.414.458 0 .875-.052 1.25-.156a8.63 8.63 0 001.328-.516v1.774a6.854 6.854 0 01-1.398.508 7.411 7.411 0 01-1.649.164zm-.812-5.211h.351c.605 0 1.094-.065 1.469-.195.38-.131.656-.303.828-.516.177-.214.266-.445.266-.695 0-.25-.073-.435-.219-.555-.14-.125-.341-.188-.601-.188-.292 0-.581.092-.868.274a2.613 2.613 0 00-.757.758 3.212 3.212 0 00-.469 1.117zm9.531 5.211a4.106 4.106 0 01-1.648-.321 2.599 2.599 0 01-1.172-1.031c-.287-.474-.43-1.094-.43-1.859 0-.63.065-1.235.195-1.813a6.562 6.562 0 01.579-1.601c.255-.49.57-.914.945-1.274a4.127 4.127 0 011.289-.851 4.142 4.142 0 011.617-.305c.521 0 .987.05 1.399.149a5.42 5.42 0 011.164.414l-.719 1.789a10.26 10.26 0 00-.828-.313 2.978 2.978 0 00-.922-.133c-.37 0-.701.107-.992.321a2.71 2.71 0 00-.735.859 4.692 4.692 0 00-.453 1.211 5.892 5.892 0 00-.156 1.352c0 .328.052.604.156.828.11.224.263.393.461.507.203.115.445.172.727.172.396 0 .763-.06 1.101-.179a9.891 9.891 0 001.047-.461v1.922a5.488 5.488 0 01-1.18.453 5.786 5.786 0 01-1.445.164zm7.735 0a4.11 4.11 0 01-1.649-.321 2.604 2.604 0 01-1.172-1.031c-.286-.474-.429-1.094-.429-1.859 0-.63.065-1.235.195-1.813a6.56 6.56 0 01.578-1.601c.255-.49.57-.914.945-1.274a4.127 4.127 0 011.289-.851 4.15 4.15 0 011.617-.305c.521 0 .987.05 1.399.149.417.098.805.236 1.164.414l-.719 1.789a10.26 10.26 0 00-.828-.313 2.978 2.978 0 00-.922-.133c-.37 0-.7.107-.992.321a2.72 2.72 0 00-.734.859 4.692 4.692 0 00-.453 1.211 5.838 5.838 0 00-.157 1.352c0 .328.052.604.157.828.109.224.263.393.461.507.203.115.445.172.726.172.396 0 .763-.06 1.102-.179a9.97 9.97 0 001.046-.461v1.922a5.48 5.48 0 01-1.179.453 5.797 5.797 0 01-1.445.164zm4.101-3.469l.414-1.953h4.094l-.414 1.953h-4.094zm8.008 3.469c-.422 0-.82-.104-1.195-.313-.375-.208-.683-.544-.922-1.008-.235-.463-.352-1.078-.352-1.843 0-.573.06-1.141.18-1.703a7.956 7.956 0 01.531-1.594c.234-.505.516-.951.844-1.336a3.899 3.899 0 011.125-.922 2.87 2.87 0 011.367-.336c.37 0 .693.055.969.164.276.104.513.253.711.445.198.193.359.417.484.672h.063l.445-1.117h1.812l-1.859 8.735h-1.758l.11-1.133h-.063a4.358 4.358 0 01-.68.672 2.976 2.976 0 01-.812.453c-.297.109-.63.164-1 .164zm.922-1.899c.323 0 .622-.125.898-.375.276-.255.513-.586.711-.992.198-.406.339-.836.422-1.289.042-.208.07-.417.086-.625.021-.213.031-.443.031-.687 0-.37-.099-.675-.297-.914-.192-.245-.458-.368-.797-.368-.229 0-.447.076-.656.227-.203.146-.39.349-.562.609-.172.255-.323.55-.453.883a6.216 6.216 0 00-.391 2.156c0 .453.088.797.266 1.032.177.229.424.343.742.343zm5.711 1.743l1.867-8.735h2.375l-.727 3.36h2.727l.703-3.36h2.352l-1.86 8.735h-2.351l.75-3.602h-2.704l-.765 3.602h-2.367zm12.742.156c-.422 0-.82-.104-1.195-.313-.375-.208-.683-.544-.922-1.008-.235-.463-.352-1.078-.352-1.843 0-.573.06-1.141.18-1.703a7.956 7.956 0 01.531-1.594c.234-.505.516-.951.844-1.336a3.899 3.899 0 011.125-.922 2.87 2.87 0 011.367-.336c.37 0 .693.055.969.164.276.104.513.253.711.445.198.193.359.417.484.672h.063l.445-1.117h1.812l-1.859 8.735h-1.758l.11-1.133h-.063a4.358 4.358 0 01-.68.672 2.976 2.976 0 01-.812.453c-.297.109-.63.164-1 .164zm.922-1.899c.323 0 .622-.125.898-.375.276-.255.513-.586.711-.992.198-.406.339-.836.422-1.289.042-.208.07-.417.086-.625.021-.213.031-.443.031-.687 0-.37-.099-.675-.297-.914-.192-.245-.458-.368-.797-.368-.229 0-.447.076-.656.227-.203.146-.39.349-.562.609-.172.255-.323.55-.453.883a5.873 5.873 0 00-.289 1.047c-.068.37-.102.74-.102 1.109 0 .453.088.797.266 1.032.177.229.424.343.742.343zm6.125 1.899c-.24 0-.448-.016-.625-.047a2.635 2.635 0 01-.539-.141v-1.937c.109.047.216.08.32.101.104.016.216.024.336.024a.74.74 0 00.531-.219c.151-.146.287-.344.406-.594.125-.255.245-.547.36-.875l.367-1.047c.26-.734.516-1.372.766-1.914.255-.547.554-.997.898-1.351a3.151 3.151 0 011.289-.789c.521-.177 1.177-.266 1.969-.266.542 0 1.052.047 1.531.141.479.093.87.198 1.172.312l-1.773 8.446h-2.352l1.469-6.915a4.221 4.221 0 00-.242-.039 1.335 1.335 0 00-.25-.023c-.428 0-.771.122-1.032.367-.255.245-.481.61-.679 1.094a28.872 28.872 0 00-.657 1.789 30.294 30.294 0 01-.539 1.508 6.42 6.42 0 01-.617 1.242 2.61 2.61 0 01-.851.836c-.339.198-.758.297-1.258.297zm12.226 0c-.5 0-.914-.102-1.242-.305a1.847 1.847 0 01-.734-.867c-.162-.38-.242-.826-.242-1.336 0-.193.015-.44.046-.742.032-.302.079-.61.141-.922l.992-4.719h2.352l-1.07 5.102c-.037.177-.068.343-.094.5a3.242 3.242 0 00-.032.429c0 .329.071.571.211.727.141.156.352.234.633.234.36 0 .68-.151.961-.453.287-.307.537-.716.75-1.226a9.607 9.607 0 00.516-1.696l.765-3.617h2.352l-1.852 8.735h-1.796l.164-1.618h-.086a5.735 5.735 0 01-.742.922 3.067 3.067 0 01-.891.625 2.604 2.604 0 01-1.102.227zm9.688 0a7.65 7.65 0 01-1.656-.172c-.516-.115-.933-.253-1.25-.414v-1.938c.354.177.77.336 1.25.477.484.141 1.01.211 1.578.211.369 0 .705-.034 1.007-.102.308-.067.553-.182.735-.343.182-.167.273-.396.273-.688 0-.297-.114-.523-.343-.68-.23-.156-.573-.234-1.032-.234h-1.375l.352-1.648h.976c.443 0 .813-.029 1.11-.086.297-.063.518-.164.664-.305.151-.146.226-.346.226-.602 0-.244-.088-.432-.265-.562-.177-.136-.49-.203-.938-.203a4.68 4.68 0 00-1.179.172 9.06 9.06 0 00-1.282.445l-.562-1.711c.51-.198 1.049-.359 1.617-.484a8.457 8.457 0 011.82-.188c.599 0 1.136.073 1.61.219.474.146.846.377 1.117.695.276.313.414.729.414 1.25 0 .422-.091.774-.273 1.055-.178.281-.42.51-.727.687-.302.172-.646.31-1.031.414v.063c.432.12.786.32 1.062.601.281.282.422.67.422 1.165 0 .578-.154 1.085-.461 1.523-.307.437-.778.779-1.414 1.023-.635.24-1.45.36-2.445.36zm-87.914 22.844l5.984-11.422h2.914l1.149 11.422h-2.321l-.187-2.719h-3.696l-1.343 2.719h-2.5zm4.82-4.75h2.602l-.203-2.946-.063-.945a10.186 10.186 0 01-.016-.977h-.039a9.928 9.928 0 01-.343.86c-.131.286-.276.591-.438.914l-1.5 3.094zm6.234 8.593a4.008 4.008 0 01-1.148-.148v-1.875c.135.026.276.049.422.07.141.021.302.031.484.031.495 0 .904-.145 1.227-.437.323-.287.604-.654.844-1.102l.203-.382-1.282-8.735h2.305l.438 4.047c.026.24.044.497.054.773.016.271.026.54.032.805.005.266.007.503.007.711h.063c.073-.177.146-.375.219-.594.078-.218.166-.455.265-.711.104-.26.227-.536.367-.828l2.032-4.203h2.554l-5.312 9.985c-.313.588-.664 1.075-1.055 1.46a3.743 3.743 0 01-2.719 1.133zm12.344-3.687c-.781 0-1.422-.151-1.922-.453a2.778 2.778 0 01-1.101-1.235c-.235-.521-.352-1.109-.352-1.765 0-.599.06-1.151.18-1.657.12-.51.289-.966.508-1.367.224-.401.489-.742.797-1.023a3.38 3.38 0 012.289-.867c.364 0 .685.065.961.195.276.125.513.297.711.516.203.213.372.453.507.718h.063c.01-.088.015-.182.015-.281v-.234c0-1.047-.161-1.813-.484-2.297-.323-.485-.849-.727-1.578-.727-.245 0-.513.029-.805.086a4.022 4.022 0 00-.781.235l-.492-1.86a5.672 5.672 0 011.133-.281 8.134 8.134 0 011.312-.102c.958 0 1.734.206 2.328.618.599.406 1.037.981 1.313 1.726.281.745.422 1.628.422 2.649 0 .604-.042 1.205-.125 1.804a10.768 10.768 0 01-.368 1.719 7.613 7.613 0 01-.648 1.539c-.266.469-.586.88-.961 1.234-.37.349-.797.623-1.281.821a4.423 4.423 0 01-1.641.289zm.133-1.914c.266 0 .505-.063.719-.188.213-.125.401-.297.562-.515.167-.219.31-.474.43-.766a6.14 6.14 0 00.312-.938c.089-.338.159-.684.211-1.039a1.939 1.939 0 00-.296-.609 1.385 1.385 0 00-.469-.43 1.273 1.273 0 00-.641-.156c-.245 0-.469.05-.672.149a1.707 1.707 0 00-.547.429 2.553 2.553 0 00-.414.664 4.175 4.175 0 00-.25.883 6.082 6.082 0 00-.086 1.055c0 .458.099.817.297 1.078.198.255.479.383.844.383zm8.5 1.914c-.5 0-.914-.102-1.242-.305a1.855 1.855 0 01-.735-.867c-.161-.38-.242-.826-.242-1.336a9.632 9.632 0 01.188-1.664l.992-4.719h2.351l-1.07 5.102c-.036.177-.068.343-.094.5-.02.156-.031.299-.031.429 0 .329.071.571.211.727.141.156.352.234.633.234.359 0 .68-.151.961-.453.286-.307.536-.716.75-1.226a9.777 9.777 0 00.516-1.696l.765-3.617h2.352l-1.852 8.735h-1.797l.164-1.618h-.086a5.68 5.68 0 01-.742.922 3.05 3.05 0 01-.89.625 2.61 2.61 0 01-1.102.227zm6.875-.156l1.852-8.735h1.796l-.164 1.617h.071a5.28 5.28 0 01.742-.922c.271-.265.57-.474.898-.625a2.588 2.588 0 011.11-.234c.599 0 1.062.159 1.39.477.334.312.552.747.657 1.304h.062c.219-.349.466-.656.742-.922.276-.265.584-.474.922-.625a2.671 2.671 0 011.117-.234c.729 0 1.274.227 1.633.68.365.453.547 1.065.547 1.836 0 .192-.016.409-.047.648a8.93 8.93 0 01-.133.758l-1.039 4.977h-2.351l1.078-5.102c.041-.177.073-.344.094-.5.02-.156.031-.3.031-.43 0-.328-.065-.57-.195-.726-.126-.157-.316-.235-.571-.235-.271 0-.521.086-.75.258a2.545 2.545 0 00-.625.719 5.884 5.884 0 00-.5 1.07c-.14.406-.258.844-.351 1.313l-.75 3.633h-2.352l1.07-5.102c.042-.177.073-.344.094-.5.021-.156.031-.3.031-.43 0-.328-.065-.57-.195-.726-.125-.157-.315-.235-.57-.235a1.19 1.19 0 00-.742.266 2.59 2.59 0 00-.625.734 5.764 5.764 0 00-.5 1.071c-.141.406-.261.841-.36 1.304l-.765 3.618h-2.352z" fill="#000"/><path d="M141.5 124.219c0 8.836-7.163 16-16 16s-16-7.164-16-16c0-8.837 7.163-16 16-16s16 7.163 16 16z" fill="url(#paint4_linear_1_1324)"/><path d="M127.531 130.219h-2.414v-6.61a48.447 48.447 0 01.063-2.273 5.599 5.599 0 01-.352.351c-.172.162-.333.308-.484.438l-1.313 1.054-1.164-1.453 3.68-2.929h1.984v11.422z" fill="#fff"/><path d="M976.28 168.219l2.414-11.422h3.328c.729 0 1.365.086 1.906.257.542.167.961.438 1.258.813.302.37.453.859.453 1.469 0 .515-.099.974-.297 1.375a2.62 2.62 0 01-.843.992c-.37.26-.821.448-1.352.562v.063c.521.135.935.388 1.242.758.313.364.469.833.469 1.406 0 .865-.198 1.573-.594 2.125-.396.547-.935.95-1.617 1.211-.677.26-1.44.391-2.289.391h-4.078zm2.804-2h1.407c.39 0 .731-.066 1.023-.196.292-.13.518-.323.68-.578.166-.255.25-.568.25-.937 0-.401-.12-.711-.36-.93-.234-.224-.591-.336-1.07-.336h-1.289l-.641 2.977zm1.04-4.899h1.164c.38 0 .711-.049.992-.148.286-.105.508-.263.664-.477.156-.219.234-.5.234-.844 0-.354-.109-.619-.328-.797-.219-.182-.552-.273-1-.273h-1.187l-.539 2.539zm9.71 7.055c-.656 0-1.237-.136-1.742-.406a2.962 2.962 0 01-1.179-1.157c-.282-.505-.422-1.104-.422-1.797 0-.619.06-1.211.179-1.773.125-.568.31-1.089.555-1.563.25-.479.56-.893.93-1.242a4 4 0 011.304-.82c.495-.198 1.053-.297 1.672-.297.677 0 1.263.138 1.758.414a2.79 2.79 0 011.149 1.18c.27.515.406 1.138.406 1.867a8.07 8.07 0 01-.18 1.719 6.189 6.189 0 01-.531 1.531 4.68 4.68 0 01-.906 1.234 3.968 3.968 0 01-1.297.821c-.495.192-1.06.289-1.696.289zm.196-1.914c.26 0 .497-.065.711-.196a2.06 2.06 0 00.57-.554c.167-.24.305-.513.414-.821.115-.312.201-.648.258-1.007.062-.36.094-.727.094-1.102 0-.297-.037-.56-.11-.789a1.034 1.034 0 00-.351-.547c-.162-.135-.381-.203-.657-.203-.286 0-.544.081-.773.242a2.147 2.147 0 00-.586.633 4.078 4.078 0 00-.414.891 6.572 6.572 0 00-.25 1.015 6.643 6.643 0 00-.078.992c0 .474.096.834.289 1.079.193.244.487.367.883.367zm9.07 1.914a4.106 4.106 0 01-1.648-.321 2.599 2.599 0 01-1.172-1.031c-.287-.474-.43-1.094-.43-1.859 0-.63.065-1.235.195-1.813a6.562 6.562 0 01.579-1.601c.255-.49.57-.914.945-1.274a4.127 4.127 0 011.289-.851 4.15 4.15 0 011.622-.305c.52 0 .98.05 1.39.149.42.098.81.236 1.17.414l-.72 1.789c-.28-.12-.56-.224-.83-.313a2.978 2.978 0 00-.92-.133c-.37 0-.702.107-.993.321a2.71 2.71 0 00-.735.859 4.692 4.692 0 00-.453 1.211 5.892 5.892 0 00-.156 1.352c0 .328.052.604.156.828.11.224.263.393.461.507.203.115.445.172.727.172.395 0 .763-.06 1.103-.179a9.93 9.93 0 001.05-.461v1.922c-.37.192-.76.343-1.18.453-.43.109-.908.164-1.45.164zm7.73 0c-.6 0-1.15-.107-1.64-.321a2.665 2.665 0 01-1.18-1.031c-.28-.474-.43-1.094-.43-1.859 0-.63.07-1.235.2-1.813.13-.578.32-1.112.58-1.601.25-.49.57-.914.94-1.274.38-.364.81-.648 1.29-.851a4.193 4.193 0 011.62-.305c.52 0 .99.05 1.4.149.41.098.8.236 1.16.414l-.72 1.789c-.28-.12-.55-.224-.82-.313a3.044 3.044 0 00-.93-.133c-.37 0-.7.107-.99.321-.29.213-.53.5-.73.859-.2.359-.35.763-.46 1.211-.1.443-.15.893-.15 1.352 0 .328.05.604.15.828.11.224.27.393.46.507.21.115.45.172.73.172.4 0 .76-.06 1.1-.179a9.93 9.93 0 001.05-.461v1.922c-.37.192-.76.343-1.18.453-.42.109-.9.164-1.45.164zm4.07-.156l1.86-8.735h1.79l-.16 1.617h.07c.22-.349.47-.656.74-.922.27-.265.57-.474.9-.625.33-.156.7-.234 1.11-.234.6 0 1.06.159 1.39.477.33.312.55.747.66 1.304h.06c.22-.349.46-.656.74-.922.28-.265.58-.474.92-.625.35-.156.72-.234 1.12-.234.73 0 1.27.227 1.63.68.37.453.55 1.065.55 1.836a7.83 7.83 0 01-.18 1.406l-1.04 4.977h-2.35l1.08-5.102c.04-.177.07-.344.09-.5.02-.156.03-.3.03-.43 0-.328-.06-.57-.19-.726-.13-.157-.32-.235-.57-.235-.27 0-.52.086-.75.258-.23.172-.44.412-.63.719s-.35.664-.5 1.07c-.14.406-.26.844-.35 1.313l-.75 3.633h-2.35l1.07-5.102c.04-.177.07-.344.09-.5.02-.156.03-.3.03-.43 0-.328-.06-.57-.19-.726-.13-.157-.32-.235-.57-.235-.27 0-.51.089-.74.266a2.65 2.65 0 00-.63.734c-.19.308-.35.664-.5 1.071-.14.406-.26.841-.36 1.304l-.76 3.618h-2.36zm17.37.156c-.42 0-.82-.104-1.19-.313-.38-.208-.69-.544-.93-1.008-.23-.463-.35-1.078-.35-1.843 0-.573.06-1.141.18-1.703.13-.563.3-1.094.53-1.594.24-.505.52-.951.85-1.336.33-.391.71-.698 1.12-.922.42-.224.88-.336 1.37-.336.37 0 .69.055.97.164.27.104.51.253.71.445.2.193.36.417.48.672h.07l.44-1.117h1.81l-1.85 8.735h-1.76l.11-1.133h-.07c-.2.255-.43.479-.68.672-.24.192-.51.343-.81.453-.29.109-.63.164-1 .164zm.92-1.899c.33 0 .63-.125.9-.375.28-.255.52-.586.71-.992a5.185 5.185 0 00.51-1.914c.02-.213.03-.443.03-.687 0-.37-.1-.675-.29-.914a.972.972 0 00-.8-.368c-.23 0-.45.076-.66.227-.2.146-.39.349-.56.609-.17.255-.32.55-.45.883a5.71 5.71 0 00-.29 1.047c-.07.37-.1.74-.1 1.109 0 .453.08.797.26 1.032.18.229.43.343.74.343zm5.71 1.743l1.87-8.735h2.38l-.73 3.36h2.73l.7-3.36h2.35l-1.86 8.735h-2.35l.75-3.602h-2.7l-.77 3.602h-2.37zm13.62.156c-.65 0-1.24-.136-1.74-.406a2.99 2.99 0 01-1.18-1.157c-.28-.505-.42-1.104-.42-1.797 0-.619.06-1.211.18-1.773.12-.568.31-1.089.55-1.563.25-.479.56-.893.93-1.242.38-.354.81-.627 1.31-.82.49-.198 1.05-.297 1.67-.297.68 0 1.26.138 1.76.414.49.271.87.664 1.15 1.18.27.515.4 1.138.4 1.867a8.07 8.07 0 01-.18 1.719 5.99 5.99 0 01-.53 1.531c-.24.469-.54.88-.91 1.234-.36.349-.79.623-1.29.821-.5.192-1.06.289-1.7.289zm.2-1.914c.26 0 .49-.065.71-.196.21-.135.4-.32.57-.554.17-.24.3-.513.41-.821.12-.312.2-.648.26-1.007.06-.36.09-.727.09-1.102 0-.297-.03-.56-.11-.789a.972.972 0 00-.35-.547c-.16-.135-.38-.203-.65-.203-.29 0-.55.081-.78.242-.22.156-.42.367-.58.633a4 4 0 00-.42.891c-.11.328-.19.666-.25 1.015-.05.344-.07.675-.07.992 0 .474.09.834.28 1.079.2.244.49.367.89.367zm9.54 1.914c-.79 0-1.46-.138-2.02-.414a2.847 2.847 0 01-1.27-1.203c-.29-.526-.43-1.164-.43-1.914 0-.584.06-1.146.19-1.688a6.26 6.26 0 01.6-1.516c.26-.463.58-.867.97-1.211.39-.349.85-.619 1.36-.812a4.801 4.801 0 011.73-.297c.62 0 1.17.094 1.64.281.47.183.84.448 1.11.797.26.349.4.774.4 1.274 0 .437-.09.797-.25 1.078-.16.276-.39.495-.67.656a4.07 4.07 0 01-.97.367v.063c.38.099.71.286.98.562.28.276.42.669.42 1.18 0 .489-.14.948-.41 1.375-.27.422-.68.766-1.24 1.031-.55.261-1.27.391-2.14.391zm.04-1.641c.29 0 .54-.052.75-.156.2-.104.36-.245.46-.422.11-.182.17-.391.17-.625a.945.945 0 00-.17-.57c-.11-.151-.28-.263-.52-.336-.24-.078-.55-.117-.94-.117h-1.15c0 .078-.01.161-.01.25V165c0 .625.13 1.07.41 1.336.27.265.6.398 1 .398zm-1.07-3.844h1.57c.3 0 .55-.039.76-.117.21-.083.38-.206.49-.367.11-.161.17-.362.17-.602a.7.7 0 00-.26-.578c-.17-.14-.4-.211-.67-.211-.3 0-.59.079-.85.235-.26.156-.5.375-.71.656-.2.281-.37.609-.5.984zm6.48 5.485c-.24 0-.45-.016-.63-.047a2.642 2.642 0 01-.53-.141v-1.937c.1.047.21.08.32.101.1.016.21.024.33.024.2 0 .38-.073.53-.219.15-.146.29-.344.41-.594.12-.255.24-.547.36-.875.11-.328.24-.677.37-1.047.26-.734.51-1.372.76-1.914.26-.547.56-.997.9-1.351.34-.354.77-.617 1.29-.789.52-.177 1.18-.266 1.97-.266.54 0 1.05.047 1.53.141.48.093.87.198 1.17.312l-1.77 8.446h-2.35l1.46-6.915a2.746 2.746 0 00-.24-.039 1.327 1.327 0 00-.25-.023c-.42 0-.77.122-1.03.367-.25.245-.48.61-.68 1.094-.2.479-.42 1.075-.65 1.789-.18.536-.36 1.039-.54 1.508a6.85 6.85 0 01-.62 1.242c-.23.354-.51.633-.85.836-.34.198-.76.297-1.26.297zm13.3 0c-.69 0-1.29-.123-1.81-.367-.51-.25-.92-.625-1.21-1.125-.29-.5-.44-1.128-.44-1.883 0-.729.11-1.433.32-2.11.2-.682.51-1.291.93-1.828.41-.536.92-.961 1.53-1.273.61-.313 1.31-.469 2.11-.469.98 0 1.71.224 2.19.672.49.443.74 1.013.74 1.711 0 .458-.11.875-.32 1.25-.2.375-.51.698-.93.969-.41.265-.94.471-1.57.617-.63.14-1.37.211-2.22.211h-.39c-.01.062-.01.117-.02.164v.156c0 .469.14.841.41 1.117.27.276.65.414 1.15.414.45 0 .87-.052 1.25-.156a8.78 8.78 0 001.32-.516v1.774c-.46.224-.92.393-1.4.508-.47.109-1.02.164-1.64.164zm-.82-5.211h.36c.6 0 1.09-.065 1.46-.195.38-.131.66-.303.83-.516.18-.214.27-.445.27-.695 0-.25-.08-.435-.22-.555-.14-.125-.34-.188-.6-.188-.29 0-.58.092-.87.274-.29.182-.54.435-.76.758a3.31 3.31 0 00-.47 1.117zm5.87 5.055l1.87-8.735h2.37l-.72 3.36h2.72l.71-3.36h2.35l-1.86 8.735h-2.35l.75-3.602h-2.71l-.76 3.602h-2.37zm12.66.156c-.5 0-.92-.102-1.24-.305a1.842 1.842 0 01-.74-.867c-.16-.38-.24-.826-.24-1.336 0-.193.01-.44.05-.742.03-.302.07-.61.14-.922l.99-4.719h2.35l-1.07 5.102c-.04.177-.07.343-.09.5-.03.156-.04.299-.04.429 0 .329.07.571.22.727.14.156.35.234.63.234.36 0 .68-.151.96-.453.29-.307.54-.716.75-1.226.21-.516.38-1.081.51-1.696l.77-3.617h2.35l-1.85 8.735h-1.8l.17-1.618h-.09c-.22.344-.47.651-.74.922a3.09 3.09 0 01-.89.625c-.33.151-.7.227-1.1.227zm10.74 0c-.68 0-1.28-.123-1.81-.367-.51-.25-.91-.625-1.21-1.125-.29-.5-.43-1.128-.43-1.883 0-.729.1-1.433.31-2.11.21-.682.52-1.291.93-1.828a4.65 4.65 0 011.53-1.273c.61-.313 1.31-.469 2.11-.469.98 0 1.71.224 2.19.672.49.443.74 1.013.74 1.711 0 .458-.11.875-.31 1.25-.21.375-.52.698-.93.969-.42.265-.94.471-1.57.617-.63.14-1.37.211-2.22.211h-.4c-.01.062-.01.117-.02.164v.156c0 .469.14.841.41 1.117.27.276.65.414 1.15.414.46 0 .87-.052 1.25-.156.37-.104.82-.276 1.33-.516v1.774c-.46.224-.93.393-1.4.508a7.49 7.49 0 01-1.65.164zm-.81-5.211h.35c.6 0 1.09-.065 1.47-.195.38-.131.65-.303.83-.516a1.1 1.1 0 00.26-.695c0-.25-.07-.435-.22-.555-.14-.125-.34-.188-.6-.188-.29 0-.58.092-.87.274a2.57 2.57 0 00-.75.758c-.22.323-.38.695-.47 1.117zm-121.448 28.211c-.5 0-.914-.102-1.243-.305a1.853 1.853 0 01-.734-.867c-.161-.38-.242-.826-.242-1.336a9.95 9.95 0 01.187-1.664l.993-4.719h2.351l-1.07 5.102c-.037.177-.068.343-.094.5a3.23 3.23 0 00-.031.429c0 .329.07.571.211.727.14.156.351.234.633.234.359 0 .679-.151.961-.453.286-.307.536-.716.75-1.226a9.692 9.692 0 00.515-1.696l.766-3.617h2.351l-1.851 8.735h-1.797l.164-1.618h-.086a5.68 5.68 0 01-.742.922 3.067 3.067 0 01-.891.625 2.603 2.603 0 01-1.101.227zm14.789 0c-.657 0-1.237-.136-1.742-.406a2.964 2.964 0 01-1.18-1.157c-.281-.505-.422-1.104-.422-1.797 0-.619.06-1.211.18-1.773.125-.568.31-1.089.554-1.563.25-.479.56-.893.93-1.242.375-.354.81-.627 1.305-.82.494-.198 1.052-.297 1.672-.297.677 0 1.262.138 1.762.414.49.271.87.664 1.14 1.18.27.515.41 1.138.41 1.867a8.07 8.07 0 01-.18 1.719 5.99 5.99 0 01-.53 1.531c-.24.469-.54.88-.91 1.234-.36.349-.79.623-1.294.821-.495.192-1.06.289-1.695.289zm.195-1.914c.26 0 .497-.065.711-.196.213-.135.404-.32.57-.554.167-.24.305-.513.414-.821.115-.312.199-.648.259-1.007.06-.36.09-.727.09-1.102 0-.297-.03-.56-.11-.789a.985.985 0 00-.348-.547c-.162-.135-.38-.203-.656-.203-.287 0-.545.081-.774.242a2.147 2.147 0 00-.586.633 4.173 4.173 0 00-.414.891 6.688 6.688 0 00-.25 1.015 6.643 6.643 0 00-.078.992c0 .474.096.834.289 1.079.193.244.487.367.883.367zm5.404 1.758l1.85-8.735h1.8l-.16 1.617h.07c.22-.349.47-.656.74-.922.27-.265.57-.474.9-.625.33-.156.7-.234 1.11-.234.5 0 .91.104 1.25.313.34.203.59.492.75.867.17.375.25.82.25 1.336 0 .192-.01.409-.04.648-.03.24-.08.492-.13.758l-1.04 4.977h-2.36l1.07-5.102c.05-.177.08-.344.1-.5.02-.156.03-.3.03-.43 0-.328-.07-.57-.21-.726-.14-.157-.35-.235-.63-.235-.36 0-.68.154-.96.461-.29.302-.54.709-.75 1.219a9.67 9.67 0 00-.52 1.695l-.77 3.618h-2.35zm9.67 0l1.86-8.735h1.79l-.16 1.617h.07c.22-.349.47-.656.74-.922.27-.265.57-.474.9-.625.33-.156.7-.234 1.11-.234.6 0 1.06.159 1.39.477.33.312.55.747.66 1.304h.06c.22-.349.46-.656.74-.922.28-.265.58-.474.92-.625.35-.156.72-.234 1.12-.234.73 0 1.27.227 1.63.68.37.453.55 1.065.55 1.836a7.83 7.83 0 01-.18 1.406l-1.04 4.977h-2.35l1.08-5.102c.04-.177.07-.344.09-.5.02-.156.03-.3.03-.43 0-.328-.06-.57-.19-.726-.13-.157-.32-.235-.57-.235-.27 0-.52.086-.75.258-.23.172-.44.412-.63.719s-.35.664-.5 1.07c-.14.406-.26.844-.35 1.313l-.75 3.633h-2.35l1.07-5.102c.04-.177.07-.344.09-.5.02-.156.03-.3.03-.43 0-.328-.06-.57-.19-.726-.13-.157-.32-.235-.57-.235-.27 0-.52.089-.74.266a2.65 2.65 0 00-.63.734c-.19.308-.35.664-.5 1.071-.14.406-.26.841-.36 1.304l-.76 3.618h-2.36zm17.29.156c-.5 0-.92-.102-1.25-.305a1.88 1.88 0 01-.73-.867c-.16-.38-.24-.826-.24-1.336 0-.193.01-.44.04-.742s.08-.61.14-.922l1-4.719h2.35l-1.07 5.102c-.04.177-.07.343-.1.5-.02.156-.03.299-.03.429 0 .329.07.571.21.727.14.156.36.234.64.234.36 0 .68-.151.96-.453.28-.307.53-.716.75-1.226.21-.516.38-1.081.51-1.696l.77-3.617h2.35l-1.85 8.735h-1.8l.17-1.618h-.09c-.22.344-.47.651-.74.922a3.09 3.09 0 01-.89.625c-.33.151-.7.227-1.1.227zm6.93-.156l1.85-8.735h3.24l.33 6.094h.05l3.14-6.094h3.35l-1.88 8.735h-2.17l.96-4.321c.09-.406.18-.797.27-1.172.1-.375.19-.682.25-.922h-.04l-3.32 6.415h-2.25l-.36-6.415h-.03c-.05.428-.11.816-.18 1.165-.06.343-.13.684-.2 1.023l-.84 4.227h-2.17zm15.1.156c-.5 0-.92-.102-1.25-.305a1.88 1.88 0 01-.73-.867c-.16-.38-.24-.826-.24-1.336 0-.193.01-.44.04-.742.04-.302.08-.61.15-.922l.99-4.719h2.35l-1.07 5.102c-.04.177-.07.343-.09.5-.03.156-.04.299-.04.429 0 .329.07.571.21.727.15.156.36.234.64.234.36 0 .68-.151.96-.453.28-.307.53-.716.75-1.226.21-.516.38-1.081.51-1.696l.77-3.617h2.35l-1.85 8.735h-1.8l.17-1.618h-.09c-.22.344-.47.651-.74.922a3.09 3.09 0 01-.89.625c-.33.151-.7.227-1.1.227zm9.68 0c-.58 0-1.14-.058-1.65-.172-.52-.115-.93-.253-1.25-.414v-1.938c.35.177.77.336 1.25.477.48.141 1.01.211 1.58.211.37 0 .7-.034 1-.102.31-.067.56-.182.74-.343.18-.167.27-.396.27-.688 0-.297-.11-.523-.34-.68-.23-.156-.58-.234-1.03-.234h-1.38l.35-1.648h.98c.44 0 .81-.029 1.11-.086.3-.063.52-.164.66-.305.15-.146.23-.346.23-.602 0-.244-.09-.432-.27-.562-.17-.136-.49-.203-.93-.203-.35 0-.75.057-1.18.172a8.66 8.66 0 00-1.28.445l-.57-1.711c.51-.198 1.05-.359 1.62-.484a8.437 8.437 0 011.82-.188c.6 0 1.14.073 1.61.219.47.146.85.377 1.12.695.27.313.41.729.41 1.25 0 .422-.09.774-.27 1.055-.18.281-.42.51-.73.687-.3.172-.64.31-1.03.414v.063c.43.12.79.32 1.06.601.28.282.42.67.42 1.165 0 .578-.15 1.085-.46 1.523-.3.437-.78.779-1.41 1.023-.64.24-1.45.36-2.45.36zm8.47 0a2.4 2.4 0 01-1.2-.313c-.38-.208-.68-.544-.92-1.008-.24-.463-.35-1.078-.35-1.843 0-.573.06-1.141.18-1.703.12-.563.3-1.094.53-1.594.23-.505.51-.951.84-1.336a3.84 3.84 0 011.13-.922c.42-.224.87-.336 1.36-.336.37 0 .7.055.97.164.28.104.51.253.71.445.2.193.36.417.49.672h.06l.45-1.117h1.81l-1.86 8.735h-1.76l.11-1.133h-.06c-.21.255-.44.479-.68.672-.25.192-.52.343-.81.453-.3.109-.64.164-1 .164zm.92-1.899c.32 0 .62-.125.9-.375.27-.255.51-.586.71-.992.19-.406.33-.836.42-1.289.04-.208.07-.417.08-.625.02-.213.04-.443.04-.687 0-.37-.1-.675-.3-.914-.19-.245-.46-.368-.8-.368-.23 0-.45.076-.65.227-.21.146-.4.349-.57.609-.17.255-.32.55-.45.883a5.71 5.71 0 00-.29 1.047c-.07.37-.1.74-.1 1.109 0 .453.09.797.26 1.032.18.229.43.343.75.343zm11.43 4.875l.75-3.132a1.457 1.457 0 01-.47-.352c-.13-.141-.23-.3-.3-.477a7.684 7.684 0 01-.19-.578h-.06c-.22.308-.46.581-.73.821-.26.234-.56.416-.88.546-.32.131-.67.196-1.05.196-.5 0-.91-.102-1.25-.305a1.92 1.92 0 01-.75-.867c-.17-.38-.25-.826-.25-1.336 0-.193.02-.44.06-.742.05-.302.1-.61.16-.922l1-4.719h2.35l-1.07 5.102c-.04.177-.07.343-.1.5-.02.156-.03.299-.03.429 0 .329.07.571.21.727.14.156.35.234.64.234.36 0 .68-.151.96-.453.28-.307.53-.716.75-1.226.21-.516.38-1.081.51-1.696l.77-3.617h2.35l-1.27 5.969c-.01.078-.02.151-.04.219v.195c0 .177.04.307.13.391.09.078.21.117.35.117.13 0 .25-.011.36-.031.12-.021.23-.047.34-.079l-1.07 5.086h-2.18zm7-2.976c-.5 0-.92-.102-1.25-.305a1.88 1.88 0 01-.73-.867c-.16-.38-.24-.826-.24-1.336 0-.193.01-.44.04-.742.04-.302.08-.61.15-.922l.99-4.719h2.35l-1.07 5.102c-.04.177-.07.343-.09.5-.03.156-.04.299-.04.429 0 .329.07.571.21.727.15.156.36.234.64.234.36 0 .68-.151.96-.453.28-.307.53-.716.75-1.226.21-.516.38-1.081.51-1.696l.77-3.617h2.35l-1.85 8.735h-1.8l.17-1.618h-.09c-.22.344-.47.651-.74.922a3.09 3.09 0 01-.89.625c-.33.151-.7.227-1.1.227zm7.61 0c-.23 0-.44-.016-.64-.047a2.25 2.25 0 01-.54-.141v-1.937c.07.031.17.06.27.086.1.026.21.039.33.039a.89.89 0 00.38-.078.974.974 0 00.29-.227c.08-.094.16-.198.23-.312.18-.303.34-.55.49-.743.14-.192.3-.346.45-.461.16-.119.34-.21.54-.273a2.62 2.62 0 01-.63-.383 1.733 1.733 0 01-.44-.594c-.1-.239-.16-.526-.16-.859 0-.521.1-.969.3-1.344.2-.375.47-.679.81-.914.35-.239.75-.416 1.21-.531.45-.115.94-.172 1.46-.172h3.65l-1.84 8.735h-2.36l.71-3.25h-.48c-.34 0-.61.109-.8.328-.19.213-.37.489-.52.828a8.19 8.19 0 01-.57 1.039c-.14.224-.31.427-.5.609-.2.182-.43.328-.69.438-.27.109-.58.164-.95.164zm4.12-5.008h.73l.46-2.203h-.99c-.26 0-.49.049-.69.148-.2.094-.37.235-.49.422-.11.182-.17.409-.17.68 0 .286.09.518.28.695.18.172.48.258.87.258z" fill="#000"/><circle cx="1043.05" cy="124.54" r="16" fill="url(#paint5_linear_1_1324)"/><path d="M1046.65 121.673c0 .526-.11.982-.33 1.367a2.77 2.77 0 01-.89.946c-.37.244-.79.424-1.25.539v.047c.91.114 1.61.395 2.08.843.48.448.72 1.047.72 1.797 0 .667-.16 1.263-.49 1.789-.32.526-.82.94-1.5 1.242-.68.302-1.55.454-2.62.454-.63 0-1.22-.053-1.76-.157a6.963 6.963 0 01-1.53-.461v-2.054c.49.25 1 .44 1.54.57.53.125 1.03.187 1.5.187.86 0 1.46-.148 1.81-.445.35-.302.52-.724.52-1.265 0-.318-.08-.586-.24-.805-.16-.219-.44-.386-.84-.5-.4-.115-.95-.172-1.67-.172h-.87v-1.852h.89c.7 0 1.23-.065 1.6-.195.37-.135.62-.318.75-.547.13-.234.2-.5.2-.797 0-.406-.12-.724-.37-.953-.25-.229-.67-.344-1.25-.344-.37 0-.7.047-1 .141-.3.089-.57.198-.81.328-.24.125-.45.248-.63.367l-1.12-1.664a6.26 6.26 0 011.57-.804c.61-.214 1.33-.321 2.16-.321 1.18 0 2.11.237 2.8.711.68.474 1.03 1.144 1.03 2.008z" fill="#fff"/><defs><linearGradient id="paint0_linear_1_1324" x1="919.049" y1="152.58" x2="1170.08" y2="149.733" gradientUnits="userSpaceOnUse"><stop stop-color="#D14B5F"/><stop offset="1" stop-color="#EF8E18"/></linearGradient><linearGradient id="paint1_linear_1_1324" x1="460.049" y1="152.58" x2="711.077" y2="149.734" gradientUnits="userSpaceOnUse"><stop stop-color="#D14B5F"/><stop offset="1" stop-color="#EF8E18"/></linearGradient><linearGradient id="paint2_linear_1_1324" x1="583.614" y1="110.5" x2="583.614" y2="162.457" gradientUnits="userSpaceOnUse"><stop stop-color="#E64B13"/><stop offset="1" stop-color="#FAFF00"/></linearGradient><linearGradient id="paint3_linear_1_1324" x1=".549" y1="152.58" x2="251.577" y2="149.733" gradientUnits="userSpaceOnUse"><stop stop-color="#D14B5F"/><stop offset="1" stop-color="#EF8E18"/></linearGradient><linearGradient id="paint4_linear_1_1324" x1="124.114" y1="110.178" x2="124.114" y2="162.135" gradientUnits="userSpaceOnUse"><stop stop-color="#E64B13"/><stop offset="1" stop-color="#FAFF00"/></linearGradient><linearGradient id="paint5_linear_1_1324" x1="1041.66" y1="110.5" x2="1041.66" y2="162.457" gradientUnits="userSpaceOnUse"><stop stop-color="#E64B13"/><stop offset="1" stop-color="#FAFF00"/></linearGradient></defs></svg>