<svg width="359" height="343" fill="none" xmlns="http://www.w3.org/2000/svg"><path d="M147.333 1.412A2.246 2.246 0 01149.418 0h67.026a2.246 2.246 0 012.086 3.08l-7.187 17.966a2.246 2.246 0 01-2.085 1.411h-67.026a2.246 2.246 0 01-2.085-3.08l7.186-17.965z" fill="url(#paint0_linear_1_3657)"/><path d="M163.004 14.063l1.084-5.13h1.495c.328 0 .613.039.856.116.244.075.432.197.565.365.136.166.204.386.204.66 0 .231-.045.437-.134.617a1.173 1.173 0 01-.379.446 1.639 1.639 0 01-.607.253v.028c.234.06.42.174.558.34.141.164.211.374.211.632 0 .388-.089.706-.267.954-.178.246-.42.427-.726.544a2.845 2.845 0 01-1.028.175h-1.832zm1.26-.898h.631c.176 0 .329-.03.46-.087a.676.676 0 00.305-.26.753.753 0 00.113-.421c0-.18-.054-.32-.162-.418-.105-.1-.265-.15-.481-.15h-.579l-.287 1.336zm.466-2.2h.523c.171 0 .32-.022.446-.067a.616.616 0 00.298-.214.638.638 0 00.105-.379c0-.159-.049-.278-.147-.358-.098-.081-.248-.122-.449-.122h-.533l-.243 1.14zm4.376 3.169c-.351 0-.639-.068-.863-.204a1.252 1.252 0 01-.495-.554 1.917 1.917 0 01-.158-.793c0-.27.027-.517.081-.744.054-.23.13-.434.228-.614.101-.18.22-.334.358-.46a1.516 1.516 0 011.028-.39c.164 0 .308.03.432.088a.96.96 0 01.319.232c.091.096.167.203.228.323h.028c.005-.04.007-.082.007-.127v-.105c0-.47-.072-.814-.217-1.032-.145-.217-.382-.326-.709-.326-.11 0-.231.013-.362.039a1.76 1.76 0 00-.351.105l-.221-.835c.152-.056.322-.098.509-.126.187-.03.384-.046.59-.046.43 0 .779.092 1.045.277.269.183.466.441.59.776.126.334.189.73.189 1.19a5.787 5.787 0 01-.221 1.582 3.471 3.471 0 01-.291.691c-.119.21-.263.395-.432.554a1.84 1.84 0 01-.575.369 1.98 1.98 0 01-.737.13zm.06-.86a.628.628 0 00.323-.084.846.846 0 00.252-.232 1.51 1.51 0 00.193-.344 2.86 2.86 0 00.141-.42 4.43 4.43 0 00.094-.468.878.878 0 00-.133-.273.608.608 0 00-.211-.193.565.565 0 00-.287-.07.68.68 0 00-.302.066.776.776 0 00-.246.193 1.164 1.164 0 00-.186.299 1.866 1.866 0 00-.112.396 2.688 2.688 0 00-.039.474c0 .206.045.367.134.484a.451.451 0 00.379.172zm4.172.86c-.344 0-.617-.05-.818-.151a.925.925 0 01-.424-.41 1.296 1.296 0 01-.127-.58 3.744 3.744 0 01.081-.663l.474-2.19h1.056l-.344 1.593a3.493 3.493 0 01.712-.077c.213 0 .402.044.565.13a.941.941 0 01.39.362c.096.154.144.338.144.55 0 .244-.059.475-.176.695a1.32 1.32 0 01-.554.537c-.25.136-.577.204-.979.204zm.084-.737a.594.594 0 00.411-.158.637.637 0 00.158-.425.482.482 0 00-.05-.231.3.3 0 00-.147-.14.571.571 0 00-.242-.046 2.197 2.197 0 00-.46.063c-.028.126-.047.22-.056.28a1.516 1.516 0 00-.014.225c0 .155.04.266.119.334.08.065.173.098.281.098zm1.934.666l.835-3.923h1.056l-.835 3.923h-1.056zm1.666 0l1.681-2.01-.789-1.913h1.126l.403 1.172.857-1.172h1.242l-1.639 1.969.856 1.954h-1.144l-.438-1.2-.927 1.2h-1.228zm5.594.07c-.19 0-.369-.046-.537-.14a1.04 1.04 0 01-.414-.452c-.106-.209-.158-.485-.158-.829 0-.257.027-.512.08-.764.057-.253.136-.492.239-.716a2.62 2.62 0 01.379-.6c.15-.176.318-.314.505-.414a1.3 1.3 0 01.614-.151c.167 0 .312.024.436.073.124.047.23.114.319.2.089.087.161.188.217.302h.028l.2-.502h.815l-.836 3.923h-.789l.049-.508h-.028a1.97 1.97 0 01-.305.301 1.274 1.274 0 01-.814.278zm.414-.852a.59.59 0 00.403-.168c.124-.115.231-.264.32-.446.088-.183.152-.376.189-.58a3.306 3.306 0 00.053-.59.623.623 0 00-.134-.41.43.43 0 00-.358-.164.491.491 0 00-.294.102 1.013 1.013 0 00-.253.273 2.07 2.07 0 00-.204.397 2.644 2.644 0 00-.129.47 2.71 2.71 0 00-.046.498c0 .204.04.358.119.464a.4.4 0 00.334.154zm4.302.853c-.307 0-.577-.055-.811-.165a1.245 1.245 0 01-.544-.506c-.131-.224-.196-.506-.196-.845 0-.328.046-.643.14-.948.094-.306.233-.58.418-.82.187-.242.416-.432.687-.573.274-.14.59-.21.948-.21.44 0 .768.1.986.301.22.2.33.455.33.769 0 .206-.047.393-.141.561-.091.169-.23.314-.417.435-.187.12-.423.212-.706.278a4.62 4.62 0 01-.996.095h-.179l-.007.073v.07c0 .21.061.378.182.502.122.124.294.186.516.186.206 0 .393-.023.562-.07a3.9 3.9 0 00.596-.232v.797a3.14 3.14 0 01-.628.228 3.32 3.32 0 01-.74.074zm-.365-2.34h.158c.271 0 .491-.03.659-.089.171-.058.295-.135.372-.231.08-.096.12-.2.12-.312 0-.113-.033-.196-.099-.25-.063-.056-.153-.084-.27-.084a.716.716 0 00-.389.123 1.186 1.186 0 00-.341.34 1.445 1.445 0 00-.21.502zm2.663 2.27l.828-3.924h1.456l.151 2.737h.021l1.411-2.737h1.502l-.842 3.923h-.976l.432-1.94a13.704 13.704 0 01.235-.94h-.021l-1.488 2.88h-1.014l-.158-2.88h-.014c-.023.191-.05.366-.081.522a13.63 13.63 0 01-.091.46l-.379 1.899h-.972z" fill="#fff"/><path d="M147.333 311.773a2.246 2.246 0 012.085-1.411h67.026a2.246 2.246 0 012.086 3.079l-7.187 17.966a2.246 2.246 0 01-2.085 1.412h-67.026a2.246 2.246 0 01-2.085-3.08l7.186-17.966z" fill="url(#paint1_linear_1_3657)"/><path d="M160.669 324.425l1.085-5.13h1.494c.328 0 .613.039.857.116.243.075.431.196.565.365.135.166.203.386.203.659 0 .232-.044.438-.133.618a1.186 1.186 0 01-.379.446 1.639 1.639 0 01-.607.252v.028c.234.061.42.175.558.341.14.163.21.374.21.631 0 .389-.089.707-.267.955a1.554 1.554 0 01-.726.544 2.845 2.845 0 01-1.028.175h-1.832zm1.26-.898h.632c.175 0 .328-.029.459-.088a.679.679 0 00.306-.26.76.76 0 00.112-.421c0-.18-.054-.319-.162-.417-.105-.101-.265-.151-.48-.151h-.579l-.288 1.337zm.467-2.2h.523c.17 0 .319-.023.445-.067a.618.618 0 00.298-.214.632.632 0 00.106-.379c0-.159-.049-.278-.148-.358-.098-.082-.248-.123-.449-.123h-.533l-.242 1.141zm4.284 3.168c-.344 0-.616-.05-.817-.151a.925.925 0 01-.425-.41 1.308 1.308 0 01-.126-.579 3.69 3.69 0 01.08-.663l.474-2.19h1.056l-.344 1.593c.094-.021.2-.039.32-.053.121-.016.252-.024.393-.024.213 0 .401.043.565.13a.93.93 0 01.389.361c.096.155.144.338.144.551 0 .243-.058.475-.175.695-.117.22-.302.399-.555.537-.25.135-.576.203-.979.203zm.084-.737a.587.587 0 00.411-.158.494.494 0 00.116-.186.654.654 0 00.042-.238.496.496 0 00-.049-.232.305.305 0 00-.148-.14.562.562 0 00-.242-.046 2.124 2.124 0 00-.459.063c-.029.127-.047.22-.057.281a1.53 1.53 0 00-.014.225c0 .154.04.265.12.333a.423.423 0 00.28.098zm1.934.667l.835-3.923h1.056l-.835 3.923h-1.056zm3.849.07c-.351 0-.638-.068-.863-.203a1.255 1.255 0 01-.495-.555 1.916 1.916 0 01-.158-.793c0-.269.027-.517.081-.744a2.46 2.46 0 01.228-.614c.101-.18.22-.333.358-.459a1.512 1.512 0 011.028-.39.995.995 0 01.751.319c.091.096.167.204.228.323h.028c.005-.04.007-.082.007-.126v-.105c0-.471-.072-.814-.217-1.032-.145-.218-.382-.326-.709-.326a1.948 1.948 0 00-.712.144l-.222-.836c.153-.056.322-.098.509-.126.187-.03.384-.046.59-.046.43 0 .779.093 1.045.278.269.182.466.441.59.775.126.335.189.731.189 1.19a5.783 5.783 0 01-.221 1.582 3.422 3.422 0 01-.291.692 2.36 2.36 0 01-.431.554c-.167.157-.358.28-.576.368-.218.087-.463.13-.737.13zm.06-.859a.63.63 0 00.323-.085.834.834 0 00.252-.231c.075-.099.139-.213.193-.344.056-.131.103-.272.141-.421.039-.152.071-.308.094-.467a.862.862 0 00-.133-.274.58.58 0 00-.498-.263.673.673 0 00-.302.067.773.773 0 00-.246.193 1.163 1.163 0 00-.186.298 1.859 1.859 0 00-.112.397 2.69 2.69 0 00-.038.473c0 .206.044.368.133.485a.453.453 0 00.379.172zm4.172.859c-.344 0-.616-.05-.818-.151a.927.927 0 01-.424-.41 1.309 1.309 0 01-.127-.579 3.69 3.69 0 01.081-.663l.474-2.19h1.056l-.344 1.593c.094-.021.2-.039.32-.053.121-.016.252-.024.393-.024.212 0 .401.043.564.13a.932.932 0 01.39.361c.096.155.144.338.144.551 0 .243-.059.475-.176.695a1.32 1.32 0 01-.554.537c-.25.135-.577.203-.979.203zm.084-.737a.594.594 0 00.411-.158.494.494 0 00.116-.186.654.654 0 00.042-.238.496.496 0 00-.049-.232.305.305 0 00-.148-.14.562.562 0 00-.242-.046 2.139 2.139 0 00-.46.063c-.028.127-.046.22-.056.281a1.53 1.53 0 00-.014.225c0 .154.04.265.119.333.08.066.174.098.281.098zm1.934.667l.835-3.923h1.056l-.835 3.923h-1.056zm1.666 0l1.681-2.011-.789-1.912h1.126l.404 1.172.856-1.172h1.242l-1.639 1.969.856 1.954h-1.143l-.439-1.2-.926 1.2h-1.229zm5.594.07c-.19 0-.369-.047-.537-.14a1.044 1.044 0 01-.414-.453c-.105-.208-.158-.484-.158-.828a3.561 3.561 0 01.319-1.481 2.62 2.62 0 01.379-.6c.15-.175.318-.313.505-.414.19-.1.395-.151.615-.151.166 0 .311.025.435.074a.91.91 0 01.319.2 1.1 1.1 0 01.218.302h.028l.2-.502h.814l-.835 3.923h-.79l.049-.509h-.028a1.977 1.977 0 01-.305.302c-.11.087-.232.154-.365.204a1.293 1.293 0 01-.449.073zm.414-.852a.591.591 0 00.403-.169c.124-.115.231-.263.32-.446.089-.182.152-.375.189-.579a3.312 3.312 0 00.053-.589.625.625 0 00-.134-.411.428.428 0 00-.358-.164.491.491 0 00-.294.101 1.022 1.022 0 00-.253.274 2.04 2.04 0 00-.203.396c-.057.148-.1.305-.13.471a2.707 2.707 0 00-.046.498c0 .203.04.358.119.463.08.103.191.155.334.155zm4.302.852c-.307 0-.577-.055-.811-.165a1.246 1.246 0 01-.544-.505c-.131-.225-.196-.506-.196-.846 0-.327.047-.643.14-.947.094-.307.233-.58.418-.821.187-.241.416-.432.687-.572.274-.14.59-.211.948-.211.44 0 .768.101.986.302a.99.99 0 01.33.769c0 .205-.047.393-.141.561-.091.168-.23.313-.417.435a2.246 2.246 0 01-.705.277 4.641 4.641 0 01-.997.095h-.179l-.007.074v.07c0 .21.061.378.182.502.122.124.294.186.516.186.206 0 .393-.024.562-.07a3.9 3.9 0 00.596-.232v.796a3.084 3.084 0 01-.628.229c-.213.049-.46.073-.74.073zm-.365-2.34h.158c.271 0 .491-.029.659-.088a.789.789 0 00.372-.232c.08-.095.12-.2.12-.312 0-.112-.033-.195-.099-.249-.063-.056-.153-.084-.27-.084a.715.715 0 00-.389.123 1.173 1.173 0 00-.341.34 1.442 1.442 0 00-.21.502zm2.663 2.27l.828-3.923h1.456l.151 2.737h.021l1.411-2.737h1.502l-.842 3.923h-.976l.432-1.94c.04-.183.081-.358.123-.527.044-.168.082-.306.112-.414h-.021l-1.488 2.881h-1.014l-.158-2.881h-.014c-.023.192-.05.366-.081.523-.028.154-.058.308-.091.46l-.379 1.898h-.972z" fill="#fff"/><rect x=".577" y="23.382" width="89.38" height="23.127" rx="2.021" fill="#fff"/><path d="M17.034 37.516c-.28 0-.534-.023-.761-.067a2.072 2.072 0 01-.632-.225v-.95c.162.088.316.157.463.206.148.05.288.083.421.102.136.019.265.028.386.028.272 0 .508-.049.71-.147.2-.099.371-.245.512-.439a2.54 2.54 0 00.347-.72h-1.892l.186-.89h1.85a.575.575 0 00.007-.088v-.091a1.56 1.56 0 00-.102-.604.732.732 0 00-.302-.365.923.923 0 00-.502-.126c-.208 0-.395.024-.561.074a5.915 5.915 0 00-.569.2l-.28-.864a4.076 4.076 0 011.544-.316c.41 0 .752.079 1.028.236.276.154.484.38.625.677.14.295.21.651.21 1.07 0 .309-.033.62-.098.933a3.804 3.804 0 01-.298.892 2.9 2.9 0 01-.523.758c-.21.22-.463.394-.758.523-.293.128-.63.193-1.01.193zm3.05-.07l.838-3.924h1.06l-.39 1.825 1.544-1.825h1.207l-1.68 1.969.971 1.954h-1.186l-.898-1.912-.41 1.912h-1.056zm5.8.07a1.85 1.85 0 01-.74-.144 1.172 1.172 0 01-.527-.464c-.129-.212-.193-.49-.193-.835 0-.283.03-.554.088-.814.058-.26.145-.5.26-.72.114-.219.256-.41.424-.571a1.85 1.85 0 01.579-.383c.218-.09.46-.136.726-.136a2.47 2.47 0 011.15.253l-.322.803c-.126-.054-.25-.1-.372-.14a1.32 1.32 0 00-.413-.06.735.735 0 00-.446.144 1.222 1.222 0 00-.33.386 2.116 2.116 0 00-.204.544c-.046.198-.07.4-.07.607 0 .147.024.27.07.372.05.1.119.176.207.228.092.051.2.077.327.077.178 0 .343-.027.495-.08a4.68 4.68 0 00.47-.208v.863a2.407 2.407 0 01-1.18.278zm1.828-.07l.832-3.924h.807l-.074.727h.031c.101-.157.212-.295.334-.414.122-.12.256-.213.403-.281.15-.07.316-.105.499-.105.224 0 .411.046.561.14a.839.839 0 01.34.39c.075.168.113.368.113.6 0 .086-.007.183-.021.29a4.185 4.185 0 01-.06.341l-.467 2.235h-1.056l.48-2.291a1.918 1.918 0 00.057-.418c0-.147-.032-.256-.095-.326s-.158-.105-.284-.105a.58.58 0 00-.431.207 1.795 1.795 0 00-.337.547c-.094.23-.171.483-.232.762l-.344 1.624h-1.056zm3.976 1.726l1.2-5.65h.807l-.06.597h.032c.082-.112.176-.22.284-.323a1.33 1.33 0 01.368-.25c.138-.065.292-.097.46-.097.19 0 .368.046.537.14.168.093.305.246.41.456.106.208.158.487.158.835 0 .255-.028.51-.084.762-.054.25-.133.489-.238.715-.103.225-.23.425-.38.6-.147.174-.314.31-.501.411a1.3 1.3 0 01-.614.148.987.987 0 01-.404-.074.86.86 0 01-.28-.207 1.965 1.965 0 01-.208-.291h-.028a7.368 7.368 0 01-.15 1.035l-.253 1.193h-1.056zm2.2-2.51a.506.506 0 00.294-.097c.094-.068.18-.16.257-.274.077-.117.144-.25.2-.397a2.766 2.766 0 00.175-.972c0-.205-.038-.36-.116-.463-.075-.103-.19-.154-.344-.154a.57.57 0 00-.308.087.887.887 0 00-.242.236 1.68 1.68 0 00-.183.333 2.571 2.571 0 00-.126.379 2.863 2.863 0 00-.095.705c0 .185.043.335.13.45a.433.433 0 00.358.168zm4.186.854a1.88 1.88 0 01-.81-.165 1.247 1.247 0 01-.545-.506c-.13-.224-.196-.506-.196-.845 0-.328.047-.644.14-.948.094-.306.233-.58.418-.82a2.05 2.05 0 01.688-.573c.273-.14.59-.21.947-.21.44 0 .769.1.986.301.22.2.33.455.33.769 0 .206-.047.393-.14.561a1.21 1.21 0 01-.418.435c-.187.12-.422.212-.705.278a4.623 4.623 0 01-.997.094h-.179a2.707 2.707 0 01-.007.074v.07c0 .21.061.378.183.502.121.124.293.186.516.186.205 0 .393-.023.56-.07.17-.047.368-.124.597-.232v.797c-.205.1-.415.176-.628.228-.212.049-.46.074-.74.074zm-.365-2.341h.158c.271 0 .491-.03.66-.088a.795.795 0 00.372-.231.48.48 0 00.119-.313c0-.112-.033-.195-.098-.249a.393.393 0 00-.27-.084.72.72 0 00-.39.123 1.177 1.177 0 00-.34.34 1.443 1.443 0 00-.211.502zm4.281 2.34a1.85 1.85 0 01-.74-.143 1.172 1.172 0 01-.527-.464c-.128-.212-.193-.49-.193-.835 0-.283.03-.554.088-.814.058-.26.145-.5.26-.72.114-.219.256-.41.424-.571a1.85 1.85 0 01.58-.383c.217-.09.459-.136.726-.136.234 0 .443.022.628.066.187.045.361.107.523.186l-.323.804c-.127-.054-.25-.1-.372-.14-.122-.04-.26-.06-.414-.06a.735.735 0 00-.446.144 1.22 1.22 0 00-.33.386 2.116 2.116 0 00-.203.544c-.047.198-.07.4-.07.607a.88.88 0 00.07.372c.049.1.118.176.207.228.09.051.2.077.326.077.178 0 .343-.027.495-.08.152-.057.309-.126.47-.208v.863a2.407 2.407 0 01-1.179.278zm3.474 0a1.85 1.85 0 01-.74-.143 1.172 1.172 0 01-.527-.464c-.129-.212-.193-.49-.193-.835 0-.283.03-.554.088-.814.058-.26.145-.5.26-.72.114-.219.256-.41.424-.571a1.85 1.85 0 01.58-.383 1.86 1.86 0 01.725-.136 2.47 2.47 0 011.151.253l-.323.803c-.126-.054-.25-.1-.371-.14-.122-.04-.26-.06-.414-.06a.735.735 0 00-.446.144 1.222 1.222 0 00-.33.386 2.116 2.116 0 00-.203.544c-.047.198-.07.4-.07.607 0 .147.023.27.07.372.049.1.118.176.207.228.09.051.2.077.326.077.178 0 .343-.027.495-.08a4.44 4.44 0 00.47-.208v.863a2.407 2.407 0 01-1.18.278zm1.842-1.557l.186-.878h1.839l-.186.878h-1.839zm3.597 1.558c-.19 0-.369-.047-.537-.14a1.045 1.045 0 01-.414-.453c-.105-.209-.158-.485-.158-.829 0-.257.027-.512.08-.765.057-.252.136-.49.24-.715.105-.227.23-.427.378-.6.15-.176.318-.314.506-.415.189-.1.394-.15.614-.15.166 0 .31.024.435.073.124.047.23.114.319.2a1.1 1.1 0 01.218.302h.028l.2-.502h.814l-.835 3.923H52l.05-.508h-.029a1.96 1.96 0 01-.305.301c-.11.087-.232.155-.365.204a1.295 1.295 0 01-.45.074zm.414-.853a.59.59 0 00.403-.169c.124-.114.23-.263.32-.445.089-.183.152-.376.19-.58a3.172 3.172 0 00.053-.59.623.623 0 00-.135-.41.43.43 0 00-.358-.164.495.495 0 00-.294.102 1.028 1.028 0 00-.253.273 2.031 2.031 0 00-.203.397 2.753 2.753 0 00-.175.968c0 .204.039.358.118.463.08.103.191.155.334.155zm2.565.782l.839-3.923h1.066l-.326 1.51h1.224l.316-1.51h1.056l-.835 3.923h-1.056l.337-1.617H55.29l-.344 1.617h-1.063zm5.723.07c-.19 0-.368-.046-.537-.14a1.046 1.046 0 01-.414-.453c-.105-.208-.158-.484-.158-.828 0-.257.027-.512.08-.765.057-.252.136-.49.24-.715a2.62 2.62 0 01.378-.6 1.76 1.76 0 01.506-.415c.19-.1.394-.15.614-.15.166 0 .31.024.435.073.124.047.23.114.32.2.088.087.16.187.217.302h.028l.2-.502h.814l-.835 3.923h-.79l.05-.508h-.029a1.959 1.959 0 01-.305.301 1.33 1.33 0 01-.365.204 1.293 1.293 0 01-.449.074zm.414-.852a.59.59 0 00.404-.169c.124-.114.23-.263.319-.445.089-.183.152-.376.19-.58a3.206 3.206 0 00.053-.59.623.623 0 00-.134-.41.43.43 0 00-.358-.164.495.495 0 00-.295.102 1.03 1.03 0 00-.253.273 2.031 2.031 0 00-.203.397 2.761 2.761 0 00-.175.968c0 .204.04.358.119.463.08.103.19.155.333.155zm2.751.853c-.108 0-.201-.008-.28-.022a1.195 1.195 0 01-.243-.063v-.87c.05.021.097.036.144.046.047.007.097.01.151.01.091 0 .17-.033.239-.098a.92.92 0 00.182-.267 3.61 3.61 0 00.161-.393l.165-.47c.117-.33.232-.616.344-.86.115-.245.25-.448.404-.607.154-.159.347-.277.579-.354.234-.08.528-.12.884-.12.243 0 .473.022.688.064.215.042.39.089.526.14l-.796 3.793H64.86l.66-3.105a1.526 1.526 0 00-.221-.028.649.649 0 00-.463.165 1.41 1.41 0 00-.305.491 12.94 12.94 0 00-.295.803c-.08.242-.16.467-.242.678-.08.21-.172.396-.277.558-.103.159-.23.284-.383.375-.152.089-.34.134-.565.134zm5.492 0c-.225 0-.41-.046-.558-.137a.831.831 0 01-.33-.39 1.526 1.526 0 01-.109-.6 4.456 4.456 0 01.084-.747l.446-2.12h1.056l-.48 2.292c-.017.08-.031.154-.043.224a1.37 1.37 0 00-.014.193c0 .148.032.256.095.326s.158.106.284.106a.576.576 0 00.432-.204c.129-.138.24-.321.337-.55.096-.232.173-.486.231-.762l.344-1.625h1.056l-.831 3.923h-.807l.073-.726h-.038a2.54 2.54 0 01-.334.414c-.119.12-.252.213-.4.28a1.169 1.169 0 01-.494.103zm4.35 0a3.38 3.38 0 01-.743-.078 2.42 2.42 0 01-.562-.186v-.87c.16.08.347.151.562.214a2.533 2.533 0 001.161.05.722.722 0 00.33-.155.398.398 0 00.123-.309.347.347 0 00-.154-.305c-.103-.07-.258-.105-.464-.105h-.617l.158-.74h.438c.2 0 .365-.014.499-.04a.6.6 0 00.298-.136.358.358 0 00.102-.27c0-.11-.04-.195-.12-.253-.08-.061-.22-.091-.42-.091-.157 0-.334.025-.53.077a4.108 4.108 0 00-.576.2l-.253-.769c.23-.089.472-.161.727-.217a3.8 3.8 0 01.817-.084c.27 0 .51.032.723.098.213.065.38.17.502.312.124.14.186.328.186.562 0 .19-.041.347-.123.473a.921.921 0 01-.326.31c-.136.076-.29.138-.463.185v.028c.194.054.353.144.477.27.126.127.19.3.19.523 0 .26-.07.488-.208.684-.138.197-.35.35-.635.46-.285.108-.651.162-1.098.162z" fill="#E64B13"/><rect x=".577" y="23.382" width="89.38" height="23.127" rx="2.021" stroke="url(#paint2_linear_1_3657)" stroke-width=".449"/><rect x=".577" y="132.974" width="89.38" height="23.127" rx="2.021" fill="#fff"/><path d="M33.126 147.038l2.688-5.13h1.309l.516 5.13h-1.042l-.084-1.221h-1.66l-.604 1.221h-1.123zm2.165-2.134h1.169l-.091-1.322-.029-.425a4.556 4.556 0 01-.007-.439h-.017a4.341 4.341 0 01-.154.386c-.059.129-.124.266-.197.411l-.674 1.389zm2.8 3.86a1.843 1.843 0 01-.515-.066v-.843c.06.012.124.023.19.032.062.009.135.014.217.014a.79.79 0 00.55-.196c.146-.129.272-.294.38-.495l.09-.172-.575-3.923h1.036l.196 1.817a9.42 9.42 0 01.039.709l.003.32h.028a3.77 3.77 0 00.098-.267 5.92 5.92 0 01.284-.691l.913-1.888h1.147l-2.386 4.484c-.14.265-.298.483-.473.656a1.682 1.682 0 01-1.221.509zm5.545-1.656c-.351 0-.639-.068-.864-.203a1.25 1.25 0 01-.494-.555 1.911 1.911 0 01-.158-.793c0-.269.027-.517.08-.744.054-.229.13-.434.229-.614.1-.18.22-.333.357-.46a1.512 1.512 0 011.028-.389.994.994 0 01.752.319c.09.096.167.204.228.323h.028a1.08 1.08 0 00.007-.126v-.106c0-.47-.073-.814-.218-1.031-.145-.218-.381-.327-.709-.327-.11 0-.23.013-.361.039a1.871 1.871 0 00-.351.105l-.221-.835c.152-.056.322-.098.509-.126a3.6 3.6 0 01.59-.046c.43 0 .778.093 1.045.277.269.183.465.441.59.776.126.334.189.731.189 1.19 0 .271-.019.541-.056.81-.035.267-.09.524-.165.772a3.448 3.448 0 01-.291.691c-.12.211-.264.396-.432.555a1.863 1.863 0 01-.575.368 1.97 1.97 0 01-.737.13zm.06-.86a.626.626 0 00.322-.084.842.842 0 00.253-.231c.075-.099.139-.213.193-.344a2.77 2.77 0 00.14-.421c.04-.152.072-.308.095-.467a.882.882 0 00-.133-.274.615.615 0 00-.211-.193.568.568 0 00-.288-.07c-.11 0-.21.022-.301.067a.75.75 0 00-.246.193 1.134 1.134 0 00-.186.298c-.05.117-.087.249-.112.396a2.72 2.72 0 00-.039.474c0 .206.044.367.133.484a.45.45 0 00.38.172zm3.817.86c-.224 0-.41-.046-.558-.137a.831.831 0 01-.33-.389 1.528 1.528 0 01-.108-.6c0-.087.006-.198.02-.334a4.52 4.52 0 01.064-.414l.445-2.119h1.057l-.481 2.291c-.017.08-.03.155-.042.225a1.47 1.47 0 00-.014.193c0 .147.031.256.094.326.064.07.158.105.285.105a.574.574 0 00.431-.203 1.85 1.85 0 00.337-.551c.096-.232.173-.485.232-.762l.344-1.624h1.056l-.832 3.923h-.807l.074-.727h-.039c-.1.155-.212.293-.333.415-.12.119-.253.212-.4.28a1.167 1.167 0 01-.495.102zm3.088-.07l.832-3.923h.807l-.074.726h.032c.1-.157.211-.295.333-.414.122-.119.256-.213.403-.281.15-.07.316-.105.499-.105.269 0 .477.071.624.214.15.141.248.336.295.586h.028c.098-.157.21-.295.334-.414.123-.119.261-.213.413-.281.155-.07.322-.105.502-.105.328 0 .572.102.734.305.163.204.245.479.245.825 0 .087-.007.184-.02.291a4.267 4.267 0 01-.06.341l-.467 2.235h-1.056l.484-2.292c.019-.079.033-.154.042-.224.01-.07.014-.135.014-.193 0-.147-.03-.256-.088-.326-.056-.071-.141-.106-.256-.106a.55.55 0 00-.337.116 1.134 1.134 0 00-.28.323 2.612 2.612 0 00-.225.481 4.488 4.488 0 00-.158.589l-.337 1.632h-1.056l.48-2.292a1.904 1.904 0 00.057-.417c0-.147-.03-.256-.088-.326-.056-.071-.141-.106-.256-.106a.53.53 0 00-.333.12 1.164 1.164 0 00-.281.329 2.643 2.643 0 00-.224.481 4.994 4.994 0 00-.162.586l-.344 1.625h-1.056z" fill="#E64B13"/><rect x=".577" y="132.974" width="89.38" height="23.127" rx="2.021" stroke="url(#paint3_linear_1_3657)" stroke-width=".449"/><rect x=".577" y="242.943" width="89.38" height="23.127" rx="2.021" fill="#fff"/><path d="M15.28 257.007l1.084-5.13h1.495c.327 0 .613.038.856.116.243.074.432.196.565.364.136.167.203.386.203.66 0 .232-.044.438-.133.618a1.171 1.171 0 01-.379.445 1.636 1.636 0 01-.607.253v.028c.234.061.42.174.558.34.14.164.21.375.21.632 0 .388-.088.707-.266.954-.178.246-.42.427-.726.544a2.845 2.845 0 01-1.029.176H15.28zm1.26-.898h.631c.175 0 .329-.03.46-.088a.68.68 0 00.305-.26.753.753 0 00.112-.421c0-.18-.053-.319-.161-.417-.105-.101-.266-.151-.48-.151h-.58l-.288 1.337zm.466-2.201h.523c.17 0 .32-.022.446-.066a.62.62 0 00.298-.214.64.64 0 00.105-.379c0-.159-.049-.279-.147-.358-.099-.082-.248-.123-.45-.123h-.533l-.242 1.14zm4.362 3.169a1.64 1.64 0 01-.783-.182 1.332 1.332 0 01-.53-.52 1.634 1.634 0 01-.19-.807c0-.278.028-.544.082-.796.056-.255.139-.489.249-.702.112-.215.251-.401.417-.558a1.8 1.8 0 01.586-.369 2.03 2.03 0 01.751-.133 1.6 1.6 0 01.79.186c.222.122.394.298.516.53.121.232.182.511.182.839 0 .266-.027.524-.08.772a2.784 2.784 0 01-.24.687 2.092 2.092 0 01-.406.555 1.792 1.792 0 01-.583.368c-.222.087-.476.13-.761.13zm.088-.86a.605.605 0 00.319-.087.917.917 0 00.256-.25 1.53 1.53 0 00.186-.368 2.87 2.87 0 00.158-.947c0-.134-.017-.252-.05-.355a.462.462 0 00-.157-.245.444.444 0 00-.295-.092.593.593 0 00-.347.109.967.967 0 00-.264.284 1.87 1.87 0 00-.186.4c-.049.148-.086.3-.112.457a2.96 2.96 0 00-.035.445c0 .213.043.374.13.484.086.11.219.165.396.165zm4.073.86c-.271 0-.518-.048-.74-.144a1.168 1.168 0 01-.526-.463c-.129-.213-.193-.491-.193-.835 0-.283.029-.555.087-.814.059-.26.145-.5.26-.72.115-.219.256-.41.425-.572.168-.163.361-.291.579-.382.217-.091.46-.137.726-.137.234 0 .443.022.628.067.187.044.362.106.523.186l-.323.803c-.126-.053-.25-.1-.372-.14-.122-.04-.26-.06-.414-.06a.735.735 0 00-.446.144 1.228 1.228 0 00-.33.386 2.126 2.126 0 00-.203.544 2.64 2.64 0 00-.07.607c0 .147.023.271.07.372.05.101.118.177.207.228.091.052.2.077.326.077.178 0 .343-.027.495-.08a4.84 4.84 0 00.47-.207v.863c-.163.086-.34.154-.53.203a2.6 2.6 0 01-.649.074zm3.474 0c-.271 0-.518-.048-.74-.144a1.168 1.168 0 01-.527-.463c-.128-.213-.192-.491-.192-.835 0-.283.029-.555.087-.814.059-.26.145-.5.26-.72.115-.219.256-.41.425-.572.168-.163.36-.291.579-.382.217-.091.46-.137.726-.137.234 0 .443.022.628.067.187.044.361.106.523.186l-.323.803c-.126-.053-.25-.1-.372-.14-.122-.04-.26-.06-.414-.06a.735.735 0 00-.446.144 1.226 1.226 0 00-.33.386 2.126 2.126 0 00-.203.544 2.63 2.63 0 00-.07.607c0 .147.023.271.07.372.05.101.118.177.207.228.091.052.2.077.326.077.178 0 .343-.027.495-.08a4.84 4.84 0 00.47-.207v.863c-.163.086-.34.154-.53.203a2.6 2.6 0 01-.649.074zm1.828-.07l.832-3.923h.807l-.074.726h.032c.1-.157.212-.295.333-.414.122-.119.256-.213.404-.281.15-.07.316-.105.498-.105.27 0 .477.071.625.214.15.141.248.336.295.586h.028c.098-.157.209-.295.333-.414a1.45 1.45 0 01.414-.281 1.2 1.2 0 01.502-.105c.327 0 .572.102.733.305.164.204.246.479.246.825 0 .087-.007.184-.021.291a4.22 4.22 0 01-.06.341l-.467 2.235h-1.056l.484-2.292a1.89 1.89 0 00.057-.417c0-.147-.03-.256-.088-.326-.056-.071-.142-.106-.256-.106a.551.551 0 00-.337.116 1.134 1.134 0 00-.28.323 2.53 2.53 0 00-.225.481 4.504 4.504 0 00-.158.589l-.337 1.632h-1.056l.48-2.292c.019-.079.033-.154.042-.224.01-.07.014-.135.014-.193 0-.147-.029-.256-.087-.326-.056-.071-.142-.106-.256-.106-.12 0-.23.04-.334.12a1.164 1.164 0 00-.28.329c-.085.138-.16.299-.225.481a5.014 5.014 0 00-.162.586l-.343 1.625H30.83zm7.8.07c-.189 0-.368-.047-.536-.14a1.052 1.052 0 01-.414-.453c-.105-.208-.158-.484-.158-.828 0-.257.027-.512.08-.765.057-.253.136-.491.24-.716.105-.227.23-.427.378-.6a1.78 1.78 0 01.506-.414c.19-.101.394-.151.614-.151.166 0 .31.025.435.074a.91.91 0 01.32.2c.088.086.16.187.217.302h.028l.2-.502h.814l-.835 3.923h-.79l.05-.509h-.029a1.96 1.96 0 01-.305.302 1.294 1.294 0 01-.814.277zm.415-.853c.145 0 .28-.056.404-.168a1.5 1.5 0 00.319-.446c.089-.182.152-.375.19-.579a3.212 3.212 0 00.053-.589.625.625 0 00-.134-.411.43.43 0 00-.358-.165.494.494 0 00-.295.102 1.037 1.037 0 00-.253.274 2.028 2.028 0 00-.203.396 2.778 2.778 0 00-.175.969c0 .203.039.358.119.463.08.103.19.154.333.154zm2.565.783l.839-3.923h1.066l-.326 1.509h1.225l.316-1.509h1.056l-.835 3.923h-1.057l.337-1.618h-1.214l-.344 1.618h-1.063zm6.116.07c-.295 0-.555-.061-.782-.182a1.331 1.331 0 01-.53-.52 1.633 1.633 0 01-.19-.807c0-.278.027-.544.081-.796a2.86 2.86 0 01.25-.702c.111-.215.25-.401.417-.558a1.8 1.8 0 01.586-.369 2.02 2.02 0 01.75-.133c.305 0 .568.062.79.186.222.122.394.298.516.53.122.232.182.511.182.839 0 .266-.026.524-.08.772a2.788 2.788 0 01-.239.687 2.092 2.092 0 01-.407.555 1.793 1.793 0 01-.582.368 2.08 2.08 0 01-.762.13zm.088-.86a.605.605 0 00.32-.087.917.917 0 00.255-.25 1.53 1.53 0 00.186-.368c.052-.14.09-.291.116-.453a2.87 2.87 0 00.042-.494c0-.134-.016-.252-.049-.355a.462.462 0 00-.158-.245.444.444 0 00-.295-.092.593.593 0 00-.347.109.965.965 0 00-.263.284 1.87 1.87 0 00-.186.4c-.05.148-.087.3-.112.457a2.96 2.96 0 00-.035.445c0 .213.043.374.13.484.086.11.218.165.396.165zm4.288.86c-.356 0-.659-.062-.909-.186a1.293 1.293 0 01-.572-.54c-.129-.237-.193-.523-.193-.86 0-.262.03-.515.088-.758.06-.246.15-.473.266-.681a2.08 2.08 0 01.44-.544 1.92 1.92 0 01.61-.365c.231-.088.49-.133.775-.133.28 0 .526.042.737.126.213.082.379.202.498.358.12.157.18.348.18.572a.942.942 0 01-.113.485.789.789 0 01-.302.294c-.126.07-.271.125-.435.165v.028a.96.96 0 01.442.253c.124.124.186.301.186.53 0 .22-.06.426-.182.617-.12.19-.304.344-.555.464-.25.117-.57.175-.961.175zm.014-.737a.73.73 0 00.337-.07.49.49 0 00.21-.19.53.53 0 00.074-.28.423.423 0 00-.074-.256.43.43 0 00-.235-.151 1.405 1.405 0 00-.424-.053h-.513l-.007.112v.109c0 .281.061.481.183.6a.618.618 0 00.449.179zm-.48-1.726h.704c.136 0 .25-.018.344-.053a.447.447 0 00.218-.165.453.453 0 00.077-.27.313.313 0 00-.116-.26.462.462 0 00-.301-.094.743.743 0 00-.383.105 1.09 1.09 0 00-.316.295 1.771 1.771 0 00-.228.442zm2.912 2.463c-.108 0-.202-.007-.281-.021a1.243 1.243 0 01-.242-.063v-.87a.7.7 0 00.144.045c.046.007.097.011.15.011a.335.335 0 00.24-.099.912.912 0 00.182-.266 3.66 3.66 0 00.161-.393l.165-.47c.117-.33.232-.617.344-.86.114-.246.249-.448.403-.607a1.43 1.43 0 01.58-.355c.233-.079.528-.119.883-.119a3.588 3.588 0 011.215.204l-.797 3.793H56.64l.66-3.106a1.734 1.734 0 00-.221-.028.649.649 0 00-.464.165 1.43 1.43 0 00-.305.492c-.089.215-.187.483-.295.803-.08.241-.16.467-.242.677-.08.211-.172.397-.277.558a1.18 1.18 0 01-.383.376 1.1 1.1 0 01-.564.133zm5.972 0c-.307 0-.577-.055-.81-.165a1.248 1.248 0 01-.545-.505c-.13-.225-.196-.507-.196-.846 0-.327.047-.643.14-.947.094-.307.233-.58.418-.821.187-.241.416-.432.688-.572a2.04 2.04 0 01.947-.211c.44 0 .768.101.986.302.22.199.33.455.33.768a1.14 1.14 0 01-.558.997 2.248 2.248 0 01-.705.277 4.629 4.629 0 01-.997.095h-.179a3.248 3.248 0 01-.007.074v.07c0 .21.06.378.182.502.122.123.294.185.516.185.206 0 .393-.023.562-.07.168-.046.367-.124.596-.231v.796a3.02 3.02 0 01-.628.228c-.213.049-.46.074-.74.074zm-.365-2.34h.158c.271 0 .491-.03.66-.088.17-.059.294-.136.371-.232a.48.48 0 00.12-.312c0-.112-.033-.195-.099-.249a.394.394 0 00-.27-.084.726.726 0 00-.39.122 1.183 1.183 0 00-.34.341 1.44 1.44 0 00-.21.502zm2.635 2.27l.839-3.923h1.066l-.326 1.509h1.225l.316-1.509h1.056l-.835 3.923h-1.056l.336-1.618h-1.214l-.344 1.618h-1.063zm5.685.07c-.225 0-.41-.046-.558-.137a.831.831 0 01-.33-.389 1.528 1.528 0 01-.109-.6 4.52 4.52 0 01.084-.748l.446-2.119h1.056l-.48 2.291c-.017.08-.031.155-.043.225a1.47 1.47 0 00-.014.193c0 .147.032.256.095.326s.158.105.284.105a.578.578 0 00.432-.203 1.85 1.85 0 00.337-.551c.096-.232.173-.486.231-.762l.344-1.624h1.056l-.831 3.923h-.807l.073-.727h-.038c-.1.155-.212.293-.334.415a1.371 1.371 0 01-.4.28 1.167 1.167 0 01-.494.102zm4.825 0c-.307 0-.577-.055-.811-.165a1.248 1.248 0 01-.544-.505c-.131-.225-.197-.507-.197-.846 0-.327.047-.643.14-.947a2.59 2.59 0 01.419-.821c.187-.241.416-.432.687-.572a2.04 2.04 0 01.948-.211c.44 0 .768.101.986.302.22.199.33.455.33.768 0 .206-.047.393-.14.562a1.226 1.226 0 01-.418.435 2.25 2.25 0 01-.706.277 4.63 4.63 0 01-.996.095h-.18a3.203 3.203 0 01-.006.074v.07c0 .21.06.378.182.502.122.123.294.185.516.185.206 0 .393-.023.562-.07.168-.046.367-.124.596-.231v.796a3.022 3.022 0 01-.628.228c-.213.049-.46.074-.74.074zm-.365-2.34h.157c.272 0 .492-.03.66-.088.17-.059.295-.136.372-.232a.48.48 0 00.12-.312c0-.112-.033-.195-.099-.249a.394.394 0 00-.27-.084.725.725 0 00-.39.122 1.183 1.183 0 00-.34.341 1.439 1.439 0 00-.21.502z" fill="#E64B13"/><rect x=".577" y="242.943" width="89.38" height="23.127" rx="2.021" stroke="url(#paint4_linear_1_3657)" stroke-width=".449"/><rect x=".577" y="293.705" width="89.38" height="23.127" rx="2.021" fill="#fff"/><path d="M21.922 307.839c-.416 0-.766-.081-1.049-.242a1.582 1.582 0 01-.639-.681 2.313 2.313 0 01-.217-1.032 4.304 4.304 0 01.288-1.572 3.43 3.43 0 01.368-.691c.15-.213.325-.399.526-.558.201-.159.43-.283.685-.372.255-.089.538-.133.849-.133.622 0 1.09.175 1.403.526.316.349.474.813.474 1.393 0 .279-.023.555-.07.828a3.961 3.961 0 01-.21.786 3.146 3.146 0 01-.362.695 2.567 2.567 0 01-.516.554c-.199.157-.426.28-.68.369-.253.086-.536.13-.85.13zm.077-.913c.14 0 .275-.025.404-.077.129-.051.249-.125.361-.221a1.69 1.69 0 00.306-.358 2.34 2.34 0 00.238-.481 3.21 3.21 0 00.151-.593 4.03 4.03 0 00.056-.691c0-.316-.073-.568-.22-.758-.146-.189-.362-.284-.65-.284-.147 0-.289.029-.425.088a1.294 1.294 0 00-.371.249 1.958 1.958 0 00-.306.382c-.091.148-.17.312-.235.492-.065.18-.116.372-.15.575-.034.204-.05.415-.05.635 0 .227.035.419.105.576.07.154.172.271.306.351a.946.946 0 00.48.115zm2.965.843l.832-3.923h.807l-.074.726h.032c.1-.157.212-.295.333-.414.122-.119.257-.213.404-.281.15-.07.316-.105.498-.105.225 0 .412.047.562.14a.837.837 0 01.34.39c.075.168.112.368.112.6 0 .086-.007.183-.02.291a4.125 4.125 0 01-.06.34l-.467 2.236h-1.056l.48-2.292c.02-.079.033-.154.043-.224a1.55 1.55 0 00.014-.193c0-.148-.032-.257-.095-.327s-.158-.105-.284-.105a.58.58 0 00-.432.207 1.799 1.799 0 00-.337.547c-.093.23-.17.484-.232.762l-.343 1.625h-1.057zm4.345 0l.831-3.923h.807l-.073.726h.031c.1-.157.212-.295.333-.414.122-.119.257-.213.404-.281.15-.07.316-.105.498-.105.27 0 .477.071.625.214.15.14.248.336.295.586h.028a2.18 2.18 0 01.333-.414 1.45 1.45 0 01.414-.281 1.2 1.2 0 01.502-.105c.327 0 .572.102.733.305.164.204.246.479.246.825 0 .086-.007.183-.021.291a4.125 4.125 0 01-.06.34l-.466 2.236h-1.057l.484-2.292c.02-.079.033-.154.043-.224a1.55 1.55 0 00.014-.193c0-.148-.03-.257-.088-.327-.056-.07-.142-.105-.256-.105a.551.551 0 00-.337.116 1.134 1.134 0 00-.28.323c-.085.138-.16.298-.225.48a4.535 4.535 0 00-.158.59l-.337 1.632h-1.056l.48-2.292c.02-.079.033-.154.043-.224a1.55 1.55 0 00.014-.193c0-.148-.03-.257-.088-.327-.056-.07-.142-.105-.256-.105a.54.54 0 00-.334.119c-.103.08-.196.19-.28.33a2.53 2.53 0 00-.225.481 4.96 4.96 0 00-.161.586l-.344 1.625h-1.056zm7.761.07c-.224 0-.41-.046-.557-.137a.829.829 0 01-.33-.39 1.521 1.521 0 01-.11-.6 4.386 4.386 0 01.084-.747l.447-2.119h1.056l-.48 2.291a5.391 5.391 0 00-.043.224 1.38 1.38 0 00-.014.193c0 .148.032.257.095.327s.158.105.284.105a.578.578 0 00.432-.203 1.85 1.85 0 00.337-.551 4.35 4.35 0 00.231-.762l.344-1.624h1.056l-.831 3.923h-.808l.074-.727h-.039c-.1.155-.211.293-.333.414-.12.12-.253.213-.4.281a1.167 1.167 0 01-.495.102zm3.116-.07l.828-3.923h1.457l.15 2.737h.022l1.41-2.737h1.502l-.842 3.923h-.976l.432-1.941a15.918 15.918 0 01.235-.94h-.02l-1.489 2.881h-1.014l-.158-2.881h-.014c-.023.192-.05.366-.08.523a16.93 16.93 0 01-.092.459l-.379 1.899h-.972zm6.78.07c-.225 0-.41-.046-.558-.137a.829.829 0 01-.33-.39 1.521 1.521 0 01-.109-.6 4.418 4.418 0 01.084-.747l.446-2.119h1.056l-.48 2.291a5.86 5.86 0 00-.043.224 1.55 1.55 0 00-.014.193c0 .148.032.257.095.327s.158.105.284.105a.578.578 0 00.432-.203 1.85 1.85 0 00.337-.551 4.34 4.34 0 00.231-.762l.344-1.624h1.056l-.831 3.923h-.807l.073-.727h-.038c-.1.155-.212.293-.334.414-.119.12-.252.213-.4.281a1.167 1.167 0 01-.494.102zm4.35 0c-.264 0-.512-.026-.743-.077a2.468 2.468 0 01-.562-.186v-.871c.16.08.347.151.562.214a2.506 2.506 0 001.161.05.724.724 0 00.33-.155.398.398 0 00.123-.309.346.346 0 00-.154-.305c-.103-.07-.258-.105-.464-.105h-.617l.158-.741h.438c.2 0 .365-.012.499-.038a.602.602 0 00.298-.137.36.36 0 00.102-.27c0-.11-.04-.194-.12-.253-.08-.061-.22-.091-.42-.091a2.13 2.13 0 00-.53.077 4.146 4.146 0 00-.576.2l-.253-.768c.23-.089.472-.162.727-.218.255-.056.527-.084.817-.084.27 0 .51.033.723.098.213.066.38.17.502.312.124.141.186.328.186.562a.858.858 0 01-.123.474.917.917 0 01-.326.308c-.136.078-.29.14-.463.186v.028c.194.054.353.144.477.271.126.126.19.3.19.522 0 .26-.07.488-.208.685-.138.196-.35.349-.635.459-.285.108-.651.162-1.098.162zm3.801 0c-.19 0-.368-.047-.537-.141a1.042 1.042 0 01-.414-.452c-.105-.208-.158-.485-.158-.828a3.554 3.554 0 01.32-1.481c.105-.227.231-.427.378-.6.15-.176.319-.314.506-.414.19-.101.394-.151.614-.151.166 0 .311.024.435.074.124.046.23.113.32.2.088.086.16.187.217.301h.028l.2-.501h.814l-.835 3.923h-.79l.05-.509h-.029a2.01 2.01 0 01-.305.302 1.295 1.295 0 01-.814.277zm.414-.853c.145 0 .28-.056.404-.168.124-.115.23-.264.319-.446s.152-.375.19-.579a3.18 3.18 0 00.053-.59.622.622 0 00-.134-.41.43.43 0 00-.358-.165.494.494 0 00-.295.102 1.032 1.032 0 00-.253.273 2.032 2.032 0 00-.203.397 2.76 2.76 0 00-.175.968c0 .204.04.358.119.464.08.103.19.154.333.154zm5.137 2.19l.337-1.407a.697.697 0 01-.347-.372 2.127 2.127 0 01-.084-.26h-.029a2.229 2.229 0 01-.326.368c-.12.106-.251.188-.397.246a1.233 1.233 0 01-.47.088c-.224 0-.411-.046-.561-.137a.863.863 0 01-.34-.39 1.48 1.48 0 01-.113-.6c0-.086.01-.197.028-.333a9.53 9.53 0 01.074-.414l.446-2.119h1.056l-.48 2.291a5.391 5.391 0 00-.043.224 1.38 1.38 0 00-.014.193c0 .148.032.257.095.327s.158.105.284.105a.578.578 0 00.431-.203c.13-.138.241-.322.337-.551.096-.232.173-.486.232-.762l.344-1.624h1.056l-.568 2.68a2.146 2.146 0 00-.018.099 1.09 1.09 0 00-.003.087c0 .08.02.138.06.176a.23.23 0 00.157.052c.056 0 .11-.004.162-.014.051-.009.103-.021.154-.035l-.48 2.285h-.98zm3.14-1.337c-.224 0-.41-.046-.557-.137a.828.828 0 01-.33-.39 1.52 1.52 0 01-.109-.6 4.419 4.419 0 01.084-.747l.446-2.119h1.056l-.48 2.291c-.017.079-.03.154-.043.224a1.55 1.55 0 00-.014.193c0 .148.032.257.095.327s.158.105.284.105a.578.578 0 00.432-.203c.129-.138.24-.322.337-.551.096-.232.173-.486.231-.762l.344-1.624h1.056l-.831 3.923h-.807l.074-.727h-.04a2.5 2.5 0 01-.332.414c-.12.12-.253.213-.4.281a1.167 1.167 0 01-.495.102zm3.419 0c-.101 0-.197-.007-.288-.021a1.108 1.108 0 01-.242-.063v-.871c.035.014.076.027.122.039a.591.591 0 00.148.017.387.387 0 00.172-.035.442.442 0 00.13-.101.923.923 0 00.101-.141 3.93 3.93 0 01.221-.333.985.985 0 01.204-.207.758.758 0 01.242-.123 1.117 1.117 0 01-.284-.172.757.757 0 01-.197-.267.96.96 0 01-.07-.386c0-.234.045-.435.133-.603a1.14 1.14 0 01.365-.411 1.67 1.67 0 01.54-.238c.207-.052.425-.077.657-.077h1.639l-.825 3.923h-1.06l.32-1.46h-.218a.453.453 0 00-.358.147c-.086.096-.165.22-.235.372-.068.15-.152.305-.253.467-.065.1-.141.192-.228.274a1.009 1.009 0 01-.736.27zm1.852-2.25h.327l.207-.989h-.446a.689.689 0 00-.309.067.503.503 0 00-.217.189.564.564 0 00-.078.305c0 .129.041.233.123.313.084.077.215.115.393.115z" fill="#E64B13"/><rect x=".577" y="293.705" width="89.38" height="23.127" rx="2.021" stroke="url(#paint5_linear_1_3657)" stroke-width=".449"/><path d="M252.98 69.8c-1.397-.767-1.397-2.775 0-3.543l49.853-27.392a2.022 2.022 0 011.947 0l49.853 27.392c1.398.768 1.398 2.775 0 3.543L304.78 97.193a2.022 2.022 0 01-1.947 0L252.98 69.8z" fill="#fff" stroke="url(#paint6_linear_1_3657)" stroke-width=".449"/><path d="M270.113 63.455h1.271c.561 0 .982.084 1.265.252.282.168.424.453.424.857 0 .174-.034.33-.102.47a.869.869 0 01-.288.34c-.127.09-.284.153-.47.188v.03c.196.03.37.087.522.17a.89.89 0 01.356.343c.086.147.129.335.129.562 0 .276-.064.51-.193.7-.127.19-.307.334-.541.433a2.164 2.164 0 01-.829.144h-1.544v-4.489zm.522 1.925h.859c.391 0 .662-.064.811-.193.152-.129.227-.317.227-.565 0-.256-.09-.44-.27-.553-.178-.112-.463-.169-.853-.169h-.774v1.48zm0 .44v1.679h.933c.399 0 .682-.078.848-.233.165-.158.248-.37.248-.636a.81.81 0 00-.113-.436.693.693 0 00-.363-.276c-.165-.066-.387-.099-.666-.099h-.887zm3.466 2.124V64.58h.513v1.388h.921c.287 0 .522.036.706.107a.82.82 0 01.415.32c.09.14.135.316.135.525 0 .208-.045.39-.135.543a.86.86 0 01-.418.356c-.188.084-.434.126-.737.126h-1.4zm.513-.414h.838c.254 0 .457-.045.608-.136.152-.09.227-.24.227-.45 0-.208-.07-.35-.212-.43-.141-.083-.343-.123-.607-.123h-.854v1.139zm2.733.414V64.58h.509v3.365h-.509zm1.75 0h-.596l.97-1.418a1.269 1.269 0 01-.393-.157.876.876 0 01-.295-.31.992.992 0 01-.11-.488c0-.324.107-.57.322-.737.217-.17.503-.255.857-.255h1.489v3.365h-.51v-1.35h-.853l-.881 1.35zm.07-2.37c0 .2.072.35.215.448.143.096.348.144.614.144h.835v-1.16h-.924c-.262 0-.451.053-.568.16a.529.529 0 00-.172.408zm5.923-.15c0 .21-.061.375-.184.494a.965.965 0 01-.476.236v.025c.211.028.392.104.543.227.154.12.231.306.231.556a.934.934 0 01-.139.51.912.912 0 01-.432.346c-.197.084-.453.126-.768.126h-1.449V64.58h1.437c.241 0 .454.028.638.083a.88.88 0 01.439.264c.107.123.16.289.16.497zm-.418 1.538c0-.199-.075-.342-.227-.43-.149-.088-.367-.132-.654-.132h-.863v1.13h.876c.282 0 .497-.043.644-.13.15-.087.224-.234.224-.438zm-.101-1.48c0-.16-.058-.279-.175-.356-.117-.08-.308-.12-.574-.12h-.894v.967h.805c.276 0 .485-.04.626-.12a.398.398 0 00.212-.371zm3.979 2.462h-.519v-2.938h-1.022c-.041.53-.093.984-.157 1.363a4.59 4.59 0 01-.233.924c-.092.238-.205.413-.338.525a.703.703 0 01-.469.166 1.11 1.11 0 01-.157-.01.497.497 0 01-.126-.03v-.387a.532.532 0 00.178.025.35.35 0 00.252-.114 1.03 1.03 0 00.209-.35c.063-.155.119-.352.169-.59a9.79 9.79 0 00.129-.844c.038-.325.072-.694.101-1.105h1.983v3.365zm2.371-3.426c.286 0 .532.063.736.19.205.127.362.305.47.534.109.227.163.493.163.798v.317h-2.324c.006.395.104.696.294.902.191.207.459.31.805.31a2.46 2.46 0 001.075-.23v.448a2.48 2.48 0 01-.507.166 2.906 2.906 0 01-.59.052c-.323 0-.605-.065-.847-.196a1.372 1.372 0 01-.559-.583c-.133-.256-.199-.57-.199-.94 0-.362.06-.675.181-.94a1.42 1.42 0 01.516-.614c.223-.143.485-.214.786-.214zm-.007.417c-.272 0-.489.09-.65.267-.162.178-.258.427-.289.746h1.781a1.446 1.446 0 00-.095-.528.745.745 0 00-.274-.356.806.806 0 00-.473-.129zm2.755-.356v1.412h1.876V64.58h.509v3.365h-.509v-1.52h-1.876v1.52h-.513V64.58h.513zm3.466 3.365V64.58h.513v1.388h.921c.286 0 .522.036.706.107a.828.828 0 01.415.32c.09.14.135.316.135.525 0 .208-.045.39-.135.543a.869.869 0 01-.418.356c-.188.084-.434.126-.737.126h-1.4zm.513-.414h.838c.254 0 .456-.045.608-.136.151-.09.227-.24.227-.45 0-.208-.071-.35-.212-.43-.141-.083-.344-.123-.608-.123h-.853v1.139zm2.732.414V64.58h.51v3.365h-.51zm6.04-3.365v3.365h-.513v-2.926h-1.793v2.926h-.513V64.58h2.819zm2.376-.061c.287 0 .532.063.737.19.205.127.361.305.47.534.108.227.163.493.163.798v.317h-2.325c.006.395.105.696.295.902.19.207.459.31.804.31a2.453 2.453 0 001.075-.23v.448a2.48 2.48 0 01-.507.166 2.895 2.895 0 01-.589.052c-.323 0-.606-.065-.847-.196a1.372 1.372 0 01-.559-.583c-.133-.256-.2-.57-.2-.94 0-.362.061-.675.181-.94a1.42 1.42 0 01.516-.614c.223-.143.485-.214.786-.214zm-.006.417c-.272 0-.489.09-.651.267-.162.178-.258.427-.289.746h1.781a1.425 1.425 0 00-.095-.528.737.737 0 00-.273-.356.808.808 0 00-.473-.129zm3.823-.417c.419 0 .754.144 1.004.433.249.288.374.722.374 1.301 0 .383-.057.705-.172.964a1.29 1.29 0 01-.485.59c-.207.133-.451.2-.734.2a1.42 1.42 0 01-.469-.071 1.098 1.098 0 01-.347-.19 1.237 1.237 0 01-.24-.261h-.037l.022.288c.01.113.015.211.015.295v1.382h-.513v-4.87h.421l.068.497h.024c.066-.102.145-.195.24-.279a1.03 1.03 0 01.343-.203c.138-.05.299-.076.486-.076zm-.089.43c-.234 0-.422.045-.565.135a.77.77 0 00-.31.405 2.044 2.044 0 00-.105.672v.099c0 .284.031.525.092.721a.856.856 0 00.31.448c.146.103.34.154.584.154a.806.806 0 00.522-.17.998.998 0 00.31-.469 2.16 2.16 0 00.104-.697c0-.397-.078-.712-.233-.945-.154-.236-.39-.354-.709-.354zm5.032.475c0 .211-.062.376-.184.495a.965.965 0 01-.476.236v.025c.211.028.392.104.543.227.154.12.23.306.23.556a.942.942 0 01-.138.51.91.91 0 01-.433.346c-.196.084-.452.126-.767.126h-1.449V64.58h1.437c.241 0 .454.028.638.083a.884.884 0 01.439.264c.107.123.16.289.16.497zm-.418 1.539c0-.199-.075-.342-.227-.43-.149-.088-.367-.132-.654-.132h-.863v1.13h.875c.283 0 .498-.043.645-.13.15-.087.224-.234.224-.438zm-.101-1.48c0-.16-.058-.279-.175-.356-.117-.08-.308-.12-.574-.12h-.894v.967h.805c.276 0 .485-.04.626-.12a.398.398 0 00.212-.371zm1.94-.903v2.116a5.451 5.451 0 01-.012.365 60.49 60.49 0 01-.021.371l1.836-2.852h.626v3.365h-.476v-2.063a13.384 13.384 0 01.012-.553l.01-.233-1.83 2.85h-.63v-3.366h.485zm3.958 0v1.21c0 .21.057.366.172.466.117.1.286.15.507.15.213 0 .406-.032.58-.097a2.92 2.92 0 00.528-.268v-1.46h.51v3.365h-.51v-1.507c-.188.12-.374.216-.556.285-.182.07-.4.105-.654.105-.346 0-.614-.09-.804-.27-.188-.18-.283-.424-.283-.731V64.58h.51zm3.887 0v1.412h1.876V64.58h.51v3.365h-.51v-1.52h-1.876v1.52h-.513V64.58h.513zm3.467 3.365V64.58h.512v1.388h.921c.287 0 .522.036.707.107a.82.82 0 01.414.32c.09.14.135.316.135.525 0 .208-.045.39-.135.543a.862.862 0 01-.417.356c-.189.084-.434.126-.737.126h-1.4zm.512-.414h.839c.253 0 .456-.045.607-.136.152-.09.228-.24.228-.45 0-.208-.071-.35-.212-.43-.141-.083-.344-.123-.608-.123h-.854v1.139zm2.733.414V64.58h.51v3.365h-.51zm2.883-3.426c.287 0 .532.063.737.19.205.127.361.305.47.534.108.227.162.493.162.798v.317h-2.324c.006.395.105.696.295.902.19.207.458.31.804.31a2.453 2.453 0 001.075-.23v.448a2.48 2.48 0 01-.507.166 2.895 2.895 0 01-.589.052c-.324 0-.606-.065-.848-.196a1.375 1.375 0 01-.558-.583c-.133-.256-.2-.57-.2-.94 0-.362.06-.675.181-.94a1.42 1.42 0 01.516-.614c.223-.143.485-.214.786-.214zm-.006.417c-.272 0-.489.09-.651.267-.162.178-.258.427-.289.746h1.781a1.446 1.446 0 00-.095-.528.737.737 0 00-.273-.356.808.808 0 00-.473-.129zm-42.703 11.32c0 .277-.035.523-.107.74-.072.217-.175.4-.31.55a1.35 1.35 0 01-.491.344 1.705 1.705 0 01-.648.117c-.225 0-.432-.04-.62-.117a1.403 1.403 0 01-.486-.344 1.594 1.594 0 01-.316-.55 2.315 2.315 0 01-.11-.74c0-.368.062-.681.187-.94.125-.26.303-.457.534-.592.234-.137.511-.205.832-.205.307 0 .575.068.805.205.231.137.41.336.537.596.129.258.193.57.193.936zm-2.56 0c0 .27.036.505.107.704a.947.947 0 00.332.46c.149.109.342.163.577.163.233 0 .425-.054.574-.163a.94.94 0 00.335-.46c.072-.199.107-.433.107-.704 0-.268-.035-.499-.107-.694a.93.93 0 00-.332-.454c-.149-.106-.343-.16-.58-.16-.35 0-.607.116-.771.347-.161.232-.242.552-.242.961zm7.955-1.676v3.365h-4.513V74.58h.509v2.932h1.489V74.58h.513v2.932h1.492V74.58h.51zm1.566 0v2.116a5.451 5.451 0 01-.012.365l-.013.209c-.002.065-.005.12-.009.162l1.836-2.852h.627v3.365h-.476v-2.063a13.384 13.384 0 01.012-.553l.009-.233-1.83 2.85h-.629v-3.366h.485zm3.337 1.345c0-.48.046-.888.139-1.225.092-.34.234-.612.426-.817.195-.207.445-.348.75-.424.262-.071.528-.133.798-.184.27-.053.533-.1.789-.138l.089.448c-.129.019-.264.04-.405.065a14.663 14.663 0 00-.823.153 4.293 4.293 0 00-.332.083 1.067 1.067 0 00-.451.246 1.206 1.206 0 00-.298.482 2.737 2.737 0 00-.129.773h.037a1.367 1.367 0 011.13-.574c.29 0 .533.064.727.19.195.126.341.302.44.529a2 2 0 01.147.798c0 .367-.064.675-.19.924-.125.25-.301.438-.529.565a1.636 1.636 0 01-.801.188 1.44 1.44 0 01-.639-.139 1.304 1.304 0 01-.475-.405 1.974 1.974 0 01-.298-.654 3.48 3.48 0 01-.102-.884zm1.554 1.658a.968.968 0 00.5-.123.787.787 0 00.326-.387c.078-.178.117-.41.117-.694 0-.356-.069-.634-.206-.835-.135-.203-.352-.304-.651-.304-.186 0-.355.04-.507.12a1.41 1.41 0 00-.383.28 1.424 1.424 0 00-.228.29c0 .21.016.412.046.609.031.196.084.373.16.531.076.158.18.282.313.375a.89.89 0 00.513.138zm4.323-3.003h.562l-1.452 1.624 1.569 1.741h-.599l-1.529-1.707v1.707h-.513V74.58h.513v1.633l1.449-1.633zm1.772 0v2.116l-.003.16c-.002.063-.006.131-.01.205a60.49 60.49 0 01-.021.371l1.836-2.852h.626v3.365h-.476v-2.063a13.384 13.384 0 01.013-.553l.009-.233-1.83 2.85h-.629v-3.366h.485zm3.859 2.119v-.16c0-.164.015-.304.046-.42a.958.958 0 01.16-.332 2.09 2.09 0 01.322-.326c.16-.133.286-.245.378-.338a.919.919 0 00.202-.282.851.851 0 00.062-.34c0-.214-.069-.376-.206-.489-.137-.115-.33-.172-.58-.172-.203 0-.383.026-.541.077a3.422 3.422 0 00-.454.184l-.178-.411c.168-.088.35-.16.547-.215a2.39 2.39 0 01.657-.083c.395 0 .701.098.918.294.217.195.325.463.325.805 0 .19-.031.353-.092.488a1.262 1.262 0 01-.261.369c-.113.11-.246.228-.399.353a2.409 2.409 0 00-.31.304.74.74 0 00-.148.267c-.026.09-.04.198-.04.325v.102h-.408zm-.135.927c0-.144.034-.245.101-.304a.375.375 0 01.261-.092.37.37 0 01.255.092c.072.06.108.16.108.304 0 .141-.036.244-.108.31a.363.363 0 01-.255.095.368.368 0 01-.261-.095c-.067-.066-.101-.169-.101-.31z" fill="#000"/><path d="M252.98 179.21c-1.397-.768-1.397-2.775 0-3.543l49.853-27.392a2.022 2.022 0 011.947 0l49.853 27.392c1.398.768 1.398 2.775 0 3.543l-49.853 27.393a2.022 2.022 0 01-1.947 0L252.98 179.21z" fill="#fff" stroke="url(#paint7_linear_1_3657)" stroke-width=".449"/><path d="M270.53 172.865h1.272c.56 0 .982.084 1.265.252.282.168.423.453.423.857 0 .174-.034.33-.101.469a.88.88 0 01-.289.341c-.127.09-.283.153-.469.187v.031c.196.031.37.087.521.169a.895.895 0 01.357.344c.086.147.129.335.129.562 0 .276-.065.509-.194.7-.127.19-.307.334-.54.433-.234.096-.51.144-.829.144h-1.545v-4.489zm.522 1.925h.86c.391 0 .661-.064.811-.193.151-.129.227-.317.227-.565 0-.256-.09-.44-.27-.553-.178-.112-.463-.169-.854-.169h-.774v1.48zm0 .439v1.68h.934c.399 0 .681-.078.847-.234.166-.157.249-.369.249-.635a.802.802 0 00-.114-.436.683.683 0 00-.362-.276c-.166-.066-.388-.099-.666-.099h-.888zm3.467 2.125v-3.365h.513v1.388h.921c.286 0 .522.036.706.107a.823.823 0 01.414.319c.09.142.135.317.135.526 0 .208-.045.389-.135.543a.865.865 0 01-.417.356c-.189.084-.434.126-.737.126h-1.4zm.513-.414h.838c.254 0 .456-.046.608-.136.151-.09.227-.24.227-.451 0-.207-.071-.35-.212-.43-.141-.082-.344-.123-.608-.123h-.853v1.14zm2.732.414v-3.365h.51v3.365h-.51zm1.75 0h-.595l.97-1.418a1.27 1.27 0 01-.393-.157.879.879 0 01-.295-.31.981.981 0 01-.11-.488c0-.324.107-.569.322-.737.217-.17.502-.255.857-.255h1.489v3.365h-.51v-1.351h-.854l-.881 1.351zm.071-2.37c0 .2.072.35.215.448.143.096.348.144.614.144h.835v-1.16h-.924c-.262 0-.452.053-.568.159a.527.527 0 00-.172.409zm5.923-.151c0 .211-.062.376-.185.495a.961.961 0 01-.476.236v.025c.211.028.392.104.544.227.153.121.23.306.23.555a.941.941 0 01-.138.51.907.907 0 01-.433.347c-.196.084-.452.126-.768.126h-1.449v-3.365h1.437c.242 0 .455.028.639.083a.886.886 0 01.439.264c.106.123.16.288.16.497zm-.418 1.538c0-.198-.076-.341-.227-.429-.15-.088-.368-.132-.654-.132h-.863v1.13h.875c.283 0 .497-.043.645-.129.149-.088.224-.235.224-.44zm-.101-1.479c0-.16-.059-.279-.175-.357-.117-.079-.308-.119-.574-.119h-.894v.967h.804c.277 0 .486-.04.627-.12a.399.399 0 00.212-.371zm3.979 2.462h-.519v-2.938h-1.022c-.041.53-.094.984-.157 1.363a4.572 4.572 0 01-.233.924c-.093.238-.205.413-.338.525a.703.703 0 01-.47.166c-.055 0-.107-.003-.156-.009a.483.483 0 01-.126-.031v-.387a.673.673 0 00.083.019c.03.004.062.006.095.006a.346.346 0 00.251-.114c.078-.078.148-.194.209-.35.064-.155.12-.352.169-.589a9.88 9.88 0 00.129-.845c.039-.325.073-.694.101-1.105h1.984v3.365zm2.37-3.427c.287 0 .532.064.737.191.205.127.361.305.47.534.108.227.163.493.163.798v.317h-2.325c.006.395.105.696.295.902.19.207.459.31.804.31a2.449 2.449 0 001.075-.23v.448a2.48 2.48 0 01-.507.166 2.882 2.882 0 01-.589.052c-.323 0-.606-.065-.847-.196a1.375 1.375 0 01-.559-.583c-.133-.256-.2-.569-.2-.94 0-.362.061-.675.181-.94.123-.266.295-.47.516-.614.223-.143.485-.215.786-.215zm-.006.418c-.272 0-.489.089-.651.267-.162.178-.258.427-.289.746h1.781a1.43 1.43 0 00-.095-.528.74.74 0 00-.273-.356.808.808 0 00-.473-.129zm2.754-.356v1.412h1.876v-1.412h.51v3.365h-.51v-1.52h-1.876v1.52h-.513v-3.365h.513zm3.467 3.365v-3.365h.512v1.388h.921c.287 0 .522.036.707.107a.823.823 0 01.414.319c.09.142.135.317.135.526 0 .208-.045.389-.135.543a.865.865 0 01-.417.356c-.189.084-.434.126-.737.126h-1.4zm.512-.414h.838c.254 0 .457-.046.608-.136.152-.09.228-.24.228-.451 0-.207-.071-.35-.212-.43-.141-.082-.344-.123-.608-.123h-.854v1.14zm2.733.414v-3.365h.51v3.365h-.51zm5.183-3.365h.562l-1.453 1.624 1.569 1.741h-.599l-1.529-1.707v1.707h-.512v-3.365h.512v1.633l1.45-1.633zm2.867-.062c.42 0 .755.145 1.004.433.25.289.375.723.375 1.302 0 .383-.057.704-.172.964-.115.26-.276.457-.485.59a1.326 1.326 0 01-.734.199 1.43 1.43 0 01-.47-.07 1.115 1.115 0 01-.347-.191 1.194 1.194 0 01-.239-.261h-.037l.022.289c.01.113.015.211.015.295v1.381h-.513v-4.869h.421l.067.497h.025a1.34 1.34 0 01.239-.279c.095-.086.209-.154.344-.203a1.39 1.39 0 01.485-.077zm-.089.43c-.233 0-.421.045-.565.135a.786.786 0 00-.31.406 2.07 2.07 0 00-.104.672v.098c0 .285.031.525.092.722a.85.85 0 00.31.448c.145.103.34.154.583.154a.806.806 0 00.522-.169.993.993 0 00.311-.47 2.16 2.16 0 00.104-.697c0-.397-.078-.712-.233-.946-.154-.235-.39-.353-.71-.353zm2.843-.368v2.115a5.439 5.439 0 01-.012.366 84.94 84.94 0 01-.021.371l1.836-2.852h.626v3.365h-.476v-2.063a13.319 13.319 0 01.012-.553l.01-.233-1.83 2.849h-.63v-3.365h.485zm5.806.433H316.3v2.932h-.503v-2.932h-1.093v-.433h2.704v.433zm1.152-.433v2.115a5.439 5.439 0 01-.012.366l-.013.209a2.7 2.7 0 01-.009.162l1.836-2.852h.627v3.365h-.476v-2.063a13.319 13.319 0 01.012-.553l.009-.233-1.83 2.849h-.629v-3.365h.485zm3.958 0v1.21c0 .21.057.366.171.466.117.101.286.151.507.151.213 0 .406-.033.58-.098a2.92 2.92 0 00.528-.268v-1.461h.51v3.365h-.51v-1.508a3.056 3.056 0 01-.555.286c-.182.07-.4.104-.654.104-.346 0-.614-.09-.805-.27-.188-.18-.282-.424-.282-.731v-1.246h.51zm3.887 0v1.412h1.876v-1.412h.509v3.365h-.509v-1.52h-1.876v1.52h-.513v-3.365h.513zm3.466 3.365v-3.365h.513v1.388h.921c.286 0 .522.036.706.107a.83.83 0 01.415.319c.09.142.135.317.135.526 0 .208-.045.389-.135.543a.867.867 0 01-.418.356c-.188.084-.434.126-.737.126h-1.4zm.513-.414h.838c.254 0 .456-.046.608-.136.151-.09.227-.24.227-.451 0-.207-.071-.35-.212-.43-.141-.082-.344-.123-.608-.123h-.853v1.14zm2.732.414v-3.365h.51v3.365h-.51zm2.883-3.427c.287 0 .533.064.737.191.205.127.362.305.47.534.109.227.163.493.163.798v.317h-2.324c.006.395.104.696.294.902.191.207.459.31.805.31.213 0 .401-.019.565-.058.163-.039.333-.096.509-.172v.448c-.17.076-.338.131-.506.166a2.9 2.9 0 01-.59.052c-.323 0-.606-.065-.847-.196a1.375 1.375 0 01-.559-.583c-.133-.256-.2-.569-.2-.94 0-.362.061-.675.182-.94.122-.266.294-.47.515-.614a1.43 1.43 0 01.786-.215zm-.006.418c-.272 0-.489.089-.651.267-.161.178-.258.427-.288.746h1.781a1.429 1.429 0 00-.096-.528.74.74 0 00-.273-.356.806.806 0 00-.473-.129zm-42.285 11.32c0 .277-.035.523-.107.74-.072.217-.175.4-.31.55a1.36 1.36 0 01-.491.344 1.701 1.701 0 01-.648.116c-.225 0-.432-.038-.62-.116a1.412 1.412 0 01-.486-.344 1.6 1.6 0 01-.316-.55 2.312 2.312 0 01-.11-.74c0-.368.062-.681.187-.939.125-.26.303-.458.534-.593.234-.137.511-.206.832-.206.307 0 .575.069.805.206.231.137.41.336.537.596.129.258.193.57.193.936zm-2.56 0c0 .271.036.505.107.703a.949.949 0 00.332.461c.149.108.342.163.577.163a.956.956 0 00.574-.163.941.941 0 00.335-.461c.072-.198.107-.432.107-.703 0-.268-.035-.499-.107-.694a.929.929 0 00-.332-.454c-.149-.106-.343-.16-.58-.16-.35 0-.607.116-.771.347-.161.232-.242.552-.242.961zm7.955-1.676v3.365h-4.513v-3.365h.509v2.932h1.489v-2.932h.513v2.932h1.492v-2.932h.51zm1.566 0v2.115a5.439 5.439 0 01-.012.366l-.013.209a2.7 2.7 0 01-.009.162l1.836-2.852h.627v3.365h-.476v-2.063a13.319 13.319 0 01.012-.553l.009-.233-1.83 2.849h-.629v-3.365h.485zm3.337 1.345c0-.479.046-.888.139-1.225.092-.34.234-.612.426-.817.195-.207.445-.348.75-.424.262-.071.528-.133.798-.184.27-.053.533-.099.789-.138l.089.448c-.129.019-.264.04-.405.065a15.007 15.007 0 00-.823.153 4.336 4.336 0 00-.332.083 1.063 1.063 0 00-.451.246 1.2 1.2 0 00-.298.482 2.727 2.727 0 00-.129.773h.037a1.385 1.385 0 011.13-.574c.29 0 .533.064.727.191.195.124.341.301.44.528a2 2 0 01.147.798c0 .366-.064.674-.19.924-.125.25-.301.438-.529.565a1.635 1.635 0 01-.801.187c-.237 0-.45-.046-.639-.138a1.303 1.303 0 01-.475-.405 1.973 1.973 0 01-.298-.654 3.48 3.48 0 01-.102-.884zm1.554 1.658a.968.968 0 00.5-.123.788.788 0 00.326-.387c.078-.178.117-.409.117-.694 0-.356-.069-.634-.206-.835-.135-.203-.352-.304-.651-.304-.186 0-.355.04-.507.12a1.45 1.45 0 00-.383.279 1.438 1.438 0 00-.228.292c0 .209.016.411.046.608.031.196.084.373.16.531.076.158.18.282.313.375a.891.891 0 00.513.138zm4.323-3.003h.562l-1.452 1.624 1.569 1.741h-.599l-1.529-1.707v1.707h-.513v-3.365h.513v1.633l1.449-1.633zm1.772 0v2.115l-.003.16c-.002.063-.006.132-.01.206a84.94 84.94 0 01-.021.371l1.836-2.852h.626v3.365h-.476v-2.063a13.319 13.319 0 01.013-.553l.009-.233-1.83 2.849h-.629v-3.365h.485zm3.859 2.118v-.159c0-.164.015-.304.046-.421a.95.95 0 01.16-.331c.078-.103.185-.211.322-.326.16-.133.286-.246.378-.338a.918.918 0 00.202-.282.851.851 0 00.062-.341c0-.213-.069-.376-.206-.488-.137-.115-.33-.172-.58-.172-.203 0-.383.026-.541.077a3.342 3.342 0 00-.454.184l-.178-.411c.168-.089.35-.16.547-.215a2.39 2.39 0 01.657-.083c.395 0 .701.098.918.294.217.195.325.463.325.805 0 .19-.031.353-.092.488a1.253 1.253 0 01-.261.368 5.885 5.885 0 01-.399.354 2.37 2.37 0 00-.31.304.742.742 0 00-.148.267c-.026.09-.04.198-.04.325v.101h-.408zm-.135.928c0-.144.034-.245.101-.304a.372.372 0 01.261-.092c.101 0 .186.03.255.092.072.059.108.16.108.304 0 .141-.036.244-.108.31a.365.365 0 01-.255.095.37.37 0 01-.261-.095c-.067-.066-.101-.169-.101-.31z" fill="#000"/><path d="M109.253 213.167c-1.397-.768-1.397-2.775 0-3.543l49.853-27.393a2.022 2.022 0 011.947 0l49.853 27.393c1.397.768 1.397 2.775 0 3.543l-49.853 27.393a2.022 2.022 0 01-1.947 0l-49.853-27.393z" fill="#fff" stroke="url(#paint8_linear_1_3657)" stroke-width=".449"/><path d="M144.777 207.268v-4.489h3.343v4.489h-.516v-4.028h-2.305v4.028h-.522zm6.085-3.426c.42 0 .754.144 1.004.433.25.288.375.722.375 1.302 0 .382-.058.704-.172.964a1.3 1.3 0 01-.485.589 1.33 1.33 0 01-.734.2 1.43 1.43 0 01-.47-.071 1.102 1.102 0 01-.347-.19 1.241 1.241 0 01-.239-.261h-.037l.021.288c.011.113.016.211.016.295v1.382h-.513v-4.87h.421l.067.498h.025a1.32 1.32 0 01.239-.28c.094-.086.209-.153.344-.202.137-.052.299-.077.485-.077zm-.089.43c-.233 0-.422.045-.565.135a.78.78 0 00-.31.405 2.07 2.07 0 00-.104.672v.099c0 .284.03.525.092.721a.846.846 0 00.31.448c.145.103.34.154.583.154a.8.8 0 00.522-.169.987.987 0 00.31-.47c.07-.202.105-.435.105-.697 0-.397-.078-.712-.234-.945-.153-.236-.39-.353-.709-.353zm5.26 1.308c0 .276-.036.523-.108.74-.072.217-.175.4-.31.549-.135.15-.299.264-.491.344a1.701 1.701 0 01-.648.117c-.225 0-.432-.039-.62-.117a1.386 1.386 0 01-.485-.344 1.573 1.573 0 01-.317-.549 2.317 2.317 0 01-.11-.74c0-.369.062-.682.187-.94.125-.26.303-.457.534-.592.234-.138.511-.206.832-.206.307 0 .576.068.805.206.231.137.41.335.537.595.129.258.194.57.194.937zm-2.561 0c0 .27.036.504.107.703a.952.952 0 00.332.46c.149.109.342.163.577.163.234 0 .425-.054.574-.163a.939.939 0 00.335-.46c.072-.199.107-.433.107-.703 0-.269-.035-.5-.107-.694a.932.932 0 00-.332-.455c-.149-.106-.342-.159-.58-.159-.35 0-.607.115-.771.347-.161.231-.242.551-.242.961zm6.116-.832c0 .21-.061.375-.184.494a.961.961 0 01-.476.236v.025c.211.029.392.104.543.227.154.121.231.306.231.556a.932.932 0 01-.139.509.903.903 0 01-.432.347c-.197.084-.453.126-.768.126h-1.449v-3.365h1.437c.241 0 .454.028.638.083a.877.877 0 01.439.264c.107.123.16.289.16.498zm-.418 1.538c0-.199-.075-.342-.227-.43-.149-.088-.367-.132-.654-.132h-.862v1.13h.875c.282 0 .497-.043.644-.129.15-.088.224-.235.224-.439zm-.101-1.48c0-.16-.058-.278-.175-.356-.117-.08-.308-.12-.574-.12h-.893v.967h.804c.276 0 .485-.04.626-.12a.395.395 0 00.212-.371zm4.357.774c0 .276-.036.523-.107.74-.072.217-.175.4-.311.549a1.34 1.34 0 01-.491.344c-.19.078-.406.117-.648.117-.225 0-.432-.039-.62-.117a1.395 1.395 0 01-.485-.344 1.571 1.571 0 01-.316-.549 2.288 2.288 0 01-.111-.74c0-.369.063-.682.188-.94.124-.26.302-.457.534-.592.233-.138.51-.206.832-.206.307 0 .575.068.804.206.232.137.411.335.538.595.129.258.193.57.193.937zm-2.561 0c0 .27.036.504.108.703a.944.944 0 00.331.46c.15.109.342.163.578.163.233 0 .424-.054.574-.163a.937.937 0 00.334-.46c.072-.199.108-.433.108-.703 0-.269-.036-.5-.108-.694a.93.93 0 00-.331-.455c-.15-.106-.343-.159-.58-.159-.35 0-.607.115-.771.347-.162.231-.243.551-.243.961zm5.908-1.677v2.932h.482v1.597h-.495v-1.164h-2.382v1.164h-.488v-1.597h.264a4.06 4.06 0 00.479-.875c.127-.317.223-.65.288-.998.066-.35.101-.703.105-1.059h1.747zm-.495.405h-.798a5.666 5.666 0 01-.132.912 5.687 5.687 0 01-.27.885 3.538 3.538 0 01-.393.73h1.593v-2.527zm2.131-.405v2.116a5.38 5.38 0 01-.012.365 63.699 63.699 0 01-.022.372l1.836-2.853h.627v3.365h-.476v-2.063a13.506 13.506 0 01.012-.553l.009-.233-1.83 2.849h-.629v-3.365h.485zm7.065 0v3.365h-.461v-2.192a6.298 6.298 0 01.028-.556h-.018l-1.118 2.748h-.433l-1.09-2.748h-.018c.006.095.01.189.012.283.004.092.006.189.006.292v2.173h-.463v-3.365h.684l1.087 2.751 1.102-2.751h.682zm-38.484 10.845c0 .21-.061.375-.184.494a.957.957 0 01-.476.236v.025c.211.029.392.104.544.227.153.121.23.306.23.556a.94.94 0 01-.138.509.906.906 0 01-.433.347c-.197.084-.453.126-.768.126h-1.449v-3.365h1.437c.241 0 .454.028.639.083a.886.886 0 01.439.264c.106.123.159.289.159.498zm-.417 1.538c0-.199-.076-.342-.227-.43-.15-.088-.368-.132-.654-.132h-.863v1.13h.875c.282 0 .497-.043.645-.129.149-.088.224-.235.224-.439zm-.102-1.48c0-.16-.058-.278-.175-.356-.116-.08-.308-.12-.574-.12h-.893v.967h.804c.277 0 .485-.04.627-.12a.396.396 0 00.211-.371zm4.357.774c0 .276-.036.523-.107.74-.072.217-.175.4-.31.549-.135.15-.299.264-.492.344-.19.078-.406.117-.647.117-.226 0-.432-.039-.621-.117a1.395 1.395 0 01-.485-.344 1.587 1.587 0 01-.316-.549 2.288 2.288 0 01-.111-.74c0-.369.063-.682.188-.94.125-.26.303-.457.534-.592.233-.138.511-.206.832-.206.307 0 .575.068.804.206.232.137.411.335.538.595.129.258.193.57.193.937zm-2.56 0c0 .27.035.504.107.703a.946.946 0 00.332.46c.149.109.341.163.577.163.233 0 .425-.054.574-.163a.945.945 0 00.335-.46c.071-.199.107-.433.107-.703 0-.269-.036-.5-.107-.694a.938.938 0 00-.332-.455c-.149-.106-.343-.159-.58-.159-.35 0-.607.115-.771.347-.162.231-.242.551-.242.961zm4.789 1.75c-.303 0-.57-.063-.801-.188a1.274 1.274 0 01-.54-.571c-.129-.256-.194-.578-.194-.967 0-.407.068-.74.203-.998.137-.26.325-.452.565-.577.239-.125.511-.187.816-.187.168 0 .33.017.486.052.157.033.286.075.386.126l-.153.427a2.649 2.649 0 00-.356-.111 1.559 1.559 0 00-.375-.049c-.233 0-.428.05-.583.15a.917.917 0 00-.347.443 1.98 1.98 0 00-.114.718c0 .272.037.505.111.697.075.192.187.34.334.442.15.1.336.151.559.151.178 0 .339-.019.482-.056.144-.039.274-.084.39-.135v.455a1.594 1.594 0 01-.377.132c-.138.03-.301.046-.492.046zm3.015 0c-.303 0-.57-.063-.801-.188a1.28 1.28 0 01-.54-.571c-.129-.256-.194-.578-.194-.967 0-.407.068-.74.203-.998.137-.26.325-.452.565-.577.239-.125.512-.187.816-.187.168 0 .33.017.486.052.157.033.286.075.386.126l-.153.427a2.649 2.649 0 00-.356-.111 1.559 1.559 0 00-.375-.049c-.233 0-.428.05-.583.15a.917.917 0 00-.347.443 1.98 1.98 0 00-.114.718c0 .272.037.505.111.697.076.192.187.34.334.442.15.1.336.151.559.151.178 0 .339-.019.482-.056.144-.039.274-.084.39-.135v.455a1.594 1.594 0 01-.377.132c-.138.03-.301.046-.492.046zm3.961-2.994h-1.108v2.932h-.504v-2.932h-1.093v-.433h2.705v.433zm1.925-.488c.401 0 .699.09.894.27.194.18.291.468.291.863v2.287h-.371l-.098-.497h-.025a1.83 1.83 0 01-.295.31 1.09 1.09 0 01-.356.187 1.687 1.687 0 01-.491.062c-.205 0-.387-.036-.547-.108a.85.85 0 01-.374-.325 1.037 1.037 0 01-.135-.553.88.88 0 01.399-.774c.266-.18.671-.278 1.216-.294l.58-.025v-.206c0-.29-.062-.494-.187-.611-.125-.116-.301-.175-.528-.175a1.65 1.65 0 00-.504.077c-.16.051-.311.112-.454.181l-.157-.387c.152-.077.326-.144.522-.199.197-.055.403-.083.62-.083zm.682 1.762l-.513.022c-.42.016-.715.085-.887.206a.588.588 0 00-.258.512c0 .193.058.335.175.427a.727.727 0 00.463.138c.299 0 .544-.083.734-.248.191-.166.286-.415.286-.747v-.31zm2.066-1.707v1.413h1.876v-1.413h.51v3.365h-.51v-1.52h-1.876v1.52h-.513v-3.365h.513zm6.368 1.677c0 .276-.036.523-.107.74-.072.217-.175.4-.31.549-.136.15-.299.264-.492.344-.19.078-.406.117-.648.117-.225 0-.431-.039-.62-.117a1.395 1.395 0 01-.485-.344 1.587 1.587 0 01-.316-.549 2.288 2.288 0 01-.111-.74c0-.369.063-.682.188-.94.124-.26.303-.457.534-.592.233-.138.511-.206.832-.206.307 0 .575.068.804.206.232.137.411.335.538.595.129.258.193.57.193.937zm-2.561 0c0 .27.036.504.108.703a.95.95 0 00.331.46c.15.109.342.163.578.163.233 0 .424-.054.574-.163a.945.945 0 00.335-.46c.071-.199.107-.433.107-.703 0-.269-.036-.5-.107-.694a.938.938 0 00-.332-.455c-.149-.106-.343-.159-.58-.159-.35 0-.607.115-.771.347-.162.231-.243.551-.243.961zm6.117-.832c0 .21-.062.375-.185.494a.953.953 0 01-.476.236v.025c.211.029.392.104.544.227.153.121.23.306.23.556a.94.94 0 01-.138.509.901.901 0 01-.433.347c-.196.084-.452.126-.768.126h-1.449v-3.365h1.437c.242 0 .455.028.639.083a.886.886 0 01.439.264c.106.123.16.289.16.498zm-.418 1.538c0-.199-.076-.342-.227-.43-.15-.088-.368-.132-.654-.132h-.863v1.13h.875c.283 0 .497-.043.645-.129.149-.088.224-.235.224-.439zm-.101-1.48c0-.16-.059-.278-.175-.356-.117-.08-.308-.12-.574-.12h-.894v.967h.804c.277 0 .486-.04.627-.12a.397.397 0 00.212-.371zm3.979 2.462h-.519v-2.938h-1.022c-.041.53-.094.985-.157 1.363a4.572 4.572 0 01-.233.924c-.093.238-.205.413-.338.525a.703.703 0 01-.47.166c-.055 0-.107-.003-.156-.009a.446.446 0 01-.126-.031v-.387a.437.437 0 00.083.019c.03.004.062.006.095.006a.346.346 0 00.251-.114c.078-.077.148-.194.209-.35.064-.155.12-.352.169-.589.049-.24.092-.521.129-.844.039-.326.073-.694.101-1.106h1.984v3.365zm2.37-3.426c.287 0 .532.063.737.19.205.127.361.305.47.534.108.228.163.494.163.799v.316h-2.325c.006.395.105.696.295.903.19.206.459.31.804.31.213 0 .402-.02.565-.059.164-.038.334-.096.51-.172v.449c-.17.075-.339.131-.507.166a2.955 2.955 0 01-.589.052c-.323 0-.606-.066-.847-.197a1.37 1.37 0 01-.559-.583c-.133-.256-.2-.569-.2-.94 0-.362.061-.675.181-.939.123-.266.295-.471.516-.614.223-.144.485-.215.786-.215zm-.006.417c-.272 0-.489.089-.651.267-.162.179-.258.427-.289.747h1.781a1.43 1.43 0 00-.095-.529.74.74 0 00-.273-.356.808.808 0 00-.473-.129zm2.754-.356v1.413h1.876v-1.413h.51v3.365h-.51v-1.52h-1.876v1.52h-.513v-3.365h.513zm3.952 0v2.116l-.003.159c-.002.064-.006.132-.01.206a63.699 63.699 0 01-.021.372l1.836-2.853h.626v3.365h-.476v-2.063a13.506 13.506 0 01.013-.553l.009-.233-1.83 2.849h-.629v-3.365h.485zm4.808-.061c.286 0 .532.063.737.19.204.127.361.305.469.534.109.228.163.494.163.799v.316h-2.324c.006.395.104.696.295.903.19.206.458.31.804.31.213 0 .401-.02.565-.059.164-.038.334-.096.51-.172v.449c-.17.075-.339.131-.507.166a2.962 2.962 0 01-.589.052c-.324 0-.606-.066-.848-.197a1.375 1.375 0 01-.559-.583c-.133-.256-.199-.569-.199-.94 0-.362.06-.675.181-.939.123-.266.295-.471.516-.614.223-.144.485-.215.786-.215zm-.006.417c-.273 0-.49.089-.651.267-.162.179-.258.427-.289.747h1.781a1.451 1.451 0 00-.095-.529.752.752 0 00-.273-.356.808.808 0 00-.473-.129zm2.588 1.763v-.16c0-.164.015-.304.046-.421a.958.958 0 01.16-.331c.077-.102.185-.211.322-.326a5.76 5.76 0 00.378-.337.938.938 0 00.202-.283.851.851 0 00.062-.341c0-.212-.069-.375-.206-.488-.137-.114-.331-.172-.58-.172-.203 0-.383.026-.541.077a3.476 3.476 0 00-.454.184l-.178-.411c.168-.088.35-.16.546-.215a2.44 2.44 0 01.657-.083c.396 0 .702.098.919.295.216.194.325.462.325.804 0 .191-.031.353-.092.488a1.31 1.31 0 01-.261.369c-.113.11-.246.228-.399.353a2.435 2.435 0 00-.31.304.742.742 0 00-.148.267c-.026.09-.04.199-.04.325v.102h-.408zm-.135.927c0-.143.034-.245.101-.304a.376.376 0 01.261-.092c.1 0 .185.031.255.092.072.059.107.161.107.304 0 .141-.035.245-.107.31a.364.364 0 01-.255.095.365.365 0 01-.261-.095c-.067-.065-.101-.169-.101-.31z" fill="#000"/><path d="M252.98 290.048c-1.397-.768-1.397-2.775 0-3.543l49.853-27.393a2.022 2.022 0 011.947 0l49.853 27.393c1.398.768 1.398 2.775 0 3.543l-49.853 27.393a2.022 2.022 0 01-1.947 0l-49.853-27.393z" fill="#fff" stroke="url(#paint9_linear_1_3657)" stroke-width=".449"/><path d="M288.504 285.048v-4.489h3.344v4.489h-.516v-4.028h-2.306v4.028h-.522zm6.086-3.426c.419 0 .754.144 1.004.433.249.288.374.722.374 1.301 0 .383-.057.704-.172.964a1.29 1.29 0 01-.485.59c-.207.133-.451.2-.734.2-.178 0-.334-.024-.469-.071a1.122 1.122 0 01-.347-.19 1.247 1.247 0 01-.24-.261h-.037l.022.288c.01.113.015.211.015.295v1.382h-.513v-4.87h.421l.068.497h.024c.066-.102.146-.195.24-.279.094-.086.208-.154.344-.203.137-.051.298-.076.485-.076zm-.089.429c-.234 0-.422.045-.565.136a.77.77 0 00-.31.405 2.041 2.041 0 00-.105.672v.098c0 .285.031.526.092.722a.852.852 0 00.31.448c.146.103.34.154.584.154a.8.8 0 00.522-.169 1 1 0 00.31-.47c.069-.202.104-.435.104-.697 0-.397-.078-.712-.233-.945-.154-.236-.39-.354-.709-.354zm5.259 1.308c0 .277-.036.523-.107.74a1.52 1.52 0 01-.31.55 1.363 1.363 0 01-.492.344c-.19.078-.406.117-.648.117-.225 0-.431-.039-.62-.117a1.408 1.408 0 01-.485-.344 1.591 1.591 0 01-.316-.55 2.284 2.284 0 01-.111-.74c0-.368.063-.681.188-.939.125-.26.303-.458.534-.593.233-.137.511-.205.832-.205.307 0 .575.068.804.205.232.137.411.336.538.596.129.258.193.57.193.936zm-2.561 0c0 .271.036.505.108.704a.946.946 0 00.332.46c.149.109.341.163.577.163.233 0 .424-.054.574-.163a.945.945 0 00.335-.46c.071-.199.107-.433.107-.704 0-.268-.036-.499-.107-.693a.938.938 0 00-.332-.455c-.149-.106-.343-.16-.58-.16-.35 0-.607.116-.771.347-.162.232-.243.552-.243.961zm6.117-.832c0 .211-.062.376-.185.495a.961.961 0 01-.476.236v.025c.211.028.392.104.544.227.153.121.23.306.23.556a.94.94 0 01-.138.509.907.907 0 01-.433.347c-.196.084-.452.126-.767.126h-1.45v-3.365h1.437c.242 0 .455.028.639.083a.886.886 0 01.439.264c.106.123.16.289.16.497zm-.418 1.539c0-.199-.076-.342-.227-.43-.15-.088-.368-.132-.654-.132h-.863v1.13h.875c.283 0 .498-.043.645-.129.149-.088.224-.235.224-.439zm-.101-1.48c0-.16-.059-.279-.175-.356-.117-.08-.308-.12-.574-.12h-.894v.967h.804c.277 0 .486-.04.627-.12a.398.398 0 00.212-.371zm4.357.773c0 .277-.036.523-.108.74a1.52 1.52 0 01-.31.55 1.36 1.36 0 01-.491.344 1.701 1.701 0 01-.648.117c-.225 0-.432-.039-.62-.117a1.4 1.4 0 01-.485-.344 1.577 1.577 0 01-.317-.55 2.312 2.312 0 01-.11-.74c0-.368.062-.681.187-.939.125-.26.303-.458.534-.593.234-.137.511-.205.832-.205.307 0 .576.068.805.205.231.137.41.336.537.596.129.258.194.57.194.936zm-2.561 0c0 .271.036.505.107.704a.946.946 0 00.332.46c.149.109.342.163.577.163.233 0 .425-.054.574-.163a.939.939 0 00.335-.46c.072-.199.107-.433.107-.704 0-.268-.035-.499-.107-.693a.932.932 0 00-.332-.455c-.149-.106-.342-.16-.58-.16-.35 0-.607.116-.771.347-.161.232-.242.552-.242.961zm5.907-1.676v2.932h.482v1.597h-.494v-1.164h-2.383v1.164h-.488v-1.597h.264c.193-.266.352-.558.479-.875.127-.317.223-.65.289-.998.065-.35.1-.703.104-1.059h1.747zm-.494.405h-.798a5.899 5.899 0 01-.132.912 5.54 5.54 0 01-.271.884 3.454 3.454 0 01-.393.731h1.594v-2.527zm2.131-.405v2.115a5.439 5.439 0 01-.013.366 84.94 84.94 0 01-.021.371l1.836-2.852h.626v3.365h-.476v-2.063a14.266 14.266 0 01.022-.786l-1.83 2.849h-.629v-3.365h.485zm7.065 0v3.365h-.461v-2.192c0-.09.002-.181.006-.273.006-.095.013-.189.022-.283h-.019l-1.117 2.748h-.433l-1.09-2.748h-.019c.006.094.011.188.013.283.004.092.006.189.006.291v2.174h-.464v-3.365h.685l1.087 2.751 1.102-2.751h.682zm-34.778 11.676c0 .277-.036.523-.108.74a1.506 1.506 0 01-.31.55 1.36 1.36 0 01-.491.344c-.19.078-.406.117-.648.117-.225 0-.432-.039-.62-.117a1.408 1.408 0 01-.485-.344 1.593 1.593 0 01-.317-.55 2.312 2.312 0 01-.11-.74c0-.368.062-.681.187-.939.125-.26.303-.458.534-.593.234-.137.511-.205.833-.205.307 0 .575.068.804.205.231.137.41.336.537.596.129.258.194.57.194.936zm-2.561 0c0 .271.036.505.108.704a.944.944 0 00.331.46c.15.109.342.163.577.163.234 0 .425-.054.574-.163a.932.932 0 00.335-.46c.072-.199.108-.433.108-.704 0-.268-.036-.499-.108-.693a.93.93 0 00-.331-.455c-.15-.106-.343-.16-.581-.16-.35 0-.607.116-.77.347-.162.232-.243.552-.243.961zm6.26-1.676v3.365h-.512v-2.926h-1.793v2.926h-.513v-3.365h2.818zm3.375.433h-1.109v2.932h-.503v-2.932h-1.093v-.433h2.705v.433zm1.151-.433v2.115a5.439 5.439 0 01-.012.366 84.94 84.94 0 01-.022.371l1.836-2.852h.627v3.365h-.476v-2.063a13.319 13.319 0 01.012-.553l.009-.233-1.83 2.849h-.629v-3.365h.485zm7.065 0v3.365h-.46v-2.192a6.285 6.285 0 01.027-.556h-.018l-1.118 2.748h-.433l-1.09-2.748h-.018c.006.094.01.188.012.283.004.092.006.189.006.291v2.174h-.463v-3.365h.684l1.087 2.751 1.102-2.751h.682zm1.544 0v2.115a5.439 5.439 0 01-.012.366 84.94 84.94 0 01-.021.371l1.836-2.852h.626v3.365h-.476v-2.063a13.319 13.319 0 01.012-.553l.01-.233-1.83 2.849h-.63v-3.365h.485zm4.379-.061c.252 0 .47.034.654.104a.928.928 0 01.427.298c.1.131.15.29.15.479 0 .202-.055.364-.166.485a.933.933 0 01-.457.261v.024c.137.037.261.09.371.16a.75.75 0 01.369.685.89.89 0 01-.154.509c-.102.15-.258.268-.467.354-.208.086-.472.129-.792.129-.157 0-.307-.01-.448-.028a2.47 2.47 0 01-.384-.074 1.63 1.63 0 01-.301-.116v-.464c.144.069.311.131.504.184.192.053.4.08.623.08.172 0 .327-.02.464-.058a.698.698 0 00.325-.194.504.504 0 00.123-.353.498.498 0 00-.107-.328.627.627 0 00-.323-.194 1.878 1.878 0 00-.537-.064h-.451v-.418h.371c.289 0 .519-.041.691-.123a.425.425 0 00.258-.414.41.41 0 00-.2-.375c-.133-.084-.323-.126-.571-.126-.184 0-.347.02-.488.059-.141.036-.294.09-.458.159l-.181-.408c.176-.078.361-.136.553-.175a3.02 3.02 0 01.602-.058zm3.432.006c.402 0 .699.09.894.27.194.18.292.468.292.863v2.287h-.372l-.098-.497h-.025a1.83 1.83 0 01-.295.31 1.09 1.09 0 01-.356.187 1.682 1.682 0 01-.491.062 1.31 1.31 0 01-.546-.108.853.853 0 01-.375-.325 1.037 1.037 0 01-.135-.553c0-.336.133-.594.399-.774.266-.18.671-.278 1.216-.295l.58-.024v-.206c0-.29-.062-.494-.187-.611-.125-.117-.301-.175-.528-.175a1.65 1.65 0 00-.504.077 3.382 3.382 0 00-.454.181l-.157-.387a2.8 2.8 0 01.522-.199c.197-.056.403-.083.62-.083zm.682 1.762l-.513.022c-.419.016-.715.085-.887.205a.59.59 0 00-.258.513c0 .192.058.335.175.427a.728.728 0 00.464.138c.299 0 .543-.083.733-.249.191-.165.286-.414.286-.746v-.31zm4.83 2.822h-.498v-1.164h-2.778v-3.365h.512v2.932h1.784v-2.932h.51v2.938h.47v1.591zm1.145-4.529v2.115a5.439 5.439 0 01-.012.366l-.013.209a2.7 2.7 0 01-.009.162l1.836-2.852h.627v3.365h-.476v-2.063a13.319 13.319 0 01.012-.553l.009-.233-1.83 2.849h-.629v-3.365h.485zm7.839 1.676c0 .367-.06.681-.179.943a1.328 1.328 0 01-.503.602 1.452 1.452 0 01-.786.206c-.285 0-.533-.062-.746-.185a1.303 1.303 0 01-.501-.537 2.13 2.13 0 01-.208-.86h-.894v1.52h-.51v-3.365h.51v1.412h.9a1.97 1.97 0 01.227-.795 1.28 1.28 0 01.497-.503c.209-.117.455-.175.737-.175.295 0 .551.069.768.208.219.138.388.336.506.596.121.258.182.569.182.933zm-2.401 0c0 .283.031.523.095.722a.906.906 0 00.304.451c.139.103.319.154.54.154.219 0 .397-.051.534-.154a.86.86 0 00.304-.448c.066-.199.099-.44.099-.725 0-.28-.033-.517-.099-.712a.871.871 0 00-.304-.442.872.872 0 00-.534-.154.885.885 0 00-.537.154.871.871 0 00-.304.442 2.238 2.238 0 00-.098.712zm3.635.443v-.16c0-.164.015-.304.046-.421a.958.958 0 01.16-.331c.077-.103.185-.211.322-.326.16-.133.285-.245.378-.338a.935.935 0 00.202-.282.851.851 0 00.062-.341c0-.213-.069-.375-.206-.488-.137-.115-.331-.172-.58-.172-.203 0-.383.026-.541.077a3.342 3.342 0 00-.454.184l-.178-.411c.168-.088.35-.16.546-.215a2.4 2.4 0 01.657-.083c.395 0 .701.098.918.295.217.194.326.462.326.804 0 .19-.031.353-.092.488a1.31 1.31 0 01-.261.369c-.113.11-.246.228-.399.353a2.387 2.387 0 00-.311.304.754.754 0 00-.147.267 1.14 1.14 0 00-.04.325v.102h-.408zm-.135.927c0-.144.033-.245.101-.304a.372.372 0 01.261-.092c.1 0 .185.03.255.092.071.059.107.16.107.304 0 .141-.036.244-.107.31a.368.368 0 01-.255.095.37.37 0 01-.261-.095c-.068-.066-.101-.169-.101-.31z" fill="#000"/><path d="M109.253 103.198c-1.397-.768-1.397-2.775 0-3.543l49.853-27.393a2.022 2.022 0 011.947 0l49.853 27.393c1.397.768 1.397 2.775 0 3.543l-49.853 27.393a2.022 2.022 0 01-1.947 0l-49.853-27.393z" fill="#fff" stroke="url(#paint10_linear_1_3657)" stroke-width=".449"/><path d="M133.994 104.261v-4.489h3.343v4.489h-.516v-4.028h-2.305v4.028h-.522zm6.085-3.426c.42 0 .754.144 1.004.433.25.288.375.722.375 1.301 0 .383-.058.705-.172.965a1.3 1.3 0 01-.485.589 1.33 1.33 0 01-.734.2 1.43 1.43 0 01-.47-.071 1.122 1.122 0 01-.586-.451h-.037l.021.288c.01.113.016.211.016.295v1.382h-.513v-4.87h.42l.068.498h.025a1.32 1.32 0 01.239-.28c.094-.086.209-.153.344-.203.137-.051.299-.076.485-.076zm-.089.43c-.233 0-.422.045-.565.135a.774.774 0 00-.31.405c-.066.178-.1.402-.104.672v.099c0 .284.03.525.092.721a.846.846 0 00.31.448c.145.103.34.154.583.154a.8.8 0 00.522-.169.992.992 0 00.31-.47c.07-.202.105-.435.105-.697 0-.397-.078-.712-.234-.945-.153-.236-.39-.353-.709-.353zm5.26 1.308c0 .276-.036.523-.108.739a1.52 1.52 0 01-.31.55c-.135.15-.299.264-.491.344a1.701 1.701 0 01-.648.117c-.225 0-.432-.039-.62-.117a1.386 1.386 0 01-.485-.344 1.577 1.577 0 01-.317-.55 2.306 2.306 0 01-.11-.739c0-.369.062-.682.187-.94.125-.26.303-.457.534-.593.234-.137.511-.205.832-.205.307 0 .576.068.805.205.231.138.41.336.537.596.129.258.194.57.194.937zm-2.561 0c0 .27.036.504.107.703a.946.946 0 00.332.46c.149.109.342.163.577.163.233 0 .425-.054.574-.163a.939.939 0 00.335-.46c.072-.199.107-.433.107-.703 0-.269-.035-.5-.107-.694a.932.932 0 00-.332-.455c-.149-.106-.342-.159-.58-.159-.35 0-.607.115-.771.347-.161.231-.242.551-.242.961zm6.116-.833c0 .211-.061.376-.184.495a.97.97 0 01-.476.236v.025c.211.028.392.104.543.227.154.121.231.306.231.556a.932.932 0 01-.139.509.907.907 0 01-.433.347c-.196.084-.452.126-.767.126h-1.449v-3.365h1.437c.241 0 .454.028.638.083a.877.877 0 01.439.264c.107.123.16.289.16.497zm-.418 1.539c0-.199-.075-.342-.227-.43-.149-.088-.367-.132-.654-.132h-.863v1.13h.876c.282 0 .497-.043.644-.129.15-.088.224-.235.224-.439zm-.101-1.48c0-.16-.058-.279-.175-.356-.117-.08-.308-.12-.574-.12h-.894v.967h.805c.276 0 .485-.04.626-.12a.398.398 0 00.212-.371zm4.357.774c0 .276-.036.523-.108.739a1.506 1.506 0 01-.31.55 1.34 1.34 0 01-.491.344c-.19.078-.406.117-.648.117-.225 0-.432-.039-.62-.117a1.395 1.395 0 01-.485-.344 1.576 1.576 0 01-.316-.55 2.278 2.278 0 01-.111-.739c0-.369.063-.682.187-.94.125-.26.303-.457.535-.593.233-.137.51-.205.832-.205.307 0 .575.068.804.205.231.138.411.336.537.596.129.258.194.57.194.937zm-2.561 0c0 .27.036.504.108.703a.944.944 0 00.331.46c.15.109.342.163.578.163.233 0 .424-.054.574-.163a.937.937 0 00.334-.46c.072-.199.108-.433.108-.703 0-.269-.036-.5-.108-.694a.93.93 0 00-.331-.455c-.15-.106-.343-.159-.581-.159-.35 0-.606.115-.77.347-.162.231-.243.551-.243.961zm5.908-1.677v2.932h.482v1.597h-.495v-1.164h-2.382v1.164h-.488v-1.597h.264a4.06 4.06 0 00.479-.875c.126-.317.223-.65.288-.998.066-.35.1-.703.105-1.059h1.747zm-.495.405h-.798a5.666 5.666 0 01-.132.912 5.687 5.687 0 01-.27.885 3.538 3.538 0 01-.393.73h1.593v-2.527zm2.131-.405v2.116a5.38 5.38 0 01-.012.365 63.699 63.699 0 01-.022.371l1.836-2.852h.627v3.365h-.476v-2.063a13.412 13.412 0 01.012-.553l.009-.233-1.83 2.849h-.629v-3.365h.485zm7.065 0v3.365h-.461v-2.192a5.026 5.026 0 01.028-.556h-.018l-1.118 2.748h-.433l-1.09-2.748h-.018c.006.094.01.189.012.283.004.092.006.189.006.291v2.174h-.464v-3.365h.685l1.087 2.751 1.102-2.751h.682zm3.952-.055c.401 0 .699.09.893.27.194.18.292.468.292.863v2.287h-.372l-.098-.497h-.025a1.867 1.867 0 01-.294.31 1.095 1.095 0 01-.357.187 1.682 1.682 0 01-.491.062 1.31 1.31 0 01-.546-.108.846.846 0 01-.375-.325 1.037 1.037 0 01-.135-.553c0-.336.133-.594.399-.774.266-.18.671-.278 1.216-.294l.58-.025v-.206c0-.29-.062-.494-.187-.611-.125-.116-.301-.175-.528-.175a1.65 1.65 0 00-.504.077 3.52 3.52 0 00-.454.181l-.157-.387c.152-.077.326-.144.522-.199a2.26 2.26 0 01.621-.083zm.681 1.762l-.513.022c-.419.016-.715.085-.887.205a.59.59 0 00-.258.513c0 .193.058.335.175.427a.728.728 0 00.464.138c.299 0 .543-.083.734-.249.19-.165.285-.414.285-.746v-.31zm1.023-1.707h.546l.743 1.953c.043.114.083.225.12.331.037.105.069.205.098.301.029.097.051.19.068.28h.021c.029-.103.07-.237.123-.402.053-.168.11-.339.172-.513l.703-1.95h.55l-1.465 3.86a2.62 2.62 0 01-.273.54 1.086 1.086 0 01-.375.353 1.06 1.06 0 01-.534.126 1.49 1.49 0 01-.255-.019 1.582 1.582 0 01-.19-.036v-.409a1.488 1.488 0 00.365.04.678.678 0 00.571-.282c.068-.092.126-.202.175-.329l.184-.473-1.347-3.371zm6.146 0v2.932h.482v1.597h-.494v-1.164h-2.382v1.164h-.489v-1.597h.264c.193-.266.352-.557.479-.875.127-.317.223-.65.289-.998.065-.35.1-.703.104-1.059h1.747zm-.494.405h-.798a5.899 5.899 0 01-.132.912 5.687 5.687 0 01-.27.885 3.538 3.538 0 01-.393.73h1.593v-2.527zm2.131-.405v2.116a5.38 5.38 0 01-.012.365l-.013.209a2.7 2.7 0 01-.009.162l1.836-2.852h.627v3.365h-.476v-2.063a13.412 13.412 0 01.012-.553l.009-.233-1.83 2.849h-.629v-3.365h.485zm5.806.433h-1.108v2.932h-.504v-2.932h-1.093v-.433h2.705v.433zm1.013 1.686v-.16c0-.164.015-.304.046-.421a.958.958 0 01.16-.331c.078-.103.185-.211.322-.326a5.76 5.76 0 00.378-.337.955.955 0 00.203-.283.87.87 0 00.061-.341c0-.213-.069-.375-.206-.488-.137-.115-.33-.172-.58-.172-.203 0-.383.026-.54.077-.158.051-.31.113-.455.184l-.178-.411c.168-.088.35-.16.547-.215a2.43 2.43 0 01.657-.083c.395 0 .701.098.918.295.217.194.325.462.325.804 0 .19-.031.353-.092.488a1.27 1.27 0 01-.261.369c-.113.11-.246.228-.399.353a2.37 2.37 0 00-.31.304.742.742 0 00-.148.267c-.026.09-.04.198-.04.325v.102h-.408zm-.135.927c0-.143.034-.245.101-.304a.376.376 0 01.261-.092c.101 0 .186.031.255.092.072.059.108.161.108.304 0 .141-.036.245-.108.31a.365.365 0 01-.255.095.37.37 0 01-.261-.095c-.067-.065-.101-.169-.101-.31zm118.802-66.177l-.671-2.505-1.833 1.834 2.504.67zm-3.378-3.379l.159-.159-.066-.066h-.093v.225zm-210.056.225h210.056v-.45H90.182v.45zm209.897-.066l1.949 1.95.318-.318-1.949-1.95-.318.318zm3.728 112.578l-.672-2.505-1.833 1.833 2.505.672zm-3.379-3.379l.159-.159-.066-.066h-.093v.225zm-210.056.224h210.056v-.449H90.372v.449zm209.897-.065l1.95 1.949.317-.317-1.949-1.95-.318.318zm3.347 114.267l-.671-2.505-1.833 1.834 2.504.671zm-3.378-3.378l.159-.159-.066-.066h-.093v.225zm-210.056.224h210.056v-.449H90.182v.449zm209.897-.066l1.949 1.95.318-.318-1.949-1.949-.318.317zM45.724 292.718l-1.297-2.246h2.593l-1.296 2.246zm0-4.441h-.225v-.224h.225v.224zm206.013.225H45.724v-.449h206.013v.449zm-205.788-.225v2.42h-.45v-2.42h.45zm114.366-216.87l.671-2.504 1.834 1.833-2.505.671zm3.378-3.378l-.158-.159.065-.066h.093v.225zm88.28.224h-88.28v-.449h88.28v.45zm-88.121-.065l-1.949 1.95-.318-.319 1.95-1.949.317.318zm-3.773 112.629l.672-2.504 1.833 1.833-2.505.671zm3.379-3.378l-.159-.159.066-.066h.093v.225zm88.279.224h-88.279v-.449h88.279v.449zm-88.12-.065l-1.95 1.949-.317-.318 1.949-1.949.318.318zM45.912 131.895l-1.296-2.246h2.593l-1.297 2.246zm0-30.468h-.224v-.225h.224v.225zm62.454.224H45.912v-.449h62.454v.449zm-62.23-.224v28.446h-.448v-28.446h.449zm-.224 140.437l-1.296-2.246h2.593l-1.297 2.246zm0-30.468h-.224v-.225h.224v.225zm62.454.224H45.912v-.449h62.454v.449zm-62.23-.224v28.446h-.448v-28.446h.449z" fill="#000"/><defs><linearGradient id="paint0_linear_1_3657" x1="139.091" y1="11.261" x2="219.823" y2="7.965" gradientUnits="userSpaceOnUse"><stop stop-color="#D14B5F"/><stop offset="1" stop-color="#EF8E18"/></linearGradient><linearGradient id="paint1_linear_1_3657" x1="139.091" y1="321.623" x2="219.823" y2="318.327" gradientUnits="userSpaceOnUse"><stop stop-color="#D14B5F"/><stop offset="1" stop-color="#EF8E18"/></linearGradient><linearGradient id="paint2_linear_1_3657" x1=".549" y1="34.979" x2="90.233" y2="31.104" gradientUnits="userSpaceOnUse"><stop stop-color="#D14B5F"/><stop offset="1" stop-color="#EF8E18"/></linearGradient><linearGradient id="paint3_linear_1_3657" x1=".549" y1="144.572" x2="90.233" y2="140.697" gradientUnits="userSpaceOnUse"><stop stop-color="#D14B5F"/><stop offset="1" stop-color="#EF8E18"/></linearGradient><linearGradient id="paint4_linear_1_3657" x1=".549" y1="254.541" x2="90.233" y2="250.666" gradientUnits="userSpaceOnUse"><stop stop-color="#D14B5F"/><stop offset="1" stop-color="#EF8E18"/></linearGradient><linearGradient id="paint5_linear_1_3657" x1=".549" y1="305.303" x2="90.233" y2="301.427" gradientUnits="userSpaceOnUse"><stop stop-color="#D14B5F"/><stop offset="1" stop-color="#EF8E18"/></linearGradient><linearGradient id="paint6_linear_1_3657" x1="276.746" y1="95.247" x2="330.651" y2="40.105" gradientUnits="userSpaceOnUse"><stop stop-color="#D14B5F"/><stop offset="1" stop-color="#EF8E18"/></linearGradient><linearGradient id="paint7_linear_1_3657" x1="276.746" y1="204.657" x2="330.651" y2="149.515" gradientUnits="userSpaceOnUse"><stop stop-color="#D14B5F"/><stop offset="1" stop-color="#EF8E18"/></linearGradient><linearGradient id="paint8_linear_1_3657" x1="133.019" y1="238.613" x2="186.923" y2="183.472" gradientUnits="userSpaceOnUse"><stop stop-color="#D14B5F"/><stop offset="1" stop-color="#EF8E18"/></linearGradient><linearGradient id="paint9_linear_1_3657" x1="276.746" y1="315.495" x2="330.651" y2="260.353" gradientUnits="userSpaceOnUse"><stop stop-color="#D14B5F"/><stop offset="1" stop-color="#EF8E18"/></linearGradient><linearGradient id="paint10_linear_1_3657" x1="133.019" y1="128.644" x2="186.923" y2="73.503" gradientUnits="userSpaceOnUse"><stop stop-color="#D14B5F"/><stop offset="1" stop-color="#EF8E18"/></linearGradient></defs></svg>