<svg width="21" height="28" fill="none" xmlns="http://www.w3.org/2000/svg"><path d="M20.567 15.857c-.309-4.027-2.184-6.55-3.838-8.777-1.531-2.061-2.854-3.842-2.854-6.468a.563.563 0 00-.89-.457c-2.484 1.777-4.556 4.773-5.28 7.631-.503 1.99-.57 4.228-.579 5.705-2.294-.49-2.813-3.921-2.819-3.958a.565.565 0 00-.803-.427c-.12.058-2.952 1.497-3.117 7.243a9.527 9.527 0 00-.012.575c0 5.582 4.542 10.124 10.125 10.124.008 0 .016.002.023 0h.007c5.569-.016 10.095-4.552 10.095-10.124 0-.281-.058-1.067-.058-1.067zM10.5 25.923c-1.861 0-3.375-1.613-3.375-3.595 0-.067 0-.136.004-.22.023-.835.182-1.406.356-1.785.326.7.91 1.345 1.857 1.345a.563.563 0 00.563-.563c0-.8.016-1.724.216-2.558.177-.74.601-1.526 1.138-2.157.24.819.705 1.481 1.16 2.128.65.925 1.324 1.881 1.442 3.512.007.096.014.194.014.298 0 1.982-1.514 3.595-3.375 3.595z" fill="#fff"/></svg>