<svg width="20" height="21" fill="none" xmlns="http://www.w3.org/2000/svg"><g clip-path="url(#clip0_1_1649)" fill="#E64B13"><path d="M12.96 11.163l-1.676 1.681c-.68.682-1.874.696-2.568 0l-1.675-1.68-6.017 6.035c.224.104.471.165.734.165h16.484c.263 0 .51-.061.733-.165l-6.016-6.036z"/><path d="M18.242 3.302H1.758c-.263 0-.51.062-.733.165l6.428 6.45.002.001v.001l2.09 2.098c.223.222.688.222.91 0l2.09-2.097v-.002h.002l6.428-6.45a1.74 1.74 0 00-.733-.166zM.187 4.287A1.736 1.736 0 000 5.06v10.547c0 .278.071.538.187.773l6.027-6.046L.187 4.287zm19.626 0l-6.027 6.046 6.027 6.047c.116-.235.187-.495.187-.773V5.06c0-.279-.071-.539-.187-.773z"/></g><defs><clipPath id="clip0_1_1649"><path fill="#fff" transform="translate(0 .333)" d="M0 0h20v20H0z"/></clipPath></defs></svg>