<svg width="23" height="19" fill="none" xmlns="http://www.w3.org/2000/svg"><path d="M11.5.656C5.15.656 0 5.853 0 12.266c0 3.476 1.5 5.744 1.5 5.744h19.995S23 15.533 23 12.265C23 5.853 17.851.655 11.5.655zm9.152 15.94l-18.267-.008s-.973-1.843-.973-4.36c0-5.619 4.534-10.175 10.127-10.175 5.593 0 10.127 4.556 10.127 10.176 0 2.544-1.014 4.367-1.014 4.367z" fill="#E64B13"/><path d="M14.75 3.739h-.144l-3.068 6.01L8.36 3.687 4.01 14.639H2.884v.88h6.16v-.88H7.823l1.222-3.423 2.493 4.302 2.396-4.302 1.222 3.423h-1.222v.88h6.111v-.88h-1.059l-4.236-10.9z" fill="#E64B13"/></svg>