<svg width="68" height="68" fill="none" xmlns="http://www.w3.org/2000/svg"><path d="M12.125 39.466H7.75c-.605 0-1.094.489-1.094 1.094v4.375c0 .605.49 1.094 1.094 1.094h4.375c.605 0 1.094-.49 1.094-1.094V40.56c0-.605-.49-1.094-1.094-1.094zm-1.094 4.375H8.844v-2.187h2.187v2.187zm1.094 4.375H7.75c-.605 0-1.094.489-1.094 1.094v4.375c0 .605.49 1.094 1.094 1.094h4.375c.605 0 1.094-.49 1.094-1.094V49.31c0-.605-.49-1.094-1.094-1.094zm-1.094 4.375H8.844v-2.187h2.187v2.187zm1.094 4.375H7.75c-.605 0-1.094.489-1.094 1.094v4.375c0 .605.49 1.094 1.094 1.094h4.375c.605 0 1.094-.49 1.094-1.094V58.06c0-.605-.49-1.094-1.094-1.094zm-1.094 4.375H8.844v-2.187h2.187v2.187zM60.25 39.466h-4.375c-.605 0-1.094.489-1.094 1.094v4.375c0 .605.49 1.094 1.094 1.094h4.375c.605 0 1.094-.49 1.094-1.094V40.56c0-.605-.49-1.094-1.094-1.094zm-1.094 4.375H56.97v-2.187h2.187v2.187zM12.125 30.716H7.75c-.605 0-1.094.489-1.094 1.094v4.375c0 .605.49 1.094 1.094 1.094h4.375c.605 0 1.094-.49 1.094-1.094V31.81c0-.605-.49-1.094-1.094-1.094zm-1.094 4.375H8.844v-2.187h2.187v2.187zm49.219-4.375h-4.375c-.605 0-1.094.489-1.094 1.094v4.375c0 .605.49 1.094 1.094 1.094h4.375c.605 0 1.094-.49 1.094-1.094V31.81c0-.605-.49-1.094-1.094-1.094zm-1.094 4.375H56.97v-2.187h2.187v2.187zm1.094 13.125h-4.375c-.605 0-1.094.489-1.094 1.094v4.375c0 .605.49 1.094 1.094 1.094h4.375c.605 0 1.094-.49 1.094-1.094V49.31c0-.605-.49-1.094-1.094-1.094zm-1.094 4.375H56.97v-2.187h2.187v2.187zm-14.218-4.375h-4.376c-.604 0-1.093.489-1.093 1.094v4.375c0 .605.489 1.094 1.093 1.094h4.376c.604 0 1.093-.49 1.093-1.094V49.31c0-.605-.489-1.094-1.093-1.094zm-1.094 4.375h-2.188v-2.187h2.188v2.187zm-7.656-4.375h-4.376c-.604 0-1.093.489-1.093 1.094v4.375c0 .605.489 1.094 1.093 1.094h4.375c.605 0 1.094-.49 1.094-1.094V49.31c0-.605-.489-1.094-1.093-1.094zm-1.094 4.375h-2.188v-2.187h2.188v2.187zm-7.656-4.375h-4.375c-.605 0-1.094.489-1.094 1.094v4.375c0 .605.489 1.094 1.093 1.094h4.375c.605 0 1.094-.49 1.094-1.094V49.31c0-.605-.489-1.094-1.093-1.094zm-1.094 4.375h-2.188v-2.187h2.188v2.187zM46.031 31.81c0-.605-.489-1.094-1.093-1.094h-4.376c-.604 0-1.093.489-1.093 1.094v4.375c0 .605.489 1.094 1.093 1.094h4.376c.604 0 1.093-.49 1.093-1.094V31.81zm-2.187 3.281h-2.188v-2.187h2.188v2.187zm-6.563-3.281c0-.605-.489-1.094-1.093-1.094h-4.376c-.604 0-1.093.489-1.093 1.094v4.375c0 .605.489 1.094 1.093 1.094h4.375c.605 0 1.094-.49 1.094-1.094V31.81zm-2.187 3.281h-2.188v-2.187h2.188v2.187zm-6.563-3.281c0-.605-.489-1.094-1.093-1.094h-4.375c-.605 0-1.094.489-1.094 1.094v4.375c0 .605.489 1.094 1.093 1.094h4.375c.605 0 1.094-.49 1.094-1.094V31.81zm-2.187 3.281h-2.188v-2.187h2.188v2.187zm19.687 5.469c0-.605-.489-1.094-1.093-1.094h-4.376c-.604 0-1.093.489-1.093 1.094v4.375c0 .605.489 1.094 1.093 1.094h4.376c.604 0 1.093-.49 1.093-1.094V40.56zm-2.187 3.281h-2.188v-2.187h2.188v2.187zm-6.563-3.281c0-.605-.489-1.094-1.093-1.094h-4.376c-.604 0-1.093.489-1.093 1.094v4.375c0 .605.489 1.094 1.093 1.094h4.375c.605 0 1.094-.49 1.094-1.094V40.56zm-2.187 3.281h-2.188v-2.187h2.188v2.187zm-6.563-3.281c0-.605-.489-1.094-1.093-1.094h-4.375c-.605 0-1.094.489-1.094 1.094v4.375c0 .605.489 1.094 1.093 1.094h4.375c.605 0 1.094-.49 1.094-1.094V40.56zm-2.187 3.281h-2.188v-2.187h2.188v2.187zM60.25 56.966h-4.375c-.605 0-1.094.489-1.094 1.094v4.375c0 .605.49 1.094 1.094 1.094h4.375c.605 0 1.094-.49 1.094-1.094V58.06c0-.605-.49-1.094-1.094-1.094zm-1.094 4.375H56.97v-2.187h2.187v2.187z" fill="#E64B13"/><path d="M65.719 65.716V27.435c0-.605-.49-1.094-1.094-1.094h-1.094V23.06c0-.605-.489-1.094-1.093-1.094H50.406v-3.281c0-.605-.489-1.094-1.093-1.094h-4.376v2.188h3.282v45.937h-8.75V58.06c0-.605-.49-1.094-1.094-1.094h-8.75c-.605 0-1.094.489-1.094 1.094v7.656h-8.75V19.78h3.282v-2.19h-4.375c-.605 0-1.094.489-1.094 1.094v3.281H5.562c-.604 0-1.093.489-1.093 1.094v3.281H3.375c-.605 0-1.094.489-1.094 1.094v38.281H.094v2.188h67.812v-2.188H65.72zm-4.375-41.562v2.187H50.406v-2.187h10.938zm-10.938 4.375h13.125v37.187H50.406V28.53zM30.72 59.154h6.562v6.562H30.72v-6.562zm-24.063-35h10.938v2.187H6.656v-2.187zM4.47 28.529h13.125v37.187H4.469V28.53z" fill="#E64B13"/><path d="M30.87 21.501l2.093 6.28a1.091 1.091 0 002.074 0l2.093-6.28a10.889 10.889 0 007.807-10.472C44.938 4.998 40.032.09 34 .09c-6.03 0-10.938 4.907-10.938 10.938 0 4.877 3.18 9.097 7.808 10.472zM34 2.28c4.825 0 8.75 3.925 8.75 8.75a8.71 8.71 0 01-6.723 8.503 1.095 1.095 0 00-.785.718L34 23.976l-1.242-3.725a1.093 1.093 0 00-.785-.717 8.712 8.712 0 01-6.723-8.505c0-4.825 3.925-8.75 8.75-8.75z" fill="#E64B13"/><path d="M34 17.591a6.57 6.57 0 006.563-6.562A6.57 6.57 0 0034 4.466a6.57 6.57 0 00-6.563 6.563A6.57 6.57 0 0034 17.59zm0-10.937a4.38 4.38 0 014.375 4.375A4.38 4.38 0 0134 15.404a4.38 4.38 0 01-4.375-4.375A4.38 4.38 0 0134 6.654z" fill="#E64B13"/></svg>