<svg width="20" height="21" fill="none" xmlns="http://www.w3.org/2000/svg"><path fill-rule="evenodd" clip-rule="evenodd" d="M19.634 17.925c-.133.133-.293.302-.462.481-.424.45-.954 1.009-1.285 1.236-1.746 1.192-4.082.622-5.734-.067-2.179-.908-4.552-2.581-6.682-4.712-2.132-2.13-3.806-4.504-4.714-6.682C.07 6.529-.503 4.193.691 2.447c.226-.333.787-.861 1.236-1.286.18-.169.348-.329.48-.461a1.258 1.258 0 011.775 0l3.212 3.21a1.258 1.258 0 010 1.775l-.875.874a1.912 1.912 0 00-.337 2.26 12.833 12.833 0 005.333 5.332 1.91 1.91 0 002.26-.338l.872-.874a1.258 1.258 0 011.775 0l3.212 3.212a1.258 1.258 0 010 1.774z" fill="#E64B13"/></svg>