<svg width="374" height="55" fill="none" xmlns="http://www.w3.org/2000/svg"><path d="M12.23 8.98C8.418 6.08 10.468 0 15.256 0h320.087a5 5 0 013.027 1.02l29.575 22.5c2.63 2.002 2.63 5.958 0 7.96l-29.575 22.5a5 5 0 01-3.027 1.02H15.257c-4.788 0-6.838-6.08-3.028-8.98l19.114-14.54c2.63-2.002 2.63-5.958 0-7.96L12.23 8.98z" fill="#E2EAE8"/><path d="M145.508 28.21c0 .922-.073 1.747-.219 2.476-.141.724-.365 1.34-.672 1.844-.307.505-.708.89-1.203 1.157-.495.265-1.094.398-1.797.398-.88 0-1.607-.232-2.18-.695-.572-.47-.997-1.141-1.273-2.016-.276-.88-.414-1.935-.414-3.164 0-1.23.125-2.281.375-3.156.255-.88.667-1.555 1.234-2.024.568-.469 1.321-.703 2.258-.703.886 0 1.615.234 2.188.703.578.464 1.005 1.136 1.281 2.016.281.875.422 1.93.422 3.164zm-5.906 0c0 .963.062 1.768.187 2.414.13.646.344 1.13.641 1.453.297.318.692.477 1.187.477.495 0 .891-.16 1.188-.477.297-.318.51-.8.64-1.445.136-.646.203-1.453.203-2.422 0-.958-.065-1.76-.195-2.406-.13-.646-.344-1.13-.641-1.453-.296-.328-.695-.493-1.195-.493-.5 0-.898.165-1.195.493-.292.323-.503.807-.633 1.453-.125.646-.187 1.448-.187 2.406zm12.726 5.719h-1.844v-7.352c0-.245.003-.49.008-.734l.016-.719c.01-.234.023-.458.039-.672-.11.12-.245.25-.406.39-.157.141-.323.287-.5.438l-1.313 1.047-.922-1.164 3.391-2.656h1.531v11.422zm4.086-.969c0-.427.109-.727.328-.898a1.27 1.27 0 01.813-.266c.317 0 .588.088.812.266.229.171.344.47.344.898 0 .417-.115.719-.344.906a1.246 1.246 0 01-.812.274c-.318 0-.589-.092-.813-.274-.219-.187-.328-.49-.328-.906z" fill="#E64B13"/><path d="M172.492 33.929l-1.117-3.172h-4.367l-1.117 3.172h-1.977l4.25-11.469h2.078l4.242 11.469h-1.992zm-1.601-4.782l-1.086-3.124a136.66 136.66 0 01-.414-1.328c-.079-.261-.144-.48-.196-.657a16.06 16.06 0 01-.195.719c-.073.26-.146.505-.219.734l-.156.532-1.094 3.125h3.36zm12.031 4.782h-1.852v-7.211h-2.398a39.852 39.852 0 01-.391 3.367c-.156.932-.351 1.693-.586 2.281-.234.584-.523 1.01-.867 1.282-.344.27-.758.406-1.242.406-.214 0-.406-.016-.578-.047a1.91 1.91 0 01-.461-.125v-1.445c.088.03.185.057.289.078.104.02.211.03.32.03.193 0 .37-.077.531-.233.167-.162.321-.414.461-.758.141-.344.269-.797.383-1.36a25.41 25.41 0 00.313-2.062 61.75 61.75 0 00.25-2.852h5.828v8.649zm8.242-8.649v1.446h-3.766v7.203h-1.843V25.28h5.609zm9.328 4.305c0 .719-.094 1.357-.281 1.914a3.845 3.845 0 01-.82 1.414c-.36.38-.792.672-1.297.875-.506.198-1.076.297-1.711.297a4.36 4.36 0 01-1.633-.297 3.717 3.717 0 01-1.289-.875 4.018 4.018 0 01-.836-1.414c-.198-.557-.297-1.195-.297-1.914 0-.953.164-1.76.492-2.422a3.513 3.513 0 011.422-1.523c.615-.35 1.346-.524 2.195-.524.797 0 1.5.175 2.11.524.609.349 1.086.856 1.43 1.523.343.667.515 1.474.515 2.422zm-6.273 0c0 .63.075 1.17.226 1.617.157.448.396.792.719 1.031.323.235.74.352 1.25.352s.927-.117 1.25-.352c.323-.24.56-.583.711-1.03.151-.449.227-.988.227-1.618 0-.63-.076-1.164-.227-1.602-.151-.442-.388-.778-.711-1.007-.323-.235-.742-.352-1.258-.352-.76 0-1.315.255-1.664.766-.349.51-.523 1.242-.523 2.195zm12.82-4.469c1.026 0 1.849.375 2.469 1.125.625.75.937 1.865.937 3.344 0 .98-.146 1.805-.437 2.477-.287.666-.69 1.171-1.211 1.515-.516.339-1.117.508-1.805.508-.437 0-.818-.057-1.14-.172a2.863 2.863 0 01-.829-.445 3.202 3.202 0 01-.578-.61h-.109c.026.209.049.44.07.696.026.25.039.479.039.687v3.524h-1.843V25.28h1.5l.257 1.196h.086a3.6 3.6 0 01.586-.68 2.61 2.61 0 01.844-.492 3.305 3.305 0 011.164-.188zm-.492 1.5c-.505 0-.912.102-1.219.305-.302.198-.523.497-.664.898-.135.401-.208.904-.219 1.508v.258c0 .64.065 1.185.196 1.633.135.442.356.781.664 1.015.312.23.734.344 1.265.344.448 0 .818-.122 1.11-.367.297-.245.518-.594.664-1.047.146-.453.218-.987.218-1.602 0-.932-.166-1.656-.5-2.171-.328-.516-.833-.774-1.515-.774zm7.789-1.336v4.414c0 .141-.005.32-.016.54-.005.213-.015.437-.031.671a49.69 49.69 0 01-.086 1.063l4.352-6.688h2.234v8.649h-1.758V29.56c0-.229.005-.494.016-.796.015-.302.031-.594.047-.875.021-.282.034-.495.039-.641l-4.336 6.68h-2.227V25.28h1.766zm15.625 1.446h-2.844v7.203h-1.828v-7.203h-2.828V25.28h7.5v1.446zm11.695-1.446v8.649h-1.703V28.99a21.754 21.754 0 01.086-1.89h-.047l-2.633 6.828h-1.445l-2.609-6.836h-.055c.026.297.044.604.055.922.015.317.023.661.023 1.03v4.884h-1.703V25.28h2.562l2.469 6.461 2.508-6.46h2.492z" fill="#000"/></svg>