<svg width="798" height="742" fill="none" xmlns="http://www.w3.org/2000/svg"><g clip-path="url(#clip0_1_2228)"><path d="M.306.197h797v741h-797v-741z" fill="#fff"/><path d="M327.549 3.34a5 5 0 014.643-3.143h149.229c3.538 0 5.956 3.572 4.643 6.857l-16 40a5.001 5.001 0 01-4.643 3.143H316.192c-3.538 0-5.957-3.573-4.643-6.857l16-40z" fill="url(#paint0_linear_1_2228)"/><path d="M363.369 31.697l2.414-11.422h3.328c.729 0 1.365.086 1.906.258.542.166.961.437 1.258.812.302.37.453.86.453 1.469 0 .516-.099.974-.297 1.375a2.62 2.62 0 01-.843.992c-.37.26-.821.448-1.352.563v.062c.521.136.935.388 1.242.758.313.364.469.833.469 1.406 0 .865-.198 1.573-.594 2.125-.396.547-.935.95-1.617 1.211-.677.26-1.44.39-2.289.39h-4.078zm2.805-2h1.406c.39 0 .732-.065 1.023-.195.292-.13.519-.323.68-.579.167-.255.25-.567.25-.937 0-.401-.12-.711-.359-.93-.235-.224-.592-.336-1.071-.336h-1.289l-.64 2.977zm1.039-4.899h1.164c.38 0 .711-.05.992-.148.286-.104.508-.263.664-.477.156-.218.234-.5.234-.843 0-.355-.109-.62-.328-.797-.219-.183-.552-.274-1-.274h-1.187l-.539 2.54zm9.742 7.055c-.781 0-1.422-.151-1.922-.453a2.78 2.78 0 01-1.102-1.234c-.234-.521-.351-1.11-.351-1.766 0-.6.06-1.151.18-1.656.119-.51.289-.966.507-1.367.224-.402.49-.743.797-1.024a3.379 3.379 0 012.289-.867c.365 0 .685.065.961.195.276.125.513.297.711.516.203.213.373.453.508.719h.062c.011-.089.016-.183.016-.282V24.4c0-1.047-.161-1.813-.484-2.297-.323-.484-.849-.727-1.578-.727-.245 0-.513.03-.805.086a4.022 4.022 0 00-.781.235l-.493-1.86a5.741 5.741 0 011.133-.28 8.17 8.17 0 011.313-.102c.958 0 1.734.205 2.328.617.599.406 1.036.982 1.312 1.726.282.745.422 1.628.422 2.649 0 .604-.041 1.206-.125 1.805-.078.593-.2 1.166-.367 1.718a7.727 7.727 0 01-.648 1.54c-.266.468-.586.88-.961 1.234-.37.349-.797.622-1.282.82-.484.193-1.031.289-1.64.289zm.133-1.914c.265 0 .505-.063.718-.188.214-.125.401-.296.563-.515a3.36 3.36 0 00.43-.766c.125-.291.229-.604.312-.937.089-.339.159-.685.211-1.04a1.964 1.964 0 00-.297-.609 1.365 1.365 0 00-.469-.43 1.265 1.265 0 00-.64-.156c-.245 0-.469.05-.672.149a1.704 1.704 0 00-.547.43 2.55 2.55 0 00-.414.664c-.109.26-.193.554-.25.882a6.076 6.076 0 00-.086 1.055c0 .458.099.818.297 1.078.198.255.479.383.844.383zm9.289 1.914c-.766 0-1.373-.112-1.821-.336-.442-.23-.757-.534-.945-.914a2.914 2.914 0 01-.281-1.289 7.88 7.88 0 01.18-1.477l1.054-4.875h2.352l-.766 3.547c.208-.047.445-.086.711-.117.271-.036.563-.055.875-.055.474 0 .893.097 1.258.29.37.187.659.455.867.804.214.344.32.753.32 1.227 0 .541-.13 1.057-.39 1.547-.261.49-.672.888-1.235 1.195-.557.302-1.283.453-2.179.453zm.187-1.64a1.316 1.316 0 00.914-.352c.115-.115.201-.253.258-.414a1.45 1.45 0 00.094-.531c0-.209-.037-.38-.11-.516a.678.678 0 00-.328-.313 1.272 1.272 0 00-.539-.101c-.161 0-.325.013-.492.039a4.75 4.75 0 00-.531.102c-.063.28-.104.489-.125.625a3.25 3.25 0 00-.031.5c0 .343.088.59.265.742a.954.954 0 00.625.218zm4.305 1.484l1.859-8.735h2.352l-1.86 8.735h-2.351zm3.711 0l3.742-4.477-1.758-4.258h2.508l.898 2.61 1.907-2.61h2.765l-3.648 4.383 1.906 4.352h-2.547l-.976-2.672-2.063 2.672h-2.734zm12.453.156c-.422 0-.82-.104-1.195-.313-.375-.208-.683-.544-.922-1.007-.235-.464-.352-1.078-.352-1.844 0-.573.06-1.14.18-1.703a7.964 7.964 0 01.531-1.594 5.86 5.86 0 01.844-1.336c.333-.39.708-.698 1.125-.922a2.872 2.872 0 011.367-.336c.37 0 .693.055.969.164.276.105.513.253.711.446.198.192.359.416.484.672h.063l.445-1.118h1.812l-1.859 8.735h-1.758l.11-1.133h-.063c-.208.255-.435.48-.68.672a2.943 2.943 0 01-.812.453c-.297.11-.63.164-1 .164zm.922-1.898c.323 0 .622-.125.898-.375.276-.256.513-.586.711-.993a4.96 4.96 0 00.422-1.289c.042-.208.07-.416.086-.625.021-.213.031-.442.031-.687 0-.37-.099-.675-.297-.914-.192-.245-.458-.367-.796-.367-.23 0-.448.075-.657.226a2.29 2.29 0 00-.562.61 4.497 4.497 0 00-.453.882 5.881 5.881 0 00-.289 1.047c-.068.37-.102.74-.102 1.11 0 .453.089.797.266 1.03.177.23.424.345.742.345zm9.578 1.898c-.682 0-1.284-.122-1.805-.367a2.782 2.782 0 01-1.211-1.125c-.291-.5-.437-1.128-.437-1.883 0-.73.104-1.432.312-2.11a5.742 5.742 0 01.93-1.827 4.586 4.586 0 011.531-1.274c.61-.312 1.313-.469 2.11-.469.979 0 1.711.224 2.195.672.49.443.734 1.013.734 1.711 0 .459-.104.875-.312 1.25-.203.375-.513.698-.93.969-.417.266-.94.471-1.57.617-.63.14-1.37.211-2.219.211h-.398l-.016.164v.156c0 .47.135.842.406 1.118.271.276.654.414 1.149.414.458 0 .875-.052 1.25-.157a8.715 8.715 0 001.328-.515v1.773a6.843 6.843 0 01-1.399.508 7.384 7.384 0 01-1.648.164zm-.813-5.21h.352c.604 0 1.094-.066 1.469-.196.38-.13.656-.302.828-.516.177-.213.266-.445.266-.695 0-.25-.073-.435-.219-.555-.141-.125-.341-.187-.602-.187-.291 0-.581.09-.867.273a2.633 2.633 0 00-.758.758 3.213 3.213 0 00-.469 1.117zm5.93 5.054l1.844-8.735h3.242l.336 6.094h.047l3.141-6.094h3.343l-1.875 8.735h-2.172l.961-4.32c.089-.407.18-.797.274-1.172.099-.375.182-.683.25-.922h-.047l-3.313 6.414h-2.257l-.352-6.414h-.031c-.052.427-.112.815-.18 1.164-.062.344-.13.685-.203 1.023l-.844 4.227h-2.164z" fill="#fff"/><path d="M327.549 694.34a5 5 0 014.643-3.143h149.229c3.538 0 5.956 3.572 4.643 6.857l-16 40a5.001 5.001 0 01-4.643 3.143H316.192c-3.538 0-5.957-3.573-4.643-6.857l16-40z" fill="url(#paint1_linear_1_2228)"/><path d="M357.439 722.697l2.414-11.422h3.328c.73 0 1.365.086 1.907.258.541.166.961.437 1.257.812.303.37.454.86.454 1.469 0 .516-.099.974-.297 1.375a2.615 2.615 0 01-.844.992c-.37.261-.82.448-1.352.563v.062c.521.136.935.388 1.243.758.312.365.468.833.468 1.406 0 .865-.198 1.573-.593 2.125-.396.547-.935.951-1.618 1.211-.677.261-1.44.391-2.289.391h-4.078zm2.805-2h1.406c.391 0 .732-.065 1.024-.196.291-.13.518-.322.679-.578.167-.255.25-.567.25-.937 0-.401-.12-.711-.359-.93-.234-.224-.591-.336-1.07-.336h-1.289l-.641 2.977zm1.039-4.899h1.164c.38 0 .711-.049.992-.148.287-.104.508-.263.664-.477.157-.218.235-.5.235-.843 0-.355-.11-.62-.328-.797-.219-.183-.553-.274-1-.274h-1.188l-.539 2.539zm9.539 7.055c-.766 0-1.372-.112-1.82-.336-.443-.229-.758-.534-.946-.914a2.913 2.913 0 01-.281-1.289 7.913 7.913 0 01.18-1.477l1.055-4.875h2.351l-.766 3.547a6.94 6.94 0 01.711-.117c.271-.036.563-.055.875-.055.474 0 .894.097 1.258.289.37.188.659.456.867.805.214.344.321.753.321 1.227 0 .541-.13 1.057-.391 1.547-.26.489-.672.888-1.234 1.195-.558.302-1.284.453-2.18.453zm.188-1.641a1.324 1.324 0 00.914-.351c.114-.115.2-.253.257-.414.063-.162.094-.339.094-.531 0-.209-.036-.381-.109-.516a.688.688 0 00-.328-.313 1.29 1.29 0 00-.539-.101c-.162 0-.326.013-.493.039a5.232 5.232 0 00-.531.101c-.062.282-.104.49-.125.625a3.26 3.26 0 00-.031.5c0 .344.088.592.266.743a.956.956 0 00.625.218zm4.304 1.485l1.86-8.735h2.351l-1.859 8.735h-2.352zm8.571.156c-.782 0-1.422-.151-1.922-.453a2.783 2.783 0 01-1.102-1.234c-.234-.521-.351-1.11-.351-1.766 0-.599.059-1.151.179-1.656.12-.511.289-.966.508-1.368a4.05 4.05 0 01.797-1.023 3.296 3.296 0 011.047-.641 3.37 3.37 0 011.242-.226c.365 0 .685.065.961.195.276.125.513.297.711.516.203.213.372.453.508.719h.062c.011-.089.016-.183.016-.282v-.234c0-1.047-.162-1.813-.485-2.297-.323-.484-.849-.727-1.578-.727-.245 0-.513.029-.804.086a4.103 4.103 0 00-.782.235l-.492-1.86a5.76 5.76 0 011.133-.281 8.145 8.145 0 011.312-.101c.959 0 1.735.205 2.329.617.599.406 1.036.982 1.312 1.726.281.745.422 1.628.422 2.649 0 .604-.042 1.206-.125 1.804a10.877 10.877 0 01-.367 1.719 7.673 7.673 0 01-.649 1.539c-.265.469-.586.88-.961 1.235a4.1 4.1 0 01-1.281.82c-.484.193-1.031.289-1.64.289zm.132-1.914c.266 0 .506-.063.719-.188.214-.125.401-.296.563-.515a3.4 3.4 0 00.429-.766 6.24 6.24 0 00.313-.937c.088-.339.159-.685.211-1.039a1.957 1.957 0 00-.297-.61 1.364 1.364 0 00-.469-.429 1.261 1.261 0 00-.641-.157c-.244 0-.468.05-.671.149a1.699 1.699 0 00-.547.429c-.162.183-.3.404-.414.665-.11.26-.193.554-.25.882a5.985 5.985 0 00-.086 1.055c0 .458.099.818.297 1.078.198.255.479.383.843.383zm9.289 1.914c-.765 0-1.372-.112-1.82-.336-.443-.229-.758-.534-.945-.914a2.899 2.899 0 01-.281-1.289 8.137 8.137 0 01.179-1.477l1.055-4.875h2.351l-.765 3.547c.208-.047.445-.086.711-.117.271-.036.562-.055.875-.055.474 0 .893.097 1.258.289a2.1 2.1 0 01.867.805c.213.344.32.753.32 1.227 0 .541-.13 1.057-.391 1.547-.26.489-.671.888-1.234 1.195-.557.302-1.284.453-2.18.453zm.188-1.641c.187 0 .357-.031.508-.093a1.28 1.28 0 00.406-.258c.115-.115.2-.253.258-.414.062-.162.094-.339.094-.531 0-.209-.037-.381-.11-.516a.683.683 0 00-.328-.313 1.287 1.287 0 00-.539-.101c-.161 0-.326.013-.492.039a5.13 5.13 0 00-.531.101 9.83 9.83 0 00-.125.625 3.243 3.243 0 00-.032.5c0 .344.089.592.266.743a.956.956 0 00.625.218zm4.305 1.485l1.859-8.735h2.352l-1.86 8.735h-2.351zm3.711 0l3.742-4.477-1.758-4.258h2.508l.898 2.61 1.906-2.61h2.766l-3.648 4.383 1.906 4.352h-2.547l-.977-2.672-2.062 2.672h-2.734zm12.453.156a2.43 2.43 0 01-1.196-.312c-.375-.209-.682-.545-.922-1.008-.234-.464-.351-1.078-.351-1.844 0-.573.06-1.141.18-1.703a7.956 7.956 0 01.531-1.594 5.81 5.81 0 01.844-1.336c.333-.39.708-.698 1.125-.922a2.867 2.867 0 011.367-.336c.37 0 .692.055.969.164.276.105.513.253.71.446.198.192.36.416.485.672h.062l.446-1.118h1.812l-1.859 8.735h-1.758l.109-1.133h-.062a4.358 4.358 0 01-.68.672 2.939 2.939 0 01-.812.453 2.89 2.89 0 01-1 .164zm.922-1.898c.322 0 .622-.125.898-.375.276-.256.513-.586.711-.993a5.01 5.01 0 00.422-1.289c.041-.208.07-.416.086-.625.021-.213.031-.442.031-.687 0-.37-.099-.675-.297-.914-.193-.245-.458-.367-.797-.367a1.1 1.1 0 00-.656.226 2.29 2.29 0 00-.563.61 4.608 4.608 0 00-.453.882 6.219 6.219 0 00-.39 2.157c0 .453.088.796.265 1.031.177.229.425.344.743.344zm9.578 1.898c-.683 0-1.284-.122-1.805-.367a2.776 2.776 0 01-1.211-1.125c-.292-.5-.437-1.128-.437-1.883 0-.729.104-1.432.312-2.109a5.688 5.688 0 01.93-1.828 4.577 4.577 0 011.531-1.274c.609-.312 1.312-.469 2.109-.469.98 0 1.711.224 2.196.672.489.443.734 1.013.734 1.711 0 .458-.104.875-.312 1.25-.204.375-.513.698-.93.969-.417.266-.94.471-1.57.617-.631.141-1.37.211-2.219.211h-.399l-.015.164v.156c0 .469.135.841.406 1.118.271.276.654.414 1.148.414.459 0 .875-.052 1.25-.157a8.763 8.763 0 001.329-.515v1.773a6.884 6.884 0 01-1.399.508 7.402 7.402 0 01-1.648.164zm-.813-5.211h.352c.604 0 1.093-.065 1.468-.195.381-.13.657-.302.829-.516.177-.213.265-.445.265-.695 0-.25-.073-.435-.219-.555-.14-.125-.341-.187-.601-.187a1.6 1.6 0 00-.867.273 2.616 2.616 0 00-.758.758 3.212 3.212 0 00-.469 1.117zm5.93 5.055l1.844-8.735h3.242l.336 6.094h.047l3.14-6.094h3.344l-1.875 8.735h-2.172l.961-4.321c.089-.406.18-.796.273-1.171.099-.375.183-.683.25-.922h-.046l-3.313 6.414h-2.258l-.351-6.414h-.032c-.052.427-.112.815-.179 1.164-.063.344-.13.685-.203 1.023l-.844 4.227h-2.164z" fill="#fff"/><rect x=".806" y="52.255" width="199" height="50" rx="4.5" fill="#fff"/><path d="M37.447 83.912c-.625 0-1.19-.05-1.695-.149a4.619 4.619 0 01-1.407-.5v-2.117c.36.198.704.352 1.032.46.328.11.64.186.937.228.302.041.589.062.86.062.604 0 1.13-.11 1.578-.328a3.05 3.05 0 001.14-.977c.313-.432.57-.966.774-1.601h-4.211l.414-1.985h4.117c.01-.067.016-.132.016-.195v-.203c0-.537-.076-.984-.227-1.344a1.63 1.63 0 00-.672-.812c-.297-.188-.669-.282-1.117-.282-.463 0-.88.055-1.25.165a13.02 13.02 0 00-1.265.445l-.625-1.922a9.063 9.063 0 011.632-.508 8.26 8.26 0 011.805-.195c.911 0 1.674.174 2.289.523a3.288 3.288 0 011.39 1.508c.313.656.47 1.45.47 2.383 0 .687-.074 1.38-.22 2.078a8.47 8.47 0 01-.663 1.984 6.456 6.456 0 01-1.164 1.688 5.167 5.167 0 01-1.688 1.164c-.651.286-1.401.43-2.25.43zm6.79-.157l1.866-8.734h2.36l-.867 4.063 3.437-4.063h2.688l-3.743 4.383 2.164 4.351h-2.64l-2-4.257-.914 4.257h-2.352zm12.913.157a4.117 4.117 0 01-1.648-.32 2.61 2.61 0 01-1.172-1.032c-.287-.474-.43-1.094-.43-1.86 0-.63.065-1.234.196-1.812.13-.578.322-1.112.578-1.601.255-.49.57-.914.945-1.274a4.116 4.116 0 011.289-.851 4.143 4.143 0 011.617-.305c.521 0 .987.05 1.399.148.416.1.804.237 1.164.414l-.72 1.79a9.748 9.748 0 00-.827-.313 2.963 2.963 0 00-.922-.133c-.37 0-.7.107-.992.32-.287.214-.532.5-.735.86-.198.36-.349.763-.453 1.21a5.88 5.88 0 00-.156 1.352c0 .329.052.605.156.829.11.224.263.393.461.507.203.115.446.172.727.172.395 0 .763-.06 1.101-.18a9.898 9.898 0 001.047-.46v1.921a5.432 5.432 0 01-1.18.454 5.786 5.786 0 01-1.445.164zm4.07-.157l1.852-8.734h1.797l-.164 1.617h.07a5.28 5.28 0 01.742-.922c.271-.265.57-.474.899-.625a2.582 2.582 0 011.11-.234c.5 0 .916.104 1.25.312.338.204.59.493.757.868.167.375.25.82.25 1.336 0 .192-.016.408-.047.648a8.93 8.93 0 01-.133.758l-1.039 4.976h-2.351l1.07-5.101c.042-.177.073-.344.094-.5.02-.156.031-.3.031-.43 0-.328-.07-.57-.211-.726-.14-.157-.352-.235-.633-.235-.354 0-.674.154-.96.461-.287.302-.537.709-.75 1.219a10.31 10.31 0 00-.516 1.695l-.766 3.617H61.22zm8.852 3.844l2.672-12.578h1.797l-.133 1.328h.07c.183-.25.394-.49.633-.719.24-.229.513-.414.82-.554a2.357 2.357 0 011.024-.22c.422 0 .82.105 1.195.313.375.209.68.547.914 1.016.235.464.352 1.083.352 1.86 0 .567-.063 1.132-.188 1.695a7.538 7.538 0 01-.531 1.594c-.23.5-.51.945-.844 1.335-.328.386-.7.69-1.117.915a2.897 2.897 0 01-1.367.328c-.354 0-.654-.055-.898-.164a1.913 1.913 0 01-.626-.461 4.362 4.362 0 01-.46-.649h-.063a15.898 15.898 0 01-.335 2.304l-.563 2.657h-2.352zm4.898-5.586c.23 0 .448-.073.657-.219.208-.15.398-.354.57-.609a4.5 4.5 0 00.445-.883 6.186 6.186 0 00.391-2.164c0-.458-.086-.802-.258-1.031-.166-.23-.422-.344-.766-.344-.25 0-.479.065-.687.195-.203.13-.383.305-.539.524a3.736 3.736 0 00-.406.742 5.57 5.57 0 00-.281.844 7.731 7.731 0 00-.165.844c-.03.27-.046.513-.046.726 0 .412.096.745.289 1 .197.25.463.375.796.375zm9.32 1.899c-.681 0-1.283-.123-1.804-.368a2.777 2.777 0 01-1.21-1.125c-.292-.5-.438-1.127-.438-1.882 0-.73.104-1.433.312-2.11a5.722 5.722 0 01.93-1.828c.416-.536.927-.96 1.531-1.273.61-.313 1.313-.47 2.11-.47.979 0 1.71.225 2.195.673.49.443.734 1.013.734 1.71 0 .46-.104.876-.312 1.25-.203.376-.513.699-.93.97-.417.265-.94.47-1.57.617-.63.14-1.37.21-2.22.21h-.397l-.016.165v.156c0 .469.135.841.406 1.117.27.276.654.414 1.148.414.459 0 .876-.052 1.25-.156a8.691 8.691 0 001.329-.516v1.774a6.84 6.84 0 01-1.399.508 7.387 7.387 0 01-1.648.164zm-.812-5.211h.352c.604 0 1.094-.065 1.469-.196.38-.13.656-.302.828-.515a1.07 1.07 0 00.265-.696c0-.25-.073-.434-.218-.554-.141-.125-.342-.188-.602-.188-.292 0-.58.091-.867.274a2.625 2.625 0 00-.758.758 3.213 3.213 0 00-.469 1.117zm9.532 5.21a4.117 4.117 0 01-1.649-.32 2.61 2.61 0 01-1.172-1.03c-.286-.475-.43-1.095-.43-1.86 0-.63.066-1.235.196-1.813a6.56 6.56 0 01.578-1.601c.255-.49.57-.914.945-1.274a4.117 4.117 0 011.29-.851 4.144 4.144 0 011.617-.305c.52 0 .986.05 1.398.148.417.1.805.237 1.164.414l-.719 1.79a10.2 10.2 0 00-.828-.313 2.962 2.962 0 00-.922-.133c-.37 0-.7.107-.992.32-.286.214-.531.5-.734.86-.198.36-.35.763-.453 1.21a5.88 5.88 0 00-.157 1.352c0 .329.052.605.157.829.109.224.263.393.46.507.204.115.446.172.727.172.396 0 .763-.06 1.102-.18a9.9 9.9 0 001.047-.46v1.921a5.433 5.433 0 01-1.18.454 5.78 5.78 0 01-1.445.164zm7.734 0a4.118 4.118 0 01-1.648-.32 2.61 2.61 0 01-1.172-1.03c-.287-.475-.43-1.095-.43-1.86 0-.63.065-1.235.195-1.813a6.56 6.56 0 01.578-1.601c.255-.49.57-.914.946-1.274a4.11 4.11 0 011.289-.851 4.14 4.14 0 011.617-.305c.521 0 .987.05 1.398.148.417.1.805.237 1.164.414l-.718 1.79c-.282-.12-.558-.225-.828-.313a2.967 2.967 0 00-.922-.133c-.37 0-.701.107-.993.32-.286.214-.531.5-.734.86-.198.36-.349.763-.453 1.21a5.88 5.88 0 00-.156 1.352c0 .329.052.605.156.829.109.224.263.393.461.507.203.115.445.172.726.172.396 0 .763-.06 1.102-.18a9.829 9.829 0 001.047-.46v1.921a5.441 5.441 0 01-1.18.454 5.792 5.792 0 01-1.445.164zm4.101-3.468l.415-1.953h4.093l-.414 1.953h-4.094zm8.008 3.469c-.422 0-.82-.105-1.195-.313-.375-.208-.682-.544-.922-1.008-.234-.463-.351-1.078-.351-1.843 0-.573.059-1.141.179-1.704a7.964 7.964 0 01.531-1.593c.235-.505.516-.95.844-1.336a3.93 3.93 0 011.125-.922 2.872 2.872 0 011.367-.336c.37 0 .693.055.969.164.276.104.513.253.711.445.198.193.359.417.484.672h.063l.445-1.117h1.813l-1.86 8.734h-1.757l.109-1.132h-.063a4.33 4.33 0 01-.679.671 2.963 2.963 0 01-.813.454c-.297.109-.63.164-1 .164zm.922-1.899c.323 0 .623-.125.899-.375.276-.255.513-.586.711-.992a5.01 5.01 0 00.421-1.29c.042-.207.071-.416.086-.624a7.05 7.05 0 00.032-.688c0-.37-.099-.674-.297-.914-.193-.244-.459-.367-.797-.367a1.1 1.1 0 00-.656.227 2.28 2.28 0 00-.563.61 4.469 4.469 0 00-.453.882 5.966 5.966 0 00-.289 1.047c-.068.37-.102.74-.102 1.11 0 .452.089.796.266 1.03.177.23.424.344.742.344zm5.711 1.742l1.867-8.734h2.375l-.726 3.36h2.726l.703-3.36h2.352l-1.859 8.734h-2.352l.75-3.601h-2.703l-.766 3.601h-2.367zm12.742.157c-.422 0-.82-.105-1.195-.313-.375-.208-.682-.544-.922-1.008-.234-.463-.351-1.078-.351-1.843 0-.573.059-1.141.179-1.704a7.964 7.964 0 01.531-1.593c.235-.505.516-.95.844-1.336a3.93 3.93 0 011.125-.922 2.872 2.872 0 011.367-.336c.37 0 .693.055.969.164.276.104.513.253.711.445.198.193.359.417.484.672h.063l.445-1.117h1.813l-1.86 8.734h-1.757l.109-1.132h-.063a4.33 4.33 0 01-.679.671 2.963 2.963 0 01-.813.454c-.297.109-.63.164-1 .164zm.922-1.899c.323 0 .623-.125.899-.375.276-.255.513-.586.711-.992a5.01 5.01 0 00.421-1.29c.042-.207.071-.416.086-.624a7.05 7.05 0 00.032-.688c0-.37-.099-.674-.297-.914-.193-.244-.459-.367-.797-.367a1.1 1.1 0 00-.656.227 2.28 2.28 0 00-.563.61 4.469 4.469 0 00-.453.882 5.966 5.966 0 00-.289 1.047c-.068.37-.102.74-.102 1.11 0 .452.089.796.266 1.03.177.23.424.344.742.344zm6.125 1.899a3.64 3.64 0 01-.625-.047 2.652 2.652 0 01-.539-.14v-1.938c.109.046.216.08.32.101.105.016.217.024.336.024a.742.742 0 00.532-.22 2.05 2.05 0 00.406-.593c.125-.255.245-.547.359-.875l.367-1.047c.261-.734.516-1.372.766-1.914.255-.547.555-.997.898-1.351a3.152 3.152 0 011.29-.79c.52-.177 1.177-.265 1.968-.265.542 0 1.052.047 1.532.14.479.094.869.198 1.171.313l-1.773 8.445h-2.352l1.469-6.914a3.435 3.435 0 00-.242-.039 1.271 1.271 0 00-.25-.023c-.427 0-.771.122-1.031.367-.255.245-.482.61-.68 1.094a28.302 28.302 0 00-.656 1.789 31.34 31.34 0 01-.539 1.508 6.44 6.44 0 01-.617 1.242c-.23.354-.513.633-.852.836-.339.198-.758.297-1.258.297zm12.227 0c-.5 0-.914-.102-1.242-.305a1.85 1.85 0 01-.735-.867c-.161-.38-.242-.826-.242-1.336a9.968 9.968 0 01.187-1.664l.993-4.719h2.351l-1.07 5.102c-.037.177-.068.343-.094.5a3.232 3.232 0 00-.031.43c0 .327.07.57.211.726.14.156.351.234.633.234.359 0 .679-.15.961-.453.286-.307.536-.716.75-1.227.213-.515.385-1.08.515-1.695l.766-3.617h2.351l-1.851 8.734h-1.797l.164-1.617h-.086a5.689 5.689 0 01-.742.922 3.077 3.077 0 01-.891.625 2.602 2.602 0 01-1.101.227zm9.687 0c-.588 0-1.14-.058-1.656-.172-.516-.115-.932-.253-1.25-.414v-1.938c.354.177.771.336 1.25.477.484.14 1.01.21 1.578.21.37 0 .706-.033 1.008-.1.307-.069.552-.183.734-.345.183-.166.274-.395.274-.687 0-.297-.115-.524-.344-.68-.229-.156-.573-.234-1.031-.234h-1.375l.351-1.649h.977c.443 0 .812-.028 1.109-.086.297-.062.518-.164.664-.304.151-.146.227-.347.227-.602 0-.245-.089-.432-.266-.562-.177-.136-.489-.203-.937-.203-.349 0-.742.057-1.18.171a9.144 9.144 0 00-1.281.446l-.563-1.711a11.07 11.07 0 011.617-.485 8.46 8.46 0 011.821-.187 5.46 5.46 0 011.609.219c.474.146.847.377 1.117.695.276.313.414.73.414 1.25 0 .422-.091.773-.273 1.055-.177.28-.419.51-.727.687a4.38 4.38 0 01-1.031.414v.063c.432.12.787.32 1.063.601.281.282.422.67.422 1.164 0 .579-.154 1.086-.461 1.524-.308.437-.779.779-1.414 1.023-.636.24-1.451.36-2.446.36z" fill="#E64B13"/><rect x=".806" y="52.255" width="199" height="50" rx="4.5" stroke="url(#paint2_linear_1_2228)"/><rect x=".806" y="296.256" width="199" height="50" rx="4.5" fill="#fff"/><path d="M73.275 327.756l5.984-11.422h2.915l1.148 11.422h-2.32l-.188-2.719H77.12l-1.344 2.719h-2.5zm4.82-4.75h2.602l-.203-2.945-.063-.946a10.17 10.17 0 01-.015-.976h-.04a9.823 9.823 0 01-.343.859c-.13.287-.276.591-.438.914l-1.5 3.094zm6.235 8.594c-.281 0-.51-.016-.688-.047a4.045 4.045 0 01-.46-.102v-1.875c.135.026.275.05.421.071.14.021.302.031.485.031.494 0 .903-.146 1.226-.438a3.92 3.92 0 00.844-1.101l.203-.383-1.281-8.734h2.305l.437 4.047c.026.239.044.497.055.773.015.271.026.539.031.805.005.265.008.502.008.711h.062c.073-.177.146-.375.219-.594a13.456 13.456 0 01.633-1.539l2.031-4.203h2.555l-5.313 9.984c-.312.589-.664 1.076-1.054 1.461a3.784 3.784 0 01-1.258.852c-.453.187-.94.281-1.461.281zm12.344-3.688c-.782 0-1.422-.151-1.922-.453a2.776 2.776 0 01-1.102-1.234c-.234-.521-.351-1.11-.351-1.766 0-.599.06-1.151.18-1.656.12-.51.288-.966.507-1.367.224-.401.49-.742.797-1.024a3.304 3.304 0 011.047-.64c.385-.151.8-.227 1.242-.227.365 0 .685.065.961.195.276.125.513.297.71.516.204.214.373.453.509.719h.062c.01-.089.016-.182.016-.281v-.235c0-1.047-.162-1.812-.484-2.297-.324-.484-.85-.726-1.579-.726a4.13 4.13 0 00-.804.086 4.025 4.025 0 00-.782.234l-.492-1.859a5.756 5.756 0 011.133-.282 8.262 8.262 0 011.313-.101c.958 0 1.734.206 2.328.617.599.406 1.036.982 1.312 1.727.281.744.422 1.627.422 2.648 0 .604-.042 1.206-.125 1.805a10.79 10.79 0 01-.367 1.719 7.673 7.673 0 01-.649 1.539c-.265.468-.585.88-.96 1.234-.37.349-.797.622-1.282.82-.484.193-1.031.289-1.64.289zm.132-1.914a1.4 1.4 0 00.72-.187c.213-.125.4-.297.562-.516a3.38 3.38 0 00.43-.765c.124-.292.228-.605.312-.938.088-.339.159-.685.21-1.039a1.952 1.952 0 00-.296-.609 1.361 1.361 0 00-.469-.43 1.27 1.27 0 00-.64-.156c-.245 0-.47.049-.672.148a1.702 1.702 0 00-.547.43c-.162.182-.3.403-.414.664-.11.26-.193.555-.25.883a6.04 6.04 0 00-.086 1.054c0 .459.099.818.297 1.078.198.256.479.383.843.383zm8.5 1.914c-.5 0-.914-.101-1.242-.304a1.85 1.85 0 01-.734-.868c-.162-.38-.242-.825-.242-1.335 0-.193.015-.441.047-.743.031-.302.078-.609.14-.922l.992-4.718h2.352l-1.07 5.101c-.037.177-.068.344-.094.5-.021.157-.031.3-.031.43 0 .328.07.57.211.727.14.156.351.234.632.234.36 0 .68-.151.961-.453.287-.308.537-.716.75-1.227a9.596 9.596 0 00.516-1.695l.766-3.617h2.351l-1.851 8.734h-1.797l.164-1.617h-.086a5.735 5.735 0 01-.742.922 3.086 3.086 0 01-.891.625 2.604 2.604 0 01-1.102.226zm6.875-.156l1.852-8.734h1.797l-.164 1.617h.07a5.28 5.28 0 01.742-.922 3.17 3.17 0 01.899-.625 2.583 2.583 0 011.109-.234c.599 0 1.063.159 1.391.476.333.313.552.748.656 1.305h.062c.219-.349.467-.656.743-.922.276-.266.583-.474.922-.625a2.668 2.668 0 011.117-.234c.729 0 1.273.226 1.633.679.364.453.546 1.065.546 1.836 0 .193-.015.409-.046.649a9.887 9.887 0 01-.133.758l-1.039 4.976h-2.352l1.078-5.101c.042-.178.073-.344.094-.5.021-.157.031-.3.031-.43 0-.328-.065-.57-.195-.727-.125-.156-.315-.234-.57-.234-.271 0-.521.086-.75.258a2.51 2.51 0 00-.625.718 5.794 5.794 0 00-.5 1.071c-.141.406-.258.844-.352 1.312l-.75 3.633h-2.352l1.071-5.101a5.53 5.53 0 00.094-.5c.02-.157.031-.3.031-.43 0-.328-.065-.57-.196-.727-.125-.156-.315-.234-.57-.234-.265 0-.513.088-.742.266a2.592 2.592 0 00-.625.734 5.818 5.818 0 00-.5 1.07c-.141.406-.26.841-.359 1.305l-.766 3.617h-2.352z" fill="#E64B13"/><rect x=".806" y="296.256" width="199" height="50" rx="4.5" stroke="url(#paint3_linear_1_2228)"/><rect x=".806" y="541.095" width="199" height="50" rx="4.5" fill="#fff"/><path d="M33.54 572.595l2.415-11.422h3.328c.73 0 1.364.086 1.906.258.542.167.961.438 1.258.813.302.369.453.859.453 1.468 0 .516-.099.974-.297 1.375a2.624 2.624 0 01-.843.993c-.37.26-.82.448-1.352.562v.063c.52.135.935.388 1.242.757.313.365.469.834.469 1.407 0 .864-.198 1.573-.594 2.125-.396.547-.935.95-1.617 1.211-.677.26-1.44.39-2.29.39h-4.077zm2.806-2h1.406c.39 0 .731-.065 1.023-.195a1.51 1.51 0 00.68-.578c.166-.255.25-.568.25-.938 0-.401-.12-.711-.36-.929-.234-.224-.59-.336-1.07-.336h-1.289l-.64 2.976zm1.039-4.898h1.164c.38 0 .71-.05.992-.149.286-.104.508-.263.664-.476.156-.219.234-.5.234-.844 0-.354-.11-.62-.328-.797-.219-.182-.552-.273-1-.273h-1.187l-.54 2.539zm9.71 7.054c-.656 0-1.236-.135-1.742-.406a2.963 2.963 0 01-1.18-1.156c-.28-.505-.421-1.104-.421-1.797 0-.62.06-1.211.18-1.773.124-.568.31-1.089.554-1.563.25-.479.56-.893.93-1.242.375-.354.81-.628 1.305-.82.494-.198 1.052-.297 1.671-.297.677 0 1.263.138 1.758.414a2.79 2.79 0 011.149 1.18c.27.515.406 1.138.406 1.867a8.08 8.08 0 01-.18 1.718 6.193 6.193 0 01-.531 1.532c-.24.468-.542.88-.906 1.234a3.96 3.96 0 01-1.297.82c-.495.193-1.06.289-1.695.289zm.196-1.914c.26 0 .497-.065.71-.195a2.04 2.04 0 00.571-.555c.167-.239.305-.513.414-.82.115-.312.2-.648.258-1.008.062-.359.094-.726.094-1.101 0-.297-.037-.56-.11-.789a1.031 1.031 0 00-.351-.547c-.162-.136-.38-.203-.657-.203-.286 0-.544.08-.773.242-.224.156-.42.367-.586.633a4.102 4.102 0 00-.414.89c-.11.328-.193.667-.25 1.016a6.62 6.62 0 00-.078.992c0 .474.096.833.289 1.078.193.245.487.367.883.367zm9.07 1.914a4.11 4.11 0 01-1.648-.32 2.61 2.61 0 01-1.172-1.031c-.287-.474-.43-1.094-.43-1.859 0-.631.065-1.235.195-1.813.13-.578.323-1.112.579-1.602.255-.489.57-.914.945-1.273a4.126 4.126 0 011.289-.852 4.145 4.145 0 011.617-.304c.52 0 .987.049 1.399.148a5.53 5.53 0 011.164.414l-.72 1.789a10.302 10.302 0 00-.827-.312 2.947 2.947 0 00-.922-.133c-.37 0-.7.107-.992.32-.287.214-.532.5-.735.86a4.704 4.704 0 00-.453 1.211 5.878 5.878 0 00-.156 1.351c0 .328.052.604.156.828.11.224.263.394.461.508.203.115.445.172.727.172.395 0 .763-.06 1.101-.18a9.759 9.759 0 001.047-.461v1.922a5.397 5.397 0 01-1.18.453 5.74 5.74 0 01-1.445.164zm7.735 0a4.11 4.11 0 01-1.649-.32 2.61 2.61 0 01-1.172-1.031c-.286-.474-.43-1.094-.43-1.859 0-.631.066-1.235.196-1.813.13-.578.323-1.112.578-1.602.255-.489.57-.914.945-1.273a4.126 4.126 0 011.29-.852 4.145 4.145 0 011.617-.304c.52 0 .986.049 1.398.148a5.49 5.49 0 011.164.414l-.719 1.789a10.302 10.302 0 00-.828-.312 2.947 2.947 0 00-.922-.133c-.37 0-.7.107-.992.32-.286.214-.531.5-.734.86a4.703 4.703 0 00-.453 1.211 5.878 5.878 0 00-.157 1.351c0 .328.052.604.157.828.109.224.263.394.46.508.204.115.446.172.727.172.396 0 .763-.06 1.102-.18a9.768 9.768 0 001.046-.461v1.922a5.399 5.399 0 01-1.18.453 5.75 5.75 0 01-1.445.164zm4.07-.156l1.851-8.734h1.797l-.164 1.617h.07c.224-.349.472-.656.743-.922.27-.265.57-.474.898-.625a2.585 2.585 0 011.11-.234c.598 0 1.062.159 1.39.476.333.313.552.748.656 1.305h.063a4.85 4.85 0 01.742-.922 3.22 3.22 0 01.922-.625 2.671 2.671 0 011.117-.234c.73 0 1.273.226 1.633.679.365.454.547 1.066.547 1.836 0 .193-.016.409-.047.649a9.417 9.417 0 01-.133.758l-1.039 4.976H77.97l1.079-5.101a5.17 5.17 0 00.093-.5c.021-.157.032-.3.032-.43 0-.328-.066-.57-.196-.727-.125-.156-.315-.234-.57-.234-.27 0-.52.086-.75.258a2.52 2.52 0 00-.625.719 5.837 5.837 0 00-.5 1.07c-.14.406-.258.844-.352 1.312l-.75 3.633H73.08l1.07-5.101c.042-.177.073-.344.094-.5.02-.157.031-.3.031-.43 0-.328-.065-.57-.195-.727-.125-.156-.315-.234-.57-.234-.266 0-.514.089-.743.266a2.622 2.622 0 00-.625.734 5.844 5.844 0 00-.5 1.07c-.14.407-.26.841-.359 1.305l-.766 3.617h-2.351zm17.367.156c-.422 0-.82-.104-1.195-.312-.375-.208-.683-.544-.922-1.008-.235-.463-.352-1.078-.352-1.844 0-.573.06-1.14.18-1.703a7.962 7.962 0 01.531-1.593 5.81 5.81 0 01.844-1.336 3.907 3.907 0 011.125-.922 2.871 2.871 0 011.367-.336c.37 0 .693.054.969.164.276.104.513.252.71.445.199.193.36.417.485.672h.063l.445-1.117h1.813l-1.86 8.734h-1.758l.11-1.133h-.063a4.29 4.29 0 01-.68.672 2.941 2.941 0 01-.812.453c-.297.11-.63.164-1 .164zm.922-1.898c.323 0 .622-.125.898-.375a3.3 3.3 0 00.711-.992c.198-.406.339-.836.422-1.289.042-.209.07-.417.086-.625a7.09 7.09 0 00.031-.688c0-.37-.099-.674-.297-.914-.192-.245-.458-.367-.796-.367-.23 0-.448.076-.657.227-.203.145-.39.349-.562.609a4.5 4.5 0 00-.453.883 6.136 6.136 0 00-.39 2.156c-.001.453.088.797.265 1.031.177.229.424.344.742.344zm5.71 1.742l1.868-8.734h2.375l-.727 3.359h2.727l.703-3.359h2.352l-1.86 8.734h-2.351l.75-3.601h-2.703l-.766 3.601h-2.367zm13.618.156c-.656 0-1.237-.135-1.742-.406a2.968 2.968 0 01-1.18-1.156c-.281-.505-.422-1.104-.422-1.797 0-.62.06-1.211.18-1.773.125-.568.31-1.089.555-1.563.25-.479.559-.893.929-1.242.375-.354.81-.628 1.305-.82.495-.198 1.052-.297 1.672-.297.677 0 1.263.138 1.758.414.494.271.877.664 1.148 1.18.271.515.406 1.138.406 1.867 0 .593-.06 1.166-.179 1.718a6.198 6.198 0 01-.532 1.532c-.239.468-.541.88-.906 1.234a3.955 3.955 0 01-1.297.82c-.495.193-1.06.289-1.695.289zm.195-1.914c.261 0 .498-.065.711-.195a2.04 2.04 0 00.571-.555 3.5 3.5 0 00.414-.82c.114-.312.2-.648.257-1.008.063-.359.094-.726.094-1.101 0-.297-.036-.56-.109-.789a1.032 1.032 0 00-.352-.547c-.161-.136-.38-.203-.656-.203-.286 0-.544.08-.773.242-.224.156-.42.367-.586.633a4.07 4.07 0 00-.414.89c-.11.328-.193.667-.25 1.016a6.508 6.508 0 00-.079.992c0 .474.097.833.289 1.078.193.245.487.367.883.367zm9.547 1.914c-.792 0-1.466-.138-2.023-.414a2.877 2.877 0 01-1.274-1.203c-.286-.526-.429-1.164-.429-1.914a7.2 7.2 0 01.195-1.687 6.014 6.014 0 01.594-1.516c.26-.463.586-.867.976-1.211.391-.349.844-.62 1.36-.812a4.78 4.78 0 011.726-.297c.625 0 1.172.094 1.641.281.474.182.844.448 1.109.797.266.349.399.773.399 1.273 0 .438-.084.797-.25 1.078a1.775 1.775 0 01-.672.657 3.9 3.9 0 01-.969.367v.062c.38.099.708.287.984.563.276.276.414.669.414 1.18 0 .489-.135.948-.406 1.375-.265.421-.677.765-1.234 1.031-.558.26-1.271.39-2.141.39zm.031-1.64c.297 0 .547-.052.75-.156.209-.105.365-.245.469-.422.11-.183.164-.391.164-.625a.946.946 0 00-.164-.571c-.109-.151-.284-.263-.523-.336-.24-.078-.555-.117-.946-.117h-1.14l-.016.25v.242c0 .625.136 1.071.406 1.336.271.266.605.399 1 .399zm-1.07-3.844h1.57c.302 0 .558-.039.766-.117a1 1 0 00.484-.367c.115-.162.172-.362.172-.602 0-.25-.086-.443-.258-.578-.171-.141-.395-.211-.671-.211-.302 0-.586.078-.852.234-.26.157-.495.375-.703.657a3.996 3.996 0 00-.508.984zm6.484 5.484c-.239 0-.447-.015-.625-.046a2.651 2.651 0 01-.539-.141v-1.938c.11.047.217.081.321.102.104.016.216.023.336.023.203 0 .38-.072.531-.218.151-.146.286-.344.406-.594.125-.255.245-.547.36-.875l.367-1.047c.26-.734.515-1.372.765-1.914.256-.547.555-.997.899-1.352a3.151 3.151 0 011.289-.789c.521-.177 1.177-.265 1.969-.265.541 0 1.052.047 1.531.14.479.094.87.198 1.172.313l-1.774 8.445h-2.351l1.468-6.914a4.084 4.084 0 00-.242-.039 1.242 1.242 0 00-.25-.023c-.427 0-.771.122-1.031.367-.255.245-.482.609-.68 1.094a28.942 28.942 0 00-.656 1.789 30.906 30.906 0 01-.539 1.507 6.459 6.459 0 01-.617 1.243 2.613 2.613 0 01-.852.836c-.338.198-.758.296-1.258.296zm13.297 0c-.682 0-1.284-.122-1.804-.367a2.771 2.771 0 01-1.211-1.125c-.292-.5-.438-1.127-.438-1.883 0-.729.104-1.432.313-2.109a5.717 5.717 0 01.929-1.828 4.577 4.577 0 011.532-1.273c.609-.313 1.312-.469 2.109-.469.979 0 1.711.224 2.195.672.49.442.735 1.013.735 1.711 0 .458-.104.875-.313 1.25-.203.375-.513.698-.929.968-.417.266-.941.472-1.571.618-.63.14-1.37.21-2.219.21h-.398c-.005.063-.01.118-.016.165v.156c0 .469.136.841.407 1.117.27.276.653.414 1.148.414.458 0 .875-.052 1.25-.156a8.63 8.63 0 001.328-.516v1.774a6.79 6.79 0 01-1.398.507 7.352 7.352 0 01-1.649.164zm-.812-5.21h.351c.605 0 1.094-.066 1.469-.196.38-.13.656-.302.828-.515.177-.214.266-.446.266-.696 0-.25-.073-.435-.219-.554-.14-.125-.341-.188-.601-.188a1.6 1.6 0 00-.868.274 2.61 2.61 0 00-.757.757 3.217 3.217 0 00-.469 1.118zm5.867 5.054l1.867-8.734h2.375l-.726 3.359h2.726l.703-3.359h2.352l-1.859 8.734h-2.352l.75-3.601h-2.703l-.766 3.601h-2.367zm12.656.156c-.5 0-.914-.101-1.242-.304a1.847 1.847 0 01-.734-.867c-.162-.381-.242-.826-.242-1.336 0-.193.015-.44.046-.743.032-.302.079-.609.141-.921l.992-4.719h2.352l-1.071 5.101c-.036.177-.067.344-.093.5-.021.157-.032.3-.032.43 0 .328.071.57.211.727.141.156.352.234.633.234.36 0 .68-.151.961-.453.287-.307.537-.716.75-1.227a9.57 9.57 0 00.516-1.695l.765-3.617h2.352l-1.852 8.734h-1.796l.164-1.617h-.086a5.686 5.686 0 01-.743.922 3.05 3.05 0 01-.89.625 2.604 2.604 0 01-1.102.226zm10.742 0c-.682 0-1.283-.122-1.804-.367a2.776 2.776 0 01-1.211-1.125c-.292-.5-.438-1.127-.438-1.883 0-.729.105-1.432.313-2.109a5.699 5.699 0 01.93-1.828 4.574 4.574 0 011.531-1.273c.609-.313 1.312-.469 2.109-.469.979 0 1.711.224 2.195.672.49.442.735 1.013.735 1.711 0 .458-.104.875-.313 1.25-.203.375-.513.698-.929.968-.417.266-.94.472-1.571.618-.63.14-1.369.21-2.218.21h-.399l-.015.165v.156c0 .469.135.841.406 1.117s.653.414 1.148.414a4.67 4.67 0 001.25-.156 8.63 8.63 0 001.328-.516v1.774a6.79 6.79 0 01-1.398.507 7.352 7.352 0 01-1.649.164zm-.812-5.21h.352c.604 0 1.093-.066 1.468-.196.38-.13.657-.302.828-.515.177-.214.266-.446.266-.696 0-.25-.073-.435-.219-.554-.14-.125-.341-.188-.601-.188-.292 0-.581.091-.867.274a2.6 2.6 0 00-.758.757 3.217 3.217 0 00-.469 1.118z" fill="#E64B13"/><rect x=".806" y="541.095" width="199" height="50" rx="4.5" stroke="url(#paint4_linear_1_2228)"/><rect x=".806" y="654.113" width="199" height="50" rx="4.5" fill="#fff"/><path d="M48.33 685.769c-.927 0-1.706-.18-2.336-.539a3.507 3.507 0 01-1.422-1.516c-.323-.656-.484-1.422-.484-2.297 0-.593.052-1.187.156-1.781.11-.594.27-1.166.484-1.719a7.634 7.634 0 01.82-1.539 5.894 5.894 0 011.172-1.242c.448-.354.956-.63 1.524-.828a5.711 5.711 0 011.89-.297c1.386 0 2.428.391 3.126 1.172.703.776 1.054 1.81 1.054 3.102 0 .619-.052 1.234-.156 1.843a8.817 8.817 0 01-.469 1.75 7.015 7.015 0 01-.804 1.547 5.74 5.74 0 01-1.149 1.235 5.182 5.182 0 01-1.515.82c-.563.193-1.193.289-1.891.289zm.172-2.031c.312 0 .612-.057.898-.172.287-.115.555-.279.805-.492.25-.219.476-.485.68-.797.208-.318.385-.675.53-1.07.147-.401.259-.842.337-1.321.083-.479.125-.992.125-1.539 0-.703-.164-1.265-.492-1.687-.323-.422-.805-.633-1.446-.633-.328 0-.643.065-.945.195-.297.13-.573.315-.828.555a4.3 4.3 0 00-.68.851 5.942 5.942 0 00-.523 1.094 7.443 7.443 0 00-.336 1.281c-.073.454-.11.925-.11 1.414 0 .506.078.933.235 1.282a1.7 1.7 0 00.68.781c.296.172.653.258 1.07.258zm6.601 1.875l1.852-8.735h1.797l-.164 1.618h.07c.224-.349.471-.657.742-.922.271-.266.57-.474.899-.625a2.57 2.57 0 011.109-.235c.5 0 .917.105 1.25.313.338.203.591.492.758.867.166.375.25.82.25 1.336 0 .193-.016.409-.047.648a9.27 9.27 0 01-.133.758l-1.039 4.977h-2.352l1.07-5.102a5.2 5.2 0 00.095-.5 3.25 3.25 0 00.03-.429c0-.329-.07-.571-.21-.727-.14-.156-.352-.234-.633-.234-.354 0-.675.153-.96.461-.287.302-.537.708-.75 1.218a10.33 10.33 0 00-.517 1.696l-.765 3.617h-2.352zm9.672 0l1.852-8.735h1.797l-.165 1.618h.07c.225-.349.472-.657.743-.922.27-.266.57-.474.898-.625a2.57 2.57 0 011.11-.235c.599 0 1.062.159 1.39.477.334.312.552.747.657 1.305h.062a4.82 4.82 0 01.742-.922c.276-.266.584-.474.922-.625a2.656 2.656 0 011.118-.235c.729 0 1.273.227 1.632.68.365.453.547 1.065.547 1.836 0 .193-.016.409-.047.648a9.25 9.25 0 01-.132.758l-1.04 4.977H74.58l1.078-5.102a5.2 5.2 0 00.094-.5c.02-.156.031-.299.031-.429 0-.329-.065-.571-.195-.727-.125-.156-.316-.234-.57-.234-.272 0-.522.086-.75.257-.23.172-.438.412-.626.719a5.844 5.844 0 00-.5 1.07c-.14.407-.257.844-.351 1.313l-.75 3.633h-2.352l1.07-5.102c.042-.177.073-.344.094-.5.021-.156.032-.299.032-.429 0-.329-.066-.571-.196-.727-.125-.156-.315-.234-.57-.234a1.19 1.19 0 00-.742.265c-.23.177-.438.422-.625.735a5.837 5.837 0 00-.5 1.07c-.14.406-.26.841-.36 1.305l-.765 3.617h-2.352zm17.281.156c-.5 0-.914-.102-1.242-.305a1.85 1.85 0 01-.734-.867c-.162-.38-.242-.825-.242-1.336a9.672 9.672 0 01.187-1.664l.992-4.719h2.352l-1.07 5.102c-.037.177-.068.344-.094.5a3.232 3.232 0 00-.031.43c0 .328.07.57.21.726.141.156.352.235.633.235.36 0 .68-.151.961-.454.287-.307.537-.716.75-1.226a9.68 9.68 0 00.516-1.695l.766-3.618h2.351l-1.852 8.735h-1.796l.164-1.617h-.086a5.684 5.684 0 01-.742.921 3.059 3.059 0 01-.891.625 2.59 2.59 0 01-1.102.227zm6.938-.156l1.844-8.735h3.242l.336 6.094h.047l3.14-6.094h3.344l-1.875 8.735H96.9l.961-4.321c.089-.406.18-.796.273-1.171.1-.375.183-.683.25-.922h-.046l-3.313 6.414h-2.258l-.351-6.414h-.031c-.053.427-.113.815-.18 1.164-.063.344-.13.685-.203 1.023l-.844 4.227h-2.164zm15.094.156c-.5 0-.914-.102-1.243-.305a1.853 1.853 0 01-.734-.867c-.161-.38-.242-.825-.242-1.336 0-.192.016-.44.047-.742s.078-.609.14-.922l.993-4.719h2.351l-1.07 5.102c-.037.177-.068.344-.094.5a3.232 3.232 0 00-.031.43c0 .328.07.57.211.726.14.156.351.235.633.235.359 0 .679-.151.961-.454.286-.307.536-.716.75-1.226a9.706 9.706 0 00.515-1.695l.766-3.618h2.351l-1.851 8.735h-1.797l.164-1.617h-.086a5.672 5.672 0 01-.742.921 3.067 3.067 0 01-.891.625 2.587 2.587 0 01-1.101.227zm9.687 0c-.588 0-1.14-.057-1.656-.172-.516-.114-.932-.252-1.25-.414v-1.937c.354.177.771.336 1.25.476.484.141 1.01.211 1.578.211.37 0 .706-.034 1.008-.101.307-.068.552-.183.734-.344.183-.167.274-.396.274-.688 0-.297-.115-.523-.344-.679-.229-.157-.573-.235-1.031-.235h-1.375l.351-1.648h.977a6.02 6.02 0 001.109-.086c.297-.063.518-.164.664-.305.151-.146.227-.346.227-.601 0-.245-.089-.433-.266-.563-.177-.135-.489-.203-.937-.203-.349 0-.743.057-1.18.172a9.091 9.091 0 00-1.281.445l-.563-1.711c.511-.198 1.05-.359 1.617-.484a8.46 8.46 0 011.821-.188 5.46 5.46 0 011.609.219c.474.146.846.378 1.117.695.276.313.414.73.414 1.25 0 .422-.091.774-.273 1.055a2.047 2.047 0 01-.727.688c-.302.171-.645.31-1.031.414v.062c.432.12.787.32 1.063.602.281.281.421.669.421 1.164 0 .578-.153 1.086-.46 1.523-.308.438-.779.779-1.415 1.024-.635.239-1.45.359-2.445.359zm8.461 0c-.422 0-.82-.104-1.195-.312-.375-.209-.683-.545-.922-1.008-.234-.464-.352-1.078-.352-1.844 0-.573.06-1.141.18-1.703a7.956 7.956 0 01.531-1.594c.235-.505.516-.95.844-1.336.333-.39.708-.698 1.125-.922a2.872 2.872 0 011.367-.336c.37 0 .693.055.969.164.276.105.513.253.711.446.198.192.359.416.484.672h.063l.445-1.118h1.813l-1.86 8.735h-1.758l.11-1.133h-.063a4.396 4.396 0 01-.679.672 2.944 2.944 0 01-.813.453c-.297.109-.63.164-1 .164zm.922-1.898c.323 0 .622-.125.898-.375.276-.256.513-.586.711-.993.198-.406.339-.836.422-1.289a4.94 4.94 0 00.086-.625c.021-.213.031-.442.031-.687 0-.37-.099-.675-.296-.914-.193-.245-.459-.367-.797-.367-.23 0-.448.075-.657.226-.203.146-.39.349-.562.61a4.497 4.497 0 00-.453.882 5.873 5.873 0 00-.289 1.047c-.068.37-.102.74-.102 1.11 0 .453.089.796.266 1.031.177.229.424.344.742.344zm11.437 4.875l.75-3.133a1.518 1.518 0 01-.476-.352 1.66 1.66 0 01-.297-.476 4.71 4.71 0 01-.187-.578h-.063c-.219.307-.461.58-.727.82a3.04 3.04 0 01-.882.547c-.318.13-.667.195-1.047.195-.5 0-.917-.102-1.25-.305a1.924 1.924 0 01-.758-.867c-.167-.38-.25-.825-.25-1.336 0-.192.021-.44.062-.742.047-.302.102-.609.165-.922l.992-4.719h2.351l-1.07 5.102c-.036.177-.068.344-.094.5a3.232 3.232 0 00-.031.43c0 .328.07.57.211.726.141.156.351.235.633.235.359 0 .679-.151.961-.454.286-.307.536-.716.75-1.226a9.706 9.706 0 00.515-1.695l.766-3.618h2.351l-1.265 5.969a3.966 3.966 0 00-.039.219 2.672 2.672 0 00-.008.195c0 .177.044.308.133.391a.511.511 0 00.351.117c.125 0 .245-.01.36-.031.114-.021.229-.047.343-.078l-1.07 5.086h-2.18zm6.993-2.977c-.5 0-.914-.102-1.243-.305a1.853 1.853 0 01-.734-.867c-.161-.38-.242-.825-.242-1.336 0-.192.016-.44.047-.742s.078-.609.14-.922l.993-4.719h2.351l-1.07 5.102c-.037.177-.068.344-.094.5a3.232 3.232 0 00-.031.43c0 .328.07.57.211.726.14.156.351.235.633.235.359 0 .679-.151.961-.454.286-.307.536-.716.75-1.226a9.706 9.706 0 00.515-1.695l.766-3.618h2.351l-1.851 8.735h-1.797l.164-1.617h-.086a5.672 5.672 0 01-.742.921 3.067 3.067 0 01-.891.625 2.587 2.587 0 01-1.101.227zm7.609 0c-.224 0-.437-.016-.641-.047a2.489 2.489 0 01-.539-.14v-1.938c.078.031.17.06.274.086.104.026.213.039.328.039a.885.885 0 00.383-.078c.109-.057.205-.133.289-.227.083-.093.159-.198.226-.312.183-.302.347-.55.493-.742.145-.193.296-.347.453-.461.156-.12.336-.211.539-.274a2.464 2.464 0 01-.633-.383 1.709 1.709 0 01-.438-.593 2.152 2.152 0 01-.156-.86c0-.52.099-.968.297-1.343.198-.375.469-.68.813-.914.348-.24.75-.417 1.203-.532a6.03 6.03 0 011.461-.172h3.648l-1.836 8.735h-2.359l.711-3.25h-.485c-.338 0-.604.109-.797.328-.192.213-.367.49-.523.828-.151.333-.339.68-.563 1.039a3.335 3.335 0 01-.507.609 2.2 2.2 0 01-.688.438 2.502 2.502 0 01-.953.164zm4.125-5.008h.727l.461-2.203h-.993c-.255 0-.484.05-.687.149a1.12 1.12 0 00-.485.421 1.262 1.262 0 00-.171.68c0 .287.091.518.273.695.188.172.479.258.875.258z" fill="#E64B13"/><rect x=".806" y="654.113" width="199" height="50" rx="4.5" stroke="url(#paint5_linear_1_2228)"/><path d="M562.765 155.603c-3.11-1.71-3.11-6.179 0-7.888l110.996-60.988a4.5 4.5 0 014.334 0l110.995 60.988c3.111 1.709 3.111 6.178 0 7.888l-110.995 60.988a4.503 4.503 0 01-4.334 0l-110.996-60.988z" fill="#fff" stroke="url(#paint6_linear_1_2228)"/><path d="M600.91 140.665h2.83c1.249 0 2.188.186 2.817.56.629.374.943 1.01.943 1.907 0 .388-.075.736-.226 1.046-.145.306-.36.558-.642.759a2.6 2.6 0 01-1.046.417v.068c.437.069.825.194 1.162.376.337.183.602.438.793.766.191.328.287.745.287 1.251 0 .615-.143 1.135-.431 1.559-.282.423-.683.745-1.203.963-.519.215-1.134.322-1.845.322h-3.439v-9.994zm1.162 4.286h1.914c.871 0 1.472-.144 1.805-.431.337-.287.506-.706.506-1.258 0-.569-.201-.98-.602-1.23-.396-.251-1.03-.376-1.9-.376h-1.723v3.295zm0 .977v3.739h2.078c.889 0 1.518-.173 1.887-.519.369-.351.554-.823.554-1.415 0-.378-.084-.702-.253-.971-.164-.269-.433-.474-.807-.615-.369-.146-.863-.219-1.483-.219h-1.976zm7.718 4.731v-7.492h1.142v3.089h2.05c.638 0 1.163.08 1.573.24.414.159.722.396.923.711.2.314.3.704.3 1.168 0 .465-.1.869-.3 1.21-.196.342-.506.607-.93.793-.419.187-.966.281-1.641.281h-3.117zm1.142-.923h1.866c.565 0 1.016-.1 1.353-.301.338-.2.506-.535.506-1.005 0-.46-.157-.779-.471-.957-.315-.182-.766-.273-1.354-.273h-1.9v2.536zm6.084.923v-7.492h1.134v7.492h-1.134zm3.896 0h-1.326l2.16-3.159a2.813 2.813 0 01-.875-.348 1.945 1.945 0 01-.656-.691c-.164-.291-.246-.654-.246-1.086 0-.721.239-1.267.718-1.641.483-.378 1.118-.567 1.907-.567h3.315v7.492h-1.135v-3.008h-1.9l-1.962 3.008zm.157-5.278c0 .447.16.78.479.998.319.215.775.322 1.367.322h1.859v-2.584h-2.057c-.584 0-1.005.118-1.265.355-.255.233-.383.536-.383.909zm13.187-.335c0 .47-.137.837-.41 1.101-.274.26-.627.435-1.06.526v.055c.47.064.873.232 1.21.506.342.269.513.681.513 1.237 0 .429-.103.807-.308 1.135-.205.328-.526.586-.964.772-.437.187-1.007.281-1.709.281h-3.226v-7.492h3.199a4.96 4.96 0 011.422.184c.415.119.74.315.977.588.237.273.356.643.356 1.107zm-.93 3.425c0-.442-.168-.761-.506-.957-.332-.196-.818-.294-1.456-.294h-1.921v2.516h1.949c.629 0 1.107-.096 1.435-.287.333-.196.499-.522.499-.978zm-.225-3.295c0-.355-.13-.62-.39-.793-.26-.177-.686-.266-1.278-.266h-1.99v2.153h1.791c.616 0 1.08-.089 1.395-.267.314-.177.472-.453.472-.827zm8.859 5.483h-1.155v-6.542h-2.277a35.11 35.11 0 01-.348 3.035c-.137.838-.31 1.524-.52 2.057-.205.529-.456.919-.752 1.169-.291.247-.64.37-1.046.37-.123 0-.239-.007-.348-.021a1.113 1.113 0 01-.281-.068v-.862c.06.019.121.032.185.041.068.009.139.014.212.014a.774.774 0 00.56-.253c.174-.173.329-.433.465-.779.142-.347.267-.784.376-1.313.11-.533.205-1.16.287-1.88.087-.724.162-1.544.226-2.46h4.416v7.492zm5.277-7.629c.638 0 1.185.141 1.641.424.456.282.804.679 1.046 1.189.241.506.362 1.098.362 1.777v.705h-5.175c.014.879.233 1.549.657 2.009.423.461 1.02.691 1.791.691.474 0 .893-.044 1.257-.13a6.931 6.931 0 001.135-.383v.998a5.46 5.46 0 01-1.128.369 6.424 6.424 0 01-1.312.116c-.72 0-1.349-.145-1.887-.437a3.057 3.057 0 01-1.244-1.299c-.296-.57-.444-1.267-.444-2.092 0-.806.134-1.504.403-2.092.273-.592.656-1.048 1.148-1.367.497-.319 1.08-.478 1.75-.478zm-.013.929c-.606 0-1.09.199-1.45.595-.36.397-.574.95-.642 1.661h3.965a3.224 3.224 0 00-.212-1.175 1.643 1.643 0 00-.609-.793c-.273-.192-.624-.288-1.052-.288zm6.131-.792v3.144h4.177v-3.144h1.135v7.492h-1.135v-3.384h-4.177v3.384h-1.141v-7.492h1.141zm7.718 7.492v-7.492h1.142v3.089h2.051c.638 0 1.162.08 1.572.24.415.159.722.396.923.711.2.314.301.704.301 1.168 0 .465-.101.869-.301 1.21-.196.342-.506.607-.93.793-.419.187-.966.281-1.641.281h-3.117zm1.142-.923h1.866c.565 0 1.016-.1 1.354-.301.337-.2.505-.535.505-1.005 0-.46-.157-.779-.471-.957-.315-.182-.766-.273-1.354-.273h-1.9v2.536zm6.084.923v-7.492h1.135v7.492h-1.135zm13.446-7.492v7.492h-1.141v-6.515h-3.993v6.515h-1.141v-7.492h6.275zm5.291-.137c.638 0 1.185.141 1.641.424.456.282.804.679 1.046 1.189.241.506.362 1.098.362 1.777v.705h-5.175c.014.879.233 1.549.656 2.009.424.461 1.021.691 1.791.691.474 0 .894-.044 1.258-.13a6.931 6.931 0 001.135-.383v.998a5.46 5.46 0 01-1.128.369 6.43 6.43 0 01-1.312.116c-.72 0-1.349-.145-1.887-.437a3.057 3.057 0 01-1.244-1.299c-.296-.57-.445-1.267-.445-2.092 0-.806.135-1.504.404-2.092.273-.592.656-1.048 1.148-1.367.497-.319 1.08-.478 1.75-.478zm-.014.929c-.606 0-1.089.199-1.449.595-.36.397-.574.95-.642 1.661h3.965a3.224 3.224 0 00-.212-1.175 1.649 1.649 0 00-.609-.793c-.273-.192-.624-.288-1.053-.288zm8.511-.929c.934 0 1.68.321 2.236.964.556.642.834 1.608.834 2.898 0 .852-.128 1.568-.383 2.147-.255.578-.615 1.016-1.08 1.312-.461.296-1.005.444-1.634.444a3.17 3.17 0 01-1.046-.157 2.46 2.46 0 01-.772-.424 2.741 2.741 0 01-.534-.581h-.082l.048.643c.023.251.034.469.034.656v3.076h-1.141v-10.841h.936l.151 1.107h.054a2.99 2.99 0 01.534-.622c.209-.192.464-.342.765-.451a3.087 3.087 0 011.08-.171zm-.198.957c-.52 0-.939.1-1.258.301-.314.2-.544.501-.69.902-.146.396-.224.895-.233 1.497v.219c0 .633.069 1.169.205 1.606.142.438.372.77.691.998.323.228.756.342 1.299.342.464 0 .852-.125 1.162-.376.31-.251.54-.599.69-1.046.155-.451.233-.968.233-1.552 0-.884-.174-1.586-.52-2.105-.342-.524-.868-.786-1.579-.786zm11.204 1.059c0 .47-.137.837-.41 1.101-.274.26-.627.435-1.06.526v.055c.47.064.873.232 1.21.506.342.269.513.681.513 1.237 0 .429-.103.807-.308 1.135-.205.328-.526.586-.963.772-.438.187-1.008.281-1.709.281h-3.227v-7.492h3.199a4.96 4.96 0 011.422.184c.415.119.741.315.978.588.237.273.355.643.355 1.107zm-.93 3.425c0-.442-.168-.761-.505-.957-.333-.196-.819-.294-1.457-.294h-1.92v2.516h1.948c.629 0 1.107-.096 1.435-.287.333-.196.499-.522.499-.978zm-.225-3.295c0-.355-.13-.62-.39-.793-.26-.177-.686-.266-1.278-.266h-1.989v2.153h1.791c.615 0 1.08-.089 1.394-.267.315-.177.472-.453.472-.827zm4.32-2.009v4.709a17.525 17.525 0 01-.027.814 48.9 48.9 0 01-.028.465 5.595 5.595 0 01-.02.362l4.088-6.35h1.394v7.492h-1.059v-4.594a28.6 28.6 0 01.027-1.231l.021-.519-4.075 6.344h-1.401v-7.492h1.08zm8.812 0v2.693c0 .469.127.816.382 1.039.26.223.636.335 1.128.335.474 0 .905-.073 1.292-.219.388-.146.78-.344 1.176-.595v-3.253h1.135v7.492h-1.135v-3.357a6.8 6.8 0 01-1.237.636c-.406.155-.891.232-1.456.232-.77 0-1.367-.2-1.791-.601-.419-.401-.629-.944-.629-1.627v-2.775h1.135zm8.654 0v3.144h4.177v-3.144h1.134v7.492h-1.134v-3.384h-4.177v3.384h-1.142v-7.492h1.142zm7.718 7.492v-7.492h1.141v3.089h2.051c.638 0 1.162.08 1.572.24.415.159.723.396.923.711.201.314.301.704.301 1.168 0 .465-.1.869-.301 1.21-.196.342-.506.607-.929.793-.42.187-.967.281-1.641.281h-3.117zm1.141-.923h1.867c.565 0 1.016-.1 1.353-.301.337-.2.506-.535.506-1.005 0-.46-.157-.779-.472-.957-.314-.182-.765-.273-1.353-.273h-1.901v2.536zm6.084.923v-7.492h1.135v7.492h-1.135zm6.419-7.629c.638 0 1.185.141 1.641.424.456.282.804.679 1.046 1.189.241.506.362 1.098.362 1.777v.705h-5.175c.014.879.233 1.549.657 2.009.423.461 1.02.691 1.791.691a5.5 5.5 0 001.257-.13 6.931 6.931 0 001.135-.383v.998a5.46 5.46 0 01-1.128.369 6.424 6.424 0 01-1.312.116c-.72 0-1.349-.145-1.887-.437a3.057 3.057 0 01-1.244-1.299c-.296-.57-.445-1.267-.445-2.092 0-.806.135-1.504.404-2.092.273-.592.656-1.048 1.148-1.367.497-.319 1.08-.478 1.75-.478zm-.013.929c-.607 0-1.09.199-1.45.595-.36.397-.574.95-.642 1.661h3.965a3.224 3.224 0 00-.212-1.175 1.643 1.643 0 00-.609-.793c-.273-.192-.624-.288-1.052-.288zm-95.075 25.94c0 .615-.079 1.164-.239 1.647-.159.483-.39.891-.69 1.224a3.013 3.013 0 01-1.094.766 3.79 3.79 0 01-1.442.259c-.502 0-.962-.086-1.381-.259a3.11 3.11 0 01-1.08-.766 3.546 3.546 0 01-.705-1.224c-.164-.483-.246-1.032-.246-1.647 0-.82.139-1.518.417-2.092.278-.579.675-1.018 1.19-1.319.519-.306 1.137-.458 1.852-.458.684 0 1.281.152 1.791.458.515.305.914.747 1.197 1.326.287.574.43 1.269.43 2.085zm-5.701 0c0 .601.08 1.123.239 1.565.16.442.406.784.739 1.026.332.241.761.362 1.285.362.519 0 .946-.121 1.278-.362.337-.242.586-.584.745-1.026.16-.442.24-.964.24-1.565 0-.597-.08-1.112-.24-1.545-.159-.437-.405-.775-.738-1.012-.333-.237-.763-.355-1.292-.355-.779 0-1.351.257-1.716.772-.36.515-.54 1.228-.54 2.14zm17.712-3.732v7.492h-10.049v-7.492h1.135v6.528h3.315v-6.528h1.142v6.528h3.322v-6.528h1.135zm3.486 0v4.709a13.501 13.501 0 01-.027.814l-.027.465a6.296 6.296 0 01-.021.362l4.088-6.35h1.395v7.492h-1.06v-4.594a28.6 28.6 0 01.027-1.231l.021-.519-4.074 6.344h-1.402v-7.492h1.08zm7.431 2.994c0-1.067.103-1.976.308-2.728.205-.756.522-1.363.95-1.818.433-.461.989-.775 1.668-.944a23.156 23.156 0 011.777-.41 40.758 40.758 0 011.757-.307l.198.998c-.287.041-.588.089-.902.143-.315.05-.629.105-.943.164a17.02 17.02 0 00-.889.178 9.423 9.423 0 00-.738.185 2.369 2.369 0 00-1.005.546c-.278.26-.499.618-.663 1.074-.16.455-.256 1.03-.287 1.722h.082a3.07 3.07 0 011.408-1.08 2.943 2.943 0 011.107-.198c.647 0 1.187.141 1.62.424.433.278.759.67.978 1.176.219.506.328 1.098.328 1.777 0 .816-.141 1.502-.424 2.058-.278.556-.67.975-1.176 1.257-.505.278-1.1.417-1.784.417a3.2 3.2 0 01-1.422-.307 2.9 2.9 0 01-1.059-.903c-.287-.396-.508-.881-.663-1.456-.151-.574-.226-1.23-.226-1.968zm3.459 3.691c.433 0 .804-.091 1.114-.273.315-.183.556-.47.725-.862.173-.396.26-.911.26-1.545 0-.793-.153-1.412-.458-1.859-.301-.451-.784-.677-1.45-.677-.414 0-.79.089-1.127.267-.338.173-.623.38-.855.622a3.228 3.228 0 00-.506.649c0 .465.034.916.103 1.354.068.437.187.832.355 1.182.169.351.401.629.697.834.301.206.682.308 1.142.308zm9.625-6.685h1.251l-3.233 3.616 3.493 3.876h-1.333l-3.404-3.801v3.801h-1.142v-7.492h1.142v3.636l3.226-3.636zm3.944 0v4.709a13.501 13.501 0 01-.027.814l-.027.465a6.296 6.296 0 01-.021.362l4.088-6.35h1.395v7.492h-1.06v-4.594a28.6 28.6 0 01.027-1.231l.021-.519-4.074 6.344h-1.402v-7.492h1.08zm8.593 4.716v-.355c0-.365.034-.677.103-.937.068-.264.187-.51.355-.738.173-.228.413-.469.718-.725.355-.296.636-.546.841-.752.209-.209.36-.419.451-.628.091-.21.137-.463.137-.759 0-.474-.153-.836-.458-1.087-.306-.255-.736-.383-1.292-.383-.452 0-.853.057-1.203.171a7.62 7.62 0 00-1.012.41l-.397-.916c.374-.196.78-.355 1.217-.478a5.402 5.402 0 011.463-.185c.88 0 1.561.219 2.044.656.483.433.725 1.03.725 1.791 0 .424-.069.786-.205 1.087a2.84 2.84 0 01-.582.82c-.25.247-.546.509-.888.787-.301.255-.531.48-.691.676-.159.192-.269.39-.328.595a2.592 2.592 0 00-.089.725v.225h-.909zm-.301 2.065c0-.319.076-.545.226-.677a.828.828 0 01.581-.205c.223 0 .412.068.567.205.16.132.24.358.24.677 0 .314-.08.544-.24.69a.813.813 0 01-.567.212.815.815 0 01-.581-.212c-.15-.146-.226-.376-.226-.69z" fill="#000"/><path d="M562.765 399.197c-3.11-1.709-3.11-6.178 0-7.887l110.996-60.989a4.503 4.503 0 014.334 0L789.09 391.31c3.111 1.709 3.111 6.178 0 7.887l-110.995 60.988a4.497 4.497 0 01-4.334 0l-110.996-60.988z" fill="#fff" stroke="url(#paint7_linear_1_2228)"/><path d="M601.84 384.259h2.83c1.249 0 2.187.187 2.816.561.629.374.944 1.009.944 1.907 0 .387-.075.736-.226 1.046-.146.305-.36.558-.642.759-.283.2-.632.339-1.046.417v.068c.437.068.825.194 1.162.376.337.182.601.438.793.766.191.328.287.745.287 1.251 0 .615-.144 1.134-.431 1.558-.282.424-.683.745-1.203.964-.519.214-1.135.321-1.846.321h-3.438v-9.994zm1.162 4.286h1.914c.87 0 1.472-.143 1.805-.43.337-.287.506-.707.506-1.258 0-.57-.201-.98-.602-1.231-.396-.25-1.03-.376-1.9-.376h-1.723v3.295zm0 .978v3.739h2.078c.889 0 1.518-.173 1.887-.519.369-.351.554-.823.554-1.415 0-.379-.085-.702-.253-.971-.164-.269-.433-.474-.807-.615-.369-.146-.864-.219-1.483-.219h-1.976zm7.718 4.73v-7.492h1.141v3.09h2.051c.638 0 1.162.08 1.572.239.415.16.723.397.923.711.201.315.301.704.301 1.169 0 .465-.1.868-.301 1.21-.196.342-.506.606-.929.793-.42.187-.967.28-1.641.28h-3.117zm1.141-.922h1.867c.565 0 1.016-.101 1.353-.301.337-.201.506-.536.506-1.005 0-.46-.157-.779-.472-.957-.314-.182-.765-.274-1.353-.274h-1.901v2.537zm6.084.922v-7.492h1.135v7.492h-1.135zm3.897 0h-1.326l2.16-3.158a2.803 2.803 0 01-.875-.348 1.945 1.945 0 01-.656-.691c-.165-.292-.247-.654-.247-1.087 0-.72.24-1.267.718-1.64.483-.379 1.119-.568 1.907-.568h3.316v7.492h-1.135v-3.007h-1.9l-1.962 3.007zm.157-5.277c0 .447.16.779.479.998.319.214.774.321 1.367.321h1.859v-2.584h-2.058c-.583 0-1.004.119-1.264.356-.255.232-.383.535-.383.909zm13.187-.335c0 .47-.137.836-.411 1.101-.273.259-.626.435-1.059.526v.055c.469.064.873.232 1.21.506.342.268.512.681.512 1.237 0 .428-.102.807-.307 1.135-.205.328-.526.585-.964.772-.437.187-1.007.28-1.709.28h-3.227v-7.492h3.2c.537 0 1.011.062 1.422.185.414.118.74.314.977.588.237.273.356.642.356 1.107zm-.93 3.425c0-.442-.169-.761-.506-.957-.333-.196-.818-.294-1.456-.294h-1.921v2.516h1.948c.629 0 1.108-.096 1.436-.288.333-.196.499-.521.499-.977zm-.226-3.295c0-.355-.13-.62-.389-.793-.26-.178-.686-.267-1.279-.267h-1.989v2.154h1.791c.615 0 1.08-.089 1.395-.267.314-.178.471-.453.471-.827zm8.86 5.482h-1.156v-6.542h-2.276a34.707 34.707 0 01-.349 3.036c-.136.838-.31 1.524-.519 2.057-.205.529-.456.918-.752 1.169a1.57 1.57 0 01-1.046.369c-.123 0-.239-.007-.349-.02a1.113 1.113 0 01-.28-.069v-.861c.059.018.121.032.185.041.068.009.139.014.212.014.205 0 .392-.085.56-.253.173-.173.328-.433.465-.779a7.64 7.64 0 00.376-1.313c.109-.533.205-1.16.287-1.88.087-.724.162-1.545.226-2.461h4.416v7.492zm5.277-7.628c.638 0 1.185.141 1.641.423.455.283.804.679 1.046 1.19.241.506.362 1.098.362 1.777v.704h-5.175c.014.88.232 1.55.656 2.01.424.46 1.021.69 1.791.69.474 0 .894-.043 1.258-.129a7.027 7.027 0 001.135-.383v.998a5.583 5.583 0 01-1.128.369 6.506 6.506 0 01-1.313.116c-.72 0-1.349-.146-1.886-.437a3.068 3.068 0 01-1.244-1.299c-.297-.57-.445-1.267-.445-2.092 0-.807.135-1.504.404-2.092.273-.592.656-1.048 1.148-1.367.497-.319 1.08-.478 1.75-.478zm-.014.929c-.606 0-1.089.198-1.449.595-.36.396-.574.95-.642 1.661h3.964a3.188 3.188 0 00-.212-1.176 1.646 1.646 0 00-.608-.793c-.273-.191-.624-.287-1.053-.287zm6.132-.793v3.145h4.177v-3.145h1.135v7.492h-1.135v-3.383h-4.177v3.383h-1.141v-7.492h1.141zm7.718 7.492v-7.492h1.142v3.09h2.05c.638 0 1.162.08 1.573.239.414.16.722.397.922.711.201.315.301.704.301 1.169 0 .465-.1.868-.301 1.21-.196.342-.505.606-.929.793-.42.187-.966.28-1.641.28h-3.117zm1.142-.922h1.866c.565 0 1.016-.101 1.353-.301.338-.201.506-.536.506-1.005 0-.46-.157-.779-.472-.957-.314-.182-.765-.274-1.353-.274h-1.9v2.537zm6.084.922v-7.492h1.134v7.492h-1.134zm11.539-7.492h1.251l-3.234 3.616 3.493 3.876h-1.333l-3.404-3.8v3.8h-1.142v-7.492h1.142v3.637l3.227-3.637zm6.384-.136c.935 0 1.68.321 2.236.963.556.643.834 1.609.834 2.899 0 .852-.128 1.568-.383 2.146-.255.579-.615 1.017-1.08 1.313-.46.296-1.005.444-1.634.444-.396 0-.745-.052-1.046-.157a2.46 2.46 0 01-.772-.424 2.765 2.765 0 01-.534-.581h-.082l.048.643c.023.25.034.469.034.656v3.076h-1.141v-10.842h.936l.151 1.108h.054c.146-.228.324-.436.534-.622.209-.192.464-.342.765-.452.306-.114.666-.17 1.08-.17zm-.198.957c-.519 0-.939.1-1.258.3-.314.201-.544.502-.69.903-.146.396-.223.895-.233 1.497v.218c0 .634.069 1.169.206 1.607.141.437.371.77.69.998.324.228.756.342 1.299.342.465 0 .852-.126 1.162-.376.31-.251.54-.599.69-1.046.155-.451.233-.969.233-1.552 0-.884-.173-1.586-.52-2.105-.342-.524-.868-.786-1.579-.786zm6.33-.821v4.71a17.525 17.525 0 01-.027.814l-.027.465a6.352 6.352 0 01-.021.362l4.088-6.351h1.394v7.492h-1.059v-4.593a28.437 28.437 0 01.027-1.231l.021-.519-4.075 6.343h-1.401v-7.492h1.08zm12.927.964h-2.468v6.528h-1.121v-6.528h-2.434v-.964h6.023v.964zm2.563-.964v4.71a13.569 13.569 0 01-.027.814l-.027.465a6.352 6.352 0 01-.021.362l4.088-6.351h1.395v7.492h-1.06v-4.593a28.437 28.437 0 01.027-1.231l.021-.519-4.074 6.343h-1.402v-7.492h1.08zm8.812 0v2.694c0 .469.128.815.383 1.039.26.223.636.335 1.128.335.474 0 .904-.073 1.292-.219a6.463 6.463 0 001.175-.595v-3.254h1.135v7.492h-1.135v-3.356a6.767 6.767 0 01-1.237.636c-.405.155-.891.232-1.456.232-.77 0-1.367-.2-1.791-.601-.419-.401-.629-.944-.629-1.627v-2.776h1.135zm8.654 0v3.145h4.177v-3.145h1.135v7.492h-1.135v-3.383h-4.177v3.383h-1.141v-7.492h1.141zm7.718 7.492v-7.492h1.142v3.09h2.05c.638 0 1.163.08 1.573.239.414.16.722.397.923.711.2.315.3.704.3 1.169 0 .465-.1.868-.3 1.21-.196.342-.506.606-.93.793-.419.187-.966.28-1.641.28h-3.117zm1.142-.922h1.866c.565 0 1.016-.101 1.353-.301.338-.201.506-.536.506-1.005 0-.46-.157-.779-.471-.957-.315-.182-.766-.274-1.354-.274h-1.9v2.537zm6.084.922v-7.492h1.134v7.492h-1.134zm6.419-7.628c.638 0 1.184.141 1.64.423a2.74 2.74 0 011.046 1.19c.242.506.362 1.098.362 1.777v.704h-5.174c.013.88.232 1.55.656 2.01.424.46 1.021.69 1.791.69.474 0 .893-.043 1.258-.129a7.05 7.05 0 001.134-.383v.998a5.583 5.583 0 01-1.128.369 6.496 6.496 0 01-1.312.116c-.72 0-1.349-.146-1.887-.437a3.068 3.068 0 01-1.244-1.299c-.296-.57-.444-1.267-.444-2.092 0-.807.134-1.504.403-2.092.274-.592.656-1.048 1.149-1.367.496-.319 1.08-.478 1.75-.478zm-.014.929c-.606 0-1.089.198-1.449.595-.36.396-.575.95-.643 1.661h3.965a3.209 3.209 0 00-.212-1.176 1.652 1.652 0 00-.608-.793c-.274-.191-.625-.287-1.053-.287zm-94.145 25.94c0 .615-.079 1.164-.239 1.647-.159.483-.39.891-.69 1.224a3.01 3.01 0 01-1.094.765 3.77 3.77 0 01-1.442.26c-.502 0-.962-.086-1.381-.26a3.108 3.108 0 01-1.08-.765 3.546 3.546 0 01-.705-1.224c-.164-.483-.246-1.032-.246-1.647 0-.821.139-1.518.417-2.092.278-.579.675-1.019 1.19-1.319.519-.306 1.137-.458 1.852-.458.684 0 1.281.152 1.791.458.515.305.914.747 1.197 1.326.287.574.43 1.269.43 2.085zm-5.701 0c0 .601.08 1.123.239 1.565.16.442.406.784.739 1.025.332.242.761.363 1.285.363.519 0 .946-.121 1.278-.363.337-.241.586-.583.745-1.025.16-.442.24-.964.24-1.565 0-.597-.08-1.112-.24-1.545-.159-.438-.405-.775-.738-1.012-.333-.237-.763-.355-1.292-.355-.779 0-1.351.257-1.716.772-.36.515-.54 1.228-.54 2.14zm17.712-3.733v7.492h-10.049v-7.492h1.135v6.529h3.315v-6.529h1.142v6.529h3.322v-6.529h1.135zm3.486 0v4.71a13.569 13.569 0 01-.027.814l-.027.465a6.352 6.352 0 01-.021.362l4.088-6.351h1.395v7.492h-1.06v-4.593a28.437 28.437 0 01.027-1.231l.021-.519-4.074 6.343h-1.402v-7.492h1.08zm7.431 2.994c0-1.066.103-1.975.308-2.727.205-.757.522-1.363.95-1.819.433-.46.989-.774 1.668-.943a23.156 23.156 0 011.777-.41 40.798 40.798 0 011.757-.308l.198.998c-.287.041-.588.089-.902.144-.315.05-.629.105-.943.164a17.02 17.02 0 00-.889.178 9.926 9.926 0 00-.738.184 2.37 2.37 0 00-1.005.547c-.278.26-.499.618-.663 1.073-.16.456-.256 1.03-.287 1.723h.082a3.069 3.069 0 011.408-1.08 2.943 2.943 0 011.107-.198c.647 0 1.187.141 1.62.424.433.278.759.67.978 1.175.219.506.328 1.099.328 1.778 0 .815-.141 1.501-.424 2.057-.278.556-.67.976-1.176 1.258-.505.278-1.1.417-1.784.417a3.2 3.2 0 01-1.422-.307 2.91 2.91 0 01-1.059-.903c-.287-.396-.508-.882-.663-1.456-.151-.574-.226-1.23-.226-1.969zm3.459 3.692c.433 0 .804-.091 1.114-.274.315-.182.556-.469.725-.861.173-.396.26-.911.26-1.545 0-.793-.153-1.413-.458-1.859-.301-.451-.784-.677-1.45-.677-.414 0-.79.089-1.127.267-.338.173-.623.38-.855.622a3.228 3.228 0 00-.506.649c0 .465.034.916.103 1.354.068.437.187.831.355 1.182.169.351.401.629.697.834.301.205.682.308 1.142.308zm9.625-6.686h1.251l-3.233 3.616 3.493 3.876h-1.333l-3.404-3.8v3.8h-1.142v-7.492h1.142v3.637l3.226-3.637zm3.944 0v4.71a13.569 13.569 0 01-.027.814l-.027.465a6.352 6.352 0 01-.021.362l4.088-6.351h1.395v7.492h-1.06v-4.593a28.437 28.437 0 01.027-1.231l.021-.519-4.074 6.343h-1.402v-7.492h1.08zm8.593 4.717v-.355c0-.365.034-.677.103-.937.068-.264.187-.51.355-.738.173-.228.413-.47.718-.725.355-.296.636-.547.841-.752.209-.209.36-.419.451-.629.091-.209.137-.462.137-.759 0-.473-.153-.836-.458-1.086-.306-.256-.736-.383-1.292-.383-.452 0-.853.057-1.203.171-.351.114-.689.25-1.012.41l-.397-.916a6.28 6.28 0 011.217-.479 5.403 5.403 0 011.463-.184c.88 0 1.561.218 2.044.656.483.433.725 1.03.725 1.791 0 .424-.069.786-.205 1.087a2.84 2.84 0 01-.582.82c-.25.246-.546.508-.888.786a5.53 5.53 0 00-.691.677c-.159.192-.269.39-.328.595-.059.2-.089.442-.089.724v.226h-.909zm-.301 2.064c0-.319.076-.544.226-.676a.828.828 0 01.581-.205c.223 0 .412.068.567.205.16.132.24.357.24.676 0 .315-.08.545-.24.691a.813.813 0 01-.567.212.815.815 0 01-.581-.212c-.15-.146-.226-.376-.226-.691z" fill="#000"/><path d="M242.765 474.8c-3.11-1.709-3.11-6.179 0-7.888l110.996-60.988a4.497 4.497 0 014.334 0l110.995 60.988c3.111 1.709 3.111 6.179 0 7.888l-110.995 60.988a4.497 4.497 0 01-4.334 0L242.765 474.8z" fill="#fff" stroke="url(#paint8_linear_1_2228)"/><path d="M321.858 460.856v-9.994h7.444v9.994h-1.148v-8.969h-5.134v8.969h-1.162zm13.549-7.629c.934 0 1.679.321 2.235.964.556.642.834 1.609.834 2.898 0 .853-.128 1.568-.383 2.147-.255.579-.615 1.016-1.08 1.312-.46.297-1.005.445-1.634.445-.396 0-.745-.053-1.046-.158a2.469 2.469 0 01-.772-.423 2.784 2.784 0 01-.533-.581h-.082l.048.642c.022.251.034.47.034.656v3.077h-1.142v-10.842h.937l.15 1.107h.055c.146-.228.323-.435.533-.622.21-.191.465-.342.766-.451a3.083 3.083 0 011.08-.171zm-.199.957c-.519 0-.938.1-1.257.301-.315.2-.545.501-.691.902-.146.397-.223.896-.232 1.497v.219c0 .633.068 1.169.205 1.606.141.438.371.771.69.999.324.227.757.341 1.299.341.465 0 .852-.125 1.162-.376.31-.25.54-.599.691-1.046.155-.451.232-.968.232-1.551 0-.884-.173-1.586-.52-2.106-.341-.524-.868-.786-1.579-.786zm11.71 2.912c0 .615-.079 1.165-.239 1.648a3.37 3.37 0 01-.69 1.223 3.013 3.013 0 01-1.094.766 3.79 3.79 0 01-1.442.26c-.502 0-.962-.087-1.381-.26a3.11 3.11 0 01-1.08-.766 3.532 3.532 0 01-.705-1.223c-.164-.483-.246-1.033-.246-1.648 0-.82.139-1.517.417-2.092.278-.578.675-1.018 1.19-1.319.519-.305 1.137-.458 1.852-.458.684 0 1.281.153 1.791.458.515.305.914.747 1.197 1.326.287.574.43 1.269.43 2.085zm-5.701 0c0 .602.08 1.124.239 1.566.16.442.406.783.739 1.025.332.242.761.362 1.285.362.519 0 .946-.12 1.278-.362.337-.242.586-.583.745-1.025.16-.442.24-.964.24-1.566 0-.597-.08-1.112-.24-1.545-.159-.437-.405-.774-.738-1.011-.333-.237-.763-.356-1.292-.356-.779 0-1.351.258-1.716.773-.36.515-.54 1.228-.54 2.139zm13.617-1.852c0 .469-.136.836-.41 1.1-.273.26-.626.435-1.059.527v.054a2.4 2.4 0 011.21.506c.341.269.512.681.512 1.237 0 .429-.102.807-.307 1.135-.205.328-.527.586-.964.773-.438.187-1.007.28-1.709.28h-3.227v-7.492h3.199a4.96 4.96 0 011.422.184c.415.119.741.315.978.588.237.274.355.643.355 1.108zm-.929 3.424c0-.442-.169-.761-.506-.957-.333-.196-.818-.294-1.456-.294h-1.921v2.516h1.948c.629 0 1.108-.096 1.436-.287.332-.196.499-.522.499-.978zm-.226-3.294c0-.356-.13-.62-.39-.793-.259-.178-.685-.267-1.278-.267h-1.989v2.153h1.791c.615 0 1.08-.089 1.394-.266.315-.178.472-.454.472-.827zm9.7 1.722c0 .615-.079 1.165-.239 1.648a3.37 3.37 0 01-.69 1.223 3.013 3.013 0 01-1.094.766c-.424.173-.905.26-1.443.26-.501 0-.961-.087-1.38-.26a3.11 3.11 0 01-1.08-.766 3.532 3.532 0 01-.705-1.223c-.164-.483-.246-1.033-.246-1.648 0-.82.139-1.517.417-2.092.278-.578.675-1.018 1.19-1.319.519-.305 1.137-.458 1.852-.458.684 0 1.281.153 1.791.458.515.305.914.747 1.197 1.326.287.574.43 1.269.43 2.085zm-5.701 0c0 .602.08 1.124.239 1.566.16.442.406.783.739 1.025.332.242.761.362 1.285.362.519 0 .945-.12 1.278-.362.337-.242.586-.583.745-1.025.16-.442.24-.964.24-1.566 0-.597-.08-1.112-.24-1.545-.159-.437-.405-.774-.738-1.011-.333-.237-.763-.356-1.292-.356-.779 0-1.351.258-1.716.773-.36.515-.54 1.228-.54 2.139zm13.152-3.732v6.528h1.074v3.555h-1.101v-2.591h-5.305v2.591h-1.086v-3.555h.587a9.028 9.028 0 001.067-1.948c.282-.707.497-1.447.642-2.222.146-.779.224-1.565.233-2.358h3.889zm-1.1.902h-1.777a12.823 12.823 0 01-.294 2.03 12.347 12.347 0 01-.602 1.969 7.826 7.826 0 01-.875 1.627h3.548v-5.626zm4.744-.902v4.71a17.525 17.525 0 01-.027.813l-.028.465a5.553 5.553 0 01-.02.362l4.088-6.35h1.394v7.492h-1.059v-4.594a28.276 28.276 0 01.027-1.23l.021-.52-4.075 6.344h-1.401v-7.492h1.08zm15.73 0v7.492h-1.026v-4.881c0-.2.005-.403.014-.608.013-.21.029-.42.048-.629h-.041l-2.489 6.118h-.964l-2.426-6.118h-.041c.013.209.022.419.027.629.009.205.014.421.014.649v4.84h-1.033v-7.492h1.525l2.42 6.125 2.454-6.125h1.518zm-85.682 24.88c0 .469-.137.836-.41 1.1-.274.26-.627.435-1.06.527v.054c.47.064.873.233 1.21.506.342.269.513.681.513 1.237 0 .429-.103.807-.308 1.135-.205.328-.526.586-.964.773-.437.187-1.007.28-1.709.28h-3.226v-7.492h3.199a4.96 4.96 0 011.422.184c.415.119.74.315.977.588.237.274.356.643.356 1.108zm-.93 3.424c0-.442-.168-.761-.506-.957-.332-.196-.818-.294-1.456-.294h-1.921v2.516h1.949c.629 0 1.107-.096 1.435-.287.333-.196.499-.522.499-.978zm-.225-3.294c0-.356-.13-.62-.39-.793-.26-.178-.686-.267-1.278-.267h-1.99v2.153h1.791c.616 0 1.08-.089 1.395-.266.314-.178.472-.454.472-.827zm9.7 1.722c0 .615-.08 1.165-.239 1.648-.16.483-.39.891-.691 1.223a3.004 3.004 0 01-1.094.766c-.423.173-.904.26-1.442.26-.501 0-.962-.087-1.381-.26a3.11 3.11 0 01-1.08-.766 3.53 3.53 0 01-.704-1.223c-.164-.483-.246-1.033-.246-1.648 0-.82.139-1.517.417-2.092.278-.578.674-1.018 1.189-1.319.52-.305 1.137-.458 1.853-.458.683 0 1.28.153 1.791.458.515.305.914.747 1.196 1.326.287.574.431 1.269.431 2.085zm-5.701 0c0 .602.079 1.124.239 1.566.159.442.405.783.738 1.025.333.242.761.362 1.285.362.52 0 .946-.12 1.279-.362.337-.242.585-.583.745-1.025.159-.442.239-.964.239-1.566 0-.597-.08-1.112-.239-1.545-.16-.437-.406-.774-.739-1.011-.332-.237-.763-.356-1.292-.356-.779 0-1.351.258-1.715.773-.36.515-.54 1.228-.54 2.139zm10.664 3.897c-.675 0-1.27-.139-1.785-.417-.514-.278-.916-.702-1.203-1.272-.287-.569-.43-1.287-.43-2.153 0-.907.15-1.648.451-2.222.305-.579.724-1.007 1.258-1.285.533-.278 1.139-.417 1.818-.417.374 0 .734.039 1.08.116.351.073.638.167.861.281l-.341.95a5.952 5.952 0 00-.793-.246 3.506 3.506 0 00-.834-.11c-.52 0-.953.112-1.299.335-.342.224-.599.552-.773.985-.168.433-.253.966-.253 1.599 0 .606.083 1.124.247 1.552.168.428.417.756.745.984.332.224.747.335 1.244.335.396 0 .754-.041 1.073-.123.319-.086.608-.187.868-.301v1.012c-.25.128-.531.226-.841.294a5.08 5.08 0 01-1.093.103zm6.713 0c-.675 0-1.27-.139-1.785-.417-.515-.278-.916-.702-1.203-1.272-.287-.569-.43-1.287-.43-2.153 0-.907.15-1.648.451-2.222.305-.579.724-1.007 1.258-1.285.533-.278 1.139-.417 1.818-.417.374 0 .734.039 1.08.116.351.073.638.167.861.281l-.341.95a5.952 5.952 0 00-.793-.246 3.506 3.506 0 00-.834-.11c-.52 0-.953.112-1.299.335-.342.224-.6.552-.773.985-.168.433-.253.966-.253 1.599 0 .606.082 1.124.246 1.552.169.428.417.756.746.984.332.224.747.335 1.244.335.396 0 .754-.041 1.073-.123.319-.086.608-.187.868-.301v1.012a3.487 3.487 0 01-.841.294c-.305.068-.67.103-1.093.103zm8.818-6.665h-2.468v6.528h-1.121v-6.528h-2.434v-.964h6.023v.964zm4.286-1.087c.893 0 1.556.2 1.989.601.433.401.65 1.042.65 1.921v5.093h-.827l-.219-1.107h-.055a4.145 4.145 0 01-.656.69 2.45 2.45 0 01-.793.417c-.296.091-.661.137-1.094.137-.456 0-.861-.08-1.217-.24a1.893 1.893 0 01-.834-.724c-.2-.324-.3-.734-.3-1.231 0-.747.296-1.321.888-1.722.593-.401 1.495-.62 2.707-.657l1.292-.054v-.458c0-.647-.139-1.101-.417-1.361-.278-.259-.67-.389-1.175-.389-.392 0-.766.057-1.122.171a7.688 7.688 0 00-1.011.403l-.349-.861a6.192 6.192 0 011.162-.445 5.083 5.083 0 011.381-.184zm1.518 3.924l-1.142.047c-.934.037-1.593.19-1.976.458-.382.269-.574.65-.574 1.142 0 .428.13.745.39.95.26.205.604.308 1.032.308.665 0 1.21-.185 1.634-.554.424-.369.636-.923.636-1.661v-.69zm4.6-3.801v3.144h4.177v-3.144h1.135v7.492h-1.135v-3.384h-4.177v3.384h-1.141v-7.492h1.141zm14.178 3.732c0 .615-.08 1.165-.239 1.648-.16.483-.39.891-.691 1.223a3.009 3.009 0 01-1.093.766c-.424.173-.905.26-1.443.26a3.59 3.59 0 01-1.381-.26 3.129 3.129 0 01-1.08-.766 3.53 3.53 0 01-.704-1.223c-.164-.483-.246-1.033-.246-1.648 0-.82.139-1.517.417-2.092.278-.578.674-1.018 1.189-1.319.52-.305 1.137-.458 1.853-.458.684 0 1.281.153 1.791.458.515.305.914.747 1.196 1.326.287.574.431 1.269.431 2.085zm-5.701 0c0 .602.08 1.124.239 1.566.16.442.406.783.738 1.025.333.242.761.362 1.285.362.52 0 .946-.12 1.279-.362.337-.242.585-.583.745-1.025.159-.442.239-.964.239-1.566 0-.597-.08-1.112-.239-1.545-.16-.437-.406-.774-.738-1.011-.333-.237-.764-.356-1.292-.356-.78 0-1.352.258-1.716.773-.36.515-.54 1.228-.54 2.139zm13.617-1.852c0 .469-.137.836-.41 1.1-.274.26-.627.435-1.06.527v.054c.47.064.873.233 1.21.506.342.269.513.681.513 1.237 0 .429-.103.807-.308 1.135-.205.328-.526.586-.964.773-.437.187-1.007.28-1.709.28h-3.226v-7.492h3.199a4.96 4.96 0 011.422.184c.415.119.741.315.978.588.236.274.355.643.355 1.108zm-.93 3.424c0-.442-.168-.761-.506-.957-.332-.196-.818-.294-1.456-.294h-1.921v2.516h1.949c.629 0 1.107-.096 1.435-.287.333-.196.499-.522.499-.978zm-.225-3.294c0-.356-.13-.62-.39-.793-.26-.178-.686-.267-1.278-.267h-1.99v2.153h1.791c.616 0 1.081-.089 1.395-.266.314-.178.472-.454.472-.827zm8.859 5.482h-1.155v-6.542h-2.277a35.11 35.11 0 01-.348 3.035c-.137.839-.31 1.525-.52 2.058-.205.528-.455.918-.752 1.169-.291.246-.64.369-1.046.369-.123 0-.239-.007-.348-.021a1.054 1.054 0 01-.28-.068v-.861a1.202 1.202 0 00.396.054c.205 0 .392-.084.561-.253.173-.173.328-.433.464-.779.142-.346.267-.784.376-1.312.11-.534.205-1.16.287-1.88.087-.725.162-1.545.226-2.461h4.416v7.492zm5.277-7.629c.638 0 1.185.141 1.641.424.456.282.804.679 1.046 1.189.241.506.362 1.099.362 1.778v.704h-5.175c.014.879.233 1.549.657 2.01.424.46 1.021.69 1.791.69.474 0 .893-.043 1.258-.13a6.86 6.86 0 001.134-.383v.998a5.46 5.46 0 01-1.128.369 6.418 6.418 0 01-1.312.117c-.72 0-1.349-.146-1.887-.438a3.057 3.057 0 01-1.244-1.299c-.296-.569-.444-1.267-.444-2.091 0-.807.134-1.504.403-2.092.273-.593.656-1.048 1.148-1.367.497-.319 1.08-.479 1.75-.479zm-.013.93c-.606 0-1.089.198-1.449.594-.36.397-.575.951-.643 1.662h3.965a3.205 3.205 0 00-.212-1.176 1.647 1.647 0 00-.609-.793c-.273-.192-.624-.287-1.052-.287zm6.132-.793v3.144h4.176v-3.144h1.135v7.492h-1.135v-3.384h-4.176v3.384h-1.142v-7.492h1.142zm8.797 0v4.71a13.503 13.503 0 01-.027.813l-.027.465a6.241 6.241 0 01-.021.362l4.088-6.35h1.395v7.492h-1.06v-4.594a28.276 28.276 0 01.027-1.23l.021-.52-4.074 6.344h-1.402v-7.492h1.08zm10.706-.137c.638 0 1.184.141 1.64.424.456.282.805.679 1.046 1.189.242.506.362 1.099.362 1.778v.704h-5.174c.013.879.232 1.549.656 2.01.424.46 1.021.69 1.791.69.474 0 .893-.043 1.258-.13a6.86 6.86 0 001.134-.383v.998a5.46 5.46 0 01-1.128.369 6.418 6.418 0 01-1.312.117c-.72 0-1.349-.146-1.887-.438a3.057 3.057 0 01-1.244-1.299c-.296-.569-.444-1.267-.444-2.091 0-.807.134-1.504.403-2.092.274-.593.656-1.048 1.149-1.367.496-.319 1.08-.479 1.75-.479zm-.014.93c-.606 0-1.089.198-1.449.594-.36.397-.575.951-.643 1.662h3.965a3.205 3.205 0 00-.212-1.176 1.652 1.652 0 00-.608-.793c-.274-.192-.625-.287-1.053-.287zm5.763 3.924v-.356c0-.364.034-.677.102-.936.068-.265.187-.511.356-.739a4.61 4.61 0 01.717-.724c.356-.297.636-.547.841-.752.21-.21.36-.42.451-.629.091-.21.137-.463.137-.759 0-.474-.153-.836-.458-1.087-.305-.255-.736-.383-1.292-.383a3.89 3.89 0 00-1.203.171 7.675 7.675 0 00-1.012.41l-.396-.916a6.244 6.244 0 011.216-.478 5.407 5.407 0 011.463-.185c.88 0 1.561.219 2.044.657.483.432.725 1.029.725 1.791 0 .423-.068.786-.205 1.086a2.86 2.86 0 01-.581.821c-.251.246-.547.508-.889.786a5.377 5.377 0 00-.69.677c-.16.191-.269.389-.328.594-.06.201-.089.442-.089.725v.226h-.909zm-.301 2.064c0-.319.075-.545.225-.677a.835.835 0 01.581-.205c.224 0 .413.069.568.205.159.132.239.358.239.677 0 .314-.08.545-.239.69a.809.809 0 01-.568.212.812.812 0 01-.581-.212c-.15-.145-.225-.376-.225-.69z" fill="#000"/><path d="M562.765 645.972c-3.11-1.71-3.11-6.179 0-7.888l110.996-60.988a4.497 4.497 0 014.334 0l110.995 60.988c3.111 1.709 3.111 6.178 0 7.888L678.095 706.96a4.503 4.503 0 01-4.334 0l-110.996-60.988z" fill="#fff" stroke="url(#paint9_linear_1_2228)"/><path d="M641.857 634.028v-9.994h7.445v9.994h-1.149v-8.969h-5.133v8.969h-1.163zm13.549-7.629c.935 0 1.68.321 2.236.964.556.642.834 1.609.834 2.898 0 .852-.128 1.568-.383 2.147-.255.578-.615 1.016-1.08 1.312-.461.296-1.005.445-1.634.445a3.17 3.17 0 01-1.046-.158 2.44 2.44 0 01-.772-.424 2.741 2.741 0 01-.534-.581h-.082l.048.643c.023.251.034.469.034.656v3.076h-1.141v-10.841h.936l.151 1.107h.054a2.99 2.99 0 01.534-.622 2.26 2.26 0 01.765-.451 3.09 3.09 0 011.08-.171zm-.198.957c-.52 0-.939.1-1.258.301-.314.2-.544.501-.69.902-.146.397-.224.896-.233 1.497v.219c0 .633.069 1.169.205 1.606.142.438.372.771.691.998.323.228.756.342 1.299.342.465 0 .852-.125 1.162-.376.31-.25.54-.599.69-1.046.155-.451.233-.968.233-1.551 0-.885-.174-1.586-.52-2.106-.342-.524-.868-.786-1.579-.786zm11.71 2.912c0 .615-.08 1.164-.239 1.648-.16.483-.39.89-.691 1.223a3 3 0 01-1.093.766c-.424.173-.905.26-1.443.26a3.59 3.59 0 01-1.381-.26 3.129 3.129 0 01-1.08-.766 3.54 3.54 0 01-.704-1.223c-.164-.484-.246-1.033-.246-1.648 0-.82.139-1.518.417-2.092a2.975 2.975 0 011.189-1.319c.52-.305 1.138-.458 1.853-.458.684 0 1.281.153 1.791.458.515.305.914.747 1.196 1.326.287.574.431 1.269.431 2.085zm-5.701 0c0 .602.08 1.123.239 1.565.16.443.406.784.738 1.026.333.241.761.362 1.286.362.519 0 .945-.121 1.278-.362.337-.242.585-.583.745-1.026.159-.442.239-.963.239-1.565 0-.597-.08-1.112-.239-1.545-.16-.437-.406-.775-.738-1.012-.333-.237-.764-.355-1.292-.355-.78 0-1.352.257-1.716.772-.36.515-.54 1.229-.54 2.14zm13.617-1.852c0 .469-.137.836-.41 1.1-.274.26-.627.435-1.06.526v.055c.47.064.873.233 1.21.506.342.269.513.681.513 1.237 0 .429-.103.807-.308 1.135-.205.328-.526.586-.964.773-.437.186-1.007.28-1.709.28h-3.226v-7.492h3.199a4.96 4.96 0 011.422.184c.415.119.741.315.978.588.237.274.355.643.355 1.108zm-.93 3.424c0-.442-.168-.761-.506-.957-.332-.196-.818-.294-1.456-.294h-1.921v2.516h1.949c.629 0 1.107-.096 1.435-.287.333-.196.499-.522.499-.978zm-.225-3.295c0-.355-.13-.619-.39-.793-.26-.177-.686-.266-1.278-.266h-1.99v2.153h1.792c.615 0 1.08-.089 1.394-.266.314-.178.472-.454.472-.828zm9.7 1.723c0 .615-.08 1.164-.239 1.648-.16.483-.39.89-.691 1.223a3.004 3.004 0 01-1.094.766c-.423.173-.904.26-1.442.26a3.59 3.59 0 01-1.381-.26 3.129 3.129 0 01-1.08-.766 3.54 3.54 0 01-.704-1.223c-.164-.484-.246-1.033-.246-1.648 0-.82.139-1.518.417-2.092.278-.579.674-1.018 1.189-1.319.52-.305 1.137-.458 1.853-.458.684 0 1.281.153 1.791.458.515.305.914.747 1.196 1.326.287.574.431 1.269.431 2.085zm-5.701 0c0 .602.08 1.123.239 1.565.16.443.406.784.738 1.026.333.241.761.362 1.285.362.52 0 .946-.121 1.279-.362.337-.242.585-.583.745-1.026.159-.442.239-.963.239-1.565 0-.597-.08-1.112-.239-1.545-.16-.437-.406-.775-.738-1.012-.333-.237-.764-.355-1.292-.355-.78 0-1.352.257-1.716.772-.36.515-.54 1.229-.54 2.14zm13.152-3.732v6.528h1.073v3.555h-1.1v-2.591h-5.305v2.591h-1.087v-3.555h.588a9.025 9.025 0 001.066-1.948c.283-.707.497-1.447.643-2.222.146-.779.223-1.565.232-2.358h3.89zm-1.1.902h-1.778a12.823 12.823 0 01-.294 2.03c-.15.688-.351 1.345-.601 1.969a7.874 7.874 0 01-.875 1.627h3.548v-5.626zm4.744-.902v4.71a14.223 14.223 0 01-.028.813l-.027.465a5.457 5.457 0 01-.021.362l4.088-6.35h1.395v7.492h-1.06v-4.594a34.587 34.587 0 01.028-1.23l.02-.52-4.074 6.344h-1.401v-7.492h1.08zm15.729 0v7.492h-1.025v-4.881c0-.201.004-.403.013-.608.014-.21.03-.42.048-.629h-.041l-2.488 6.118h-.964l-2.427-6.118h-.041c.014.209.023.419.028.629.009.205.013.421.013.649v4.84h-1.032v-7.492h1.525l2.419 6.125 2.455-6.125h1.517zm-77.431 26.732c0 .615-.079 1.164-.239 1.648-.159.483-.389.89-.69 1.223a3.013 3.013 0 01-1.094.766 3.79 3.79 0 01-1.442.26c-.502 0-.962-.087-1.381-.26a3.11 3.11 0 01-1.08-.766 3.523 3.523 0 01-.704-1.223c-.164-.484-.246-1.033-.246-1.648 0-.82.139-1.518.417-2.092.278-.579.674-1.018 1.189-1.319.519-.305 1.137-.458 1.853-.458.683 0 1.28.153 1.791.458.514.305.913.747 1.196 1.326.287.574.43 1.269.43 2.085zm-5.701 0c0 .602.08 1.123.24 1.565.159.443.405.784.738 1.026.333.241.761.362 1.285.362.52 0 .946-.121 1.278-.362.338-.242.586-.583.745-1.026.16-.442.24-.963.24-1.565 0-.597-.08-1.112-.24-1.545-.159-.437-.405-.775-.738-1.012-.333-.237-.763-.355-1.292-.355-.779 0-1.351.257-1.716.772-.36.515-.54 1.229-.54 2.14zm13.939-3.732v7.492h-1.142v-6.515h-3.992v6.515h-1.142v-7.492h6.276zm7.512.964h-2.467v6.528h-1.121V650.5H642.5v-.964h6.022v.964zm2.564-.964v4.71a17.525 17.525 0 01-.027.813l-.028.465a5.553 5.553 0 01-.02.362l4.088-6.35h1.394v7.492h-1.059v-4.594a32.988 32.988 0 01.027-1.23l.02-.52-4.074 6.344h-1.401v-7.492h1.08zm15.729 0v7.492h-1.025v-4.881c0-.201.005-.403.014-.608.013-.21.029-.42.048-.629h-.041l-2.489 6.118h-.964l-2.426-6.118h-.041c.013.209.022.419.027.629.009.205.014.421.014.649v4.84h-1.033v-7.492h1.525l2.42 6.125 2.454-6.125h1.517zm3.439 0v4.71a17.525 17.525 0 01-.027.813l-.028.465a5.553 5.553 0 01-.02.362l4.088-6.35h1.394v7.492h-1.059v-4.594a32.988 32.988 0 01.027-1.23l.02-.52-4.074 6.344h-1.401v-7.492h1.08zm9.748-.137c.561 0 1.046.077 1.456.232.41.151.727.372.95.663.224.292.335.648.335 1.067 0 .451-.123.811-.369 1.08s-.586.462-1.019.581v.055c.306.082.582.2.828.355.25.151.449.351.594.602.151.246.226.553.226.923 0 .419-.114.797-.342 1.134-.228.333-.574.595-1.039.786-.465.192-1.053.288-1.764.288-.35 0-.683-.021-.998-.062a5.31 5.31 0 01-.854-.164 3.562 3.562 0 01-.67-.26v-1.032c.319.155.693.292 1.121.41.428.119.891.178 1.388.178.383 0 .727-.043 1.032-.13.305-.091.547-.235.725-.431.182-.2.273-.462.273-.786 0-.296-.08-.54-.239-.731-.16-.196-.399-.34-.718-.431-.314-.096-.713-.143-1.196-.143h-1.005v-.93h.827c.643 0 1.155-.091 1.538-.274.383-.182.574-.49.574-.922 0-.374-.148-.652-.444-.834-.296-.187-.72-.281-1.272-.281-.41 0-.772.044-1.086.13a7.4 7.4 0 00-1.019.356l-.403-.91a5.931 5.931 0 011.23-.389c.429-.087.875-.13 1.34-.13zm7.643.014c.893 0 1.556.2 1.989.601.433.401.649 1.042.649 1.921v5.093h-.827l-.219-1.108h-.054c-.21.274-.429.504-.657.691a2.44 2.44 0 01-.793.417c-.296.091-.66.137-1.093.137-.456 0-.862-.08-1.217-.24a1.893 1.893 0 01-.834-.724c-.201-.324-.301-.734-.301-1.231 0-.747.296-1.321.889-1.722.592-.401 1.495-.62 2.707-.657l1.292-.054v-.458c0-.648-.139-1.101-.417-1.361-.278-.26-.67-.389-1.176-.389-.392 0-.766.057-1.121.171a7.512 7.512 0 00-1.012.403l-.348-.861a6.165 6.165 0 011.162-.445 5.072 5.072 0 011.381-.184zm1.517 3.923l-1.141.048c-.935.037-1.593.189-1.976.458s-.574.65-.574 1.142c0 .428.13.745.389.95.26.205.604.308 1.033.308.665 0 1.21-.185 1.633-.554.424-.369.636-.923.636-1.661v-.691zm10.753 6.283h-1.107v-2.591h-6.187v-7.492h1.142v6.528h3.971v-6.528h1.135v6.542h1.046v3.541zm2.55-10.083v4.71a23.375 23.375 0 01-.027.813l-.028.465a5.553 5.553 0 01-.02.362l4.088-6.35h1.394v7.492h-1.059v-4.594a32.988 32.988 0 01.027-1.23l.02-.52-4.074 6.344h-1.401v-7.492h1.08zm17.452 3.732c0 .816-.132 1.515-.396 2.099-.26.583-.634 1.03-1.122 1.34-.487.305-1.071.458-1.75.458-.633 0-1.187-.137-1.661-.411a2.889 2.889 0 01-1.114-1.196c-.269-.524-.424-1.162-.465-1.914h-1.989v3.384h-1.135v-7.492h1.135v3.144h2.003c.064-.693.232-1.283.506-1.77a2.836 2.836 0 011.107-1.121c.465-.26 1.012-.39 1.641-.39.656 0 1.226.155 1.709.465.487.305.863.747 1.128 1.326.269.574.403 1.267.403 2.078zm-5.346 0c0 .629.071 1.164.212 1.607.146.437.372.772.677 1.004.31.228.711.342 1.203.342.488 0 .884-.114 1.19-.342.309-.227.535-.56.676-.998.146-.442.219-.979.219-1.613 0-.624-.073-1.153-.219-1.586-.146-.433-.371-.761-.676-.984-.306-.228-.702-.342-1.19-.342s-.886.114-1.196.342c-.306.223-.531.551-.677.984-.146.433-.219.962-.219 1.586zm8.094.984v-.355c0-.365.034-.677.103-.937.068-.264.186-.51.355-.738.173-.228.412-.469.718-.724.355-.297.636-.547.841-.752.209-.21.36-.42.451-.629.091-.21.137-.463.137-.759 0-.474-.153-.836-.458-1.087-.306-.255-.736-.383-1.292-.383-.452 0-.853.057-1.204.171-.35.114-.688.251-1.011.41l-.397-.916c.374-.196.78-.355 1.217-.478a5.402 5.402 0 011.463-.185c.879 0 1.561.219 2.044.656.483.433.724 1.03.724 1.791 0 .424-.068.787-.205 1.087a2.82 2.82 0 01-.581.821c-.25.246-.547.508-.888.786a5.462 5.462 0 00-.691.677 1.643 1.643 0 00-.328.594 2.592 2.592 0 00-.089.725v.225h-.909zm-.301 2.065c0-.319.075-.545.226-.677a.828.828 0 01.581-.205c.223 0 .412.068.567.205.16.132.24.358.24.677 0 .314-.08.544-.24.69a.808.808 0 01-.567.212.81.81 0 01-.581-.212c-.151-.146-.226-.376-.226-.69z" fill="#000"/><path d="M242.765 229.961c-3.11-1.709-3.11-6.179 0-7.888l110.996-60.988a4.497 4.497 0 014.334 0l110.995 60.988c3.111 1.709 3.111 6.179 0 7.888l-110.995 60.988a4.503 4.503 0 01-4.334 0l-110.996-60.988z" fill="#fff" stroke="url(#paint10_linear_1_2228)"/><path d="M297.85 231.517v-9.994h7.444v9.994h-1.148v-8.969h-5.134v8.969h-1.162zm13.549-7.629c.934 0 1.679.321 2.235.964.556.642.834 1.608.834 2.898 0 .852-.127 1.568-.383 2.147-.255.578-.615 1.016-1.08 1.312-.46.296-1.005.445-1.634.445-.396 0-.745-.053-1.045-.158a2.465 2.465 0 01-.773-.424 2.736 2.736 0 01-.533-.581h-.082l.048.643c.023.251.034.469.034.656v3.076h-1.142v-10.841h.937l.15 1.107h.055c.146-.228.323-.435.533-.622.21-.191.465-.342.766-.451a3.083 3.083 0 011.08-.171zm-.198.957c-.52 0-.939.1-1.258.301-.315.2-.545.501-.691.902-.145.397-.223.896-.232 1.497v.219c0 .633.068 1.169.205 1.606.141.438.371.77.69.998.324.228.757.342 1.299.342.465 0 .852-.125 1.162-.376.31-.25.54-.599.691-1.046.155-.451.232-.968.232-1.551 0-.885-.173-1.586-.519-2.106-.342-.524-.868-.786-1.579-.786zm11.71 2.912c0 .615-.08 1.164-.24 1.647a3.36 3.36 0 01-.69 1.224 3.013 3.013 0 01-1.094.766 3.79 3.79 0 01-1.442.26c-.502 0-.962-.087-1.381-.26a3.11 3.11 0 01-1.08-.766 3.519 3.519 0 01-.704-1.224c-.164-.483-.246-1.032-.246-1.647 0-.82.139-1.518.417-2.092.278-.579.674-1.018 1.189-1.319.52-.305 1.137-.458 1.853-.458.683 0 1.28.153 1.791.458.515.305.913.747 1.196 1.326.287.574.431 1.269.431 2.085zm-5.702 0c0 .602.08 1.123.24 1.565.159.443.405.784.738 1.026.333.241.761.362 1.285.362.52 0 .946-.121 1.278-.362.338-.242.586-.583.745-1.026.16-.442.24-.963.24-1.565 0-.597-.08-1.112-.24-1.545-.159-.437-.405-.775-.738-1.012-.332-.237-.763-.355-1.292-.355-.779 0-1.351.257-1.716.772-.36.515-.54 1.229-.54 2.14zm13.618-1.853c0 .47-.137.837-.411 1.101-.273.26-.626.435-1.059.526v.055c.469.064.873.233 1.21.506.342.269.512.681.512 1.237 0 .429-.102.807-.307 1.135-.205.328-.527.586-.964.773-.438.186-1.007.28-1.709.28h-3.227v-7.492h3.2a4.97 4.97 0 011.422.184c.414.119.74.315.977.588.237.274.356.643.356 1.107zm-.93 3.425c0-.442-.169-.761-.506-.957-.333-.196-.818-.294-1.456-.294h-1.921v2.516h1.948c.629 0 1.108-.096 1.436-.287.333-.196.499-.522.499-.978zm-.226-3.295c0-.355-.13-.619-.389-.793-.26-.177-.686-.266-1.279-.266h-1.989v2.153h1.791c.615 0 1.08-.089 1.395-.266.314-.178.471-.454.471-.828zm9.7 1.723c0 .615-.079 1.164-.239 1.647a3.36 3.36 0 01-.69 1.224 3.013 3.013 0 01-1.094.766 3.79 3.79 0 01-1.442.26c-.502 0-.962-.087-1.381-.26a3.11 3.11 0 01-1.08-.766 3.519 3.519 0 01-.704-1.224c-.164-.483-.246-1.032-.246-1.647 0-.82.139-1.518.417-2.092.278-.579.674-1.018 1.189-1.319.519-.305 1.137-.458 1.853-.458.683 0 1.28.153 1.791.458.514.305.913.747 1.196 1.326.287.574.43 1.269.43 2.085zm-5.701 0c0 .602.08 1.123.24 1.565.159.443.405.784.738 1.026.333.241.761.362 1.285.362.52 0 .946-.121 1.278-.362.338-.242.586-.583.745-1.026.16-.442.24-.963.24-1.565 0-.597-.08-1.112-.24-1.545-.159-.437-.405-.775-.738-1.012-.333-.237-.763-.355-1.292-.355-.779 0-1.351.257-1.716.772-.36.515-.54 1.229-.54 2.14zm13.153-3.732v6.528h1.073v3.555h-1.101v-2.591h-5.304v2.591h-1.087v-3.555h.588a9.092 9.092 0 001.066-1.948c.283-.707.497-1.447.643-2.222.145-.779.223-1.565.232-2.358h3.89zm-1.101.902h-1.777a12.823 12.823 0 01-.294 2.03 12.378 12.378 0 01-.602 1.969 7.78 7.78 0 01-.875 1.627h3.548v-5.626zm4.744-.902v4.71a17.525 17.525 0 01-.027.813l-.027.465a6.296 6.296 0 01-.021.362l4.088-6.35h1.394v7.492h-1.059v-4.594a28.276 28.276 0 01.027-1.23l.021-.52-4.075 6.344h-1.401v-7.492h1.08zm15.73 0v7.492h-1.026v-4.881c0-.201.005-.403.014-.608.014-.21.03-.42.048-.629h-.041l-2.488 6.118h-.964l-2.427-6.118h-.041c.014.209.023.419.027.629.009.205.014.421.014.649v4.84h-1.032v-7.492h1.524l2.42 6.125 2.454-6.125h1.518zm8.798-.123c.893 0 1.556.2 1.989.601.433.401.649 1.041.649 1.921v5.093h-.827l-.219-1.108h-.054c-.21.274-.429.504-.657.691a2.44 2.44 0 01-.793.417c-.296.091-.66.137-1.093.137-.456 0-.862-.08-1.217-.24a1.893 1.893 0 01-.834-.724c-.201-.324-.301-.734-.301-1.231 0-.747.296-1.321.889-1.722.592-.402 1.495-.62 2.707-.657l1.292-.054v-.458c0-.648-.139-1.101-.417-1.361-.278-.26-.67-.389-1.176-.389-.392 0-.766.057-1.121.17a7.65 7.65 0 00-1.012.404l-.348-.862a6.235 6.235 0 011.162-.444 5.072 5.072 0 011.381-.184zm1.517 3.923l-1.141.048c-.935.037-1.593.189-1.976.458s-.574.65-.574 1.142c0 .428.13.745.389.95.26.205.604.308 1.033.308.665 0 1.21-.185 1.633-.554.424-.369.636-.923.636-1.661v-.691zm2.276-3.8h1.217l1.655 4.347c.095.255.184.502.266.739.082.232.155.455.219.669.064.215.114.422.15.623h.048c.064-.228.155-.527.274-.896.118-.374.246-.754.382-1.142l1.566-4.34h1.223l-3.26 8.592a5.667 5.667 0 01-.609 1.204 2.418 2.418 0 01-.834.786c-.328.186-.724.28-1.189.28a3.52 3.52 0 01-.567-.041 3.483 3.483 0 01-.424-.082v-.909a3.677 3.677 0 00.813.089c.283 0 .527-.055.732-.165.209-.104.389-.259.54-.464.15-.205.28-.449.389-.732l.41-1.053-3.001-7.505zm13.686 0v6.528h1.073v3.555h-1.1v-2.591h-5.305v2.591h-1.087v-3.555h.588a9.049 9.049 0 001.066-1.948c.283-.707.497-1.447.643-2.222.146-.779.223-1.565.232-2.358h3.89zm-1.101.902h-1.777a12.823 12.823 0 01-.294 2.03c-.15.688-.351 1.345-.601 1.969a7.874 7.874 0 01-.875 1.627h3.547v-5.626zm4.745-.902v4.71a14.223 14.223 0 01-.028.813l-.027.465a5.5 5.5 0 01-.021.362l4.088-6.35h1.395v7.492h-1.06v-4.594a34.587 34.587 0 01.028-1.23l.02-.52-4.074 6.344h-1.401v-7.492h1.08zm12.926.963h-2.467v6.529h-1.122v-6.529h-2.433v-.963h6.022v.963zm2.256 3.753v-.355c0-.365.034-.677.103-.937.068-.264.187-.51.355-.738.173-.228.413-.469.718-.724.355-.297.636-.547.841-.752.209-.21.36-.42.451-.629.091-.21.137-.463.137-.759 0-.474-.153-.836-.458-1.087-.306-.255-.736-.383-1.292-.383-.451 0-.853.057-1.203.171a7.62 7.62 0 00-1.012.41l-.397-.916c.374-.196.78-.355 1.217-.478a5.402 5.402 0 011.463-.185c.88 0 1.561.219 2.044.656.483.433.725 1.03.725 1.791 0 .424-.069.787-.205 1.087-.137.297-.331.57-.582.821-.25.246-.546.508-.888.786a5.533 5.533 0 00-.691.676 1.67 1.67 0 00-.328.595 2.592 2.592 0 00-.089.725v.225h-.909zm-.301 2.065c0-.319.076-.545.226-.677a.828.828 0 01.581-.205c.223 0 .413.068.567.205.16.132.24.358.24.677 0 .314-.08.544-.24.69a.806.806 0 01-.567.212.81.81 0 01-.581-.212c-.15-.146-.226-.376-.226-.69zM675.505 84.278L674.01 78.7l-4.082 4.082 5.577 1.495zm-7.523-7.523l.354-.353-.147-.147h-.207v.5zm-467.676.5h467.676v-1H200.306v1zm467.323-.146l4.34 4.34.707-.707-4.34-4.34-.707.707zm8.299 250.647l-1.494-5.577-4.083 4.083 5.577 1.494zm-7.523-7.522l.354-.354-.146-.146h-.208v.5zm-467.675.5h467.675v-1H200.73v1zm467.322-.147l4.34 4.341.707-.708-4.34-4.34-.707.707zm7.453 254.41l-1.495-5.577-4.082 4.082 5.577 1.495zm-7.523-7.523l.354-.353-.147-.147h-.207v.5zm-467.676.5h467.676v-1H200.306v1zm467.323-.146l4.34 4.34.707-.707-4.34-4.34-.707.707zm-566.306 84.087l-2.887-5h5.774l-2.887 5zm0-9.887h-.5v-.5h.5v.5zm458.676.5H101.323v-1h458.676v1zm-458.176-.5v5.387h-1v-5.387h1zm254.629-482.847l1.494-5.577 4.083 4.083-5.577 1.494zm7.523-7.522l-.354-.354.146-.146h.208v.5zm196.548.5H363.975v-1h196.548v1zm-196.195-.147l-4.34 4.341-.707-.707 4.34-4.341.707.707zm-8.4 250.764l1.494-5.577 4.083 4.082-5.577 1.495zm7.522-7.523l-.353-.353.146-.147h.207v.5zm196.549.5H363.45v-1h196.549v1zm-196.195-.146l-4.34 4.34-.708-.707 4.341-4.34.707.707zM101.742 293.852l-2.887-5h5.774l-2.887 5zm0-67.835h-.5v-.5h.5v.5zm139.049.5H101.742v-1h139.049v1zm-138.549-.5v63.335h-1v-63.335h1zm-.5 312.674l-2.887-5h5.774l-2.887 5zm0-67.835h-.5v-.5h.5v.5zm139.049.5H101.742v-1h139.049v1zm-138.549-.5v63.335h-1v-63.335h1z" fill="#000"/></g><defs><linearGradient id="paint0_linear_1_2228" x1="309.2" y1="25.269" x2="488.944" y2="17.931" gradientUnits="userSpaceOnUse"><stop stop-color="#D14B5F"/><stop offset="1" stop-color="#EF8E18"/></linearGradient><linearGradient id="paint1_linear_1_2228" x1="309.2" y1="716.269" x2="488.944" y2="708.931" gradientUnits="userSpaceOnUse"><stop stop-color="#D14B5F"/><stop offset="1" stop-color="#EF8E18"/></linearGradient><linearGradient id="paint2_linear_1_2228" x1=".743" y1="77.329" x2="200.397" y2="68.45" gradientUnits="userSpaceOnUse"><stop stop-color="#D14B5F"/><stop offset="1" stop-color="#EF8E18"/></linearGradient><linearGradient id="paint3_linear_1_2228" x1=".743" y1="321.33" x2="200.397" y2="312.451" gradientUnits="userSpaceOnUse"><stop stop-color="#D14B5F"/><stop offset="1" stop-color="#EF8E18"/></linearGradient><linearGradient id="paint4_linear_1_2228" x1=".743" y1="566.169" x2="200.397" y2="557.29" gradientUnits="userSpaceOnUse"><stop stop-color="#D14B5F"/><stop offset="1" stop-color="#EF8E18"/></linearGradient><linearGradient id="paint5_linear_1_2228" x1=".743" y1="679.186" x2="200.397" y2="670.308" gradientUnits="userSpaceOnUse"><stop stop-color="#D14B5F"/><stop offset="1" stop-color="#EF8E18"/></linearGradient><linearGradient id="paint6_linear_1_2228" x1="615.679" y1="212.258" x2="735.694" y2="89.489" gradientUnits="userSpaceOnUse"><stop stop-color="#D14B5F"/><stop offset="1" stop-color="#EF8E18"/></linearGradient><linearGradient id="paint7_linear_1_2228" x1="615.679" y1="455.852" x2="735.694" y2="333.084" gradientUnits="userSpaceOnUse"><stop stop-color="#D14B5F"/><stop offset="1" stop-color="#EF8E18"/></linearGradient><linearGradient id="paint8_linear_1_2228" x1="295.679" y1="531.455" x2="415.695" y2="408.686" gradientUnits="userSpaceOnUse"><stop stop-color="#D14B5F"/><stop offset="1" stop-color="#EF8E18"/></linearGradient><linearGradient id="paint9_linear_1_2228" x1="615.679" y1="702.627" x2="735.694" y2="579.858" gradientUnits="userSpaceOnUse"><stop stop-color="#D14B5F"/><stop offset="1" stop-color="#EF8E18"/></linearGradient><linearGradient id="paint10_linear_1_2228" x1="295.679" y1="286.616" x2="415.695" y2="163.847" gradientUnits="userSpaceOnUse"><stop stop-color="#D14B5F"/><stop offset="1" stop-color="#EF8E18"/></linearGradient><clipPath id="clip0_1_2228"><path d="M.306.197h797v741h-797v-741z" fill="#fff"/></clipPath></defs></svg>