<svg width="28" height="23" fill="none" xmlns="http://www.w3.org/2000/svg"><path d="M7.552 21.587c.84.84 2.202.84 3.042 0l10.412-10.412a3.05 3.05 0 00.679-1.035c1.046.293 2.064.448 2.961.443 2.22-.012 2.955-.984 3.197-1.564.241-.575.414-1.783-1.144-3.37l-.052-.051c-.966-.966-2.369-1.858-3.962-2.519-.293-.12-.586-.23-.873-.333v-.017A2.354 2.354 0 0019.488.406L13.25.319a3.034 3.034 0 00-2.202.897L.63 11.63c-.84.84-.84 2.202 0 3.042l6.922 6.916zM15.58 4.045a1.78 1.78 0 013.018 1.518c.685.483 1.501.932 2.375 1.294.31.126.61.241.897.339l-.035-2.507c.052.023.098.04.15.063 1.363.57 2.587 1.34 3.375 2.128l.034.034c.748.765.828 1.254.765 1.403-.195.466-2.294.88-5.48-.448-.93-.391-1.805-.874-2.512-1.397-.023.028-.052.057-.075.086a1.78 1.78 0 01-2.518 0c-.69-.69-.69-1.817.006-2.513z" fill="#fff"/></svg>