<svg width="374" height="55" viewBox="0 0 374 55" fill="none" xmlns="http://www.w3.org/2000/svg">
<path d="M12.2292 8.97933C8.41882 6.0805 10.4688 0 15.2566 0H335.344C336.437 0 337.501 0.358532 338.371 1.02067L367.946 23.5207C370.576 25.5216 370.576 29.4784 367.946 31.4793L338.371 53.9793C337.501 54.6415 336.437 55 335.344 55H15.2565C10.4688 55 8.41882 48.9195 12.2292 46.0207L31.3431 31.4793C33.9733 29.4784 33.9733 25.5216 31.3431 23.5207L12.2292 8.97933Z" fill="#E2EAE8"/>
<path d="M145.508 28.21C145.508 29.1318 145.435 29.9574 145.289 30.6865C145.148 31.4105 144.924 32.0251 144.617 32.5303C144.31 33.0355 143.909 33.4209 143.414 33.6865C142.919 33.9521 142.32 34.085 141.617 34.085C140.737 34.085 140.01 33.8532 139.437 33.3896C138.865 32.9209 138.44 32.249 138.164 31.374C137.888 30.4938 137.75 29.4391 137.75 28.21C137.75 26.9808 137.875 25.9287 138.125 25.0537C138.38 24.1735 138.792 23.499 139.359 23.0303C139.927 22.5615 140.68 22.3271 141.617 22.3271C142.503 22.3271 143.232 22.5615 143.805 23.0303C144.383 23.4938 144.81 24.1657 145.086 25.0459C145.367 25.9209 145.508 26.9756 145.508 28.21ZM139.602 28.21C139.602 29.1735 139.664 29.9782 139.789 30.624C139.919 31.2699 140.133 31.7542 140.43 32.0771C140.727 32.3949 141.122 32.5537 141.617 32.5537C142.112 32.5537 142.508 32.3949 142.805 32.0771C143.102 31.7594 143.315 31.2777 143.445 30.6318C143.581 29.986 143.648 29.1787 143.648 28.21C143.648 27.2516 143.583 26.4495 143.453 25.8037C143.323 25.1579 143.109 24.6735 142.812 24.3506C142.516 24.0225 142.117 23.8584 141.617 23.8584C141.117 23.8584 140.719 24.0225 140.422 24.3506C140.13 24.6735 139.919 25.1579 139.789 25.8037C139.664 26.4495 139.602 27.2516 139.602 28.21ZM152.328 33.9287H150.484V26.5771C150.484 26.3324 150.487 26.0876 150.492 25.8428C150.497 25.598 150.503 25.3584 150.508 25.124C150.518 24.8896 150.531 24.6657 150.547 24.4521C150.437 24.5719 150.302 24.7021 150.141 24.8428C149.984 24.9834 149.818 25.1292 149.641 25.2803L148.328 26.3271L147.406 25.1631L150.797 22.5068H152.328V33.9287ZM156.414 32.96C156.414 32.5329 156.523 32.2334 156.742 32.0615C156.966 31.8844 157.237 31.7959 157.555 31.7959C157.872 31.7959 158.143 31.8844 158.367 32.0615C158.596 32.2334 158.711 32.5329 158.711 32.96C158.711 33.3766 158.596 33.6787 158.367 33.8662C158.143 34.0485 157.872 34.1396 157.555 34.1396C157.237 34.1396 156.966 34.0485 156.742 33.8662C156.523 33.6787 156.414 33.3766 156.414 32.96Z" fill="#E64B13"/>
<path d="M172.492 33.9287L171.375 30.7568H167.008L165.891 33.9287H163.914L168.164 22.46H170.242L174.484 33.9287H172.492ZM170.891 29.1475L169.805 26.0225C169.763 25.887 169.703 25.6969 169.625 25.4521C169.547 25.2021 169.469 24.9495 169.391 24.6943C169.312 24.4339 169.247 24.2152 169.195 24.0381C169.143 24.2516 169.078 24.4912 169 24.7568C168.927 25.0173 168.854 25.262 168.781 25.4912C168.713 25.7204 168.661 25.8975 168.625 26.0225L167.531 29.1475H170.891ZM182.922 33.9287H181.07V26.7178H178.672C178.568 28.0303 178.437 29.1527 178.281 30.085C178.125 31.0173 177.93 31.7777 177.695 32.3662C177.461 32.9495 177.172 33.3766 176.828 33.6475C176.484 33.9183 176.07 34.0537 175.586 34.0537C175.372 34.0537 175.18 34.0381 175.008 34.0068C174.836 33.9808 174.682 33.9391 174.547 33.8818V32.4365C174.635 32.4678 174.732 32.4938 174.836 32.5146C174.94 32.5355 175.047 32.5459 175.156 32.5459C175.349 32.5459 175.526 32.4678 175.687 32.3115C175.854 32.1501 176.008 31.8975 176.148 31.5537C176.289 31.21 176.417 30.7568 176.531 30.1943C176.646 29.6266 176.75 28.9391 176.844 28.1318C176.937 27.3193 177.021 26.3688 177.094 25.2803H182.922V33.9287ZM191.164 25.2803V26.7256H187.398V33.9287H185.555V25.2803H191.164ZM200.492 29.585C200.492 30.3037 200.398 30.9417 200.211 31.499C200.023 32.0563 199.75 32.5277 199.391 32.9131C199.031 33.2933 198.599 33.585 198.094 33.7881C197.588 33.986 197.018 34.085 196.383 34.085C195.789 34.085 195.245 33.986 194.75 33.7881C194.255 33.585 193.825 33.2933 193.461 32.9131C193.102 32.5277 192.823 32.0563 192.625 31.499C192.427 30.9417 192.328 30.3037 192.328 29.585C192.328 28.6318 192.492 27.8245 192.82 27.1631C193.154 26.4964 193.628 25.9886 194.242 25.6396C194.857 25.2907 195.588 25.1162 196.437 25.1162C197.234 25.1162 197.937 25.2907 198.547 25.6396C199.156 25.9886 199.633 26.4964 199.977 27.1631C200.32 27.8298 200.492 28.637 200.492 29.585ZM194.219 29.585C194.219 30.2152 194.294 30.7542 194.445 31.2021C194.602 31.6501 194.841 31.9938 195.164 32.2334C195.487 32.4678 195.904 32.585 196.414 32.585C196.924 32.585 197.341 32.4678 197.664 32.2334C197.987 31.9938 198.224 31.6501 198.375 31.2021C198.526 30.7542 198.602 30.2152 198.602 29.585C198.602 28.9548 198.526 28.4209 198.375 27.9834C198.224 27.5407 197.987 27.2048 197.664 26.9756C197.341 26.7412 196.922 26.624 196.406 26.624C195.646 26.624 195.091 26.8792 194.742 27.3896C194.393 27.9001 194.219 28.6318 194.219 29.585ZM207.039 25.1162C208.065 25.1162 208.888 25.4912 209.508 26.2412C210.133 26.9912 210.445 28.1058 210.445 29.585C210.445 30.5641 210.299 31.3896 210.008 32.0615C209.721 32.7282 209.318 33.2334 208.797 33.5771C208.281 33.9157 207.68 34.085 206.992 34.085C206.555 34.085 206.174 34.0277 205.852 33.9131C205.529 33.7985 205.253 33.6501 205.023 33.4678C204.794 33.2803 204.602 33.0771 204.445 32.8584H204.336C204.362 33.0667 204.385 33.2985 204.406 33.5537C204.432 33.8037 204.445 34.0329 204.445 34.2412V37.7646H202.602V25.2803H204.102L204.359 26.4756H204.445C204.607 26.2308 204.802 26.0042 205.031 25.7959C205.266 25.5876 205.547 25.4235 205.875 25.3037C206.208 25.1787 206.596 25.1162 207.039 25.1162ZM206.547 26.6162C206.042 26.6162 205.635 26.7178 205.328 26.9209C205.026 27.1188 204.805 27.4183 204.664 27.8193C204.529 28.2204 204.456 28.723 204.445 29.3271V29.585C204.445 30.2256 204.51 30.7699 204.641 31.2178C204.776 31.6605 204.997 31.999 205.305 32.2334C205.617 32.4626 206.039 32.5771 206.57 32.5771C207.018 32.5771 207.388 32.4548 207.68 32.21C207.977 31.9652 208.198 31.6162 208.344 31.1631C208.49 30.71 208.562 30.1761 208.562 29.5615C208.562 28.6292 208.396 27.9053 208.062 27.3896C207.734 26.874 207.229 26.6162 206.547 26.6162ZM214.336 25.2803V29.6943C214.336 29.835 214.331 30.0146 214.32 30.2334C214.315 30.4469 214.305 30.6709 214.289 30.9053C214.273 31.1344 214.258 31.3454 214.242 31.5381C214.227 31.7308 214.213 31.874 214.203 31.9678L218.555 25.2803H220.789V33.9287H219.031V29.5615C219.031 29.3324 219.036 29.0667 219.047 28.7646C219.062 28.4626 219.078 28.1709 219.094 27.8896C219.115 27.6084 219.128 27.3949 219.133 27.249L214.797 33.9287H212.57V25.2803H214.336ZM229.961 26.7256H227.117V33.9287H225.289V26.7256H222.461V25.2803H229.961V26.7256ZM241.656 25.2803V33.9287H239.953V28.9912C239.953 28.6683 239.961 28.3454 239.977 28.0225C239.992 27.6995 240.013 27.3923 240.039 27.1006H239.992L237.359 33.9287H235.914L233.305 27.0928H233.25C233.276 27.3896 233.294 27.6969 233.305 28.0146C233.32 28.3324 233.328 28.6761 233.328 29.0459V33.9287H231.625V25.2803H234.187L236.656 31.7412L239.164 25.2803H241.656Z" fill="black"/>
</svg>
