<svg width="374" height="56" viewBox="0 0 374 56" fill="none" xmlns="http://www.w3.org/2000/svg">
<path d="M12.2292 9.77328C8.41882 6.87445 10.4688 0.793945 15.2566 0.793945H335.344C336.437 0.793945 337.501 1.15248 338.371 1.81461L367.946 24.3146C370.576 26.3156 370.576 30.2723 367.946 32.2733L338.371 54.7733C337.501 55.4354 336.437 55.7939 335.344 55.7939H15.2565C10.4688 55.7939 8.41882 49.7134 12.2292 46.8146L31.3431 32.2733C33.9733 30.2723 33.9733 26.3156 31.3431 24.3146L12.2292 9.77328Z" fill="#E2EAE8"/>
<path d="M117.18 29.0039C117.18 29.9258 117.107 30.7513 116.961 31.4805C116.82 32.2044 116.596 32.819 116.289 33.3242C115.982 33.8294 115.581 34.2148 115.086 34.4805C114.591 34.7461 113.992 34.8789 113.289 34.8789C112.409 34.8789 111.682 34.6471 111.109 34.1836C110.536 33.7148 110.112 33.043 109.836 32.168C109.56 31.2878 109.422 30.2331 109.422 29.0039C109.422 27.7747 109.547 26.7227 109.797 25.8477C110.052 24.9674 110.463 24.293 111.031 23.8242C111.599 23.3555 112.352 23.1211 113.289 23.1211C114.174 23.1211 114.904 23.3555 115.477 23.8242C116.055 24.2878 116.482 24.9596 116.758 25.8398C117.039 26.7148 117.18 27.7695 117.18 29.0039ZM111.273 29.0039C111.273 29.9674 111.336 30.7721 111.461 31.418C111.591 32.0638 111.805 32.5482 112.102 32.8711C112.398 33.1888 112.794 33.3477 113.289 33.3477C113.784 33.3477 114.18 33.1888 114.477 32.8711C114.773 32.5534 114.987 32.0716 115.117 31.4258C115.253 30.7799 115.32 29.9727 115.32 29.0039C115.32 28.0456 115.255 27.2435 115.125 26.5977C114.995 25.9518 114.781 25.4674 114.484 25.1445C114.187 24.8164 113.789 24.6523 113.289 24.6523C112.789 24.6523 112.391 24.8164 112.094 25.1445C111.802 25.4674 111.591 25.9518 111.461 26.5977C111.336 27.2435 111.273 28.0456 111.273 29.0039ZM126.336 34.7227H118.602V33.3398L121.562 30.3398C122.135 29.7565 122.607 29.2539 122.977 28.832C123.346 28.4049 123.62 28.0013 123.797 27.6211C123.979 27.2409 124.07 26.8268 124.07 26.3789C124.07 25.8268 123.911 25.4102 123.594 25.1289C123.276 24.8424 122.857 24.6992 122.336 24.6992C121.841 24.6992 121.383 24.7982 120.961 24.9961C120.544 25.1888 120.112 25.4648 119.664 25.8242L118.656 24.6133C118.974 24.3424 119.312 24.0951 119.672 23.8711C120.036 23.6471 120.443 23.4701 120.891 23.3398C121.338 23.2044 121.849 23.1367 122.422 23.1367C123.146 23.1367 123.771 23.2669 124.297 23.5273C124.823 23.7826 125.227 24.1393 125.508 24.5977C125.794 25.056 125.937 25.5898 125.937 26.1992C125.937 26.8138 125.815 27.3815 125.57 27.9023C125.325 28.4232 124.977 28.9388 124.523 29.4492C124.07 29.9544 123.531 30.5039 122.906 31.0977L120.93 33.0273V33.1133H126.336V34.7227ZM128.086 33.7539C128.086 33.3268 128.195 33.0273 128.414 32.8555C128.638 32.6784 128.909 32.5898 129.227 32.5898C129.544 32.5898 129.815 32.6784 130.039 32.8555C130.268 33.0273 130.383 33.3268 130.383 33.7539C130.383 34.1706 130.268 34.4727 130.039 34.6602C129.815 34.8424 129.544 34.9336 129.227 34.9336C128.909 34.9336 128.638 34.8424 128.414 34.6602C128.195 34.4727 128.086 34.1706 128.086 33.7539Z" fill="#E64B13"/>
<path d="M139.602 24.7305C139.081 24.7305 138.583 24.7982 138.109 24.9336C137.635 25.0638 137.19 25.2201 136.773 25.4023L136.117 23.8711C136.617 23.6367 137.164 23.457 137.758 23.332C138.352 23.2018 138.977 23.1367 139.633 23.1367C140.508 23.1367 141.279 23.2721 141.945 23.543C142.612 23.8138 143.169 24.2044 143.617 24.7148C144.065 25.2201 144.404 25.8294 144.633 26.543C144.862 27.2513 144.977 28.0456 144.977 28.9258C144.977 30.1289 144.776 31.1758 144.375 32.0664C143.974 32.957 143.365 33.6497 142.547 34.1445C141.734 34.6341 140.703 34.8789 139.453 34.8789C138.797 34.8789 138.221 34.8372 137.727 34.7539C137.237 34.6706 136.745 34.5378 136.25 34.3555V32.7617C136.776 32.918 137.284 33.0456 137.773 33.1445C138.263 33.2383 138.766 33.2852 139.281 33.2852C139.875 33.2852 140.398 33.207 140.852 33.0508C141.305 32.8945 141.687 32.6628 142 32.3555C142.312 32.043 142.552 31.6628 142.719 31.2148C142.891 30.7617 142.984 30.2383 143 29.6445H137.703V28.0664H142.984C142.953 27.5404 142.852 27.0716 142.68 26.6602C142.513 26.2487 142.281 25.8997 141.984 25.6133C141.693 25.3216 141.346 25.1029 140.945 24.957C140.544 24.806 140.096 24.7305 139.602 24.7305ZM152.617 26.0742H154.641L151.062 30.2305L154.945 34.7227H152.828L149.102 30.332V34.7227H147.258V26.0742H149.102V30.2695L152.617 26.0742ZM159.836 34.8789C159.018 34.8789 158.31 34.7201 157.711 34.4023C157.112 34.0846 156.651 33.5977 156.328 32.9414C156.005 32.2852 155.844 31.4518 155.844 30.4414C155.844 29.3893 156.021 28.5299 156.375 27.8633C156.729 27.1966 157.219 26.7044 157.844 26.3867C158.474 26.069 159.195 25.9102 160.008 25.9102C160.523 25.9102 160.99 25.9622 161.406 26.0664C161.828 26.1654 162.185 26.2878 162.477 26.4336L161.93 27.9023C161.612 27.7721 161.286 27.6628 160.953 27.5742C160.62 27.4857 160.299 27.4414 159.992 27.4414C159.487 27.4414 159.065 27.5534 158.727 27.7773C158.393 28.0013 158.143 28.3346 157.977 28.7773C157.815 29.2201 157.734 29.7695 157.734 30.4258C157.734 31.0612 157.818 31.5977 157.984 32.0352C158.151 32.4674 158.398 32.7956 158.727 33.0195C159.055 33.2383 159.458 33.3477 159.937 33.3477C160.411 33.3477 160.836 33.2904 161.211 33.1758C161.586 33.0612 161.94 32.9128 162.273 32.7305V34.3242C161.945 34.5117 161.594 34.6497 161.219 34.7383C160.844 34.832 160.383 34.8789 159.836 34.8789ZM171.859 26.0742V34.7227H170.008V27.5273H166.148V34.7227H164.305V26.0742H171.859ZM178.93 25.9102C179.956 25.9102 180.779 26.2852 181.398 27.0352C182.023 27.7852 182.336 28.8997 182.336 30.3789C182.336 31.3581 182.19 32.1836 181.898 32.8555C181.612 33.5221 181.208 34.0273 180.687 34.3711C180.172 34.7096 179.57 34.8789 178.883 34.8789C178.445 34.8789 178.065 34.8216 177.742 34.707C177.419 34.5924 177.143 34.444 176.914 34.2617C176.685 34.0742 176.492 33.8711 176.336 33.6523H176.227C176.253 33.8607 176.276 34.0924 176.297 34.3477C176.323 34.5977 176.336 34.8268 176.336 35.0352V38.5586H174.492V26.0742H175.992L176.25 27.2695H176.336C176.497 27.0247 176.693 26.7982 176.922 26.5898C177.156 26.3815 177.437 26.2174 177.766 26.0977C178.099 25.9727 178.487 25.9102 178.93 25.9102ZM178.437 27.4102C177.932 27.4102 177.526 27.5117 177.219 27.7148C176.917 27.9128 176.695 28.2122 176.555 28.6133C176.419 29.0143 176.346 29.5169 176.336 30.1211V30.3789C176.336 31.0195 176.401 31.5638 176.531 32.0117C176.667 32.4544 176.888 32.793 177.195 33.0273C177.508 33.2565 177.93 33.3711 178.461 33.3711C178.909 33.3711 179.279 33.2487 179.57 33.0039C179.867 32.7591 180.088 32.4102 180.234 31.957C180.38 31.5039 180.453 30.9701 180.453 30.3555C180.453 29.4232 180.286 28.6992 179.953 28.1836C179.625 27.668 179.12 27.4102 178.437 27.4102ZM187.906 25.9102C188.677 25.9102 189.338 26.069 189.891 26.3867C190.443 26.7044 190.867 27.1549 191.164 27.7383C191.461 28.3216 191.609 29.0195 191.609 29.832V30.8164H185.836C185.857 31.6549 186.081 32.3008 186.508 32.7539C186.94 33.207 187.544 33.4336 188.32 33.4336C188.872 33.4336 189.367 33.3815 189.805 33.2773C190.247 33.168 190.703 33.0091 191.172 32.8008V34.293C190.74 34.4961 190.299 34.6445 189.852 34.7383C189.404 34.832 188.867 34.8789 188.242 34.8789C187.393 34.8789 186.646 34.7148 186 34.3867C185.359 34.0534 184.857 33.5586 184.492 32.9023C184.133 32.2461 183.953 31.431 183.953 30.457C183.953 29.4883 184.117 28.6654 184.445 27.9883C184.773 27.3112 185.234 26.7956 185.828 26.4414C186.422 26.0872 187.115 25.9102 187.906 25.9102ZM187.906 27.293C187.328 27.293 186.859 27.4805 186.5 27.8555C186.146 28.2305 185.937 28.7799 185.875 29.5039H189.812C189.807 29.0716 189.734 28.6888 189.594 28.3555C189.458 28.0221 189.25 27.7617 188.969 27.5742C188.693 27.3867 188.338 27.293 187.906 27.293ZM197.164 34.8789C196.346 34.8789 195.638 34.7201 195.039 34.4023C194.44 34.0846 193.979 33.5977 193.656 32.9414C193.333 32.2852 193.172 31.4518 193.172 30.4414C193.172 29.3893 193.349 28.5299 193.703 27.8633C194.057 27.1966 194.547 26.7044 195.172 26.3867C195.802 26.069 196.523 25.9102 197.336 25.9102C197.852 25.9102 198.318 25.9622 198.734 26.0664C199.156 26.1654 199.513 26.2878 199.805 26.4336L199.258 27.9023C198.94 27.7721 198.615 27.6628 198.281 27.5742C197.948 27.4857 197.628 27.4414 197.32 27.4414C196.815 27.4414 196.393 27.5534 196.055 27.7773C195.721 28.0013 195.471 28.3346 195.305 28.7773C195.143 29.2201 195.062 29.7695 195.062 30.4258C195.062 31.0612 195.146 31.5977 195.312 32.0352C195.479 32.4674 195.727 32.7956 196.055 33.0195C196.383 33.2383 196.786 33.3477 197.266 33.3477C197.74 33.3477 198.164 33.2904 198.539 33.1758C198.914 33.0612 199.268 32.9128 199.602 32.7305V34.3242C199.273 34.5117 198.922 34.6497 198.547 34.7383C198.172 34.832 197.711 34.8789 197.164 34.8789ZM205.117 34.8789C204.299 34.8789 203.591 34.7201 202.992 34.4023C202.393 34.0846 201.932 33.5977 201.609 32.9414C201.286 32.2852 201.125 31.4518 201.125 30.4414C201.125 29.3893 201.302 28.5299 201.656 27.8633C202.01 27.1966 202.5 26.7044 203.125 26.3867C203.755 26.069 204.477 25.9102 205.289 25.9102C205.805 25.9102 206.271 25.9622 206.687 26.0664C207.109 26.1654 207.466 26.2878 207.758 26.4336L207.211 27.9023C206.893 27.7721 206.568 27.6628 206.234 27.5742C205.901 27.4857 205.581 27.4414 205.273 27.4414C204.768 27.4414 204.346 27.5534 204.008 27.7773C203.674 28.0013 203.424 28.3346 203.258 28.7773C203.096 29.2201 203.016 29.7695 203.016 30.4258C203.016 31.0612 203.099 31.5977 203.266 32.0352C203.432 32.4674 203.68 32.7956 204.008 33.0195C204.336 33.2383 204.74 33.3477 205.219 33.3477C205.693 33.3477 206.117 33.2904 206.492 33.1758C206.867 33.0612 207.221 32.9128 207.555 32.7305V34.3242C207.227 34.5117 206.875 34.6497 206.5 34.7383C206.125 34.832 205.664 34.8789 205.117 34.8789ZM208.836 31.207V29.6523H212.867V31.207H208.836ZM218.133 25.9102C219.227 25.9102 220.052 26.1523 220.609 26.6367C221.172 27.1211 221.453 27.8763 221.453 28.9023V34.7227H220.148L219.797 33.4961H219.734C219.49 33.8086 219.237 34.0664 218.977 34.2695C218.716 34.4727 218.414 34.6237 218.07 34.7227C217.732 34.8268 217.318 34.8789 216.828 34.8789C216.312 34.8789 215.852 34.7852 215.445 34.5977C215.039 34.4049 214.719 34.1133 214.484 33.7227C214.25 33.332 214.133 32.8372 214.133 32.2383C214.133 31.3477 214.463 30.6784 215.125 30.2305C215.792 29.7826 216.797 29.5352 218.141 29.4883L219.641 29.4336V28.9805C219.641 28.3815 219.5 27.9544 219.219 27.6992C218.943 27.444 218.552 27.3164 218.047 27.3164C217.615 27.3164 217.195 27.3789 216.789 27.5039C216.383 27.6289 215.987 27.7826 215.602 27.9648L215.008 26.668C215.43 26.444 215.909 26.2617 216.445 26.1211C216.987 25.9805 217.549 25.9102 218.133 25.9102ZM219.633 30.5898L218.516 30.6289C217.599 30.6602 216.956 30.8164 216.586 31.0977C216.216 31.3789 216.031 31.7643 216.031 32.2539C216.031 32.681 216.159 32.9935 216.414 33.1914C216.669 33.3841 217.005 33.4805 217.422 33.4805C218.057 33.4805 218.583 33.3008 219 32.9414C219.422 32.5768 219.633 32.043 219.633 31.3398V30.5898ZM225.867 26.0742V29.5508H229.914V26.0742H231.758V34.7227H229.914V30.9883H225.867V34.7227H224.023V26.0742H225.867ZM237.773 25.9102C238.867 25.9102 239.693 26.1523 240.25 26.6367C240.812 27.1211 241.094 27.8763 241.094 28.9023V34.7227H239.789L239.437 33.4961H239.375C239.13 33.8086 238.878 34.0664 238.617 34.2695C238.357 34.4727 238.055 34.6237 237.711 34.7227C237.372 34.8268 236.958 34.8789 236.469 34.8789C235.953 34.8789 235.492 34.7852 235.086 34.5977C234.68 34.4049 234.359 34.1133 234.125 33.7227C233.891 33.332 233.773 32.8372 233.773 32.2383C233.773 31.3477 234.104 30.6784 234.766 30.2305C235.432 29.7826 236.437 29.5352 237.781 29.4883L239.281 29.4336V28.9805C239.281 28.3815 239.141 27.9544 238.859 27.6992C238.583 27.444 238.193 27.3164 237.687 27.3164C237.255 27.3164 236.836 27.3789 236.43 27.5039C236.023 27.6289 235.628 27.7826 235.242 27.9648L234.648 26.668C235.07 26.444 235.549 26.2617 236.086 26.1211C236.628 25.9805 237.19 25.9102 237.773 25.9102ZM239.273 30.5898L238.156 30.6289C237.24 30.6602 236.596 30.8164 236.227 31.0977C235.857 31.3789 235.672 31.7643 235.672 32.2539C235.672 32.681 235.799 32.9935 236.055 33.1914C236.31 33.3841 236.646 33.4805 237.062 33.4805C237.698 33.4805 238.224 33.3008 238.641 32.9414C239.062 32.5768 239.273 32.043 239.273 31.3398V30.5898ZM250.781 34.7227H248.93V27.5117H246.531C246.427 28.8242 246.297 29.9466 246.141 30.8789C245.984 31.8112 245.789 32.5716 245.555 33.1602C245.32 33.7435 245.031 34.1706 244.687 34.4414C244.344 34.7122 243.93 34.8477 243.445 34.8477C243.232 34.8477 243.039 34.832 242.867 34.8008C242.695 34.7747 242.542 34.7331 242.406 34.6758V33.2305C242.495 33.2617 242.591 33.2878 242.695 33.3086C242.799 33.3294 242.906 33.3398 243.016 33.3398C243.208 33.3398 243.385 33.2617 243.547 33.1055C243.713 32.944 243.867 32.6914 244.008 32.3477C244.148 32.0039 244.276 31.5508 244.391 30.9883C244.505 30.4206 244.609 29.7331 244.703 28.9258C244.797 28.1133 244.88 27.1628 244.953 26.0742H250.781V34.7227ZM255.18 26.0742V30.4883C255.18 30.6289 255.174 30.8086 255.164 31.0273C255.159 31.2409 255.148 31.4648 255.133 31.6992C255.117 31.9284 255.102 32.1393 255.086 32.332C255.07 32.5247 255.057 32.668 255.047 32.7617L259.398 26.0742H261.633V34.7227H259.875V30.3555C259.875 30.1263 259.88 29.8607 259.891 29.5586C259.906 29.2565 259.922 28.9648 259.937 28.6836C259.958 28.4023 259.971 28.1888 259.977 28.043L255.641 34.7227H253.414V26.0742H255.18ZM266.961 25.9102C267.596 25.9102 268.167 25.9961 268.672 26.168C269.182 26.3346 269.586 26.5872 269.883 26.9258C270.18 27.2643 270.328 27.6862 270.328 28.1914C270.328 28.7122 270.177 29.1289 269.875 29.4414C269.578 29.7487 269.174 29.9701 268.664 30.1055V30.1758C269.023 30.2643 269.349 30.3919 269.641 30.5586C269.932 30.7201 270.164 30.9388 270.336 31.2148C270.513 31.4857 270.602 31.8346 270.602 32.2617C270.602 32.7461 270.458 33.1862 270.172 33.582C269.891 33.9779 269.458 34.293 268.875 34.5273C268.292 34.7617 267.549 34.8789 266.648 34.8789C266.216 34.8789 265.805 34.8555 265.414 34.8086C265.029 34.7669 264.677 34.707 264.359 34.6289C264.042 34.5456 263.766 34.4466 263.531 34.332V32.7539C263.891 32.9258 264.325 33.082 264.836 33.2227C265.346 33.3581 265.893 33.4258 266.477 33.4258C266.909 33.4258 267.299 33.3867 267.648 33.3086C268.003 33.2253 268.281 33.0898 268.484 32.9023C268.693 32.7148 268.797 32.4648 268.797 32.1523C268.797 31.8659 268.706 31.6289 268.523 31.4414C268.341 31.2539 268.068 31.1159 267.703 31.0273C267.338 30.9336 266.878 30.8867 266.32 30.8867H265.289V29.5352H266.195C266.961 29.5352 267.56 29.4518 267.992 29.2852C268.43 29.1133 268.648 28.8164 268.648 28.3945C268.648 28.0404 268.495 27.7747 268.187 27.5977C267.88 27.4206 267.409 27.332 266.773 27.332C266.336 27.332 265.904 27.3815 265.477 27.4805C265.049 27.5742 264.622 27.7096 264.195 27.8867L263.617 26.5352C264.091 26.3424 264.599 26.1914 265.141 26.082C265.682 25.9674 266.289 25.9102 266.961 25.9102Z" fill="black"/>
</svg>
