<svg width="374" height="56" viewBox="0 0 374 56" fill="none" xmlns="http://www.w3.org/2000/svg">
<path d="M12.2292 9.05257C8.41882 6.15374 10.4688 0.0732422 15.2566 0.0732422H335.344C336.437 0.0732422 337.501 0.431775 338.371 1.09391L367.946 23.5939C370.576 25.5949 370.576 29.5516 367.946 31.5526L338.371 54.0526C337.501 54.7147 336.437 55.0732 335.344 55.0732H15.2565C10.4688 55.0732 8.41882 48.9927 12.2292 46.0939L31.3431 31.5526C33.9733 29.5516 33.9733 25.5949 31.3431 23.5939L12.2292 9.05257Z" fill="#E2EAE8"/>
<path d="M160.961 28.2832C160.961 29.2051 160.888 30.0306 160.742 30.7598C160.602 31.4837 160.378 32.0983 160.07 32.6035C159.763 33.1087 159.362 33.4941 158.867 33.7598C158.372 34.0254 157.773 34.1582 157.07 34.1582C156.19 34.1582 155.463 33.9264 154.891 33.4629C154.318 32.9941 153.893 32.3223 153.617 31.4473C153.341 30.5671 153.203 29.5124 153.203 28.2832C153.203 27.054 153.328 26.002 153.578 25.127C153.833 24.2467 154.245 23.5723 154.812 23.1035C155.38 22.6348 156.133 22.4004 157.07 22.4004C157.956 22.4004 158.685 22.6348 159.258 23.1035C159.836 23.5671 160.263 24.2389 160.539 25.1191C160.82 25.9941 160.961 27.0488 160.961 28.2832ZM155.055 28.2832C155.055 29.2467 155.117 30.0514 155.242 30.6973C155.372 31.3431 155.586 31.8275 155.883 32.1504C156.18 32.4681 156.575 32.627 157.07 32.627C157.565 32.627 157.961 32.4681 158.258 32.1504C158.555 31.8327 158.768 31.3509 158.898 30.7051C159.034 30.0592 159.102 29.252 159.102 28.2832C159.102 27.3249 159.036 26.5228 158.906 25.877C158.776 25.2311 158.562 24.7467 158.266 24.4238C157.969 24.0957 157.57 23.9316 157.07 23.9316C156.57 23.9316 156.172 24.0957 155.875 24.4238C155.583 24.7467 155.372 25.2311 155.242 25.877C155.117 26.5228 155.055 27.3249 155.055 28.2832ZM169.68 25.1895C169.68 25.7051 169.575 26.153 169.367 26.5332C169.159 26.9134 168.872 27.2259 168.508 27.4707C168.148 27.7103 167.732 27.8822 167.258 27.9863V28.041C168.169 28.1556 168.857 28.4421 169.32 28.9004C169.789 29.3587 170.023 29.9655 170.023 30.7207C170.023 31.3822 169.865 31.9733 169.547 32.4941C169.229 33.0098 168.742 33.416 168.086 33.7129C167.43 34.0098 166.586 34.1582 165.555 34.1582C164.935 34.1582 164.359 34.1087 163.828 34.0098C163.302 33.9108 162.802 33.752 162.328 33.5332V31.9004C162.812 32.14 163.328 32.3249 163.875 32.4551C164.422 32.5853 164.94 32.6504 165.43 32.6504C166.383 32.6504 167.062 32.4733 167.469 32.1191C167.875 31.7598 168.078 31.265 168.078 30.6348C168.078 30.2285 167.971 29.8952 167.758 29.6348C167.549 29.3743 167.224 29.179 166.781 29.0488C166.344 28.9186 165.779 28.8535 165.086 28.8535H164.078V27.377H165.094C165.755 27.377 166.286 27.2988 166.687 27.1426C167.088 26.9811 167.378 26.7598 167.555 26.4785C167.737 26.1973 167.828 25.8691 167.828 25.4941C167.828 25.0046 167.669 24.6243 167.352 24.3535C167.034 24.0775 166.562 23.9395 165.937 23.9395C165.552 23.9395 165.2 23.9837 164.883 24.0723C164.57 24.1608 164.281 24.2728 164.016 24.4082C163.75 24.5436 163.497 24.6895 163.258 24.8457L162.375 23.5723C162.807 23.2493 163.323 22.9759 163.922 22.752C164.521 22.528 165.219 22.416 166.016 22.416C167.187 22.416 168.091 22.6686 168.727 23.1738C169.362 23.6738 169.68 24.3457 169.68 25.1895ZM171.867 33.0332C171.867 32.6061 171.977 32.3066 172.195 32.1348C172.419 31.9577 172.69 31.8691 173.008 31.8691C173.325 31.8691 173.596 31.9577 173.82 32.1348C174.049 32.3066 174.164 32.6061 174.164 33.0332C174.164 33.4499 174.049 33.752 173.82 33.9395C173.596 34.1217 173.325 34.2129 173.008 34.2129C172.69 34.2129 172.419 34.1217 172.195 33.9395C171.977 33.752 171.867 33.4499 171.867 33.0332Z" fill="#E64B13"/>
<path d="M187.945 34.002L186.828 30.8301H182.461L181.344 34.002H179.367L183.617 22.5332H185.695L189.937 34.002H187.945ZM186.344 29.2207L185.258 26.0957C185.216 25.9603 185.156 25.7702 185.078 25.5254C185 25.2754 184.922 25.0228 184.844 24.7676C184.766 24.5072 184.7 24.2884 184.648 24.1113C184.596 24.3249 184.531 24.5645 184.453 24.8301C184.38 25.0905 184.307 25.3353 184.234 25.5645C184.167 25.7936 184.115 25.9707 184.078 26.0957L182.984 29.2207H186.344ZM189.953 25.3535H191.953L193.727 30.291C193.805 30.515 193.875 30.7363 193.937 30.9551C194.005 31.1686 194.062 31.3796 194.109 31.5879C194.161 31.7962 194.203 32.0046 194.234 32.2129H194.281C194.333 31.9421 194.406 31.64 194.5 31.3066C194.599 30.9681 194.708 30.6296 194.828 30.291L196.531 25.3535H198.508L194.797 35.1895C194.583 35.752 194.32 36.2311 194.008 36.627C193.7 37.028 193.336 37.3301 192.914 37.5332C192.492 37.7415 192.01 37.8457 191.469 37.8457C191.208 37.8457 190.982 37.8301 190.789 37.7988C190.596 37.7728 190.432 37.7441 190.297 37.7129V36.2441C190.406 36.2702 190.544 36.2936 190.711 36.3145C190.878 36.3353 191.049 36.3457 191.227 36.3457C191.555 36.3457 191.838 36.2806 192.078 36.1504C192.318 36.0202 192.521 35.8353 192.687 35.5957C192.854 35.3613 192.992 35.0931 193.102 34.791L193.406 33.9785L189.953 25.3535ZM206.883 25.3535V32.5801H208.133V37.0488H206.437V34.002H200.469V37.0488H198.773V32.5801H199.477C199.914 31.9447 200.279 31.2363 200.57 30.4551C200.867 29.6738 201.096 28.8509 201.258 27.9863C201.424 27.1165 201.529 26.2389 201.57 25.3535H206.883ZM205.062 26.7598H203.148C203.086 27.4629 202.979 28.1634 202.828 28.8613C202.677 29.554 202.482 30.2181 202.242 30.8535C202.008 31.4837 201.727 32.0592 201.398 32.5801H205.062V26.7598ZM211.508 25.3535V29.7676C211.508 29.9082 211.503 30.0879 211.492 30.3066C211.487 30.5202 211.477 30.7441 211.461 30.9785C211.445 31.2077 211.43 31.4186 211.414 31.6113C211.398 31.804 211.385 31.9473 211.375 32.041L215.727 25.3535H217.961V34.002H216.203V29.6348C216.203 29.4056 216.208 29.14 216.219 28.8379C216.234 28.5358 216.25 28.2441 216.266 27.9629C216.286 27.6816 216.299 27.4681 216.305 27.3223L211.969 34.002H209.742V25.3535H211.508ZM227.133 26.7988H224.289V34.002H222.461V26.7988H219.633V25.3535H227.133V26.7988Z" fill="black"/>
</svg>
