<svg width="373" height="56" viewBox="0 0 373 56" fill="none" xmlns="http://www.w3.org/2000/svg">
<path d="M11.8029 9.8348C7.99255 6.93597 10.0426 0.855469 14.8303 0.855469H334.917C336.011 0.855469 337.074 1.214 337.945 1.87614L367.52 24.3761C370.15 26.3771 370.15 30.3338 367.52 32.3348L337.945 54.8348C337.074 55.4969 336.011 55.8555 334.917 55.8555H14.8303C10.0426 55.8555 7.99255 49.775 11.8029 46.8761L30.9169 32.3348C33.547 30.3338 33.547 26.3771 30.9169 24.3761L11.8029 9.8348Z" fill="#E2EAE8"/>
<path d="M127.863 29.0654C127.863 29.9873 127.79 30.8128 127.644 31.542C127.503 32.266 127.279 32.8805 126.972 33.3857C126.665 33.891 126.264 34.2764 125.769 34.542C125.274 34.8076 124.675 34.9404 123.972 34.9404C123.092 34.9404 122.365 34.7087 121.792 34.2451C121.22 33.7764 120.795 33.1045 120.519 32.2295C120.243 31.3493 120.105 30.2946 120.105 29.0654C120.105 27.8363 120.23 26.7842 120.48 25.9092C120.735 25.029 121.147 24.3545 121.714 23.8857C122.282 23.417 123.035 23.1826 123.972 23.1826C124.858 23.1826 125.587 23.417 126.16 23.8857C126.738 24.3493 127.165 25.0212 127.441 25.9014C127.722 26.7764 127.863 27.8311 127.863 29.0654ZM121.956 29.0654C121.956 30.029 122.019 30.8337 122.144 31.4795C122.274 32.1253 122.488 32.6097 122.785 32.9326C123.081 33.2503 123.477 33.4092 123.972 33.4092C124.467 33.4092 124.863 33.2503 125.16 32.9326C125.456 32.6149 125.67 32.1331 125.8 31.4873C125.936 30.8415 126.003 30.0342 126.003 29.0654C126.003 28.1071 125.938 27.305 125.808 26.6592C125.678 26.0133 125.464 25.529 125.167 25.2061C124.871 24.8779 124.472 24.7139 123.972 24.7139C123.472 24.7139 123.074 24.8779 122.777 25.2061C122.485 25.529 122.274 26.0133 122.144 26.6592C122.019 27.305 121.956 28.1071 121.956 29.0654ZM133.167 27.6436C133.902 27.6436 134.548 27.7764 135.105 28.042C135.667 28.3024 136.105 28.6878 136.417 29.1982C136.73 29.7035 136.886 30.3232 136.886 31.0576C136.886 31.8597 136.717 32.5524 136.378 33.1357C136.04 33.7139 135.542 34.1592 134.886 34.4717C134.23 34.7842 133.43 34.9404 132.488 34.9404C131.889 34.9404 131.329 34.8883 130.808 34.7842C130.292 34.68 129.847 34.5238 129.472 34.3154V32.6592C129.863 32.8779 130.331 33.0576 130.878 33.1982C131.425 33.3337 131.949 33.4014 132.449 33.4014C132.98 33.4014 133.436 33.3232 133.816 33.167C134.196 33.0107 134.488 32.7712 134.691 32.4482C134.899 32.1253 135.003 31.7165 135.003 31.2217C135.003 30.5654 134.792 30.0602 134.371 29.7061C133.954 29.3467 133.3 29.167 132.41 29.167C132.097 29.167 131.764 29.1956 131.41 29.2529C131.061 29.305 130.769 29.3623 130.535 29.4248L129.73 28.9482L130.16 23.3623H136.097V24.9795H131.777L131.527 27.8232C131.714 27.7816 131.938 27.7425 132.199 27.7061C132.459 27.6644 132.782 27.6436 133.167 27.6436ZM138.769 33.8154C138.769 33.3883 138.878 33.0889 139.097 32.917C139.321 32.7399 139.592 32.6514 139.91 32.6514C140.227 32.6514 140.498 32.7399 140.722 32.917C140.951 33.0889 141.066 33.3883 141.066 33.8154C141.066 34.2321 140.951 34.5342 140.722 34.7217C140.498 34.904 140.227 34.9951 139.91 34.9951C139.592 34.9951 139.321 34.904 139.097 34.7217C138.878 34.5342 138.769 34.2321 138.769 33.8154Z" fill="#E64B13"/>
<path d="M157.91 29.0576C157.91 29.9378 157.798 30.7399 157.574 31.4639C157.355 32.1826 157.024 32.8024 156.581 33.3232C156.139 33.8389 155.584 34.2373 154.917 34.5186C154.251 34.7998 153.47 34.9404 152.574 34.9404C151.662 34.9404 150.871 34.7998 150.199 34.5186C149.532 34.2373 148.977 33.8363 148.535 33.3154C148.097 32.7946 147.769 32.1722 147.55 31.4482C147.331 30.7243 147.222 29.9222 147.222 29.042C147.222 27.8649 147.415 26.8389 147.8 25.9639C148.191 25.0837 148.782 24.4014 149.574 23.917C150.371 23.4274 151.376 23.1826 152.589 23.1826C153.777 23.1826 154.764 23.4248 155.55 23.9092C156.337 24.3936 156.925 25.0758 157.316 25.9561C157.712 26.8311 157.91 27.8649 157.91 29.0576ZM149.191 29.0576C149.191 29.9378 149.311 30.7008 149.55 31.3467C149.79 31.9873 150.157 32.4821 150.652 32.8311C151.152 33.1748 151.792 33.3467 152.574 33.3467C153.36 33.3467 154.001 33.1748 154.496 32.8311C154.99 32.4821 155.355 31.9873 155.589 31.3467C155.824 30.7008 155.941 29.9378 155.941 29.0576C155.941 27.7191 155.673 26.6722 155.136 25.917C154.605 25.1566 153.756 24.7764 152.589 24.7764C151.808 24.7764 151.165 24.9482 150.66 25.292C150.16 25.6357 149.79 26.1279 149.55 26.7686C149.311 27.404 149.191 28.167 149.191 29.0576ZM167.73 26.1357V34.7842H165.878V27.5889H162.019V34.7842H160.175V26.1357H167.73ZM176.894 27.5811H174.05V34.7842H172.222V27.5811H169.394V26.1357H176.894V27.5811ZM180.331 26.1357V30.5498C180.331 30.6904 180.326 30.8701 180.316 31.0889C180.311 31.3024 180.3 31.5264 180.285 31.7607C180.269 31.9899 180.253 32.2008 180.238 32.3936C180.222 32.5863 180.209 32.7295 180.199 32.8232L184.55 26.1357H186.785V34.7842H185.027V30.417C185.027 30.1878 185.032 29.9222 185.042 29.6201C185.058 29.318 185.074 29.0264 185.089 28.7451C185.11 28.4639 185.123 28.2503 185.128 28.1045L180.792 34.7842H178.566V26.1357H180.331ZM199.449 26.1357V34.7842H197.746V29.8467C197.746 29.5238 197.753 29.2008 197.769 28.8779C197.785 28.555 197.805 28.2477 197.831 27.9561H197.785L195.152 34.7842H193.706L191.097 27.9482H191.042C191.068 28.2451 191.087 28.5524 191.097 28.8701C191.113 29.1878 191.121 29.5316 191.121 29.9014V34.7842H189.417V26.1357H191.98L194.449 32.5967L196.956 26.1357H199.449ZM203.816 26.1357V30.5498C203.816 30.6904 203.811 30.8701 203.8 31.0889C203.795 31.3024 203.785 31.5264 203.769 31.7607C203.753 31.9899 203.738 32.2008 203.722 32.3936C203.706 32.5863 203.693 32.7295 203.683 32.8232L208.035 26.1357H210.269V34.7842H208.511V30.417C208.511 30.1878 208.516 29.9222 208.527 29.6201C208.542 29.318 208.558 29.0264 208.574 28.7451C208.595 28.4639 208.608 28.2503 208.613 28.1045L204.277 34.7842H202.05V26.1357H203.816ZM215.597 25.9717C216.233 25.9717 216.803 26.0576 217.308 26.2295C217.818 26.3962 218.222 26.6488 218.519 26.9873C218.816 27.3258 218.964 27.7477 218.964 28.2529C218.964 28.7738 218.813 29.1904 218.511 29.5029C218.214 29.8102 217.811 30.0316 217.3 30.167V30.2373C217.66 30.3258 217.985 30.4535 218.277 30.6201C218.568 30.7816 218.8 31.0003 218.972 31.2764C219.149 31.5472 219.238 31.8962 219.238 32.3232C219.238 32.8076 219.095 33.2477 218.808 33.6436C218.527 34.0394 218.095 34.3545 217.511 34.5889C216.928 34.8232 216.186 34.9404 215.285 34.9404C214.852 34.9404 214.441 34.917 214.05 34.8701C213.665 34.8285 213.313 34.7686 212.996 34.6904C212.678 34.6071 212.402 34.5081 212.167 34.3936V32.8154C212.527 32.9873 212.962 33.1436 213.472 33.2842C213.983 33.4196 214.529 33.4873 215.113 33.4873C215.545 33.4873 215.936 33.4482 216.285 33.3701C216.639 33.2868 216.917 33.1514 217.121 32.9639C217.329 32.7764 217.433 32.5264 217.433 32.2139C217.433 31.9274 217.342 31.6904 217.16 31.5029C216.977 31.3154 216.704 31.1774 216.339 31.0889C215.975 30.9951 215.514 30.9482 214.956 30.9482H213.925V29.5967H214.831C215.597 29.5967 216.196 29.5133 216.628 29.3467C217.066 29.1748 217.285 28.8779 217.285 28.4561C217.285 28.1019 217.131 27.8363 216.824 27.6592C216.516 27.4821 216.045 27.3936 215.41 27.3936C214.972 27.3936 214.54 27.443 214.113 27.542C213.686 27.6357 213.259 27.7712 212.831 27.9482L212.253 26.5967C212.727 26.404 213.235 26.2529 213.777 26.1436C214.318 26.029 214.925 25.9717 215.597 25.9717ZM224.613 25.9717C225.706 25.9717 226.532 26.2139 227.089 26.6982C227.652 27.1826 227.933 27.9378 227.933 28.9639V34.7842H226.628L226.277 33.5576H226.214C225.97 33.8701 225.717 34.1279 225.456 34.3311C225.196 34.5342 224.894 34.6852 224.55 34.7842C224.212 34.8883 223.798 34.9404 223.308 34.9404C222.792 34.9404 222.331 34.8467 221.925 34.6592C221.519 34.4665 221.199 34.1748 220.964 33.7842C220.73 33.3936 220.613 32.8988 220.613 32.2998C220.613 31.4092 220.943 30.7399 221.605 30.292C222.272 29.8441 223.277 29.5967 224.621 29.5498L226.121 29.4951V29.042C226.121 28.443 225.98 28.016 225.699 27.7607C225.423 27.5055 225.032 27.3779 224.527 27.3779C224.095 27.3779 223.675 27.4404 223.269 27.5654C222.863 27.6904 222.467 27.8441 222.081 28.0264L221.488 26.7295C221.91 26.5055 222.389 26.3232 222.925 26.1826C223.467 26.042 224.029 25.9717 224.613 25.9717ZM226.113 30.6514L224.996 30.6904C224.079 30.7217 223.436 30.8779 223.066 31.1592C222.696 31.4404 222.511 31.8258 222.511 32.3154C222.511 32.7425 222.639 33.055 222.894 33.2529C223.149 33.4456 223.485 33.542 223.902 33.542C224.537 33.542 225.063 33.3623 225.48 33.0029C225.902 32.6383 226.113 32.1045 226.113 31.4014V30.6514ZM239.433 37.8311H237.73V34.7842H230.503V26.1357H232.347V33.3389H236.355V26.1357H238.199V33.3701H239.433V37.8311ZM242.785 26.1357V30.5498C242.785 30.6904 242.779 30.8701 242.769 31.0889C242.764 31.3024 242.753 31.5264 242.738 31.7607C242.722 31.9899 242.706 32.2008 242.691 32.3936C242.675 32.5863 242.662 32.7295 242.652 32.8232L247.003 26.1357H249.238V34.7842H247.48V30.417C247.48 30.1878 247.485 29.9222 247.496 29.6201C247.511 29.318 247.527 29.0264 247.542 28.7451C247.563 28.4639 247.576 28.2503 247.581 28.1045L243.246 34.7842H241.019V26.1357H242.785ZM252.746 34.7842H250.699L253.113 31.2529C252.785 31.1488 252.477 30.9951 252.191 30.792C251.91 30.5837 251.68 30.3128 251.503 29.9795C251.326 29.641 251.238 29.2295 251.238 28.7451C251.238 27.9014 251.54 27.2555 252.144 26.8076C252.748 26.3597 253.537 26.1357 254.511 26.1357H258.433V34.7842H256.597V31.4404H254.855L252.746 34.7842ZM253.035 28.7607C253.035 29.1982 253.199 29.5316 253.527 29.7607C253.855 29.9847 254.303 30.0967 254.871 30.0967H256.597V27.5186H254.605C254.058 27.5186 253.66 27.6383 253.41 27.8779C253.16 28.1123 253.035 28.4066 253.035 28.7607Z" fill="black"/>
</svg>
