<svg width="374" height="56" viewBox="0 0 374 56" fill="none" xmlns="http://www.w3.org/2000/svg">
<path d="M12.229 9.72933C8.41857 6.8305 10.4686 0.75 15.2563 0.75H335.343C336.437 0.75 337.5 1.10853 338.371 1.77067L367.946 24.2707C370.576 26.2716 370.576 30.2284 367.946 32.2293L338.371 54.7293C337.5 55.3915 336.437 55.75 335.343 55.75H15.2563C10.4686 55.75 8.41857 49.6695 12.229 46.7707L31.3429 32.2293C33.9731 30.2284 33.9731 26.2716 31.3429 24.2707L12.229 9.72933Z" fill="#E2EAE8"/>
<path d="M118.594 28.96C118.594 29.8818 118.521 30.7074 118.375 31.4365C118.234 32.1605 118.01 32.7751 117.703 33.2803C117.396 33.7855 116.995 34.1709 116.5 34.4365C116.005 34.7021 115.406 34.835 114.703 34.835C113.823 34.835 113.096 34.6032 112.523 34.1396C111.95 33.6709 111.526 32.999 111.25 32.124C110.974 31.2438 110.836 30.1891 110.836 28.96C110.836 27.7308 110.961 26.6787 111.211 25.8037C111.466 24.9235 111.878 24.249 112.445 23.7803C113.013 23.3115 113.766 23.0771 114.703 23.0771C115.588 23.0771 116.318 23.3115 116.891 23.7803C117.469 24.2438 117.896 24.9157 118.172 25.7959C118.453 26.6709 118.594 27.7256 118.594 28.96ZM112.687 28.96C112.687 29.9235 112.75 30.7282 112.875 31.374C113.005 32.0199 113.219 32.5042 113.516 32.8271C113.812 33.1449 114.208 33.3037 114.703 33.3037C115.198 33.3037 115.594 33.1449 115.891 32.8271C116.187 32.5094 116.401 32.0277 116.531 31.3818C116.667 30.736 116.734 29.9287 116.734 28.96C116.734 28.0016 116.669 27.1995 116.539 26.5537C116.409 25.9079 116.195 25.4235 115.898 25.1006C115.602 24.7725 115.203 24.6084 114.703 24.6084C114.203 24.6084 113.805 24.7725 113.508 25.1006C113.216 25.4235 113.005 25.9079 112.875 26.5537C112.75 27.1995 112.687 28.0016 112.687 28.96ZM128.164 32.1709H126.617V34.6787H124.805V32.1709H119.609V30.7803L124.828 23.2256H126.617V30.6475H128.164V32.1709ZM124.805 30.6475V27.8115C124.805 27.5771 124.807 27.3402 124.812 27.1006C124.823 26.8558 124.833 26.6214 124.844 26.3975C124.854 26.1735 124.865 25.9678 124.875 25.7803C124.885 25.5876 124.893 25.4287 124.898 25.3037H124.836C124.737 25.512 124.628 25.7256 124.508 25.9443C124.388 26.1579 124.26 26.3662 124.125 26.5693L121.312 30.6475H124.805ZM129.5 33.71C129.5 33.2829 129.609 32.9834 129.828 32.8115C130.052 32.6344 130.323 32.5459 130.641 32.5459C130.958 32.5459 131.229 32.6344 131.453 32.8115C131.682 32.9834 131.797 33.2829 131.797 33.71C131.797 34.1266 131.682 34.4287 131.453 34.6162C131.229 34.7985 130.958 34.8896 130.641 34.8896C130.323 34.8896 130.052 34.7985 129.828 34.6162C129.609 34.4287 129.5 34.1266 129.5 33.71Z" fill="#E64B13"/>
<path d="M138.5 23.2568H141.898C143.372 23.2568 144.484 23.4704 145.234 23.8975C145.984 24.3245 146.359 25.0615 146.359 26.1084C146.359 26.5459 146.281 26.9417 146.125 27.2959C145.974 27.6449 145.753 27.9339 145.461 28.1631C145.169 28.387 144.81 28.5381 144.383 28.6162V28.6943C144.825 28.7725 145.219 28.9105 145.562 29.1084C145.911 29.3063 146.185 29.5902 146.383 29.96C146.586 30.3298 146.687 30.8089 146.687 31.3975C146.687 32.0954 146.521 32.6891 146.187 33.1787C145.859 33.6683 145.388 34.0407 144.773 34.2959C144.164 34.5511 143.44 34.6787 142.602 34.6787H138.5V23.2568ZM140.375 27.9678H142.172C143.021 27.9678 143.609 27.8298 143.937 27.5537C144.266 27.2777 144.43 26.874 144.43 26.3428C144.43 25.8011 144.234 25.4105 143.844 25.1709C143.458 24.9313 142.844 24.8115 142 24.8115H140.375V27.9678ZM140.375 29.4834V33.1084H142.352C143.227 33.1084 143.841 32.9391 144.195 32.6006C144.549 32.262 144.727 31.8037 144.727 31.2256C144.727 30.8714 144.646 30.5641 144.484 30.3037C144.328 30.0433 144.07 29.8428 143.711 29.7021C143.352 29.5563 142.867 29.4834 142.258 29.4834H140.375ZM156.516 30.335C156.516 31.0537 156.422 31.6917 156.234 32.249C156.047 32.8063 155.773 33.2777 155.414 33.6631C155.055 34.0433 154.622 34.335 154.117 34.5381C153.612 34.736 153.042 34.835 152.406 34.835C151.812 34.835 151.268 34.736 150.773 34.5381C150.279 34.335 149.849 34.0433 149.484 33.6631C149.125 33.2777 148.846 32.8063 148.648 32.249C148.45 31.6917 148.352 31.0537 148.352 30.335C148.352 29.3818 148.516 28.5745 148.844 27.9131C149.177 27.2464 149.651 26.7386 150.266 26.3896C150.88 26.0407 151.612 25.8662 152.461 25.8662C153.258 25.8662 153.961 26.0407 154.57 26.3896C155.18 26.7386 155.656 27.2464 156 27.9131C156.344 28.5798 156.516 29.387 156.516 30.335ZM150.242 30.335C150.242 30.9652 150.318 31.5042 150.469 31.9521C150.625 32.4001 150.865 32.7438 151.187 32.9834C151.51 33.2178 151.927 33.335 152.437 33.335C152.948 33.335 153.365 33.2178 153.687 32.9834C154.01 32.7438 154.247 32.4001 154.398 31.9521C154.549 31.5042 154.625 30.9652 154.625 30.335C154.625 29.7048 154.549 29.1709 154.398 28.7334C154.247 28.2907 154.01 27.9548 153.687 27.7256C153.365 27.4912 152.945 27.374 152.43 27.374C151.669 27.374 151.115 27.6292 150.766 28.1396C150.417 28.6501 150.242 29.3818 150.242 30.335ZM162.109 34.835C161.292 34.835 160.583 34.6761 159.984 34.3584C159.385 34.0407 158.924 33.5537 158.602 32.8975C158.279 32.2412 158.117 31.4079 158.117 30.3975C158.117 29.3454 158.294 28.486 158.648 27.8193C159.003 27.1527 159.492 26.6605 160.117 26.3428C160.747 26.0251 161.469 25.8662 162.281 25.8662C162.797 25.8662 163.263 25.9183 163.68 26.0225C164.102 26.1214 164.458 26.2438 164.75 26.3896L164.203 27.8584C163.885 27.7282 163.56 27.6188 163.227 27.5303C162.893 27.4417 162.573 27.3975 162.266 27.3975C161.76 27.3975 161.338 27.5094 161 27.7334C160.667 27.9574 160.417 28.2907 160.25 28.7334C160.088 29.1761 160.008 29.7256 160.008 30.3818C160.008 31.0173 160.091 31.5537 160.258 31.9912C160.424 32.4235 160.672 32.7516 161 32.9756C161.328 33.1943 161.732 33.3037 162.211 33.3037C162.685 33.3037 163.109 33.2464 163.484 33.1318C163.859 33.0173 164.213 32.8688 164.547 32.6865V34.2803C164.219 34.4678 163.867 34.6058 163.492 34.6943C163.117 34.7881 162.656 34.835 162.109 34.835ZM170.062 34.835C169.245 34.835 168.536 34.6761 167.937 34.3584C167.338 34.0407 166.878 33.5537 166.555 32.8975C166.232 32.2412 166.07 31.4079 166.07 30.3975C166.07 29.3454 166.247 28.486 166.602 27.8193C166.956 27.1527 167.445 26.6605 168.07 26.3428C168.7 26.0251 169.422 25.8662 170.234 25.8662C170.75 25.8662 171.216 25.9183 171.633 26.0225C172.055 26.1214 172.411 26.2438 172.703 26.3896L172.156 27.8584C171.838 27.7282 171.513 27.6188 171.18 27.5303C170.846 27.4417 170.526 27.3975 170.219 27.3975C169.713 27.3975 169.292 27.5094 168.953 27.7334C168.62 27.9574 168.37 28.2907 168.203 28.7334C168.042 29.1761 167.961 29.7256 167.961 30.3818C167.961 31.0173 168.044 31.5537 168.211 31.9912C168.378 32.4235 168.625 32.7516 168.953 32.9756C169.281 33.1943 169.685 33.3037 170.164 33.3037C170.638 33.3037 171.062 33.2464 171.437 33.1318C171.812 33.0173 172.167 32.8688 172.5 32.6865V34.2803C172.172 34.4678 171.82 34.6058 171.445 34.6943C171.07 34.7881 170.609 34.835 170.062 34.835ZM181.062 27.4756H178.219V34.6787H176.391V27.4756H173.562V26.0303H181.062V27.4756ZM186.125 25.8662C187.219 25.8662 188.044 26.1084 188.602 26.5928C189.164 27.0771 189.445 27.8324 189.445 28.8584V34.6787H188.141L187.789 33.4521H187.727C187.482 33.7646 187.229 34.0225 186.969 34.2256C186.708 34.4287 186.406 34.5798 186.062 34.6787C185.724 34.7829 185.31 34.835 184.82 34.835C184.305 34.835 183.844 34.7412 183.437 34.5537C183.031 34.361 182.711 34.0693 182.477 33.6787C182.242 33.2881 182.125 32.7933 182.125 32.1943C182.125 31.3037 182.456 30.6344 183.117 30.1865C183.784 29.7386 184.789 29.4912 186.133 29.4443L187.633 29.3896V28.9365C187.633 28.3376 187.492 27.9105 187.211 27.6553C186.935 27.4001 186.544 27.2725 186.039 27.2725C185.607 27.2725 185.187 27.335 184.781 27.46C184.375 27.585 183.979 27.7386 183.594 27.9209L183 26.624C183.422 26.4001 183.901 26.2178 184.437 26.0771C184.979 25.9365 185.542 25.8662 186.125 25.8662ZM187.625 30.5459L186.508 30.585C185.591 30.6162 184.948 30.7725 184.578 31.0537C184.208 31.335 184.023 31.7204 184.023 32.21C184.023 32.637 184.151 32.9495 184.406 33.1475C184.661 33.3402 184.997 33.4365 185.414 33.4365C186.049 33.4365 186.575 33.2568 186.992 32.8975C187.414 32.5329 187.625 31.999 187.625 31.2959V30.5459ZM193.859 26.0303V29.5068H197.906V26.0303H199.75V34.6787H197.906V30.9443H193.859V34.6787H192.016V26.0303H193.859ZM210.031 30.335C210.031 31.0537 209.937 31.6917 209.75 32.249C209.562 32.8063 209.289 33.2777 208.93 33.6631C208.57 34.0433 208.138 34.335 207.633 34.5381C207.128 34.736 206.557 34.835 205.922 34.835C205.328 34.835 204.784 34.736 204.289 34.5381C203.794 34.335 203.365 34.0433 203 33.6631C202.641 33.2777 202.362 32.8063 202.164 32.249C201.966 31.6917 201.867 31.0537 201.867 30.335C201.867 29.3818 202.031 28.5745 202.359 27.9131C202.693 27.2464 203.167 26.7386 203.781 26.3896C204.396 26.0407 205.128 25.8662 205.977 25.8662C206.773 25.8662 207.477 26.0407 208.086 26.3896C208.695 26.7386 209.172 27.2464 209.516 27.9131C209.859 28.5798 210.031 29.387 210.031 30.335ZM203.758 30.335C203.758 30.9652 203.833 31.5042 203.984 31.9521C204.141 32.4001 204.38 32.7438 204.703 32.9834C205.026 33.2178 205.443 33.335 205.953 33.335C206.463 33.335 206.88 33.2178 207.203 32.9834C207.526 32.7438 207.763 32.4001 207.914 31.9521C208.065 31.5042 208.141 30.9652 208.141 30.335C208.141 29.7048 208.065 29.1709 207.914 28.7334C207.763 28.2907 207.526 27.9548 207.203 27.7256C206.88 27.4912 206.461 27.374 205.945 27.374C205.185 27.374 204.63 27.6292 204.281 28.1396C203.932 28.6501 203.758 29.3818 203.758 30.335ZM219.414 28.249C219.414 28.749 219.26 29.1579 218.953 29.4756C218.651 29.7881 218.234 29.9938 217.703 30.0928V30.1553C218.271 30.2282 218.745 30.4287 219.125 30.7568C219.505 31.085 219.695 31.5407 219.695 32.124C219.695 32.6188 219.57 33.0589 219.32 33.4443C219.075 33.8245 218.685 34.1266 218.148 34.3506C217.617 34.5693 216.922 34.6787 216.062 34.6787H212.141V26.0303H216.047C216.693 26.0303 217.268 26.1006 217.773 26.2412C218.284 26.3818 218.685 26.6136 218.977 26.9365C219.268 27.2594 219.414 27.6969 219.414 28.249ZM217.781 32.0615C217.781 31.6344 217.617 31.3271 217.289 31.1396C216.966 30.9521 216.492 30.8584 215.867 30.8584H213.984V33.3271H215.906C216.49 33.3271 216.948 33.2308 217.281 33.0381C217.615 32.8402 217.781 32.5146 217.781 32.0615ZM217.547 28.4131C217.547 28.0745 217.419 27.8245 217.164 27.6631C216.909 27.4964 216.508 27.4131 215.961 27.4131H213.984V29.5068H215.711C216.315 29.5068 216.771 29.4209 217.078 29.249C217.391 29.0719 217.547 28.7933 217.547 28.4131ZM228.883 34.6787H227.031V27.4678H224.633C224.529 28.7803 224.398 29.9027 224.242 30.835C224.086 31.7673 223.891 32.5277 223.656 33.1162C223.422 33.6995 223.133 34.1266 222.789 34.3975C222.445 34.6683 222.031 34.8037 221.547 34.8037C221.333 34.8037 221.141 34.7881 220.969 34.7568C220.797 34.7308 220.643 34.6891 220.508 34.6318V33.1865C220.596 33.2178 220.693 33.2438 220.797 33.2646C220.901 33.2855 221.008 33.2959 221.117 33.2959C221.31 33.2959 221.487 33.2178 221.648 33.0615C221.815 32.9001 221.969 32.6475 222.109 32.3037C222.25 31.96 222.378 31.5068 222.492 30.9443C222.607 30.3766 222.711 29.6891 222.805 28.8818C222.898 28.0693 222.982 27.1188 223.055 26.0303H228.883V34.6787ZM234.961 25.8662C235.732 25.8662 236.393 26.0251 236.945 26.3428C237.497 26.6605 237.922 27.111 238.219 27.6943C238.516 28.2777 238.664 28.9756 238.664 29.7881V30.7725H232.891C232.911 31.611 233.135 32.2568 233.562 32.71C233.995 33.1631 234.599 33.3896 235.375 33.3896C235.927 33.3896 236.422 33.3376 236.859 33.2334C237.302 33.124 237.758 32.9652 238.227 32.7568V34.249C237.794 34.4521 237.354 34.6006 236.906 34.6943C236.458 34.7881 235.922 34.835 235.297 34.835C234.448 34.835 233.7 34.6709 233.055 34.3428C232.414 34.0094 231.911 33.5146 231.547 32.8584C231.187 32.2021 231.008 31.387 231.008 30.4131C231.008 29.4443 231.172 28.6214 231.5 27.9443C231.828 27.2673 232.289 26.7516 232.883 26.3975C233.477 26.0433 234.169 25.8662 234.961 25.8662ZM234.961 27.249C234.383 27.249 233.914 27.4365 233.555 27.8115C233.2 28.1865 232.992 28.736 232.93 29.46H236.867C236.862 29.0277 236.789 28.6449 236.648 28.3115C236.513 27.9782 236.305 27.7178 236.023 27.5303C235.747 27.3428 235.393 27.249 234.961 27.249ZM242.578 26.0303V29.5068H246.625V26.0303H248.469V34.6787H246.625V30.9443H242.578V34.6787H240.734V26.0303H242.578ZM252.859 26.0303V30.4443C252.859 30.585 252.854 30.7646 252.844 30.9834C252.838 31.1969 252.828 31.4209 252.812 31.6553C252.797 31.8844 252.781 32.0954 252.766 32.2881C252.75 32.4808 252.737 32.624 252.727 32.7178L257.078 26.0303H259.312V34.6787H257.555V30.3115C257.555 30.0824 257.56 29.8167 257.57 29.5146C257.586 29.2126 257.602 28.9209 257.617 28.6396C257.638 28.3584 257.651 28.1449 257.656 27.999L253.32 34.6787H251.094V26.0303H252.859ZM265.398 25.8662C266.169 25.8662 266.831 26.0251 267.383 26.3428C267.935 26.6605 268.359 27.111 268.656 27.6943C268.953 28.2777 269.102 28.9756 269.102 29.7881V30.7725H263.328C263.349 31.611 263.573 32.2568 264 32.71C264.432 33.1631 265.036 33.3896 265.812 33.3896C266.365 33.3896 266.859 33.3376 267.297 33.2334C267.74 33.124 268.195 32.9652 268.664 32.7568V34.249C268.232 34.4521 267.792 34.6006 267.344 34.6943C266.896 34.7881 266.359 34.835 265.734 34.835C264.885 34.835 264.138 34.6709 263.492 34.3428C262.852 34.0094 262.349 33.5146 261.984 32.8584C261.625 32.2021 261.445 31.387 261.445 30.4131C261.445 29.4443 261.609 28.6214 261.937 27.9443C262.266 27.2673 262.727 26.7516 263.32 26.3975C263.914 26.0433 264.607 25.8662 265.398 25.8662ZM265.398 27.249C264.82 27.249 264.352 27.4365 263.992 27.8115C263.638 28.1865 263.43 28.736 263.367 29.46H267.305C267.299 29.0277 267.227 28.6449 267.086 28.3115C266.95 27.9782 266.742 27.7178 266.461 27.5303C266.185 27.3428 265.831 27.249 265.398 27.249Z" fill="black"/>
</svg>
