<svg width="1920" height="731" viewBox="0 0 1920 731" fill="none" xmlns="http://www.w3.org/2000/svg">
<g clip-path="url(#clip0_1_1586)">
<path d="M-159.5 100.583V100.583C-13.9341 -8.19675 179.009 -29.9432 345.136 43.7061L396.086 66.2936C526.652 124.178 673.626 133.412 810.411 92.3245L980.774 41.1511C1133.21 -4.63629 1296.09 -1.98353 1446.95 48.7432L1469.23 56.2352C1658.37 119.831 1865.47 101.508 2040.5 5.69286V5.69286" stroke="#FBF4EC" stroke-width="2"/>
<path fill-rule="evenodd" clip-rule="evenodd" d="M348.152 60.1738C186.047 12.8141 12.0781 27.9313 -139.428 102.542V201.998H-140V767.917H2060V201.998H2059.43V40.0425C1880.17 104.711 1686.23 117.156 1500.17 75.9275L1465.56 68.2586C1313.13 34.482 1155.35 32.6957 1002.2 63.0127L824.041 98.2783C688.746 125.06 548.989 118.849 416.603 80.172L348.152 60.1738Z" fill="#FBF4EC"/>
</g>
<defs>
<clipPath id="clip0_1_1586">
<rect width="2200" height="731" fill="white" transform="translate(-140)"/>
</clipPath>
</defs>
</svg>
