<svg width="15" height="8" viewBox="0 0 15 8" fill="none" xmlns="http://www.w3.org/2000/svg">
<path d="M14.8281 3.85868C14.828 3.8585 14.8278 3.8583 14.8276 3.85812L11.766 0.811248C11.5366 0.582996 11.1656 0.583846 10.9373 0.81324C10.709 1.04261 10.7099 1.41359 10.9393 1.64187L12.9949 3.6875H0.585937C0.262324 3.6875 0 3.94982 0 4.27343C0 4.59705 0.262324 4.85937 0.585937 4.85937H12.9948L10.9393 6.90499C10.7099 7.13328 10.7091 7.50426 10.9373 7.73363C11.1656 7.96305 11.5367 7.96384 11.766 7.73562L14.8276 4.68875C14.8278 4.68857 14.828 4.68837 14.8282 4.68819C15.0576 4.45915 15.0569 4.08696 14.8281 3.85868Z" fill="#E64B13"/>
</svg>
