<svg width="21" height="28" viewBox="0 0 21 28" fill="none" xmlns="http://www.w3.org/2000/svg">
<path d="M20.5673 15.857C20.258 11.8302 18.3832 9.30682 16.7292 7.08006C15.1977 5.01856 13.875 3.23836 13.875 0.612292C13.875 0.401354 13.7569 0.208557 13.5696 0.111895C13.3817 0.0146529 13.1559 0.0305787 12.9851 0.154715C10.5011 1.93218 8.42854 4.92797 7.70455 7.78638C7.20194 9.77642 7.13544 12.0136 7.12611 13.4912C4.83216 13.0012 4.31252 9.56991 4.30703 9.53252C4.28119 9.35454 4.17246 9.19966 4.01425 9.11508C3.85441 9.0316 3.66652 9.02553 3.50447 9.10574C3.38418 9.16396 0.551871 10.6031 0.387076 16.3491C0.375527 16.5402 0.375 16.732 0.375 16.9237C0.375 22.506 4.91728 27.048 10.5 27.048C10.5077 27.0485 10.5159 27.0496 10.5225 27.048C10.5247 27.048 10.5269 27.048 10.5296 27.048C16.0987 27.032 20.625 22.4961 20.625 16.9237C20.625 16.643 20.5673 15.857 20.5673 15.857ZM10.5 25.9231C8.6389 25.9231 7.125 24.3104 7.125 22.328C7.125 22.2605 7.12447 22.1924 7.12938 22.1089C7.15189 21.2729 7.31068 20.7022 7.48481 20.3226C7.81113 21.0235 8.39447 21.6678 9.34206 21.6678C9.65298 21.6678 9.90458 21.4162 9.90458 21.1053C9.90458 20.3045 9.92108 19.3806 10.1205 18.5468C10.2979 17.8074 10.722 17.0209 11.2592 16.3903C11.4982 17.2087 11.964 17.8711 12.4188 18.5177C13.0698 19.4426 13.7427 20.399 13.8608 22.0298C13.8679 22.1264 13.8751 22.2237 13.8751 22.328C13.875 24.3103 12.3611 25.9231 10.5 25.9231Z" fill="white"/>
</svg>
