<svg width="20" height="21" viewBox="0 0 20 21" fill="none" xmlns="http://www.w3.org/2000/svg">
<g clip-path="url(#clip0_1_1649)">
<path d="M12.9592 11.1633L11.2842 12.844C10.6049 13.5257 9.40976 13.5404 8.71581 12.844L7.04069 11.1633L1.02444 17.1991C1.24839 17.3027 1.4953 17.3645 1.7578 17.3645H18.2422C18.5047 17.3645 18.7515 17.3027 18.9754 17.1992L12.9592 11.1633Z" fill="#E64B13"/>
<path d="M18.2422 3.302H1.75782C1.49532 3.302 1.2484 3.3638 1.02454 3.46735L7.45333 9.91747C7.45375 9.9179 7.45426 9.91798 7.45469 9.91841C7.45512 9.91884 7.4552 9.91942 7.4552 9.91942L9.54555 12.0167C9.76758 12.2387 10.2325 12.2387 10.4545 12.0167L12.5445 9.91978C12.5445 9.91978 12.545 9.91884 12.5454 9.91841C12.5454 9.91841 12.5463 9.9179 12.5468 9.91747L18.9754 3.46731C18.7515 3.36372 18.5047 3.302 18.2422 3.302Z" fill="#E64B13"/>
<path d="M0.186953 4.28687C0.0710937 4.52116 0 4.78124 0 5.05983V15.6067C0 15.8853 0.0710156 16.1454 0.186914 16.3797L6.21359 10.3335L0.186953 4.28687Z" fill="#E64B13"/>
<path d="M19.813 4.28674L13.7864 10.3334L19.813 16.3797C19.9289 16.1454 20 15.8853 20 15.6067V5.05979C20 4.78112 19.9289 4.52104 19.813 4.28674Z" fill="#E64B13"/>
</g>
<defs>
<clipPath id="clip0_1_1649">
<rect width="20" height="20" fill="white" transform="translate(0 0.333252)"/>
</clipPath>
</defs>
</svg>
