<svg width="23" height="19" viewBox="0 0 23 19" fill="none" xmlns="http://www.w3.org/2000/svg">
<path d="M11.5002 0.65564C5.14897 0.65564 0 5.85348 0 12.2654C0 15.7421 1.5004 18.0096 1.5004 18.0096L21.4953 18.0105C21.4953 18.0105 23 15.5325 23 12.2652C23 5.85348 17.851 0.65564 11.5002 0.65564ZM20.6518 16.5962L2.38507 16.5882C2.38507 16.5882 1.41171 14.7449 1.41171 12.2288C1.41171 6.60897 5.94568 2.05288 11.5388 2.05288C17.1317 2.05288 21.6659 6.60873 21.6659 12.2288C21.6661 14.7734 20.6518 16.5962 20.6518 16.5962Z" fill="#E64B13"/>
<path d="M14.7502 3.73858L14.6059 3.73834L11.5383 9.74927L8.3604 3.68701L4.00934 14.6386H2.88489V15.5182H9.04505V14.6386H7.82275L9.04505 11.2159L11.5383 15.5182L13.934 11.2159L15.1561 14.6386H13.934V15.5182H20.045V14.6386H18.9863L14.7502 3.73858Z" fill="#E64B13"/>
</svg>
