<svg width="68" height="68" viewBox="0 0 68 68" fill="none" xmlns="http://www.w3.org/2000/svg">
<path d="M12.125 39.4661H7.75C7.14516 39.4661 6.65625 39.955 6.65625 40.5598V44.9348C6.65625 45.5397 7.14516 46.0286 7.75 46.0286H12.125C12.7298 46.0286 13.2188 45.5397 13.2188 44.9348V40.5598C13.2188 39.955 12.7298 39.4661 12.125 39.4661ZM11.0312 43.8411H8.84375V41.6536H11.0312V43.8411Z" fill="#E64B13"/>
<path d="M12.125 48.2161H7.75C7.14516 48.2161 6.65625 48.705 6.65625 49.3098V53.6848C6.65625 54.2897 7.14516 54.7786 7.75 54.7786H12.125C12.7298 54.7786 13.2188 54.2897 13.2188 53.6848V49.3098C13.2188 48.705 12.7298 48.2161 12.125 48.2161ZM11.0312 52.5911H8.84375V50.4036H11.0312V52.5911Z" fill="#E64B13"/>
<path d="M12.125 56.9661H7.75C7.14516 56.9661 6.65625 57.455 6.65625 58.0598V62.4348C6.65625 63.0397 7.14516 63.5286 7.75 63.5286H12.125C12.7298 63.5286 13.2188 63.0397 13.2188 62.4348V58.0598C13.2188 57.455 12.7298 56.9661 12.125 56.9661ZM11.0312 61.3411H8.84375V59.1536H11.0312V61.3411Z" fill="#E64B13"/>
<path d="M60.25 39.4661H55.875C55.2702 39.4661 54.7812 39.955 54.7812 40.5598V44.9348C54.7812 45.5397 55.2702 46.0286 55.875 46.0286H60.25C60.8548 46.0286 61.3438 45.5397 61.3438 44.9348V40.5598C61.3438 39.955 60.8548 39.4661 60.25 39.4661ZM59.1562 43.8411H56.9688V41.6536H59.1562V43.8411Z" fill="#E64B13"/>
<path d="M12.125 30.7161H7.75C7.14516 30.7161 6.65625 31.205 6.65625 31.8098V36.1848C6.65625 36.7897 7.14516 37.2786 7.75 37.2786H12.125C12.7298 37.2786 13.2188 36.7897 13.2188 36.1848V31.8098C13.2188 31.205 12.7298 30.7161 12.125 30.7161ZM11.0312 35.0911H8.84375V32.9036H11.0312V35.0911Z" fill="#E64B13"/>
<path d="M60.25 30.7161H55.875C55.2702 30.7161 54.7812 31.205 54.7812 31.8098V36.1848C54.7812 36.7897 55.2702 37.2786 55.875 37.2786H60.25C60.8548 37.2786 61.3438 36.7897 61.3438 36.1848V31.8098C61.3438 31.205 60.8548 30.7161 60.25 30.7161ZM59.1562 35.0911H56.9688V32.9036H59.1562V35.0911Z" fill="#E64B13"/>
<path d="M60.25 48.2161H55.875C55.2702 48.2161 54.7812 48.705 54.7812 49.3098V53.6848C54.7812 54.2897 55.2702 54.7786 55.875 54.7786H60.25C60.8548 54.7786 61.3438 54.2897 61.3438 53.6848V49.3098C61.3438 48.705 60.8548 48.2161 60.25 48.2161ZM59.1562 52.5911H56.9688V50.4036H59.1562V52.5911Z" fill="#E64B13"/>
<path d="M44.9375 48.2161H40.5625C39.9577 48.2161 39.4688 48.705 39.4688 49.3098V53.6848C39.4688 54.2897 39.9577 54.7786 40.5625 54.7786H44.9375C45.5423 54.7786 46.0312 54.2897 46.0312 53.6848V49.3098C46.0312 48.705 45.5423 48.2161 44.9375 48.2161ZM43.8438 52.5911H41.6562V50.4036H43.8438V52.5911Z" fill="#E64B13"/>
<path d="M36.1875 48.2161H31.8125C31.2077 48.2161 30.7188 48.705 30.7188 49.3098V53.6848C30.7188 54.2897 31.2077 54.7786 31.8125 54.7786H36.1875C36.7923 54.7786 37.2812 54.2897 37.2812 53.6848V49.3098C37.2812 48.705 36.7923 48.2161 36.1875 48.2161ZM35.0938 52.5911H32.9062V50.4036H35.0938V52.5911Z" fill="#E64B13"/>
<path d="M27.4375 48.2161H23.0625C22.4577 48.2161 21.9688 48.705 21.9688 49.3098V53.6848C21.9688 54.2897 22.4577 54.7786 23.0625 54.7786H27.4375C28.0423 54.7786 28.5312 54.2897 28.5312 53.6848V49.3098C28.5312 48.705 28.0423 48.2161 27.4375 48.2161ZM26.3438 52.5911H24.1562V50.4036H26.3438V52.5911Z" fill="#E64B13"/>
<path d="M46.0312 31.8098C46.0312 31.205 45.5423 30.7161 44.9375 30.7161H40.5625C39.9577 30.7161 39.4688 31.205 39.4688 31.8098V36.1848C39.4688 36.7897 39.9577 37.2786 40.5625 37.2786H44.9375C45.5423 37.2786 46.0312 36.7897 46.0312 36.1848V31.8098ZM43.8438 35.0911H41.6562V32.9036H43.8438V35.0911Z" fill="#E64B13"/>
<path d="M37.2812 31.8098C37.2812 31.205 36.7923 30.7161 36.1875 30.7161H31.8125C31.2077 30.7161 30.7188 31.205 30.7188 31.8098V36.1848C30.7188 36.7897 31.2077 37.2786 31.8125 37.2786H36.1875C36.7923 37.2786 37.2812 36.7897 37.2812 36.1848V31.8098ZM35.0938 35.0911H32.9062V32.9036H35.0938V35.0911Z" fill="#E64B13"/>
<path d="M28.5312 31.8098C28.5312 31.205 28.0423 30.7161 27.4375 30.7161H23.0625C22.4577 30.7161 21.9688 31.205 21.9688 31.8098V36.1848C21.9688 36.7897 22.4577 37.2786 23.0625 37.2786H27.4375C28.0423 37.2786 28.5312 36.7897 28.5312 36.1848V31.8098ZM26.3438 35.0911H24.1562V32.9036H26.3438V35.0911Z" fill="#E64B13"/>
<path d="M46.0312 40.5598C46.0312 39.955 45.5423 39.4661 44.9375 39.4661H40.5625C39.9577 39.4661 39.4688 39.955 39.4688 40.5598V44.9348C39.4688 45.5397 39.9577 46.0286 40.5625 46.0286H44.9375C45.5423 46.0286 46.0312 45.5397 46.0312 44.9348V40.5598ZM43.8438 43.8411H41.6562V41.6536H43.8438V43.8411Z" fill="#E64B13"/>
<path d="M37.2812 40.5598C37.2812 39.955 36.7923 39.4661 36.1875 39.4661H31.8125C31.2077 39.4661 30.7188 39.955 30.7188 40.5598V44.9348C30.7188 45.5397 31.2077 46.0286 31.8125 46.0286H36.1875C36.7923 46.0286 37.2812 45.5397 37.2812 44.9348V40.5598ZM35.0938 43.8411H32.9062V41.6536H35.0938V43.8411Z" fill="#E64B13"/>
<path d="M28.5312 40.5598C28.5312 39.955 28.0423 39.4661 27.4375 39.4661H23.0625C22.4577 39.4661 21.9688 39.955 21.9688 40.5598V44.9348C21.9688 45.5397 22.4577 46.0286 23.0625 46.0286H27.4375C28.0423 46.0286 28.5312 45.5397 28.5312 44.9348V40.5598ZM26.3438 43.8411H24.1562V41.6536H26.3438V43.8411Z" fill="#E64B13"/>
<path d="M60.25 56.9661H55.875C55.2702 56.9661 54.7812 57.455 54.7812 58.0598V62.4348C54.7812 63.0397 55.2702 63.5286 55.875 63.5286H60.25C60.8548 63.5286 61.3438 63.0397 61.3438 62.4348V58.0598C61.3438 57.455 60.8548 56.9661 60.25 56.9661ZM59.1562 61.3411H56.9688V59.1536H59.1562V61.3411Z" fill="#E64B13"/>
<path d="M65.7188 65.7161V27.4348C65.7188 26.83 65.2298 26.3411 64.625 26.3411H63.5312V23.0598C63.5312 22.455 63.0423 21.9661 62.4375 21.9661H50.4062V18.6848C50.4062 18.08 49.9173 17.5911 49.3125 17.5911H44.9375V19.7786H48.2188V65.7161H39.4688V58.0598C39.4688 57.455 38.9798 56.9661 38.375 56.9661H29.625C29.0202 56.9661 28.5312 57.455 28.5312 58.0598V65.7161H19.7812V19.7786H23.0625V17.5911H18.6875C18.0827 17.5911 17.5938 18.08 17.5938 18.6848V21.9661H5.5625C4.95766 21.9661 4.46875 22.455 4.46875 23.0598V26.3411H3.375C2.77016 26.3411 2.28125 26.83 2.28125 27.4348V65.7161H0.09375V67.9036H67.9062V65.7161H65.7188ZM61.3438 24.1536V26.3411H50.4062V24.1536H61.3438ZM50.4062 28.5286H63.5312V65.7161H50.4062V28.5286ZM30.7188 59.1536H37.2812V65.7161H30.7188V59.1536ZM6.65625 24.1536H17.5938V26.3411H6.65625V24.1536ZM4.46875 28.5286H17.5938V65.7161H4.46875V28.5286Z" fill="#E64B13"/>
<path d="M30.8697 21.5012L32.9631 27.7804C33.1119 28.2278 33.5286 28.5286 34 28.5286C34.4714 28.5286 34.8881 28.2278 35.0369 27.7804L37.1303 21.5012C41.758 20.1264 44.9375 15.9056 44.9375 11.0286C44.9375 4.99763 40.0309 0.0910645 34 0.0910645C27.9691 0.0910645 23.0625 4.99763 23.0625 11.0286C23.0625 15.9056 26.242 20.1264 30.8697 21.5012ZM34 2.27856C38.8245 2.27856 42.75 6.20403 42.75 11.0286C42.75 15.0962 39.9861 18.5929 36.0267 19.5325C35.6592 19.62 35.3628 19.8912 35.2425 20.25L34 23.9764L32.7575 20.2511C32.6383 19.8923 32.3408 19.6211 31.9733 19.5336C28.0139 18.5929 25.25 15.0962 25.25 11.0286C25.25 6.20403 29.1755 2.27856 34 2.27856Z" fill="#E64B13"/>
<path d="M34 17.5911C37.6192 17.5911 40.5625 14.6478 40.5625 11.0286C40.5625 7.40935 37.6192 4.46606 34 4.46606C30.3808 4.46606 27.4375 7.40935 27.4375 11.0286C27.4375 14.6478 30.3808 17.5911 34 17.5911ZM34 6.65356C36.4128 6.65356 38.375 8.61575 38.375 11.0286C38.375 13.4414 36.4128 15.4036 34 15.4036C31.5872 15.4036 29.625 13.4414 29.625 11.0286C29.625 8.61575 31.5872 6.65356 34 6.65356Z" fill="#E64B13"/>
</svg>
