<svg width="20" height="21" viewBox="0 0 20 21" fill="none" xmlns="http://www.w3.org/2000/svg">
<path fill-rule="evenodd" clip-rule="evenodd" d="M19.6342 17.9253C19.5014 18.0577 19.3413 18.227 19.1715 18.406C18.7477 18.8558 18.2183 19.4148 17.8865 19.6415C16.1408 20.8344 13.8054 20.2636 12.1534 19.5753C9.97412 18.6673 7.6015 16.9936 5.47115 14.863C3.3388 12.7322 1.66529 10.3589 0.757281 8.18087C0.0697806 6.52853 -0.502212 4.19259 0.690874 2.4465C0.917437 2.11447 1.47779 1.58591 1.92693 1.16134C2.10662 0.992046 2.27459 0.832085 2.4074 0.699702C2.64319 0.465083 2.96229 0.333374 3.29492 0.333374C3.62755 0.333374 3.94665 0.465083 4.18244 0.699702L7.39447 3.9108C7.62896 4.14657 7.76059 4.46559 7.76059 4.79812C7.76059 5.13065 7.62896 5.44966 7.39447 5.68544L6.51947 6.55869C6.22725 6.84877 6.03651 7.22545 5.97563 7.63268C5.91476 8.03991 5.987 8.45591 6.18162 8.81876C7.38512 11.0903 9.24312 12.9479 11.5148 14.1511C11.8776 14.3456 12.2935 14.4178 12.7006 14.3568C13.1077 14.2958 13.4843 14.105 13.7741 13.8127L14.647 12.9394C14.8828 12.7048 15.2019 12.5731 15.5345 12.5731C15.8671 12.5731 16.1862 12.7048 16.422 12.9394L19.6342 16.151C19.8687 16.3867 20.0004 16.7057 20.0004 17.0382C20.0004 17.3706 19.8687 17.6896 19.6342 17.9253Z" fill="#E64B13"/>
</svg>
