<svg width="28" height="23" viewBox="0 0 28 23" fill="none" xmlns="http://www.w3.org/2000/svg">
<path d="M7.55223 21.5875C8.39169 22.427 9.75436 22.427 10.5938 21.5875L21.0065 11.1748C21.3055 10.8758 21.5355 10.5194 21.685 10.1399C22.7314 10.4331 23.7491 10.5884 24.6461 10.5826C26.8655 10.5711 27.6014 9.5994 27.8429 9.01868C28.0844 8.44371 28.2569 7.23628 26.6987 5.64936C26.6815 5.63211 26.6642 5.61486 26.647 5.59761C25.681 4.63166 24.2781 3.74046 22.6854 3.07925C22.3922 2.9585 22.099 2.84926 21.8115 2.74576V2.72851C21.7942 1.45208 20.765 0.422884 19.4886 0.405635L13.2502 0.31939C12.4222 0.30789 11.6288 0.629873 11.048 1.21634L0.629592 11.629C-0.209864 12.4685 -0.209864 13.8312 0.629592 14.6706L7.55223 21.5875ZM15.5788 4.04519C16.2745 3.34948 17.4015 3.34948 18.0972 4.04519C18.5112 4.45917 18.6779 5.02839 18.5974 5.56312C19.2816 6.04609 20.0981 6.49457 20.972 6.8568C21.2825 6.98329 21.5815 7.09829 21.869 7.19603L21.8345 4.68916C21.8862 4.71216 21.9322 4.72941 21.984 4.75241C23.3467 5.32163 24.5713 6.09209 25.359 6.8798C25.3705 6.8913 25.382 6.90279 25.3935 6.91429C26.141 7.679 26.2215 8.16773 26.1583 8.31722C25.9628 8.78295 23.8641 9.19693 20.6788 7.86874C19.7473 7.47776 18.8734 6.99479 18.1662 6.47157C18.1432 6.50032 18.1144 6.52906 18.0914 6.55781C17.3957 7.25353 16.2688 7.25353 15.5731 6.55781C14.8831 5.86785 14.8831 4.74091 15.5788 4.04519Z" fill="white"/>
</svg>
