<svg width="1920" height="731" fill="none" xmlns="http://www.w3.org/2000/svg"><g clip-path="url(#clip0_1_1586)"><path d="M-159.5 100.583v0C-13.934-8.197 179.009-29.943 345.136 43.706l50.95 22.588a597.895 597.895 0 00414.325 26.03l170.363-51.173a768.762 768.762 0 01466.176 7.592l22.28 7.492c189.14 63.596 396.24 45.273 571.27-50.542v0" stroke="#FBF4EC" stroke-width="2"/><path fill-rule="evenodd" clip-rule="evenodd" d="M348.152 60.174a675.109 675.109 0 00-487.58 42.368v99.456H-140v565.919h2200V201.998h-.57V40.042a1006.434 1006.434 0 01-559.26 35.885l-34.61-7.668a1128.7 1128.7 0 00-463.36-5.246L824.041 98.278a858.466 858.466 0 01-407.438-18.106l-68.451-19.998z" fill="#FBF4EC"/></g><defs><clipPath id="clip0_1_1586"><path fill="#fff" transform="translate(-140)" d="M0 0h2200v731H0z"/></clipPath></defs></svg>