<svg width="390" height="3436" viewBox="0 0 390 3436" fill="none" xmlns="http://www.w3.org/2000/svg">
<g clip-path="url(#clip0_1_2439)">
<path fill-rule="evenodd" clip-rule="evenodd" d="M-321.311 229.576L-205.266 848.789H-158.235L-236.405 3172.85V3333.79C-236.405 3435.11 -122.958 3495.05 -39.2559 3437.96C3.35272 3408.9 56.1784 3398.99 106.422 3410.64L196.262 3431.47C303.981 3456.44 416.035 3413.16 478.998 3322.26L708.472 2990.96L509.855 848.789H608.689L608.718 286.141V222.639C608.718 86.6422 472.447 -7.16681 345.409 41.3772C302.532 57.7612 255.236 58.4157 211.923 43.2244L156.46 23.7719C21.1152 -23.6977 -129.498 15.0702 -225.103 121.987L-321.311 229.576Z" fill="#FBF4EC"/>
</g>
<defs>
<clipPath id="clip0_1_2439">
<rect width="450" height="3436" fill="white" transform="translate(-30)"/>
</clipPath>
</defs>
</svg>
