<svg width="390" height="3433" viewBox="0 0 390 3433" fill="none" xmlns="http://www.w3.org/2000/svg">
<path fill-rule="evenodd" clip-rule="evenodd" d="M-321.311 226.576L-205.266 845.789H-158.235L-236.405 3169.85V3330.79C-236.405 3432.11 -122.958 3492.05 -39.2559 3434.96C3.35272 3405.9 56.1784 3395.99 106.422 3407.64L196.262 3428.47C303.981 3453.44 416.035 3410.16 478.998 3319.26L708.472 2987.96L509.855 845.789H608.689L608.718 283.141V219.639C608.718 83.6422 472.447 -10.1668 345.409 38.3772C302.532 54.7612 255.236 55.4157 211.923 40.2244L156.46 20.7719C21.1152 -26.6977 -129.498 12.0702 -225.103 118.987L-321.311 226.576Z" fill="#FBF4EC"/>
</svg>
