<svg width="278" height="705" viewBox="0 0 278 705" fill="none" xmlns="http://www.w3.org/2000/svg">
<path d="M179.799 235.847C180.441 235.97 181.062 235.549 181.185 234.906L183.192 224.437C183.315 223.794 182.894 223.173 182.251 223.05C181.609 222.927 180.988 223.348 180.865 223.991L179.082 233.297L169.775 231.513C169.133 231.39 168.512 231.811 168.389 232.454C168.266 233.096 168.687 233.717 169.329 233.84L179.799 235.847ZM152.651 196.443L179.042 235.348L181.002 234.018L154.611 195.113L152.651 196.443Z" fill="black"/>
<path d="M101.117 482.479C100.475 482.602 99.854 482.181 99.7309 481.539L97.7242 471.069C97.6011 470.427 98.0221 469.806 98.6646 469.683C99.3071 469.56 99.9277 469.981 100.051 470.623L101.835 479.93L111.141 478.146C111.783 478.023 112.404 478.444 112.527 479.086C112.65 479.729 112.229 480.35 111.587 480.473L101.117 482.479ZM128.265 443.075L101.874 481.981L99.9139 480.651L126.305 441.746L128.265 443.075Z" fill="black"/>
<path d="M277.386 362.763C277.386 417.386 233.105 461.666 178.482 461.666C123.86 461.666 79.579 417.386 79.579 362.763C79.579 308.14 123.86 263.859 178.482 263.859C233.105 263.859 277.386 308.14 277.386 362.763Z" fill="white" stroke="url(#paint0_linear_1_3165)" stroke-width="0.394824"/>
<path d="M119.768 263.481L126.071 273.229L124.289 274.381L118.976 266.166L113.921 269.434L119.234 277.65L117.451 278.802L111.149 269.055L119.768 263.481Z" fill="#616161"/>
<path d="M133.479 259.576L137.29 267.569L135.419 268.461L132.365 262.054L129.371 263.482L130.052 265.104C130.507 266.186 130.83 267.121 131.023 267.911C131.221 268.686 131.246 269.367 131.096 269.952C130.952 270.523 130.58 270.951 129.982 271.237C129.702 271.37 129.332 271.479 128.87 271.564L128.211 269.95C128.365 269.913 128.492 269.871 128.592 269.824C128.971 269.643 129.184 269.358 129.231 268.968C129.273 268.568 129.219 268.147 129.069 267.704C128.924 267.246 128.684 266.614 128.348 265.806L127.013 262.658L133.479 259.576Z" fill="#616161"/>
<path d="M140.727 256.665C141.958 256.235 143.001 256.204 143.856 256.572C144.718 256.927 145.357 257.699 145.773 258.888L147.486 263.788L145.639 264.434L145.284 263.416C145.171 263.865 144.925 264.268 144.546 264.623C144.173 264.964 143.674 265.244 143.048 265.463C142.422 265.682 141.838 265.769 141.295 265.725C140.749 265.67 140.279 265.5 139.887 265.216C139.502 264.917 139.225 264.528 139.057 264.048C138.794 263.296 138.861 262.6 139.257 261.957C139.66 261.301 140.462 260.763 141.662 260.344L143.822 259.588L143.778 259.463C143.574 258.879 143.239 258.492 142.775 258.303C142.321 258.11 141.75 258.134 141.061 258.375C140.592 258.539 140.153 258.775 139.745 259.082C139.347 259.385 139.037 259.721 138.816 260.092L137.55 258.935C137.872 258.448 138.31 258.008 138.863 257.616C139.417 257.223 140.038 256.906 140.727 256.665ZM142.957 263.896C143.447 263.725 143.842 263.464 144.141 263.113C144.447 262.748 144.605 262.33 144.616 261.858L144.276 260.887L142.257 261.594C141.13 261.988 140.696 262.555 140.955 263.296C141.079 263.651 141.319 263.883 141.673 263.994C142.028 264.104 142.456 264.071 142.957 263.896Z" fill="#616161"/>
<path d="M149.052 254.071L151.074 253.613L151.869 257.122L156.219 256.136L155.424 252.627L157.446 252.169L159.403 260.805L157.381 261.263L156.608 257.851L152.257 258.836L153.031 262.249L151.009 262.707L149.052 254.071Z" fill="#616161"/>
<path d="M161.997 251.378L164.059 251.162L164.666 256.968L168.924 250.654L170.805 250.457L171.725 259.265L169.663 259.48L169.057 253.675L164.814 259.987L162.918 260.185L161.997 251.378Z" fill="#616161"/>
<path d="M181.05 250.205C181.912 250.221 182.677 250.424 183.344 250.813C184.022 251.202 184.548 251.743 184.921 252.435C185.295 253.128 185.473 253.922 185.456 254.817C185.439 255.713 185.23 256.505 184.83 257.194C184.429 257.872 183.883 258.392 183.191 258.754C182.509 259.117 181.737 259.29 180.875 259.274C179.681 259.25 178.744 258.834 178.063 258.025L177.98 262.319L175.908 262.279L176.141 250.209L178.114 250.247L178.091 251.408C178.442 250.995 178.868 250.688 179.37 250.487C179.882 250.287 180.442 250.193 181.05 250.205ZM180.677 257.495C181.44 257.51 182.069 257.268 182.566 256.769C183.073 256.27 183.334 255.606 183.35 254.777C183.366 253.948 183.131 253.274 182.643 252.756C182.166 252.238 181.547 251.972 180.784 251.957C180.287 251.948 179.837 252.055 179.435 252.28C179.032 252.493 178.711 252.808 178.471 253.223C178.231 253.639 178.105 254.123 178.095 254.675C178.084 255.228 178.191 255.717 178.415 256.141C178.639 256.566 178.947 256.898 179.341 257.138C179.734 257.366 180.18 257.485 180.677 257.495Z" fill="#616161"/>
<path d="M191.634 260.073C190.746 259.956 189.972 259.659 189.31 259.182C188.648 258.704 188.159 258.099 187.843 257.366C187.539 256.623 187.445 255.819 187.559 254.953C187.673 254.088 187.972 253.341 188.456 252.713C188.951 252.087 189.58 251.629 190.343 251.339C191.106 251.05 191.931 250.963 192.819 251.08C193.718 251.199 194.498 251.497 195.16 251.974C195.822 252.452 196.305 253.056 196.61 253.788C196.926 254.521 197.027 255.32 196.913 256.186C196.799 257.052 196.494 257.803 195.997 258.44C195.513 259.068 194.89 259.526 194.127 259.816C193.364 260.106 192.533 260.192 191.634 260.073ZM191.866 258.314C192.622 258.414 193.28 258.244 193.84 257.805C194.4 257.366 194.733 256.735 194.842 255.913C194.95 255.091 194.791 254.395 194.364 253.826C193.937 253.257 193.346 252.923 192.589 252.823C191.833 252.723 191.175 252.893 190.616 253.332C190.067 253.773 189.738 254.404 189.63 255.226C189.522 256.048 189.676 256.743 190.091 257.311C190.518 257.88 191.11 258.214 191.866 258.314Z" fill="#616161"/>
<path d="M207.046 258.308C208.026 258.896 208.385 259.715 208.122 260.766C207.928 261.538 207.489 262.06 206.806 262.334C206.122 262.607 205.211 262.601 204.075 262.316L199.7 261.219L201.853 252.629L206.051 253.682C207.102 253.945 207.874 254.344 208.367 254.878C208.86 255.412 209.018 256.033 208.84 256.74C208.73 257.18 208.517 257.531 208.2 257.794C207.894 258.059 207.509 258.23 207.046 258.308ZM202.868 256.696L204.975 257.225C206.015 257.485 206.625 257.256 206.805 256.538C206.98 255.841 206.547 255.362 205.507 255.101L203.4 254.573L202.868 256.696ZM204.281 260.812C205.385 261.088 206.028 260.868 206.208 260.149C206.302 259.774 206.243 259.463 206.031 259.216C205.822 258.959 205.444 258.761 204.898 258.624L202.533 258.031L201.981 260.235L204.281 260.812Z" fill="#616161"/>
<path d="M216.555 256.777C217.78 257.226 218.606 257.865 219.032 258.692C219.473 259.513 219.476 260.516 219.043 261.699L217.256 266.572L215.419 265.898L215.79 264.886C215.418 265.162 214.972 265.317 214.454 265.35C213.949 265.377 213.386 265.276 212.763 265.048C212.14 264.82 211.633 264.516 211.242 264.137C210.855 263.748 210.601 263.319 210.478 262.85C210.37 262.375 210.403 261.898 210.578 261.421C210.852 260.674 211.346 260.178 212.06 259.933C212.788 259.682 213.749 259.775 214.942 260.213L217.091 261.001L217.136 260.876C217.35 260.295 217.337 259.784 217.098 259.343C216.87 258.906 216.413 258.562 215.728 258.311C215.261 258.14 214.772 258.043 214.262 258.021C213.763 258.002 213.31 258.066 212.903 258.211L212.66 256.515C213.218 256.342 213.835 256.28 214.512 256.328C215.189 256.377 215.87 256.526 216.555 256.777ZM213.687 263.78C214.175 263.959 214.646 264.008 215.099 263.927C215.567 263.839 215.955 263.616 216.263 263.258L216.617 262.293L214.609 261.557C213.488 261.145 212.792 261.308 212.522 262.045C212.392 262.398 212.43 262.73 212.634 263.04C212.838 263.351 213.189 263.597 213.687 263.78Z" fill="#616161"/>
<path d="M224.382 259.925L226.237 260.852L224.628 264.071L228.618 266.065L230.227 262.846L232.081 263.772L228.123 271.694L226.269 270.767L227.833 267.637L223.842 265.643L222.278 268.773L220.424 267.847L224.382 259.925Z" fill="#616161"/>
<path d="M236.65 266.353L238.378 267.498L235.155 272.364L242.456 270.199L244.032 271.243L239.143 278.626L237.415 277.481L240.638 272.614L233.35 274.789L231.76 273.736L236.65 266.353Z" fill="#616161"/>
<path d="M250.858 282.494C250.766 282.604 250.626 282.753 250.438 282.942L245.116 278.476C244.79 279.054 244.697 279.654 244.838 280.278C244.995 280.9 245.365 281.456 245.949 281.946C246.694 282.571 247.514 282.841 248.409 282.755L248.44 284.447C247.829 284.556 247.213 284.507 246.591 284.303C245.969 284.098 245.366 283.751 244.781 283.261C244.036 282.635 243.504 281.936 243.185 281.164C242.867 280.391 242.771 279.611 242.898 278.823C243.041 278.034 243.393 277.305 243.955 276.636C244.509 275.975 245.154 275.507 245.891 275.23C246.644 274.953 247.411 274.889 248.194 275.041C248.976 275.192 249.702 275.548 250.371 276.11C251.031 276.664 251.495 277.306 251.763 278.036C252.047 278.764 252.108 279.516 251.949 280.291C251.804 281.065 251.441 281.799 250.858 282.494ZM249.305 277.38C248.796 276.954 248.237 276.744 247.625 276.75C247.029 276.755 246.484 276.975 245.988 277.411L249.837 280.641C250.181 280.093 250.308 279.521 250.217 278.924C250.125 278.328 249.821 277.813 249.305 277.38Z" fill="#616161"/>
<path d="M127.217 375.184L129.123 366.165H131.64C132.372 366.165 132.958 366.276 133.398 366.498C133.843 366.716 134.163 367.022 134.361 367.417C134.562 367.812 134.663 368.27 134.663 368.793C134.663 369.327 134.564 369.794 134.367 370.193C134.17 370.592 133.892 370.925 133.534 371.192C133.18 371.456 132.765 371.653 132.288 371.785C131.811 371.912 131.293 371.976 130.733 371.976H129.771L129.099 375.184H127.217ZM130.11 370.409H130.881C131.256 370.409 131.583 370.347 131.862 370.224C132.146 370.1 132.366 369.922 132.522 369.687C132.683 369.453 132.763 369.171 132.763 368.842C132.763 368.464 132.662 368.184 132.461 368.003C132.263 367.822 131.965 367.731 131.566 367.731H130.678L130.11 370.409ZM137.883 375.307C137.345 375.307 136.87 375.211 136.458 375.017C136.051 374.82 135.732 374.524 135.502 374.129C135.272 373.734 135.157 373.238 135.157 372.642C135.157 372.066 135.239 371.511 135.403 370.976C135.568 370.438 135.813 369.956 136.137 369.533C136.467 369.109 136.87 368.774 137.347 368.527C137.828 368.281 138.383 368.157 139.012 368.157C139.786 368.157 140.363 368.334 140.746 368.688C141.132 369.037 141.326 369.488 141.326 370.039C141.326 370.401 141.243 370.73 141.079 371.026C140.919 371.322 140.674 371.577 140.345 371.791C140.016 372.001 139.602 372.163 139.105 372.278C138.607 372.389 138.023 372.445 137.353 372.445H137.038C137.034 372.494 137.03 372.537 137.026 372.574C137.026 372.611 137.026 372.652 137.026 372.698C137.026 373.068 137.133 373.362 137.347 373.58C137.561 373.798 137.863 373.907 138.254 373.907C138.615 373.907 138.944 373.866 139.241 373.783C139.537 373.701 139.886 373.565 140.289 373.376V374.777C139.927 374.953 139.559 375.087 139.185 375.178C138.811 375.264 138.377 375.307 137.883 375.307ZM137.242 371.192H137.519C137.996 371.192 138.383 371.141 138.679 371.038C138.979 370.935 139.197 370.8 139.333 370.631C139.473 370.462 139.543 370.279 139.543 370.082C139.543 369.885 139.485 369.738 139.37 369.644C139.259 369.545 139.101 369.496 138.895 369.496C138.665 369.496 138.437 369.568 138.21 369.712C137.984 369.856 137.785 370.055 137.612 370.31C137.439 370.565 137.316 370.859 137.242 371.192ZM141.875 375.184L143.349 368.287H145.212L144.528 371.495L147.242 368.287H149.364L146.409 371.748L148.118 375.184H146.033L144.453 371.822L143.732 375.184H141.875ZM152.146 375.307C151.628 375.307 151.17 375.2 150.771 374.986C150.376 374.773 150.065 374.468 149.839 374.073C149.617 373.674 149.506 373.201 149.506 372.654C149.506 372.165 149.553 371.698 149.648 371.254C149.747 370.806 149.893 370.394 150.086 370.02C150.283 369.642 150.528 369.315 150.82 369.039C151.116 368.76 151.46 368.544 151.85 368.392C152.241 368.235 152.681 368.157 153.17 368.157C153.705 368.157 154.168 368.266 154.559 368.484C154.949 368.698 155.251 369.008 155.465 369.416C155.679 369.823 155.786 370.314 155.786 370.89C155.786 371.359 155.739 371.811 155.644 372.247C155.554 372.679 155.414 373.082 155.225 373.456C155.036 373.827 154.797 374.151 154.509 374.431C154.221 374.707 153.88 374.923 153.485 375.079C153.094 375.231 152.648 375.307 152.146 375.307ZM152.301 373.796C152.506 373.796 152.693 373.744 152.862 373.641C153.031 373.535 153.181 373.389 153.312 373.203C153.444 373.014 153.553 372.798 153.639 372.556C153.73 372.309 153.798 372.044 153.843 371.76C153.892 371.476 153.917 371.186 153.917 370.89C153.917 370.656 153.888 370.448 153.831 370.267C153.777 370.082 153.685 369.938 153.553 369.835C153.425 369.728 153.253 369.675 153.035 369.675C152.809 369.675 152.605 369.738 152.424 369.866C152.247 369.989 152.093 370.156 151.961 370.366C151.83 370.575 151.721 370.81 151.634 371.069C151.548 371.328 151.482 371.595 151.437 371.871C151.396 372.142 151.375 372.404 151.375 372.654C151.375 373.029 151.451 373.312 151.603 373.506C151.756 373.699 151.988 373.796 152.301 373.796ZM156.619 375.184L158.075 368.287H160.635L160.9 373.099H160.937L163.417 368.287H166.058L164.577 375.184H162.862L163.621 371.772C163.691 371.451 163.763 371.143 163.837 370.847C163.915 370.551 163.981 370.308 164.034 370.119H163.997L161.382 375.184H159.599L159.321 370.119H159.296C159.255 370.456 159.208 370.763 159.154 371.038C159.105 371.31 159.052 371.579 158.994 371.846L158.328 375.184H156.619ZM169.383 375.307C168.844 375.307 168.369 375.211 167.958 375.017C167.551 374.82 167.232 374.524 167.002 374.129C166.771 373.734 166.656 373.238 166.656 372.642C166.656 372.066 166.738 371.511 166.903 370.976C167.067 370.438 167.312 369.956 167.637 369.533C167.966 369.109 168.369 368.774 168.846 368.527C169.327 368.281 169.883 368.157 170.512 368.157C171.285 368.157 171.863 368.334 172.245 368.688C172.632 369.037 172.825 369.488 172.825 370.039C172.825 370.401 172.743 370.73 172.579 371.026C172.418 371.322 172.173 371.577 171.844 371.791C171.515 372.001 171.102 372.163 170.604 372.278C170.107 372.389 169.523 372.445 168.852 372.445H168.538C168.534 372.494 168.53 372.537 168.525 372.574C168.525 372.611 168.525 372.652 168.525 372.698C168.525 373.068 168.632 373.362 168.846 373.58C169.06 373.798 169.362 373.907 169.753 373.907C170.115 373.907 170.444 373.866 170.74 373.783C171.036 373.701 171.386 373.565 171.789 373.376V374.777C171.427 374.953 171.059 375.087 170.685 375.178C170.31 375.264 169.876 375.307 169.383 375.307ZM168.741 371.192H169.019C169.496 371.192 169.883 371.141 170.179 371.038C170.479 370.935 170.697 370.8 170.833 370.631C170.972 370.462 171.042 370.279 171.042 370.082C171.042 369.885 170.985 369.738 170.87 369.644C170.759 369.545 170.6 369.496 170.395 369.496C170.164 369.496 169.936 369.568 169.71 369.712C169.484 369.856 169.284 370.055 169.111 370.31C168.939 370.565 168.815 370.859 168.741 371.192ZM173.374 375.184L174.849 368.287H176.724L176.15 370.939H178.303L178.859 368.287H180.716L179.247 375.184H177.39L177.983 372.34H175.848L175.244 375.184H173.374ZM184.152 375.307C183.535 375.307 183.029 375.188 182.634 374.949C182.243 374.711 181.954 374.386 181.764 373.975C181.579 373.563 181.487 373.099 181.487 372.58C181.487 372.107 181.534 371.671 181.629 371.273C181.723 370.87 181.857 370.51 182.03 370.193C182.206 369.876 182.416 369.607 182.659 369.385C182.906 369.163 183.181 368.994 183.486 368.879C183.79 368.76 184.117 368.7 184.466 368.7C184.754 368.7 185.007 368.751 185.225 368.854C185.443 368.953 185.63 369.089 185.787 369.261C185.947 369.43 186.081 369.619 186.188 369.829H186.237C186.245 369.759 186.249 369.685 186.249 369.607C186.249 369.525 186.249 369.463 186.249 369.422C186.249 368.595 186.122 367.991 185.867 367.608C185.612 367.226 185.196 367.034 184.621 367.034C184.427 367.034 184.216 367.057 183.985 367.102C183.759 367.147 183.553 367.209 183.368 367.287L182.98 365.819C183.247 365.72 183.545 365.646 183.874 365.597C184.203 365.543 184.549 365.517 184.911 365.517C185.667 365.517 186.28 365.679 186.749 366.004C187.222 366.325 187.567 366.779 187.785 367.367C188.007 367.956 188.119 368.653 188.119 369.459C188.119 369.936 188.086 370.411 188.02 370.884C187.958 371.353 187.861 371.805 187.73 372.241C187.598 372.677 187.428 373.082 187.218 373.456C187.008 373.827 186.755 374.151 186.459 374.431C186.167 374.707 185.83 374.923 185.447 375.079C185.065 375.231 184.633 375.307 184.152 375.307ZM184.257 373.796C184.466 373.796 184.656 373.746 184.824 373.648C184.993 373.549 185.141 373.413 185.268 373.241C185.4 373.068 185.513 372.866 185.608 372.636C185.706 372.406 185.789 372.159 185.854 371.896C185.924 371.628 185.98 371.355 186.021 371.075C185.968 370.894 185.889 370.734 185.787 370.594C185.688 370.45 185.565 370.337 185.416 370.255C185.273 370.172 185.104 370.131 184.911 370.131C184.717 370.131 184.54 370.17 184.38 370.248C184.22 370.327 184.076 370.44 183.948 370.588C183.821 370.732 183.712 370.907 183.621 371.112C183.535 371.318 183.469 371.55 183.424 371.809C183.379 372.064 183.356 372.342 183.356 372.642C183.356 373.004 183.434 373.288 183.59 373.493C183.747 373.695 183.969 373.796 184.257 373.796ZM191.037 375.307C190.703 375.307 190.389 375.225 190.093 375.06C189.797 374.896 189.554 374.631 189.365 374.265C189.18 373.899 189.087 373.413 189.087 372.809C189.087 372.356 189.134 371.908 189.229 371.464C189.328 371.02 189.468 370.6 189.648 370.205C189.834 369.806 190.056 369.455 190.315 369.15C190.578 368.842 190.874 368.599 191.203 368.422C191.536 368.246 191.896 368.157 192.283 368.157C192.575 368.157 192.83 368.2 193.048 368.287C193.266 368.369 193.453 368.486 193.609 368.638C193.765 368.791 193.893 368.967 193.992 369.169H194.041L194.393 368.287H195.824L194.356 375.184H192.967L193.054 374.289H193.004C192.84 374.491 192.661 374.668 192.468 374.82C192.274 374.972 192.061 375.091 191.826 375.178C191.592 375.264 191.329 375.307 191.037 375.307ZM191.764 373.808C192.019 373.808 192.256 373.709 192.474 373.512C192.692 373.31 192.879 373.049 193.035 372.728C193.192 372.408 193.303 372.068 193.368 371.711C193.401 371.546 193.424 371.382 193.436 371.217C193.453 371.048 193.461 370.867 193.461 370.674C193.461 370.382 193.383 370.142 193.227 369.952C193.074 369.759 192.865 369.662 192.597 369.662C192.416 369.662 192.244 369.722 192.079 369.841C191.919 369.956 191.771 370.117 191.635 370.323C191.499 370.524 191.38 370.756 191.277 371.02C191.178 371.279 191.102 371.554 191.049 371.846C190.995 372.138 190.969 372.43 190.969 372.722C190.969 373.08 191.039 373.352 191.178 373.537C191.318 373.718 191.514 373.808 191.764 373.808ZM200.796 377.658L201.388 375.184C201.236 375.11 201.111 375.017 201.012 374.906C200.913 374.795 200.835 374.67 200.778 374.53C200.72 374.386 200.671 374.234 200.63 374.073H200.58C200.407 374.316 200.216 374.532 200.006 374.721C199.797 374.906 199.564 375.05 199.309 375.153C199.058 375.256 198.783 375.307 198.483 375.307C198.088 375.307 197.759 375.227 197.496 375.067C197.232 374.906 197.033 374.678 196.897 374.382C196.766 374.082 196.7 373.73 196.7 373.327C196.7 373.175 196.716 372.979 196.749 372.741C196.786 372.502 196.829 372.26 196.879 372.013L197.662 368.287H199.519L198.674 372.315C198.645 372.455 198.62 372.587 198.6 372.71C198.583 372.833 198.575 372.946 198.575 373.049C198.575 373.308 198.631 373.5 198.742 373.623C198.853 373.746 199.019 373.808 199.241 373.808C199.525 373.808 199.778 373.689 200 373.45C200.226 373.208 200.424 372.885 200.592 372.482C200.761 372.075 200.897 371.628 201 371.143L201.604 368.287H203.461L202.462 373C202.449 373.062 202.439 373.119 202.431 373.173C202.427 373.226 202.425 373.278 202.425 373.327C202.425 373.467 202.46 373.57 202.53 373.635C202.6 373.697 202.692 373.728 202.807 373.728C202.906 373.728 203.001 373.72 203.091 373.703C203.181 373.687 203.272 373.666 203.362 373.641L202.517 377.658H200.796ZM206.317 375.307C205.923 375.307 205.596 375.227 205.337 375.067C205.077 374.906 204.884 374.678 204.757 374.382C204.629 374.082 204.565 373.73 204.565 373.327C204.565 373.175 204.578 372.979 204.602 372.741C204.627 372.502 204.664 372.26 204.713 372.013L205.497 368.287H207.354L206.509 372.315C206.48 372.455 206.455 372.587 206.435 372.71C206.418 372.833 206.41 372.946 206.41 373.049C206.41 373.308 206.466 373.5 206.577 373.623C206.688 373.746 206.854 373.808 207.076 373.808C207.36 373.808 207.613 373.689 207.835 373.45C208.061 373.208 208.259 372.885 208.427 372.482C208.596 372.075 208.732 371.628 208.834 371.143L209.439 368.287H211.296L209.834 375.184H208.415L208.544 373.907H208.477C208.3 374.178 208.104 374.421 207.891 374.635C207.681 374.844 207.446 375.009 207.187 375.128C206.928 375.248 206.638 375.307 206.317 375.307ZM213.955 375.307C213.56 375.307 213.233 375.227 212.974 375.067C212.715 374.906 212.522 374.678 212.394 374.382C212.267 374.082 212.203 373.73 212.203 373.327C212.203 373.175 212.215 372.979 212.24 372.741C212.264 372.502 212.301 372.26 212.351 372.013L213.134 368.287H214.991L214.146 372.315C214.117 372.455 214.093 372.587 214.072 372.71C214.056 372.833 214.047 372.946 214.047 373.049C214.047 373.308 214.103 373.5 214.214 373.623C214.325 373.746 214.492 373.808 214.714 373.808C214.997 373.808 215.25 373.689 215.472 373.45C215.699 373.208 215.896 372.885 216.065 372.482C216.233 372.075 216.369 371.628 216.472 371.143L217.076 368.287H218.933L217.471 375.184H216.052L216.182 373.907H216.114C215.937 374.178 215.742 374.421 215.528 374.635C215.318 374.844 215.084 375.009 214.825 375.128C214.566 375.248 214.276 375.307 213.955 375.307ZM224.874 375.307C224.479 375.307 224.152 375.227 223.893 375.067C223.634 374.906 223.441 374.678 223.313 374.382C223.186 374.082 223.122 373.73 223.122 373.327C223.122 373.175 223.134 372.979 223.159 372.741C223.184 372.502 223.221 372.26 223.27 372.013L224.054 368.287H225.911L225.065 372.315C225.037 372.455 225.012 372.587 224.991 372.71C224.975 372.833 224.967 372.946 224.967 373.049C224.967 373.308 225.022 373.5 225.133 373.623C225.244 373.746 225.411 373.808 225.633 373.808C225.917 373.808 226.17 373.689 226.392 373.45C226.618 373.208 226.815 372.885 226.984 372.482C227.153 372.075 227.288 371.628 227.391 371.143L227.996 368.287H229.853L228.391 375.184H226.972L227.101 373.907H227.033C226.857 374.178 226.661 374.421 226.447 374.635C226.238 374.844 226.003 375.009 225.744 375.128C225.485 375.248 225.195 375.307 224.874 375.307ZM150.148 396.219L152.257 386.287H153.676L153.571 387.335H153.627C153.771 387.138 153.937 386.949 154.127 386.768C154.316 386.587 154.532 386.441 154.774 386.33C155.017 386.215 155.286 386.157 155.583 386.157C155.916 386.157 156.23 386.239 156.526 386.404C156.823 386.568 157.063 386.836 157.248 387.206C157.433 387.572 157.526 388.061 157.526 388.674C157.526 389.122 157.476 389.569 157.378 390.013C157.283 390.453 157.143 390.872 156.958 391.271C156.777 391.666 156.555 392.018 156.292 392.326C156.033 392.631 155.739 392.871 155.41 393.048C155.081 393.221 154.721 393.307 154.33 393.307C154.051 393.307 153.814 393.264 153.621 393.178C153.427 393.087 153.263 392.966 153.127 392.814C152.996 392.661 152.874 392.491 152.763 392.302H152.714C152.689 392.635 152.656 392.941 152.615 393.221C152.574 393.505 152.519 393.805 152.449 394.121L152.004 396.219H150.148ZM154.016 391.808C154.197 391.808 154.369 391.75 154.534 391.635C154.698 391.516 154.848 391.356 154.984 391.154C155.12 390.948 155.237 390.716 155.336 390.457C155.435 390.194 155.511 389.916 155.564 389.624C155.618 389.332 155.644 389.04 155.644 388.748C155.644 388.386 155.576 388.115 155.441 387.934C155.309 387.753 155.108 387.662 154.836 387.662C154.639 387.662 154.458 387.714 154.293 387.817C154.133 387.919 153.991 388.057 153.868 388.23C153.744 388.403 153.637 388.598 153.547 388.816C153.456 389.03 153.382 389.252 153.325 389.482C153.267 389.713 153.224 389.935 153.195 390.149C153.17 390.362 153.158 390.554 153.158 390.722C153.158 391.047 153.234 391.31 153.386 391.512C153.543 391.709 153.752 391.808 154.016 391.808ZM161.375 393.307C160.837 393.307 160.362 393.211 159.95 393.017C159.543 392.82 159.224 392.524 158.994 392.129C158.764 391.734 158.649 391.238 158.649 390.642C158.649 390.066 158.731 389.511 158.895 388.976C159.06 388.438 159.305 387.956 159.63 387.533C159.959 387.109 160.362 386.774 160.839 386.527C161.32 386.281 161.875 386.157 162.504 386.157C163.278 386.157 163.855 386.334 164.238 386.688C164.624 387.037 164.818 387.488 164.818 388.039C164.818 388.401 164.735 388.73 164.571 389.026C164.411 389.322 164.166 389.577 163.837 389.791C163.508 390.001 163.095 390.163 162.597 390.278C162.099 390.389 161.515 390.445 160.845 390.445H160.53C160.526 390.494 160.522 390.537 160.518 390.574C160.518 390.611 160.518 390.652 160.518 390.698C160.518 391.068 160.625 391.362 160.839 391.58C161.053 391.798 161.355 391.907 161.746 391.907C162.107 391.907 162.436 391.866 162.733 391.783C163.029 391.701 163.378 391.565 163.781 391.376V392.777C163.419 392.953 163.051 393.087 162.677 393.178C162.303 393.264 161.869 393.307 161.375 393.307ZM160.734 389.192H161.011C161.488 389.192 161.875 389.141 162.171 389.038C162.471 388.935 162.689 388.8 162.825 388.631C162.965 388.462 163.035 388.279 163.035 388.082C163.035 387.885 162.977 387.738 162.862 387.644C162.751 387.545 162.593 387.496 162.387 387.496C162.157 387.496 161.929 387.568 161.702 387.712C161.476 387.856 161.277 388.055 161.104 388.31C160.931 388.565 160.808 388.859 160.734 389.192ZM167.514 393.307C166.942 393.307 166.512 393.13 166.224 392.777C165.936 392.419 165.792 391.936 165.792 391.327C165.792 391.175 165.805 391.004 165.829 390.815C165.858 390.622 165.893 390.422 165.934 390.216L166.755 386.287H168.612L167.767 390.315C167.738 390.455 167.713 390.587 167.693 390.71C167.676 390.833 167.668 390.946 167.668 391.049C167.668 391.308 167.717 391.5 167.816 391.623C167.919 391.746 168.071 391.808 168.272 391.808C168.556 391.808 168.809 391.691 169.031 391.456C169.257 391.218 169.453 390.897 169.617 390.494C169.786 390.091 169.924 389.645 170.031 389.155L170.623 386.287H172.48L171.635 390.315C171.602 390.455 171.575 390.587 171.554 390.71C171.538 390.833 171.53 390.946 171.53 391.049C171.53 391.308 171.581 391.5 171.684 391.623C171.787 391.746 171.939 391.808 172.141 391.808C172.35 391.808 172.546 391.738 172.727 391.598C172.908 391.458 173.07 391.267 173.214 391.025C173.362 390.778 173.492 390.494 173.603 390.173C173.718 389.852 173.814 389.509 173.893 389.143L174.503 386.287H176.36L174.892 393.184H173.492L173.615 391.907H173.566C173.389 392.178 173.191 392.421 172.973 392.635C172.759 392.844 172.521 393.009 172.258 393.128C171.995 393.248 171.702 393.307 171.382 393.307C171.143 393.307 170.933 393.274 170.752 393.208C170.571 393.147 170.415 393.056 170.284 392.937C170.152 392.814 170.045 392.666 169.963 392.493C169.881 392.32 169.819 392.125 169.778 391.907H169.722C169.549 392.178 169.352 392.421 169.13 392.635C168.912 392.844 168.667 393.009 168.396 393.128C168.129 393.248 167.834 393.307 167.514 393.307ZM179.858 393.307C179.319 393.307 178.844 393.211 178.433 393.017C178.026 392.82 177.707 392.524 177.477 392.129C177.246 391.734 177.131 391.238 177.131 390.642C177.131 390.066 177.214 389.511 177.378 388.976C177.543 388.438 177.787 387.956 178.112 387.533C178.441 387.109 178.844 386.774 179.321 386.527C179.803 386.281 180.358 386.157 180.987 386.157C181.76 386.157 182.338 386.334 182.721 386.688C183.107 387.037 183.3 387.488 183.3 388.039C183.3 388.401 183.218 388.73 183.054 389.026C182.893 389.322 182.649 389.577 182.32 389.791C181.991 390.001 181.577 390.163 181.08 390.278C180.582 390.389 179.998 390.445 179.328 390.445H179.013C179.009 390.494 179.005 390.537 179.001 390.574C179.001 390.611 179.001 390.652 179.001 390.698C179.001 391.068 179.108 391.362 179.321 391.58C179.535 391.798 179.838 391.907 180.228 391.907C180.59 391.907 180.919 391.866 181.215 391.783C181.511 391.701 181.861 391.565 182.264 391.376V392.777C181.902 392.953 181.534 393.087 181.16 393.178C180.786 393.264 180.352 393.307 179.858 393.307ZM179.216 389.192H179.494C179.971 389.192 180.358 389.141 180.654 389.038C180.954 388.935 181.172 388.8 181.308 388.631C181.448 388.462 181.518 388.279 181.518 388.082C181.518 387.885 181.46 387.738 181.345 387.644C181.234 387.545 181.075 387.496 180.87 387.496C180.639 387.496 180.411 387.568 180.185 387.712C179.959 387.856 179.759 388.055 179.587 388.31C179.414 388.565 179.291 388.859 179.216 389.192ZM183.849 393.184L185.324 386.287H187.199L186.626 388.939H188.779L189.334 386.287H191.191L189.723 393.184H187.866L188.458 390.34H186.323L185.719 393.184H183.849ZM193.843 393.307C193.449 393.307 193.122 393.227 192.863 393.067C192.603 392.906 192.41 392.678 192.283 392.382C192.155 392.082 192.091 391.73 192.091 391.327C192.091 391.175 192.104 390.979 192.128 390.741C192.153 390.502 192.19 390.26 192.24 390.013L193.023 386.287H194.88L194.035 390.315C194.006 390.455 193.981 390.587 193.961 390.71C193.944 390.833 193.936 390.946 193.936 391.049C193.936 391.308 193.992 391.5 194.103 391.623C194.214 391.746 194.38 391.808 194.602 391.808C194.886 391.808 195.139 391.689 195.361 391.45C195.587 391.208 195.785 390.885 195.953 390.482C196.122 390.075 196.258 389.628 196.36 389.143L196.965 386.287H198.822L197.36 393.184H195.941L196.071 391.907H196.003C195.826 392.178 195.63 392.421 195.417 392.635C195.207 392.844 194.972 393.009 194.713 393.128C194.454 393.248 194.164 393.307 193.843 393.307ZM199.852 393.307C199.675 393.307 199.507 393.295 199.346 393.27C199.186 393.245 199.044 393.208 198.921 393.159V391.629C198.982 391.654 199.054 391.676 199.137 391.697C199.219 391.718 199.305 391.728 199.396 391.728C199.511 391.728 199.612 391.707 199.698 391.666C199.784 391.621 199.86 391.561 199.926 391.487C199.992 391.413 200.052 391.331 200.105 391.241C200.249 391.002 200.379 390.807 200.494 390.654C200.609 390.502 200.728 390.381 200.852 390.29C200.975 390.196 201.117 390.124 201.277 390.075C201.092 389.996 200.926 389.896 200.778 389.772C200.634 389.649 200.518 389.493 200.432 389.303C200.35 389.114 200.309 388.888 200.309 388.625C200.309 388.214 200.387 387.86 200.543 387.564C200.699 387.268 200.913 387.027 201.185 386.842C201.46 386.653 201.777 386.513 202.135 386.422C202.497 386.332 202.881 386.287 203.288 386.287H206.169L204.72 393.184H202.857L203.418 390.617H203.035C202.768 390.617 202.558 390.704 202.406 390.877C202.254 391.045 202.116 391.263 201.993 391.53C201.874 391.794 201.726 392.067 201.549 392.351C201.434 392.528 201.3 392.688 201.148 392.832C200.996 392.976 200.815 393.091 200.605 393.178C200.395 393.264 200.144 393.307 199.852 393.307ZM203.109 389.353H203.683L204.047 387.613H203.264C203.062 387.613 202.881 387.652 202.721 387.73C202.56 387.804 202.433 387.915 202.338 388.063C202.248 388.207 202.203 388.386 202.203 388.6C202.203 388.826 202.275 389.009 202.419 389.149C202.567 389.285 202.797 389.353 203.109 389.353Z" fill="black"/>
<circle cx="178.482" cy="340.907" r="12.6344" fill="url(#paint1_linear_1_3165)"/>
<path d="M181.678 345.432H175.373V344.105L177.637 341.816C178.094 341.348 178.46 340.957 178.735 340.644C179.015 340.328 179.217 340.04 179.34 339.781C179.467 339.521 179.531 339.244 179.531 338.948C179.531 338.59 179.43 338.323 179.229 338.146C179.031 337.965 178.766 337.874 178.433 337.874C178.083 337.874 177.744 337.955 177.415 338.115C177.086 338.275 176.743 338.504 176.385 338.8L175.348 337.572C175.608 337.35 175.881 337.14 176.169 336.943C176.461 336.745 176.798 336.587 177.181 336.468C177.567 336.344 178.03 336.283 178.569 336.283C179.161 336.283 179.669 336.39 180.093 336.604C180.52 336.817 180.849 337.109 181.08 337.48C181.31 337.846 181.425 338.261 181.425 338.726C181.425 339.223 181.326 339.678 181.129 340.089C180.932 340.5 180.644 340.907 180.265 341.311C179.891 341.714 179.439 342.16 178.908 342.649L177.748 343.741V343.828H181.678V345.432Z" fill="white"/>
<path d="M198.421 120.248C198.421 174.871 154.14 219.152 99.5175 219.152C44.8947 219.152 0.61416 174.871 0.61416 120.248C0.61416 65.6255 44.8947 21.345 99.5175 21.345C154.14 21.345 198.421 65.6255 198.421 120.248Z" fill="white" stroke="url(#paint2_linear_1_3165)" stroke-width="0.394824"/>
<path d="M74.6828 16.8212L69.0696 18.2968L68.6459 21.1858L66.4969 21.7507L68.5978 9.19627L70.6506 8.65666L78.6696 18.5509L76.4884 19.1243L74.6828 16.8212ZM73.5632 15.3667L70.1562 11.0156L69.3453 16.4754L73.5632 15.3667Z" fill="#616161"/>
<path d="M80.5417 9.26111L82.5978 8.99824L83.0541 12.5676L87.4788 12.0019L87.0225 8.43255L89.0786 8.16969L90.2015 16.9533L88.1454 17.2162L87.7017 13.7455L83.277 14.3112L83.7207 17.7819L81.6647 18.0447L80.5417 9.26111Z" fill="#616161"/>
<path d="M96.4945 7.69827C97.7987 7.67309 98.7996 7.9689 99.497 8.5857C100.205 9.19122 100.572 10.124 100.596 11.3841L100.696 16.5734L98.7397 16.6112L98.7189 15.5335C98.4722 15.9253 98.1132 16.2308 97.642 16.45C97.1816 16.6579 96.6198 16.7682 95.9566 16.781C95.2934 16.7938 94.711 16.6945 94.2094 16.483C93.7075 16.2605 93.3146 15.953 93.0305 15.5604C92.7574 15.1566 92.6159 14.7004 92.6061 14.192C92.5907 13.3962 92.8714 12.755 93.448 12.2684C94.0355 11.7705 94.9648 11.5093 96.2358 11.4848L98.5238 11.4406L98.5213 11.308C98.5093 10.689 98.3122 10.2174 97.93 9.89304C97.5589 9.56849 97.0086 9.41326 96.2791 9.42734C95.7817 9.43694 95.2913 9.5238 94.808 9.68793C94.3357 9.85185 93.9364 10.0752 93.6101 10.3579L92.7686 8.86484C93.226 8.50218 93.779 8.22061 94.4275 8.02012C95.076 7.81963 95.765 7.71235 96.4945 7.69827ZM96.3585 15.264C96.878 15.2539 97.3345 15.129 97.7279 14.8892C98.1322 14.6382 98.413 14.29 98.5702 13.8447L98.5504 12.8167L96.4116 12.858C95.2179 12.8811 94.6286 13.285 94.6438 14.0697C94.651 14.4455 94.806 14.7411 95.1087 14.9564C95.4114 15.1717 95.828 15.2742 96.3585 15.264Z" fill="#616161"/>
<path d="M113.72 8.58928L112.902 17.4065L110.838 17.2149L111.494 10.1479L108.192 9.84144L107.947 11.584C107.783 12.7457 107.582 13.7152 107.343 14.4924C107.117 15.2597 106.789 15.8566 106.361 16.2832C105.945 16.6997 105.407 16.8774 104.746 16.8161C104.438 16.7875 104.064 16.6917 103.624 16.5287L103.884 14.8042C104.035 14.8515 104.165 14.8803 104.276 14.8905C104.694 14.9293 105.023 14.7933 105.263 14.4825C105.503 14.1607 105.673 13.7711 105.771 13.3139C105.881 12.8467 105.998 12.1804 106.123 11.3148L106.587 7.92723L113.72 8.58928Z" fill="#616161"/>
<path d="M118.128 9.19246L120.156 9.61963L118.953 15.3314L124.943 10.6278L126.793 11.0173L124.968 19.6824L122.94 19.2552L124.142 13.5434L118.169 18.2505L116.303 17.8575L118.128 9.19246Z" fill="#616161"/>
<path d="M135.111 17.9806C135.588 18.3002 135.913 18.6747 136.086 19.1039C136.273 19.5262 136.291 19.9683 136.139 20.4304C135.97 20.945 135.646 21.3449 135.168 21.6301C134.694 21.9047 134.116 22.0522 133.435 22.0726C132.753 22.0929 132.024 21.9753 131.246 21.7198C130.595 21.5058 129.984 21.2234 129.413 20.8727C128.845 20.5115 128.356 20.1062 127.945 19.657L128.993 18.3783C129.327 18.744 129.73 19.0745 130.204 19.3696C130.677 19.6648 131.171 19.897 131.685 20.0662C132.347 20.2837 132.894 20.353 133.327 20.2743C133.775 20.1886 134.057 19.9671 134.174 19.6101C134.281 19.2845 134.217 18.9841 133.982 18.7089C133.757 18.4372 133.382 18.215 132.857 18.0424L131.218 17.5038L131.653 16.1805L133.134 16.6673C133.628 16.8296 134.039 16.8716 134.367 16.7933C134.706 16.7185 134.925 16.5288 135.025 16.2242C135.125 15.9196 135.037 15.6228 134.759 15.3338C134.482 15.0448 134.049 14.8037 133.461 14.6103C132.621 14.3342 131.666 14.2472 130.597 14.3496L130.569 12.7346C131.841 12.5824 133.039 12.6911 134.163 13.0605C134.877 13.2952 135.485 13.6056 135.986 13.9915C136.491 14.367 136.843 14.785 137.04 15.2457C137.252 15.6993 137.283 16.1519 137.135 16.6035C137 17.0131 136.754 17.3392 136.394 17.5819C136.039 17.8141 135.611 17.947 135.111 17.9806Z" fill="#616161"/>
<path d="M50.2641 132.793C49.7706 132.793 49.3244 132.754 48.9254 132.675C48.5265 132.601 48.1563 132.47 47.815 132.281V130.609C48.0988 130.765 48.3702 130.886 48.6293 130.973C48.8884 131.059 49.1352 131.119 49.3696 131.152C49.6081 131.184 49.8343 131.201 50.0482 131.201C50.5253 131.201 50.9407 131.115 51.2944 130.942C51.6481 130.769 51.9483 130.512 52.1951 130.171C52.4418 129.829 52.6454 129.408 52.8058 128.906H49.4806L49.8076 127.339H53.0587C53.067 127.286 53.0711 127.234 53.0711 127.185C53.0711 127.131 53.0711 127.078 53.0711 127.024C53.0711 126.601 53.0114 126.247 52.8922 125.963C52.777 125.68 52.6002 125.466 52.3616 125.322C52.1272 125.174 51.8331 125.1 51.4794 125.1C51.1134 125.1 50.7844 125.143 50.4924 125.229C50.2045 125.311 49.8713 125.429 49.493 125.581L48.9994 124.063C49.3984 123.895 49.8282 123.761 50.2888 123.662C50.7494 123.559 51.2244 123.508 51.7139 123.508C52.4336 123.508 53.0361 123.646 53.5214 123.921C54.0067 124.193 54.3728 124.59 54.6195 125.112C54.8663 125.63 54.9897 126.257 54.9897 126.994C54.9897 127.536 54.9321 128.083 54.8169 128.635C54.7059 129.182 54.5311 129.704 54.2926 130.202C54.054 130.699 53.7476 131.143 53.3734 131.534C53.0032 131.921 52.559 132.227 52.0408 132.453C51.5267 132.679 50.9345 132.793 50.2641 132.793ZM55.6251 132.669L57.0995 125.772H58.9626L58.2778 128.98L60.9922 125.772H63.1144L60.1594 129.233L61.8682 132.669H59.7831L58.2038 129.307L57.482 132.669H55.6251ZM65.8226 132.793C65.3456 132.793 64.9117 132.708 64.521 132.54C64.1344 132.367 63.8259 132.095 63.5956 131.725C63.3694 131.351 63.2563 130.862 63.2563 130.257C63.2563 129.759 63.3077 129.282 63.4105 128.826C63.5133 128.369 63.6655 127.948 63.867 127.561C64.0686 127.175 64.3174 126.839 64.6135 126.556C64.9096 126.268 65.2489 126.044 65.6314 125.883C66.0139 125.723 66.4396 125.643 66.9084 125.643C67.3197 125.643 67.6878 125.682 68.0127 125.76C68.3417 125.838 68.6481 125.947 68.9319 126.087L68.3643 127.499C68.1422 127.405 67.9243 127.323 67.7104 127.253C67.4965 127.183 67.2539 127.148 66.9824 127.148C66.6904 127.148 66.4293 127.232 66.199 127.401C65.9728 127.569 65.7795 127.796 65.6191 128.079C65.4628 128.363 65.3435 128.682 65.2613 129.036C65.179 129.385 65.1379 129.741 65.1379 130.103C65.1379 130.362 65.179 130.58 65.2613 130.757C65.3476 130.934 65.4689 131.067 65.6252 131.158C65.7856 131.248 65.9769 131.293 66.199 131.293C66.5115 131.293 66.8015 131.246 67.0688 131.152C67.3361 131.053 67.6117 130.932 67.8955 130.788V132.305C67.6076 132.457 67.2971 132.577 66.9639 132.663C66.6308 132.749 66.2504 132.793 65.8226 132.793ZM69.0368 132.669L70.4988 125.772H71.9177L71.7882 127.049H71.8437C72.0206 126.774 72.2159 126.531 72.4298 126.321C72.6436 126.111 72.8801 125.947 73.1392 125.828C73.4024 125.704 73.6944 125.643 74.0152 125.643C74.4101 125.643 74.7391 125.725 75.0023 125.889C75.2696 126.05 75.4691 126.278 75.6007 126.574C75.7323 126.87 75.7981 127.222 75.7981 127.629C75.7981 127.781 75.7858 127.952 75.7611 128.141C75.7364 128.33 75.7015 128.53 75.6562 128.739L74.8357 132.669H72.9788L73.824 128.641C73.8569 128.501 73.8816 128.369 73.898 128.246C73.9145 128.123 73.9227 128.009 73.9227 127.907C73.9227 127.648 73.8672 127.456 73.7561 127.333C73.6451 127.21 73.4785 127.148 73.2564 127.148C72.9768 127.148 72.7238 127.269 72.4976 127.512C72.2714 127.75 72.074 128.071 71.9054 128.474C71.7409 128.877 71.6052 129.323 71.4982 129.813L70.8937 132.669H69.0368ZM76.0264 135.704L78.1362 125.772H79.5551L79.4502 126.821H79.5058C79.6497 126.623 79.8163 126.434 80.0055 126.253C80.1946 126.072 80.4106 125.926 80.6532 125.815C80.8959 125.7 81.1653 125.643 81.4614 125.643C81.7945 125.643 82.1091 125.725 82.4052 125.889C82.7014 126.054 82.942 126.321 83.127 126.691C83.3121 127.057 83.4046 127.547 83.4046 128.16C83.4046 128.608 83.3553 129.054 83.2566 129.498C83.162 129.938 83.0222 130.358 82.8371 130.757C82.6561 131.152 82.434 131.503 82.1708 131.812C81.9117 132.116 81.6177 132.357 81.2886 132.533C80.9596 132.706 80.5997 132.793 80.209 132.793C79.9294 132.793 79.6929 132.749 79.4996 132.663C79.3063 132.573 79.1418 132.451 79.0061 132.299C78.8745 132.147 78.7531 131.976 78.6421 131.787H78.5927C78.5681 132.12 78.5351 132.427 78.494 132.706C78.4529 132.99 78.3974 133.29 78.3275 133.607L77.8833 135.704H76.0264ZM79.8944 131.293C80.0754 131.293 80.2481 131.236 80.4126 131.121C80.5771 131.001 80.7272 130.841 80.863 130.64C80.9987 130.434 81.1159 130.202 81.2146 129.942C81.3133 129.679 81.3894 129.402 81.4429 129.11C81.4963 128.818 81.5231 128.526 81.5231 128.234C81.5231 127.872 81.4552 127.6 81.3195 127.419C81.1879 127.238 80.9863 127.148 80.7149 127.148C80.5175 127.148 80.3365 127.199 80.172 127.302C80.0116 127.405 79.8697 127.543 79.7464 127.715C79.623 127.888 79.516 128.083 79.4256 128.301C79.3351 128.515 79.261 128.737 79.2035 128.968C79.1459 129.198 79.1027 129.42 79.0739 129.634C79.0492 129.848 79.0369 130.039 79.0369 130.208C79.0369 130.533 79.113 130.796 79.2652 130.997C79.4214 131.195 79.6312 131.293 79.8944 131.293ZM87.2542 132.793C86.7154 132.793 86.2404 132.696 85.8291 132.503C85.4219 132.305 85.1032 132.009 84.8729 131.614C84.6426 131.219 84.5274 130.724 84.5274 130.128C84.5274 129.552 84.6097 128.997 84.7742 128.462C84.9387 127.923 85.1834 127.442 85.5083 127.018C85.8373 126.595 86.2404 126.259 86.7175 126.013C87.1987 125.766 87.7539 125.643 88.3831 125.643C89.1563 125.643 89.7342 125.819 90.1166 126.173C90.5032 126.523 90.6965 126.973 90.6965 127.524C90.6965 127.886 90.6143 128.215 90.4498 128.511C90.2894 128.807 90.0447 129.062 89.7157 129.276C89.3866 129.486 88.9733 129.648 88.4757 129.764C87.978 129.875 87.394 129.93 86.7236 129.93H86.409C86.4049 129.979 86.4008 130.023 86.3967 130.06C86.3967 130.097 86.3967 130.138 86.3967 130.183C86.3967 130.553 86.5036 130.847 86.7175 131.065C86.9313 131.283 87.2336 131.392 87.6243 131.392C87.9862 131.392 88.3153 131.351 88.6114 131.269C88.9075 131.187 89.2571 131.051 89.6601 130.862V132.262C89.2982 132.439 88.9301 132.573 88.5559 132.663C88.1816 132.749 87.7477 132.793 87.2542 132.793ZM86.6126 128.678H86.8902C87.3673 128.678 87.7539 128.626 88.05 128.524C88.3502 128.421 88.5682 128.285 88.7039 128.116C88.8438 127.948 88.9137 127.765 88.9137 127.567C88.9137 127.37 88.8561 127.224 88.7409 127.129C88.6299 127.031 88.4715 126.981 88.2659 126.981C88.0356 126.981 87.8073 127.053 87.5811 127.197C87.3549 127.341 87.1555 127.541 86.9827 127.796C86.81 128.051 86.6866 128.345 86.6126 128.678ZM94.1389 132.793C93.6618 132.793 93.2279 132.708 92.8372 132.54C92.4506 132.367 92.1422 132.095 91.9119 131.725C91.6857 131.351 91.5726 130.862 91.5726 130.257C91.5726 129.759 91.624 129.282 91.7268 128.826C91.8296 128.369 91.9818 127.948 92.1833 127.561C92.3848 127.175 92.6337 126.839 92.9298 126.556C93.2259 126.268 93.5652 126.044 93.9477 125.883C94.3302 125.723 94.7558 125.643 95.2247 125.643C95.636 125.643 96.004 125.682 96.329 125.76C96.658 125.838 96.9644 125.947 97.2482 126.087L96.6806 127.499C96.4585 127.405 96.2405 127.323 96.0267 127.253C95.8128 127.183 95.5702 127.148 95.2987 127.148C95.0067 127.148 94.7455 127.232 94.5152 127.401C94.289 127.569 94.0957 127.796 93.9353 128.079C93.7791 128.363 93.6598 128.682 93.5775 129.036C93.4953 129.385 93.4541 129.741 93.4541 130.103C93.4541 130.362 93.4953 130.58 93.5775 130.757C93.6639 130.934 93.7852 131.067 93.9415 131.158C94.1019 131.248 94.2931 131.293 94.5152 131.293C94.8278 131.293 95.1178 131.246 95.3851 131.152C95.6524 131.053 95.928 130.932 96.2117 130.788V132.305C95.9239 132.457 95.6133 132.577 95.2802 132.663C94.9471 132.749 94.5666 132.793 94.1389 132.793ZM100.246 132.793C99.7693 132.793 99.3354 132.708 98.9447 132.54C98.5581 132.367 98.2496 132.095 98.0193 131.725C97.7931 131.351 97.68 130.862 97.68 130.257C97.68 129.759 97.7314 129.282 97.8342 128.826C97.937 128.369 98.0892 127.948 98.2907 127.561C98.4923 127.175 98.7411 126.839 99.0372 126.556C99.3333 126.268 99.6726 126.044 100.055 125.883C100.438 125.723 100.863 125.643 101.332 125.643C101.743 125.643 102.111 125.682 102.436 125.76C102.765 125.838 103.072 125.947 103.356 126.087L102.788 127.499C102.566 127.405 102.348 127.323 102.134 127.253C101.92 127.183 101.678 127.148 101.406 127.148C101.114 127.148 100.853 127.232 100.623 127.401C100.396 127.569 100.203 127.796 100.043 128.079C99.8865 128.363 99.7672 128.682 99.685 129.036C99.6027 129.385 99.5616 129.741 99.5616 130.103C99.5616 130.362 99.6027 130.58 99.685 130.757C99.7713 130.934 99.8927 131.067 100.049 131.158C100.209 131.248 100.401 131.293 100.623 131.293C100.935 131.293 101.225 131.246 101.493 131.152C101.76 131.053 102.035 130.932 102.319 130.788V132.305C102.031 132.457 101.721 132.577 101.388 132.663C101.055 132.749 100.674 132.793 100.246 132.793ZM103.485 130.053L103.812 128.511H107.045L106.718 130.053H103.485ZM109.808 132.793C109.475 132.793 109.161 132.71 108.865 132.546C108.568 132.381 108.326 132.116 108.137 131.75C107.952 131.384 107.859 130.899 107.859 130.294C107.859 129.842 107.906 129.393 108.001 128.949C108.1 128.505 108.239 128.086 108.42 127.691C108.606 127.292 108.828 126.94 109.087 126.636C109.35 126.327 109.646 126.085 109.975 125.908C110.308 125.731 110.668 125.643 111.055 125.643C111.347 125.643 111.602 125.686 111.82 125.772C112.038 125.854 112.225 125.972 112.381 126.124C112.537 126.276 112.665 126.453 112.763 126.654H112.813L113.164 125.772H114.596L113.127 132.669H111.739L111.826 131.775H111.776C111.612 131.976 111.433 132.153 111.24 132.305C111.046 132.457 110.833 132.577 110.598 132.663C110.364 132.749 110.1 132.793 109.808 132.793ZM110.536 131.293C110.791 131.293 111.028 131.195 111.246 130.997C111.464 130.796 111.651 130.535 111.807 130.214C111.964 129.893 112.075 129.554 112.14 129.196C112.173 129.031 112.196 128.867 112.208 128.702C112.225 128.534 112.233 128.353 112.233 128.16C112.233 127.868 112.155 127.627 111.999 127.438C111.846 127.244 111.637 127.148 111.369 127.148C111.188 127.148 111.016 127.207 110.851 127.327C110.691 127.442 110.543 127.602 110.407 127.808C110.271 128.009 110.152 128.242 110.049 128.505C109.95 128.764 109.874 129.04 109.821 129.332C109.767 129.624 109.741 129.916 109.741 130.208C109.741 130.566 109.811 130.837 109.95 131.022C110.09 131.203 110.286 131.293 110.536 131.293ZM115.046 132.669L116.52 125.772H118.396L117.822 128.425H119.975L120.53 125.772H122.387L120.919 132.669H119.062L119.654 129.825H117.52L116.915 132.669H115.046ZM125.108 132.793C124.775 132.793 124.46 132.71 124.164 132.546C123.868 132.381 123.625 132.116 123.436 131.75C123.251 131.384 123.158 130.899 123.158 130.294C123.158 129.842 123.206 129.393 123.3 128.949C123.399 128.505 123.539 128.086 123.72 127.691C123.905 127.292 124.127 126.94 124.386 126.636C124.649 126.327 124.945 126.085 125.274 125.908C125.608 125.731 125.967 125.643 126.354 125.643C126.646 125.643 126.901 125.686 127.119 125.772C127.337 125.854 127.524 125.972 127.68 126.124C127.837 126.276 127.964 126.453 128.063 126.654H128.112L128.464 125.772H129.895L128.427 132.669H127.039L127.125 131.775H127.076C126.911 131.976 126.732 132.153 126.539 132.305C126.346 132.457 126.132 132.577 125.898 132.663C125.663 132.749 125.4 132.793 125.108 132.793ZM125.836 131.293C126.091 131.293 126.327 131.195 126.545 130.997C126.763 130.796 126.95 130.535 127.107 130.214C127.263 129.893 127.374 129.554 127.44 129.196C127.473 129.031 127.495 128.867 127.508 128.702C127.524 128.534 127.532 128.353 127.532 128.16C127.532 127.868 127.454 127.627 127.298 127.438C127.146 127.244 126.936 127.148 126.669 127.148C126.488 127.148 126.315 127.207 126.151 127.327C125.99 127.442 125.842 127.602 125.706 127.808C125.571 128.009 125.451 128.242 125.349 128.505C125.25 128.764 125.174 129.04 125.12 129.332C125.067 129.624 125.04 129.916 125.04 130.208C125.04 130.566 125.11 130.837 125.25 131.022C125.39 131.203 125.585 131.293 125.836 131.293ZM130.672 132.793C130.483 132.793 130.319 132.78 130.179 132.756C130.039 132.735 129.897 132.698 129.753 132.645V131.115C129.84 131.152 129.924 131.178 130.006 131.195C130.088 131.207 130.177 131.213 130.271 131.213C130.432 131.213 130.572 131.156 130.691 131.041C130.81 130.925 130.917 130.769 131.012 130.572C131.11 130.37 131.205 130.14 131.296 129.881C131.386 129.622 131.483 129.346 131.585 129.054C131.791 128.474 131.993 127.97 132.19 127.543C132.392 127.111 132.628 126.755 132.9 126.475C133.171 126.196 133.51 125.988 133.917 125.852C134.329 125.712 134.847 125.643 135.472 125.643C135.9 125.643 136.303 125.68 136.681 125.754C137.06 125.828 137.368 125.91 137.607 126L136.206 132.669H134.349L135.509 127.21C135.447 127.197 135.384 127.187 135.318 127.179C135.256 127.166 135.19 127.16 135.12 127.16C134.783 127.16 134.512 127.257 134.306 127.45C134.105 127.643 133.926 127.931 133.769 128.314C133.613 128.692 133.44 129.163 133.251 129.727C133.111 130.15 132.969 130.547 132.825 130.917C132.686 131.287 132.523 131.614 132.338 131.898C132.157 132.178 131.933 132.398 131.666 132.558C131.398 132.714 131.067 132.793 130.672 132.793ZM140.327 132.793C139.932 132.793 139.605 132.712 139.346 132.552C139.087 132.392 138.894 132.163 138.766 131.867C138.639 131.567 138.575 131.215 138.575 130.812C138.575 130.66 138.587 130.465 138.612 130.226C138.637 129.988 138.674 129.745 138.723 129.498L139.507 125.772H141.364L140.518 129.801C140.49 129.94 140.465 130.072 140.444 130.195C140.428 130.319 140.42 130.432 140.42 130.535C140.42 130.794 140.475 130.985 140.586 131.108C140.697 131.232 140.864 131.293 141.086 131.293C141.37 131.293 141.623 131.174 141.845 130.936C142.071 130.693 142.268 130.37 142.437 129.967C142.606 129.56 142.741 129.114 142.844 128.628L143.449 125.772H145.306L143.844 132.669H142.425L142.554 131.392H142.486C142.309 131.664 142.114 131.906 141.9 132.12C141.691 132.33 141.456 132.494 141.197 132.614C140.938 132.733 140.648 132.793 140.327 132.793ZM147.977 132.793C147.512 132.793 147.076 132.747 146.669 132.657C146.262 132.566 145.933 132.457 145.682 132.33V130.8C145.962 130.94 146.291 131.065 146.669 131.176C147.051 131.287 147.467 131.343 147.915 131.343C148.207 131.343 148.472 131.316 148.711 131.263C148.954 131.209 149.147 131.119 149.291 130.991C149.435 130.86 149.507 130.679 149.507 130.448C149.507 130.214 149.416 130.035 149.235 129.912C149.054 129.788 148.783 129.727 148.421 129.727H147.335L147.613 128.425H148.384C148.734 128.425 149.026 128.402 149.26 128.357C149.494 128.308 149.669 128.227 149.784 128.116C149.904 128.001 149.963 127.843 149.963 127.641C149.963 127.448 149.893 127.3 149.754 127.197C149.614 127.09 149.367 127.037 149.013 127.037C148.738 127.037 148.427 127.082 148.082 127.173C147.74 127.263 147.403 127.38 147.07 127.524L146.626 126.173C147.029 126.017 147.455 125.889 147.903 125.791C148.351 125.692 148.83 125.643 149.34 125.643C149.813 125.643 150.237 125.7 150.611 125.815C150.985 125.93 151.279 126.113 151.493 126.364C151.711 126.611 151.82 126.94 151.82 127.351C151.82 127.685 151.748 127.962 151.604 128.184C151.464 128.406 151.273 128.587 151.031 128.727C150.792 128.863 150.521 128.972 150.216 129.054V129.103C150.558 129.198 150.837 129.356 151.055 129.578C151.277 129.801 151.388 130.107 151.388 130.498C151.388 130.954 151.267 131.355 151.024 131.701C150.782 132.046 150.41 132.315 149.908 132.509C149.406 132.698 148.762 132.793 147.977 132.793ZM78.5557 150.669L83.2813 141.65H85.5823L86.4892 150.669H84.657L84.5089 148.522H81.5909L80.5298 150.669H78.5557ZM82.3621 146.918H84.4164L84.256 144.593C84.2395 144.346 84.2231 144.097 84.2066 143.846C84.1902 143.595 84.1861 143.338 84.1943 143.075H84.1634C84.0853 143.301 83.9948 143.527 83.892 143.754C83.7892 143.98 83.674 144.22 83.5465 144.475L82.3621 146.918ZM87.285 153.704C87.0629 153.704 86.882 153.692 86.7421 153.667C86.5982 153.643 86.4769 153.616 86.3782 153.587V152.107C86.4851 152.127 86.5961 152.146 86.7113 152.162C86.8223 152.179 86.9498 152.187 87.0938 152.187C87.4845 152.187 87.8073 152.072 88.0623 151.841C88.3173 151.615 88.5394 151.325 88.7286 150.971L88.889 150.669L87.8773 143.772H89.6971L90.0426 146.968C90.0632 147.157 90.0776 147.36 90.0858 147.578C90.0981 147.792 90.1064 148.004 90.1105 148.214C90.1146 148.424 90.1166 148.611 90.1166 148.775H90.166C90.2236 148.635 90.2812 148.479 90.3387 148.306C90.4004 148.134 90.4703 147.947 90.5485 147.745C90.6307 147.539 90.7274 147.321 90.8384 147.091L92.4424 143.772H94.4597L90.2647 151.656C90.0179 152.121 89.7403 152.506 89.4319 152.81C89.1275 153.114 88.7965 153.338 88.4386 153.482C88.0808 153.63 87.6963 153.704 87.285 153.704ZM97.0322 150.793C96.4153 150.793 95.9095 150.673 95.5146 150.435C95.1239 150.196 94.834 149.871 94.6448 149.46C94.4597 149.049 94.3672 148.584 94.3672 148.066C94.3672 147.593 94.4145 147.157 94.5091 146.758C94.6037 146.355 94.7373 145.995 94.9101 145.678C95.0869 145.362 95.2967 145.092 95.5393 144.87C95.7861 144.648 96.0616 144.48 96.366 144.364C96.6703 144.245 96.9973 144.185 97.3469 144.185C97.6348 144.185 97.8877 144.237 98.1057 144.34C98.3236 144.438 98.5108 144.574 98.6671 144.747C98.8275 144.915 98.9611 145.105 99.068 145.314H99.1174C99.1256 145.244 99.1297 145.17 99.1297 145.092C99.1297 145.01 99.1297 144.948 99.1297 144.907C99.1297 144.081 99.0022 143.476 98.7473 143.094C98.4923 142.711 98.0769 142.52 97.5011 142.52C97.3078 142.52 97.096 142.542 96.8657 142.588C96.6395 142.633 96.4338 142.695 96.2488 142.773L95.8601 141.304C96.1274 141.206 96.4256 141.132 96.7546 141.082C97.0836 141.029 97.4291 141.002 97.791 141.002C98.5478 141.002 99.1606 141.165 99.6294 141.49C100.102 141.81 100.448 142.265 100.666 142.853C100.888 143.441 100.999 144.138 100.999 144.944C100.999 145.421 100.966 145.896 100.9 146.369C100.839 146.838 100.742 147.291 100.61 147.727C100.479 148.162 100.308 148.568 100.098 148.942C99.8885 149.312 99.6356 149.637 99.3395 149.917C99.0475 150.192 98.7102 150.408 98.3278 150.564C97.9453 150.716 97.5134 150.793 97.0322 150.793ZM97.1371 149.281C97.3469 149.281 97.536 149.232 97.7047 149.133C97.8733 149.034 98.0214 148.899 98.1488 148.726C98.2805 148.553 98.3936 148.352 98.4881 148.121C98.5869 147.891 98.6691 147.644 98.7349 147.381C98.8048 147.114 98.8604 146.84 98.9015 146.561C98.848 146.38 98.7699 146.219 98.6671 146.079C98.5683 145.935 98.445 145.822 98.2969 145.74C98.153 145.658 97.9843 145.617 97.791 145.617C97.5977 145.617 97.4209 145.656 97.2605 145.734C97.1001 145.812 96.9562 145.925 96.8287 146.073C96.7012 146.217 96.5922 146.392 96.5017 146.598C96.4153 146.803 96.3495 147.036 96.3043 147.295C96.259 147.55 96.2364 147.827 96.2364 148.128C96.2364 148.489 96.3146 148.773 96.4708 148.979C96.6271 149.18 96.8492 149.281 97.1371 149.281ZM103.849 150.793C103.454 150.793 103.127 150.712 102.868 150.552C102.609 150.392 102.416 150.163 102.288 149.867C102.161 149.567 102.097 149.215 102.097 148.812C102.097 148.66 102.109 148.465 102.134 148.226C102.159 147.988 102.196 147.745 102.245 147.498L103.029 143.772H104.886L104.04 147.801C104.012 147.94 103.987 148.072 103.966 148.195C103.95 148.319 103.942 148.432 103.942 148.535C103.942 148.794 103.997 148.985 104.108 149.108C104.219 149.232 104.386 149.293 104.608 149.293C104.892 149.293 105.145 149.174 105.367 148.936C105.593 148.693 105.79 148.37 105.959 147.967C106.128 147.56 106.263 147.114 106.366 146.628L106.971 143.772H108.828L107.366 150.669H105.947L106.076 149.392H106.008C105.831 149.664 105.636 149.906 105.422 150.12C105.212 150.33 104.978 150.494 104.719 150.614C104.46 150.733 104.17 150.793 103.849 150.793ZM109.278 150.669L110.74 143.772H112.159L112.029 145.049H112.085C112.262 144.774 112.457 144.531 112.671 144.321C112.885 144.111 113.121 143.947 113.38 143.828C113.644 143.704 113.936 143.643 114.256 143.643C114.729 143.643 115.095 143.768 115.355 144.019C115.618 144.266 115.79 144.609 115.873 145.049H115.922C116.095 144.774 116.29 144.531 116.508 144.321C116.726 144.111 116.969 143.947 117.236 143.828C117.508 143.704 117.802 143.643 118.118 143.643C118.694 143.643 119.124 143.821 119.408 144.179C119.696 144.537 119.839 145.02 119.839 145.629C119.839 145.781 119.827 145.952 119.802 146.141C119.778 146.33 119.743 146.53 119.698 146.739L118.877 150.669H117.02L117.872 146.641C117.904 146.501 117.929 146.369 117.946 146.246C117.962 146.123 117.97 146.009 117.97 145.907C117.97 145.648 117.919 145.456 117.816 145.333C117.717 145.21 117.567 145.148 117.366 145.148C117.152 145.148 116.954 145.216 116.773 145.351C116.592 145.487 116.428 145.676 116.28 145.919C116.132 146.162 116 146.443 115.885 146.764C115.774 147.085 115.681 147.43 115.607 147.801L115.015 150.669H113.158L114.003 146.641C114.036 146.501 114.061 146.369 114.078 146.246C114.094 146.123 114.102 146.009 114.102 145.907C114.102 145.648 114.051 145.456 113.948 145.333C113.849 145.21 113.699 145.148 113.498 145.148C113.288 145.148 113.093 145.218 112.912 145.358C112.731 145.497 112.566 145.691 112.418 145.937C112.27 146.18 112.138 146.462 112.023 146.783C111.912 147.103 111.818 147.447 111.739 147.813L111.135 150.669H109.278Z" fill="black"/>
<path d="M112.152 98.1384C112.152 105.116 106.495 110.773 99.5177 110.773C92.5399 110.773 86.8833 105.116 86.8833 98.1384C86.8833 91.1606 92.5399 85.504 99.5177 85.504C106.495 85.504 112.152 91.1606 112.152 98.1384Z" fill="url(#paint3_linear_1_3165)"/>
<path d="M101.122 102.663H99.2153V97.4436C99.2153 97.2996 99.2173 97.1228 99.2215 96.913C99.2256 96.6992 99.2317 96.4812 99.24 96.2591C99.2482 96.0329 99.2564 95.8293 99.2646 95.6484C99.2194 95.7018 99.1269 95.7944 98.987 95.926C98.8513 96.0535 98.7238 96.1686 98.6045 96.2714L97.5681 97.1043L96.6489 95.9568L99.5546 93.6434H101.122V102.663Z" fill="white"/>
<path d="M198.421 605.314C198.421 659.936 154.14 704.217 99.5175 704.217C44.8947 704.217 0.61416 659.936 0.61416 605.314C0.61416 550.691 44.8947 506.41 99.5175 506.41C154.14 506.41 198.421 550.691 198.421 605.314Z" fill="white" stroke="url(#paint4_linear_1_3165)" stroke-width="0.394824"/>
<path d="M44.2473 504.171C45.1299 503.689 45.9758 503.415 46.7848 503.351C47.6034 503.281 48.3359 503.422 48.9821 503.775C49.6283 504.127 50.1556 504.676 50.564 505.423C50.9671 506.161 51.1453 506.901 51.0984 507.645C51.0462 508.379 50.7699 509.072 50.2695 509.724C49.7787 510.37 49.092 510.934 48.2093 511.417L45.9105 512.674L47.5177 515.613L45.6262 516.647L40.057 506.463L44.2473 504.171ZM47.2469 509.864C48.0714 509.413 48.6015 508.897 48.8374 508.314C49.0732 507.732 49.0134 507.115 48.6581 506.466C48.3027 505.816 47.8161 505.433 47.1984 505.317C46.5807 505.201 45.8596 505.369 45.0351 505.82L42.8236 507.029L45.0354 511.074L47.2469 509.864Z" fill="#616161"/>
<path d="M62.9532 503.577C63.0067 503.71 63.0726 503.904 63.1508 504.159L56.7021 506.745C57.0578 507.305 57.5436 507.67 58.1597 507.84C58.7818 507.995 59.4469 507.931 60.1549 507.647C61.0578 507.285 61.6823 506.689 62.0285 505.859L63.535 506.631C63.3426 507.22 63.0095 507.741 62.5357 508.193C62.0619 508.645 61.471 509.013 60.7631 509.297C59.8601 509.659 58.9929 509.799 58.1614 509.715C57.3299 509.632 56.5968 509.348 55.962 508.864C55.3333 508.366 54.8565 507.712 54.5313 506.901C54.2103 506.101 54.1018 505.311 54.2058 504.53C54.3159 503.736 54.6221 503.029 55.1245 502.411C55.6268 501.793 56.2833 501.321 57.0939 500.996C57.8942 500.675 58.6793 500.568 59.4493 500.676C60.2253 500.77 60.9174 501.07 61.5256 501.577C62.1399 502.069 62.6157 502.735 62.9532 503.577ZM57.7112 502.535C57.0956 502.782 56.6464 503.176 56.3636 503.719C56.087 504.246 56.0239 504.831 56.1743 505.474L60.8377 503.603C60.5169 503.041 60.0721 502.66 59.5033 502.459C58.9345 502.259 58.3371 502.284 57.7112 502.535Z" fill="#616161"/>
<path d="M68.5892 497.03C69.8456 496.679 70.8887 496.715 71.7183 497.138C72.5555 497.547 73.1436 498.358 73.4825 499.572L74.878 504.571L72.9933 505.098L72.7035 504.059C72.5626 504.5 72.2915 504.886 71.8901 505.216C71.4964 505.533 70.9801 505.78 70.3412 505.958C69.7024 506.137 69.1136 506.186 68.575 506.107C68.0334 506.017 67.576 505.818 67.2028 505.509C66.8373 505.186 66.5862 504.78 66.4494 504.29C66.2354 503.524 66.3467 502.832 66.7832 502.217C67.2274 501.588 68.0618 501.103 69.2863 500.761L71.4904 500.146L71.4548 500.018C71.2883 499.421 70.9795 499.014 70.5283 498.796C70.0877 498.574 69.5161 498.562 68.8133 498.758C68.3341 498.892 67.8811 499.099 67.4542 499.378C67.038 499.655 66.7073 499.971 66.4621 500.327L65.2738 499.092C65.6259 498.626 66.0908 498.215 66.6685 497.859C67.2462 497.502 67.8864 497.226 68.5892 497.03ZM70.3508 504.389C70.8512 504.249 71.2619 504.014 71.5828 503.684C71.9114 503.339 72.0961 502.932 72.1369 502.461L71.8605 501.471L69.8001 502.046C68.6501 502.367 68.1807 502.906 68.3917 503.662C68.4928 504.024 68.7168 504.271 69.0637 504.404C69.4106 504.537 69.8397 504.532 70.3508 504.389Z" fill="#616161"/>
<path d="M84.3741 493.782L85.8331 502.516L83.7886 502.857L82.6192 495.857L79.348 496.403L79.5559 498.151C79.6944 499.316 79.7475 500.304 79.7151 501.117C79.6918 501.916 79.5275 502.577 79.2224 503.099C78.9263 503.608 78.4512 503.917 77.7969 504.026C77.4916 504.077 77.1054 504.08 76.6383 504.035L76.4496 502.301C76.6077 502.308 76.7413 502.303 76.8503 502.285C77.2647 502.215 77.5481 502 77.7006 501.638C77.8514 501.265 77.9157 500.846 77.8937 500.379C77.8808 499.899 77.8243 499.224 77.724 498.356L77.3084 494.962L84.3741 493.782Z" fill="#616161"/>
<path d="M88.9543 493.213L91.0245 493.109L91.3172 498.939L95.9102 492.863L97.7983 492.769L98.2423 501.613L96.1721 501.717L95.8794 495.887L91.3029 501.961L89.3983 502.057L88.9543 493.213Z" fill="#616161"/>
<path d="M108.128 497.394C108.67 497.582 109.08 497.862 109.356 498.234C109.643 498.595 109.772 499.018 109.742 499.504C109.709 500.045 109.497 500.513 109.107 500.91C108.718 501.296 108.196 501.585 107.542 501.777C106.887 501.969 106.152 502.04 105.335 501.99C104.651 501.947 103.989 501.829 103.347 501.634C102.706 501.428 102.13 501.16 101.619 500.829L102.31 499.327C102.725 499.596 103.199 499.814 103.732 499.98C104.264 500.146 104.801 500.245 105.342 500.279C106.037 500.322 106.584 500.25 106.983 500.064C107.394 499.868 107.611 499.583 107.634 499.207C107.655 498.865 107.517 498.591 107.22 498.384C106.933 498.178 106.514 498.058 105.963 498.024L104.241 497.918L104.327 496.528L105.883 496.624C106.402 496.656 106.81 496.592 107.108 496.434C107.417 496.275 107.581 496.036 107.601 495.716C107.62 495.396 107.46 495.132 107.118 494.922C106.777 494.713 106.297 494.589 105.679 494.551C104.796 494.496 103.851 494.654 102.842 495.024L102.406 493.468C103.598 492.999 104.785 492.801 105.965 492.874C106.716 492.92 107.382 493.067 107.965 493.313C108.549 493.549 108.994 493.864 109.302 494.26C109.622 494.645 109.767 495.075 109.738 495.549C109.711 495.98 109.555 496.358 109.269 496.683C108.983 496.998 108.603 497.235 108.128 497.394Z" fill="#616161"/>
<path d="M117.289 494.123C118.576 494.333 119.508 494.804 120.083 495.536C120.67 496.259 120.863 497.243 120.66 498.486L119.824 503.609L117.893 503.294L118.067 502.23C117.754 502.571 117.345 502.807 116.842 502.938C116.352 503.06 115.78 503.067 115.125 502.96C114.47 502.853 113.915 502.651 113.46 502.353C113.006 502.043 112.675 501.67 112.466 501.233C112.27 500.786 112.213 500.312 112.295 499.81C112.423 499.025 112.815 498.445 113.47 498.07C114.137 497.686 115.098 497.596 116.353 497.801L118.612 498.169L118.633 498.038C118.733 497.427 118.624 496.928 118.306 496.54C117.999 496.154 117.486 495.902 116.766 495.785C116.275 495.705 115.777 495.702 115.272 495.776C114.778 495.852 114.345 496 113.973 496.22L113.414 494.599C113.929 494.325 114.524 494.148 115.198 494.067C115.872 493.987 116.569 494.005 117.289 494.123ZM115.793 501.54C116.306 501.624 116.778 501.583 117.208 501.418C117.651 501.244 117.99 500.952 118.225 500.542L118.39 499.528L116.279 499.183C115.1 498.991 114.448 499.282 114.322 500.057C114.261 500.428 114.36 500.746 114.619 501.013C114.878 501.279 115.27 501.455 115.793 501.54Z" fill="#616161"/>
<path d="M132.719 505.136L131.698 508.794L129.829 508.272L130.377 506.308L122.886 504.217L125.267 495.688L127.264 496.245L125.355 503.081L129.428 504.218L131.337 497.382L133.333 497.939L131.425 504.775L132.719 505.136Z" fill="#616161"/>
<path d="M138.177 499.544L140.092 500.337L137.859 505.73L144.612 502.209L146.358 502.932L142.97 511.113L141.055 510.32L143.288 504.927L136.55 508.455L134.789 507.725L138.177 499.544Z" fill="#616161"/>
<path d="M156.841 508.461L152.536 516.199L150.913 515.296L152.211 512.963L150.168 511.826L147.29 513.28L145.348 512.2L148.609 510.636C148.157 510.131 147.891 509.598 147.812 509.035C147.748 508.468 147.88 507.89 148.207 507.3C148.702 506.412 149.398 505.901 150.294 505.767C151.191 505.633 152.19 505.873 153.291 506.486L156.841 508.461ZM152.503 508.039C151.334 507.389 150.505 507.503 150.016 508.382C149.532 509.252 149.855 510.001 150.985 510.63L152.912 511.702L154.372 509.08L152.503 508.039Z" fill="#616161"/>
<path d="M46.0425 617.734L47.9488 608.715H50.5768C51.1526 608.715 51.6544 608.783 52.0821 608.919C52.5098 609.05 52.8409 609.264 53.0753 609.56C53.3139 609.852 53.4331 610.239 53.4331 610.72C53.4331 611.127 53.355 611.489 53.1987 611.806C53.0465 612.118 52.8245 612.38 52.5324 612.589C52.2404 612.795 51.8847 612.943 51.4652 613.034V613.083C51.8765 613.19 52.2034 613.389 52.4461 613.681C52.6928 613.969 52.8162 614.339 52.8162 614.792C52.8162 615.474 52.6599 616.034 52.3474 616.47C52.0348 616.902 51.6091 617.22 51.0704 617.426C50.5357 617.632 49.9332 617.734 49.2628 617.734H46.0425ZM48.2572 616.155H49.3677C49.6761 616.155 49.9455 616.104 50.1758 616.001C50.4062 615.898 50.5851 615.746 50.7126 615.544C50.8442 615.343 50.91 615.096 50.91 614.804C50.91 614.487 50.8154 614.243 50.6262 614.07C50.4411 613.893 50.1594 613.805 49.781 613.805H48.7631L48.2572 616.155ZM49.0777 612.287H49.9969C50.2972 612.287 50.5583 612.248 50.7804 612.17C51.0066 612.088 51.1814 611.962 51.3048 611.794C51.4282 611.621 51.4899 611.399 51.4899 611.127C51.4899 610.848 51.4035 610.638 51.2308 610.498C51.058 610.354 50.7948 610.282 50.4411 610.282H49.5034L49.0777 612.287ZM56.746 617.858C56.2278 617.858 55.7692 617.751 55.3702 617.537C54.9754 617.323 54.6649 617.019 54.4387 616.624C54.2166 616.225 54.1056 615.752 54.1056 615.205C54.1056 614.716 54.1529 614.249 54.2475 613.805C54.3462 613.356 54.4922 612.945 54.6855 612.571C54.8829 612.192 55.1276 611.865 55.4196 611.59C55.7157 611.31 56.0591 611.094 56.4498 610.942C56.8406 610.786 57.2806 610.708 57.77 610.708C58.3047 610.708 58.7674 610.817 59.1581 611.035C59.5488 611.249 59.8511 611.559 60.0649 611.966C60.2788 612.373 60.3857 612.865 60.3857 613.441C60.3857 613.91 60.3384 614.362 60.2438 614.798C60.1534 615.23 60.0135 615.633 59.8243 616.007C59.6352 616.377 59.3966 616.702 59.1087 616.982C58.8208 617.257 58.4795 617.473 58.0847 617.629C57.6939 617.782 57.2477 617.858 56.746 617.858ZM56.9002 616.346C57.1058 616.346 57.293 616.295 57.4616 616.192C57.6302 616.085 57.7803 615.939 57.9119 615.754C58.0435 615.565 58.1525 615.349 58.2389 615.106C58.3294 614.86 58.3972 614.594 58.4425 614.311C58.4918 614.027 58.5165 613.737 58.5165 613.441C58.5165 613.206 58.4877 612.999 58.4301 612.818C58.3767 612.633 58.2841 612.489 58.1525 612.386C58.025 612.279 57.8523 612.225 57.6343 612.225C57.4081 612.225 57.2045 612.289 57.0236 612.417C56.8467 612.54 56.6925 612.707 56.5609 612.916C56.4293 613.126 56.3203 613.36 56.2339 613.62C56.1476 613.879 56.0817 614.146 56.0365 614.422C55.9954 614.693 55.9748 614.954 55.9748 615.205C55.9748 615.579 56.0509 615.863 56.2031 616.056C56.3552 616.25 56.5876 616.346 56.9002 616.346ZM64.0625 617.858C63.5855 617.858 63.1516 617.773 62.7609 617.605C62.3743 617.432 62.0658 617.161 61.8355 616.79C61.6093 616.416 61.4962 615.927 61.4962 615.322C61.4962 614.825 61.5476 614.348 61.6504 613.891C61.7532 613.434 61.9054 613.013 62.1069 612.626C62.3084 612.24 62.5573 611.905 62.8534 611.621C63.1495 611.333 63.4888 611.109 63.8713 610.948C64.2538 610.788 64.6794 610.708 65.1483 610.708C65.5596 610.708 65.9277 610.747 66.2526 610.825C66.5816 610.903 66.888 611.012 67.1718 611.152L66.6042 612.565C66.3821 612.47 66.1642 612.388 65.9503 612.318C65.7364 612.248 65.4938 612.213 65.2223 612.213C64.9303 612.213 64.6692 612.297 64.4389 612.466C64.2127 612.635 64.0194 612.861 63.859 613.145C63.7027 613.428 63.5834 613.747 63.5011 614.101C63.4189 614.45 63.3778 614.806 63.3778 615.168C63.3778 615.427 63.4189 615.645 63.5011 615.822C63.5875 615.999 63.7088 616.132 63.8651 616.223C64.0255 616.313 64.2168 616.359 64.4389 616.359C64.7514 616.359 65.0414 616.311 65.3087 616.217C65.576 616.118 65.8516 615.997 66.1354 615.853V617.37C65.8475 617.523 65.537 617.642 65.2038 617.728C64.8707 617.815 64.4903 617.858 64.0625 617.858ZM70.17 617.858C69.6929 617.858 69.259 617.773 68.8683 617.605C68.4817 617.432 68.1732 617.161 67.9429 616.79C67.7167 616.416 67.6036 615.927 67.6036 615.322C67.6036 614.825 67.655 614.348 67.7578 613.891C67.8607 613.434 68.0128 613.013 68.2144 612.626C68.4159 612.24 68.6647 611.905 68.9608 611.621C69.2569 611.333 69.5962 611.109 69.9787 610.948C70.3612 610.788 70.7869 610.708 71.2557 610.708C71.667 610.708 72.0351 610.747 72.36 610.825C72.689 610.903 72.9954 611.012 73.2792 611.152L72.7116 612.565C72.4896 612.47 72.2716 612.388 72.0577 612.318C71.8439 612.248 71.6012 612.213 71.3298 612.213C71.0378 612.213 70.7766 612.297 70.5463 612.466C70.3201 612.635 70.1268 612.861 69.9664 613.145C69.8101 613.428 69.6908 613.747 69.6086 614.101C69.5263 614.45 69.4852 614.806 69.4852 615.168C69.4852 615.427 69.5263 615.645 69.6086 615.822C69.6949 615.999 69.8163 616.132 69.9726 616.223C70.133 616.313 70.3242 616.359 70.5463 616.359C70.8589 616.359 71.1488 616.311 71.4161 616.217C71.6835 616.118 71.959 615.997 72.2428 615.853V617.37C71.9549 617.523 71.6444 617.642 71.3113 617.728C70.9781 617.815 70.5977 617.858 70.17 617.858ZM73.3841 617.734L74.8462 610.837H76.2651L76.1355 612.114H76.191C76.3679 611.839 76.5632 611.596 76.7771 611.386C76.991 611.177 77.2274 611.012 77.4865 610.893C77.7498 610.769 78.0418 610.708 78.3626 610.708C78.8355 610.708 79.2016 610.833 79.4607 611.084C79.7239 611.331 79.8966 611.674 79.9789 612.114H80.0282C80.201 611.839 80.3963 611.596 80.6143 611.386C80.8323 611.177 81.0749 611.012 81.3423 610.893C81.6137 610.769 81.9078 610.708 82.2244 610.708C82.8002 610.708 83.23 610.887 83.5138 611.244C83.8017 611.602 83.9456 612.086 83.9456 612.694C83.9456 612.846 83.9333 613.017 83.9086 613.206C83.8839 613.395 83.849 613.595 83.8037 613.805L82.9832 617.734H81.1263L81.9777 613.706C82.0106 613.566 82.0352 613.434 82.0517 613.311C82.0682 613.188 82.0764 613.075 82.0764 612.972C82.0764 612.713 82.025 612.521 81.9221 612.398C81.8234 612.275 81.6733 612.213 81.4718 612.213C81.2579 612.213 81.0605 612.281 80.8796 612.417C80.6986 612.552 80.5341 612.741 80.386 612.984C80.238 613.227 80.1064 613.509 79.9912 613.829C79.8802 614.15 79.7876 614.496 79.7136 614.866L79.1214 617.734H77.2645L78.1096 613.706C78.1425 613.566 78.1672 613.434 78.1837 613.311C78.2001 613.188 78.2083 613.075 78.2083 612.972C78.2083 612.713 78.1569 612.521 78.0541 612.398C77.9554 612.275 77.8053 612.213 77.6038 612.213C77.394 612.213 77.1987 612.283 77.0177 612.423C76.8367 612.563 76.6722 612.756 76.5242 613.003C76.3761 613.245 76.2445 613.527 76.1293 613.848C76.0183 614.169 75.9237 614.512 75.8456 614.878L75.241 617.734H73.3841ZM87.098 617.858C86.7649 617.858 86.4503 617.776 86.1542 617.611C85.8581 617.446 85.6154 617.181 85.4262 616.815C85.2411 616.449 85.1486 615.964 85.1486 615.359C85.1486 614.907 85.1959 614.459 85.2905 614.014C85.3892 613.57 85.529 613.151 85.71 612.756C85.8951 612.357 86.1172 612.005 86.3763 611.701C86.6395 611.393 86.9356 611.15 87.2646 610.973C87.5977 610.796 87.9576 610.708 88.3442 610.708C88.6362 610.708 88.8912 610.751 89.1092 610.837C89.3272 610.92 89.5143 611.037 89.6706 611.189C89.8269 611.341 89.9543 611.518 90.0531 611.719H90.1024L90.454 610.837H91.8853L90.417 617.734H89.029L89.1153 616.84H89.066C88.9015 617.041 88.7226 617.218 88.5293 617.37C88.336 617.523 88.1221 617.642 87.8877 617.728C87.6533 617.815 87.39 617.858 87.098 617.858ZM87.826 616.359C88.081 616.359 88.3175 616.26 88.5354 616.063C88.7534 615.861 88.9406 615.6 89.0968 615.279C89.2531 614.958 89.3642 614.619 89.43 614.261C89.4629 614.097 89.4855 613.932 89.4978 613.768C89.5143 613.599 89.5225 613.418 89.5225 613.225C89.5225 612.933 89.4444 612.692 89.2881 612.503C89.1359 612.31 88.9262 612.213 88.6588 612.213C88.4779 612.213 88.3051 612.273 88.1406 612.392C87.9802 612.507 87.8322 612.667 87.6964 612.873C87.5607 613.075 87.4415 613.307 87.3386 613.57C87.2399 613.829 87.1638 614.105 87.1104 614.397C87.0569 614.689 87.0302 614.981 87.0302 615.273C87.0302 615.631 87.1001 615.902 87.2399 616.087C87.3798 616.268 87.5751 616.359 87.826 616.359ZM92.3356 617.734L93.8101 610.837H95.6855L95.1117 613.49H97.2648L97.82 610.837H99.6769L98.2086 617.734H96.3517L96.944 614.89H94.8094L94.2049 617.734H92.3356ZM103.088 617.858C102.57 617.858 102.112 617.751 101.713 617.537C101.318 617.323 101.007 617.019 100.781 616.624C100.559 616.225 100.448 615.752 100.448 615.205C100.448 614.716 100.495 614.249 100.59 613.805C100.689 613.356 100.835 612.945 101.028 612.571C101.225 612.192 101.47 611.865 101.762 611.59C102.058 611.31 102.402 611.094 102.792 610.942C103.183 610.786 103.623 610.708 104.112 610.708C104.647 610.708 105.11 610.817 105.501 611.035C105.891 611.249 106.194 611.559 106.407 611.966C106.621 612.373 106.728 612.865 106.728 613.441C106.728 613.91 106.681 614.362 106.586 614.798C106.496 615.23 106.356 615.633 106.167 616.007C105.978 616.377 105.739 616.702 105.451 616.982C105.163 617.257 104.822 617.473 104.427 617.629C104.036 617.782 103.59 617.858 103.088 617.858ZM103.243 616.346C103.448 616.346 103.635 616.295 103.804 616.192C103.973 616.085 104.123 615.939 104.254 615.754C104.386 615.565 104.495 615.349 104.581 615.106C104.672 614.86 104.74 614.594 104.785 614.311C104.834 614.027 104.859 613.737 104.859 613.441C104.859 613.206 104.83 612.999 104.773 612.818C104.719 612.633 104.627 612.489 104.495 612.386C104.367 612.279 104.195 612.225 103.977 612.225C103.751 612.225 103.547 612.289 103.366 612.417C103.189 612.54 103.035 612.707 102.903 612.916C102.772 613.126 102.663 613.36 102.576 613.62C102.49 613.879 102.424 614.146 102.379 614.422C102.338 614.693 102.317 614.954 102.317 615.205C102.317 615.579 102.393 615.863 102.546 616.056C102.698 616.25 102.93 616.346 103.243 616.346ZM110.781 617.858C110.156 617.858 109.624 617.749 109.184 617.531C108.743 617.313 108.408 616.996 108.178 616.581C107.952 616.165 107.839 615.662 107.839 615.069C107.839 614.609 107.89 614.165 107.993 613.737C108.1 613.305 108.256 612.906 108.462 612.54C108.667 612.174 108.924 611.855 109.233 611.584C109.541 611.308 109.899 611.094 110.306 610.942C110.713 610.786 111.168 610.708 111.67 610.708C112.163 610.708 112.595 610.782 112.965 610.93C113.339 611.074 113.631 611.284 113.841 611.559C114.051 611.835 114.156 612.17 114.156 612.565C114.156 612.91 114.09 613.194 113.958 613.416C113.831 613.634 113.654 613.807 113.428 613.934C113.206 614.058 112.951 614.154 112.663 614.224V614.273C112.963 614.352 113.222 614.5 113.44 614.718C113.658 614.936 113.767 615.246 113.767 615.649C113.767 616.036 113.66 616.398 113.446 616.735C113.237 617.068 112.912 617.34 112.472 617.549C112.032 617.755 111.468 617.858 110.781 617.858ZM110.806 616.562C111.04 616.562 111.238 616.521 111.398 616.439C111.563 616.357 111.686 616.246 111.768 616.106C111.855 615.962 111.898 615.797 111.898 615.612C111.898 615.431 111.855 615.281 111.768 615.162C111.682 615.043 111.544 614.954 111.355 614.897C111.166 614.835 110.917 614.804 110.609 614.804H109.708C109.704 614.866 109.7 614.932 109.696 615.001C109.696 615.067 109.696 615.131 109.696 615.193C109.696 615.686 109.802 616.038 110.016 616.248C110.23 616.457 110.493 616.562 110.806 616.562ZM109.961 613.527H111.201C111.439 613.527 111.641 613.496 111.805 613.434C111.974 613.369 112.102 613.272 112.188 613.145C112.278 613.017 112.324 612.859 112.324 612.67C112.324 612.472 112.256 612.32 112.12 612.213C111.984 612.102 111.807 612.046 111.589 612.046C111.351 612.046 111.127 612.108 110.917 612.232C110.711 612.355 110.526 612.528 110.362 612.75C110.201 612.972 110.068 613.231 109.961 613.527ZM115.081 617.858C114.892 617.858 114.727 617.845 114.588 617.821C114.448 617.8 114.306 617.763 114.162 617.71V616.18C114.248 616.217 114.333 616.244 114.415 616.26C114.497 616.272 114.586 616.278 114.68 616.278C114.841 616.278 114.98 616.221 115.1 616.106C115.219 615.991 115.326 615.834 115.42 615.637C115.519 615.435 115.614 615.205 115.704 614.946C115.795 614.687 115.891 614.411 115.994 614.119C116.2 613.539 116.401 613.036 116.599 612.608C116.8 612.176 117.037 611.82 117.308 611.541C117.58 611.261 117.919 611.053 118.326 610.917C118.737 610.778 119.256 610.708 119.881 610.708C120.308 610.708 120.712 610.745 121.09 610.819C121.468 610.893 121.777 610.975 122.015 611.066L120.615 617.734H118.758L119.918 612.275C119.856 612.262 119.792 612.252 119.727 612.244C119.665 612.232 119.599 612.225 119.529 612.225C119.192 612.225 118.92 612.322 118.715 612.515C118.513 612.709 118.334 612.996 118.178 613.379C118.022 613.757 117.849 614.228 117.66 614.792C117.52 615.215 117.378 615.612 117.234 615.982C117.094 616.352 116.932 616.679 116.747 616.963C116.566 617.243 116.342 617.463 116.074 617.623C115.807 617.78 115.476 617.858 115.081 617.858ZM125.581 617.858C125.042 617.858 124.567 617.761 124.156 617.568C123.749 617.37 123.43 617.074 123.2 616.679C122.969 616.285 122.854 615.789 122.854 615.193C122.854 614.617 122.937 614.062 123.101 613.527C123.266 612.988 123.51 612.507 123.835 612.083C124.164 611.66 124.567 611.325 125.044 611.078C125.526 610.831 126.081 610.708 126.71 610.708C127.483 610.708 128.061 610.885 128.444 611.238C128.83 611.588 129.023 612.038 129.023 612.589C129.023 612.951 128.941 613.28 128.777 613.576C128.616 613.873 128.372 614.127 128.043 614.341C127.713 614.551 127.3 614.714 126.803 614.829C126.305 614.94 125.721 614.995 125.05 614.995H124.736C124.732 615.045 124.728 615.088 124.724 615.125C124.724 615.162 124.724 615.203 124.724 615.248C124.724 615.618 124.83 615.912 125.044 616.13C125.258 616.348 125.56 616.457 125.951 616.457C126.313 616.457 126.642 616.416 126.938 616.334C127.234 616.252 127.584 616.116 127.987 615.927V617.327C127.625 617.504 127.257 617.638 126.883 617.728C126.508 617.815 126.075 617.858 125.581 617.858ZM124.939 613.743H125.217C125.694 613.743 126.081 613.692 126.377 613.589C126.677 613.486 126.895 613.35 127.031 613.182C127.171 613.013 127.241 612.83 127.241 612.633C127.241 612.435 127.183 612.289 127.068 612.195C126.957 612.096 126.798 612.046 126.593 612.046C126.362 612.046 126.134 612.118 125.908 612.262C125.682 612.406 125.482 612.606 125.31 612.861C125.137 613.116 125.013 613.41 124.939 613.743ZM129.572 617.734L131.047 610.837H132.922L132.349 613.49H134.502L135.057 610.837H136.914L135.445 617.734H133.589L134.181 614.89H132.046L131.442 617.734H129.572ZM139.566 617.858C139.172 617.858 138.845 617.778 138.586 617.617C138.326 617.457 138.133 617.229 138.006 616.932C137.878 616.632 137.814 616.281 137.814 615.877C137.814 615.725 137.827 615.53 137.851 615.291C137.876 615.053 137.913 614.81 137.962 614.563L138.746 610.837H140.603L139.758 614.866C139.729 615.006 139.704 615.137 139.684 615.261C139.667 615.384 139.659 615.497 139.659 615.6C139.659 615.859 139.714 616.05 139.826 616.174C139.937 616.297 140.103 616.359 140.325 616.359C140.609 616.359 140.862 616.239 141.084 616.001C141.31 615.758 141.508 615.435 141.676 615.032C141.845 614.625 141.981 614.179 142.083 613.694L142.688 610.837H144.545L143.083 617.734H141.664L141.793 616.457H141.726C141.549 616.729 141.353 616.971 141.14 617.185C140.93 617.395 140.695 617.56 140.436 617.679C140.177 617.798 139.887 617.858 139.566 617.858ZM148.049 617.858C147.51 617.858 147.035 617.761 146.624 617.568C146.217 617.37 145.898 617.074 145.668 616.679C145.437 616.285 145.322 615.789 145.322 615.193C145.322 614.617 145.404 614.062 145.569 613.527C145.733 612.988 145.978 612.507 146.303 612.083C146.632 611.66 147.035 611.325 147.512 611.078C147.993 610.831 148.549 610.708 149.178 610.708C149.951 610.708 150.529 610.885 150.911 611.238C151.298 611.588 151.491 612.038 151.491 612.589C151.491 612.951 151.409 613.28 151.245 613.576C151.084 613.873 150.839 614.127 150.51 614.341C150.181 614.551 149.768 614.714 149.27 614.829C148.773 614.94 148.189 614.995 147.518 614.995H147.204C147.2 615.045 147.196 615.088 147.191 615.125C147.191 615.162 147.191 615.203 147.191 615.248C147.191 615.618 147.298 615.912 147.512 616.13C147.726 616.348 148.028 616.457 148.419 616.457C148.781 616.457 149.11 616.416 149.406 616.334C149.702 616.252 150.052 616.116 150.455 615.927V617.327C150.093 617.504 149.725 617.638 149.351 617.728C148.976 617.815 148.543 617.858 148.049 617.858ZM147.407 613.743H147.685C148.162 613.743 148.549 613.692 148.845 613.589C149.145 613.486 149.363 613.35 149.499 613.182C149.639 613.013 149.708 612.83 149.708 612.633C149.708 612.435 149.651 612.289 149.536 612.195C149.425 612.096 149.266 612.046 149.061 612.046C148.83 612.046 148.602 612.118 148.376 612.262C148.15 612.406 147.95 612.606 147.778 612.861C147.605 613.116 147.481 613.41 147.407 613.743ZM51.5084 635.858C51.1135 635.858 50.7866 635.778 50.5275 635.617C50.2684 635.457 50.0751 635.229 49.9476 634.932C49.8201 634.632 49.7563 634.281 49.7563 633.877C49.7563 633.725 49.7687 633.53 49.7934 633.291C49.818 633.053 49.855 632.81 49.9044 632.563L50.6879 628.837H52.5448L51.6996 632.866C51.6708 633.006 51.6461 633.137 51.6256 633.261C51.6091 633.384 51.6009 633.497 51.6009 633.6C51.6009 633.859 51.6564 634.05 51.7675 634.174C51.8785 634.297 52.0451 634.359 52.2672 634.359C52.551 634.359 52.8039 634.239 53.026 634.001C53.2522 633.758 53.4496 633.435 53.6182 633.032C53.7868 632.625 53.9226 632.179 54.0254 631.694L54.6299 628.837H56.4869L55.0248 635.734H53.6059L53.7354 634.457H53.6676C53.4907 634.729 53.2954 634.971 53.0815 635.185C52.8717 635.395 52.6373 635.56 52.3782 635.679C52.1191 635.798 51.8292 635.858 51.5084 635.858ZM63.1865 635.858C62.6683 635.858 62.2097 635.751 61.8108 635.537C61.416 635.323 61.1055 635.019 60.8793 634.624C60.6572 634.225 60.5461 633.752 60.5461 633.205C60.5461 632.716 60.5934 632.249 60.688 631.805C60.7867 631.356 60.9327 630.945 61.126 630.571C61.3234 630.192 61.5682 629.865 61.8602 629.59C62.1563 629.31 62.4997 629.094 62.8904 628.942C63.2811 628.786 63.7212 628.708 64.2106 628.708C64.7453 628.708 65.2079 628.817 65.5986 629.035C65.9894 629.249 66.2916 629.559 66.5055 629.966C66.7194 630.373 66.8263 630.865 66.8263 631.441C66.8263 631.91 66.779 632.362 66.6844 632.798C66.5939 633.23 66.4541 633.633 66.2649 634.007C66.0757 634.377 65.8372 634.702 65.5493 634.982C65.2614 635.257 64.92 635.473 64.5252 635.629C64.1345 635.782 63.6883 635.858 63.1865 635.858ZM63.3407 634.346C63.5464 634.346 63.7335 634.295 63.9021 634.192C64.0708 634.085 64.2209 633.939 64.3525 633.754C64.4841 633.565 64.5931 633.349 64.6794 633.106C64.7699 632.86 64.8378 632.594 64.883 632.311C64.9324 632.027 64.9571 631.737 64.9571 631.441C64.9571 631.206 64.9283 630.999 64.8707 630.818C64.8172 630.633 64.7247 630.489 64.5931 630.386C64.4656 630.279 64.2929 630.225 64.0749 630.225C63.8487 630.225 63.6451 630.289 63.4641 630.417C63.2873 630.54 63.1331 630.707 63.0014 630.916C62.8698 631.126 62.7609 631.36 62.6745 631.62C62.5881 631.879 62.5223 632.146 62.4771 632.422C62.4359 632.693 62.4154 632.954 62.4154 633.205C62.4154 633.579 62.4915 633.863 62.6436 634.056C62.7958 634.25 63.0282 634.346 63.3407 634.346ZM67.6098 635.734L69.0719 628.837H70.4908L70.3612 630.114H70.4167C70.5936 629.839 70.7889 629.596 71.0028 629.386C71.2167 629.177 71.4531 629.012 71.7122 628.893C71.9755 628.769 72.2675 628.708 72.5883 628.708C72.9831 628.708 73.3121 628.79 73.5753 628.955C73.8427 629.115 74.0421 629.343 74.1737 629.639C74.3053 629.935 74.3711 630.287 74.3711 630.694C74.3711 630.846 74.3588 631.017 74.3341 631.206C74.3095 631.395 74.2745 631.595 74.2293 631.805L73.4088 635.734H71.5519L72.397 631.706C72.4299 631.566 72.4546 631.434 72.4711 631.311C72.4875 631.188 72.4957 631.075 72.4957 630.972C72.4957 630.713 72.4402 630.521 72.3292 630.398C72.2181 630.275 72.0516 630.213 71.8295 630.213C71.5498 630.213 71.2969 630.334 71.0707 630.577C70.8445 630.816 70.647 631.136 70.4784 631.539C70.3139 631.942 70.1782 632.389 70.0713 632.878L69.4667 635.734H67.6098ZM75.2472 635.734L76.7092 628.837H78.1281L77.9986 630.114H78.0541C78.231 629.839 78.4263 629.596 78.6402 629.386C78.854 629.177 79.0905 629.012 79.3496 628.893C79.6128 628.769 79.9048 628.708 80.2256 628.708C80.6986 628.708 81.0646 628.833 81.3237 629.084C81.587 629.331 81.7597 629.674 81.8419 630.114H81.8913C82.064 629.839 82.2594 629.596 82.4774 629.386C82.6953 629.177 82.938 629.012 83.2053 628.893C83.4768 628.769 83.7708 628.708 84.0875 628.708C84.6633 628.708 85.0931 628.887 85.3769 629.244C85.6647 629.602 85.8087 630.086 85.8087 630.694C85.8087 630.846 85.7964 631.017 85.7717 631.206C85.747 631.395 85.712 631.595 85.6668 631.805L84.8463 635.734H82.9894L83.8407 631.706C83.8736 631.566 83.8983 631.434 83.9148 631.311C83.9312 631.188 83.9395 631.075 83.9395 630.972C83.9395 630.713 83.888 630.521 83.7852 630.398C83.6865 630.275 83.5364 630.213 83.3349 630.213C83.121 630.213 82.9236 630.281 82.7426 630.417C82.5617 630.552 82.3972 630.741 82.2491 630.984C82.1011 631.227 81.9694 631.509 81.8543 631.829C81.7432 632.15 81.6507 632.496 81.5767 632.866L80.9844 635.734H79.1275L79.9727 631.706C80.0056 631.566 80.0303 631.434 80.0467 631.311C80.0632 631.188 80.0714 631.075 80.0714 630.972C80.0714 630.713 80.02 630.521 79.9172 630.398C79.8185 630.275 79.6684 630.213 79.4668 630.213C79.2571 630.213 79.0617 630.283 78.8808 630.423C78.6998 630.563 78.5353 630.756 78.3872 631.003C78.2392 631.245 78.1076 631.527 77.9924 631.848C77.8814 632.169 77.7868 632.512 77.7086 632.878L77.1041 635.734H75.2472ZM88.8933 635.858C88.4984 635.858 88.1715 635.778 87.9124 635.617C87.6533 635.457 87.46 635.229 87.3325 634.932C87.205 634.632 87.1412 634.281 87.1412 633.877C87.1412 633.725 87.1536 633.53 87.1782 633.291C87.2029 633.053 87.2399 632.81 87.2893 632.563L88.0728 628.837H89.9297L89.0845 632.866C89.0557 633.006 89.031 633.137 89.0105 633.261C88.994 633.384 88.9858 633.497 88.9858 633.6C88.9858 633.859 89.0413 634.05 89.1524 634.174C89.2634 634.297 89.43 634.359 89.6521 634.359C89.9358 634.359 90.1888 634.239 90.4109 634.001C90.6371 633.758 90.8345 633.435 91.0031 633.032C91.1717 632.625 91.3074 632.179 91.4103 631.694L92.0148 628.837H93.8717L92.4097 635.734H90.9908L91.1203 634.457H91.0525C90.8756 634.729 90.6802 634.971 90.4664 635.185C90.2566 635.395 90.0222 635.56 89.7631 635.679C89.504 635.798 89.2141 635.858 88.8933 635.858ZM94.3714 635.734L95.8273 628.837H98.3875L98.6528 633.649H98.6898L101.17 628.837H103.81L102.33 635.734H100.615L101.373 632.323C101.443 632.002 101.515 631.694 101.589 631.397C101.667 631.101 101.733 630.859 101.787 630.67H101.75L99.134 635.734H97.3511L97.0735 630.67H97.0488C97.0077 631.007 96.9604 631.313 96.9069 631.589C96.8576 631.86 96.8041 632.13 96.7465 632.397L96.0803 635.734H94.3714ZM106.29 635.858C105.895 635.858 105.568 635.778 105.309 635.617C105.05 635.457 104.857 635.229 104.729 634.932C104.602 634.632 104.538 634.281 104.538 633.877C104.538 633.725 104.55 633.53 104.575 633.291C104.6 633.053 104.637 632.81 104.686 632.563L105.47 628.837H107.327L106.481 632.866C106.453 633.006 106.428 633.137 106.407 633.261C106.391 633.384 106.383 633.497 106.383 633.6C106.383 633.859 106.438 634.05 106.549 634.174C106.66 634.297 106.827 634.359 107.049 634.359C107.333 634.359 107.586 634.239 107.808 634.001C108.034 633.758 108.231 633.435 108.4 633.032C108.569 632.625 108.704 632.179 108.807 631.694L109.412 628.837H111.269L109.807 635.734H108.388L108.517 634.457H108.449C108.273 634.729 108.077 634.971 107.863 635.185C107.654 635.395 107.419 635.56 107.16 635.679C106.901 635.798 106.611 635.858 106.29 635.858ZM113.94 635.858C113.475 635.858 113.039 635.813 112.632 635.722C112.225 635.632 111.896 635.523 111.645 635.395V633.865C111.925 634.005 112.254 634.13 112.632 634.241C113.015 634.352 113.43 634.408 113.878 634.408C114.17 634.408 114.435 634.381 114.674 634.328C114.917 634.274 115.11 634.184 115.254 634.056C115.398 633.925 115.47 633.744 115.47 633.513C115.47 633.279 115.379 633.1 115.198 632.977C115.017 632.853 114.746 632.792 114.384 632.792H113.298L113.576 631.49H114.347C114.697 631.49 114.989 631.467 115.223 631.422C115.457 631.373 115.632 631.293 115.747 631.182C115.867 631.066 115.926 630.908 115.926 630.707C115.926 630.513 115.856 630.365 115.717 630.262C115.577 630.155 115.33 630.102 114.976 630.102C114.701 630.102 114.39 630.147 114.045 630.238C113.703 630.328 113.366 630.445 113.033 630.589L112.589 629.238C112.992 629.082 113.418 628.955 113.866 628.856C114.314 628.757 114.793 628.708 115.303 628.708C115.776 628.708 116.2 628.765 116.574 628.88C116.948 628.996 117.242 629.179 117.456 629.43C117.674 629.676 117.783 630.005 117.783 630.417C117.783 630.75 117.711 631.027 117.567 631.249C117.428 631.472 117.236 631.652 116.994 631.792C116.755 631.928 116.484 632.037 116.179 632.119V632.169C116.521 632.263 116.8 632.422 117.018 632.644C117.24 632.866 117.351 633.172 117.351 633.563C117.351 634.019 117.23 634.42 116.987 634.766C116.745 635.111 116.373 635.381 115.871 635.574C115.369 635.763 114.725 635.858 113.94 635.858ZM120.621 635.858C120.288 635.858 119.973 635.776 119.677 635.611C119.381 635.446 119.138 635.181 118.949 634.815C118.764 634.449 118.672 633.964 118.672 633.359C118.672 632.907 118.719 632.459 118.814 632.014C118.912 631.57 119.052 631.151 119.233 630.756C119.418 630.357 119.64 630.005 119.899 629.701C120.162 629.393 120.459 629.15 120.788 628.973C121.121 628.796 121.481 628.708 121.867 628.708C122.159 628.708 122.414 628.751 122.632 628.837C122.85 628.92 123.037 629.037 123.194 629.189C123.35 629.341 123.477 629.518 123.576 629.719H123.625L123.977 628.837H125.408L123.94 635.734H122.552L122.638 634.84H122.589C122.424 635.041 122.246 635.218 122.052 635.37C121.859 635.523 121.645 635.642 121.411 635.728C121.176 635.815 120.913 635.858 120.621 635.858ZM121.349 634.359C121.604 634.359 121.84 634.26 122.058 634.063C122.276 633.861 122.464 633.6 122.62 633.279C122.776 632.958 122.887 632.619 122.953 632.261C122.986 632.097 123.009 631.932 123.021 631.768C123.037 631.599 123.046 631.418 123.046 631.225C123.046 630.933 122.967 630.692 122.811 630.503C122.659 630.31 122.449 630.213 122.182 630.213C122.001 630.213 121.828 630.273 121.664 630.392C121.503 630.507 121.355 630.667 121.219 630.873C121.084 631.075 120.964 631.307 120.862 631.57C120.763 631.829 120.687 632.105 120.633 632.397C120.58 632.689 120.553 632.981 120.553 633.273C120.553 633.631 120.623 633.902 120.763 634.087C120.903 634.268 121.098 634.359 121.349 634.359ZM130.381 638.208L130.973 635.734C130.821 635.66 130.695 635.568 130.597 635.457C130.498 635.346 130.42 635.22 130.362 635.08C130.305 634.937 130.255 634.784 130.214 634.624H130.165C129.992 634.867 129.801 635.083 129.591 635.272C129.381 635.457 129.149 635.601 128.894 635.704C128.643 635.806 128.367 635.858 128.067 635.858C127.672 635.858 127.343 635.778 127.08 635.617C126.817 635.457 126.617 635.229 126.482 634.932C126.35 634.632 126.284 634.281 126.284 633.877C126.284 633.725 126.301 633.53 126.334 633.291C126.371 633.053 126.414 632.81 126.463 632.563L127.247 628.837H129.104L128.258 632.866C128.23 633.006 128.205 633.137 128.184 633.261C128.168 633.384 128.16 633.497 128.16 633.6C128.16 633.859 128.215 634.05 128.326 634.174C128.437 634.297 128.604 634.359 128.826 634.359C129.11 634.359 129.363 634.239 129.585 634.001C129.811 633.758 130.008 633.435 130.177 633.032C130.346 632.625 130.481 632.179 130.584 631.694L131.189 628.837H133.046L132.046 633.551C132.034 633.612 132.024 633.67 132.015 633.723C132.011 633.777 132.009 633.828 132.009 633.877C132.009 634.017 132.044 634.12 132.114 634.186C132.184 634.248 132.277 634.278 132.392 634.278C132.49 634.278 132.585 634.27 132.676 634.254C132.766 634.237 132.856 634.217 132.947 634.192L132.102 638.208H130.381ZM135.902 635.858C135.507 635.858 135.18 635.778 134.921 635.617C134.662 635.457 134.469 635.229 134.341 634.932C134.214 634.632 134.15 634.281 134.15 633.877C134.15 633.725 134.162 633.53 134.187 633.291C134.212 633.053 134.249 632.81 134.298 632.563L135.081 628.837H136.938L136.093 632.866C136.064 633.006 136.04 633.137 136.019 633.261C136.003 633.384 135.995 633.497 135.995 633.6C135.995 633.859 136.05 634.05 136.161 634.174C136.272 634.297 136.439 634.359 136.661 634.359C136.945 634.359 137.197 634.239 137.42 634.001C137.646 633.758 137.843 633.435 138.012 633.032C138.18 632.625 138.316 632.179 138.419 631.694L139.024 628.837H140.88L139.418 635.734H137.999L138.129 634.457H138.061C137.884 634.729 137.689 634.971 137.475 635.185C137.265 635.395 137.031 635.56 136.772 635.679C136.513 635.798 136.223 635.858 135.902 635.858ZM141.911 635.858C141.734 635.858 141.565 635.845 141.405 635.821C141.244 635.796 141.103 635.759 140.979 635.71V634.18C141.041 634.204 141.113 634.227 141.195 634.248C141.277 634.268 141.364 634.278 141.454 634.278C141.569 634.278 141.67 634.258 141.756 634.217C141.843 634.172 141.919 634.112 141.985 634.038C142.051 633.964 142.11 633.882 142.164 633.791C142.308 633.553 142.437 633.357 142.552 633.205C142.667 633.053 142.787 632.932 142.91 632.841C143.033 632.746 143.175 632.674 143.336 632.625C143.151 632.547 142.984 632.446 142.836 632.323C142.692 632.199 142.577 632.043 142.491 631.854C142.408 631.665 142.367 631.439 142.367 631.175C142.367 630.764 142.445 630.41 142.602 630.114C142.758 629.818 142.972 629.578 143.243 629.393C143.519 629.203 143.835 629.063 144.193 628.973C144.555 628.883 144.94 628.837 145.347 628.837H148.228L146.778 635.734H144.915L145.476 633.168H145.094C144.827 633.168 144.617 633.254 144.465 633.427C144.313 633.596 144.175 633.814 144.051 634.081C143.932 634.344 143.784 634.618 143.607 634.902C143.492 635.078 143.358 635.239 143.206 635.383C143.054 635.527 142.873 635.642 142.663 635.728C142.454 635.815 142.203 635.858 141.911 635.858ZM145.168 631.903H145.742L146.106 630.164H145.322C145.121 630.164 144.94 630.203 144.779 630.281C144.619 630.355 144.491 630.466 144.397 630.614C144.306 630.758 144.261 630.937 144.261 631.151C144.261 631.377 144.333 631.56 144.477 631.7C144.625 631.835 144.855 631.903 145.168 631.903Z" fill="black"/>
<circle cx="98.7638" cy="583.458" r="12.6344" fill="url(#paint5_linear_1_3165)"/>
<path d="M101.608 580.98C101.608 581.395 101.521 581.755 101.349 582.06C101.176 582.364 100.941 582.613 100.645 582.806C100.353 582.999 100.024 583.141 99.6582 583.232V583.269C100.382 583.359 100.931 583.581 101.305 583.935C101.684 584.289 101.873 584.762 101.873 585.354C101.873 585.88 101.743 586.351 101.484 586.767C101.229 587.182 100.834 587.509 100.3 587.748C99.7651 587.986 99.0762 588.105 98.2331 588.105C97.7355 588.105 97.2707 588.064 96.8389 587.982C96.4112 587.904 96.0081 587.782 95.6297 587.618V585.995C96.0163 586.193 96.4215 586.343 96.8451 586.446C97.2687 586.545 97.6635 586.594 98.0295 586.594C98.7123 586.594 99.1893 586.477 99.4608 586.242C99.7363 586.004 99.8741 585.671 99.8741 585.243C99.8741 584.992 99.8104 584.78 99.6829 584.607C99.5554 584.435 99.3333 584.303 99.0166 584.213C98.704 584.122 98.266 584.077 97.7026 584.077H97.0178V582.615H97.7149C98.2701 582.615 98.6917 582.563 98.9796 582.461C99.2716 582.354 99.469 582.21 99.5718 582.029C99.6787 581.844 99.7322 581.634 99.7322 581.399C99.7322 581.079 99.6335 580.828 99.4361 580.647C99.2387 580.466 98.9097 580.375 98.449 580.375C98.1611 580.375 97.8979 580.412 97.6594 580.486C97.425 580.556 97.2132 580.643 97.024 580.746C96.8348 580.844 96.6682 580.941 96.5243 581.036L95.6421 579.721C95.9958 579.466 96.4091 579.255 96.8821 579.086C97.3592 578.917 97.9267 578.833 98.5848 578.833C99.5142 578.833 100.25 579.02 100.793 579.395C101.336 579.769 101.608 580.297 101.608 580.98Z" fill="white"/>
<defs>
<linearGradient id="paint0_linear_1_3165" x1="79.8148" y1="363.049" x2="278.039" y2="360.801" gradientUnits="userSpaceOnUse">
<stop stop-color="#D14B5F"/>
<stop offset="1" stop-color="#EF8E18"/>
</linearGradient>
<linearGradient id="paint1_linear_1_3165" x1="177.388" y1="329.82" x2="177.388" y2="370.848" gradientUnits="userSpaceOnUse">
<stop stop-color="#E64B13"/>
<stop offset="1" stop-color="#FAFF00"/>
</linearGradient>
<linearGradient id="paint2_linear_1_3165" x1="0.84992" y1="120.534" x2="199.074" y2="118.286" gradientUnits="userSpaceOnUse">
<stop stop-color="#D14B5F"/>
<stop offset="1" stop-color="#EF8E18"/>
</linearGradient>
<linearGradient id="paint3_linear_1_3165" x1="98.4235" y1="87.0513" x2="98.4235" y2="128.079" gradientUnits="userSpaceOnUse">
<stop stop-color="#E64B13"/>
<stop offset="1" stop-color="#FAFF00"/>
</linearGradient>
<linearGradient id="paint4_linear_1_3165" x1="0.84992" y1="605.599" x2="199.074" y2="603.351" gradientUnits="userSpaceOnUse">
<stop stop-color="#D14B5F"/>
<stop offset="1" stop-color="#EF8E18"/>
</linearGradient>
<linearGradient id="paint5_linear_1_3165" x1="97.6696" y1="572.37" x2="97.6696" y2="613.398" gradientUnits="userSpaceOnUse">
<stop stop-color="#E64B13"/>
<stop offset="1" stop-color="#FAFF00"/>
</linearGradient>
</defs>
</svg>
