<svg width="1170" height="278" viewBox="0 0 1170 278" fill="none" xmlns="http://www.w3.org/2000/svg">
<path d="M447.456 144.752C447.996 144.639 448.342 144.109 448.229 143.568L446.379 134.76C446.265 134.22 445.735 133.874 445.195 133.987C444.654 134.101 444.308 134.631 444.422 135.171L446.066 143.001L438.237 144.645C437.696 144.758 437.35 145.289 437.464 145.829C437.577 146.369 438.107 146.716 438.648 146.602L447.456 144.752ZM251.599 139.774C300.592 103.101 372.44 96.1273 446.703 144.611L447.797 142.936C372.897 94.0369 300.128 100.95 250.401 138.173L251.599 139.774Z" fill="black"/>
<path d="M1169.25 152.218C1169.25 221.392 1113.17 277.468 1044 277.468C974.826 277.468 918.75 221.392 918.75 152.218C918.75 83.0446 974.826 26.9683 1044 26.9683C1113.17 26.9683 1169.25 83.0446 1169.25 152.218Z" fill="white" stroke="url(#paint0_linear_1_1324)" stroke-width="0.5"/>
<path d="M974.36 24.7806C975.478 24.1693 976.549 23.8229 977.574 23.7414C978.611 23.6532 979.538 23.8321 980.356 24.2781C981.175 24.7242 981.843 25.4201 982.36 26.366C982.87 27.2995 983.096 28.2373 983.036 29.1792C982.97 30.1089 982.621 30.9864 981.987 31.8116C981.365 32.6302 980.496 33.3451 979.378 33.9563L976.467 35.5482L978.502 39.2701L976.107 40.5799L969.054 27.6823L974.36 24.7806ZM978.159 31.99C979.203 31.419 979.874 30.7647 980.173 30.0269C980.472 29.2892 980.396 28.5088 979.946 27.6858C979.496 26.8628 978.88 26.378 978.098 26.2314C977.315 26.0847 976.402 26.2968 975.358 26.8678L972.557 28.3992L975.358 33.5214L978.159 31.99Z" fill="#616161"/>
<path d="M997.97 24.065C998.038 24.2339 998.121 24.4795 998.22 24.8018L990.054 28.0774C990.504 28.7867 991.119 29.2489 991.899 29.4639C992.687 29.6607 993.53 29.5793 994.426 29.2197C995.57 28.7611 996.361 28.0064 996.799 26.9557L998.707 27.9327C998.463 28.6791 998.041 29.3385 997.441 29.911C996.841 30.4835 996.093 30.9496 995.196 31.3092C994.053 31.7678 992.955 31.9443 991.902 31.8387C990.849 31.7332 989.92 31.374 989.116 30.7612C988.32 30.1302 987.716 29.3015 987.305 28.275C986.898 27.2614 986.761 26.2607 986.892 25.2727C987.032 24.2664 987.42 23.3717 988.056 22.5886C988.692 21.8055 989.523 21.2081 990.55 20.7963C991.563 20.3898 992.558 20.255 993.533 20.3919C994.515 20.5105 995.392 20.8906 996.162 21.532C996.94 22.1552 997.543 22.9995 997.97 24.065ZM991.332 22.7454C990.552 23.0581 989.983 23.5578 989.625 24.2445C989.275 24.9129 989.195 25.6539 989.385 26.4675L995.291 24.0987C994.885 23.3868 994.321 22.9038 993.601 22.6497C992.881 22.3956 992.124 22.4275 991.332 22.7454Z" fill="#616161"/>
<path d="M1005.03 15.8001C1006.62 15.3559 1007.94 15.4015 1008.99 15.9367C1010.05 16.4547 1010.8 17.4823 1011.23 19.0195L1013 25.3505L1010.61 26.0168L1010.24 24.702C1010.06 25.2606 1009.72 25.7489 1009.21 26.1669C1008.71 26.5677 1008.06 26.8811 1007.25 27.1069C1006.44 27.3328 1005.7 27.3955 1005.01 27.2952C1004.33 27.1815 1003.75 26.9289 1003.28 26.5376C1002.81 26.129 1002.49 25.6145 1002.32 24.9943C1002.05 24.0234 1002.19 23.1483 1002.74 22.3689C1003.31 21.5724 1004.36 20.9576 1005.91 20.5247L1008.71 19.7455L1008.66 19.5837C1008.45 18.8286 1008.06 18.3128 1007.49 18.0362C1006.93 17.7559 1006.2 17.74 1005.31 17.9884C1004.71 18.1578 1004.13 18.4197 1003.59 18.7741C1003.07 19.1247 1002.65 19.5251 1002.34 19.9751L1000.83 18.4112C1001.28 17.8216 1001.87 17.3011 1002.6 16.8498C1003.33 16.3984 1004.14 16.0486 1005.03 15.8001ZM1007.26 25.1195C1007.9 24.9426 1008.42 24.6448 1008.82 24.2261C1009.24 23.7901 1009.47 23.2743 1009.52 22.6784L1009.17 21.4244L1006.56 22.1527C1005.11 22.5593 1004.51 23.2412 1004.78 24.1986C1004.91 24.6571 1005.19 24.9704 1005.63 25.1384C1006.07 25.3065 1006.61 25.3002 1007.26 25.1195Z" fill="#616161"/>
<path d="M1024.94 11.7033L1026.79 22.7641L1024.2 23.1966L1022.72 14.3314L1018.58 15.0234L1018.84 17.2363C1019.02 18.7116 1019.09 19.9636 1019.04 20.9924C1019.01 22.0051 1018.81 22.8418 1018.42 23.5025C1018.05 24.1471 1017.44 24.5386 1016.61 24.677C1016.23 24.7416 1015.74 24.7452 1015.15 24.6879L1014.91 22.4923C1015.11 22.5014 1015.28 22.4944 1015.42 22.4714C1015.94 22.3837 1016.3 22.1108 1016.49 21.6528C1016.68 21.1809 1016.77 20.6492 1016.74 20.0577C1016.72 19.4501 1016.65 18.5962 1016.52 17.4961L1016 13.1981L1024.94 11.7033Z" fill="#616161"/>
<path d="M1030.66 10.9921L1033.28 10.8605L1033.65 18.2432L1039.47 10.5499L1041.86 10.4298L1042.42 21.6297L1039.8 21.7613L1039.43 14.3786L1033.63 22.0709L1031.22 22.192L1030.66 10.9921Z" fill="#616161"/>
<path d="M1054.86 16.2866C1055.55 16.5254 1056.06 16.88 1056.41 17.3505C1056.78 17.8078 1056.94 18.3439 1056.9 18.9588C1056.86 19.6435 1056.59 20.237 1056.1 20.7395C1055.61 21.228 1054.94 21.594 1054.12 21.8373C1053.29 22.0807 1052.36 22.1704 1051.32 22.1065C1050.46 22.0529 1049.62 21.9028 1048.8 21.6563C1047.99 21.3957 1047.26 21.0561 1046.62 20.6373L1047.49 18.7347C1048.02 19.0758 1048.62 19.3513 1049.29 19.5613C1049.97 19.7713 1050.65 19.8975 1051.33 19.9398C1052.21 19.9942 1052.9 19.9038 1053.41 19.6685C1053.93 19.4202 1054.2 19.0584 1054.23 18.5833C1054.26 18.1502 1054.08 17.8027 1053.71 17.541C1053.35 17.2801 1052.82 17.1281 1052.12 17.0849L1049.94 16.9502L1050.05 15.1895L1052.02 15.3113C1052.67 15.3519 1053.19 15.2716 1053.57 15.0705C1053.96 14.8703 1054.17 14.5675 1054.19 14.1623C1054.22 13.7571 1054.01 13.4219 1053.58 13.1567C1053.15 12.8915 1052.54 12.7347 1051.76 12.6864C1050.64 12.6173 1049.44 12.8168 1048.16 13.2848L1047.61 11.3151C1049.12 10.7211 1050.62 10.4703 1052.12 10.5627C1053.07 10.6214 1053.91 10.8068 1054.65 11.119C1055.39 11.4171 1055.96 11.8167 1056.35 12.3177C1056.75 12.8056 1056.93 13.35 1056.9 13.9509C1056.86 14.4958 1056.67 14.9745 1056.3 15.387C1055.94 15.7854 1055.46 16.0853 1054.86 16.2866Z" fill="#616161"/>
<path d="M1066.39 12.1357C1068.02 12.4017 1069.2 12.9983 1069.92 13.9256C1070.67 14.8414 1070.91 16.0869 1070.66 17.6621L1069.6 24.1493L1067.15 23.7504L1067.37 22.4032C1066.98 22.835 1066.46 23.1337 1065.82 23.2993C1065.2 23.4534 1064.48 23.4628 1063.65 23.3276C1062.82 23.1923 1062.11 22.9358 1061.54 22.5581C1060.96 22.1665 1060.54 21.6938 1060.28 21.14C1060.03 20.5747 1059.96 19.9742 1060.06 19.3386C1060.23 18.3438 1060.72 17.609 1061.55 17.1343C1062.4 16.648 1063.61 16.5345 1065.2 16.7937L1068.06 17.2602L1068.09 17.0944C1068.21 16.3206 1068.08 15.6882 1067.67 15.197C1067.29 14.7081 1066.64 14.3893 1065.72 14.2405C1065.1 14.1391 1064.47 14.1356 1063.83 14.2298C1063.21 14.3264 1062.66 14.5135 1062.19 14.7914L1061.48 12.7396C1062.13 12.3921 1062.89 12.1674 1063.74 12.0655C1064.59 11.9636 1065.47 11.987 1066.39 12.1357ZM1064.49 21.5294C1065.14 21.6353 1065.74 21.5837 1066.28 21.3747C1066.85 21.1541 1067.27 20.7844 1067.57 20.2655L1067.78 18.9805L1065.11 18.5444C1063.62 18.301 1062.79 18.6698 1062.63 19.6508C1062.55 20.1206 1062.68 20.5241 1063.01 20.8613C1063.33 21.1985 1063.83 21.4212 1064.49 21.5294Z" fill="#616161"/>
<path d="M1085.85 26.0659L1084.55 30.6978L1082.19 30.0372L1082.88 27.5493L1073.4 24.9012L1076.41 14.1001L1078.94 14.8059L1076.52 23.4629L1081.68 24.9027L1084.1 16.2457L1086.63 16.9515L1084.21 25.6085L1085.85 26.0659Z" fill="#616161"/>
<path d="M1092.68 18.9545L1095.1 19.959L1092.27 26.7883L1100.82 22.3295L1103.04 23.2456L1098.75 33.6061L1096.32 32.6016L1099.15 25.7722L1090.62 30.2391L1088.38 29.315L1092.68 18.9545Z" fill="#616161"/>
<path d="M1116.24 30.2105L1110.78 40.0095L1108.73 38.8659L1110.37 35.9115L1107.78 34.4717L1104.14 36.3131L1101.68 34.9448L1105.81 32.9651C1105.24 32.3256 1104.9 31.6495 1104.8 30.9369C1104.72 30.2189 1104.89 29.4867 1105.3 28.7405C1105.93 27.615 1106.81 26.9677 1107.94 26.7985C1109.08 26.6293 1110.35 26.9327 1111.74 27.7087L1116.24 30.2105ZM1110.74 29.6764C1109.26 28.8527 1108.21 28.9975 1107.59 30.1107C1106.98 31.2117 1107.39 32.1605 1108.82 32.9569L1111.26 34.315L1113.11 30.9936L1110.74 29.6764Z" fill="#616161"/>
<path d="M904.071 134.287C904.611 134.401 904.958 134.931 904.844 135.472L902.994 144.279C902.881 144.82 902.351 145.166 901.81 145.053C901.27 144.939 900.923 144.409 901.037 143.868L902.681 136.039L894.852 134.395C894.312 134.281 893.965 133.751 894.079 133.211C894.192 132.67 894.723 132.324 895.263 132.438L904.071 134.287ZM708.215 139.266C757.208 175.939 829.056 182.912 903.319 134.429L904.412 136.103C829.512 185.003 756.743 178.089 707.016 140.867L708.215 139.266Z" fill="black"/>
<path d="M710.25 152.219C710.25 221.392 654.174 277.469 585 277.469C515.826 277.469 459.75 221.392 459.75 152.219C459.75 83.0448 515.826 26.9685 585 26.9685C654.174 26.9685 710.25 83.0448 710.25 152.219Z" fill="white" stroke="url(#paint1_linear_1_1324)" stroke-width="0.5"/>
<path d="M511.046 27.1092L519.028 39.4533L516.771 40.9129L510.043 30.5085L503.642 34.6478L510.369 45.0521L508.112 46.5117L500.13 34.1676L511.046 27.1092Z" fill="#616161"/>
<path d="M528.327 22.2098L533.152 32.3325L530.783 33.462L526.915 25.3488L523.124 27.1561L523.987 29.2106C524.562 30.5803 524.972 31.7653 525.216 32.7656C525.467 33.7472 525.498 34.6088 525.308 35.3504C525.126 36.0734 524.655 36.6156 523.897 36.9771C523.543 37.1458 523.074 37.2841 522.49 37.3921L521.655 35.3475C521.85 35.301 522.01 35.2477 522.137 35.1875C522.617 34.9585 522.887 34.5973 522.946 34.1037C522.999 33.5975 522.931 33.0639 522.741 32.503C522.558 31.9234 522.254 31.1224 521.828 30.1L520.137 26.1137L528.327 22.2098Z" fill="#616161"/>
<path d="M537.43 18.5543C538.99 18.009 540.311 17.9697 541.394 18.4364C542.485 18.8853 543.294 19.863 543.821 21.3696L545.991 27.5741L543.652 28.3921L543.201 27.1036C543.059 27.6724 542.748 28.1818 542.267 28.6316C541.795 29.0636 541.163 29.4182 540.37 29.6955C539.577 29.9728 538.837 30.0833 538.15 30.0269C537.458 29.9574 536.864 29.7425 536.367 29.3823C535.879 29.0042 535.529 28.5113 535.316 27.9034C534.983 26.9519 535.068 26.0695 535.569 25.2563C536.08 24.4253 537.095 23.7441 538.614 23.2126L541.35 22.2559L541.295 22.0973C541.036 21.3573 540.612 20.8676 540.024 20.6283C539.45 20.3843 538.726 20.4149 537.854 20.7199C537.259 20.9279 536.704 21.226 536.187 21.6144C535.683 21.9981 535.291 22.4245 535.01 22.8935L533.408 21.4293C533.815 20.8124 534.369 20.2552 535.07 19.7579C535.771 19.2605 536.558 18.8594 537.43 18.5543ZM540.254 27.7114C540.876 27.4942 541.375 27.1636 541.754 26.7197C542.141 26.258 542.342 25.7282 542.355 25.1302L541.925 23.9012L539.368 24.7955C537.941 25.2946 537.391 26.0133 537.72 26.9516C537.877 27.4009 538.18 27.6953 538.629 27.8348C539.078 27.9744 539.62 27.9332 540.254 27.7114Z" fill="#616161"/>
<path d="M547.893 15.2917L550.453 14.7116L551.46 19.156L556.97 17.9077L555.963 13.4633L558.523 12.8833L561.001 23.82L558.441 24.4001L557.462 20.0786L551.952 21.327L552.931 25.6484L550.371 26.2285L547.893 15.2917Z" fill="#616161"/>
<path d="M564.2 11.8954L566.811 11.6227L567.579 18.9747L572.973 10.979L575.354 10.7302L576.519 21.8835L573.908 22.1563L573.14 14.8043L567.768 22.7978L565.366 23.0487L564.2 11.8954Z" fill="#616161"/>
<path d="M588.238 10.4138C589.33 10.4348 590.298 10.6916 591.143 11.184C592.001 11.6766 592.667 12.3616 593.14 13.2389C593.613 14.1162 593.839 15.1217 593.817 16.2555C593.795 17.3893 593.531 18.3924 593.024 19.2648C592.517 20.1232 591.825 20.7819 590.948 21.2411C590.085 21.7005 589.108 21.9197 588.016 21.8986C586.504 21.8694 585.317 21.3424 584.455 20.3176L584.35 25.7556L581.726 25.7049L582.021 10.4198L584.519 10.468L584.491 11.9377C584.935 11.4142 585.475 11.0256 586.11 10.7718C586.759 10.5182 587.468 10.3989 588.238 10.4138ZM587.766 19.6464C588.731 19.665 589.529 19.3583 590.157 18.7263C590.799 18.0946 591.13 17.2539 591.151 16.2041C591.171 15.1543 590.872 14.3013 590.255 13.6453C589.651 12.9895 588.867 12.6523 587.901 12.6337C587.271 12.6215 586.701 12.7575 586.192 13.0418C585.682 13.312 585.276 13.7102 584.972 14.2364C584.667 14.7627 584.508 15.3757 584.495 16.0756C584.481 16.7755 584.617 17.3942 584.9 17.9318C585.184 18.4693 585.575 18.89 586.073 19.1936C586.572 19.4833 587.136 19.6342 587.766 19.6464Z" fill="#616161"/>
<path d="M601.559 22.9052C600.435 22.7571 599.453 22.3807 598.615 21.776C597.777 21.1714 597.158 20.4049 596.758 19.4767C596.373 18.5364 596.253 17.518 596.398 16.4215C596.542 15.325 596.921 14.3794 597.534 13.5846C598.161 12.7917 598.957 12.2118 599.924 11.8449C600.89 11.4779 601.935 11.3685 603.059 11.5167C604.198 11.6666 605.186 12.0439 606.024 12.6486C606.862 13.2533 607.474 14.0188 607.861 14.9452C608.261 15.8734 608.389 16.8858 608.244 17.9823C608.1 19.0789 607.713 20.0305 607.084 20.8373C606.471 21.632 605.682 22.2128 604.715 22.5798C603.749 22.9467 602.697 23.0552 601.559 22.9052ZM601.852 20.6775C602.81 20.8037 603.643 20.5887 604.352 20.0325C605.061 19.4763 605.484 18.6777 605.621 17.6367C605.758 16.5957 605.556 15.7148 605.016 14.994C604.475 14.2733 603.726 13.8498 602.769 13.7236C601.811 13.5974 600.978 13.8124 600.269 14.3686C599.574 14.9266 599.158 15.7261 599.021 16.7671C598.884 17.8081 599.079 18.6881 599.605 19.4071C600.146 20.1278 600.895 20.5513 601.852 20.6775Z" fill="#616161"/>
<path d="M620.993 20.6537C622.235 21.3982 622.689 22.4358 622.355 23.7666C622.11 24.7443 621.555 25.4061 620.689 25.7518C619.823 26.0976 618.67 26.09 617.23 25.7291L611.69 24.34L614.417 13.4627L619.733 14.7956C621.064 15.1293 622.042 15.6342 622.666 16.3103C623.29 16.9864 623.49 17.7726 623.265 18.6689C623.126 19.2256 622.856 19.6703 622.455 20.0028C622.067 20.3386 621.58 20.5556 620.993 20.6537ZM615.702 18.6128L618.37 19.2819C619.688 19.6121 620.46 19.3223 620.688 18.4125C620.91 17.5298 620.362 16.9233 619.045 16.5931L616.376 15.9241L615.702 18.6128ZM617.491 23.8244C618.89 24.1751 619.703 23.8955 619.932 22.9857C620.051 22.5104 619.976 22.1165 619.708 21.8039C619.444 21.4778 618.965 21.2279 618.272 21.0542L615.278 20.3035L614.578 23.0941L617.491 23.8244Z" fill="#616161"/>
<path d="M632.961 18.6926C634.512 19.2614 635.558 20.0697 636.098 21.1178C636.656 22.1575 636.661 23.4266 636.111 24.925L633.848 31.0962L631.522 30.2431L631.992 28.9616C631.521 29.3108 630.957 29.5066 630.3 29.5491C629.661 29.5833 628.947 29.4558 628.159 29.1666C627.37 28.8774 626.728 28.4929 626.233 28.0131C625.743 27.5202 625.42 26.9769 625.265 26.3832C625.128 25.7812 625.17 25.1779 625.392 24.5733C625.739 23.6269 626.364 22.9988 627.268 22.6891C628.19 22.371 629.407 22.4891 630.918 23.0434L633.639 24.041L633.697 23.8833C633.967 23.1472 633.951 22.5001 633.649 21.9419C633.359 21.3885 632.781 20.9528 631.914 20.6347C631.322 20.4178 630.703 20.2953 630.058 20.2673C629.425 20.244 628.851 20.3244 628.336 20.5084L628.028 18.36C628.734 18.1418 629.516 18.0632 630.374 18.1241C631.231 18.185 632.094 18.3745 632.961 18.6926ZM629.329 27.5604C629.947 27.7869 630.543 27.8489 631.118 27.7464C631.71 27.6355 632.201 27.3534 632.591 26.8999L633.039 25.6775L630.496 24.7449C629.076 24.2243 628.195 24.4307 627.853 25.3639C627.689 25.8108 627.737 26.2308 627.995 26.6238C628.254 27.0168 628.698 27.329 629.329 27.5604Z" fill="#616161"/>
<path d="M642.798 22.6464L645.146 23.8198L643.109 27.8962L648.162 30.4213L650.199 26.3449L652.547 27.5182L647.535 37.5496L645.187 36.3762L647.167 32.4125L642.114 29.8874L640.133 33.8511L637.785 32.6778L642.798 22.6464Z" fill="#616161"/>
<path d="M658.255 30.7417L660.444 32.1912L656.362 38.354L665.608 35.6121L667.604 36.934L661.412 46.2833L659.224 44.8338L663.305 38.671L654.076 41.4245L652.063 40.091L658.255 30.7417Z" fill="#616161"/>
<path d="M676.182 51.1318C676.065 51.2712 675.888 51.4606 675.65 51.7L668.91 46.044C668.497 46.7757 668.38 47.5363 668.558 48.3256C668.756 49.1132 669.225 49.8174 669.965 50.4384C670.909 51.2303 671.947 51.5718 673.081 51.4627L673.119 53.6058C672.346 53.743 671.565 53.6821 670.778 53.423C669.99 53.164 669.226 52.724 668.486 52.1031C667.542 51.3111 666.868 50.426 666.465 49.4477C666.061 48.4694 665.94 47.4813 666.101 46.4834C666.282 45.4838 666.728 44.5604 667.439 43.7132C668.141 42.8767 668.959 42.2834 669.892 41.9335C670.845 41.5818 671.817 41.5018 672.807 41.6934C673.798 41.885 674.717 42.3363 675.564 43.0472C676.401 43.7491 676.989 44.5623 677.328 45.4866C677.687 46.4092 677.765 47.3613 677.563 48.3429C677.38 49.3228 676.92 50.2524 676.182 51.1318ZM674.214 44.6559C673.571 44.1159 672.862 43.85 672.087 43.8581C671.333 43.8645 670.642 44.1436 670.014 44.6953L674.888 48.7855C675.325 48.0914 675.485 47.3669 675.369 46.6119C675.253 45.8568 674.868 45.2048 674.214 44.6559Z" fill="#616161"/>
<path d="M520.078 168.219L522.492 156.797H525.68C526.607 156.797 527.349 156.937 527.906 157.219C528.469 157.495 528.875 157.883 529.125 158.383C529.38 158.883 529.508 159.463 529.508 160.125C529.508 160.802 529.383 161.393 529.133 161.898C528.883 162.403 528.531 162.825 528.078 163.164C527.63 163.497 527.104 163.747 526.5 163.914C525.896 164.075 525.24 164.156 524.531 164.156H523.313L522.461 168.219H520.078ZM523.742 162.172H524.719C525.193 162.172 525.607 162.094 525.961 161.937C526.32 161.781 526.599 161.554 526.797 161.258C527 160.961 527.102 160.604 527.102 160.187C527.102 159.708 526.974 159.354 526.719 159.125C526.469 158.896 526.091 158.781 525.586 158.781H524.461L523.742 162.172ZM533.586 168.375C532.904 168.375 532.302 168.252 531.781 168.008C531.266 167.758 530.862 167.383 530.57 166.883C530.279 166.383 530.133 165.755 530.133 165C530.133 164.271 530.237 163.567 530.445 162.89C530.654 162.208 530.964 161.599 531.375 161.062C531.792 160.526 532.302 160.101 532.906 159.789C533.516 159.476 534.219 159.32 535.016 159.32C535.995 159.32 536.727 159.544 537.211 159.992C537.701 160.435 537.945 161.005 537.945 161.703C537.945 162.161 537.841 162.578 537.633 162.953C537.43 163.328 537.12 163.651 536.703 163.922C536.286 164.187 535.763 164.393 535.133 164.539C534.503 164.679 533.763 164.75 532.914 164.75H532.516C532.51 164.812 532.505 164.867 532.5 164.914C532.5 164.961 532.5 165.013 532.5 165.07C532.5 165.539 532.635 165.911 532.906 166.187C533.177 166.463 533.56 166.601 534.055 166.601C534.513 166.601 534.93 166.549 535.305 166.445C535.68 166.341 536.122 166.169 536.633 165.929V167.703C536.175 167.927 535.708 168.096 535.234 168.211C534.76 168.32 534.211 168.375 533.586 168.375ZM532.773 163.164H533.125C533.729 163.164 534.219 163.099 534.594 162.969C534.974 162.838 535.25 162.666 535.422 162.453C535.599 162.239 535.688 162.008 535.688 161.758C535.688 161.508 535.615 161.323 535.469 161.203C535.328 161.078 535.128 161.015 534.867 161.015C534.576 161.015 534.286 161.107 534 161.289C533.714 161.471 533.461 161.724 533.242 162.047C533.023 162.37 532.867 162.742 532.773 163.164ZM538.641 168.219L540.508 159.484H542.867L542 163.547L545.438 159.484H548.125L544.383 163.867L546.547 168.219H543.906L541.906 163.961L540.992 168.219H538.641ZM551.648 168.375C550.992 168.375 550.411 168.239 549.906 167.969C549.406 167.698 549.013 167.312 548.727 166.812C548.445 166.307 548.305 165.708 548.305 165.015C548.305 164.396 548.365 163.804 548.484 163.242C548.609 162.674 548.794 162.153 549.039 161.679C549.289 161.2 549.599 160.786 549.969 160.437C550.344 160.083 550.779 159.81 551.273 159.617C551.768 159.419 552.326 159.32 552.945 159.32C553.622 159.32 554.208 159.458 554.703 159.734C555.198 160.005 555.581 160.398 555.852 160.914C556.122 161.429 556.258 162.052 556.258 162.781C556.258 163.375 556.198 163.948 556.078 164.5C555.964 165.047 555.786 165.557 555.547 166.031C555.307 166.5 555.005 166.911 554.641 167.265C554.276 167.614 553.844 167.888 553.344 168.086C552.849 168.278 552.284 168.375 551.648 168.375ZM551.844 166.461C552.104 166.461 552.341 166.396 552.555 166.265C552.768 166.13 552.958 165.945 553.125 165.711C553.292 165.471 553.43 165.198 553.539 164.89C553.654 164.578 553.74 164.242 553.797 163.883C553.859 163.523 553.891 163.156 553.891 162.781C553.891 162.484 553.854 162.221 553.781 161.992C553.714 161.758 553.596 161.575 553.43 161.445C553.268 161.31 553.05 161.242 552.773 161.242C552.487 161.242 552.229 161.323 552 161.484C551.776 161.64 551.581 161.851 551.414 162.117C551.247 162.383 551.109 162.679 551 163.008C550.891 163.336 550.807 163.674 550.75 164.023C550.698 164.367 550.672 164.698 550.672 165.015C550.672 165.489 550.768 165.849 550.961 166.094C551.154 166.338 551.448 166.461 551.844 166.461ZM557.313 168.219L559.156 159.484H562.398L562.734 165.578H562.781L565.922 159.484H569.266L567.391 168.219H565.219L566.18 163.898C566.268 163.492 566.359 163.101 566.453 162.726C566.552 162.351 566.635 162.044 566.703 161.804H566.656L563.344 168.219H561.086L560.734 161.804H560.703C560.651 162.232 560.591 162.62 560.523 162.969C560.461 163.312 560.393 163.653 560.32 163.992L559.477 168.219H557.313ZM573.477 168.375C572.794 168.375 572.193 168.252 571.672 168.008C571.156 167.758 570.753 167.383 570.461 166.883C570.169 166.383 570.023 165.755 570.023 165C570.023 164.271 570.128 163.567 570.336 162.89C570.544 162.208 570.854 161.599 571.266 161.062C571.682 160.526 572.193 160.101 572.797 159.789C573.406 159.476 574.109 159.32 574.906 159.32C575.885 159.32 576.617 159.544 577.102 159.992C577.591 160.435 577.836 161.005 577.836 161.703C577.836 162.161 577.732 162.578 577.523 162.953C577.32 163.328 577.01 163.651 576.594 163.922C576.177 164.187 575.654 164.393 575.023 164.539C574.393 164.679 573.654 164.75 572.805 164.75H572.406C572.401 164.812 572.396 164.867 572.391 164.914C572.391 164.961 572.391 165.013 572.391 165.07C572.391 165.539 572.526 165.911 572.797 166.187C573.068 166.463 573.451 166.601 573.945 166.601C574.404 166.601 574.82 166.549 575.195 166.445C575.57 166.341 576.013 166.169 576.523 165.929V167.703C576.065 167.927 575.599 168.096 575.125 168.211C574.651 168.32 574.102 168.375 573.477 168.375ZM572.664 163.164H573.016C573.62 163.164 574.109 163.099 574.484 162.969C574.865 162.838 575.141 162.666 575.313 162.453C575.49 162.239 575.578 162.008 575.578 161.758C575.578 161.508 575.505 161.323 575.359 161.203C575.219 161.078 575.018 161.015 574.758 161.015C574.466 161.015 574.177 161.107 573.891 161.289C573.604 161.471 573.352 161.724 573.133 162.047C572.914 162.37 572.758 162.742 572.664 163.164ZM578.531 168.219L580.398 159.484H582.773L582.047 162.844H584.773L585.477 159.484H587.828L585.969 168.219H583.617L584.367 164.617H581.664L580.898 168.219H578.531ZM592.18 168.375C591.398 168.375 590.758 168.224 590.258 167.922C589.763 167.62 589.396 167.208 589.156 166.687C588.922 166.166 588.805 165.578 588.805 164.922C588.805 164.323 588.865 163.771 588.984 163.265C589.104 162.755 589.273 162.299 589.492 161.898C589.716 161.497 589.982 161.156 590.289 160.875C590.602 160.594 590.951 160.38 591.336 160.234C591.721 160.083 592.135 160.008 592.578 160.008C592.943 160.008 593.263 160.073 593.539 160.203C593.815 160.328 594.052 160.5 594.25 160.719C594.453 160.932 594.622 161.172 594.758 161.437H594.82C594.831 161.349 594.836 161.255 594.836 161.156C594.836 161.052 594.836 160.974 594.836 160.922C594.836 159.875 594.675 159.109 594.352 158.625C594.029 158.14 593.503 157.898 592.773 157.898C592.529 157.898 592.26 157.927 591.969 157.984C591.682 158.041 591.422 158.12 591.188 158.219L590.695 156.359C591.034 156.234 591.411 156.14 591.828 156.078C592.245 156.01 592.682 155.976 593.141 155.976C594.099 155.976 594.875 156.182 595.469 156.594C596.068 157 596.505 157.575 596.781 158.32C597.063 159.065 597.203 159.948 597.203 160.969C597.203 161.573 597.161 162.174 597.078 162.773C597 163.367 596.878 163.94 596.711 164.492C596.544 165.044 596.328 165.557 596.063 166.031C595.797 166.5 595.477 166.911 595.102 167.265C594.732 167.614 594.305 167.888 593.82 168.086C593.336 168.278 592.789 168.375 592.18 168.375ZM592.313 166.461C592.578 166.461 592.818 166.398 593.031 166.273C593.245 166.148 593.432 165.976 593.594 165.758C593.76 165.539 593.904 165.284 594.023 164.992C594.148 164.7 594.253 164.388 594.336 164.054C594.425 163.716 594.495 163.37 594.547 163.015C594.479 162.786 594.38 162.583 594.25 162.406C594.125 162.224 593.969 162.08 593.781 161.976C593.599 161.872 593.385 161.82 593.141 161.82C592.896 161.82 592.672 161.87 592.469 161.969C592.266 162.067 592.083 162.211 591.922 162.398C591.76 162.58 591.622 162.802 591.508 163.062C591.398 163.323 591.315 163.617 591.258 163.945C591.201 164.268 591.172 164.62 591.172 165C591.172 165.458 591.271 165.817 591.469 166.078C591.667 166.333 591.948 166.461 592.313 166.461ZM600.898 168.375C600.477 168.375 600.078 168.271 599.703 168.062C599.328 167.854 599.021 167.518 598.781 167.054C598.547 166.591 598.43 165.976 598.43 165.211C598.43 164.638 598.49 164.07 598.609 163.508C598.734 162.945 598.911 162.414 599.141 161.914C599.375 161.409 599.656 160.963 599.984 160.578C600.318 160.187 600.693 159.88 601.109 159.656C601.531 159.432 601.987 159.32 602.477 159.32C602.846 159.32 603.169 159.375 603.445 159.484C603.721 159.588 603.958 159.737 604.156 159.929C604.354 160.122 604.516 160.346 604.641 160.601H604.703L605.148 159.484H606.961L605.102 168.219H603.344L603.453 167.086H603.391C603.182 167.341 602.956 167.565 602.711 167.758C602.466 167.95 602.195 168.101 601.898 168.211C601.602 168.32 601.268 168.375 600.898 168.375ZM601.82 166.476C602.143 166.476 602.443 166.351 602.719 166.101C602.995 165.846 603.232 165.515 603.43 165.109C603.628 164.703 603.768 164.273 603.852 163.82C603.893 163.612 603.922 163.403 603.938 163.195C603.958 162.982 603.969 162.752 603.969 162.508C603.969 162.138 603.87 161.833 603.672 161.594C603.479 161.349 603.214 161.226 602.875 161.226C602.646 161.226 602.427 161.302 602.219 161.453C602.016 161.599 601.828 161.802 601.656 162.062C601.484 162.317 601.333 162.612 601.203 162.945C601.078 163.273 600.982 163.622 600.914 163.992C600.846 164.362 600.813 164.732 600.813 165.101C600.813 165.554 600.901 165.898 601.078 166.133C601.255 166.362 601.503 166.476 601.82 166.476ZM613.258 171.351L614.008 168.219C613.815 168.125 613.656 168.008 613.531 167.867C613.406 167.726 613.307 167.567 613.234 167.39C613.161 167.208 613.099 167.015 613.047 166.812H612.984C612.766 167.12 612.523 167.393 612.258 167.633C611.992 167.867 611.698 168.049 611.375 168.179C611.057 168.31 610.708 168.375 610.328 168.375C609.828 168.375 609.411 168.273 609.078 168.07C608.745 167.867 608.492 167.578 608.32 167.203C608.154 166.823 608.07 166.377 608.07 165.867C608.07 165.674 608.091 165.427 608.133 165.125C608.18 164.823 608.234 164.515 608.297 164.203L609.289 159.484H611.641L610.57 164.586C610.534 164.763 610.503 164.929 610.477 165.086C610.456 165.242 610.445 165.385 610.445 165.515C610.445 165.844 610.516 166.086 610.656 166.242C610.797 166.398 611.008 166.476 611.289 166.476C611.648 166.476 611.969 166.325 612.25 166.023C612.536 165.716 612.786 165.307 613 164.797C613.214 164.281 613.385 163.716 613.516 163.101L614.281 159.484H616.633L615.367 165.453C615.352 165.531 615.339 165.604 615.328 165.672C615.323 165.739 615.32 165.804 615.32 165.867C615.32 166.044 615.365 166.174 615.453 166.258C615.542 166.336 615.659 166.375 615.805 166.375C615.93 166.375 616.05 166.364 616.164 166.344C616.279 166.323 616.393 166.297 616.508 166.265L615.438 171.351H613.258ZM620.25 168.375C619.75 168.375 619.336 168.273 619.008 168.07C618.68 167.867 618.435 167.578 618.273 167.203C618.112 166.823 618.031 166.377 618.031 165.867C618.031 165.674 618.047 165.427 618.078 165.125C618.109 164.823 618.156 164.515 618.219 164.203L619.211 159.484H621.563L620.492 164.586C620.456 164.763 620.425 164.929 620.398 165.086C620.378 165.242 620.367 165.385 620.367 165.515C620.367 165.844 620.438 166.086 620.578 166.242C620.719 166.398 620.93 166.476 621.211 166.476C621.57 166.476 621.891 166.325 622.172 166.023C622.458 165.716 622.708 165.307 622.922 164.797C623.135 164.281 623.307 163.716 623.438 163.101L624.203 159.484H626.555L624.703 168.219H622.906L623.07 166.601H622.984C622.76 166.945 622.513 167.252 622.242 167.523C621.977 167.789 621.68 167.997 621.352 168.148C621.023 168.299 620.656 168.375 620.25 168.375ZM629.922 168.375C629.422 168.375 629.008 168.273 628.68 168.07C628.352 167.867 628.107 167.578 627.945 167.203C627.784 166.823 627.703 166.377 627.703 165.867C627.703 165.674 627.719 165.427 627.75 165.125C627.781 164.823 627.828 164.515 627.891 164.203L628.883 159.484H631.234L630.164 164.586C630.128 164.763 630.096 164.929 630.07 165.086C630.05 165.242 630.039 165.385 630.039 165.515C630.039 165.844 630.109 166.086 630.25 166.242C630.391 166.398 630.602 166.476 630.883 166.476C631.242 166.476 631.563 166.325 631.844 166.023C632.13 165.716 632.38 165.307 632.594 164.797C632.807 164.281 632.979 163.716 633.109 163.101L633.875 159.484H636.227L634.375 168.219H632.578L632.742 166.601H632.656C632.432 166.945 632.185 167.252 631.914 167.523C631.648 167.789 631.352 167.997 631.023 168.148C630.695 168.299 630.328 168.375 629.922 168.375ZM643.75 168.375C643.25 168.375 642.836 168.273 642.508 168.07C642.18 167.867 641.935 167.578 641.773 167.203C641.612 166.823 641.531 166.377 641.531 165.867C641.531 165.674 641.547 165.427 641.578 165.125C641.609 164.823 641.656 164.515 641.719 164.203L642.711 159.484H645.063L643.992 164.586C643.956 164.763 643.925 164.929 643.898 165.086C643.878 165.242 643.867 165.385 643.867 165.515C643.867 165.844 643.938 166.086 644.078 166.242C644.219 166.398 644.43 166.476 644.711 166.476C645.07 166.476 645.391 166.325 645.672 166.023C645.958 165.716 646.208 165.307 646.422 164.797C646.635 164.281 646.807 163.716 646.938 163.101L647.703 159.484H650.055L648.203 168.219H646.406L646.57 166.601H646.484C646.26 166.945 646.013 167.252 645.742 167.523C645.477 167.789 645.18 167.997 644.852 168.148C644.523 168.299 644.156 168.375 643.75 168.375ZM549.117 195.062L551.789 182.484H553.586L553.453 183.812H553.523C553.706 183.562 553.917 183.323 554.156 183.094C554.396 182.864 554.669 182.679 554.977 182.539C555.284 182.393 555.625 182.32 556 182.32C556.422 182.32 556.82 182.424 557.195 182.633C557.57 182.841 557.875 183.179 558.109 183.648C558.344 184.112 558.461 184.732 558.461 185.508C558.461 186.075 558.398 186.64 558.273 187.203C558.154 187.76 557.977 188.291 557.742 188.797C557.513 189.297 557.232 189.742 556.898 190.133C556.57 190.518 556.198 190.823 555.781 191.047C555.365 191.265 554.909 191.375 554.414 191.375C554.06 191.375 553.76 191.32 553.516 191.211C553.271 191.096 553.063 190.942 552.891 190.75C552.724 190.557 552.57 190.341 552.43 190.101H552.367C552.336 190.523 552.294 190.911 552.242 191.265C552.19 191.625 552.12 192.005 552.031 192.406L551.469 195.062H549.117ZM554.016 189.476C554.245 189.476 554.464 189.403 554.672 189.258C554.88 189.107 555.07 188.903 555.242 188.648C555.414 188.388 555.563 188.094 555.688 187.765C555.813 187.432 555.909 187.08 555.977 186.711C556.044 186.341 556.078 185.971 556.078 185.601C556.078 185.143 555.992 184.799 555.82 184.57C555.654 184.341 555.398 184.226 555.055 184.226C554.805 184.226 554.576 184.291 554.367 184.422C554.164 184.552 553.984 184.726 553.828 184.945C553.672 185.164 553.536 185.411 553.422 185.687C553.307 185.958 553.214 186.239 553.141 186.531C553.068 186.823 553.013 187.104 552.977 187.375C552.945 187.646 552.93 187.888 552.93 188.101C552.93 188.513 553.026 188.846 553.219 189.101C553.417 189.351 553.682 189.476 554.016 189.476ZM563.336 191.375C562.654 191.375 562.052 191.252 561.531 191.008C561.016 190.758 560.612 190.383 560.32 189.883C560.029 189.383 559.883 188.755 559.883 188C559.883 187.271 559.987 186.567 560.195 185.89C560.404 185.208 560.714 184.599 561.125 184.062C561.542 183.526 562.052 183.101 562.656 182.789C563.266 182.476 563.969 182.32 564.766 182.32C565.745 182.32 566.477 182.544 566.961 182.992C567.451 183.435 567.695 184.005 567.695 184.703C567.695 185.161 567.591 185.578 567.383 185.953C567.18 186.328 566.87 186.651 566.453 186.922C566.036 187.187 565.513 187.393 564.883 187.539C564.253 187.679 563.513 187.75 562.664 187.75H562.266C562.26 187.812 562.255 187.867 562.25 187.914C562.25 187.961 562.25 188.013 562.25 188.07C562.25 188.539 562.385 188.911 562.656 189.187C562.927 189.463 563.31 189.601 563.805 189.601C564.263 189.601 564.68 189.549 565.055 189.445C565.43 189.341 565.872 189.169 566.383 188.929V190.703C565.925 190.927 565.458 191.096 564.984 191.211C564.51 191.32 563.961 191.375 563.336 191.375ZM562.523 186.164H562.875C563.479 186.164 563.969 186.099 564.344 185.969C564.724 185.838 565 185.666 565.172 185.453C565.349 185.239 565.438 185.008 565.438 184.758C565.438 184.508 565.365 184.323 565.219 184.203C565.078 184.078 564.878 184.015 564.617 184.015C564.326 184.015 564.036 184.107 563.75 184.289C563.464 184.471 563.211 184.724 562.992 185.047C562.773 185.37 562.617 185.742 562.523 186.164ZM571.109 191.375C570.385 191.375 569.841 191.151 569.477 190.703C569.112 190.25 568.93 189.638 568.93 188.867C568.93 188.674 568.945 188.458 568.977 188.219C569.013 187.974 569.057 187.721 569.109 187.461L570.148 182.484H572.5L571.43 187.586C571.393 187.763 571.362 187.929 571.336 188.086C571.315 188.242 571.305 188.385 571.305 188.515C571.305 188.844 571.367 189.086 571.492 189.242C571.622 189.398 571.815 189.476 572.07 189.476C572.43 189.476 572.75 189.328 573.031 189.031C573.318 188.729 573.565 188.323 573.773 187.812C573.987 187.302 574.161 186.737 574.297 186.117L575.047 182.484H577.398L576.328 187.586C576.286 187.763 576.253 187.929 576.227 188.086C576.206 188.242 576.195 188.385 576.195 188.515C576.195 188.844 576.26 189.086 576.391 189.242C576.521 189.398 576.714 189.476 576.969 189.476C577.234 189.476 577.482 189.388 577.711 189.211C577.94 189.034 578.146 188.791 578.328 188.484C578.516 188.172 578.68 187.812 578.82 187.406C578.966 187 579.089 186.565 579.188 186.101L579.961 182.484H582.313L580.453 191.219H578.68L578.836 189.601H578.773C578.55 189.945 578.3 190.252 578.023 190.523C577.753 190.789 577.451 190.997 577.117 191.148C576.784 191.299 576.414 191.375 576.008 191.375C575.706 191.375 575.44 191.333 575.211 191.25C574.982 191.172 574.784 191.057 574.617 190.906C574.451 190.75 574.315 190.562 574.211 190.344C574.107 190.125 574.029 189.877 573.977 189.601H573.906C573.688 189.945 573.438 190.252 573.156 190.523C572.88 190.789 572.57 190.997 572.227 191.148C571.888 191.299 571.516 191.375 571.109 191.375ZM586.742 191.375C586.06 191.375 585.458 191.252 584.938 191.008C584.422 190.758 584.018 190.383 583.727 189.883C583.435 189.383 583.289 188.755 583.289 188C583.289 187.271 583.393 186.567 583.602 185.89C583.81 185.208 584.12 184.599 584.531 184.062C584.948 183.526 585.458 183.101 586.063 182.789C586.672 182.476 587.375 182.32 588.172 182.32C589.151 182.32 589.883 182.544 590.367 182.992C590.857 183.435 591.102 184.005 591.102 184.703C591.102 185.161 590.997 185.578 590.789 185.953C590.586 186.328 590.276 186.651 589.859 186.922C589.443 187.187 588.919 187.393 588.289 187.539C587.659 187.679 586.919 187.75 586.07 187.75H585.672C585.667 187.812 585.661 187.867 585.656 187.914C585.656 187.961 585.656 188.013 585.656 188.07C585.656 188.539 585.792 188.911 586.063 189.187C586.333 189.463 586.716 189.601 587.211 189.601C587.669 189.601 588.086 189.549 588.461 189.445C588.836 189.341 589.279 189.169 589.789 188.929V190.703C589.331 190.927 588.865 191.096 588.391 191.211C587.917 191.32 587.367 191.375 586.742 191.375ZM585.93 186.164H586.281C586.885 186.164 587.375 186.099 587.75 185.969C588.13 185.838 588.406 185.666 588.578 185.453C588.755 185.239 588.844 185.008 588.844 184.758C588.844 184.508 588.771 184.323 588.625 184.203C588.484 184.078 588.284 184.015 588.023 184.015C587.732 184.015 587.443 184.107 587.156 184.289C586.87 184.471 586.617 184.724 586.398 185.047C586.18 185.37 586.023 185.742 585.93 186.164ZM591.797 191.219L593.664 182.484H596.039L595.313 185.844H598.039L598.742 182.484H601.094L599.234 191.219H596.883L597.633 187.617H594.93L594.164 191.219H591.797ZM604.453 191.375C603.953 191.375 603.539 191.273 603.211 191.07C602.883 190.867 602.638 190.578 602.477 190.203C602.315 189.823 602.234 189.377 602.234 188.867C602.234 188.674 602.25 188.427 602.281 188.125C602.313 187.823 602.359 187.515 602.422 187.203L603.414 182.484H605.766L604.695 187.586C604.659 187.763 604.628 187.929 604.602 188.086C604.581 188.242 604.57 188.385 604.57 188.515C604.57 188.844 604.641 189.086 604.781 189.242C604.922 189.398 605.133 189.476 605.414 189.476C605.773 189.476 606.094 189.325 606.375 189.023C606.661 188.716 606.911 188.307 607.125 187.797C607.339 187.281 607.51 186.716 607.641 186.101L608.406 182.484H610.758L608.906 191.219H607.109L607.273 189.601H607.188C606.964 189.945 606.716 190.252 606.445 190.523C606.18 190.789 605.883 190.997 605.555 191.148C605.227 191.299 604.859 191.375 604.453 191.375ZM612.063 191.375C611.839 191.375 611.625 191.359 611.422 191.328C611.219 191.297 611.039 191.25 610.883 191.187V189.25C610.961 189.281 611.052 189.31 611.156 189.336C611.26 189.362 611.37 189.375 611.484 189.375C611.63 189.375 611.758 189.349 611.867 189.297C611.977 189.239 612.073 189.164 612.156 189.07C612.24 188.976 612.315 188.872 612.383 188.758C612.565 188.455 612.729 188.208 612.875 188.015C613.021 187.823 613.172 187.669 613.328 187.554C613.484 187.435 613.664 187.344 613.867 187.281C613.633 187.182 613.422 187.054 613.234 186.898C613.052 186.742 612.906 186.544 612.797 186.304C612.693 186.065 612.641 185.778 612.641 185.445C612.641 184.924 612.74 184.476 612.938 184.101C613.135 183.726 613.406 183.422 613.75 183.187C614.099 182.948 614.5 182.771 614.953 182.656C615.411 182.541 615.898 182.484 616.414 182.484H620.063L618.227 191.219H615.867L616.578 187.969H616.094C615.755 187.969 615.49 188.078 615.297 188.297C615.104 188.51 614.93 188.786 614.773 189.125C614.622 189.458 614.435 189.804 614.211 190.164C614.065 190.388 613.896 190.591 613.703 190.773C613.51 190.955 613.281 191.101 613.016 191.211C612.75 191.32 612.432 191.375 612.063 191.375ZM616.188 186.367H616.914L617.375 184.164H616.383C616.128 184.164 615.898 184.213 615.695 184.312C615.492 184.406 615.331 184.547 615.211 184.734C615.096 184.916 615.039 185.143 615.039 185.414C615.039 185.7 615.13 185.932 615.313 186.109C615.5 186.281 615.792 186.367 616.188 186.367Z" fill="black"/>
<circle cx="585" cy="124.541" r="16" fill="url(#paint2_linear_1_1324)"/>
<path d="M589.047 130.541H581.062V128.861L583.93 125.963C584.508 125.369 584.971 124.874 585.32 124.478C585.674 124.077 585.93 123.713 586.086 123.385C586.247 123.056 586.328 122.705 586.328 122.33C586.328 121.877 586.201 121.538 585.945 121.314C585.695 121.085 585.359 120.97 584.938 120.97C584.495 120.97 584.065 121.072 583.648 121.275C583.232 121.478 582.797 121.767 582.344 122.142L581.031 120.588C581.359 120.306 581.706 120.041 582.07 119.791C582.44 119.541 582.867 119.34 583.352 119.189C583.841 119.033 584.427 118.955 585.109 118.955C585.859 118.955 586.503 119.09 587.039 119.361C587.581 119.632 587.997 120.002 588.289 120.47C588.581 120.934 588.727 121.46 588.727 122.049C588.727 122.679 588.602 123.254 588.352 123.775C588.102 124.296 587.737 124.812 587.258 125.322C586.784 125.832 586.211 126.398 585.539 127.017L584.07 128.4V128.51H589.047V130.541Z" fill="white"/>
<path d="M250.75 152.218C250.75 221.392 194.674 277.468 125.5 277.468C56.3263 277.468 0.25 221.392 0.25 152.218C0.25 83.0446 56.3263 26.9683 125.5 26.9683C194.674 26.9683 250.75 83.0446 250.75 152.218Z" fill="white" stroke="url(#paint3_linear_1_1324)" stroke-width="0.5"/>
<path d="M94.2371 21.953L87.1286 23.8216L86.5921 27.4802L83.8706 28.1956L86.5311 12.2968L89.1308 11.6135L99.2859 24.1435L96.5237 24.8695L94.2371 21.953ZM92.8192 20.111L88.5047 14.6008L87.4777 21.5151L92.8192 20.111Z" fill="#616161"/>
<path d="M101.563 12.3973L104.167 12.0645L104.745 16.5847L110.348 15.8683L109.77 11.3481L112.374 11.0152L113.796 22.1386L111.192 22.4715L110.63 18.0763L105.027 18.7927L105.589 23.1879L102.985 23.5208L101.563 12.3973Z" fill="#616161"/>
<path d="M121.686 10.4241C123.338 10.3922 124.605 10.7669 125.488 11.548C126.385 12.3148 126.849 13.4961 126.88 15.0918L127.007 21.6635L124.529 21.7114L124.503 20.3466C124.19 20.8427 123.736 21.2296 123.139 21.5071C122.556 21.7704 121.845 21.9102 121.005 21.9264C120.165 21.9426 119.427 21.8168 118.792 21.549C118.157 21.2673 117.659 20.8778 117.299 20.3806C116.953 19.8692 116.774 19.2916 116.762 18.6477C116.742 17.6399 117.098 16.8279 117.828 16.2117C118.572 15.5812 119.749 15.2504 121.358 15.2193L124.256 15.1634L124.253 14.9954C124.238 14.2116 123.988 13.6143 123.504 13.2036C123.034 12.7926 122.337 12.596 121.413 12.6138C120.783 12.626 120.162 12.736 119.55 12.9438C118.952 13.1514 118.446 13.4342 118.033 13.7922L116.968 11.9015C117.547 11.4422 118.247 11.0856 119.068 10.8317C119.89 10.5778 120.762 10.442 121.686 10.4241ZM121.514 20.0052C122.172 19.9925 122.75 19.8343 123.248 19.5307C123.76 19.2127 124.115 18.7718 124.315 18.2078L124.29 16.9061L121.581 16.9584C120.069 16.9875 119.323 17.499 119.342 18.4929C119.351 18.9688 119.548 19.3431 119.931 19.6157C120.314 19.8884 120.842 20.0182 121.514 20.0052Z" fill="#616161"/>
<path d="M143.418 11.5494L142.381 22.7154L139.768 22.4728L140.598 13.5232L136.416 13.1351L136.106 15.3419C135.899 16.813 135.645 18.0408 135.342 19.025C135.055 19.9967 134.641 20.7526 134.099 21.2928C133.572 21.8203 132.89 22.0453 132.053 21.9677C131.663 21.9314 131.189 21.8101 130.632 21.6037L130.961 19.4198C131.152 19.4798 131.318 19.5162 131.457 19.5291C131.987 19.5783 132.404 19.4061 132.707 19.0125C133.012 18.6049 133.227 18.1116 133.351 17.5326C133.49 16.9409 133.639 16.0971 133.797 15.001L134.385 10.7109L143.418 11.5494Z" fill="#616161"/>
<path d="M148.916 12.3006L151.484 12.8415L149.961 20.0748L157.546 14.1182L159.889 14.6115L157.578 25.5848L155.009 25.0439L156.533 17.8105L148.968 23.7715L146.605 23.2738L148.916 12.3006Z" fill="#616161"/>
<path d="M170.345 23.4086C170.949 23.8134 171.36 24.2876 171.58 24.8313C171.816 25.366 171.839 25.9259 171.646 26.5111C171.432 27.1628 171.022 27.6692 170.417 28.0303C169.817 28.3782 169.085 28.5649 168.222 28.5907C167.358 28.6164 166.435 28.4675 165.451 28.144C164.626 27.8729 163.852 27.5153 163.128 27.0712C162.409 26.6138 161.79 26.1006 161.269 25.5316L162.597 23.9124C163.02 24.3755 163.531 24.7939 164.13 25.1678C164.729 25.5416 165.355 25.8356 166.006 26.0498C166.844 26.3252 167.537 26.4131 168.086 26.3134C168.652 26.2048 169.01 25.9244 169.158 25.4722C169.294 25.0599 169.213 24.6795 168.914 24.331C168.63 23.9869 168.155 23.7055 167.49 23.4869L165.415 22.8049L165.966 21.1291L167.841 21.7456C168.466 21.951 168.987 22.0042 169.402 21.9051C169.831 21.8103 170.109 21.5701 170.236 21.1844C170.363 20.7987 170.251 20.4228 169.899 20.0569C169.548 19.6909 169 19.3854 168.255 19.1406C167.191 18.7909 165.982 18.6808 164.628 18.8104L164.593 16.7652C166.204 16.5725 167.721 16.7101 169.144 17.1779C170.048 17.4752 170.818 17.8682 171.453 18.357C172.092 18.8324 172.537 19.3619 172.788 19.9452C173.056 20.5196 173.096 21.0928 172.908 21.6647C172.737 22.1834 172.425 22.5964 171.97 22.9038C171.52 23.1979 170.978 23.3661 170.345 23.4086Z" fill="#616161"/>
<path d="M63.1406 168.375C62.5156 168.375 61.9505 168.325 61.4453 168.226C60.9401 168.133 60.4714 167.966 60.0391 167.726V165.609C60.3984 165.807 60.7422 165.961 61.0703 166.07C61.3984 166.179 61.7109 166.255 62.0078 166.297C62.3099 166.338 62.5964 166.359 62.8672 166.359C63.4714 166.359 63.9974 166.25 64.4453 166.031C64.8932 165.812 65.2734 165.487 65.5859 165.054C65.8984 164.622 66.1562 164.088 66.3594 163.453H62.1484L62.5625 161.469H66.6797C66.6901 161.401 66.6953 161.336 66.6953 161.273C66.6953 161.205 66.6953 161.138 66.6953 161.07C66.6953 160.534 66.6198 160.086 66.4688 159.726C66.3229 159.367 66.099 159.096 65.7969 158.914C65.5 158.726 65.1276 158.633 64.6797 158.633C64.2161 158.633 63.7995 158.687 63.4297 158.797C63.0651 158.901 62.6432 159.049 62.1641 159.242L61.5391 157.32C62.0443 157.107 62.5885 156.937 63.1719 156.812C63.7552 156.682 64.3568 156.617 64.9766 156.617C65.888 156.617 66.651 156.791 67.2656 157.14C67.8802 157.484 68.3438 157.987 68.6562 158.648C68.9688 159.304 69.125 160.099 69.125 161.031C69.125 161.719 69.0521 162.411 68.9062 163.109C68.7656 163.802 68.5443 164.463 68.2422 165.094C67.9401 165.724 67.5521 166.286 67.0781 166.781C66.6094 167.271 66.0469 167.659 65.3906 167.945C64.7396 168.232 63.9896 168.375 63.1406 168.375ZM69.9297 168.219L71.7969 159.484H74.1562L73.2891 163.547L76.7266 159.484H79.4141L75.6719 163.867L77.8359 168.219H75.1953L73.1953 163.961L72.2812 168.219H69.9297ZM82.8438 168.375C82.2396 168.375 81.6901 168.268 81.1953 168.054C80.7057 167.836 80.3151 167.492 80.0234 167.023C79.737 166.549 79.5938 165.929 79.5938 165.164C79.5938 164.534 79.6589 163.929 79.7891 163.351C79.9193 162.773 80.112 162.239 80.3672 161.75C80.6224 161.26 80.9375 160.836 81.3125 160.476C81.6875 160.112 82.1172 159.828 82.6016 159.625C83.0859 159.422 83.625 159.32 84.2188 159.32C84.7396 159.32 85.2057 159.37 85.6172 159.469C86.0339 159.567 86.4219 159.705 86.7812 159.883L86.0625 161.672C85.7812 161.552 85.5052 161.448 85.2344 161.359C84.9635 161.271 84.6562 161.226 84.3125 161.226C83.9427 161.226 83.612 161.333 83.3203 161.547C83.0339 161.76 82.7891 162.047 82.5859 162.406C82.388 162.765 82.237 163.169 82.1328 163.617C82.0286 164.06 81.9766 164.51 81.9766 164.969C81.9766 165.297 82.0286 165.573 82.1328 165.797C82.2422 166.021 82.3958 166.19 82.5938 166.304C82.7969 166.419 83.0391 166.476 83.3203 166.476C83.7161 166.476 84.0833 166.416 84.4219 166.297C84.7604 166.172 85.1094 166.018 85.4688 165.836V167.758C85.1042 167.95 84.7109 168.101 84.2891 168.211C83.8672 168.32 83.3854 168.375 82.8438 168.375ZM86.9141 168.219L88.7656 159.484H90.5625L90.3984 161.101H90.4688C90.6927 160.752 90.9401 160.445 91.2109 160.179C91.4818 159.914 91.7812 159.705 92.1094 159.554C92.4427 159.398 92.8125 159.32 93.2188 159.32C93.7188 159.32 94.1354 159.424 94.4688 159.633C94.8073 159.836 95.0599 160.125 95.2266 160.5C95.3932 160.875 95.4766 161.32 95.4766 161.836C95.4766 162.028 95.4609 162.245 95.4297 162.484C95.3984 162.724 95.3542 162.976 95.2969 163.242L94.2578 168.219H91.9062L92.9766 163.117C93.0182 162.94 93.0495 162.773 93.0703 162.617C93.0911 162.461 93.1016 162.317 93.1016 162.187C93.1016 161.859 93.0312 161.617 92.8906 161.461C92.75 161.304 92.5391 161.226 92.2578 161.226C91.9036 161.226 91.5833 161.38 91.2969 161.687C91.0104 161.989 90.7604 162.396 90.5469 162.906C90.3385 163.416 90.1667 163.982 90.0312 164.601L89.2656 168.219H86.9141ZM95.7656 172.062L98.4375 159.484H100.234L100.102 160.812H100.172C100.354 160.562 100.565 160.323 100.805 160.094C101.044 159.864 101.318 159.679 101.625 159.539C101.932 159.393 102.273 159.32 102.648 159.32C103.07 159.32 103.469 159.424 103.844 159.633C104.219 159.841 104.523 160.179 104.758 160.648C104.992 161.112 105.109 161.732 105.109 162.508C105.109 163.075 105.047 163.64 104.922 164.203C104.802 164.76 104.625 165.291 104.391 165.797C104.161 166.297 103.88 166.742 103.547 167.133C103.219 167.518 102.846 167.823 102.43 168.047C102.013 168.265 101.557 168.375 101.062 168.375C100.708 168.375 100.409 168.32 100.164 168.211C99.9193 168.096 99.7109 167.942 99.5391 167.75C99.3724 167.557 99.2188 167.341 99.0781 167.101H99.0156C98.9844 167.523 98.9427 167.911 98.8906 168.265C98.8385 168.625 98.7682 169.005 98.6797 169.406L98.1172 172.062H95.7656ZM100.664 166.476C100.893 166.476 101.112 166.403 101.32 166.258C101.529 166.107 101.719 165.903 101.891 165.648C102.062 165.388 102.211 165.094 102.336 164.765C102.461 164.432 102.557 164.08 102.625 163.711C102.693 163.341 102.727 162.971 102.727 162.601C102.727 162.143 102.641 161.799 102.469 161.57C102.302 161.341 102.047 161.226 101.703 161.226C101.453 161.226 101.224 161.291 101.016 161.422C100.812 161.552 100.633 161.726 100.477 161.945C100.32 162.164 100.185 162.411 100.07 162.687C99.9557 162.958 99.862 163.239 99.7891 163.531C99.7161 163.823 99.6615 164.104 99.625 164.375C99.5938 164.646 99.5781 164.888 99.5781 165.101C99.5781 165.513 99.6745 165.846 99.8672 166.101C100.065 166.351 100.331 166.476 100.664 166.476ZM109.984 168.375C109.302 168.375 108.701 168.252 108.18 168.008C107.664 167.758 107.26 167.383 106.969 166.883C106.677 166.383 106.531 165.755 106.531 165C106.531 164.271 106.635 163.567 106.844 162.89C107.052 162.208 107.362 161.599 107.773 161.062C108.19 160.526 108.701 160.101 109.305 159.789C109.914 159.476 110.617 159.32 111.414 159.32C112.393 159.32 113.125 159.544 113.609 159.992C114.099 160.435 114.344 161.005 114.344 161.703C114.344 162.161 114.24 162.578 114.031 162.953C113.828 163.328 113.518 163.651 113.102 163.922C112.685 164.187 112.161 164.393 111.531 164.539C110.901 164.679 110.161 164.75 109.312 164.75H108.914C108.909 164.812 108.904 164.867 108.898 164.914C108.898 164.961 108.898 165.013 108.898 165.07C108.898 165.539 109.034 165.911 109.305 166.187C109.576 166.463 109.958 166.601 110.453 166.601C110.911 166.601 111.328 166.549 111.703 166.445C112.078 166.341 112.521 166.169 113.031 165.929V167.703C112.573 167.927 112.107 168.096 111.633 168.211C111.159 168.32 110.609 168.375 109.984 168.375ZM109.172 163.164H109.523C110.128 163.164 110.617 163.099 110.992 162.969C111.372 162.838 111.648 162.666 111.82 162.453C111.997 162.239 112.086 162.008 112.086 161.758C112.086 161.508 112.013 161.323 111.867 161.203C111.727 161.078 111.526 161.015 111.266 161.015C110.974 161.015 110.685 161.107 110.398 161.289C110.112 161.471 109.859 161.724 109.641 162.047C109.422 162.37 109.266 162.742 109.172 163.164ZM118.703 168.375C118.099 168.375 117.549 168.268 117.055 168.054C116.565 167.836 116.174 167.492 115.883 167.023C115.596 166.549 115.453 165.929 115.453 165.164C115.453 164.534 115.518 163.929 115.648 163.351C115.779 162.773 115.971 162.239 116.227 161.75C116.482 161.26 116.797 160.836 117.172 160.476C117.547 160.112 117.977 159.828 118.461 159.625C118.945 159.422 119.484 159.32 120.078 159.32C120.599 159.32 121.065 159.37 121.477 159.469C121.893 159.567 122.281 159.705 122.641 159.883L121.922 161.672C121.641 161.552 121.365 161.448 121.094 161.359C120.823 161.271 120.516 161.226 120.172 161.226C119.802 161.226 119.471 161.333 119.18 161.547C118.893 161.76 118.648 162.047 118.445 162.406C118.247 162.765 118.096 163.169 117.992 163.617C117.888 164.06 117.836 164.51 117.836 164.969C117.836 165.297 117.888 165.573 117.992 165.797C118.102 166.021 118.255 166.19 118.453 166.304C118.656 166.419 118.898 166.476 119.18 166.476C119.576 166.476 119.943 166.416 120.281 166.297C120.62 166.172 120.969 166.018 121.328 165.836V167.758C120.964 167.95 120.57 168.101 120.148 168.211C119.727 168.32 119.245 168.375 118.703 168.375ZM126.438 168.375C125.833 168.375 125.284 168.268 124.789 168.054C124.299 167.836 123.909 167.492 123.617 167.023C123.331 166.549 123.188 165.929 123.188 165.164C123.188 164.534 123.253 163.929 123.383 163.351C123.513 162.773 123.706 162.239 123.961 161.75C124.216 161.26 124.531 160.836 124.906 160.476C125.281 160.112 125.711 159.828 126.195 159.625C126.68 159.422 127.219 159.32 127.812 159.32C128.333 159.32 128.799 159.37 129.211 159.469C129.628 159.567 130.016 159.705 130.375 159.883L129.656 161.672C129.375 161.552 129.099 161.448 128.828 161.359C128.557 161.271 128.25 161.226 127.906 161.226C127.536 161.226 127.206 161.333 126.914 161.547C126.628 161.76 126.383 162.047 126.18 162.406C125.982 162.765 125.831 163.169 125.727 163.617C125.622 164.06 125.57 164.51 125.57 164.969C125.57 165.297 125.622 165.573 125.727 165.797C125.836 166.021 125.99 166.19 126.188 166.304C126.391 166.419 126.633 166.476 126.914 166.476C127.31 166.476 127.677 166.416 128.016 166.297C128.354 166.172 128.703 166.018 129.062 165.836V167.758C128.698 167.95 128.305 168.101 127.883 168.211C127.461 168.32 126.979 168.375 126.438 168.375ZM130.539 164.906L130.953 162.953H135.047L134.633 164.906H130.539ZM138.547 168.375C138.125 168.375 137.727 168.271 137.352 168.062C136.977 167.854 136.669 167.518 136.43 167.054C136.195 166.591 136.078 165.976 136.078 165.211C136.078 164.638 136.138 164.07 136.258 163.508C136.383 162.945 136.56 162.414 136.789 161.914C137.023 161.409 137.305 160.963 137.633 160.578C137.966 160.187 138.341 159.88 138.758 159.656C139.18 159.432 139.635 159.32 140.125 159.32C140.495 159.32 140.818 159.375 141.094 159.484C141.37 159.588 141.607 159.737 141.805 159.929C142.003 160.122 142.164 160.346 142.289 160.601H142.352L142.797 159.484H144.609L142.75 168.219H140.992L141.102 167.086H141.039C140.831 167.341 140.604 167.565 140.359 167.758C140.115 167.95 139.844 168.101 139.547 168.211C139.25 168.32 138.917 168.375 138.547 168.375ZM139.469 166.476C139.792 166.476 140.091 166.351 140.367 166.101C140.643 165.846 140.88 165.515 141.078 165.109C141.276 164.703 141.417 164.273 141.5 163.82C141.542 163.612 141.57 163.403 141.586 163.195C141.607 162.982 141.617 162.752 141.617 162.508C141.617 162.138 141.518 161.833 141.32 161.594C141.128 161.349 140.862 161.226 140.523 161.226C140.294 161.226 140.076 161.302 139.867 161.453C139.664 161.599 139.477 161.802 139.305 162.062C139.133 162.317 138.982 162.612 138.852 162.945C138.727 163.273 138.63 163.622 138.562 163.992C138.495 164.362 138.461 164.732 138.461 165.101C138.461 165.554 138.549 165.898 138.727 166.133C138.904 166.362 139.151 166.476 139.469 166.476ZM145.18 168.219L147.047 159.484H149.422L148.695 162.844H151.422L152.125 159.484H154.477L152.617 168.219H150.266L151.016 164.617H148.312L147.547 168.219H145.18ZM157.922 168.375C157.5 168.375 157.102 168.271 156.727 168.062C156.352 167.854 156.044 167.518 155.805 167.054C155.57 166.591 155.453 165.976 155.453 165.211C155.453 164.638 155.513 164.07 155.633 163.508C155.758 162.945 155.935 162.414 156.164 161.914C156.398 161.409 156.68 160.963 157.008 160.578C157.341 160.187 157.716 159.88 158.133 159.656C158.555 159.432 159.01 159.32 159.5 159.32C159.87 159.32 160.193 159.375 160.469 159.484C160.745 159.588 160.982 159.737 161.18 159.929C161.378 160.122 161.539 160.346 161.664 160.601H161.727L162.172 159.484H163.984L162.125 168.219H160.367L160.477 167.086H160.414C160.206 167.341 159.979 167.565 159.734 167.758C159.49 167.95 159.219 168.101 158.922 168.211C158.625 168.32 158.292 168.375 157.922 168.375ZM158.844 166.476C159.167 166.476 159.466 166.351 159.742 166.101C160.018 165.846 160.255 165.515 160.453 165.109C160.651 164.703 160.792 164.273 160.875 163.82C160.917 163.612 160.945 163.403 160.961 163.195C160.982 162.982 160.992 162.752 160.992 162.508C160.992 162.138 160.893 161.833 160.695 161.594C160.503 161.349 160.237 161.226 159.898 161.226C159.669 161.226 159.451 161.302 159.242 161.453C159.039 161.599 158.852 161.802 158.68 162.062C158.508 162.317 158.357 162.612 158.227 162.945C158.102 163.273 158.005 163.622 157.938 163.992C157.87 164.362 157.836 164.732 157.836 165.101C157.836 165.554 157.924 165.898 158.102 166.133C158.279 166.362 158.526 166.476 158.844 166.476ZM164.969 168.375C164.729 168.375 164.521 168.359 164.344 168.328C164.167 168.302 163.987 168.255 163.805 168.187V166.25C163.914 166.297 164.021 166.33 164.125 166.351C164.229 166.367 164.341 166.375 164.461 166.375C164.664 166.375 164.841 166.302 164.992 166.156C165.143 166.01 165.279 165.812 165.398 165.562C165.523 165.307 165.643 165.015 165.758 164.687C165.872 164.359 165.995 164.01 166.125 163.64C166.385 162.906 166.641 162.268 166.891 161.726C167.146 161.179 167.445 160.729 167.789 160.375C168.133 160.021 168.562 159.758 169.078 159.586C169.599 159.409 170.255 159.32 171.047 159.32C171.589 159.32 172.099 159.367 172.578 159.461C173.057 159.554 173.448 159.659 173.75 159.773L171.977 168.219H169.625L171.094 161.304C171.016 161.289 170.935 161.276 170.852 161.265C170.773 161.25 170.69 161.242 170.602 161.242C170.174 161.242 169.831 161.364 169.57 161.609C169.315 161.854 169.089 162.219 168.891 162.703C168.693 163.182 168.474 163.778 168.234 164.492C168.057 165.028 167.878 165.531 167.695 166C167.518 166.469 167.312 166.883 167.078 167.242C166.849 167.596 166.565 167.875 166.227 168.078C165.888 168.276 165.469 168.375 164.969 168.375ZM177.195 168.375C176.695 168.375 176.281 168.273 175.953 168.07C175.625 167.867 175.38 167.578 175.219 167.203C175.057 166.823 174.977 166.377 174.977 165.867C174.977 165.674 174.992 165.427 175.023 165.125C175.055 164.823 175.102 164.515 175.164 164.203L176.156 159.484H178.508L177.438 164.586C177.401 164.763 177.37 164.929 177.344 165.086C177.323 165.242 177.312 165.385 177.312 165.515C177.312 165.844 177.383 166.086 177.523 166.242C177.664 166.398 177.875 166.476 178.156 166.476C178.516 166.476 178.836 166.325 179.117 166.023C179.404 165.716 179.654 165.307 179.867 164.797C180.081 164.281 180.253 163.716 180.383 163.101L181.148 159.484H183.5L181.648 168.219H179.852L180.016 166.601H179.93C179.706 166.945 179.458 167.252 179.188 167.523C178.922 167.789 178.625 167.997 178.297 168.148C177.969 168.299 177.602 168.375 177.195 168.375ZM186.883 168.375C186.294 168.375 185.742 168.317 185.227 168.203C184.711 168.088 184.294 167.95 183.977 167.789V165.851C184.331 166.028 184.747 166.187 185.227 166.328C185.711 166.469 186.237 166.539 186.805 166.539C187.174 166.539 187.51 166.505 187.812 166.437C188.12 166.37 188.365 166.255 188.547 166.094C188.729 165.927 188.82 165.698 188.82 165.406C188.82 165.109 188.706 164.883 188.477 164.726C188.247 164.57 187.904 164.492 187.445 164.492H186.07L186.422 162.844H187.398C187.841 162.844 188.211 162.815 188.508 162.758C188.805 162.695 189.026 162.594 189.172 162.453C189.323 162.307 189.398 162.107 189.398 161.851C189.398 161.607 189.31 161.419 189.133 161.289C188.956 161.153 188.643 161.086 188.195 161.086C187.846 161.086 187.453 161.143 187.016 161.258C186.583 161.372 186.156 161.521 185.734 161.703L185.172 159.992C185.682 159.794 186.221 159.633 186.789 159.508C187.357 159.383 187.964 159.32 188.609 159.32C189.208 159.32 189.745 159.393 190.219 159.539C190.693 159.685 191.065 159.916 191.336 160.234C191.612 160.547 191.75 160.963 191.75 161.484C191.75 161.906 191.659 162.258 191.477 162.539C191.299 162.82 191.057 163.049 190.75 163.226C190.448 163.398 190.104 163.536 189.719 163.64V163.703C190.151 163.823 190.505 164.023 190.781 164.304C191.062 164.586 191.203 164.974 191.203 165.469C191.203 166.047 191.049 166.554 190.742 166.992C190.435 167.429 189.964 167.771 189.328 168.015C188.693 168.255 187.878 168.375 186.883 168.375ZM98.9688 191.219L104.953 179.797H107.867L109.016 191.219H106.695L106.508 188.5H102.812L101.469 191.219H98.9688ZM103.789 186.469H106.391L106.188 183.523C106.167 183.211 106.146 182.896 106.125 182.578C106.104 182.26 106.099 181.935 106.109 181.601H106.07C105.971 181.888 105.857 182.174 105.727 182.461C105.596 182.747 105.451 183.052 105.289 183.375L103.789 186.469ZM110.023 195.062C109.742 195.062 109.513 195.047 109.336 195.015C109.154 194.984 109 194.95 108.875 194.914V193.039C109.01 193.065 109.151 193.088 109.297 193.109C109.438 193.13 109.599 193.14 109.781 193.14C110.276 193.14 110.685 192.995 111.008 192.703C111.331 192.416 111.612 192.049 111.852 191.601L112.055 191.219L110.773 182.484H113.078L113.516 186.531C113.542 186.771 113.56 187.028 113.57 187.304C113.586 187.575 113.596 187.844 113.602 188.109C113.607 188.375 113.609 188.612 113.609 188.82H113.672C113.745 188.643 113.818 188.445 113.891 188.226C113.969 188.008 114.057 187.771 114.156 187.515C114.26 187.255 114.383 186.979 114.523 186.687L116.555 182.484H119.109L113.797 192.469C113.484 193.057 113.133 193.544 112.742 193.929C112.357 194.315 111.938 194.599 111.484 194.781C111.031 194.969 110.544 195.062 110.023 195.062ZM122.367 191.375C121.586 191.375 120.945 191.224 120.445 190.922C119.951 190.62 119.583 190.208 119.344 189.687C119.109 189.166 118.992 188.578 118.992 187.922C118.992 187.323 119.052 186.771 119.172 186.265C119.292 185.755 119.461 185.299 119.68 184.898C119.904 184.497 120.169 184.156 120.477 183.875C120.789 183.594 121.138 183.38 121.523 183.234C121.909 183.083 122.323 183.008 122.766 183.008C123.13 183.008 123.451 183.073 123.727 183.203C124.003 183.328 124.24 183.5 124.438 183.719C124.641 183.932 124.81 184.172 124.945 184.437H125.008C125.018 184.349 125.023 184.255 125.023 184.156C125.023 184.052 125.023 183.974 125.023 183.922C125.023 182.875 124.862 182.109 124.539 181.625C124.216 181.14 123.69 180.898 122.961 180.898C122.716 180.898 122.448 180.927 122.156 180.984C121.87 181.041 121.609 181.12 121.375 181.219L120.883 179.359C121.221 179.234 121.599 179.14 122.016 179.078C122.432 179.01 122.87 178.976 123.328 178.976C124.286 178.976 125.062 179.182 125.656 179.594C126.255 180 126.693 180.575 126.969 181.32C127.25 182.065 127.391 182.948 127.391 183.969C127.391 184.573 127.349 185.174 127.266 185.773C127.188 186.367 127.065 186.94 126.898 187.492C126.732 188.044 126.516 188.557 126.25 189.031C125.984 189.5 125.664 189.911 125.289 190.265C124.919 190.614 124.492 190.888 124.008 191.086C123.523 191.278 122.977 191.375 122.367 191.375ZM122.5 189.461C122.766 189.461 123.005 189.398 123.219 189.273C123.432 189.148 123.62 188.976 123.781 188.758C123.948 188.539 124.091 188.284 124.211 187.992C124.336 187.7 124.44 187.388 124.523 187.054C124.612 186.716 124.682 186.37 124.734 186.015C124.667 185.786 124.568 185.583 124.438 185.406C124.312 185.224 124.156 185.08 123.969 184.976C123.786 184.872 123.573 184.82 123.328 184.82C123.083 184.82 122.859 184.87 122.656 184.969C122.453 185.067 122.271 185.211 122.109 185.398C121.948 185.58 121.81 185.802 121.695 186.062C121.586 186.323 121.503 186.617 121.445 186.945C121.388 187.268 121.359 187.62 121.359 188C121.359 188.458 121.458 188.817 121.656 189.078C121.854 189.333 122.135 189.461 122.5 189.461ZM131 191.375C130.5 191.375 130.086 191.273 129.758 191.07C129.43 190.867 129.185 190.578 129.023 190.203C128.862 189.823 128.781 189.377 128.781 188.867C128.781 188.674 128.797 188.427 128.828 188.125C128.859 187.823 128.906 187.515 128.969 187.203L129.961 182.484H132.312L131.242 187.586C131.206 187.763 131.174 187.929 131.148 188.086C131.128 188.242 131.117 188.385 131.117 188.515C131.117 188.844 131.188 189.086 131.328 189.242C131.469 189.398 131.68 189.476 131.961 189.476C132.32 189.476 132.641 189.325 132.922 189.023C133.208 188.716 133.458 188.307 133.672 187.797C133.885 187.281 134.057 186.716 134.188 186.101L134.953 182.484H137.305L135.453 191.219H133.656L133.82 189.601H133.734C133.51 189.945 133.263 190.252 132.992 190.523C132.727 190.789 132.43 190.997 132.102 191.148C131.773 191.299 131.406 191.375 131 191.375ZM137.875 191.219L139.727 182.484H141.523L141.359 184.101H141.43C141.654 183.752 141.901 183.445 142.172 183.179C142.443 182.914 142.742 182.705 143.07 182.554C143.404 182.398 143.773 182.32 144.18 182.32C144.779 182.32 145.242 182.479 145.57 182.797C145.904 183.109 146.122 183.544 146.227 184.101H146.289C146.508 183.752 146.755 183.445 147.031 183.179C147.307 182.914 147.615 182.705 147.953 182.554C148.297 182.398 148.669 182.32 149.07 182.32C149.799 182.32 150.344 182.547 150.703 183C151.068 183.453 151.25 184.065 151.25 184.836C151.25 185.028 151.234 185.245 151.203 185.484C151.172 185.724 151.128 185.976 151.07 186.242L150.031 191.219H147.68L148.758 186.117C148.799 185.94 148.831 185.773 148.852 185.617C148.872 185.461 148.883 185.317 148.883 185.187C148.883 184.859 148.818 184.617 148.688 184.461C148.562 184.304 148.372 184.226 148.117 184.226C147.846 184.226 147.596 184.312 147.367 184.484C147.138 184.656 146.93 184.896 146.742 185.203C146.555 185.51 146.388 185.867 146.242 186.273C146.102 186.679 145.984 187.117 145.891 187.586L145.141 191.219H142.789L143.859 186.117C143.901 185.94 143.932 185.773 143.953 185.617C143.974 185.461 143.984 185.317 143.984 185.187C143.984 184.859 143.919 184.617 143.789 184.461C143.664 184.304 143.474 184.226 143.219 184.226C142.953 184.226 142.706 184.315 142.477 184.492C142.247 184.669 142.039 184.914 141.852 185.226C141.664 185.534 141.497 185.89 141.352 186.297C141.211 186.703 141.091 187.138 140.992 187.601L140.227 191.219H137.875Z" fill="black"/>
<path d="M141.5 124.219C141.5 133.055 134.337 140.219 125.5 140.219C116.663 140.219 109.5 133.055 109.5 124.219C109.5 115.382 116.663 108.219 125.5 108.219C134.337 108.219 141.5 115.382 141.5 124.219Z" fill="url(#paint4_linear_1_1324)"/>
<path d="M127.531 130.219H125.117V123.609C125.117 123.427 125.12 123.203 125.125 122.937C125.13 122.666 125.138 122.39 125.148 122.109C125.159 121.823 125.169 121.565 125.18 121.336C125.122 121.403 125.005 121.521 124.828 121.687C124.656 121.849 124.495 121.995 124.344 122.125L123.031 123.179L121.867 121.726L125.547 118.797H127.531V130.219Z" fill="white"/>
<path d="M976.28 168.219L978.694 156.797H982.022C982.751 156.797 983.387 156.883 983.928 157.054C984.47 157.221 984.889 157.492 985.186 157.867C985.488 158.237 985.639 158.726 985.639 159.336C985.639 159.851 985.54 160.31 985.342 160.711C985.15 161.107 984.868 161.437 984.499 161.703C984.129 161.963 983.678 162.151 983.147 162.265V162.328C983.668 162.463 984.082 162.716 984.389 163.086C984.702 163.45 984.858 163.919 984.858 164.492C984.858 165.357 984.66 166.065 984.264 166.617C983.868 167.164 983.329 167.567 982.647 167.828C981.97 168.088 981.207 168.219 980.358 168.219H976.28ZM979.084 166.219H980.491C980.881 166.219 981.222 166.153 981.514 166.023C981.806 165.893 982.032 165.7 982.194 165.445C982.36 165.19 982.444 164.877 982.444 164.508C982.444 164.107 982.324 163.797 982.084 163.578C981.85 163.354 981.493 163.242 981.014 163.242H979.725L979.084 166.219ZM980.124 161.32H981.288C981.668 161.32 981.999 161.271 982.28 161.172C982.566 161.067 982.788 160.909 982.944 160.695C983.1 160.476 983.178 160.195 983.178 159.851C983.178 159.497 983.069 159.232 982.85 159.054C982.631 158.872 982.298 158.781 981.85 158.781H980.663L980.124 161.32ZM989.834 168.375C989.178 168.375 988.597 168.239 988.092 167.969C987.592 167.698 987.199 167.312 986.913 166.812C986.631 166.307 986.491 165.708 986.491 165.015C986.491 164.396 986.551 163.804 986.67 163.242C986.795 162.674 986.98 162.153 987.225 161.679C987.475 161.2 987.785 160.786 988.155 160.437C988.53 160.083 988.965 159.81 989.459 159.617C989.954 159.419 990.512 159.32 991.131 159.32C991.808 159.32 992.394 159.458 992.889 159.734C993.384 160.005 993.767 160.398 994.038 160.914C994.308 161.429 994.444 162.052 994.444 162.781C994.444 163.375 994.384 163.948 994.264 164.5C994.15 165.047 993.972 165.557 993.733 166.031C993.493 166.5 993.191 166.911 992.827 167.265C992.462 167.614 992.03 167.888 991.53 168.086C991.035 168.278 990.47 168.375 989.834 168.375ZM990.03 166.461C990.29 166.461 990.527 166.396 990.741 166.265C990.954 166.13 991.144 165.945 991.311 165.711C991.478 165.471 991.616 165.198 991.725 164.89C991.84 164.578 991.926 164.242 991.983 163.883C992.045 163.523 992.077 163.156 992.077 162.781C992.077 162.484 992.04 162.221 991.967 161.992C991.9 161.758 991.782 161.575 991.616 161.445C991.454 161.31 991.235 161.242 990.959 161.242C990.673 161.242 990.415 161.323 990.186 161.484C989.962 161.64 989.767 161.851 989.6 162.117C989.433 162.383 989.295 162.679 989.186 163.008C989.077 163.336 988.993 163.674 988.936 164.023C988.884 164.367 988.858 164.698 988.858 165.015C988.858 165.489 988.954 165.849 989.147 166.094C989.34 166.338 989.634 166.461 990.03 166.461ZM999.1 168.375C998.496 168.375 997.946 168.268 997.452 168.054C996.962 167.836 996.571 167.492 996.28 167.023C995.993 166.549 995.85 165.929 995.85 165.164C995.85 164.534 995.915 163.929 996.045 163.351C996.176 162.773 996.368 162.239 996.624 161.75C996.879 161.26 997.194 160.836 997.569 160.476C997.944 160.112 998.374 159.828 998.858 159.625C999.342 159.422 999.881 159.32 1000.48 159.32C1001 159.32 1001.46 159.37 1001.87 159.469C1002.29 159.567 1002.68 159.705 1003.04 159.883L1002.32 161.672C1002.04 161.552 1001.76 161.448 1001.49 161.359C1001.22 161.271 1000.91 161.226 1000.57 161.226C1000.2 161.226 999.868 161.333 999.577 161.547C999.29 161.76 999.045 162.047 998.842 162.406C998.644 162.765 998.493 163.169 998.389 163.617C998.285 164.06 998.233 164.51 998.233 164.969C998.233 165.297 998.285 165.573 998.389 165.797C998.499 166.021 998.652 166.19 998.85 166.304C999.053 166.419 999.295 166.476 999.577 166.476C999.972 166.476 1000.34 166.416 1000.68 166.297C1001.02 166.172 1001.37 166.018 1001.73 165.836V167.758C1001.36 167.95 1000.97 168.101 1000.55 168.211C1000.12 168.32 999.642 168.375 999.1 168.375ZM1006.83 168.375C1006.23 168.375 1005.68 168.268 1005.19 168.054C1004.7 167.836 1004.31 167.492 1004.01 167.023C1003.73 166.549 1003.58 165.929 1003.58 165.164C1003.58 164.534 1003.65 163.929 1003.78 163.351C1003.91 162.773 1004.1 162.239 1004.36 161.75C1004.61 161.26 1004.93 160.836 1005.3 160.476C1005.68 160.112 1006.11 159.828 1006.59 159.625C1007.08 159.422 1007.62 159.32 1008.21 159.32C1008.73 159.32 1009.2 159.37 1009.61 159.469C1010.02 159.567 1010.41 159.705 1010.77 159.883L1010.05 161.672C1009.77 161.552 1009.5 161.448 1009.23 161.359C1008.95 161.271 1008.65 161.226 1008.3 161.226C1007.93 161.226 1007.6 161.333 1007.31 161.547C1007.02 161.76 1006.78 162.047 1006.58 162.406C1006.38 162.765 1006.23 163.169 1006.12 163.617C1006.02 164.06 1005.97 164.51 1005.97 164.969C1005.97 165.297 1006.02 165.573 1006.12 165.797C1006.23 166.021 1006.39 166.19 1006.58 166.304C1006.79 166.419 1007.03 166.476 1007.31 166.476C1007.71 166.476 1008.07 166.416 1008.41 166.297C1008.75 166.172 1009.1 166.018 1009.46 165.836V167.758C1009.09 167.95 1008.7 168.101 1008.28 168.211C1007.86 168.32 1007.38 168.375 1006.83 168.375ZM1010.9 168.219L1012.76 159.484H1014.55L1014.39 161.101H1014.46C1014.68 160.752 1014.93 160.445 1015.2 160.179C1015.47 159.914 1015.77 159.705 1016.1 159.554C1016.43 159.398 1016.8 159.32 1017.21 159.32C1017.81 159.32 1018.27 159.479 1018.6 159.797C1018.93 160.109 1019.15 160.544 1019.26 161.101H1019.32C1019.54 160.752 1019.78 160.445 1020.06 160.179C1020.34 159.914 1020.64 159.705 1020.98 159.554C1021.33 159.398 1021.7 159.32 1022.1 159.32C1022.83 159.32 1023.37 159.547 1023.73 160C1024.1 160.453 1024.28 161.065 1024.28 161.836C1024.28 162.028 1024.26 162.245 1024.23 162.484C1024.2 162.724 1024.16 162.976 1024.1 163.242L1023.06 168.219H1020.71L1021.79 163.117C1021.83 162.94 1021.86 162.773 1021.88 162.617C1021.9 162.461 1021.91 162.317 1021.91 162.187C1021.91 161.859 1021.85 161.617 1021.72 161.461C1021.59 161.304 1021.4 161.226 1021.15 161.226C1020.88 161.226 1020.63 161.312 1020.4 161.484C1020.17 161.656 1019.96 161.896 1019.77 162.203C1019.58 162.51 1019.42 162.867 1019.27 163.273C1019.13 163.679 1019.01 164.117 1018.92 164.586L1018.17 168.219H1015.82L1016.89 163.117C1016.93 162.94 1016.96 162.773 1016.98 162.617C1017 162.461 1017.01 162.317 1017.01 162.187C1017.01 161.859 1016.95 161.617 1016.82 161.461C1016.69 161.304 1016.5 161.226 1016.25 161.226C1015.98 161.226 1015.74 161.315 1015.51 161.492C1015.28 161.669 1015.07 161.914 1014.88 162.226C1014.69 162.534 1014.53 162.89 1014.38 163.297C1014.24 163.703 1014.12 164.138 1014.02 164.601L1013.26 168.219H1010.9ZM1028.27 168.375C1027.85 168.375 1027.45 168.271 1027.08 168.062C1026.7 167.854 1026.39 167.518 1026.15 167.054C1025.92 166.591 1025.8 165.976 1025.8 165.211C1025.8 164.638 1025.86 164.07 1025.98 163.508C1026.11 162.945 1026.28 162.414 1026.51 161.914C1026.75 161.409 1027.03 160.963 1027.36 160.578C1027.69 160.187 1028.07 159.88 1028.48 159.656C1028.9 159.432 1029.36 159.32 1029.85 159.32C1030.22 159.32 1030.54 159.375 1030.82 159.484C1031.09 159.588 1031.33 159.737 1031.53 159.929C1031.73 160.122 1031.89 160.346 1032.01 160.601H1032.08L1032.52 159.484H1034.33L1032.48 168.219H1030.72L1030.83 167.086H1030.76C1030.56 167.341 1030.33 167.565 1030.08 167.758C1029.84 167.95 1029.57 168.101 1029.27 168.211C1028.98 168.32 1028.64 168.375 1028.27 168.375ZM1029.19 166.476C1029.52 166.476 1029.82 166.351 1030.09 166.101C1030.37 165.846 1030.61 165.515 1030.8 165.109C1031 164.703 1031.14 164.273 1031.23 163.82C1031.27 163.612 1031.3 163.403 1031.31 163.195C1031.33 162.982 1031.34 162.752 1031.34 162.508C1031.34 162.138 1031.24 161.833 1031.05 161.594C1030.85 161.349 1030.59 161.226 1030.25 161.226C1030.02 161.226 1029.8 161.302 1029.59 161.453C1029.39 161.599 1029.2 161.802 1029.03 162.062C1028.86 162.317 1028.71 162.612 1028.58 162.945C1028.45 163.273 1028.36 163.622 1028.29 163.992C1028.22 164.362 1028.19 164.732 1028.19 165.101C1028.19 165.554 1028.27 165.898 1028.45 166.133C1028.63 166.362 1028.88 166.476 1029.19 166.476ZM1034.9 168.219L1036.77 159.484H1039.15L1038.42 162.844H1041.15L1041.85 159.484H1044.2L1042.34 168.219H1039.99L1040.74 164.617H1038.04L1037.27 168.219H1034.9ZM1048.52 168.375C1047.87 168.375 1047.28 168.239 1046.78 167.969C1046.28 167.698 1045.89 167.312 1045.6 166.812C1045.32 166.307 1045.18 165.708 1045.18 165.015C1045.18 164.396 1045.24 163.804 1045.36 163.242C1045.48 162.674 1045.67 162.153 1045.91 161.679C1046.16 161.2 1046.47 160.786 1046.84 160.437C1047.22 160.083 1047.65 159.81 1048.15 159.617C1048.64 159.419 1049.2 159.32 1049.82 159.32C1050.5 159.32 1051.08 159.458 1051.58 159.734C1052.07 160.005 1052.45 160.398 1052.73 160.914C1053 161.429 1053.13 162.052 1053.13 162.781C1053.13 163.375 1053.07 163.948 1052.95 164.5C1052.84 165.047 1052.66 165.557 1052.42 166.031C1052.18 166.5 1051.88 166.911 1051.51 167.265C1051.15 167.614 1050.72 167.888 1050.22 168.086C1049.72 168.278 1049.16 168.375 1048.52 168.375ZM1048.72 166.461C1048.98 166.461 1049.21 166.396 1049.43 166.265C1049.64 166.13 1049.83 165.945 1050 165.711C1050.17 165.471 1050.3 165.198 1050.41 164.89C1050.53 164.578 1050.61 164.242 1050.67 163.883C1050.73 163.523 1050.76 163.156 1050.76 162.781C1050.76 162.484 1050.73 162.221 1050.65 161.992C1050.59 161.758 1050.47 161.575 1050.3 161.445C1050.14 161.31 1049.92 161.242 1049.65 161.242C1049.36 161.242 1049.1 161.323 1048.87 161.484C1048.65 161.64 1048.45 161.851 1048.29 162.117C1048.12 162.383 1047.98 162.679 1047.87 163.008C1047.76 163.336 1047.68 163.674 1047.62 164.023C1047.57 164.367 1047.55 164.698 1047.55 165.015C1047.55 165.489 1047.64 165.849 1047.83 166.094C1048.03 166.338 1048.32 166.461 1048.72 166.461ZM1058.26 168.375C1057.47 168.375 1056.8 168.237 1056.24 167.961C1055.68 167.685 1055.26 167.284 1054.97 166.758C1054.68 166.232 1054.54 165.594 1054.54 164.844C1054.54 164.26 1054.6 163.698 1054.73 163.156C1054.87 162.609 1055.07 162.104 1055.33 161.64C1055.59 161.177 1055.91 160.773 1056.3 160.429C1056.69 160.08 1057.15 159.81 1057.66 159.617C1058.18 159.419 1058.75 159.32 1059.39 159.32C1060.01 159.32 1060.56 159.414 1061.03 159.601C1061.5 159.784 1061.87 160.049 1062.14 160.398C1062.4 160.747 1062.54 161.172 1062.54 161.672C1062.54 162.109 1062.45 162.469 1062.29 162.75C1062.13 163.026 1061.9 163.245 1061.62 163.406C1061.33 163.562 1061.01 163.685 1060.65 163.773V163.836C1061.03 163.935 1061.36 164.122 1061.63 164.398C1061.91 164.674 1062.05 165.067 1062.05 165.578C1062.05 166.067 1061.91 166.526 1061.64 166.953C1061.37 167.375 1060.96 167.719 1060.4 167.984C1059.85 168.245 1059.13 168.375 1058.26 168.375ZM1058.3 166.734C1058.59 166.734 1058.84 166.682 1059.05 166.578C1059.25 166.474 1059.41 166.333 1059.51 166.156C1059.62 165.974 1059.68 165.765 1059.68 165.531C1059.68 165.302 1059.62 165.112 1059.51 164.961C1059.4 164.81 1059.23 164.698 1058.99 164.625C1058.75 164.547 1058.44 164.508 1058.05 164.508H1056.9C1056.9 164.586 1056.89 164.669 1056.89 164.758C1056.89 164.841 1056.89 164.922 1056.89 165C1056.89 165.625 1057.02 166.07 1057.3 166.336C1057.57 166.601 1057.9 166.734 1058.3 166.734ZM1057.23 162.89H1058.8C1059.1 162.89 1059.35 162.851 1059.56 162.773C1059.77 162.69 1059.94 162.567 1060.05 162.406C1060.16 162.245 1060.22 162.044 1060.22 161.804C1060.22 161.554 1060.13 161.362 1059.96 161.226C1059.79 161.086 1059.56 161.015 1059.29 161.015C1058.99 161.015 1058.7 161.094 1058.44 161.25C1058.18 161.406 1057.94 161.625 1057.73 161.906C1057.53 162.187 1057.36 162.515 1057.23 162.89ZM1063.71 168.375C1063.47 168.375 1063.26 168.359 1063.08 168.328C1062.91 168.302 1062.73 168.255 1062.55 168.187V166.25C1062.65 166.297 1062.76 166.33 1062.87 166.351C1062.97 166.367 1063.08 166.375 1063.2 166.375C1063.4 166.375 1063.58 166.302 1063.73 166.156C1063.88 166.01 1064.02 165.812 1064.14 165.562C1064.26 165.307 1064.38 165.015 1064.5 164.687C1064.61 164.359 1064.74 164.01 1064.87 163.64C1065.13 162.906 1065.38 162.268 1065.63 161.726C1065.89 161.179 1066.19 160.729 1066.53 160.375C1066.87 160.021 1067.3 159.758 1067.82 159.586C1068.34 159.409 1069 159.32 1069.79 159.32C1070.33 159.32 1070.84 159.367 1071.32 159.461C1071.8 159.554 1072.19 159.659 1072.49 159.773L1070.72 168.219H1068.37L1069.83 161.304C1069.76 161.289 1069.68 161.276 1069.59 161.265C1069.51 161.25 1069.43 161.242 1069.34 161.242C1068.92 161.242 1068.57 161.364 1068.31 161.609C1068.06 161.854 1067.83 162.219 1067.63 162.703C1067.43 163.182 1067.21 163.778 1066.98 164.492C1066.8 165.028 1066.62 165.531 1066.44 166C1066.26 166.469 1066.05 166.883 1065.82 167.242C1065.59 167.596 1065.31 167.875 1064.97 168.078C1064.63 168.276 1064.21 168.375 1063.71 168.375ZM1077.01 168.375C1076.32 168.375 1075.72 168.252 1075.2 168.008C1074.69 167.758 1074.28 167.383 1073.99 166.883C1073.7 166.383 1073.55 165.755 1073.55 165C1073.55 164.271 1073.66 163.567 1073.87 162.89C1074.07 162.208 1074.38 161.599 1074.8 161.062C1075.21 160.526 1075.72 160.101 1076.33 159.789C1076.94 159.476 1077.64 159.32 1078.44 159.32C1079.42 159.32 1080.15 159.544 1080.63 159.992C1081.12 160.435 1081.37 161.005 1081.37 161.703C1081.37 162.161 1081.26 162.578 1081.05 162.953C1080.85 163.328 1080.54 163.651 1080.12 163.922C1079.71 164.187 1079.18 164.393 1078.55 164.539C1077.92 164.679 1077.18 164.75 1076.33 164.75H1075.94C1075.93 164.812 1075.93 164.867 1075.92 164.914C1075.92 164.961 1075.92 165.013 1075.92 165.07C1075.92 165.539 1076.06 165.911 1076.33 166.187C1076.6 166.463 1076.98 166.601 1077.48 166.601C1077.93 166.601 1078.35 166.549 1078.73 166.445C1079.1 166.341 1079.54 166.169 1080.05 165.929V167.703C1079.59 167.927 1079.13 168.096 1078.65 168.211C1078.18 168.32 1077.63 168.375 1077.01 168.375ZM1076.19 163.164H1076.55C1077.15 163.164 1077.64 163.099 1078.01 162.969C1078.39 162.838 1078.67 162.666 1078.84 162.453C1079.02 162.239 1079.11 162.008 1079.11 161.758C1079.11 161.508 1079.03 161.323 1078.89 161.203C1078.75 161.078 1078.55 161.015 1078.29 161.015C1078 161.015 1077.71 161.107 1077.42 161.289C1077.13 161.471 1076.88 161.724 1076.66 162.047C1076.44 162.37 1076.29 162.742 1076.19 163.164ZM1082.06 168.219L1083.93 159.484H1086.3L1085.58 162.844H1088.3L1089.01 159.484H1091.36L1089.5 168.219H1087.15L1087.9 164.617H1085.19L1084.43 168.219H1082.06ZM1094.72 168.375C1094.22 168.375 1093.8 168.273 1093.48 168.07C1093.15 167.867 1092.9 167.578 1092.74 167.203C1092.58 166.823 1092.5 166.377 1092.5 165.867C1092.5 165.674 1092.51 165.427 1092.55 165.125C1092.58 164.823 1092.62 164.515 1092.69 164.203L1093.68 159.484H1096.03L1094.96 164.586C1094.92 164.763 1094.89 164.929 1094.87 165.086C1094.84 165.242 1094.83 165.385 1094.83 165.515C1094.83 165.844 1094.9 166.086 1095.05 166.242C1095.19 166.398 1095.4 166.476 1095.68 166.476C1096.04 166.476 1096.36 166.325 1096.64 166.023C1096.93 165.716 1097.18 165.307 1097.39 164.797C1097.6 164.281 1097.77 163.716 1097.9 163.101L1098.67 159.484H1101.02L1099.17 168.219H1097.37L1097.54 166.601H1097.45C1097.23 166.945 1096.98 167.252 1096.71 167.523C1096.44 167.789 1096.15 167.997 1095.82 168.148C1095.49 168.299 1095.12 168.375 1094.72 168.375ZM1105.46 168.375C1104.78 168.375 1104.18 168.252 1103.65 168.008C1103.14 167.758 1102.74 167.383 1102.44 166.883C1102.15 166.383 1102.01 165.755 1102.01 165C1102.01 164.271 1102.11 163.567 1102.32 162.89C1102.53 162.208 1102.84 161.599 1103.25 161.062C1103.67 160.526 1104.18 160.101 1104.78 159.789C1105.39 159.476 1106.09 159.32 1106.89 159.32C1107.87 159.32 1108.6 159.544 1109.08 159.992C1109.57 160.435 1109.82 161.005 1109.82 161.703C1109.82 162.161 1109.71 162.578 1109.51 162.953C1109.3 163.328 1108.99 163.651 1108.58 163.922C1108.16 164.187 1107.64 164.393 1107.01 164.539C1106.38 164.679 1105.64 164.75 1104.79 164.75H1104.39C1104.38 164.812 1104.38 164.867 1104.37 164.914C1104.37 164.961 1104.37 165.013 1104.37 165.07C1104.37 165.539 1104.51 165.911 1104.78 166.187C1105.05 166.463 1105.43 166.601 1105.93 166.601C1106.39 166.601 1106.8 166.549 1107.18 166.445C1107.55 166.341 1108 166.169 1108.51 165.929V167.703C1108.05 167.927 1107.58 168.096 1107.11 168.211C1106.63 168.32 1106.08 168.375 1105.46 168.375ZM1104.65 163.164H1105C1105.6 163.164 1106.09 163.099 1106.47 162.969C1106.85 162.838 1107.12 162.666 1107.3 162.453C1107.47 162.239 1107.56 162.008 1107.56 161.758C1107.56 161.508 1107.49 161.323 1107.34 161.203C1107.2 161.078 1107 161.015 1106.74 161.015C1106.45 161.015 1106.16 161.107 1105.87 161.289C1105.59 161.471 1105.33 161.724 1105.12 162.047C1104.9 162.37 1104.74 162.742 1104.65 163.164ZM983.202 191.375C982.702 191.375 982.288 191.273 981.959 191.07C981.631 190.867 981.387 190.578 981.225 190.203C981.064 189.823 980.983 189.377 980.983 188.867C980.983 188.674 980.999 188.427 981.03 188.125C981.061 187.823 981.108 187.515 981.17 187.203L982.163 182.484H984.514L983.444 187.586C983.407 187.763 983.376 187.929 983.35 188.086C983.329 188.242 983.319 188.385 983.319 188.515C983.319 188.844 983.389 189.086 983.53 189.242C983.67 189.398 983.881 189.476 984.163 189.476C984.522 189.476 984.842 189.325 985.124 189.023C985.41 188.716 985.66 188.307 985.874 187.797C986.087 187.281 986.259 186.716 986.389 186.101L987.155 182.484H989.506L987.655 191.219H985.858L986.022 189.601H985.936C985.712 189.945 985.465 190.252 985.194 190.523C984.928 190.789 984.631 190.997 984.303 191.148C983.975 191.299 983.608 191.375 983.202 191.375ZM997.991 191.375C997.334 191.375 996.754 191.239 996.249 190.969C995.749 190.698 995.355 190.312 995.069 189.812C994.788 189.307 994.647 188.708 994.647 188.015C994.647 187.396 994.707 186.804 994.827 186.242C994.952 185.674 995.137 185.153 995.381 184.679C995.631 184.2 995.941 183.786 996.311 183.437C996.686 183.083 997.121 182.81 997.616 182.617C998.11 182.419 998.668 182.32 999.288 182.32C999.965 182.32 1000.55 182.458 1001.05 182.734C1001.54 183.005 1001.92 183.398 1002.19 183.914C1002.46 184.429 1002.6 185.052 1002.6 185.781C1002.6 186.375 1002.54 186.948 1002.42 187.5C1002.31 188.047 1002.13 188.557 1001.89 189.031C1001.65 189.5 1001.35 189.911 1000.98 190.265C1000.62 190.614 1000.19 190.888 999.686 191.086C999.191 191.278 998.626 191.375 997.991 191.375ZM998.186 189.461C998.446 189.461 998.683 189.396 998.897 189.265C999.11 189.13 999.301 188.945 999.467 188.711C999.634 188.471 999.772 188.198 999.881 187.89C999.996 187.578 1000.08 187.242 1000.14 186.883C1000.2 186.523 1000.23 186.156 1000.23 185.781C1000.23 185.484 1000.2 185.221 1000.12 184.992C1000.06 184.758 999.939 184.575 999.772 184.445C999.61 184.31 999.392 184.242 999.116 184.242C998.829 184.242 998.571 184.323 998.342 184.484C998.118 184.64 997.923 184.851 997.756 185.117C997.59 185.383 997.452 185.679 997.342 186.008C997.233 186.336 997.15 186.674 997.092 187.023C997.04 187.367 997.014 187.698 997.014 188.015C997.014 188.489 997.11 188.849 997.303 189.094C997.496 189.338 997.79 189.461 998.186 189.461ZM1003.59 191.219L1005.44 182.484H1007.24L1007.08 184.101H1007.15C1007.37 183.752 1007.62 183.445 1007.89 183.179C1008.16 182.914 1008.46 182.705 1008.79 182.554C1009.12 182.398 1009.49 182.32 1009.9 182.32C1010.4 182.32 1010.81 182.424 1011.15 182.633C1011.49 182.836 1011.74 183.125 1011.9 183.5C1012.07 183.875 1012.15 184.32 1012.15 184.836C1012.15 185.028 1012.14 185.245 1012.11 185.484C1012.08 185.724 1012.03 185.976 1011.98 186.242L1010.94 191.219H1008.58L1009.65 186.117C1009.7 185.94 1009.73 185.773 1009.75 185.617C1009.77 185.461 1009.78 185.317 1009.78 185.187C1009.78 184.859 1009.71 184.617 1009.57 184.461C1009.43 184.304 1009.22 184.226 1008.94 184.226C1008.58 184.226 1008.26 184.38 1007.98 184.687C1007.69 184.989 1007.44 185.396 1007.23 185.906C1007.02 186.416 1006.84 186.982 1006.71 187.601L1005.94 191.219H1003.59ZM1013.26 191.219L1015.12 182.484H1016.91L1016.75 184.101H1016.82C1017.04 183.752 1017.29 183.445 1017.56 183.179C1017.83 182.914 1018.13 182.705 1018.46 182.554C1018.79 182.398 1019.16 182.32 1019.57 182.32C1020.17 182.32 1020.63 182.479 1020.96 182.797C1021.29 183.109 1021.51 183.544 1021.62 184.101H1021.68C1021.9 183.752 1022.14 183.445 1022.42 183.179C1022.7 182.914 1023 182.705 1023.34 182.554C1023.69 182.398 1024.06 182.32 1024.46 182.32C1025.19 182.32 1025.73 182.547 1026.09 183C1026.46 183.453 1026.64 184.065 1026.64 184.836C1026.64 185.028 1026.62 185.245 1026.59 185.484C1026.56 185.724 1026.52 185.976 1026.46 186.242L1025.42 191.219H1023.07L1024.15 186.117C1024.19 185.94 1024.22 185.773 1024.24 185.617C1024.26 185.461 1024.27 185.317 1024.27 185.187C1024.27 184.859 1024.21 184.617 1024.08 184.461C1023.95 184.304 1023.76 184.226 1023.51 184.226C1023.24 184.226 1022.99 184.312 1022.76 184.484C1022.53 184.656 1022.32 184.896 1022.13 185.203C1021.94 185.51 1021.78 185.867 1021.63 186.273C1021.49 186.679 1021.37 187.117 1021.28 187.586L1020.53 191.219H1018.18L1019.25 186.117C1019.29 185.94 1019.32 185.773 1019.34 185.617C1019.36 185.461 1019.37 185.317 1019.37 185.187C1019.37 184.859 1019.31 184.617 1019.18 184.461C1019.05 184.304 1018.86 184.226 1018.61 184.226C1018.34 184.226 1018.09 184.315 1017.87 184.492C1017.64 184.669 1017.43 184.914 1017.24 185.226C1017.05 185.534 1016.89 185.89 1016.74 186.297C1016.6 186.703 1016.48 187.138 1016.38 187.601L1015.62 191.219H1013.26ZM1030.55 191.375C1030.05 191.375 1029.63 191.273 1029.3 191.07C1028.98 190.867 1028.73 190.578 1028.57 190.203C1028.41 189.823 1028.33 189.377 1028.33 188.867C1028.33 188.674 1028.34 188.427 1028.37 188.125C1028.4 187.823 1028.45 187.515 1028.51 187.203L1029.51 182.484H1031.86L1030.79 187.586C1030.75 187.763 1030.72 187.929 1030.69 188.086C1030.67 188.242 1030.66 188.385 1030.66 188.515C1030.66 188.844 1030.73 189.086 1030.87 189.242C1031.01 189.398 1031.23 189.476 1031.51 189.476C1031.87 189.476 1032.19 189.325 1032.47 189.023C1032.75 188.716 1033 188.307 1033.22 187.797C1033.43 187.281 1033.6 186.716 1033.73 186.101L1034.5 182.484H1036.85L1035 191.219H1033.2L1033.37 189.601H1033.28C1033.06 189.945 1032.81 190.252 1032.54 190.523C1032.27 190.789 1031.98 190.997 1031.65 191.148C1031.32 191.299 1030.95 191.375 1030.55 191.375ZM1037.48 191.219L1039.33 182.484H1042.57L1042.9 188.578H1042.95L1046.09 182.484H1049.44L1047.56 191.219H1045.39L1046.35 186.898C1046.44 186.492 1046.53 186.101 1046.62 185.726C1046.72 185.351 1046.81 185.044 1046.87 184.804H1046.83L1043.51 191.219H1041.26L1040.9 184.804H1040.87C1040.82 185.232 1040.76 185.62 1040.69 185.969C1040.63 186.312 1040.56 186.653 1040.49 186.992L1039.65 191.219H1037.48ZM1052.58 191.375C1052.08 191.375 1051.66 191.273 1051.33 191.07C1051.01 190.867 1050.76 190.578 1050.6 190.203C1050.44 189.823 1050.36 189.377 1050.36 188.867C1050.36 188.674 1050.37 188.427 1050.4 188.125C1050.44 187.823 1050.48 187.515 1050.55 187.203L1051.54 182.484H1053.89L1052.82 187.586C1052.78 187.763 1052.75 187.929 1052.73 188.086C1052.7 188.242 1052.69 188.385 1052.69 188.515C1052.69 188.844 1052.76 189.086 1052.9 189.242C1053.05 189.398 1053.26 189.476 1053.54 189.476C1053.9 189.476 1054.22 189.325 1054.5 189.023C1054.78 188.716 1055.03 188.307 1055.25 187.797C1055.46 187.281 1055.63 186.716 1055.76 186.101L1056.53 182.484H1058.88L1057.03 191.219H1055.23L1055.4 189.601H1055.31C1055.09 189.945 1054.84 190.252 1054.57 190.523C1054.3 190.789 1054.01 190.997 1053.68 191.148C1053.35 191.299 1052.98 191.375 1052.58 191.375ZM1062.26 191.375C1061.68 191.375 1061.12 191.317 1060.61 191.203C1060.09 191.088 1059.68 190.95 1059.36 190.789V188.851C1059.71 189.028 1060.13 189.187 1060.61 189.328C1061.09 189.469 1061.62 189.539 1062.19 189.539C1062.56 189.539 1062.89 189.505 1063.19 189.437C1063.5 189.37 1063.75 189.255 1063.93 189.094C1064.11 188.927 1064.2 188.698 1064.2 188.406C1064.2 188.109 1064.09 187.883 1063.86 187.726C1063.63 187.57 1063.28 187.492 1062.83 187.492H1061.45L1061.8 185.844H1062.78C1063.22 185.844 1063.59 185.815 1063.89 185.758C1064.19 185.695 1064.41 185.594 1064.55 185.453C1064.7 185.307 1064.78 185.107 1064.78 184.851C1064.78 184.607 1064.69 184.419 1064.51 184.289C1064.34 184.153 1064.02 184.086 1063.58 184.086C1063.23 184.086 1062.83 184.143 1062.4 184.258C1061.96 184.372 1061.54 184.521 1061.12 184.703L1060.55 182.992C1061.06 182.794 1061.6 182.633 1062.17 182.508C1062.74 182.383 1063.34 182.32 1063.99 182.32C1064.59 182.32 1065.13 182.393 1065.6 182.539C1066.07 182.685 1066.45 182.916 1066.72 183.234C1066.99 183.547 1067.13 183.963 1067.13 184.484C1067.13 184.906 1067.04 185.258 1066.86 185.539C1066.68 185.82 1066.44 186.049 1066.13 186.226C1065.83 186.398 1065.49 186.536 1065.1 186.64V186.703C1065.53 186.823 1065.89 187.023 1066.16 187.304C1066.44 187.586 1066.58 187.974 1066.58 188.469C1066.58 189.047 1066.43 189.554 1066.12 189.992C1065.82 190.429 1065.34 190.771 1064.71 191.015C1064.07 191.255 1063.26 191.375 1062.26 191.375ZM1070.73 191.375C1070.3 191.375 1069.9 191.271 1069.53 191.062C1069.15 190.854 1068.85 190.518 1068.61 190.054C1068.37 189.591 1068.26 188.976 1068.26 188.211C1068.26 187.638 1068.32 187.07 1068.44 186.508C1068.56 185.945 1068.74 185.414 1068.97 184.914C1069.2 184.409 1069.48 183.963 1069.81 183.578C1070.14 183.187 1070.52 182.88 1070.94 182.656C1071.36 182.432 1071.81 182.32 1072.3 182.32C1072.67 182.32 1073 182.375 1073.27 182.484C1073.55 182.588 1073.78 182.737 1073.98 182.929C1074.18 183.122 1074.34 183.346 1074.47 183.601H1074.53L1074.98 182.484H1076.79L1074.93 191.219H1073.17L1073.28 190.086H1073.22C1073.01 190.341 1072.78 190.565 1072.54 190.758C1072.29 190.95 1072.02 191.101 1071.73 191.211C1071.43 191.32 1071.09 191.375 1070.73 191.375ZM1071.65 189.476C1071.97 189.476 1072.27 189.351 1072.55 189.101C1072.82 188.846 1073.06 188.515 1073.26 188.109C1073.45 187.703 1073.59 187.273 1073.68 186.82C1073.72 186.612 1073.75 186.403 1073.76 186.195C1073.78 185.982 1073.8 185.752 1073.8 185.508C1073.8 185.138 1073.7 184.833 1073.5 184.594C1073.31 184.349 1073.04 184.226 1072.7 184.226C1072.47 184.226 1072.25 184.302 1072.05 184.453C1071.84 184.599 1071.65 184.802 1071.48 185.062C1071.31 185.317 1071.16 185.612 1071.03 185.945C1070.9 186.273 1070.81 186.622 1070.74 186.992C1070.67 187.362 1070.64 187.732 1070.64 188.101C1070.64 188.554 1070.73 188.898 1070.9 189.133C1071.08 189.362 1071.33 189.476 1071.65 189.476ZM1083.08 194.351L1083.83 191.219C1083.64 191.125 1083.48 191.008 1083.36 190.867C1083.23 190.726 1083.13 190.567 1083.06 190.39C1082.99 190.208 1082.93 190.015 1082.87 189.812H1082.81C1082.59 190.12 1082.35 190.393 1082.08 190.633C1081.82 190.867 1081.52 191.049 1081.2 191.179C1080.88 191.31 1080.53 191.375 1080.15 191.375C1079.65 191.375 1079.24 191.273 1078.9 191.07C1078.57 190.867 1078.32 190.578 1078.15 190.203C1077.98 189.823 1077.9 189.377 1077.9 188.867C1077.9 188.674 1077.92 188.427 1077.96 188.125C1078.01 187.823 1078.06 187.515 1078.12 187.203L1079.12 182.484H1081.47L1080.4 187.586C1080.36 187.763 1080.33 187.929 1080.3 188.086C1080.28 188.242 1080.27 188.385 1080.27 188.515C1080.27 188.844 1080.34 189.086 1080.48 189.242C1080.62 189.398 1080.83 189.476 1081.12 189.476C1081.48 189.476 1081.8 189.325 1082.08 189.023C1082.36 188.716 1082.61 188.307 1082.83 187.797C1083.04 187.281 1083.21 186.716 1083.34 186.101L1084.11 182.484H1086.46L1085.19 188.453C1085.18 188.531 1085.17 188.604 1085.15 188.672C1085.15 188.739 1085.15 188.804 1085.15 188.867C1085.15 189.044 1085.19 189.174 1085.28 189.258C1085.37 189.336 1085.49 189.375 1085.63 189.375C1085.76 189.375 1085.88 189.364 1085.99 189.344C1086.11 189.323 1086.22 189.297 1086.33 189.265L1085.26 194.351H1083.08ZM1090.08 191.375C1089.58 191.375 1089.16 191.273 1088.83 191.07C1088.51 190.867 1088.26 190.578 1088.1 190.203C1087.94 189.823 1087.86 189.377 1087.86 188.867C1087.86 188.674 1087.87 188.427 1087.9 188.125C1087.94 187.823 1087.98 187.515 1088.05 187.203L1089.04 182.484H1091.39L1090.32 187.586C1090.28 187.763 1090.25 187.929 1090.23 188.086C1090.2 188.242 1090.19 188.385 1090.19 188.515C1090.19 188.844 1090.26 189.086 1090.4 189.242C1090.55 189.398 1090.76 189.476 1091.04 189.476C1091.4 189.476 1091.72 189.325 1092 189.023C1092.28 188.716 1092.53 188.307 1092.75 187.797C1092.96 187.281 1093.13 186.716 1093.26 186.101L1094.03 182.484H1096.38L1094.53 191.219H1092.73L1092.9 189.601H1092.81C1092.59 189.945 1092.34 190.252 1092.07 190.523C1091.8 190.789 1091.51 190.997 1091.18 191.148C1090.85 191.299 1090.48 191.375 1090.08 191.375ZM1097.69 191.375C1097.46 191.375 1097.25 191.359 1097.05 191.328C1096.84 191.297 1096.66 191.25 1096.51 191.187V189.25C1096.58 189.281 1096.68 189.31 1096.78 189.336C1096.88 189.362 1096.99 189.375 1097.11 189.375C1097.25 189.375 1097.38 189.349 1097.49 189.297C1097.6 189.239 1097.7 189.164 1097.78 189.07C1097.86 188.976 1097.94 188.872 1098.01 188.758C1098.19 188.455 1098.35 188.208 1098.5 188.015C1098.64 187.823 1098.8 187.669 1098.95 187.554C1099.11 187.435 1099.29 187.344 1099.49 187.281C1099.26 187.182 1099.05 187.054 1098.86 186.898C1098.68 186.742 1098.53 186.544 1098.42 186.304C1098.32 186.065 1098.26 185.778 1098.26 185.445C1098.26 184.924 1098.36 184.476 1098.56 184.101C1098.76 183.726 1099.03 183.422 1099.37 183.187C1099.72 182.948 1100.12 182.771 1100.58 182.656C1101.03 182.541 1101.52 182.484 1102.04 182.484H1105.69L1103.85 191.219H1101.49L1102.2 187.969H1101.72C1101.38 187.969 1101.11 188.078 1100.92 188.297C1100.73 188.51 1100.55 188.786 1100.4 189.125C1100.25 189.458 1100.06 189.804 1099.83 190.164C1099.69 190.388 1099.52 190.591 1099.33 190.773C1099.13 190.955 1098.9 191.101 1098.64 191.211C1098.37 191.32 1098.06 191.375 1097.69 191.375ZM1101.81 186.367H1102.54L1103 184.164H1102.01C1101.75 184.164 1101.52 184.213 1101.32 184.312C1101.12 184.406 1100.95 184.547 1100.83 184.734C1100.72 184.916 1100.66 185.143 1100.66 185.414C1100.66 185.7 1100.75 185.932 1100.94 186.109C1101.12 186.281 1101.42 186.367 1101.81 186.367Z" fill="black"/>
<circle cx="1043.05" cy="124.54" r="16" fill="url(#paint5_linear_1_1324)"/>
<path d="M1046.65 121.673C1046.65 122.199 1046.54 122.655 1046.32 123.04C1046.1 123.426 1045.8 123.741 1045.43 123.986C1045.06 124.23 1044.64 124.41 1044.18 124.525V124.572C1045.09 124.686 1045.79 124.967 1046.26 125.415C1046.74 125.863 1046.98 126.462 1046.98 127.212C1046.98 127.879 1046.82 128.475 1046.49 129.001C1046.17 129.527 1045.67 129.941 1044.99 130.243C1044.31 130.545 1043.44 130.697 1042.37 130.697C1041.74 130.697 1041.15 130.644 1040.61 130.54C1040.07 130.441 1039.56 130.288 1039.08 130.079V128.025C1039.57 128.275 1040.08 128.465 1040.62 128.595C1041.15 128.72 1041.65 128.782 1042.12 128.782C1042.98 128.782 1043.58 128.634 1043.93 128.337C1044.28 128.035 1044.45 127.613 1044.45 127.072C1044.45 126.754 1044.37 126.486 1044.21 126.267C1044.05 126.048 1043.77 125.881 1043.37 125.767C1042.97 125.652 1042.42 125.595 1041.7 125.595H1040.83V123.743H1041.72C1042.42 123.743 1042.95 123.678 1043.32 123.548C1043.69 123.413 1043.94 123.23 1044.07 123.001C1044.2 122.767 1044.27 122.501 1044.27 122.204C1044.27 121.798 1044.15 121.48 1043.9 121.251C1043.65 121.022 1043.23 120.907 1042.65 120.907C1042.28 120.907 1041.95 120.954 1041.65 121.048C1041.35 121.137 1041.08 121.246 1040.84 121.376C1040.6 121.501 1040.39 121.624 1040.21 121.743L1039.09 120.079C1039.54 119.756 1040.06 119.488 1040.66 119.275C1041.27 119.061 1041.99 118.954 1042.82 118.954C1044 118.954 1044.93 119.191 1045.62 119.665C1046.3 120.139 1046.65 120.809 1046.65 121.673Z" fill="white"/>
<defs>
<linearGradient id="paint0_linear_1_1324" x1="919.049" y1="152.58" x2="1170.08" y2="149.733" gradientUnits="userSpaceOnUse">
<stop stop-color="#D14B5F"/>
<stop offset="1" stop-color="#EF8E18"/>
</linearGradient>
<linearGradient id="paint1_linear_1_1324" x1="460.049" y1="152.58" x2="711.077" y2="149.734" gradientUnits="userSpaceOnUse">
<stop stop-color="#D14B5F"/>
<stop offset="1" stop-color="#EF8E18"/>
</linearGradient>
<linearGradient id="paint2_linear_1_1324" x1="583.614" y1="110.5" x2="583.614" y2="162.457" gradientUnits="userSpaceOnUse">
<stop stop-color="#E64B13"/>
<stop offset="1" stop-color="#FAFF00"/>
</linearGradient>
<linearGradient id="paint3_linear_1_1324" x1="0.548563" y1="152.58" x2="251.577" y2="149.733" gradientUnits="userSpaceOnUse">
<stop stop-color="#D14B5F"/>
<stop offset="1" stop-color="#EF8E18"/>
</linearGradient>
<linearGradient id="paint4_linear_1_1324" x1="124.114" y1="110.178" x2="124.114" y2="162.135" gradientUnits="userSpaceOnUse">
<stop stop-color="#E64B13"/>
<stop offset="1" stop-color="#FAFF00"/>
</linearGradient>
<linearGradient id="paint5_linear_1_1324" x1="1041.66" y1="110.5" x2="1041.66" y2="162.457" gradientUnits="userSpaceOnUse">
<stop stop-color="#E64B13"/>
<stop offset="1" stop-color="#FAFF00"/>
</linearGradient>
</defs>
</svg>
