<svg width="1920" height="3103" viewBox="0 0 1920 3103" fill="none" xmlns="http://www.w3.org/2000/svg">
<path fill-rule="evenodd" clip-rule="evenodd" d="M-140 69.766C11.5905 -4.84785 185.633 -19.9656 347.818 27.3928L416.321 47.3957C548.778 86.0733 688.601 92.2841 823.965 65.5027L1002.22 30.2358C1155.46 -0.0812763 1313.31 1.70505 1465.82 35.4819L1500.46 43.1533C1686.61 84.3807 1880.64 71.9362 2060 7.26596L2060 351L2060 351.766L2060 2445.8V2503.89V3102.85C1973.07 2989.1 1827.09 2937.52 1688 2971.42L1457.82 3027.53C1260.88 3075.52 1052.85 3038.69 884.365 2926L865.577 2913.43C596.151 2733.22 243.02 2739.78 -19.526 2929.87L-140 3017.1V2445.8H-140V351H-140V69.766Z" fill="#FBF4EC"/>
</svg>
