<svg width="390" height="3436" fill="none" xmlns="http://www.w3.org/2000/svg"><g clip-path="url(#clip0_1_2439)"><path fill-rule="evenodd" clip-rule="evenodd" d="M-321.311 229.576l116.045 619.213h47.031l-78.17 2324.061v160.94c0 101.32 113.447 161.26 197.15 104.17a184.561 184.561 0 01145.677-27.32l89.84 20.83c107.719 24.97 219.773-18.31 282.736-109.21l229.474-331.3L509.855 848.789h98.834l.029-562.648v-63.502c0-135.997-136.271-229.806-263.309-181.262a194.045 194.045 0 01-133.486 1.847L156.46 23.772c-135.345-47.47-285.958-8.702-381.563 98.215l-96.208 107.589z" fill="#FBF4EC"/></g><defs><clipPath id="clip0_1_2439"><path fill="#fff" transform="translate(-30)" d="M0 0h450v3436H0z"/></clipPath></defs></svg>