<svg width="278" height="705" fill="none" xmlns="http://www.w3.org/2000/svg"><path d="M179.799 235.847a1.185 1.185 0 001.386-.941l2.007-10.469a1.185 1.185 0 10-2.327-.446l-1.783 9.306-9.307-1.784a1.185 1.185 0 00-.446 2.327l10.47 2.007zm-27.148-39.404l26.391 38.905 1.96-1.33-26.391-38.905-1.96 1.33zm-51.534 286.036a1.185 1.185 0 01-1.386-.94l-2.007-10.47a1.184 1.184 0 012.327-.446l1.784 9.307 9.306-1.784a1.185 1.185 0 01.446 2.327l-10.47 2.006zm27.148-39.404l-26.391 38.906-1.96-1.33 26.391-38.905 1.96 1.329z" fill="#000"/><path d="M277.386 362.763c0 54.623-44.281 98.903-98.904 98.903-54.622 0-98.903-44.28-98.903-98.903 0-54.623 44.281-98.904 98.903-98.904 54.623 0 98.904 44.281 98.904 98.904z" fill="#fff" stroke="url(#paint0_linear_1_3165)" stroke-width=".395"/><path d="M119.768 263.481l6.303 9.748-1.782 1.152-5.313-8.215-5.055 3.268 5.313 8.216-1.783 1.152-6.302-9.747 8.619-5.574zm13.711-3.905l3.811 7.993-1.871.892-3.054-6.407-2.994 1.428.681 1.622c.455 1.082.778 2.017.971 2.807.198.775.223 1.456.073 2.041-.144.571-.516.999-1.114 1.285-.28.133-.65.242-1.112.327l-.659-1.614c.154-.037.281-.079.381-.126.379-.181.592-.466.639-.856.042-.4-.012-.821-.162-1.264a24.795 24.795 0 00-.721-1.898l-1.335-3.148 6.466-3.082zm7.248-2.911c1.231-.43 2.274-.461 3.129-.093.862.355 1.501 1.127 1.917 2.316l1.713 4.9-1.847.646-.355-1.018c-.113.449-.359.852-.738 1.207-.373.341-.872.621-1.498.84-.626.219-1.21.306-1.753.262-.546-.055-1.016-.225-1.408-.509a2.482 2.482 0 01-.83-1.168c-.263-.752-.196-1.448.2-2.091.403-.656 1.205-1.194 2.405-1.613l2.16-.756-.044-.125c-.204-.584-.539-.971-1.003-1.16-.454-.193-1.025-.169-1.714.072-.469.164-.908.4-1.316.707a3.588 3.588 0 00-.929 1.01l-1.266-1.157c.322-.487.76-.927 1.313-1.319a7.453 7.453 0 011.864-.951zm2.23 7.231c.49-.171.885-.432 1.184-.783.306-.365.464-.783.475-1.255l-.34-.971-2.019.707c-1.127.394-1.561.961-1.302 1.702.124.355.364.587.718.698.355.11.783.077 1.284-.098zm6.095-9.825l2.022-.458.795 3.509 4.35-.986-.795-3.509 2.022-.458 1.957 8.636-2.022.458-.773-3.412-4.351.985.774 3.413-2.022.458-1.957-8.636zm12.945-2.693l2.062-.216.607 5.806 4.258-6.314 1.881-.197.92 8.808-2.062.215-.606-5.805-4.243 6.312-1.896.198-.921-8.807zm19.053-1.173c.862.016 1.627.219 2.294.608.678.389 1.204.93 1.577 1.622.374.693.552 1.487.535 2.382-.017.896-.226 1.688-.626 2.377a4.054 4.054 0 01-1.639 1.56c-.682.363-1.454.536-2.316.52-1.194-.024-2.131-.44-2.812-1.249l-.083 4.294-2.072-.04.233-12.07 1.973.038-.023 1.161a3.23 3.23 0 011.279-.921 4.34 4.34 0 011.68-.282zm-.373 7.29c.763.015 1.392-.227 1.889-.726.507-.499.768-1.163.784-1.992.016-.829-.219-1.503-.707-2.021-.477-.518-1.096-.784-1.859-.799a2.614 2.614 0 00-1.349.323 2.394 2.394 0 00-.964.943c-.24.416-.366.9-.376 1.452-.011.553.096 1.042.32 1.466.224.425.532.757.926.997.393.228.839.347 1.336.357zm10.957 2.578c-.888-.117-1.662-.414-2.324-.891a4.311 4.311 0 01-1.467-1.816c-.304-.743-.398-1.547-.284-2.413.114-.865.413-1.612.897-2.24a4.31 4.31 0 011.887-1.374c.763-.289 1.588-.376 2.476-.259.899.119 1.679.417 2.341.894a4.191 4.191 0 011.45 1.814c.316.733.417 1.532.303 2.398-.114.866-.419 1.617-.916 2.254a4.188 4.188 0 01-1.87 1.376c-.763.29-1.594.376-2.493.257zm.232-1.759c.756.1 1.414-.07 1.974-.509s.893-1.07 1.002-1.892c.108-.822-.051-1.518-.478-2.087-.427-.569-1.018-.903-1.775-1.003-.756-.1-1.414.07-1.973.509-.549.441-.878 1.072-.986 1.894-.108.822.046 1.517.461 2.085.427.569 1.019.903 1.775 1.003zm15.18-.006c.98.588 1.339 1.407 1.076 2.458-.194.772-.633 1.294-1.316 1.568-.684.273-1.595.267-2.731-.018l-4.375-1.097 2.153-8.59 4.198 1.053c1.051.263 1.823.662 2.316 1.196.493.534.651 1.155.473 1.862-.11.44-.323.791-.64 1.054-.306.265-.691.436-1.154.514zm-4.178-1.612l2.107.529c1.04.26 1.65.031 1.83-.687.175-.697-.258-1.176-1.298-1.437l-2.107-.528-.532 2.123zm1.413 4.116c1.104.276 1.747.056 1.927-.663.094-.375.035-.686-.177-.933-.209-.257-.587-.455-1.133-.592l-2.365-.593-.552 2.204 2.3.577zm12.274-4.035c1.225.449 2.051 1.088 2.477 1.915.441.821.444 1.824.011 3.007l-1.787 4.873-1.837-.674.371-1.012c-.372.276-.818.431-1.336.464-.505.027-1.068-.074-1.691-.302-.623-.228-1.13-.532-1.521-.911-.387-.389-.641-.818-.764-1.287a2.477 2.477 0 01.1-1.429c.274-.747.768-1.243 1.482-1.488.728-.251 1.689-.158 2.882.28l2.149.788.045-.125c.214-.581.201-1.092-.038-1.533-.228-.437-.685-.781-1.37-1.032a4.847 4.847 0 00-1.466-.29 3.611 3.611 0 00-1.359.19l-.243-1.696c.558-.173 1.175-.235 1.852-.187a7.492 7.492 0 012.043.449zm-2.868 7.003c.488.179.959.228 1.412.147a1.973 1.973 0 001.164-.669l.354-.965-2.008-.736c-1.121-.412-1.817-.249-2.087.488-.13.353-.092.685.112.995.204.311.555.557 1.053.74zm10.695-3.855l1.855.927-1.609 3.219 3.99 1.994 1.609-3.219 1.854.926-3.958 7.922-1.854-.927 1.564-3.13-3.991-1.994-1.564 3.13-1.854-.926 3.958-7.922zm12.268 6.428l1.728 1.145-3.223 4.866 7.301-2.165 1.576 1.044-4.889 7.383-1.728-1.145 3.223-4.867-7.288 2.175-1.59-1.053 4.89-7.383zm14.208 16.141a7.68 7.68 0 01-.42.448l-5.322-4.466c-.326.578-.419 1.178-.278 1.802.157.622.527 1.178 1.111 1.668.745.625 1.565.895 2.46.809l.031 1.692a3.742 3.742 0 01-1.849-.144c-.622-.205-1.225-.552-1.81-1.042-.745-.626-1.277-1.325-1.596-2.097a4.263 4.263 0 01-.287-2.341c.143-.789.495-1.518 1.057-2.187.554-.661 1.199-1.129 1.936-1.406a4.22 4.22 0 012.303-.189c.782.151 1.508.507 2.177 1.069.66.554 1.124 1.196 1.392 1.926.284.728.345 1.48.186 2.255-.145.774-.508 1.508-1.091 2.203zm-1.553-5.114c-.509-.426-1.068-.636-1.68-.63-.596.005-1.141.225-1.637.661l3.849 3.23c.344-.548.471-1.12.38-1.717-.092-.596-.396-1.111-.912-1.544z" fill="#616161"/><path d="M127.217 375.184l1.906-9.019h2.517c.732 0 1.318.111 1.758.333.445.218.765.524.963.919.201.395.302.853.302 1.376 0 .534-.099 1.001-.296 1.4a2.748 2.748 0 01-.833.999 3.718 3.718 0 01-1.246.593 6.028 6.028 0 01-1.555.191h-.962l-.672 3.208h-1.882zm2.893-4.775h.771c.375 0 .702-.062.981-.185.284-.124.504-.302.66-.537.161-.234.241-.516.241-.845 0-.378-.101-.658-.302-.839-.198-.181-.496-.272-.895-.272h-.888l-.568 2.678zm7.773 4.898c-.538 0-1.013-.096-1.425-.29a2.187 2.187 0 01-.956-.888c-.23-.395-.345-.891-.345-1.487 0-.576.082-1.131.246-1.666.165-.538.41-1.02.734-1.443a3.63 3.63 0 011.21-1.006c.481-.246 1.036-.37 1.665-.37.774 0 1.351.177 1.734.531.386.349.58.8.58 1.351 0 .362-.083.691-.247.987-.16.296-.405.551-.734.765-.329.21-.743.372-1.24.487a8.127 8.127 0 01-1.752.167h-.315a5.01 5.01 0 01-.012.129v.124c0 .37.107.664.321.882.214.218.516.327.907.327.361 0 .69-.041.987-.124a6.859 6.859 0 001.048-.407v1.401a5.49 5.49 0 01-1.104.401 5.852 5.852 0 01-1.302.129zm-.641-4.115h.277c.477 0 .864-.051 1.16-.154.3-.103.518-.238.654-.407a.844.844 0 00.21-.549c0-.197-.058-.344-.173-.438-.111-.099-.269-.148-.475-.148-.23 0-.458.072-.685.216a2.075 2.075 0 00-.598.598 2.532 2.532 0 00-.37.882zm4.633 3.992l1.474-6.897h1.863l-.684 3.208 2.714-3.208h2.122l-2.955 3.461 1.709 3.436h-2.085l-1.58-3.362-.721 3.362h-1.857zm10.271.123c-.518 0-.976-.107-1.375-.321a2.332 2.332 0 01-.932-.913c-.222-.399-.333-.872-.333-1.419 0-.489.047-.956.142-1.4.099-.448.245-.86.438-1.234.197-.378.442-.705.734-.981a3.16 3.16 0 011.03-.647 3.516 3.516 0 011.32-.235c.535 0 .998.109 1.389.327.39.214.692.524.906.932.214.407.321.898.321 1.474 0 .469-.047.921-.142 1.357a4.87 4.87 0 01-.419 1.209 3.674 3.674 0 01-.716.975 3.115 3.115 0 01-1.024.648 3.674 3.674 0 01-1.339.228zm.155-1.511c.205 0 .392-.052.561-.155.169-.106.319-.252.45-.438.132-.189.241-.405.327-.647.091-.247.159-.512.204-.796.049-.284.074-.574.074-.87 0-.234-.029-.442-.086-.623a.82.82 0 00-.278-.432c-.128-.107-.3-.16-.518-.16-.226 0-.43.063-.611.191-.177.123-.331.29-.463.5-.131.209-.24.444-.327.703a5.19 5.19 0 00-.197.802 5.249 5.249 0 00-.062.783c0 .375.076.658.228.852.153.193.385.29.698.29zm4.318 1.388l1.456-6.897h2.56l.265 4.812h.037l2.48-4.812h2.641l-1.481 6.897h-1.715l.759-3.412c.07-.321.142-.629.216-.925.078-.296.144-.539.197-.728h-.037l-2.615 5.065h-1.783l-.278-5.065h-.025c-.041.337-.088.644-.142.919a23.08 23.08 0 01-.16.808l-.666 3.338h-1.709zm12.764.123c-.539 0-1.014-.096-1.425-.29a2.187 2.187 0 01-.956-.888c-.231-.395-.346-.891-.346-1.487 0-.576.082-1.131.247-1.666.164-.538.409-1.02.734-1.443a3.617 3.617 0 011.209-1.006c.481-.246 1.037-.37 1.666-.37.773 0 1.351.177 1.733.531.387.349.58.8.58 1.351 0 .362-.082.691-.246.987a2.138 2.138 0 01-.735.765c-.329.21-.742.372-1.24.487-.497.111-1.081.167-1.752.167h-.314a2.538 2.538 0 01-.013.129v.124c0 .37.107.664.321.882.214.218.516.327.907.327.362 0 .691-.041.987-.124a6.865 6.865 0 001.049-.407v1.401a5.49 5.49 0 01-1.104.401 5.865 5.865 0 01-1.302.129zm-.642-4.115h.278c.477 0 .864-.051 1.16-.154.3-.103.518-.238.654-.407a.848.848 0 00.209-.549c0-.197-.057-.344-.172-.438-.111-.099-.27-.148-.475-.148-.231 0-.459.072-.685.216a2.078 2.078 0 00-.599.598 2.55 2.55 0 00-.37.882zm4.633 3.992l1.475-6.897h1.875l-.574 2.652h2.153l.556-2.652h1.857l-1.469 6.897h-1.857l.593-2.844h-2.135l-.604 2.844h-1.87zm10.778.123c-.617 0-1.123-.119-1.518-.358a2.194 2.194 0 01-.87-.974 3.367 3.367 0 01-.277-1.395c0-.473.047-.909.142-1.307.094-.403.228-.763.401-1.08.176-.317.386-.586.629-.808a2.666 2.666 0 011.807-.685c.288 0 .541.051.759.154.218.099.405.235.562.407.16.169.294.358.401.568h.049c.008-.07.012-.144.012-.222v-.185c0-.827-.127-1.431-.382-1.814-.255-.382-.671-.574-1.246-.574-.194 0-.405.023-.636.068a3.192 3.192 0 00-.617.185l-.388-1.468c.267-.099.565-.173.894-.222.329-.054.675-.08 1.037-.08.756 0 1.369.162 1.838.487.473.321.818.775 1.036 1.363.222.589.334 1.286.334 2.092 0 .477-.033.952-.099 1.425a8.643 8.643 0 01-.29 1.357 6.055 6.055 0 01-.512 1.215c-.21.371-.463.695-.759.975a3.234 3.234 0 01-1.012.648 3.48 3.48 0 01-1.295.228zm.105-1.511c.209 0 .399-.05.567-.148.169-.099.317-.235.444-.407.132-.173.245-.375.34-.605.098-.23.181-.477.246-.74a7.6 7.6 0 00.167-.821 1.55 1.55 0 00-.234-.481 1.074 1.074 0 00-.371-.339.99.99 0 00-.505-.124c-.194 0-.371.039-.531.117-.16.079-.304.192-.432.34a2.032 2.032 0 00-.327.524 3.25 3.25 0 00-.197.697 4.802 4.802 0 00-.068.833c0 .362.078.646.234.851.157.202.379.303.667.303zm6.78 1.511c-.334 0-.648-.082-.944-.247-.296-.164-.539-.429-.728-.795-.185-.366-.278-.852-.278-1.456 0-.453.047-.901.142-1.345.099-.444.239-.864.419-1.259.186-.399.408-.75.667-1.055.263-.308.559-.551.888-.728a2.277 2.277 0 011.08-.265c.292 0 .547.043.765.13a1.6 1.6 0 01.561.351c.156.153.284.329.383.531h.049l.352-.882h1.431l-1.468 6.897h-1.389l.087-.895h-.05a3.402 3.402 0 01-.536.531 2.361 2.361 0 01-.642.358 2.275 2.275 0 01-.789.129zm.727-1.499c.255 0 .492-.099.71-.296.218-.202.405-.463.561-.784.157-.32.268-.66.333-1.017.033-.165.056-.329.068-.494.017-.169.025-.35.025-.543 0-.292-.078-.532-.234-.722a.76.76 0 00-.63-.29.872.872 0 00-.518.179c-.16.115-.308.276-.444.482a3.526 3.526 0 00-.358.697 4.616 4.616 0 00-.228.826c-.054.292-.08.584-.08.876 0 .358.07.63.209.815a.7.7 0 00.586.271zm9.032 3.85l.592-2.474a1.2 1.2 0 01-.61-.654 3.595 3.595 0 01-.148-.457h-.05a3.945 3.945 0 01-.574.648 2.404 2.404 0 01-.697.432 2.154 2.154 0 01-.826.154c-.395 0-.724-.08-.987-.24a1.525 1.525 0 01-.599-.685 2.62 2.62 0 01-.197-1.055c0-.152.016-.348.049-.586.037-.239.08-.481.13-.728l.783-3.726h1.857l-.845 4.028c-.029.14-.054.272-.074.395a2.485 2.485 0 00-.025.339c0 .259.056.451.167.574.111.123.277.185.499.185.284 0 .537-.119.759-.358.226-.242.424-.565.592-.968.169-.407.305-.854.408-1.339l.604-2.856h1.857l-.999 4.713a2.93 2.93 0 00-.031.173 2.061 2.061 0 00-.006.154c0 .14.035.243.105.308.07.062.162.093.277.093.099 0 .194-.008.284-.025.09-.016.181-.037.271-.062l-.845 4.017h-1.721zm5.521-2.351c-.394 0-.721-.08-.98-.24a1.458 1.458 0 01-.58-.685 2.674 2.674 0 01-.192-1.055c0-.152.013-.348.037-.586a8.03 8.03 0 01.111-.728l.784-3.726h1.857l-.845 4.028c-.029.14-.054.272-.074.395a2.485 2.485 0 00-.025.339c0 .259.056.451.167.574.111.123.277.185.499.185.284 0 .537-.119.759-.358.226-.242.424-.565.592-.968.169-.407.305-.854.407-1.339l.605-2.856h1.857l-1.462 6.897h-1.419l.129-1.277h-.067a4.575 4.575 0 01-.586.728c-.21.209-.445.374-.704.493-.259.12-.549.179-.87.179zm7.638 0c-.395 0-.722-.08-.981-.24a1.47 1.47 0 01-.58-.685 2.692 2.692 0 01-.191-1.055 7.383 7.383 0 01.148-1.314l.783-3.726h1.857l-.845 4.028c-.029.14-.053.272-.074.395a2.656 2.656 0 00-.025.339c0 .259.056.451.167.574.111.123.278.185.5.185.283 0 .536-.119.758-.358.227-.242.424-.565.593-.968.168-.407.304-.854.407-1.339l.604-2.856h1.857l-1.462 6.897h-1.419l.13-1.277h-.068a4.52 4.52 0 01-.586.728c-.21.209-.444.374-.703.493-.259.12-.549.179-.87.179zm10.919 0c-.395 0-.722-.08-.981-.24a1.47 1.47 0 01-.58-.685 2.692 2.692 0 01-.191-1.055c0-.152.012-.348.037-.586a8.03 8.03 0 01.111-.728l.784-3.726h1.857l-.846 4.028c-.028.14-.053.272-.074.395a2.643 2.643 0 00-.024.339c0 .259.055.451.166.574.111.123.278.185.5.185.284 0 .537-.119.759-.358.226-.242.423-.565.592-.968.169-.407.304-.854.407-1.339l.605-2.856h1.857l-1.462 6.897h-1.419l.129-1.277h-.068a4.466 4.466 0 01-.586.728 2.419 2.419 0 01-.703.493c-.259.12-.549.179-.87.179zm-74.726 20.912l2.109-9.932h1.419l-.105 1.048h.056c.144-.197.31-.386.5-.567.189-.181.405-.327.647-.438.243-.115.512-.173.809-.173.333 0 .647.082.943.247.297.164.537.432.722.802.185.366.278.855.278 1.468a6.2 6.2 0 01-.148 1.339 5.98 5.98 0 01-.42 1.258 4.502 4.502 0 01-.666 1.055 3.046 3.046 0 01-.882.722 2.284 2.284 0 01-1.08.259 1.74 1.74 0 01-.709-.129 1.518 1.518 0 01-.494-.364 3.545 3.545 0 01-.364-.512h-.049a12.284 12.284 0 01-.265 1.819l-.445 2.098h-1.856zm3.868-4.411a.892.892 0 00.518-.173c.164-.119.314-.279.45-.481.136-.206.253-.438.352-.697.099-.263.175-.541.228-.833.054-.292.08-.584.08-.876 0-.362-.068-.633-.203-.814-.132-.181-.333-.272-.605-.272-.197 0-.378.052-.543.155a1.54 1.54 0 00-.425.413 2.9 2.9 0 00-.321.586 4.41 4.41 0 00-.222.666 6.106 6.106 0 00-.13.667 4.97 4.97 0 00-.037.573c0 .325.076.588.228.79a.763.763 0 00.63.296zm7.359 1.499c-.538 0-1.013-.096-1.425-.29a2.187 2.187 0 01-.956-.888c-.23-.395-.345-.891-.345-1.487 0-.576.082-1.131.246-1.666.165-.538.41-1.02.735-1.443a3.617 3.617 0 011.209-1.006c.481-.246 1.036-.37 1.665-.37.774 0 1.351.177 1.734.531.386.349.58.8.58 1.351 0 .362-.083.691-.247.987-.16.296-.405.551-.734.765-.329.21-.742.372-1.24.487a8.127 8.127 0 01-1.752.167h-.315a5.01 5.01 0 01-.012.129v.124c0 .37.107.664.321.882.214.218.516.327.907.327.361 0 .69-.041.987-.124a6.859 6.859 0 001.048-.407v1.401a5.49 5.49 0 01-1.104.401 5.852 5.852 0 01-1.302.129zm-.641-4.115h.277c.477 0 .864-.051 1.16-.154.3-.103.518-.238.654-.407a.844.844 0 00.21-.549c0-.197-.058-.344-.173-.438-.111-.099-.269-.148-.475-.148-.23 0-.458.072-.685.216a2.075 2.075 0 00-.598.598 2.532 2.532 0 00-.37.882zm6.78 4.115c-.572 0-1.002-.177-1.29-.53-.288-.358-.432-.841-.432-1.45 0-.152.013-.323.037-.512.029-.193.064-.393.105-.599l.821-3.929h1.857l-.845 4.028c-.029.14-.054.272-.074.395a2.485 2.485 0 00-.025.339c0 .259.049.451.148.574.103.123.255.185.456.185.284 0 .537-.117.759-.352.226-.238.422-.559.586-.962.169-.403.307-.849.414-1.339l.592-2.868h1.857l-.845 4.028c-.033.14-.06.272-.081.395a2.643 2.643 0 00-.024.339c0 .259.051.451.154.574.103.123.255.185.457.185a.94.94 0 00.586-.21c.181-.14.343-.331.487-.573.148-.247.278-.531.389-.852.115-.321.211-.664.29-1.03l.61-2.856h1.857l-1.468 6.897h-1.4l.123-1.277h-.049a4.347 4.347 0 01-.593.728 2.486 2.486 0 01-.715.493c-.263.12-.556.179-.876.179-.239 0-.449-.033-.63-.099a1.31 1.31 0 01-.468-.271 1.446 1.446 0 01-.321-.444 2.398 2.398 0 01-.185-.586h-.056a3.98 3.98 0 01-.592.728 2.519 2.519 0 01-.734.493 2.13 2.13 0 01-.882.179zm12.344 0c-.539 0-1.014-.096-1.425-.29a2.187 2.187 0 01-.956-.888c-.231-.395-.346-.891-.346-1.487 0-.576.083-1.131.247-1.666.165-.538.409-1.02.734-1.443a3.617 3.617 0 011.209-1.006c.482-.246 1.037-.37 1.666-.37.773 0 1.351.177 1.734.531.386.349.579.8.579 1.351 0 .362-.082.691-.246.987a2.135 2.135 0 01-.734.765c-.329.21-.743.372-1.24.487a8.127 8.127 0 01-1.752.167h-.315a5.01 5.01 0 01-.012.129v.124c0 .37.107.664.32.882.214.218.517.327.907.327.362 0 .691-.041.987-.124a6.865 6.865 0 001.049-.407v1.401a5.49 5.49 0 01-1.104.401 5.852 5.852 0 01-1.302.129zm-.642-4.115h.278c.477 0 .864-.051 1.16-.154.3-.103.518-.238.654-.407a.844.844 0 00.21-.549c0-.197-.058-.344-.173-.438-.111-.099-.27-.148-.475-.148-.231 0-.459.072-.685.216a2.063 2.063 0 00-.598.598 2.552 2.552 0 00-.371.882zm4.633 3.992l1.475-6.897h1.875l-.573 2.652h2.153l.555-2.652h1.857l-1.468 6.897h-1.857l.592-2.844h-2.135l-.604 2.844h-1.87zm9.994.123c-.394 0-.721-.08-.98-.24a1.458 1.458 0 01-.58-.685 2.674 2.674 0 01-.192-1.055 7.701 7.701 0 01.149-1.314l.783-3.726h1.857l-.845 4.028c-.029.14-.054.272-.074.395a2.485 2.485 0 00-.025.339c0 .259.056.451.167.574.111.123.277.185.499.185.284 0 .537-.119.759-.358.226-.242.424-.565.592-.968.169-.407.305-.854.407-1.339l.605-2.856h1.857l-1.462 6.897h-1.419l.13-1.277h-.068a4.575 4.575 0 01-.586.728c-.21.209-.445.374-.704.493-.259.12-.549.179-.87.179zm6.009 0a3.29 3.29 0 01-.506-.037 1.976 1.976 0 01-.425-.111v-1.53c.061.025.133.047.216.068.082.021.168.031.259.031a.696.696 0 00.302-.062.803.803 0 00.228-.179c.066-.074.126-.156.179-.246.144-.239.274-.434.389-.587a1.77 1.77 0 01.358-.364 1.34 1.34 0 01.425-.215 1.98 1.98 0 01-.499-.303 1.325 1.325 0 01-.346-.469 1.697 1.697 0 01-.123-.678c0-.411.078-.765.234-1.061a1.97 1.97 0 01.642-.722 2.94 2.94 0 01.95-.42c.362-.09.746-.135 1.153-.135h2.881l-1.449 6.897h-1.863l.561-2.567h-.383c-.267 0-.477.087-.629.26-.152.168-.29.386-.413.653a6.995 6.995 0 01-.444.821 2.647 2.647 0 01-.401.481 1.758 1.758 0 01-.543.346c-.21.086-.461.129-.753.129zm3.257-3.954h.574l.364-1.74h-.783c-.202 0-.383.039-.543.117a.885.885 0 00-.383.333.995.995 0 00-.135.537c0 .226.072.409.216.549.148.136.378.204.69.204z" fill="#000"/><circle cx="178.482" cy="340.907" r="12.634" fill="url(#paint1_linear_1_3165)"/><path d="M181.678 345.432h-6.305v-1.327l2.264-2.289c.457-.468.823-.859 1.098-1.172.28-.316.482-.604.605-.863.127-.26.191-.537.191-.833 0-.358-.101-.625-.302-.802-.198-.181-.463-.272-.796-.272-.35 0-.689.081-1.018.241-.329.16-.672.389-1.03.685l-1.037-1.228c.26-.222.533-.432.821-.629a3.798 3.798 0 011.012-.475c.386-.124.849-.185 1.388-.185.592 0 1.1.107 1.524.321.427.213.756.505.987.876.23.366.345.781.345 1.246 0 .497-.099.952-.296 1.363a4.908 4.908 0 01-.864 1.222c-.374.403-.826.849-1.357 1.338l-1.16 1.092v.087h3.93v1.604z" fill="#fff"/><path d="M198.421 120.248c0 54.623-44.281 98.904-98.903 98.904-54.623 0-98.904-44.281-98.904-98.904s44.28-98.903 98.903-98.903c54.623 0 98.904 44.28 98.904 98.903z" fill="#fff" stroke="url(#paint2_linear_1_3165)" stroke-width=".395"/><path d="M74.683 16.821l-5.613 1.476-.424 2.889-2.15.565 2.102-12.555 2.053-.54 8.019 9.895-2.182.573-1.805-2.303zm-1.12-1.454l-3.407-4.351-.81 5.46 4.217-1.11zm6.979-6.106l2.056-.263.456 3.57 4.425-.566-.457-3.57 2.057-.262 1.123 8.783-2.057.263-.443-3.47-4.425.565.444 3.47-2.056.264-1.123-8.784zm15.953-1.563c1.304-.025 2.305.27 3.002.888.708.605 1.075 1.538 1.099 2.798l.1 5.19-1.956.037-.021-1.078c-.247.392-.606.698-1.077.917-.46.208-1.022.318-1.685.331-.664.013-1.246-.086-1.748-.298-.502-.223-.894-.53-1.178-.923a2.475 2.475 0 01-.425-1.368c-.015-.796.265-1.437.842-1.924.588-.498 1.517-.759 2.788-.783l2.288-.044-.003-.133c-.012-.619-.209-1.09-.591-1.415-.371-.325-.921-.48-1.65-.466a4.84 4.84 0 00-1.472.26 3.617 3.617 0 00-1.198.67l-.841-1.492c.457-.363 1.01-.644 1.658-.845a7.452 7.452 0 012.067-.322zm-.136 7.566c.519-.01.976-.135 1.369-.375.404-.25.685-.599.842-1.044l-.02-1.028-2.138.041c-1.194.023-1.783.427-1.768 1.212.007.375.162.671.465.886.302.216.719.318 1.25.308zM113.72 8.59l-.818 8.817-2.064-.192.656-7.067-3.302-.307-.245 1.743c-.164 1.162-.365 2.131-.604 2.908-.226.768-.554 1.365-.982 1.791-.416.417-.954.594-1.615.533-.308-.028-.682-.124-1.122-.287l.26-1.725c.151.047.281.076.392.086.418.04.747-.097.987-.408.24-.321.41-.71.508-1.168.11-.467.227-1.134.352-2l.464-3.387 7.133.662zm4.408.602l2.028.428-1.203 5.711 5.99-4.703 1.85.39-1.825 8.664-2.028-.427 1.202-5.712-5.973 4.707-1.866-.392 1.825-8.666zm16.983 8.788c.477.32.802.695.975 1.124.187.422.205.864.053 1.326a2.137 2.137 0 01-.971 1.2c-.474.275-1.052.422-1.733.443-.682.02-1.411-.098-2.189-.353a8.65 8.65 0 01-1.833-.847 7.239 7.239 0 01-1.468-1.216l1.048-1.279c.334.366.737.697 1.211.992.473.295.967.527 1.481.696.662.218 1.209.287 1.642.208.448-.085.73-.307.847-.664.107-.325.043-.626-.192-.901-.225-.272-.6-.494-1.125-.667l-1.639-.538.435-1.324 1.481.487c.494.163.905.205 1.233.126.339-.075.558-.264.658-.569.1-.304.012-.601-.266-.89-.277-.29-.71-.53-1.298-.724-.84-.276-1.795-.363-2.864-.26l-.028-1.615c1.272-.153 2.47-.044 3.594.325.714.235 1.322.546 1.823.931.505.376.857.794 1.054 1.255.212.453.243.906.095 1.357-.135.41-.381.736-.741.979-.355.232-.783.365-1.283.399z" fill="#616161"/><path d="M50.264 132.793a6.92 6.92 0 01-1.339-.118 3.649 3.649 0 01-1.11-.394v-1.672c.284.156.555.277.814.364.26.086.506.146.74.179.24.032.465.049.68.049.476 0 .892-.086 1.245-.259.354-.173.654-.43.901-.771a4.48 4.48 0 00.61-1.265h-3.324l.327-1.567h3.25a.924.924 0 00.013-.154v-.161c0-.423-.06-.777-.179-1.061a1.29 1.29 0 00-.53-.641c-.235-.148-.529-.222-.883-.222-.366 0-.695.043-.987.129-.287.082-.62.2-.999.352l-.494-1.518a7.233 7.233 0 011.29-.401 6.51 6.51 0 011.425-.154c.72 0 1.322.138 1.807.413a2.6 2.6 0 011.099 1.191c.246.518.37 1.145.37 1.882a8.03 8.03 0 01-.173 1.641 6.695 6.695 0 01-.524 1.567 5.114 5.114 0 01-.92 1.332 4.07 4.07 0 01-1.332.919c-.514.226-1.106.34-1.777.34zm5.361-.124l1.474-6.897h1.864l-.685 3.208 2.714-3.208h2.122l-2.955 3.461 1.71 3.436h-2.086l-1.58-3.362-.721 3.362h-1.857zm10.198.124c-.477 0-.911-.085-1.302-.253a2.065 2.065 0 01-.925-.815c-.227-.374-.34-.863-.34-1.468 0-.498.052-.975.154-1.431a5.19 5.19 0 01.457-1.265 3.83 3.83 0 01.747-1.005 3.26 3.26 0 011.017-.673c.383-.16.809-.24 1.277-.24.412 0 .78.039 1.105.117.329.078.635.187.919.327l-.568 1.412a8.313 8.313 0 00-.654-.246 2.336 2.336 0 00-.728-.105 1.29 1.29 0 00-.783.253c-.226.168-.42.395-.58.678a3.72 3.72 0 00-.358.957 4.635 4.635 0 00-.123 1.067c0 .259.041.477.123.654.087.177.208.31.364.401.16.09.352.135.574.135.313 0 .603-.047.87-.141.267-.099.543-.22.826-.364v1.517a4.278 4.278 0 01-.931.358 4.58 4.58 0 01-1.141.13zm3.214-.124l1.462-6.897h1.419l-.13 1.277h.056c.177-.275.372-.518.586-.728.214-.21.45-.374.71-.493a2.03 2.03 0 01.875-.185c.395 0 .724.082.987.246.268.161.467.389.599.685.131.296.197.648.197 1.055 0 .152-.012.323-.037.512-.025.189-.06.389-.105.598l-.82 3.93h-1.857l.845-4.028a4.11 4.11 0 00.074-.395c.017-.123.025-.237.025-.339 0-.259-.056-.451-.167-.574-.11-.123-.278-.185-.5-.185-.28 0-.532.121-.758.364-.227.238-.424.559-.593.962-.164.403-.3.849-.407 1.339l-.604 2.856h-1.857zm6.99 3.035l2.11-9.932h1.418l-.105 1.049h.056c.144-.198.31-.387.5-.568.189-.181.405-.327.647-.438.243-.115.512-.172.808-.172.334 0 .648.082.944.246.296.165.537.432.722.802.185.366.278.856.278 1.469 0 .448-.05.894-.148 1.338-.095.44-.235.86-.42 1.259a4.517 4.517 0 01-.666 1.055c-.26.304-.553.545-.882.721-.33.173-.69.26-1.08.26-.28 0-.516-.044-.71-.13a1.506 1.506 0 01-.493-.364 3.447 3.447 0 01-.364-.512h-.05a12.563 12.563 0 01-.264 1.82l-.445 2.097h-1.857zm3.867-4.411a.89.89 0 00.519-.172c.164-.12.314-.28.45-.481a3.56 3.56 0 00.352-.698 4.96 4.96 0 00.228-.832 4.86 4.86 0 00.08-.876c0-.362-.068-.634-.203-.815-.132-.181-.334-.271-.605-.271a1 1 0 00-.543.154c-.16.103-.302.241-.426.413a2.95 2.95 0 00-.32.586c-.09.214-.165.436-.222.667-.058.23-.101.452-.13.666a5.055 5.055 0 00-.037.574c0 .325.076.588.228.789a.76.76 0 00.63.296zm7.36 1.5c-.539 0-1.014-.097-1.425-.29a2.196 2.196 0 01-.956-.889c-.23-.395-.346-.89-.346-1.486 0-.576.083-1.131.247-1.666.165-.539.41-1.02.734-1.444a3.614 3.614 0 011.21-1.005c.48-.247 1.036-.37 1.665-.37.773 0 1.351.176 1.734.53.386.35.58.8.58 1.351 0 .362-.083.691-.247.987a2.13 2.13 0 01-.734.765c-.33.21-.743.372-1.24.488-.498.111-1.082.166-1.752.166h-.315a5.005 5.005 0 01-.012.13v.123c0 .37.107.664.32.882.214.218.517.327.907.327.362 0 .691-.041.987-.123a6.86 6.86 0 001.05-.407v1.4a5.38 5.38 0 01-1.105.401 5.85 5.85 0 01-1.302.13zm-.641-4.115h.277c.477 0 .864-.052 1.16-.154.3-.103.518-.239.654-.408a.84.84 0 00.21-.549c0-.197-.058-.343-.173-.438-.111-.098-.27-.148-.475-.148-.23 0-.459.072-.685.216a2.075 2.075 0 00-.598.599 2.537 2.537 0 00-.37.882zm7.526 4.115c-.477 0-.911-.085-1.302-.253a2.065 2.065 0 01-.925-.815c-.226-.374-.34-.863-.34-1.468 0-.498.052-.975.155-1.431a5.19 5.19 0 01.456-1.265c.202-.386.45-.722.747-1.005a3.26 3.26 0 011.018-.673c.382-.16.808-.24 1.277-.24.411 0 .779.039 1.104.117.329.078.635.187.92.327l-.568 1.412a8.327 8.327 0 00-.654-.246 2.336 2.336 0 00-.728-.105 1.29 1.29 0 00-.784.253c-.226.168-.42.395-.58.678a3.727 3.727 0 00-.358.957 4.64 4.64 0 00-.123 1.067c0 .259.041.477.124.654.086.177.207.31.364.401.16.09.351.135.573.135.313 0 .603-.047.87-.141.267-.099.543-.22.827-.364v1.517a4.277 4.277 0 01-.932.358c-.333.086-.713.13-1.141.13zm6.107 0a3.26 3.26 0 01-1.301-.253 2.065 2.065 0 01-.926-.815c-.226-.374-.339-.863-.339-1.468 0-.498.051-.975.154-1.431a5.19 5.19 0 01.457-1.265 3.83 3.83 0 01.746-1.005 3.261 3.261 0 011.018-.673 3.28 3.28 0 011.277-.24c.411 0 .779.039 1.104.117.329.078.636.187.92.327l-.568 1.412a8.285 8.285 0 00-.654-.246 2.334 2.334 0 00-.728-.105c-.292 0-.553.084-.783.253-.227.168-.42.395-.58.678a3.712 3.712 0 00-.358.957 4.635 4.635 0 00-.123 1.067c0 .259.04.477.123.654.086.177.208.31.364.401.16.09.352.135.574.135.312 0 .602-.047.87-.141.267-.099.542-.22.826-.364v1.517a4.28 4.28 0 01-.931.358c-.333.086-.714.13-1.142.13zm3.239-2.74l.327-1.542h3.233l-.327 1.542h-3.233zm6.323 2.74c-.333 0-.647-.083-.943-.247-.297-.165-.539-.43-.728-.796-.185-.366-.278-.851-.278-1.456 0-.452.047-.901.142-1.345a6.3 6.3 0 01.419-1.258c.186-.399.408-.751.667-1.055a3.08 3.08 0 01.888-.728 2.265 2.265 0 011.08-.265c.292 0 .547.043.765.129.218.082.405.2.561.352.156.152.284.329.382.53h.05l.351-.882h1.432l-1.469 6.897h-1.388l.087-.894h-.05a3.439 3.439 0 01-.536.53 2.335 2.335 0 01-.642.358 2.28 2.28 0 01-.79.13zm.728-1.5c.255 0 .492-.098.71-.296.218-.201.405-.462.561-.783.157-.321.268-.66.333-1.018.033-.165.056-.329.068-.494.017-.168.025-.349.025-.542 0-.292-.078-.533-.234-.722a.756.756 0 00-.63-.29.865.865 0 00-.518.179c-.16.115-.308.275-.444.481a3.554 3.554 0 00-.358.697 4.627 4.627 0 00-.228.827c-.054.292-.08.584-.08.876 0 .358.07.629.209.814a.7.7 0 00.586.271zm4.51 1.376l1.474-6.897h1.876l-.574 2.653h2.153l.555-2.653h1.857l-1.468 6.897h-1.857l.592-2.844h-2.134l-.605 2.844h-1.869zm10.062.124a1.92 1.92 0 01-.944-.247c-.296-.165-.539-.43-.728-.796-.185-.366-.278-.851-.278-1.456 0-.452.048-.901.142-1.345.099-.444.239-.863.42-1.258.185-.399.407-.751.666-1.055a3.08 3.08 0 01.888-.728 2.268 2.268 0 011.08-.265c.292 0 .547.043.765.129.218.082.405.2.561.352.157.152.284.329.383.53h.049l.352-.882h1.431l-1.468 6.897h-1.388l.086-.894h-.049a3.489 3.489 0 01-.537.53 2.33 2.33 0 01-.641.358c-.235.086-.498.13-.79.13zm.728-1.5c.255 0 .491-.098.709-.296.218-.201.405-.462.562-.783.156-.321.267-.66.333-1.018a5.738 5.738 0 00.092-1.036c0-.292-.078-.533-.234-.722a.755.755 0 00-.629-.29.863.863 0 00-.518.179 1.795 1.795 0 00-.445.481 3.552 3.552 0 00-.357.697 4.897 4.897 0 00-.309 1.703c0 .358.07.629.21.814.14.181.335.271.586.271zm4.836 1.5c-.189 0-.353-.013-.493-.037a2.161 2.161 0 01-.426-.111v-1.53c.087.037.171.063.253.08.082.012.171.018.265.018a.584.584 0 00.42-.172c.119-.116.226-.272.321-.469a6.6 6.6 0 00.284-.691l.289-.827c.206-.58.408-1.084.605-1.511.202-.432.438-.788.71-1.068.271-.279.61-.487 1.017-.623.412-.14.93-.209 1.555-.209.428 0 .831.037 1.209.111a5.9 5.9 0 01.926.246l-1.401 6.669h-1.857l1.16-5.459a2.239 2.239 0 00-.191-.031.964.964 0 00-.198-.019c-.337 0-.608.097-.814.29-.201.193-.38.481-.537.864-.156.378-.329.849-.518 1.413-.14.423-.282.82-.426 1.19a5.04 5.04 0 01-.487.981c-.181.28-.405.5-.672.66-.268.156-.599.235-.994.235zm9.655 0c-.395 0-.722-.081-.981-.241a1.464 1.464 0 01-.58-.685 2.692 2.692 0 01-.191-1.055c0-.152.012-.347.037-.586.025-.238.062-.481.111-.728l.784-3.726h1.857l-.846 4.029c-.028.139-.053.271-.074.394a2.67 2.67 0 00-.024.34c0 .259.055.45.166.573.111.124.278.185.5.185.284 0 .537-.119.759-.357.226-.243.423-.566.592-.969a7.59 7.59 0 00.407-1.339l.605-2.856h1.857l-1.462 6.897h-1.419l.129-1.277h-.068a4.477 4.477 0 01-.586.728c-.209.21-.444.374-.703.494a2.06 2.06 0 01-.87.179zm7.65 0c-.465 0-.901-.046-1.308-.136a4.303 4.303 0 01-.987-.327v-1.53c.28.14.609.265.987.376.382.111.798.167 1.246.167.292 0 .557-.027.796-.08a1.27 1.27 0 00.58-.272c.144-.131.216-.312.216-.543a.608.608 0 00-.272-.536c-.181-.124-.452-.185-.814-.185h-1.086l.278-1.302h.771c.35 0 .642-.023.876-.068.234-.049.409-.13.524-.241.12-.115.179-.273.179-.475a.52.52 0 00-.209-.444c-.14-.107-.387-.16-.741-.16-.275 0-.586.045-.931.136-.342.09-.679.207-1.012.351l-.444-1.351a8.661 8.661 0 011.277-.382 6.65 6.65 0 011.437-.148c.473 0 .897.057 1.271.172.374.115.668.298.882.549.218.247.327.576.327.987 0 .334-.072.611-.216.833-.14.222-.331.403-.573.543-.239.136-.51.245-.815.327v.049c.342.095.621.253.839.475.222.223.333.529.333.92 0 .456-.121.857-.364 1.203-.242.345-.614.614-1.116.808-.502.189-1.146.284-1.931.284zm-69.421 17.876l4.725-9.019h2.301l.907 9.019h-1.832l-.148-2.147H81.59l-1.061 2.147h-1.974zm3.806-3.751h2.054l-.16-2.325-.05-.747a8 8 0 01-.012-.771h-.03a7.902 7.902 0 01-.272.679c-.103.226-.218.466-.346.721l-1.184 2.443zm4.923 6.786a3.2 3.2 0 01-.907-.117v-1.48c.107.02.218.039.333.055.111.017.239.025.383.025.39 0 .713-.115.968-.346.255-.226.477-.516.667-.87l.16-.302-1.012-6.897h1.82l.346 3.196c.02.189.035.392.043.61a19.75 19.75 0 01.031 1.197h.049a7.28 7.28 0 00.173-.469c.061-.172.131-.359.21-.561.082-.206.178-.424.29-.654l1.603-3.319h2.018l-4.195 7.884c-.247.465-.525.85-.833 1.154a2.978 2.978 0 01-.993.672 2.988 2.988 0 01-1.154.222zm9.747-2.911c-.617 0-1.123-.12-1.517-.358a2.198 2.198 0 01-.87-.975 3.36 3.36 0 01-.278-1.394c0-.473.047-.909.142-1.308a4.3 4.3 0 01.401-1.08c.177-.316.387-.586.63-.808a2.67 2.67 0 011.808-.685c.287 0 .54.052.758.155.218.098.405.234.561.407a2.4 2.4 0 01.401.567h.05a1.91 1.91 0 00.012-.222v-.185c0-.826-.128-1.431-.383-1.813-.255-.383-.67-.574-1.246-.574-.193 0-.405.022-.635.068a3.187 3.187 0 00-.617.185l-.389-1.469c.267-.098.566-.172.895-.222.329-.053.674-.08 1.036-.08.757 0 1.37.163 1.838.488.473.32.819.775 1.037 1.363.222.588.333 1.285.333 2.091 0 .477-.033.952-.099 1.425a8.435 8.435 0 01-.29 1.358 6.022 6.022 0 01-.512 1.215c-.21.37-.462.695-.758.975-.293.275-.63.491-1.012.647a3.484 3.484 0 01-1.296.229zm.105-1.512a1.1 1.1 0 00.568-.148c.168-.099.316-.234.444-.407.132-.173.245-.374.34-.605.098-.23.18-.477.246-.74a7.63 7.63 0 00.166-.82 1.549 1.549 0 00-.234-.482 1.078 1.078 0 00-.37-.339 1.005 1.005 0 00-.506-.123c-.193 0-.37.039-.53.117-.16.078-.305.191-.432.339a1.996 1.996 0 00-.327.525 3.223 3.223 0 00-.198.697 4.765 4.765 0 00-.068.833c0 .361.079.645.235.851.156.201.378.302.666.302zm6.712 1.512c-.395 0-.722-.081-.981-.241a1.464 1.464 0 01-.58-.685 2.692 2.692 0 01-.191-1.055c0-.152.012-.347.037-.586.025-.238.062-.481.111-.728l.784-3.726h1.857l-.846 4.029c-.028.139-.053.271-.074.394a2.67 2.67 0 00-.024.34c0 .259.055.45.166.573.111.124.278.185.5.185.284 0 .537-.119.759-.357.226-.243.423-.566.592-.969a7.59 7.59 0 00.407-1.339l.605-2.856h1.857l-1.462 6.897h-1.419l.129-1.277h-.068a4.477 4.477 0 01-.586.728c-.21.21-.444.374-.703.494a2.06 2.06 0 01-.87.179zm5.429-.124l1.462-6.897h1.419l-.13 1.277h.056c.177-.275.372-.518.586-.728.214-.21.45-.374.709-.493.264-.124.556-.185.876-.185.473 0 .839.125 1.099.376.263.247.435.59.518 1.03h.049c.173-.275.368-.518.586-.728.218-.21.461-.374.728-.493a2.1 2.1 0 01.882-.185c.576 0 1.006.178 1.29.536.288.358.431.841.431 1.45 0 .152-.012.323-.037.512a7.111 7.111 0 01-.104.598l-.821 3.93h-1.857l.852-4.028c.032-.14.057-.272.074-.395.016-.123.024-.237.024-.339 0-.259-.051-.451-.154-.574-.099-.123-.249-.185-.45-.185a.972.972 0 00-.593.203 1.995 1.995 0 00-.493.568c-.148.243-.28.524-.395.845a7.895 7.895 0 00-.278 1.037l-.592 2.868h-1.857l.845-4.028a4.29 4.29 0 00.075-.395c.016-.123.024-.237.024-.339 0-.259-.051-.451-.154-.574-.099-.123-.249-.185-.45-.185-.21 0-.405.07-.586.21a2.053 2.053 0 00-.494.579c-.148.243-.28.525-.395.846-.111.32-.205.664-.284 1.03l-.604 2.856h-1.857z" fill="#000"/><path d="M112.152 98.138c0 6.978-5.657 12.635-12.634 12.635-6.978 0-12.635-5.657-12.635-12.635 0-6.977 5.657-12.634 12.635-12.634 6.977 0 12.634 5.657 12.634 12.634z" fill="url(#paint3_linear_1_3165)"/><path d="M101.122 102.663h-1.907v-5.22a35.986 35.986 0 01.025-1.184c.008-.226.016-.43.025-.61a4.166 4.166 0 01-.278.277c-.136.127-.263.243-.382.345l-1.037.833-.92-1.147 2.907-2.314h1.567v9.02z" fill="#fff"/><path d="M198.421 605.314c0 54.622-44.281 98.903-98.903 98.903-54.623 0-98.904-44.281-98.904-98.903 0-54.623 44.28-98.904 98.903-98.904 54.623 0 98.904 44.281 98.904 98.904z" fill="#fff" stroke="url(#paint4_linear_1_3165)" stroke-width=".395"/><path d="M44.247 504.171c.883-.482 1.729-.756 2.538-.82.818-.07 1.55.071 2.197.424.646.352 1.174.901 1.582 1.648.403.738.581 1.478.534 2.222-.052.734-.328 1.427-.828 2.079-.491.646-1.178 1.21-2.06 1.693l-2.3 1.257 1.608 2.939-1.892 1.034-5.569-10.184 4.19-2.292zm3 5.693c.824-.451 1.355-.967 1.59-1.55.236-.582.176-1.199-.179-1.848-.355-.65-.842-1.033-1.46-1.149-.617-.116-1.338.052-2.163.503l-2.211 1.209 2.211 4.045 2.212-1.21zm15.706-6.287c.054.133.12.327.198.582l-6.449 2.586c.356.56.842.925 1.458 1.095.622.155 1.287.091 1.995-.193.903-.362 1.527-.958 1.873-1.788l1.507.772a3.744 3.744 0 01-1 1.562c-.473.452-1.064.82-1.772 1.104-.903.362-1.77.502-2.602.418a4.25 4.25 0 01-2.199-.851c-.629-.498-1.106-1.152-1.43-1.963-.322-.8-.43-1.59-.326-2.371.11-.794.416-1.501.918-2.119.503-.618 1.16-1.09 1.97-1.415.8-.321 1.585-.428 2.355-.32a3.915 3.915 0 012.077.901c.614.492 1.09 1.158 1.427 2zm-5.242-1.042c-.615.247-1.065.641-1.347 1.184-.277.527-.34 1.112-.19 1.755l4.664-1.871c-.321-.562-.766-.943-1.335-1.144-.569-.2-1.166-.175-1.792.076zm10.879-5.505c1.256-.351 2.299-.315 3.128.108.837.409 1.426 1.22 1.764 2.434l1.396 4.999-1.885.527-.29-1.039c-.14.441-.412.827-.813 1.157-.394.317-.91.564-1.549.742-.639.179-1.227.228-1.766.149-.542-.09-.999-.289-1.372-.598a2.477 2.477 0 01-.754-1.219c-.214-.766-.102-1.458.334-2.073.444-.629 1.279-1.114 2.503-1.456l2.204-.615-.035-.128c-.167-.597-.475-1.004-.927-1.222-.44-.222-1.012-.234-1.715-.038a4.87 4.87 0 00-1.359.62 3.612 3.612 0 00-.992.949l-1.188-1.235c.352-.466.817-.877 1.394-1.233a7.425 7.425 0 011.921-.829zm1.76 7.359c.501-.14.912-.375 1.233-.705.328-.345.513-.752.554-1.223l-.276-.99-2.06.575c-1.15.321-1.62.86-1.41 1.616.102.362.326.609.673.742.347.133.776.128 1.287-.015zm14.024-10.607l1.46 8.734-2.045.341-1.17-7-3.271.546.208 1.748c.138 1.165.192 2.153.16 2.966-.024.799-.188 1.46-.494 1.982-.296.509-.77.818-1.425.927-.305.051-.692.054-1.159.009l-.188-1.734c.158.007.291.002.4-.016.415-.07.698-.285.85-.647a2.95 2.95 0 00.194-1.259c-.013-.48-.07-1.155-.17-2.023l-.416-3.394 7.066-1.18zm4.58-.569l2.07-.104.293 5.83 4.593-6.076 1.888-.094.444 8.844-2.07.104-.293-5.83-4.576 6.074-1.905.096-.444-8.844zm19.174 4.181c.542.188.952.468 1.228.84.287.361.416.784.386 1.27a2.135 2.135 0 01-.635 1.406c-.389.386-.911.675-1.565.867-.655.192-1.39.263-2.207.213a8.688 8.688 0 01-1.988-.356 7.228 7.228 0 01-1.728-.805l.691-1.502c.415.269.889.487 1.422.653a6.825 6.825 0 001.61.299c.695.043 1.242-.029 1.641-.215.411-.196.628-.481.651-.857.021-.342-.117-.616-.414-.823-.287-.206-.706-.326-1.257-.36l-1.722-.106.086-1.39 1.556.096c.519.032.927-.032 1.225-.19.309-.159.473-.398.493-.718.019-.32-.141-.584-.483-.794-.341-.209-.821-.333-1.439-.371-.883-.055-1.828.103-2.837.473l-.436-1.556c1.192-.469 2.379-.667 3.559-.594.751.046 1.417.193 2 .439.584.236 1.029.551 1.337.947.32.385.465.815.436 1.289a1.846 1.846 0 01-.469 1.134c-.286.315-.666.552-1.141.711zm9.161-3.271c1.287.21 2.219.681 2.794 1.413.587.723.78 1.707.577 2.95l-.836 5.123-1.931-.315.174-1.064c-.313.341-.722.577-1.225.708-.49.122-1.062.129-1.717.022-.655-.107-1.21-.309-1.665-.607-.454-.31-.785-.683-.994-1.12a2.476 2.476 0 01-.171-1.423c.128-.785.52-1.365 1.175-1.74.667-.384 1.628-.474 2.883-.269l2.259.368.021-.131c.1-.611-.009-1.11-.327-1.498-.307-.386-.82-.638-1.54-.755a4.858 4.858 0 00-1.494-.009 3.603 3.603 0 00-1.299.444l-.559-1.621c.515-.274 1.11-.451 1.784-.532a7.45 7.45 0 012.091.056zm-1.496 7.417c.513.084.985.043 1.415-.122a1.968 1.968 0 001.017-.876l.165-1.014-2.111-.345c-1.179-.192-1.831.099-1.957.874-.061.371.038.689.297.956.259.266.651.442 1.174.527zm16.926 3.596l-1.021 3.658-1.869-.522.548-1.964-7.491-2.091 2.381-8.529 1.997.557-1.909 6.836 4.073 1.137 1.909-6.836 1.996.557-1.908 6.836 1.294.361zm5.458-5.592l1.915.793-2.233 5.393 6.753-3.521 1.746.723-3.388 8.181-1.915-.793 2.233-5.393-6.738 3.528-1.761-.73 3.388-8.181zm18.664 8.917l-4.305 7.738-1.623-.903 1.298-2.333-2.043-1.137-2.878 1.454-1.942-1.08 3.261-1.564c-.452-.505-.718-1.038-.797-1.601-.064-.567.068-1.145.395-1.735.495-.888 1.191-1.399 2.087-1.533.897-.134 1.896.106 2.997.719l3.55 1.975zm-4.338-.422c-1.169-.65-1.998-.536-2.487.343-.484.87-.161 1.619.969 2.248l1.927 1.072 1.46-2.622-1.869-1.041z" fill="#616161"/><path d="M46.042 617.734l1.907-9.019h2.628c.576 0 1.077.068 1.505.204.428.131.759.345.993.641.239.292.358.679.358 1.16 0 .407-.078.769-.234 1.086a2.066 2.066 0 01-.667.783 2.894 2.894 0 01-1.067.445v.049c.411.107.738.306.981.598.247.288.37.658.37 1.111 0 .682-.156 1.242-.469 1.678-.312.432-.738.75-1.277.956-.534.206-1.137.308-1.807.308h-3.22zm2.215-1.579h1.11c.31 0 .579-.051.809-.154.23-.103.41-.255.537-.457.131-.201.197-.448.197-.74 0-.317-.095-.561-.284-.734-.185-.177-.467-.265-.845-.265h-1.018l-.506 2.35zm.82-3.868h.92c.3 0 .561-.039.783-.117.227-.082.401-.208.525-.376.123-.173.185-.395.185-.667 0-.279-.087-.489-.26-.629-.172-.144-.435-.216-.789-.216h-.938l-.425 2.005zm7.669 5.571c-.518 0-.977-.107-1.376-.321a2.34 2.34 0 01-.931-.913c-.222-.399-.333-.872-.333-1.419 0-.489.047-.956.142-1.4.098-.449.244-.86.438-1.234a3.65 3.65 0 01.734-.981 3.14 3.14 0 011.03-.648c.39-.156.83-.234 1.32-.234.535 0 .997.109 1.388.327.39.214.693.524.907.931.214.407.32.899.32 1.475 0 .469-.047.921-.141 1.357-.09.432-.23.835-.42 1.209-.189.37-.427.695-.715.975a3.13 3.13 0 01-1.024.647 3.653 3.653 0 01-1.339.229zm.154-1.512c.206 0 .393-.051.562-.154.168-.107.318-.253.45-.438.132-.189.24-.405.327-.648.09-.246.158-.512.204-.795.049-.284.074-.574.074-.87 0-.235-.03-.442-.087-.623a.818.818 0 00-.277-.432c-.128-.107-.3-.161-.519-.161-.226 0-.43.064-.61.192-.177.123-.331.29-.463.499-.132.21-.24.444-.327.704a5.18 5.18 0 00-.198.802 5.224 5.224 0 00-.061.783c0 .374.076.658.228.851.152.194.385.29.697.29zm7.163 1.512c-.477 0-.911-.085-1.302-.253a2.06 2.06 0 01-.925-.815c-.227-.374-.34-.863-.34-1.468 0-.497.052-.974.154-1.431a5.19 5.19 0 01.457-1.265c.201-.386.45-.721.746-1.005a3.26 3.26 0 011.018-.673 3.28 3.28 0 011.277-.24c.412 0 .78.039 1.105.117.329.078.635.187.919.327l-.568 1.413a7.95 7.95 0 00-.654-.247 2.336 2.336 0 00-.728-.105 1.29 1.29 0 00-.783.253 2.15 2.15 0 00-.58.679 3.702 3.702 0 00-.358.956 4.64 4.64 0 00-.123 1.067c0 .259.04.477.123.654.087.177.208.31.364.401.16.09.352.136.574.136.312 0 .602-.048.87-.142.267-.099.543-.22.826-.364v1.517a4.228 4.228 0 01-.931.358c-.333.087-.714.13-1.141.13zm6.107 0c-.477 0-.911-.085-1.302-.253a2.06 2.06 0 01-.925-.815c-.226-.374-.34-.863-.34-1.468 0-.497.052-.974.155-1.431a5.19 5.19 0 01.456-1.265c.202-.386.45-.721.747-1.005a3.26 3.26 0 011.018-.673c.382-.16.808-.24 1.277-.24.411 0 .78.039 1.104.117.329.078.635.187.92.327l-.568 1.413a7.936 7.936 0 00-.654-.247 2.335 2.335 0 00-.728-.105 1.29 1.29 0 00-.784.253 2.15 2.15 0 00-.58.679 3.698 3.698 0 00-.357.956 4.635 4.635 0 00-.124 1.067c0 .259.041.477.124.654.086.177.207.31.364.401.16.09.351.136.573.136.313 0 .603-.048.87-.142.267-.099.543-.22.827-.364v1.517a4.229 4.229 0 01-.932.358c-.333.087-.713.13-1.141.13zm3.214-.124l1.462-6.897h1.42l-.13 1.277h.055c.177-.275.372-.518.586-.728.214-.209.45-.374.71-.493a2.03 2.03 0 01.876-.185c.472 0 .839.125 1.098.376.263.247.436.59.518 1.03h.05a3.81 3.81 0 01.585-.728 2.54 2.54 0 01.728-.493 2.1 2.1 0 01.882-.185c.576 0 1.006.179 1.29.536.288.358.432.842.432 1.45 0 .152-.013.323-.037.512-.025.189-.06.389-.105.599l-.82 3.929h-1.858l.852-4.028a4.27 4.27 0 00.074-.395c.016-.123.024-.236.024-.339 0-.259-.051-.451-.154-.574-.099-.123-.249-.185-.45-.185a.964.964 0 00-.592.204 1.979 1.979 0 00-.494.567c-.148.243-.28.525-.395.845a7.938 7.938 0 00-.277 1.037l-.593 2.868h-1.856l.845-4.028c.032-.14.057-.272.074-.395a2.58 2.58 0 00.024-.339c0-.259-.051-.451-.154-.574-.099-.123-.249-.185-.45-.185a.94.94 0 00-.586.21c-.181.14-.346.333-.494.58a4.58 4.58 0 00-.395.845 8.716 8.716 0 00-.283 1.03l-.605 2.856h-1.857zm13.714.124a1.91 1.91 0 01-.944-.247c-.296-.165-.539-.43-.728-.796-.185-.366-.277-.851-.277-1.456 0-.452.047-.9.141-1.345.1-.444.239-.863.42-1.258a4.6 4.6 0 01.666-1.055 3.1 3.1 0 01.889-.728 2.265 2.265 0 011.08-.265c.291 0 .546.043.764.129.218.083.405.2.562.352.156.152.283.329.382.53h.05l.351-.882h1.431l-1.468 6.897h-1.388l.086-.894h-.049a3.451 3.451 0 01-.537.53 2.306 2.306 0 01-.641.358c-.235.087-.498.13-.79.13zm.728-1.499c.255 0 .492-.099.71-.296a2.61 2.61 0 00.56-.784 3.94 3.94 0 00.334-1.018 5.602 5.602 0 00.092-1.036c0-.292-.078-.533-.234-.722a.758.758 0 00-.63-.29c-.18 0-.353.06-.517.179a1.8 1.8 0 00-.445.481 3.593 3.593 0 00-.357.697 4.851 4.851 0 00-.308 1.703c0 .358.07.629.209.814.14.181.335.272.586.272zm4.51 1.375l1.474-6.897h1.876l-.574 2.653h2.153l.555-2.653h1.857l-1.468 6.897h-1.857l.592-2.844h-2.135l-.604 2.844h-1.87zm10.752.124c-.518 0-.976-.107-1.375-.321a2.338 2.338 0 01-.932-.913c-.222-.399-.333-.872-.333-1.419 0-.489.047-.956.142-1.4.099-.449.245-.86.438-1.234.197-.379.442-.706.734-.981.296-.28.64-.496 1.03-.648a3.536 3.536 0 011.32-.234c.535 0 .998.109 1.389.327a2.2 2.2 0 01.906.931c.214.407.321.899.321 1.475 0 .469-.047.921-.142 1.357a4.87 4.87 0 01-.419 1.209 3.69 3.69 0 01-.716.975 3.129 3.129 0 01-1.024.647 3.653 3.653 0 01-1.339.229zm.155-1.512c.205 0 .392-.051.561-.154a1.61 1.61 0 00.45-.438c.132-.189.241-.405.327-.648.091-.246.159-.512.204-.795.049-.284.074-.574.074-.87a2.07 2.07 0 00-.086-.623.82.82 0 00-.278-.432c-.128-.107-.3-.161-.518-.161-.226 0-.43.064-.611.192-.177.123-.331.29-.463.499-.131.21-.24.444-.327.704a5.19 5.19 0 00-.197.802 5.238 5.238 0 00-.062.783c0 .374.076.658.229.851.152.194.384.29.697.29zm7.538 1.512c-.625 0-1.157-.109-1.597-.327a2.269 2.269 0 01-1.006-.95c-.226-.416-.339-.919-.339-1.512 0-.46.051-.904.154-1.332a4.76 4.76 0 01.469-1.197c.205-.366.462-.685.771-.956.308-.276.666-.49 1.073-.642a3.786 3.786 0 011.364-.234c.493 0 .925.074 1.295.222.374.144.666.354.876.629.21.276.315.611.315 1.006 0 .345-.066.629-.198.851a1.389 1.389 0 01-.53.518c-.222.124-.477.22-.765.29v.049c.3.079.559.227.777.445.218.218.327.528.327.931 0 .387-.107.749-.321 1.086-.209.333-.534.605-.974.814-.44.206-1.004.309-1.691.309zm.025-1.296c.234 0 .432-.041.592-.123a.855.855 0 00.37-.333.937.937 0 00.13-.494.742.742 0 00-.13-.45c-.086-.119-.224-.208-.413-.265a2.455 2.455 0 00-.746-.093h-.901l-.012.197v.192c0 .493.106.845.32 1.055.214.209.477.314.79.314zm-.845-3.035h1.24c.238 0 .44-.031.604-.093a.788.788 0 00.383-.289.805.805 0 00.136-.475.547.547 0 00-.204-.457.813.813 0 00-.531-.167 1.3 1.3 0 00-.672.186 1.918 1.918 0 00-.555.518 3.122 3.122 0 00-.401.777zm5.12 4.331c-.189 0-.354-.013-.493-.037a2.161 2.161 0 01-.426-.111v-1.53c.086.037.171.064.253.08.082.012.171.018.265.018.161 0 .3-.057.42-.172.119-.115.226-.272.32-.469.099-.202.194-.432.284-.691l.29-.827c.206-.58.407-1.083.605-1.511.201-.432.438-.788.709-1.067.272-.28.611-.488 1.018-.624.411-.139.93-.209 1.555-.209.427 0 .831.037 1.209.111.378.074.687.156.925.247l-1.4 6.668h-1.857l1.16-5.459a2.305 2.305 0 00-.191-.031 1.04 1.04 0 00-.198-.019c-.337 0-.609.097-.814.29-.202.194-.381.481-.537.864-.156.378-.329.849-.518 1.413-.14.423-.282.82-.426 1.19-.14.37-.302.697-.487.981-.181.28-.405.5-.673.66-.267.157-.598.235-.993.235zm10.5 0c-.539 0-1.014-.097-1.425-.29a2.195 2.195 0 01-.956-.889c-.231-.394-.346-.89-.346-1.486 0-.576.083-1.131.247-1.666.165-.539.409-1.02.734-1.444a3.626 3.626 0 011.209-1.005c.482-.247 1.037-.37 1.666-.37.773 0 1.351.177 1.734.53.386.35.579.8.579 1.351 0 .362-.082.691-.246.987a2.127 2.127 0 01-.734.765c-.33.21-.743.373-1.24.488-.498.111-1.082.166-1.753.166h-.314l-.012.13v.123c0 .37.106.664.32.882.214.218.516.327.907.327.362 0 .691-.041.987-.123a6.865 6.865 0 001.049-.407v1.4a5.37 5.37 0 01-1.104.401c-.375.087-.808.13-1.302.13zm-.642-4.115h.278c.477 0 .864-.051 1.16-.154.3-.103.518-.239.654-.407a.844.844 0 00.21-.549c0-.198-.058-.344-.173-.438-.111-.099-.27-.149-.475-.149-.231 0-.459.072-.685.216a2.067 2.067 0 00-.598.599 2.533 2.533 0 00-.371.882zm4.633 3.991l1.475-6.897h1.875l-.573 2.653h2.153l.555-2.653h1.857l-1.469 6.897h-1.856l.592-2.844h-2.135l-.604 2.844h-1.87zm9.994.124c-.394 0-.721-.08-.98-.241a1.448 1.448 0 01-.58-.685 2.67 2.67 0 01-.192-1.055c0-.152.013-.347.037-.586.025-.238.062-.481.111-.728l.784-3.726h1.857l-.845 4.029c-.029.14-.054.271-.074.395a2.485 2.485 0 00-.025.339c0 .259.055.45.167.574.111.123.277.185.499.185.284 0 .537-.12.759-.358.226-.243.424-.566.592-.969a7.52 7.52 0 00.407-1.338l.605-2.857h1.857l-1.462 6.897h-1.419l.129-1.277h-.067a4.53 4.53 0 01-.586.728c-.21.21-.445.375-.704.494a2.06 2.06 0 01-.87.179zm8.483 0c-.539 0-1.014-.097-1.425-.29a2.195 2.195 0 01-.956-.889c-.231-.394-.346-.89-.346-1.486 0-.576.082-1.131.247-1.666.164-.539.409-1.02.734-1.444a3.626 3.626 0 011.209-1.005c.481-.247 1.037-.37 1.666-.37.773 0 1.351.177 1.733.53.387.35.58.8.58 1.351 0 .362-.082.691-.246.987a2.13 2.13 0 01-.735.765c-.329.21-.742.373-1.24.488-.497.111-1.081.166-1.752.166h-.314c-.004.05-.008.093-.013.13v.123c0 .37.107.664.321.882.214.218.516.327.907.327.362 0 .691-.041.987-.123a6.865 6.865 0 001.049-.407v1.4a5.37 5.37 0 01-1.104.401c-.375.087-.808.13-1.302.13zm-.642-4.115h.278c.477 0 .864-.051 1.16-.154.3-.103.518-.239.654-.407a.843.843 0 00.209-.549c0-.198-.057-.344-.172-.438-.111-.099-.27-.149-.475-.149-.231 0-.459.072-.685.216a2.067 2.067 0 00-.598.599 2.533 2.533 0 00-.371.882zm-95.899 22.115c-.395 0-.721-.08-.98-.241a1.456 1.456 0 01-.58-.685 2.68 2.68 0 01-.192-1.055 7.808 7.808 0 01.148-1.314l.784-3.726h1.857l-.845 4.029c-.03.14-.054.271-.074.395a2.564 2.564 0 00-.025.339c0 .259.055.45.166.574.111.123.278.185.5.185.284 0 .537-.12.759-.358.226-.243.424-.566.592-.969a7.52 7.52 0 00.407-1.338l.605-2.857h1.857l-1.462 6.897h-1.42l.13-1.277h-.067a4.477 4.477 0 01-.587.728c-.21.21-.444.375-.703.494a2.06 2.06 0 01-.87.179zm11.678 0c-.518 0-.976-.107-1.375-.321a2.34 2.34 0 01-.932-.913c-.222-.399-.333-.872-.333-1.419 0-.489.047-.956.142-1.4.099-.449.245-.86.438-1.234a3.65 3.65 0 01.734-.981 3.14 3.14 0 011.03-.648 3.536 3.536 0 011.32-.234c.535 0 .998.109 1.389.327a2.2 2.2 0 01.906.931c.214.407.321.899.321 1.475 0 .469-.047.921-.142 1.357-.09.432-.23.835-.42 1.209-.188.37-.427.695-.715.975a3.13 3.13 0 01-1.024.647 3.65 3.65 0 01-1.339.229zm.155-1.512c.205 0 .392-.051.561-.154a1.61 1.61 0 00.45-.438c.132-.189.241-.405.327-.648.09-.246.159-.512.204-.795.05-.284.074-.574.074-.87a2.07 2.07 0 00-.086-.623.818.818 0 00-.278-.432c-.127-.107-.3-.161-.518-.161-.226 0-.43.064-.61.192-.178.123-.332.29-.464.499-.131.21-.24.444-.326.704a5.168 5.168 0 00-.198.802 5.21 5.21 0 00-.062.783c0 .374.077.658.229.851.152.194.384.29.697.29zm4.269 1.388l1.462-6.897h1.419l-.13 1.277h.056c.177-.275.372-.518.586-.728.214-.209.45-.374.71-.493a2.03 2.03 0 01.875-.185c.395 0 .724.082.987.247.268.16.467.388.599.684.131.296.197.648.197 1.055 0 .152-.012.323-.037.512a7.39 7.39 0 01-.105.599l-.82 3.929h-1.857l.845-4.028c.033-.14.058-.272.074-.395a2.58 2.58 0 00.025-.339c0-.259-.056-.451-.167-.574-.11-.123-.277-.185-.5-.185-.28 0-.532.121-.758.364-.227.239-.424.559-.593.962-.164.403-.3.85-.407 1.339l-.604 2.856H67.61zm7.637 0l1.462-6.897h1.42l-.13 1.277h.055c.177-.275.372-.518.586-.728.214-.209.45-.374.71-.493a2.03 2.03 0 01.876-.185c.473 0 .839.125 1.098.376.263.247.436.59.518 1.03h.05a3.81 3.81 0 01.585-.728 2.54 2.54 0 01.728-.493c.272-.124.566-.185.883-.185.575 0 1.005.179 1.289.536.288.358.432.842.432 1.45 0 .152-.013.323-.037.512-.025.189-.06.389-.105.599l-.82 3.929h-1.858l.852-4.028a4.27 4.27 0 00.074-.395c.016-.123.024-.236.024-.339 0-.259-.051-.451-.154-.574-.099-.123-.249-.185-.45-.185a.965.965 0 00-.592.204 1.98 1.98 0 00-.494.567 4.65 4.65 0 00-.395.845 7.923 7.923 0 00-.277 1.037l-.593 2.868h-1.856l.845-4.028a4.11 4.11 0 00.074-.395c.016-.123.024-.236.024-.339 0-.259-.051-.451-.154-.574-.099-.123-.249-.185-.45-.185-.21 0-.405.07-.586.21-.181.14-.346.333-.494.58a4.58 4.58 0 00-.395.845 8.735 8.735 0 00-.283 1.03l-.605 2.856h-1.857zm13.646.124c-.395 0-.722-.08-.98-.241a1.456 1.456 0 01-.58-.685 2.68 2.68 0 01-.192-1.055 7.843 7.843 0 01.148-1.314l.784-3.726h1.857l-.846 4.029c-.028.14-.053.271-.074.395a2.564 2.564 0 00-.024.339c0 .259.055.45.166.574.111.123.278.185.5.185.284 0 .537-.12.759-.358.226-.243.424-.566.592-.969a7.63 7.63 0 00.407-1.338l.605-2.857h1.857l-1.462 6.897h-1.42l.13-1.277h-.068a4.482 4.482 0 01-.586.728c-.21.21-.444.375-.703.494a2.06 2.06 0 01-.87.179zm5.478-.124l1.456-6.897h2.56l.266 4.812h.037l2.48-4.812h2.64l-1.48 6.897h-1.715l.758-3.411c.07-.321.142-.629.216-.926.078-.296.144-.538.198-.727h-.037l-2.616 5.064h-1.783l-.278-5.064h-.024c-.041.337-.089.643-.142.919-.05.271-.103.541-.16.808l-.667 3.337h-1.709zm11.919.124c-.395 0-.722-.08-.981-.241a1.46 1.46 0 01-.58-.685 2.689 2.689 0 01-.191-1.055c0-.152.012-.347.037-.586.025-.238.062-.481.111-.728l.784-3.726h1.857l-.846 4.029c-.028.14-.053.271-.074.395a2.643 2.643 0 00-.024.339c0 .259.055.45.166.574.111.123.278.185.5.185.284 0 .537-.12.759-.358.226-.243.423-.566.592-.969.169-.407.304-.853.407-1.338l.605-2.857h1.857l-1.462 6.897h-1.419l.129-1.277h-.068a4.424 4.424 0 01-.586.728c-.209.21-.444.375-.703.494a2.06 2.06 0 01-.87.179zm7.65 0c-.465 0-.901-.045-1.308-.136a4.208 4.208 0 01-.987-.327v-1.53c.28.14.609.265.987.376.383.111.798.167 1.246.167.292 0 .557-.027.796-.08a1.27 1.27 0 00.58-.272c.144-.131.216-.312.216-.543a.608.608 0 00-.272-.536c-.181-.124-.452-.185-.814-.185h-1.086l.278-1.302h.771c.35 0 .642-.023.876-.068.234-.049.409-.129.524-.24.12-.116.179-.274.179-.475a.52.52 0 00-.209-.445c-.14-.107-.387-.16-.741-.16-.275 0-.586.045-.931.136-.342.09-.679.207-1.012.351l-.444-1.351a8.784 8.784 0 011.277-.382 6.65 6.65 0 011.437-.148c.473 0 .897.057 1.271.172.374.116.668.299.882.55.218.246.327.575.327.987 0 .333-.072.61-.216.832a1.609 1.609 0 01-.573.543c-.239.136-.51.245-.815.327v.05c.342.094.621.253.839.475.222.222.333.528.333.919 0 .456-.121.857-.364 1.203-.242.345-.614.615-1.116.808-.502.189-1.146.284-1.931.284zm6.681 0a1.91 1.91 0 01-.944-.247c-.296-.165-.539-.43-.728-.796-.185-.366-.277-.851-.277-1.456a6.236 6.236 0 01.561-2.603c.185-.399.407-.751.666-1.055a3.1 3.1 0 01.889-.728 2.264 2.264 0 011.079-.265c.292 0 .547.043.765.129.218.083.405.2.562.352.156.152.283.329.382.53h.049l.352-.882h1.431l-1.468 6.897h-1.388l.086-.894h-.049a3.444 3.444 0 01-.537.53 2.304 2.304 0 01-.641.358c-.235.087-.498.13-.79.13zm.728-1.499c.255 0 .491-.099.709-.296.218-.202.406-.463.562-.784.156-.321.267-.66.333-1.018a5.761 5.761 0 00.093-1.036c0-.292-.079-.533-.235-.722a.757.757 0 00-.629-.29.87.87 0 00-.518.179 1.795 1.795 0 00-.445.481 3.58 3.58 0 00-.357.697 4.897 4.897 0 00-.309 1.703c0 .358.07.629.21.814.14.181.335.272.586.272zm9.032 3.849l.592-2.474a1.186 1.186 0 01-.376-.277 1.322 1.322 0 01-.235-.377 3.746 3.746 0 01-.148-.456h-.049a3.945 3.945 0 01-.574.648c-.21.185-.442.329-.697.432a2.178 2.178 0 01-.827.154c-.395 0-.724-.08-.987-.241a1.512 1.512 0 01-.598-.685 2.6 2.6 0 01-.198-1.055c0-.152.017-.347.05-.586.037-.238.08-.481.129-.728l.784-3.726h1.857l-.846 4.029c-.028.14-.053.271-.074.395a2.643 2.643 0 00-.024.339c0 .259.055.45.166.574.111.123.278.185.5.185.284 0 .537-.12.759-.358.226-.243.423-.566.592-.969.169-.407.304-.853.407-1.338l.605-2.857h1.857l-1 4.714a6.631 6.631 0 00-.031.172 2.082 2.082 0 00-.006.154c0 .14.035.243.105.309.07.062.163.092.278.092.098 0 .193-.008.284-.024.09-.017.18-.037.271-.062l-.845 4.016h-1.721zm5.521-2.35c-.395 0-.722-.08-.981-.241a1.46 1.46 0 01-.58-.685 2.689 2.689 0 01-.191-1.055c0-.152.012-.347.037-.586.025-.238.062-.481.111-.728l.783-3.726h1.857l-.845 4.029c-.029.14-.053.271-.074.395a2.643 2.643 0 00-.024.339c0 .259.055.45.166.574.111.123.278.185.5.185.284 0 .536-.12.759-.358.226-.243.423-.566.592-.969a7.69 7.69 0 00.407-1.338l.605-2.857h1.856l-1.462 6.897h-1.419l.13-1.277h-.068a4.477 4.477 0 01-.586.728c-.21.21-.444.375-.703.494a2.06 2.06 0 01-.87.179zm6.009 0c-.177 0-.346-.013-.506-.037a1.985 1.985 0 01-.426-.111v-1.53c.062.024.134.047.216.068.082.02.169.03.259.03.115 0 .216-.02.302-.061a.794.794 0 00.229-.179c.066-.074.125-.156.179-.247a7.01 7.01 0 01.388-.586c.115-.152.235-.273.358-.364.123-.095.265-.167.426-.216a1.983 1.983 0 01-.5-.302 1.341 1.341 0 01-.345-.469 1.68 1.68 0 01-.124-.679c0-.411.078-.765.235-1.061.156-.296.37-.536.641-.721.276-.19.592-.33.95-.42a4.77 4.77 0 011.154-.136h2.881l-1.45 6.897h-1.863l.561-2.566h-.382c-.267 0-.477.086-.629.259-.152.169-.29.387-.414.654a7.076 7.076 0 01-.444.821 2.682 2.682 0 01-.401.481 1.737 1.737 0 01-.543.345c-.209.087-.46.13-.752.13zm3.257-3.955h.574l.364-1.739h-.784a1.23 1.23 0 00-.543.117.882.882 0 00-.382.333.987.987 0 00-.136.537c0 .226.072.409.216.549.148.135.378.203.691.203z" fill="#000"/><circle cx="98.764" cy="583.458" r="12.634" fill="url(#paint5_linear_1_3165)"/><path d="M101.608 580.98c0 .415-.087.775-.259 1.08a2.148 2.148 0 01-.704.746 3.155 3.155 0 01-.987.426v.037c.724.09 1.273.312 1.647.666.379.354.568.827.568 1.419 0 .526-.13.997-.389 1.413-.255.415-.65.742-1.184.981-.535.238-1.224.357-2.067.357a7.47 7.47 0 01-1.394-.123 5.55 5.55 0 01-1.21-.364v-1.623a5.52 5.52 0 001.216.451 5.22 5.22 0 001.184.148c.683 0 1.16-.117 1.432-.352.275-.238.413-.571.413-.999 0-.251-.064-.463-.191-.636-.128-.172-.35-.304-.666-.394-.313-.091-.751-.136-1.314-.136h-.685v-1.462h.697c.555 0 .977-.052 1.265-.154.292-.107.489-.251.592-.432.107-.185.16-.395.16-.63 0-.32-.099-.571-.296-.752-.197-.181-.526-.272-.987-.272a2.66 2.66 0 00-.79.111c-.234.07-.446.157-.635.26-.19.098-.356.195-.5.29l-.882-1.315a4.96 4.96 0 011.24-.635c.477-.169 1.045-.253 1.703-.253.93 0 1.665.187 2.208.562.543.374.815.902.815 1.585z" fill="#fff"/><defs><linearGradient id="paint0_linear_1_3165" x1="79.815" y1="363.049" x2="278.039" y2="360.801" gradientUnits="userSpaceOnUse"><stop stop-color="#D14B5F"/><stop offset="1" stop-color="#EF8E18"/></linearGradient><linearGradient id="paint1_linear_1_3165" x1="177.388" y1="329.82" x2="177.388" y2="370.848" gradientUnits="userSpaceOnUse"><stop stop-color="#E64B13"/><stop offset="1" stop-color="#FAFF00"/></linearGradient><linearGradient id="paint2_linear_1_3165" x1=".85" y1="120.534" x2="199.074" y2="118.286" gradientUnits="userSpaceOnUse"><stop stop-color="#D14B5F"/><stop offset="1" stop-color="#EF8E18"/></linearGradient><linearGradient id="paint3_linear_1_3165" x1="98.424" y1="87.051" x2="98.424" y2="128.079" gradientUnits="userSpaceOnUse"><stop stop-color="#E64B13"/><stop offset="1" stop-color="#FAFF00"/></linearGradient><linearGradient id="paint4_linear_1_3165" x1=".85" y1="605.599" x2="199.074" y2="603.351" gradientUnits="userSpaceOnUse"><stop stop-color="#D14B5F"/><stop offset="1" stop-color="#EF8E18"/></linearGradient><linearGradient id="paint5_linear_1_3165" x1="97.67" y1="572.37" x2="97.67" y2="613.398" gradientUnits="userSpaceOnUse"><stop stop-color="#E64B13"/><stop offset="1" stop-color="#FAFF00"/></linearGradient></defs></svg>